<?xml version="1.0" standalone="no"?>
<!DOCTYPE svg PUBLIC "-//W3C//DTD SVG 1.1//EN" "http://www.w3.org/Graphics/SVG/1.1/DTD/svg11.dtd" >
<svg xmlns="http://www.w3.org/2000/svg" xmlns:xlink="http://www.w3.org/1999/xlink" version="1.1">
<metadata>
Created by FontForge 20141024 at Fri Mar 20 09:45:02 2015
 By System Administrator
Berthold first published Akzidenz-Grotesk in 1896. The design originates from Royal Grotesk light by Ferdinand Theinhardt who also supplied the regular, medium and bold weights. Throughout the years, Berthold has expanded this extremely popular and versatile family. AG Super was developed in 1968 by Guenter Gerhard Lange and is an excellent choice for headlines. In 2001, Guenter Gerhard Lange added more weights for Berthold including Super Italic and Extra Bold italic.
</metadata>
<defs>
<font id="AkzidenzGroteskPro-Light" horiz-adv-x="521" >
  <font-face 
    font-family="Akzidenz-Grotesk Pro Light"
    font-weight="300"
    font-stretch="normal"
    units-per-em="1000"
    panose-1="2 0 5 6 4 0 0 2 0 3"
    ascent="750"
    descent="-250"
    x-height="477"
    cap-height="706"
    bbox="-179 -301 1219 998"
    underline-thickness="50"
    underline-position="-50"
    stemh="50"
    stemv="57"
    unicode-range="U+0020-FB02"
  />
<missing-glyph horiz-adv-x="500" 
d="M0 0v706h500v-706h-500zM250 401l170 255h-340zM280 353l170 -258v516zM80 50h340l-170 258zM50 611v-516l170 258z" />
    <glyph glyph-name="fi" unicode="fi" 
d="M446 589h-58v91h58v-91zM446 0h-58v477h58v-477zM295 427h-108v-427h-59v427h-105v50h105v132c0 43 5 111 106 111c23 0 39 -3 61 -7v-58c-11 4 -29 13 -57 13c-43 0 -51 -32 -51 -66v-125h108v-50z" />
    <glyph glyph-name="fl" unicode="fl" 
d="M447 0h-60v706h60v-706zM295 427h-108v-427h-59v427h-105v50h105v132c0 43 5 111 106 111c23 0 39 -3 61 -7v-58c-11 4 -29 13 -57 13c-43 0 -51 -32 -51 -66v-125h108v-50z" />
    <glyph glyph-name=".notdef" horiz-adv-x="500" 
d="M0 0v706h500v-706h-500zM250 401l170 255h-340zM280 353l170 -258v516zM80 50h340l-170 258zM50 611v-516l170 258z" />
    <glyph glyph-name="space" unicode=" " horiz-adv-x="258" 
 />
    <glyph glyph-name="exclam" unicode="!" horiz-adv-x="208" 
d="M92 712h64v-405l-9 -131h-47l-8 131v405zM162 0h-76v116h76v-116z" />
    <glyph glyph-name="quotedbl" unicode="&#x22;" horiz-adv-x="357" 
d="M306 743l-26 -291h-30l-27 291h83zM134 743l-26 -291h-30l-27 291h83z" />
    <glyph glyph-name="numbersign" unicode="#" horiz-adv-x="667" 
d="M624 410h-175l-13 -97h168v-54h-175l-35 -259h-62l38 259h-101l-38 -259h-58l36 259h-167v54h175l13 97h-167v57h174l32 241h63l-34 -241h100l31 241h60l-33 -241h168v-57zM390 410h-100l-14 -97h101z" />
    <glyph glyph-name="dollar" unicode="$" horiz-adv-x="604" 
d="M323 -92h-58v92c-48 5 -174 22 -239 178l71 7c31 -66 90 -112 168 -123v284c-145 39 -197 105 -197 182c0 152 151 175 197 178v62h58v-62c93 -8 169 -55 197 -163l-67 -7c-31 85 -95 104 -130 107v-247c121 -34 229 -72 229 -193c0 -36 -13 -119 -101 -169
c-22 -12 -66 -32 -128 -34v-92zM265 414v231c-111 -6 -131 -75 -131 -112c0 -57 45 -96 131 -119zM323 327v-267c134 0 161 98 161 137c0 77 -71 106 -161 130z" />
    <glyph glyph-name="percent" unicode="%" horiz-adv-x="875" 
d="M638 730l-353 -769l-40 18l351 770zM31 488c0 112 43 226 158 226c136 0 155 -155 155 -234c0 -128 -55 -223 -157 -223c-123 0 -156 133 -156 231zM82 484c0 -33 3 -182 106 -182c92 0 105 119 105 184c0 113 -41 184 -104 184c-80 0 -107 -91 -107 -186zM530 223
c0 112 43 226 158 226c136 0 155 -155 155 -234c0 -128 -55 -223 -157 -223c-123 0 -156 133 -156 231zM581 219c0 -33 3 -182 106 -182c92 0 105 119 105 184c0 113 -41 184 -104 184c-80 0 -107 -91 -107 -186z" />
    <glyph glyph-name="ampersand" unicode="&#x26;" horiz-adv-x="646" 
d="M494 316h63c-7 -94 -25 -130 -50 -179c49 -61 70 -85 113 -85v-61c-69 0 -110 42 -151 92c-39 -50 -101 -91 -194 -91c-24 0 -85 2 -140 42c-51 38 -80 92 -80 154c0 127 105 197 177 242c-13 17 -57 76 -57 151c0 83 56 138 140 138c76 0 138 -43 138 -124
c0 -88 -72 -146 -137 -186c25 -40 54 -81 81 -122c23 -34 46 -68 72 -99c23 62 24 95 25 128zM284 462c50 23 107 66 107 129c0 21 -12 72 -75 72c-71 0 -80 -57 -80 -82c0 -43 27 -83 48 -119zM435 128c-61 83 -113 167 -170 250c-71 -45 -141 -95 -141 -187
c0 -102 92 -141 151 -141c35 0 103 9 160 78z" />
    <glyph glyph-name="quotesingle" unicode="'" horiz-adv-x="185" 
d="M134 743l-26 -291h-30l-27 291h83z" />
    <glyph glyph-name="parenleft" unicode="(" horiz-adv-x="308" 
d="M283 797l24 -33c-131 -108 -191 -247 -191 -435c0 -154 57 -348 195 -454l-25 -37c-158 120 -243 291 -243 487c0 185 83 371 240 472z" />
    <glyph glyph-name="parenright" unicode=")" horiz-adv-x="313" 
d="M8 764l25 37c157 -121 242 -291 242 -486c0 -186 -84 -373 -242 -473l-24 32c132 109 192 248 192 437c0 171 -59 345 -193 453z" />
    <glyph glyph-name="asterisk" unicode="*" horiz-adv-x="357" 
d="M324 595l-110 -39l67 -91l-37 -27l-68 90l-61 -90l-38 27l62 92l-106 30l14 43l106 -28v109h48v-111l108 36z" />
    <glyph glyph-name="plus" unicode="+" horiz-adv-x="724" 
d="M630 263h-238v-238h-60v238h-238v60h238v237h60v-237h238v-60z" />
    <glyph glyph-name="comma" unicode="," horiz-adv-x="167" 
d="M44 116h79v-98c0 -73 -4 -114 -46 -176l-33 23c31 50 38 77 38 135h-38v116z" />
    <glyph glyph-name="hyphen" unicode="-" horiz-adv-x="341" 
d="M303 264h-265v60h265v-60z" />
    <glyph glyph-name="period" unicode="." horiz-adv-x="167" 
d="M123 0h-79v116h79v-116z" />
    <glyph glyph-name="slash" unicode="/" horiz-adv-x="479" 
d="M469 706l-383 -706h-76l385 706h74z" />
    <glyph glyph-name="zero" unicode="0" horiz-adv-x="583" 
d="M44 359c0 121 40 361 249 361c240 0 247 -304 247 -375c0 -76 -23 -358 -250 -358c-164 0 -246 157 -246 372zM111 355c0 -147 36 -312 181 -312c132 0 181 139 181 304c0 168 -50 318 -181 318c-157 0 -181 -217 -181 -310z" />
    <glyph glyph-name="one" unicode="1" horiz-adv-x="583" 
d="M350 0h-61v573c-21 -18 -75 -28 -111 -28h-17v54c21 0 128 4 128 92v15h61v-706z" />
    <glyph glyph-name="two" unicode="2" horiz-adv-x="583" 
d="M60 0v55c109 66 241 166 313 241c22 23 91 96 91 203c0 98 -66 168 -175 168c-90 0 -172 -59 -172 -159c0 -62 36 -105 49 -120l-82 10c-22 55 -25 90 -25 116c0 109 74 206 231 206c109 0 240 -58 240 -225c0 -34 -5 -87 -48 -155c-88 -140 -304 -271 -330 -285h354v-55
h-446z" />
    <glyph glyph-name="three" unicode="3" horiz-adv-x="583" 
d="M174 339v55h100c125 0 172 54 172 132c0 100 -83 141 -156 141c-112 0 -152 -79 -161 -119c-2 -8 -3 -19 -3 -38l-70 19c25 103 85 191 234 191c54 0 113 -15 156 -50c61 -49 63 -121 63 -146c0 -60 -23 -114 -80 -138c-23 -10 -51 -14 -74 -17c40 -2 65 -11 80 -18
c35 -16 89 -59 89 -154c0 -141 -111 -210 -236 -210c-119 0 -181 58 -207 99c-14 22 -32 58 -38 116l67 22c0 -132 78 -180 179 -180c139 0 168 90 168 148c0 17 -2 79 -49 116c-40 31 -88 31 -136 31h-98z" />
    <glyph glyph-name="four" unicode="4" horiz-adv-x="583" 
d="M542 177h-110v-177h-61v177h-315v51l310 478h66v-474h110v-55zM371 232v375l-246 -375h246z" />
    <glyph glyph-name="five" unicode="5" horiz-adv-x="583" 
d="M472 706v-59h-315l-14 -243c20 41 67 85 157 85c126 0 224 -92 224 -247c0 -140 -83 -256 -237 -256c-129 0 -216 70 -234 200l65 19c1 -90 58 -163 167 -163c117 0 173 85 173 198c0 99 -49 196 -167 196c-70 0 -135 -47 -153 -135l-51 6s11 374 12 399h373z" />
    <glyph glyph-name="six" unicode="6" horiz-adv-x="583" 
d="M535 564l-66 -23c-4 47 -28 123 -144 123c-162 0 -193 -147 -204 -288c38 54 95 97 192 97c22 0 91 -3 147 -48c76 -61 82 -162 82 -197c0 -136 -85 -241 -239 -241c-214 0 -246 199 -246 344c0 101 12 217 76 299c49 63 110 90 190 90c129 0 189 -77 212 -156zM124 249
c0 -68 36 -207 181 -207c146 0 171 128 171 186c0 123 -67 191 -168 191c-83 0 -184 -57 -184 -170z" />
    <glyph glyph-name="seven" unicode="7" horiz-adv-x="583" 
d="M511 706v-59c-55 -75 -86 -127 -106 -163c-114 -208 -132 -394 -141 -484h-67c11 174 67 341 154 490c31 54 67 106 103 157h-334v-158h-57v217h448z" />
    <glyph glyph-name="eight" unicode="8" horiz-adv-x="583" 
d="M396 376c52 -13 142 -71 142 -183c0 -118 -96 -206 -245 -206c-175 0 -248 110 -248 210c0 73 43 150 145 179c-45 16 -118 64 -118 158c0 98 74 186 222 186c125 0 224 -66 224 -183c0 -89 -55 -143 -122 -161zM135 531c0 -82 78 -130 160 -130c56 0 159 23 159 132
c0 56 -34 132 -160 132c-125 0 -159 -82 -159 -134zM112 197c0 -65 44 -153 180 -153c115 0 180 64 180 154c0 79 -66 148 -180 148c-89 0 -180 -47 -180 -149z" />
    <glyph glyph-name="nine" unicode="9" horiz-adv-x="583" 
d="M50 143l69 25c9 -86 57 -126 144 -126c174 0 192 157 200 301c-31 -61 -97 -109 -196 -109c-123 0 -227 87 -227 241c0 141 90 245 235 245c136 0 252 -77 252 -347c0 -133 -21 -386 -267 -386c-109 0 -178 51 -210 156zM107 476c0 -89 37 -186 170 -186
c115 0 181 81 181 162c0 107 -57 216 -184 216c-106 0 -167 -76 -167 -192z" />
    <glyph glyph-name="colon" unicode=":" horiz-adv-x="208" 
d="M165 352h-79v116h79v-116zM165 0h-79v116h79v-116z" />
    <glyph glyph-name="semicolon" unicode=";" horiz-adv-x="208" 
d="M165 352h-79v116h79v-116zM86 116h79v-115c0 -67 -10 -103 -47 -159l-32 23c31 50 38 76 38 135h-38v116z" />
    <glyph glyph-name="less" unicode="&#x3c;" horiz-adv-x="724" 
d="M580 20l-466 236v68l466 239v-64l-409 -208l409 -206v-65z" />
    <glyph glyph-name="equal" unicode="=" horiz-adv-x="724" 
d="M625 349h-526v59h526v-59zM625 173h-526v58h526v-58z" />
    <glyph glyph-name="greater" unicode="&#x3e;" horiz-adv-x="724" 
d="M610 257l-465 -240v65l409 208l-409 206v64l465 -236v-67z" />
    <glyph glyph-name="question" unicode="?" horiz-adv-x="479" 
d="M213 169v35c0 43 4 75 43 115c59 61 142 114 142 206c0 14 -7 134 -138 134c-89 0 -132 -64 -132 -135c0 -18 2 -55 25 -97l-75 22c-3 14 -11 44 -11 81c0 176 157 188 195 188c132 0 200 -95 200 -199c0 -21 -5 -66 -31 -107c-22 -36 -63 -70 -95 -101
c-57 -55 -61 -73 -61 -106v-36h-62zM284 0h-78v116h78v-116z" />
    <glyph glyph-name="at" unicode="@" horiz-adv-x="896" 
d="M585 492h59l-32 -146c-13 -58 -30 -117 -30 -177c0 -22 11 -49 37 -49c21 0 42 17 56 30c69 62 106 182 106 273c0 156 -103 245 -255 245c-232 0 -412 -208 -412 -434c0 -200 147 -313 338 -313c126 0 249 56 338 145l27 -32c-104 -96 -220 -158 -365 -158
c-212 0 -383 136 -383 357c0 255 201 479 461 479c177 0 297 -108 297 -288c0 -194 -123 -352 -228 -352c-59 0 -80 39 -80 93c-35 -51 -87 -92 -151 -92c-91 0 -127 79 -127 159c0 120 78 283 209 283c62 0 99 -40 119 -95zM548 352c0 56 -30 110 -92 110
c-98 0 -147 -146 -147 -226c0 -55 25 -109 87 -109c101 0 152 141 152 225z" />
    <glyph glyph-name="A" unicode="A" horiz-adv-x="646" 
d="M635 0h-73l-81 213h-316l-81 -213h-74l288 706h56zM461 267l-136 361l-138 -361h274z" />
    <glyph glyph-name="B" unicode="B" horiz-adv-x="667" 
d="M81 706h317c50 0 124 -7 171 -71c31 -42 34 -87 34 -105c0 -59 -35 -137 -127 -150c96 -19 150 -83 150 -181c0 -31 -6 -125 -96 -172c-47 -25 -105 -27 -158 -27h-291v706zM148 646v-239h229c116 0 156 56 156 124c0 12 -1 42 -21 69c-34 46 -94 46 -145 46h-219z
M148 61h251c96 0 160 44 160 136c0 26 -6 88 -71 126c-44 26 -95 26 -144 26h-196v-288z" />
    <glyph glyph-name="C" unicode="C" horiz-adv-x="667" 
d="M625 541l-68 -34c-17 76 -68 158 -204 158c-207 0 -233 -212 -233 -308c0 -119 22 -315 246 -315c101 0 167 61 191 150l63 -38c-56 -116 -131 -172 -262 -172c-249 0 -308 208 -308 367c0 146 52 375 301 375c170 0 234 -88 274 -183z" />
    <glyph glyph-name="D" unicode="D" horiz-adv-x="688" 
d="M81 706h219c95 0 172 -3 243 -78c40 -42 95 -130 95 -273c0 -38 -4 -174 -93 -272c-11 -12 -44 -46 -91 -64s-92 -19 -189 -19h-184v706zM149 645v-585h106c93 0 150 4 188 22c94 43 127 173 127 271c0 69 -23 234 -142 278c-39 14 -75 14 -155 14h-124z" />
    <glyph glyph-name="E" unicode="E" horiz-adv-x="604" 
d="M567 0h-486v706h461v-61h-394v-252h357v-62h-357v-269h419v-62z" />
    <glyph glyph-name="F" unicode="F" horiz-adv-x="562" 
d="M543 647h-397v-239h356v-58h-356v-350h-65v706h462v-59z" />
    <glyph glyph-name="G" unicode="G" horiz-adv-x="708" 
d="M304 369h318v-369h-58v118c-40 -102 -128 -136 -213 -136c-217 0 -301 183 -301 366c0 161 71 376 317 376c178 0 233 -117 260 -179l-63 -34c-21 80 -75 157 -191 157c-134 0 -252 -100 -252 -317c0 -204 94 -309 233 -309c42 0 210 7 210 266h-260v61z" />
    <glyph glyph-name="H" unicode="H" horiz-adv-x="729" 
d="M648 0h-67v331h-434v-331h-66v706h66v-315h434v315h67v-706z" />
    <glyph glyph-name="I" unicode="I" horiz-adv-x="229" 
d="M148 0h-67v706h67v-706z" />
    <glyph glyph-name="J" unicode="J" horiz-adv-x="500" 
d="M353 706h66v-490c0 -131 -31 -232 -197 -232c-74 0 -161 19 -195 117c-13 38 -13 84 -14 93l71 16c-1 -11 -1 -21 -1 -33c0 -14 0 -66 32 -98c37 -36 97 -36 113 -36c19 0 72 0 103 48c22 35 22 92 22 132v483z" />
    <glyph glyph-name="K" unicode="K" horiz-adv-x="667" 
d="M649 0h-82l-264 382l-154 -155v-227h-68v706h68v-394l384 394h92l-276 -280z" />
    <glyph glyph-name="L" unicode="L" horiz-adv-x="562" 
d="M539 0h-458v706h68v-644h390v-62z" />
    <glyph glyph-name="M" unicode="M" horiz-adv-x="792" 
d="M711 0h-66c0 17 5 600 5 600l-230 -600h-46l-235 600s8 -588 8 -600h-66v706h79l239 -599l229 599h83v-706z" />
    <glyph glyph-name="N" unicode="N" horiz-adv-x="708" 
d="M627 0h-66l-414 610v-610h-66v706h66l419 -604s-5 589 -5 604h66v-706z" />
    <glyph glyph-name="O" unicode="O" horiz-adv-x="708" 
d="M50 355c0 131 53 369 306 369c187 0 302 -135 302 -362c0 -181 -81 -380 -302 -380c-241 0 -306 221 -306 373zM121 353c0 -91 29 -311 232 -311c182 0 234 184 234 322c0 108 -46 302 -231 302c-175 0 -235 -169 -235 -313z" />
    <glyph glyph-name="P" unicode="P" horiz-adv-x="625" 
d="M81 706h283c124 0 164 -12 203 -56c19 -22 46 -66 46 -137c0 -44 -12 -91 -40 -128c-50 -64 -123 -67 -241 -67h-187v-318h-64v706zM145 650v-273h247c88 0 156 34 156 137c0 12 0 47 -20 80c-33 54 -89 56 -144 56h-239z" />
    <glyph glyph-name="Q" unicode="Q" horiz-adv-x="708" 
d="M695 29l-42 -45l-89 82c-33 -33 -94 -84 -208 -84c-234 0 -306 208 -306 364c0 213 112 378 312 378c224 0 298 -206 298 -363c0 -41 -2 -143 -60 -244zM592 349c0 102 -31 317 -233 317c-187 0 -239 -186 -239 -318c0 -91 30 -309 236 -309c147 0 236 122 236 310z" />
    <glyph glyph-name="R" unicode="R" horiz-adv-x="646" 
d="M81 706h274c76 0 154 -12 201 -69c24 -29 45 -76 45 -133c0 -125 -96 -191 -209 -191l229 -313h-84l-223 313h-165v-313h-68v706zM149 646v-275h211c85 0 175 21 175 136c0 13 -1 47 -21 79c-33 55 -90 60 -147 60h-218z" />
    <glyph glyph-name="S" unicode="S" horiz-adv-x="604" 
d="M561 569l-62 -33c-7 22 -15 42 -29 61c-20 29 -68 72 -154 72c-122 0 -166 -67 -166 -126c0 -91 82 -114 150 -132l68 -18c127 -34 207 -89 207 -200c0 -37 -11 -106 -87 -161c-33 -23 -84 -50 -176 -50c-135 0 -234 58 -263 196l67 35c2 -42 7 -60 16 -79
c20 -44 73 -93 180 -93c130 0 195 70 195 150c0 78 -50 115 -150 141l-81 21c-80 21 -191 58 -191 188c0 98 72 183 233 183c97 0 198 -33 243 -155z" />
    <glyph glyph-name="T" unicode="T" horiz-adv-x="542" 
d="M527 647h-223v-647h-67v647h-222v59h512v-59z" />
    <glyph glyph-name="U" unicode="U" horiz-adv-x="688" 
d="M608 706v-443c0 -156 -58 -281 -264 -281c-69 0 -264 16 -264 267v457h66v-475c0 -158 117 -187 199 -187c126 0 196 58 196 204v458h67z" />
    <glyph glyph-name="V" unicode="V" horiz-adv-x="604" 
d="M594 706l-265 -706h-60l-259 706h74l217 -614l222 614h71z" />
    <glyph glyph-name="W" unicode="W" horiz-adv-x="875" 
d="M864 706l-201 -706h-54l-169 571l-168 -571h-53l-209 706h72l166 -586l168 586h46l174 -586l161 586h67z" />
    <glyph glyph-name="X" unicode="X" horiz-adv-x="667" 
d="M646 0h-83l-228 338l-237 -338h-77l268 380l-231 326h85l192 -285l196 285h81l-232 -326z" />
    <glyph glyph-name="Y" unicode="Y" horiz-adv-x="625" 
d="M615 706l-276 -414v-292h-66v292l-263 414h79l218 -351l227 351h81z" />
    <glyph glyph-name="Z" unicode="Z" horiz-adv-x="583" 
d="M554 660l-430 -600h424v-60h-519v44l435 602h-409v60h499v-46z" />
    <glyph glyph-name="bracketleft" unicode="[" horiz-adv-x="271" 
d="M244 -144h-170v923h170v-51h-109v-822h109v-50z" />
    <glyph glyph-name="backslash" unicode="\" horiz-adv-x="479" 
d="M469 0h-74l-385 706h76z" />
    <glyph glyph-name="bracketright" unicode="]" horiz-adv-x="271" 
d="M196 -143h-170v50h109v823h-109v50h170v-923z" />
    <glyph glyph-name="asciicircum" unicode="^" horiz-adv-x="724" 
d="M596 289h-64l-170 360l-170 -360h-64l199 417h68z" />
    <glyph glyph-name="underscore" unicode="_" horiz-adv-x="500" 
d="M510 -206h-520v59h520v-59z" />
    <glyph glyph-name="grave" unicode="`" horiz-adv-x="271" 
d="M248 558h-53l-172 140h112z" />
    <glyph glyph-name="a" unicode="a" horiz-adv-x="500" 
d="M492 0h-12c-79 0 -116 20 -116 87c-11 -36 -65 -97 -169 -97c-101 0 -150 62 -150 130c0 95 81 129 239 165l80 18v37c0 46 -23 97 -111 97c-98 0 -129 -38 -129 -115l-65 11c12 97 77 156 187 156c83 0 175 -25 175 -144v-209c0 -64 2 -89 61 -89h10v-47zM364 216v36
l-30 -8c-162 -43 -232 -53 -232 -123c0 -33 26 -79 96 -79c58 0 129 35 153 90c9 20 13 40 13 84z" />
    <glyph glyph-name="b" unicode="b" 
d="M75 706h57v-310c15 34 60 91 146 91c143 0 199 -138 199 -256c0 -95 -38 -242 -196 -242c-84 0 -129 49 -149 96v-85h-57v706zM132 240c0 -76 20 -198 142 -198c89 0 140 67 140 187c0 109 -41 205 -145 205c-89 0 -137 -69 -137 -194z" />
    <glyph glyph-name="c" unicode="c" horiz-adv-x="479" 
d="M394 120l60 -14c-29 -61 -83 -118 -191 -118c-135 0 -219 100 -219 247c0 156 95 254 229 254c102 0 156 -54 181 -120l-55 -13c-21 53 -73 80 -129 80c-110 0 -162 -94 -162 -198c0 -107 48 -198 157 -198c60 0 101 28 129 80z" />
    <glyph glyph-name="d" unicode="d" 
d="M446 0h-58v86c-22 -63 -83 -97 -147 -97c-119 0 -197 108 -197 250s80 248 206 248c62 0 120 -32 138 -86v305h58v-706zM108 239c0 -141 68 -194 142 -194c77 0 139 54 139 185v26c0 158 -89 177 -136 177c-90 0 -145 -76 -145 -194z" />
    <glyph glyph-name="e" unicode="e" 
d="M109 238v-14c0 -71 30 -182 160 -182c43 0 109 9 155 100l55 -16c-22 -49 -72 -138 -207 -138c-194 0 -228 172 -228 255c0 163 109 246 220 246c135 0 215 -118 215 -242v-9h-370zM110 287h301c-14 123 -96 149 -148 149c-101 0 -146 -82 -153 -149z" />
    <glyph glyph-name="f" unicode="f" horiz-adv-x="313" 
d="M295 427h-108v-427h-59v427h-105v50h105v132c0 43 5 111 106 111c23 0 39 -3 61 -7v-58c-11 4 -29 13 -57 13c-43 0 -51 -32 -51 -66v-125h108v-50z" />
    <glyph glyph-name="g" unicode="g" horiz-adv-x="542" 
d="M409 477h57v-507c0 -100 -26 -214 -212 -214c-154 0 -203 92 -206 170l62 11c8 -53 23 -130 152 -130c119 0 147 64 147 189v96c-4 -23 -40 -102 -158 -102c-125 0 -207 98 -207 251c0 176 101 246 208 246c73 0 141 -39 157 -98v88zM104 243c0 -114 46 -200 152 -200
c115 0 151 81 151 203c0 84 -21 190 -148 190c-90 0 -155 -65 -155 -193z" />
    <glyph glyph-name="h" unicode="h" 
d="M445 0h-58v302c0 60 -15 131 -112 131c-72 0 -106 -41 -120 -67c-19 -37 -20 -77 -20 -160v-206h-60v706h60v-305c15 31 55 86 148 86c21 0 90 -4 131 -59c27 -36 31 -75 31 -159v-269z" />
    <glyph glyph-name="i" unicode="i" horiz-adv-x="208" 
d="M133 589h-58v91h58v-91zM133 0h-58v477h58v-477z" />
    <glyph glyph-name="j" unicode="j" horiz-adv-x="208" 
d="M133 589h-58v91h58v-91zM75 477h58v-586c0 -54 -3 -84 -16 -107c-10 -18 -32 -40 -79 -40c-16 0 -49 1 -86 20v56l10 -6c28 -15 58 -18 69 -18c43 0 44 25 44 84v597z" />
    <glyph glyph-name="k" unicode="k" horiz-adv-x="500" 
d="M489 0h-72l-182 247l-102 -97v-150h-58v706h58v-480l268 251h74l-199 -190z" />
    <glyph glyph-name="l" unicode="l" horiz-adv-x="208" 
d="M134 0h-60v706h60v-706z" />
    <glyph glyph-name="m" unicode="m" horiz-adv-x="771" 
d="M696 0h-59v299c0 57 -3 94 -33 117c-22 17 -49 17 -59 17c-53 0 -90 -30 -112 -77c-18 -38 -19 -75 -19 -157v-199h-58v265c0 63 -1 101 -15 127c-16 29 -46 41 -77 41c-26 0 -75 -7 -106 -64c-23 -43 -24 -85 -24 -177v-192h-59v477h59v-99c12 74 79 109 142 109
c76 0 110 -45 121 -72c4 -10 8 -23 10 -47c7 26 13 38 19 48c15 28 52 71 130 71c32 0 61 -6 86 -24c52 -36 54 -98 54 -204v-259z" />
    <glyph glyph-name="n" unicode="n" 
d="M446 0h-59v248c0 64 0 102 -11 130c-18 46 -67 56 -99 56c-99 0 -143 -74 -143 -161v-273h-59v477h59v-85c4 13 34 95 150 95c89 0 130 -49 145 -82c16 -34 17 -68 17 -134v-271z" />
    <glyph glyph-name="o" unicode="o" 
d="M477 241c0 -178 -115 -253 -219 -253c-123 0 -214 91 -214 245c0 148 81 256 218 256c149 0 213 -127 215 -248zM414 241c0 150 -78 198 -153 198c-86 0 -154 -63 -154 -206c0 -147 77 -193 152 -193c74 0 155 48 155 201z" />
    <glyph glyph-name="p" unicode="p" 
d="M75 477h58v-78c15 36 55 88 144 88c174 0 200 -181 200 -250c0 -72 -35 -248 -200 -248c-83 0 -128 50 -144 91v-333h-58v730zM133 245v-24c0 -65 12 -114 52 -147c32 -27 67 -28 83 -28c110 0 148 107 148 199c0 88 -38 188 -149 188c-115 0 -134 -115 -134 -188z" />
    <glyph glyph-name="q" unicode="q" horiz-adv-x="500" 
d="M445 -253h-57v335c-36 -87 -120 -93 -146 -93c-103 0 -198 88 -198 253c0 163 90 245 200 245c58 0 123 -26 144 -86v76h57v-730zM389 238c0 58 -5 128 -56 168c-13 10 -39 27 -81 27c-110 0 -147 -104 -147 -189c0 -100 47 -200 149 -200c42 0 61 14 75 25
c52 41 59 109 60 169z" />
    <glyph glyph-name="r" unicode="r" horiz-adv-x="313" 
d="M75 477h59v-76c25 56 72 83 131 83c8 0 24 0 41 -2v-53c-12 2 -24 3 -38 3c-102 0 -134 -75 -134 -171v-261h-59v477z" />
    <glyph glyph-name="s" unicode="s" horiz-adv-x="458" 
d="M34 116l58 20c8 -33 44 -94 133 -94c92 0 122 51 122 93c0 41 -24 69 -103 86l-56 12c-74 16 -124 49 -124 119c0 17 3 63 41 97c33 30 88 40 130 40c14 0 73 0 117 -31c37 -26 48 -61 52 -77l-56 -15c-11 55 -68 71 -116 71c-97 0 -110 -51 -110 -80
c0 -56 59 -69 100 -77l50 -10c84 -17 132 -65 132 -139c0 -55 -44 -143 -178 -143c-40 0 -141 6 -192 128z" />
    <glyph glyph-name="t" unicode="t" horiz-adv-x="292" 
d="M172 427v-326c0 -27 4 -58 39 -58c24 0 48 17 66 30v-60c-13 -10 -38 -22 -79 -22c-17 0 -61 1 -76 43c-6 17 -7 52 -7 78v315h-100v50h100v203h57v-203h105v-50h-105z" />
    <glyph glyph-name="u" unicode="u" 
d="M446 0h-59v86c-26 -59 -71 -97 -152 -97c-66 0 -126 35 -147 101c-10 33 -13 78 -13 153v234h60v-247c0 -58 1 -89 8 -116c8 -29 29 -70 99 -70c24 0 75 1 113 53c29 40 32 90 32 139v241h59v-477z" />
    <glyph glyph-name="v" unicode="v" horiz-adv-x="417" 
d="M348 477h58l-183 -477h-48l-165 477h59l132 -388z" />
    <glyph glyph-name="w" unicode="w" horiz-adv-x="688" 
d="M667 477l-151 -477h-49l-118 393l-117 -393h-50l-161 477h57l128 -385l117 385h50l118 -385l119 385h57z" />
    <glyph glyph-name="x" unicode="x" horiz-adv-x="458" 
d="M436 0h-67l-140 203l-145 -203h-63l175 248l-161 229h69l125 -182l129 182h63l-160 -229z" />
    <glyph glyph-name="y" unicode="y" horiz-adv-x="437" 
d="M367 477h60l-225 -570c-38 -98 -57 -149 -128 -149c-33 0 -53 12 -63 19v60c27 -19 46 -23 62 -23c34 0 44 21 64 72l44 114l-165 477h57l139 -406z" />
    <glyph glyph-name="z" unicode="z" horiz-adv-x="396" 
d="M376 0h-348v37l258 389h-236v51h319v-35l-258 -389h265v-53z" />
    <glyph glyph-name="braceleft" unicode="{" horiz-adv-x="268" 
d="M255 -148h-12c-97 0 -139 34 -139 139v195c0 87 -14 98 -85 106v51c65 8 85 17 85 104v190c0 74 9 146 123 146h28v-49h-21c-68 0 -69 -40 -69 -92v-190c0 -82 -16 -110 -81 -135c61 -18 81 -51 81 -134v-185c0 -83 14 -97 78 -97h12v-49z" />
    <glyph glyph-name="bar" unicode="|" horiz-adv-x="229" 
d="M144 -143h-61v921h61v-921z" />
    <glyph glyph-name="braceright" unicode="}" horiz-adv-x="268" 
d="M12 783h12c97 0 140 -34 140 -139v-195c0 -87 13 -98 84 -106v-51c-65 -8 -84 -17 -84 -104v-190c0 -74 -14 -146 -124 -146h-28v49h21c68 0 69 40 69 92v190c0 82 16 110 81 135c-61 18 -81 51 -81 134v185c0 83 -14 97 -78 97h-12v49z" />
    <glyph glyph-name="asciitilde" unicode="~" horiz-adv-x="724" 
d="M610 359l40 -41c-58 -73 -107 -99 -165 -99c-37 0 -83 19 -119 37l-36 18c-46 23 -75 30 -104 30c-40 0 -55 -16 -111 -79l-40 41c51 72 95 101 157 101c39 0 57 -6 138 -42l41 -18c46 -20 60 -25 79 -25c40 0 70 18 120 77z" />
    <glyph glyph-name="Adieresis" unicode="&#xc4;" horiz-adv-x="646" 
d="M635 0h-73l-81 213h-316l-81 -213h-74l288 706h56zM461 267l-136 361l-138 -361h274zM470 784h-67v97h67v-97zM251 784h-67v97h67v-97z" />
    <glyph glyph-name="Aring" unicode="&#xc5;" horiz-adv-x="646" 
d="M635 0h-73l-81 213h-316l-81 -213h-74l288 706h56zM461 267l-136 361l-138 -361h274zM249 827c0 44 35 79 79 79s79 -35 79 -79s-35 -79 -79 -79s-79 35 -79 79zM286 827c0 -23 19 -42 42 -42s42 19 42 42s-19 42 -42 42s-42 -19 -42 -42z" />
    <glyph glyph-name="Ccedilla" unicode="&#xc7;" horiz-adv-x="667" 
d="M625 541l-68 -34c-17 76 -68 158 -204 158c-207 0 -233 -212 -233 -308c0 -119 22 -315 246 -315c101 0 167 61 191 150l63 -38c-56 -115 -129 -170 -257 -172l-15 -29c8 1 14 3 30 3c36 0 68 -22 68 -64c0 -58 -54 -82 -99 -82c-16 0 -33 2 -39 3v27c16 -2 25 -2 34 -2
c35 1 53 18 53 40c0 19 -16 37 -49 37c-17 0 -33 -7 -38 -10v25l30 52c-233 13 -288 212 -288 367c0 146 52 375 301 375c170 0 234 -88 274 -183z" />
    <glyph glyph-name="Eacute" unicode="&#xc9;" horiz-adv-x="604" 
d="M462 895l-147 -125h-57l99 125h105zM567 0h-486v706h461v-61h-394v-252h357v-62h-357v-269h419v-62z" />
    <glyph glyph-name="Ntilde" unicode="&#xd1;" horiz-adv-x="708" 
d="M627 0h-66l-414 610v-610h-66v706h66l419 -604s-5 589 -5 604h66v-706zM474 886l39 -19c-23 -52 -40 -93 -90 -93c-46 0 -106 51 -135 51c-27 0 -36 -25 -46 -51l-42 13c5 17 31 103 93 103c48 0 99 -53 131 -53c27 0 39 26 50 49z" />
    <glyph glyph-name="Odieresis" unicode="&#xd6;" horiz-adv-x="708" 
d="M50 355c0 131 53 369 306 369c187 0 302 -135 302 -362c0 -181 -81 -380 -302 -380c-241 0 -306 221 -306 373zM121 353c0 -91 29 -311 232 -311c182 0 234 184 234 322c0 108 -46 302 -231 302c-175 0 -235 -169 -235 -313zM499 784h-67v97h67v-97zM280 784h-67v97h67
v-97z" />
    <glyph glyph-name="Udieresis" unicode="&#xdc;" horiz-adv-x="688" 
d="M608 706v-443c0 -156 -58 -281 -264 -281c-69 0 -264 16 -264 267v457h66v-475c0 -158 117 -187 199 -187c126 0 196 58 196 204v458h67zM488 784h-67v97h67v-97zM269 784h-67v97h67v-97z" />
    <glyph glyph-name="aacute" unicode="&#xe1;" horiz-adv-x="500" 
d="M492 0h-12c-79 0 -116 20 -116 87c-11 -36 -65 -97 -169 -97c-101 0 -150 62 -150 130c0 95 81 129 239 165l80 18v37c0 46 -23 97 -111 97c-98 0 -129 -38 -129 -115l-65 11c12 97 77 156 187 156c83 0 175 -25 175 -144v-209c0 -64 2 -89 61 -89h10v-47zM364 216v36
l-30 -8c-162 -43 -232 -53 -232 -123c0 -33 26 -79 96 -79c58 0 129 35 153 90c9 20 13 40 13 84zM420 698l-170 -140h-53l112 140h111z" />
    <glyph glyph-name="agrave" unicode="&#xe0;" horiz-adv-x="500" 
d="M492 0h-12c-79 0 -116 20 -116 87c-11 -36 -65 -97 -169 -97c-101 0 -150 62 -150 130c0 95 81 129 239 165l80 18v37c0 46 -23 97 -111 97c-98 0 -129 -38 -129 -115l-65 11c12 97 77 156 187 156c83 0 175 -25 175 -144v-209c0 -64 2 -89 61 -89h10v-47zM364 216v36
l-30 -8c-162 -43 -232 -53 -232 -123c0 -33 26 -79 96 -79c58 0 129 35 153 90c9 20 13 40 13 84zM316 558h-53l-172 140h112z" />
    <glyph glyph-name="acircumflex" unicode="&#xe2;" horiz-adv-x="500" 
d="M492 0h-12c-79 0 -116 20 -116 87c-11 -36 -65 -97 -169 -97c-101 0 -150 62 -150 130c0 95 81 129 239 165l80 18v37c0 46 -23 97 -111 97c-98 0 -129 -38 -129 -115l-65 11c12 97 77 156 187 156c83 0 175 -25 175 -144v-209c0 -64 2 -89 61 -89h10v-47zM364 216v36
l-30 -8c-162 -43 -232 -53 -232 -123c0 -33 26 -79 96 -79c58 0 129 35 153 90c9 20 13 40 13 84zM399 558h-51l-98 65l-89 -65h-51l128 138h26z" />
    <glyph glyph-name="adieresis" unicode="&#xe4;" horiz-adv-x="500" 
d="M492 0h-12c-79 0 -116 20 -116 87c-11 -36 -65 -97 -169 -97c-101 0 -150 62 -150 130c0 95 81 129 239 165l80 18v37c0 46 -23 97 -111 97c-98 0 -129 -38 -129 -115l-65 11c12 97 77 156 187 156c83 0 175 -25 175 -144v-209c0 -64 2 -89 61 -89h10v-47zM364 216v36
l-30 -8c-162 -43 -232 -53 -232 -123c0 -33 26 -79 96 -79c58 0 129 35 153 90c9 20 13 40 13 84zM355 582h-61v92h61v-92zM183 582h-61v92h61v-92z" />
    <glyph glyph-name="atilde" unicode="&#xe3;" horiz-adv-x="500" 
d="M492 0h-12c-79 0 -116 20 -116 87c-11 -36 -65 -97 -169 -97c-101 0 -150 62 -150 130c0 95 81 129 239 165l80 18v37c0 46 -23 97 -111 97c-98 0 -129 -38 -129 -115l-65 11c12 97 77 156 187 156c83 0 175 -25 175 -144v-209c0 -64 2 -89 61 -89h10v-47zM364 216v36
l-30 -8c-162 -43 -232 -53 -232 -123c0 -33 26 -79 96 -79c58 0 129 35 153 90c9 20 13 40 13 84zM355 675l41 -10c-20 -66 -42 -90 -87 -90c-19 0 -41 8 -85 32c-20 11 -30 16 -40 16c-19 0 -30 -17 -41 -44l-41 11c20 58 48 88 86 88c17 0 36 -4 75 -28
c27 -17 41 -18 47 -18c28 0 38 26 45 43z" />
    <glyph glyph-name="aring" unicode="&#xe5;" horiz-adv-x="500" 
d="M492 0h-12c-79 0 -116 20 -116 87c-11 -36 -65 -97 -169 -97c-101 0 -150 62 -150 130c0 95 81 129 239 165l80 18v37c0 46 -23 97 -111 97c-98 0 -129 -38 -129 -115l-65 11c12 97 77 156 187 156c83 0 175 -25 175 -144v-209c0 -64 2 -89 61 -89h10v-47zM364 216v36
l-30 -8c-162 -43 -232 -53 -232 -123c0 -33 26 -79 96 -79c58 0 129 35 153 90c9 20 13 40 13 84zM162 631c0 44 35 79 79 79s79 -35 79 -79s-35 -79 -79 -79s-79 35 -79 79zM198 631c0 -23 19 -42 42 -42s42 19 42 42s-19 42 -42 42s-42 -19 -42 -42z" />
    <glyph glyph-name="ccedilla" unicode="&#xe7;" horiz-adv-x="479" 
d="M394 120l60 -14c-28 -59 -80 -114 -181 -118l-18 -35c4 1 16 3 29 3c39 0 69 -24 69 -64c0 -56 -53 -82 -102 -82c-12 0 -25 2 -37 3v27c11 -1 22 -2 32 -2c40 0 56 20 56 40c0 16 -14 37 -50 37c-9 0 -20 -1 -38 -10v25l34 58c-125 7 -204 105 -204 247
c0 156 95 254 229 254c102 0 156 -54 181 -120l-55 -13c-21 53 -73 80 -129 80c-110 0 -162 -94 -162 -198c0 -107 48 -198 157 -198c60 0 101 28 129 80z" />
    <glyph glyph-name="eacute" unicode="&#xe9;" 
d="M109 238v-14c0 -71 30 -182 160 -182c43 0 109 9 155 100l55 -16c-22 -49 -72 -138 -207 -138c-194 0 -228 172 -228 255c0 163 109 246 220 246c135 0 215 -118 215 -242v-9h-370zM110 287h301c-14 123 -96 149 -148 149c-101 0 -146 -82 -153 -149zM428 698l-170 -140
h-53l112 140h111z" />
    <glyph glyph-name="egrave" unicode="&#xe8;" 
d="M109 238v-14c0 -71 30 -182 160 -182c43 0 109 9 155 100l55 -16c-22 -49 -72 -138 -207 -138c-194 0 -228 172 -228 255c0 163 109 246 220 246c135 0 215 -118 215 -242v-9h-370zM110 287h301c-14 123 -96 149 -148 149c-101 0 -146 -82 -153 -149zM314 558h-53
l-172 140h112z" />
    <glyph glyph-name="ecircumflex" unicode="&#xea;" 
d="M109 238v-14c0 -71 30 -182 160 -182c43 0 109 9 155 100l55 -16c-22 -49 -72 -138 -207 -138c-194 0 -228 172 -228 255c0 163 109 246 220 246c135 0 215 -118 215 -242v-9h-370zM110 287h301c-14 123 -96 149 -148 149c-101 0 -146 -82 -153 -149zM409 558h-51l-98 65
l-89 -65h-51l128 138h26z" />
    <glyph glyph-name="edieresis" unicode="&#xeb;" 
d="M109 238v-14c0 -71 30 -182 160 -182c43 0 109 9 155 100l55 -16c-22 -49 -72 -138 -207 -138c-194 0 -228 172 -228 255c0 163 109 246 220 246c135 0 215 -118 215 -242v-9h-370zM110 287h301c-14 123 -96 149 -148 149c-101 0 -146 -82 -153 -149zM378 582h-61v92h61
v-92zM206 582h-61v92h61v-92z" />
    <glyph glyph-name="iacute" unicode="&#xed;" horiz-adv-x="208" 
d="M133 0h-58v477h58v-477zM275 698l-170 -140h-53l112 140h111z" />
    <glyph glyph-name="igrave" unicode="&#xec;" horiz-adv-x="208" 
d="M133 0h-58v477h58v-477zM157 558h-53l-172 140h112z" />
    <glyph glyph-name="icircumflex" unicode="&#xee;" horiz-adv-x="208" 
d="M133 0h-58v477h58v-477zM253 558h-51l-98 65l-89 -65h-51l128 138h26z" />
    <glyph glyph-name="idieresis" unicode="&#xef;" horiz-adv-x="208" 
d="M133 0h-58v477h58v-477zM221 582h-61v92h61v-92zM49 582h-61v92h61v-92z" />
    <glyph glyph-name="ntilde" unicode="&#xf1;" 
d="M446 0h-59v248c0 64 0 102 -11 130c-18 46 -67 56 -99 56c-99 0 -143 -74 -143 -161v-273h-59v477h59v-85c4 13 34 95 150 95c89 0 130 -49 145 -82c16 -34 17 -68 17 -134v-271zM366 675l41 -10c-20 -66 -42 -90 -87 -90c-19 0 -41 8 -85 32c-20 11 -30 16 -40 16
c-19 0 -30 -17 -41 -44l-41 11c20 58 48 88 86 88c17 0 36 -4 75 -28c27 -17 41 -18 47 -18c28 0 38 26 45 43z" />
    <glyph glyph-name="oacute" unicode="&#xf3;" 
d="M477 241c0 -178 -115 -253 -219 -253c-123 0 -214 91 -214 245c0 148 81 256 218 256c149 0 213 -127 215 -248zM414 241c0 150 -78 198 -153 198c-86 0 -154 -63 -154 -206c0 -147 77 -193 152 -193c74 0 155 48 155 201zM431 698l-170 -140h-53l112 140h111z" />
    <glyph glyph-name="ograve" unicode="&#xf2;" 
d="M477 241c0 -178 -115 -253 -219 -253c-123 0 -214 91 -214 245c0 148 81 256 218 256c149 0 213 -127 215 -248zM414 241c0 150 -78 198 -153 198c-86 0 -154 -63 -154 -206c0 -147 77 -193 152 -193c74 0 155 48 155 201zM313 558h-53l-172 140h112z" />
    <glyph glyph-name="ocircumflex" unicode="&#xf4;" 
d="M477 241c0 -178 -115 -253 -219 -253c-123 0 -214 91 -214 245c0 148 81 256 218 256c149 0 213 -127 215 -248zM414 241c0 150 -78 198 -153 198c-86 0 -154 -63 -154 -206c0 -147 77 -193 152 -193c74 0 155 48 155 201zM409 558h-51l-98 65l-89 -65h-51l128 138h26z
" />
    <glyph glyph-name="odieresis" unicode="&#xf6;" 
d="M477 241c0 -178 -115 -253 -219 -253c-123 0 -214 91 -214 245c0 148 81 256 218 256c149 0 213 -127 215 -248zM414 241c0 150 -78 198 -153 198c-86 0 -154 -63 -154 -206c0 -147 77 -193 152 -193c74 0 155 48 155 201zM377 582h-61v92h61v-92zM205 582h-61v92h61v-92
z" />
    <glyph glyph-name="otilde" unicode="&#xf5;" 
d="M477 241c0 -178 -115 -253 -219 -253c-123 0 -214 91 -214 245c0 148 81 256 218 256c149 0 213 -127 215 -248zM414 241c0 150 -78 198 -153 198c-86 0 -154 -63 -154 -206c0 -147 77 -193 152 -193c74 0 155 48 155 201zM366 675l41 -10c-20 -66 -42 -90 -87 -90
c-19 0 -41 8 -85 32c-20 11 -30 16 -40 16c-19 0 -30 -17 -41 -44l-41 11c20 58 48 88 86 88c17 0 36 -4 75 -28c27 -17 41 -18 47 -18c28 0 38 26 45 43z" />
    <glyph glyph-name="uacute" unicode="&#xfa;" 
d="M446 0h-59v86c-26 -59 -71 -97 -152 -97c-66 0 -126 35 -147 101c-10 33 -13 78 -13 153v234h60v-247c0 -58 1 -89 8 -116c8 -29 29 -70 99 -70c24 0 75 1 113 53c29 40 32 90 32 139v241h59v-477zM431 698l-170 -140h-53l112 140h111z" />
    <glyph glyph-name="ugrave" unicode="&#xf9;" 
d="M446 0h-59v86c-26 -59 -71 -97 -152 -97c-66 0 -126 35 -147 101c-10 33 -13 78 -13 153v234h60v-247c0 -58 1 -89 8 -116c8 -29 29 -70 99 -70c24 0 75 1 113 53c29 40 32 90 32 139v241h59v-477zM313 558h-53l-172 140h112z" />
    <glyph glyph-name="ucircumflex" unicode="&#xfb;" 
d="M446 0h-59v86c-26 -59 -71 -97 -152 -97c-66 0 -126 35 -147 101c-10 33 -13 78 -13 153v234h60v-247c0 -58 1 -89 8 -116c8 -29 29 -70 99 -70c24 0 75 1 113 53c29 40 32 90 32 139v241h59v-477zM409 558h-51l-98 65l-89 -65h-51l128 138h26z" />
    <glyph glyph-name="udieresis" unicode="&#xfc;" 
d="M446 0h-59v86c-26 -59 -71 -97 -152 -97c-66 0 -126 35 -147 101c-10 33 -13 78 -13 153v234h60v-247c0 -58 1 -89 8 -116c8 -29 29 -70 99 -70c24 0 75 1 113 53c29 40 32 90 32 139v241h59v-477zM377 582h-61v92h61v-92zM205 582h-61v92h61v-92z" />
    <glyph glyph-name="dagger" unicode="&#x2020;" horiz-adv-x="562" 
d="M474 440h-157v-440h-68v440h-160v59h160v207h68v-207h157v-59z" />
    <glyph glyph-name="degree" unicode="&#xb0;" horiz-adv-x="354" 
d="M324 601c0 -81 -66 -147 -147 -147s-147 66 -147 147s66 147 147 147c80 0 147 -67 147 -147zM263 601c0 48 -38 87 -86 87s-87 -39 -87 -87s39 -87 87 -87s86 39 86 87z" />
    <glyph glyph-name="cent" unicode="&#xa2;" horiz-adv-x="479" 
d="M454 369l-55 -14c-25 69 -96 78 -109 80v-393c62 11 86 47 104 78l60 -13c-17 -43 -65 -109 -164 -118v-102h-50v102c-143 15 -196 135 -196 248c0 169 109 240 196 250v93h50v-92c23 0 127 -11 164 -119zM240 42v391c-106 -23 -132 -120 -132 -196c0 -21 3 -117 64 -166
c29 -23 60 -27 68 -29z" />
    <glyph glyph-name="sterling" unicode="&#xa3;" horiz-adv-x="604" 
d="M499 188l66 -7c-5 -48 2 -184 -134 -184c-60 0 -102 27 -154 53c-36 -37 -75 -55 -129 -55c-80 0 -106 44 -106 80c0 33 25 76 98 76c13 0 67 -4 110 -28c15 33 19 59 19 73c0 22 -6 52 -40 86h-132v52h93c-55 49 -119 113 -119 192c0 100 93 180 223 180
c112 0 217 -56 228 -189l-66 -13c-1 22 -3 41 -12 61c-16 34 -61 81 -152 81c-72 0 -152 -37 -152 -119s91 -137 137 -193h152v-52h-121c9 -14 27 -45 27 -90c0 -13 -2 -53 -26 -88c29 -15 92 -48 127 -48c50 0 63 44 63 132zM229 74c-16 10 -44 25 -89 25
c-33 0 -46 -12 -46 -26c0 -24 30 -29 48 -29c12 0 55 1 87 30z" />
    <glyph glyph-name="section" unicode="&#xa7;" 
d="M216 499c-49 -21 -101 -64 -101 -122c0 -23 7 -36 22 -53c27 -30 144 -84 185 -97c40 22 88 75 88 123c0 27 -9 47 -27 66c-29 31 -125 68 -167 83zM442 697l-46 -45c-44 37 -87 70 -148 70c-49 0 -87 -27 -87 -79c0 -117 313 -98 313 -287c0 -75 -39 -124 -104 -157
c51 -29 81 -63 81 -124c0 -104 -93 -157 -187 -157c-85 0 -166 37 -225 98l47 46c46 -47 116 -81 183 -81c56 0 115 29 115 92c0 62 -75 85 -121 105c-165 72 -213 119 -213 197c0 71 48 133 115 155c-42 28 -70 60 -70 113c0 64 52 140 157 140c77 0 134 -37 190 -86z" />
    <glyph glyph-name="bullet" unicode="&#x2022;" horiz-adv-x="333" 
d="M277 247h-220v218h220v-218z" />
    <glyph glyph-name="paragraph" unicode="&#xb6;" horiz-adv-x="643" 
d="M518 662h-33v-829h-46v829h-157v-829h-46v498c-96 12 -157 80 -157 182c0 115 75 193 218 193h221v-44z" />
    <glyph glyph-name="germandbls" unicode="&#xdf;" horiz-adv-x="500" 
d="M131 0h-57v492c0 47 2 90 15 127c26 72 90 105 163 105c131 0 167 -106 167 -171c0 -18 -2 -76 -48 -116c-28 -24 -57 -30 -70 -32c117 -14 159 -124 159 -221c0 -20 -1 -77 -33 -127c-15 -24 -53 -72 -129 -72c-19 0 -63 5 -108 31v68c5 -3 61 -45 108 -45
c16 0 53 6 76 45c22 37 22 92 22 101c0 96 -42 185 -188 185h-31v57h13c26 0 83 3 117 25c19 13 49 45 49 103c0 53 -32 112 -107 112c-117 0 -118 -110 -118 -175v-492z" />
    <glyph glyph-name="registered" unicode="&#xae;" horiz-adv-x="833" 
d="M564 128h-59l-92 198h-74v-198h-54v450h133c99 0 140 -44 140 -126c0 -66 -31 -108 -89 -120zM339 529v-156h78c63 0 87 22 87 79c0 58 -23 77 -94 77h-71zM773 358c0 -203 -156 -361 -356 -361s-356 156 -356 356c0 201 156 356 357 356c196 0 355 -157 355 -351z
M740 352c0 183 -140 325 -322 325c-181 0 -325 -143 -325 -325c0 -179 144 -323 324 -323c179 0 323 144 323 323z" />
    <glyph glyph-name="copyright" unicode="&#xa9;" horiz-adv-x="833" 
d="M553 282l53 -6c-23 -101 -89 -157 -186 -157c-120 0 -198 90 -198 226c0 143 84 241 207 241c90 0 149 -47 173 -138l-54 -12c-21 71 -58 100 -124 100c-90 0 -144 -69 -144 -186c0 -114 53 -180 144 -180c67 0 113 39 129 112zM773 358c0 -203 -156 -361 -356 -361
s-356 156 -356 356c0 201 156 356 357 356c196 0 355 -157 355 -351zM740 352c0 183 -140 325 -322 325c-181 0 -325 -143 -325 -325c0 -179 144 -323 324 -323c179 0 323 144 323 323z" />
    <glyph glyph-name="trademark" unicode="&#x2122;" horiz-adv-x="683" 
d="M611 374h-46c0 17 2 285 2 285l-89 -285h-42l-89 284s4 -268 4 -284h-46v332h67l86 -272l85 272h68v-332zM268 665h-98v-291h-48v291h-100v41h246v-41z" />
    <glyph glyph-name="acute" unicode="&#xb4;" horiz-adv-x="271" 
d="M247 698l-170 -140h-53l112 140h111z" />
    <glyph glyph-name="dieresis" unicode="&#xa8;" horiz-adv-x="271" 
d="M252 582h-61v92h61v-92zM80 582h-61v92h61v-92z" />
    <glyph glyph-name="notequal" unicode="&#x2260;" horiz-adv-x="724" 
d="M625 173h-293l-87 -179h-59l87 179h-174v58h203l56 118h-259v59h290l83 167h58l-82 -167h177v-59h-208l-57 -118h265v-58z" />
    <glyph glyph-name="AE" unicode="&#xc6;" horiz-adv-x="1000" 
d="M970 0h-496v204h-266l-129 -204h-79l452 706h499v-61h-411v-254h370v-62h-370v-269h430v-60zM474 267v365l-226 -365h226z" />
    <glyph glyph-name="Oslash" unicode="&#xd8;" horiz-adv-x="708" 
d="M627 714l39 -31l-67 -82c27 -46 62 -116 62 -240c0 -33 0 -214 -117 -314c-74 -64 -156 -65 -191 -65c-110 0 -167 46 -199 78l-59 -70l-37 31l64 78c-25 38 -72 121 -72 257c0 187 87 368 309 368c36 0 135 -3 208 -84zM167 153l354 433c-34 51 -87 78 -159 78
c-66 0 -115 -15 -160 -63c-40 -42 -81 -117 -81 -247c0 -33 1 -117 46 -201zM550 542l-354 -430c38 -50 98 -71 160 -71c87 0 131 37 156 63c61 66 77 156 77 242c0 27 0 119 -39 196z" />
    <glyph glyph-name="infinity" unicode="&#x221e;" horiz-adv-x="724" 
d="M357 240c-53 -79 -111 -127 -176 -127c-86 0 -150 74 -150 175c0 103 69 181 158 181c73 0 126 -50 176 -130c69 97 116 130 176 130c87 0 152 -75 152 -175c0 -103 -71 -182 -162 -182c-71 0 -117 42 -174 128zM397 293c45 -79 95 -125 144 -125c54 0 92 50 92 120
c0 71 -38 124 -90 124c-43 0 -83 -33 -146 -119zM327 289c-48 82 -95 123 -143 123c-54 0 -92 -49 -92 -119c0 -72 38 -124 92 -124c40 0 74 28 143 120z" />
    <glyph glyph-name="plusminus" unicode="&#xb1;" horiz-adv-x="724" 
d="M630 348h-238v-229h-60v229h-238v60h238v228h60v-228h238v-60zM630 0h-536v60h536v-60z" />
    <glyph glyph-name="lessequal" unicode="&#x2264;" horiz-adv-x="724" 
d="M595 106l-466 231v67l466 229v-65l-409 -198l409 -200v-64zM595 0h-466v60h466v-60z" />
    <glyph glyph-name="greaterequal" unicode="&#x2265;" horiz-adv-x="724" 
d="M594 334l-466 -228v64l409 199l-409 199v65l466 -231v-68zM595 0h-466v60h466v-60z" />
    <glyph glyph-name="yen" unicode="&#xa5;" horiz-adv-x="625" 
d="M615 706l-205 -307h157v-56h-194l-34 -53h228v-56h-228v-234h-66v234h-215v56h215l-32 53h-183v56h147l-195 307h79l218 -348l227 348h81z" />
    <glyph glyph-name="mu" unicode="&#xb5;" horiz-adv-x="536" 
d="M389 471h61v-357c0 -58 6 -73 33 -73c9 0 14 1 27 7v-50c-17 -5 -25 -6 -37 -6c-54 0 -77 24 -80 81c-33 -60 -72 -85 -135 -85c-52 0 -86 17 -117 59c0 0 4 -244 4 -263h-64v687h61v-246c0 -72 6 -107 23 -133c19 -29 56 -48 93 -48c47 0 88 27 111 72
c16 31 20 56 20 128v227z" />
    <glyph glyph-name="partialdiff" unicode="&#x2202;" horiz-adv-x="531" 
d="M146 646l-10 55c37 13 73 20 110 20c142 0 208 -108 208 -349c0 -245 -59 -381 -216 -381c-114 0 -193 84 -193 207c0 135 84 226 209 226c52 0 95 -14 137 -44v15c0 162 -41 269 -153 269c-27 0 -49 -4 -92 -18zM387 311c-44 41 -86 58 -136 58
c-88 0 -143 -66 -143 -173c0 -94 49 -151 128 -151c100 0 148 85 151 266z" />
    <glyph glyph-name="summation" unicode="&#x2211;" horiz-adv-x="585" 
d="M560 -122h-530v59l295 366l-295 342v61h530v-60h-444l297 -342l-301 -364h448v-62z" />
    <glyph glyph-name="product" unicode="&#x220f;" horiz-adv-x="706" 
d="M630 -122h-67v768h-421v-768h-66v828h554v-828z" />
    <glyph glyph-name="pi" unicode="&#x3c0;" horiz-adv-x="607" 
d="M542 0h-29c-92 0 -101 46 -101 94v320h-223v-414h-61v414h-54v57h453v-57h-55v-316c0 -32 15 -51 50 -51h20v-47z" />
    <glyph glyph-name="integral" unicode="&#x222b;" horiz-adv-x="328" 
d="M293 709v-62c-23 15 -36 20 -51 20c-24 0 -47 -11 -47 -67v-643c0 -50 -3 -73 -13 -91c-15 -28 -45 -42 -88 -42c-19 0 -32 2 -54 10v63c20 -12 31 -16 47 -16c35 0 46 18 46 75v664c0 63 34 101 100 101c21 0 37 -3 60 -12z" />
    <glyph glyph-name="ordfeminine" unicode="&#xaa;" horiz-adv-x="313" 
d="M309 406h-10c-30 0 -71 3 -76 41c-22 -36 -68 -47 -100 -47c-74 0 -97 49 -97 83c0 74 80 91 164 110l31 7v11c0 27 -7 62 -65 62c-71 0 -72 -40 -72 -72l-50 9c8 78 63 104 120 104c59 0 111 -24 111 -86v-125c0 -41 0 -58 32 -58h12v-39zM221 559l-89 -25
c-34 -9 -60 -21 -60 -48c0 -20 13 -44 53 -44c47 0 96 34 96 89v28z" />
    <glyph glyph-name="ordmasculine" unicode="&#xba;" horiz-adv-x="333" 
d="M304 558c0 -90 -53 -159 -139 -159c-96 0 -136 80 -136 155c0 77 39 160 138 160c97 0 137 -83 137 -156zM255 554c0 72 -26 119 -87 119c-51 0 -90 -36 -90 -120c0 -83 42 -112 88 -112c45 0 89 31 89 113z" />
    <glyph glyph-name="Omega" unicode="&#x2126;" horiz-adv-x="733" 
d="M680 0h-261v62c122 34 179 171 179 319c0 175 -90 288 -230 288c-159 0 -236 -133 -236 -299c0 -140 50 -281 182 -308v-62h-261v62h150c-94 64 -142 167 -142 310c0 218 117 352 308 352c184 0 300 -132 300 -341c0 -144 -52 -259 -154 -321h165v-62z" />
    <glyph glyph-name="ae" unicode="&#xe6;" horiz-adv-x="833" 
d="M738 148l54 -11c-24 -63 -66 -100 -86 -114c-48 -33 -110 -35 -126 -35c-91 0 -144 44 -166 72c-8 10 -15 20 -25 44c-12 -24 -23 -38 -31 -47c-24 -27 -77 -67 -167 -67c-76 0 -153 31 -153 128c0 23 6 67 53 100c37 26 103 43 203 68l71 18v49c0 47 -23 81 -111 81
c-11 0 -67 0 -99 -23c-36 -25 -36 -73 -36 -89l-66 9c7 55 36 158 201 158c64 0 131 -17 161 -79c35 57 99 79 162 79c29 0 101 -2 156 -66s58 -150 59 -181v-5h-368c0 -4 -1 -12 -1 -22c0 -39 7 -112 71 -150c15 -9 46 -25 90 -25c27 0 100 1 154 108zM424 286h298
c-3 34 -13 150 -145 150c-50 0 -142 -21 -153 -150zM365 212v39c-41 -9 -179 -45 -217 -62c-18 -8 -52 -26 -52 -67c0 -35 18 -78 93 -78c99 0 151 58 164 87c11 24 12 55 12 81z" />
    <glyph glyph-name="oslash" unicode="&#xf8;" 
d="M384 504l39 -23l-26 -45c21 -18 80 -80 80 -196c0 -19 -1 -63 -19 -111c-16 -42 -66 -141 -198 -141c-48 0 -87 14 -103 26l-21 -36l-37 22l21 38c-16 17 -76 82 -76 199c0 128 76 252 217 252c20 0 57 -1 100 -26zM371 391l-189 -331c14 -8 36 -20 75 -20
c45 0 83 14 113 48c24 27 46 70 46 150c0 82 -24 124 -45 153zM149 89l187 329s-33 20 -73 20c-112 0 -159 -110 -159 -203c0 -75 29 -122 45 -146z" />
    <glyph glyph-name="questiondown" unicode="&#xbf;" horiz-adv-x="479" 
d="M266 537v-35c0 -43 -4 -75 -43 -115c-59 -61 -142 -114 -142 -206c0 -14 7 -134 138 -134c89 0 132 64 132 135c0 18 -2 55 -25 97l75 -22c3 -14 12 -44 12 -81c0 -176 -158 -188 -196 -188c-132 0 -200 96 -200 196c0 21 5 69 31 110c23 36 63 70 95 101
c57 55 61 64 61 106v36h62zM195 706h78v-116h-78v116z" />
    <glyph glyph-name="exclamdown" unicode="&#xa1;" horiz-adv-x="208" 
d="M122 596h-75v116h75v-116zM117 0h-65v405l9 131h47l9 -131v-405z" />
    <glyph glyph-name="logicalnot" unicode="&#xac;" horiz-adv-x="724" 
d="M637 0h-61v263h-505v60h566v-323z" />
    <glyph glyph-name="radical" unicode="&#x221a;" horiz-adv-x="725" 
d="M637 706l-268 -891h-62l-142 308l-67 -33l-25 52l126 63l135 -305l238 806h65z" />
    <glyph glyph-name="florin" unicode="&#x192;" horiz-adv-x="333" 
d="M341 704l-14 -57c-6 1 -25 6 -31 6c-47 0 -52 -48 -59 -78l-25 -104h85l-11 -45h-84l-140 -573c-4 -15 -26 -97 -101 -97c-24 0 -45 8 -53 12l15 55c6 -2 18 -8 33 -8c34 0 43 31 51 64l133 547h-73l11 45h72l33 132c14 57 35 111 106 111c17 0 36 -5 52 -10z" />
    <glyph glyph-name="approxequal" unicode="&#x2248;" horiz-adv-x="724" 
d="M610 447l40 -40c-61 -71 -108 -96 -165 -96c-26 0 -53 8 -119 37l-36 16c-47 21 -75 30 -104 30c-40 0 -55 -16 -101 -66l-10 -11l-40 40c51 71 94 98 157 98c39 0 49 -4 138 -41l41 -17c48 -20 60 -25 79 -25c41 0 70 18 120 75zM610 266l40 -39
c-60 -72 -108 -96 -165 -96c-31 0 -74 15 -119 36l-36 17c-46 22 -75 30 -104 30c-40 0 -55 -16 -101 -66l-10 -11l-40 40c50 69 94 98 157 98c36 0 56 -5 138 -41l41 -18c45 -20 60 -24 79 -24c39 0 72 18 120 74z" />
    <glyph glyph-name="Delta" unicode="&#x2206;" horiz-adv-x="603" 
d="M608 0h-613l278 706h59zM512 62l-212 552l-211 -552h423z" />
    <glyph glyph-name="guillemotleft" unicode="&#xab;" horiz-adv-x="375" 
d="M339 138l-47 -31l-119 172l119 185l47 -30l-99 -155zM204 138l-48 -31l-118 172l118 185l48 -30l-100 -155z" />
    <glyph glyph-name="guillemotright" unicode="&#xbb;" horiz-adv-x="375" 
d="M171 433l48 31l118 -172l-118 -185l-48 30l99 155zM36 433l47 31l119 -172l-119 -185l-47 30l99 155z" />
    <glyph glyph-name="ellipsis" unicode="&#x2026;" horiz-adv-x="1000" 
d="M875 0h-83v82h83v-82zM541 0h-83v82h83v-82zM207 0h-82v82h82v-82z" />
    <glyph glyph-name="uni00A0" unicode="&#xa0;" horiz-adv-x="258" 
 />
    <glyph glyph-name="Agrave" unicode="&#xc0;" horiz-adv-x="646" 
d="M635 0h-73l-81 213h-316l-81 -213h-74l288 706h56zM461 267l-136 361l-138 -361h274zM388 770h-58l-147 125h106z" />
    <glyph glyph-name="Atilde" unicode="&#xc3;" horiz-adv-x="646" 
d="M635 0h-73l-81 213h-316l-81 -213h-74l288 706h56zM461 267l-136 361l-138 -361h274zM442 886l39 -19c-23 -52 -40 -93 -90 -93c-46 0 -106 51 -135 51c-27 0 -36 -25 -46 -51l-42 13c5 17 31 103 93 103c48 0 99 -53 131 -53c27 0 39 26 50 49z" />
    <glyph glyph-name="Otilde" unicode="&#xd5;" horiz-adv-x="708" 
d="M50 355c0 131 53 369 306 369c187 0 302 -135 302 -362c0 -181 -81 -380 -302 -380c-241 0 -306 221 -306 373zM121 353c0 -91 29 -311 232 -311c182 0 234 184 234 322c0 108 -46 302 -231 302c-175 0 -235 -169 -235 -313zM474 886l39 -19c-23 -52 -40 -93 -90 -93
c-46 0 -106 51 -135 51c-27 0 -36 -25 -46 -51l-42 13c5 17 31 103 93 103c48 0 99 -53 131 -53c27 0 39 26 50 49z" />
    <glyph glyph-name="OE" unicode="&#x152;" horiz-adv-x="1062" 
d="M1026 0h-491c-26 -7 -72 -18 -138 -18c-24 0 -85 1 -148 28c-141 60 -199 198 -199 342c0 25 1 76 21 139c68 212 254 230 328 230c58 0 105 -11 126 -15h476v-58h-408v-256h370v-62h-370v-270h433v-60zM525 60v588c-17 2 -64 11 -116 11c-118 0 -185 -47 -218 -85
c-32 -37 -71 -111 -71 -228c0 -42 3 -191 133 -265c66 -38 135 -39 161 -39c56 0 87 10 111 18z" />
    <glyph glyph-name="oe" unicode="&#x153;" horiz-adv-x="896" 
d="M797 143l57 -15c-29 -62 -82 -140 -216 -140c-122 0 -168 72 -190 114c-27 -75 -106 -114 -187 -114c-130 0 -217 102 -217 247c0 93 43 254 221 254c47 0 142 -11 183 -113c28 54 86 113 187 113c26 0 88 -2 141 -50c37 -33 78 -96 78 -201h-371c-1 -6 -1 -14 -1 -25
c0 -77 43 -173 156 -173c29 0 113 7 159 103zM483 288h303c-1 56 -39 148 -148 148c-91 0 -142 -64 -155 -148zM108 241c0 -178 111 -201 155 -201c118 0 157 100 157 196c0 76 -27 201 -153 201c-91 0 -159 -68 -159 -196z" />
    <glyph glyph-name="endash" unicode="&#x2013;" horiz-adv-x="565" 
d="M527 264h-489v60h489v-60z" />
    <glyph glyph-name="emdash" unicode="&#x2014;" horiz-adv-x="843" 
d="M805 264h-767v60h767v-60z" />
    <glyph glyph-name="quotedblleft" unicode="&#x201c;" horiz-adv-x="292" 
d="M248 432h-79v111c0 65 9 108 46 163l33 -22c-31 -50 -38 -76 -38 -135h38v-117zM123 432h-79v93c0 74 4 118 46 181l33 -22c-30 -37 -39 -88 -39 -135h39v-117z" />
    <glyph glyph-name="quotedblright" unicode="&#x201d;" horiz-adv-x="292" 
d="M169 706h79v-120c0 -65 -10 -100 -46 -154l-33 23c29 43 38 78 38 135h-38v116zM44 706h79v-120c0 -65 -10 -100 -46 -154l-33 23c29 43 38 80 38 135h-38v116z" />
    <glyph glyph-name="quoteleft" unicode="&#x2018;" horiz-adv-x="167" 
d="M122 432h-78v93c0 73 4 119 46 181l32 -22c-30 -50 -38 -76 -38 -135h38v-117z" />
    <glyph glyph-name="quoteright" unicode="&#x2019;" horiz-adv-x="167" 
d="M44 706h79v-98c0 -73 -4 -113 -46 -176l-33 23c31 50 38 77 38 135h-38v116z" />
    <glyph glyph-name="divide" unicode="&#xf7;" horiz-adv-x="724" 
d="M397 396h-68v94h68v-94zM645 262h-566v60h566v-60zM397 95h-68v94h68v-94z" />
    <glyph glyph-name="lozenge" unicode="&#x25ca;" horiz-adv-x="724" 
d="M571 353l-180 -353h-63l-174 353l180 353h63zM507 355l-142 291l-145 -292l141 -293z" />
    <glyph glyph-name="ydieresis" unicode="&#xff;" horiz-adv-x="437" 
d="M367 477h60l-225 -570c-38 -98 -57 -149 -128 -149c-33 0 -53 12 -63 19v60c27 -19 46 -23 62 -23c34 0 44 21 64 72l44 114l-165 477h57l139 -406zM336 582h-61v92h61v-92zM164 582h-61v92h61v-92z" />
    <glyph glyph-name="Ydieresis" unicode="&#x178;" horiz-adv-x="625" 
d="M615 706l-276 -414v-292h-66v292l-263 414h79l218 -351l227 351h81zM456 784h-67v97h67v-97zM237 784h-67v97h67v-97z" />
    <glyph glyph-name="fraction" unicode="&#x2044;" horiz-adv-x="125" 
d="M259 730l-353 -769l-40 18l352 770z" />
    <glyph glyph-name="Euro" unicode="&#x20ac;" horiz-adv-x="634" 
d="M614 620l-27 -66c-44 71 -115 96 -196 96c-131 0 -201 -93 -222 -214h374l-19 -53h-360c-2 -10 -2 -19 -2 -29s0 -20 1 -30h338l-19 -53h-315c16 -132 94 -231 234 -231c67 0 147 27 191 80v-77c-64 -46 -119 -61 -197 -61c-177 0 -278 120 -298 289h-76l20 53h52
c0 20 0 39 2 59h-74l19 53h61c21 163 133 271 300 271c83 0 158 -22 213 -87z" />
    <glyph glyph-name="guilsinglleft" unicode="&#x2039;" horiz-adv-x="250" 
d="M209 138l-47 -31l-119 172l119 185l47 -30l-99 -155z" />
    <glyph glyph-name="guilsinglright" unicode="&#x203a;" horiz-adv-x="250" 
d="M207 292l-119 -185l-47 30l99 155l-99 141l47 31z" />
    <glyph glyph-name="daggerdbl" unicode="&#x2021;" horiz-adv-x="562" 
d="M474 213h-157v-213h-68v213h-160v59h160v180h-160v59h160v195h68v-195h157v-59h-157v-180h157v-59z" />
    <glyph glyph-name="periodcentered" unicode="&#xb7;" horiz-adv-x="187" 
d="M134 236h-81v108h81v-108z" />
    <glyph glyph-name="quotesinglbase" unicode="&#x201a;" horiz-adv-x="167" 
d="M44 116h79v-98c0 -73 -4 -114 -46 -176l-33 23c31 50 38 77 38 135h-38v116z" />
    <glyph glyph-name="quotedblbase" unicode="&#x201e;" horiz-adv-x="292" 
d="M169 116h79v-120c0 -65 -10 -100 -46 -154l-33 23c29 43 38 78 38 135h-38v116zM44 116h79v-120c0 -65 -10 -100 -46 -154l-33 23c29 43 38 80 38 135h-38v116z" />
    <glyph glyph-name="perthousand" unicode="&#x2030;" horiz-adv-x="1250" 
d="M638 730l-353 -769l-40 18l351 770zM31 488c0 112 43 226 158 226c136 0 155 -155 155 -234c0 -128 -55 -223 -157 -223c-123 0 -156 133 -156 231zM82 484c0 -33 3 -182 106 -182c92 0 105 119 105 184c0 113 -41 184 -104 184c-80 0 -107 -91 -107 -186zM530 223
c0 112 43 226 158 226c136 0 155 -155 155 -234c0 -128 -55 -223 -157 -223c-123 0 -156 133 -156 231zM581 219c0 -33 3 -182 106 -182c92 0 105 119 105 184c0 113 -41 184 -104 184c-80 0 -107 -91 -107 -186zM906 223c0 112 43 226 158 226c136 0 155 -155 155 -234
c0 -128 -55 -223 -157 -223c-123 0 -156 133 -156 231zM957 219c0 -33 3 -182 106 -182c92 0 105 119 105 184c0 113 -41 184 -104 184c-80 0 -107 -91 -107 -186z" />
    <glyph glyph-name="Acircumflex" unicode="&#xc2;" horiz-adv-x="646" 
d="M635 0h-73l-81 213h-316l-81 -213h-74l288 706h56zM461 267l-136 361l-138 -361h274zM451 772h-49l-78 56l-77 -56h-47l105 123h42z" />
    <glyph glyph-name="Ecircumflex" unicode="&#xca;" horiz-adv-x="604" 
d="M430 772h-49l-78 56l-77 -56h-47l105 123h42zM567 0h-486v706h461v-61h-394v-252h357v-62h-357v-269h419v-62z" />
    <glyph glyph-name="Aacute" unicode="&#xc1;" horiz-adv-x="646" 
d="M635 0h-73l-81 213h-316l-81 -213h-74l288 706h56zM461 267l-136 361l-138 -361h274zM463 895l-147 -125h-57l99 125h105z" />
    <glyph glyph-name="Edieresis" unicode="&#xcb;" horiz-adv-x="604" 
d="M446 784h-67v97h67v-97zM227 784h-67v97h67v-97zM567 0h-486v706h461v-61h-394v-252h357v-62h-357v-269h419v-62z" />
    <glyph glyph-name="Egrave" unicode="&#xc8;" horiz-adv-x="604" 
d="M364 770h-58l-147 125h106zM567 0h-486v706h461v-61h-394v-252h357v-62h-357v-269h419v-62z" />
    <glyph glyph-name="Iacute" unicode="&#xcd;" horiz-adv-x="229" 
d="M148 0h-67v706h67v-706zM258 895l-147 -125h-57l99 125h105z" />
    <glyph glyph-name="Icircumflex" unicode="&#xce;" horiz-adv-x="229" 
d="M148 0h-67v706h67v-706zM243 772h-49l-78 56l-77 -56h-47l105 123h42z" />
    <glyph glyph-name="Idieresis" unicode="&#xcf;" horiz-adv-x="229" 
d="M148 0h-67v706h67v-706zM258 784h-67v97h67v-97zM39 784h-67v97h67v-97z" />
    <glyph glyph-name="Igrave" unicode="&#xcc;" horiz-adv-x="229" 
d="M148 0h-67v706h67v-706zM174 770h-58l-147 125h106z" />
    <glyph glyph-name="Oacute" unicode="&#xd3;" horiz-adv-x="708" 
d="M50 355c0 131 53 369 306 369c187 0 302 -135 302 -362c0 -181 -81 -380 -302 -380c-241 0 -306 221 -306 373zM121 353c0 -91 29 -311 232 -311c182 0 234 184 234 322c0 108 -46 302 -231 302c-175 0 -235 -169 -235 -313zM495 895l-147 -125h-57l99 125h105z" />
    <glyph glyph-name="Ocircumflex" unicode="&#xd4;" horiz-adv-x="708" 
d="M50 355c0 131 53 369 306 369c187 0 302 -135 302 -362c0 -181 -81 -380 -302 -380c-241 0 -306 221 -306 373zM121 353c0 -91 29 -311 232 -311c182 0 234 184 234 322c0 108 -46 302 -231 302c-175 0 -235 -169 -235 -313zM482 772h-49l-78 56l-77 -56h-47l105 123h42z
" />
    <glyph glyph-name="Ograve" unicode="&#xd2;" horiz-adv-x="708" 
d="M50 355c0 131 53 369 306 369c187 0 302 -135 302 -362c0 -181 -81 -380 -302 -380c-241 0 -306 221 -306 373zM121 353c0 -91 29 -311 232 -311c182 0 234 184 234 322c0 108 -46 302 -231 302c-175 0 -235 -169 -235 -313zM413 770h-58l-147 125h106z" />
    <glyph glyph-name="Uacute" unicode="&#xda;" horiz-adv-x="688" 
d="M608 706v-443c0 -156 -58 -281 -264 -281c-69 0 -264 16 -264 267v457h66v-475c0 -158 117 -187 199 -187c126 0 196 58 196 204v458h67zM492 895l-147 -125h-57l99 125h105z" />
    <glyph glyph-name="Ucircumflex" unicode="&#xdb;" horiz-adv-x="688" 
d="M608 706v-443c0 -156 -58 -281 -264 -281c-69 0 -264 16 -264 267v457h66v-475c0 -158 117 -187 199 -187c126 0 196 58 196 204v458h67zM472 772h-49l-78 56l-77 -56h-47l105 123h42z" />
    <glyph glyph-name="Ugrave" unicode="&#xd9;" horiz-adv-x="688" 
d="M608 706v-443c0 -156 -58 -281 -264 -281c-69 0 -264 16 -264 267v457h66v-475c0 -158 117 -187 199 -187c126 0 196 58 196 204v458h67zM398 770h-58l-147 125h106z" />
    <glyph glyph-name="dotlessi" unicode="&#x131;" horiz-adv-x="208" 
d="M133 0h-58v477h58v-477z" />
    <glyph glyph-name="circumflex" unicode="&#x2c6;" horiz-adv-x="271" 
d="M280 558h-51l-98 65l-89 -65h-51l128 138h26z" />
    <glyph glyph-name="tilde" unicode="&#x2dc;" horiz-adv-x="271" 
d="M242 675l41 -10c-20 -66 -42 -90 -87 -90c-19 0 -41 8 -85 32c-20 11 -30 16 -40 16c-19 0 -30 -17 -41 -44l-41 11c20 58 48 88 86 88c17 0 36 -4 75 -28c27 -17 41 -18 47 -18c28 0 38 26 45 43z" />
    <glyph glyph-name="macron" unicode="&#xaf;" horiz-adv-x="271" 
d="M272 582h-273v62h273v-62z" />
    <glyph glyph-name="breve" unicode="&#x2d8;" horiz-adv-x="271" 
d="M232 684h44c-13 -70 -71 -120 -147 -120c-66 0 -129 45 -134 120h44c15 -62 79 -64 91 -64c32 0 93 13 102 64z" />
    <glyph glyph-name="dotaccent" unicode="&#x2d9;" horiz-adv-x="271" 
d="M166 582h-61v92h61v-92z" />
    <glyph glyph-name="ring" unicode="&#x2da;" horiz-adv-x="271" 
d="M56 631c0 44 35 79 79 79s79 -35 79 -79s-35 -79 -79 -79s-79 35 -79 79zM92 631c0 -23 19 -42 42 -42s42 19 42 42s-19 42 -42 42s-42 -19 -42 -42z" />
    <glyph glyph-name="cedilla" unicode="&#xb8;" horiz-adv-x="271" 
d="M107 0h24l-24 -47c4 1 16 3 29 3c39 -1 69 -23 69 -64c0 -56 -53 -82 -102 -82c-12 0 -25 1 -37 3v27c11 -1 22 -2 32 -2c40 0 56 20 56 40c0 16 -14 37 -50 37c-9 0 -20 -1 -38 -10v25z" />
    <glyph glyph-name="hungarumlaut" unicode="&#x2dd;" horiz-adv-x="271" 
d="M167 698l-164 -140h-46l108 140h102zM314 698l-164 -140h-46l108 140h102z" />
    <glyph glyph-name="ogonek" unicode="&#x2db;" horiz-adv-x="271" 
d="M145 6c11 0 47 -1 47 -1c-5 -4 -65 -41 -65 -82c0 -37 42 -40 62 -40h12v-46c-9 -1 -16 -1 -25 -1c-65 0 -106 24 -106 67c0 40 41 76 75 103z" />
    <glyph glyph-name="caron" unicode="&#x2c7;" horiz-adv-x="271" 
d="M280 696l-127 -138h-27l-135 138h51l98 -65l90 65h50z" />
    <glyph glyph-name="currency" unicode="&#xa4;" horiz-adv-x="667" 
d="M610 569l-74 -74c37 -48 54 -97 54 -156s-16 -104 -55 -157l74 -75l-46 -45l-74 75c-51 -39 -94 -54 -157 -54c-61 0 -99 13 -155 54l-75 -73l-45 45l75 73c-40 55 -55 98 -55 159c0 60 15 102 55 155l-73 73l45 45l73 -72c52 38 97 54 156 54c61 0 118 -20 157 -54
l74 73zM527 339c0 114 -82 198 -193 198c-110 0 -195 -86 -195 -197c0 -113 85 -198 198 -198c108 0 190 85 190 197z" />
    <glyph glyph-name="afii61289" unicode="&#x2113;" horiz-adv-x="461" 
d="M417 130l35 -29c-54 -82 -103 -114 -176 -114c-100 0 -160 61 -160 188c-20 -16 -27 -22 -57 -44l-23 38c38 31 53 39 81 64v260c0 108 4 130 30 168c25 36 69 58 117 58c77 0 120 -51 120 -141c0 -39 -11 -89 -27 -128c-31 -73 -80 -132 -180 -230v-35
c0 -95 40 -147 109 -147c53 0 84 24 131 92zM177 280c57 63 78 91 105 139c31 55 45 104 45 151c0 64 -24 100 -67 100c-47 0 -83 -34 -83 -114v-276z" />
    <glyph glyph-name="estimated" unicode="&#x212e;" horiz-adv-x="854" 
d="M811 341h-696c11 -184 140 -299 333 -299c74 0 130 15 185 51c46 30 76 62 126 133l46 -34c-31 -45 -44 -61 -72 -88c-79 -78 -175 -116 -295 -116c-227 0 -389 154 -389 370c0 210 157 360 377 360c216 0 372 -132 385 -377zM115 395h626c-13 68 -23 94 -50 135
c-56 86 -153 135 -266 135c-173 0 -294 -106 -310 -270z" />
    <glyph glyph-name="acute.cap" horiz-adv-x="271" 
d="M237 895l-147 -125h-57l99 125h105z" />
    <glyph glyph-name="breve.cap" horiz-adv-x="271" 
d="M229 883h44c-11 -63 -66 -107 -141 -107c-66 0 -129 40 -134 107h44c13 -42 46 -53 90 -53c34 0 91 8 97 53z" />
    <glyph glyph-name="caron.cap" horiz-adv-x="271" 
d="M260 895l-104 -123h-42l-104 123h49l77 -56l78 56h46z" />
    <glyph glyph-name="cedilla.cap" horiz-adv-x="271" 
d="M107 0h24l-24 -47c4 1 16 3 29 3c39 -1 69 -23 69 -64c0 -56 -53 -82 -102 -82c-12 0 -25 1 -37 3v27c11 -1 22 -2 32 -2c40 0 56 20 56 40c0 16 -14 37 -50 37c-9 0 -20 -1 -38 -10v25z" />
    <glyph glyph-name="circumflex.cap" horiz-adv-x="271" 
d="M261 772h-49l-78 56l-77 -56h-47l105 123h42z" />
    <glyph glyph-name="commaaccent" horiz-adv-x="271" 
d="M104 -41h63v-49c0 -56 -3 -76 -32 -119l-28 14c21 29 25 46 25 81h-28v73z" />
    <glyph glyph-name="dieresis.cap" horiz-adv-x="271" 
d="M279 784h-67v97h67v-97zM60 784h-67v97h67v-97z" />
    <glyph glyph-name="dotaccent.cap" horiz-adv-x="271" 
d="M169 784h-67v97h67v-97z" />
    <glyph glyph-name="grave.cap" horiz-adv-x="271" 
d="M238 770h-58l-147 125h106z" />
    <glyph glyph-name="hungarumlaut.cap" horiz-adv-x="271" 
d="M162 895l-138 -125h-54l98 125h94zM301 895l-138 -125h-54l98 125h94z" />
    <glyph glyph-name="macron.cap" horiz-adv-x="271" 
d="M272 784h-273v62h273v-62z" />
    <glyph glyph-name="ring.cap" horiz-adv-x="271" 
d="M56 827c0 44 35 79 79 79s79 -35 79 -79s-35 -79 -79 -79s-79 35 -79 79zM93 827c0 -23 19 -42 42 -42s42 19 42 42s-19 42 -42 42s-42 -19 -42 -42z" />
    <glyph glyph-name="tilde.cap" horiz-adv-x="271" 
d="M253 886l39 -19c-23 -52 -40 -93 -90 -93c-46 0 -106 51 -135 51c-27 0 -36 -25 -46 -51l-42 13c5 17 31 103 93 103c48 0 99 -53 131 -53c27 0 39 26 50 49z" />
    <glyph glyph-name="caron.alt" horiz-adv-x="271" 
d="M104 706h62v-57c0 -69 -5 -91 -37 -141l-25 16c22 33 28 57 28 94v4h-28v84z" />
    <glyph glyph-name="Eth" unicode="&#xd0;" horiz-adv-x="688" 
d="M0 352v54h81v300h189c94 0 151 -4 193 -21c96 -40 175 -160 175 -329c0 -177 -84 -300 -185 -337c-51 -19 -128 -19 -181 -19h-191v352h-81zM149 645v-239h221v-54h-221v-292h135c75 0 130 7 160 22c70 35 126 137 126 269c0 79 -23 230 -137 278c-38 16 -80 16 -160 16
h-124z" />
    <glyph glyph-name="eth" unicode="&#xf0;" 
d="M464 616l-81 -26c38 -68 94 -175 94 -321c0 -92 -13 -150 -61 -208c-38 -46 -93 -70 -159 -70c-147 0 -213 122 -213 242c0 172 100 259 216 259c75 0 112 -37 140 -73c-7 29 -20 83 -67 156l-159 -51l-16 37l152 48c-33 44 -55 64 -77 86l43 26c32 -34 54 -59 82 -96
l91 29zM107 235c0 -141 73 -192 150 -192c78 0 157 52 157 199c0 140 -67 200 -151 200c-104 0 -156 -80 -156 -207z" />
    <glyph glyph-name="Lslash" unicode="&#x141;" horiz-adv-x="562" 
d="M539 0h-458v254l-81 -52v60l81 53v391h68v-348l216 140v-61l-216 -139v-236h390v-62z" />
    <glyph glyph-name="lslash" unicode="&#x142;" horiz-adv-x="208" 
d="M208 426l-74 -49v-377h-60v339l-74 -49v60l74 49v307h60v-269l74 48v-59z" />
    <glyph glyph-name="Scaron" unicode="&#x160;" horiz-adv-x="604" 
d="M561 569l-62 -33c-7 22 -15 42 -29 61c-20 29 -68 72 -154 72c-122 0 -166 -67 -166 -126c0 -91 82 -114 150 -132l68 -18c127 -34 207 -89 207 -200c0 -37 -11 -106 -87 -161c-33 -23 -84 -50 -176 -50c-135 0 -234 58 -263 196l67 35c2 -42 7 -60 16 -79
c20 -44 73 -93 180 -93c130 0 195 70 195 150c0 78 -50 115 -150 141l-81 21c-80 21 -191 58 -191 188c0 98 72 183 233 183c97 0 198 -33 243 -155zM427 895l-104 -123h-42l-104 123h49l77 -56l78 56h46z" />
    <glyph glyph-name="scaron" unicode="&#x161;" horiz-adv-x="458" 
d="M34 116l58 20c8 -33 44 -94 133 -94c92 0 122 51 122 93c0 41 -24 69 -103 86l-56 12c-74 16 -124 49 -124 119c0 17 3 63 41 97c33 30 88 40 130 40c14 0 73 0 117 -31c37 -26 48 -61 52 -77l-56 -15c-11 55 -68 71 -116 71c-97 0 -110 -51 -110 -80
c0 -56 59 -69 100 -77l50 -10c84 -17 132 -65 132 -139c0 -55 -44 -143 -178 -143c-40 0 -141 6 -192 128zM371 696l-127 -138h-27l-135 138h51l98 -65l90 65h50z" />
    <glyph glyph-name="Yacute" unicode="&#xdd;" horiz-adv-x="625" 
d="M615 706l-276 -414v-292h-66v292l-263 414h79l218 -351l227 351h81zM462 895l-147 -125h-57l99 125h105z" />
    <glyph glyph-name="yacute" unicode="&#xfd;" horiz-adv-x="437" 
d="M367 477h60l-225 -570c-38 -98 -57 -149 -128 -149c-33 0 -53 12 -63 19v60c27 -19 46 -23 62 -23c34 0 44 21 64 72l44 114l-165 477h57l139 -406zM389 698l-170 -140h-53l112 140h111z" />
    <glyph glyph-name="Thorn" unicode="&#xde;" horiz-adv-x="625" 
d="M81 706h64v-109h207c107 0 173 -3 221 -63c40 -50 40 -112 40 -129c0 -61 -19 -103 -38 -127c-49 -62 -120 -69 -196 -69h-234v-209h-64v706zM145 268h232c88 0 171 13 171 143c0 15 -1 55 -29 88c-33 38 -77 42 -142 42h-232v-273z" />
    <glyph glyph-name="thorn" unicode="&#xfe;" 
d="M75 -253v959h58v-307c40 87 124 88 144 88c165 0 200 -172 200 -249c0 -107 -55 -249 -197 -249c-79 0 -133 45 -147 91v-333h-58zM133 245v-30c0 -100 48 -170 134 -170c118 0 149 122 149 198c0 135 -72 190 -148 190c-118 0 -135 -117 -135 -188z" />
    <glyph glyph-name="Zcaron" unicode="&#x17d;" horiz-adv-x="583" 
d="M554 660l-430 -600h424v-60h-519v44l435 602h-409v60h499v-46zM417 895l-104 -123h-42l-104 123h49l77 -56l78 56h46z" />
    <glyph glyph-name="zcaron" unicode="&#x17e;" horiz-adv-x="396" 
d="M376 0h-348v37l258 389h-236v51h319v-35l-258 -389h265v-53zM340 696l-127 -138h-27l-135 138h51l98 -65l90 65h50z" />
    <glyph glyph-name="onehalf" unicode="&#xbd;" horiz-adv-x="875" 
d="M824 44v-44h-283v42c99 62 186 134 214 173c30 42 32 82 32 94c0 60 -40 98 -100 98c-80 0 -101 -63 -101 -91c0 -40 27 -68 37 -81l-66 8c-6 16 -17 39 -17 74c0 92 73 132 147 132c87 0 151 -52 151 -142c0 -83 -60 -159 -216 -263h202zM614 730l-353 -769l-40 18
l352 770zM228 265h-48v345c-20 -10 -34 -13 -67 -13h-11v44c58 0 78 20 78 57v8h48v-441z" />
    <glyph glyph-name="onequarter" unicode="&#xbc;" horiz-adv-x="875" 
d="M845 108h-66v-108h-48v108h-192v38l191 296h49v-290h66v-44zM638 730l-353 -769l-40 18l351 770zM228 265h-48v345c-20 -10 -34 -13 -67 -13h-11v44c58 0 78 20 78 57v8h48v-441zM731 152v206l-135 -206h135z" />
    <glyph glyph-name="onesuperior" unicode="&#xb9;" horiz-adv-x="375" 
d="M228 265h-48v345c-20 -10 -34 -13 -67 -13h-11v44c58 0 78 20 78 57v8h48v-441z" />
    <glyph glyph-name="threequarters" unicode="&#xbe;" horiz-adv-x="875" 
d="M845 108h-66v-108h-48v108h-192v38l191 296h49v-290h66v-44zM673 730l-353 -769l-40 18l352 770zM731 152v206l-135 -206h135zM110 473v44h57c44 0 109 3 109 73c0 56 -41 83 -90 83c-76 0 -95 -62 -95 -88v-9l-54 14c13 50 40 125 149 125c74 0 140 -37 140 -125
c0 -41 -17 -77 -68 -93c38 -9 77 -44 77 -105c0 -48 -32 -134 -147 -134c-19 0 -111 1 -146 88c-11 26 -11 40 -12 52l52 17v-11c0 -91 71 -101 103 -101c76 0 98 47 98 84c0 52 -26 86 -90 86h-83z" />
    <glyph glyph-name="threesuperior" unicode="&#xb3;" horiz-adv-x="375" 
d="M110 473v44h57c44 0 109 3 109 73c0 56 -41 83 -90 83c-76 0 -95 -62 -95 -88v-9l-54 14c13 50 40 125 149 125c74 0 140 -37 140 -125c0 -41 -17 -77 -68 -93c38 -9 77 -44 77 -105c0 -48 -32 -134 -147 -134c-19 0 -111 1 -146 88c-11 26 -11 40 -12 52l52 17v-11
c0 -91 71 -101 103 -101c76 0 98 47 98 84c0 52 -26 86 -90 86h-83z" />
    <glyph glyph-name="twosuperior" unicode="&#xb2;" horiz-adv-x="375" 
d="M324 309v-44h-283v42c100 62 183 131 214 173c12 17 32 51 32 94c0 62 -42 98 -100 98c-80 0 -101 -61 -101 -93c0 -39 26 -65 37 -79l-66 8c-6 16 -17 39 -17 74c0 91 73 132 147 132c86 0 151 -51 151 -142c0 -111 -120 -199 -216 -263h202z" />
    <glyph glyph-name="brokenbar" unicode="&#xa6;" horiz-adv-x="229" 
d="M145 383h-61v395h61v-395zM145 -143h-61v396h61v-396z" />
    <glyph glyph-name="minus" unicode="&#x2212;" horiz-adv-x="724" 
d="M645 263h-566v60h566v-60z" />
    <glyph glyph-name="multiply" unicode="&#xd7;" horiz-adv-x="724" 
d="M572 124l-43 -43l-168 169l-169 -168l-42 42l168 168l-168 168l43 43l168 -168l168 168l42 -43l-168 -168z" />
    <glyph glyph-name="uni00AD" unicode="&#xad;" horiz-adv-x="341" 
d="M303 264h-265v60h265v-60z" />
    <glyph glyph-name="uni03BC" unicode="&#x3bc;" horiz-adv-x="536" 
d="M389 471h61v-357c0 -58 6 -73 33 -73c9 0 14 1 27 7v-50c-17 -5 -25 -6 -37 -6c-54 0 -77 24 -80 81c-33 -60 -72 -85 -135 -85c-52 0 -86 17 -117 59c0 0 4 -244 4 -263h-64v687h61v-246c0 -72 6 -107 23 -133c19 -29 56 -48 93 -48c47 0 88 27 111 72
c16 31 20 56 20 128v227z" />
    <glyph glyph-name="uni03A9" unicode="&#x3a9;" horiz-adv-x="733" 
d="M680 0h-261v62c122 34 179 171 179 319c0 175 -90 288 -230 288c-159 0 -236 -133 -236 -299c0 -140 50 -281 182 -308v-62h-261v62h150c-94 64 -142 167 -142 310c0 218 117 352 308 352c184 0 300 -132 300 -341c0 -144 -52 -259 -154 -321h165v-62z" />
    <glyph glyph-name="uni0394" unicode="&#x394;" horiz-adv-x="603" 
d="M608 0h-613l278 706h59zM512 62l-212 552l-211 -552h423z" />
    <glyph glyph-name="uni2215" unicode="&#x2215;" horiz-adv-x="125" 
d="M259 730l-353 -769l-40 18l352 770z" />
    <glyph glyph-name="uni2219" unicode="&#x2219;" horiz-adv-x="187" 
d="M134 236h-81v108h81v-108z" />
    <glyph glyph-name="uni02C9" unicode="&#x2c9;" horiz-adv-x="271" 
d="M272 582h-273v62h273v-62z" />
    <glyph glyph-name="uni037E" unicode="&#x37e;" horiz-adv-x="208" 
d="M165 352h-79v116h79v-116zM86 116h79v-115c0 -67 -10 -103 -47 -159l-32 23c31 50 38 76 38 135h-38v116z" />
    <glyph glyph-name="eth.sc" horiz-adv-x="548" 
d="M70 503h195c106 0 239 -43 239 -249c0 -202 -129 -254 -252 -254h-182v235h-69v50h69v218zM130 453v-168h179v-50h-179v-185h101c114 0 210 35 210 204c0 122 -65 199 -168 199h-143z" />
    <glyph glyph-name="lslash.sc" horiz-adv-x="448" 
d="M423 0h-358v180l-65 -42v56l65 43v266h59v-228l184 119v-57l-184 -119v-165h299v-53z" />
    <glyph glyph-name="scaron.sc" horiz-adv-x="463" 
d="M419 406l-52 -32c-18 62 -66 94 -139 94c-72 0 -114 -32 -114 -87c0 -41 26 -65 88 -82l103 -28c86 -23 123 -64 123 -132c0 -92 -78 -152 -199 -152c-112 0 -179 47 -200 140l55 25c9 -77 58 -117 145 -117s138 36 138 96c0 48 -28 74 -104 93l-88 22
c-80 20 -120 64 -120 131c0 85 68 139 178 139c94 0 152 -34 186 -110zM379 696l-127 -138h-27l-135 138h51l98 -65l90 65h50z" />
    <glyph glyph-name="yacute.sc" horiz-adv-x="493" 
d="M482 503l-212 -292v-211h-59v211l-200 292h71l161 -243l170 243h69zM413 698l-170 -140h-53l112 140h111z" />
    <glyph glyph-name="thorn.sc" horiz-adv-x="495" 
d="M130 503v-93h186c99 0 159 -41 159 -149c0 -148 -133 -151 -229 -151h-116v-110h-60v503h60zM130 360v-202h84c101 0 126 3 152 15c30 15 46 46 46 86s-14 70 -39 85c-24 14 -44 16 -150 16h-93z" />
    <glyph glyph-name="zcaron.sc" horiz-adv-x="455" 
d="M432 470l-319 -417h314v-53h-404v31l319 419h-299v53h389v-33zM369 696l-127 -138h-27l-135 138h51l98 -65l90 65h50z" />
    <glyph glyph-name="numbersign.oldstyle" horiz-adv-x="582" 
d="M542 308h-137l-13 -97h130v-54h-137l-23 -171h-55l23 171h-104l-23 -171h-58l23 171h-128v54h135l13 97h-127v57h135l23 171h58l-23 -171h104l23 171h55l-23 -171h129v-57zM350 308h-104l-13 -97h104z" />
    <glyph glyph-name="dollar.oldstyle" horiz-adv-x="508" 
d="M443 385l-57 -5c-17 57 -48 84 -111 92v-180c145 -36 182 -81 182 -151c0 -79 -69 -138 -182 -141v-83h-50v83c-96 6 -179 55 -199 150l62 5c11 -66 69 -96 137 -105v192c-132 35 -164 88 -164 147c0 57 31 120 164 134v80h50v-80c93 -10 148 -49 168 -138zM225 303v170
c-71 -3 -106 -33 -106 -81c0 -38 32 -74 106 -89zM275 231v-182c62 0 124 23 124 86c0 41 -25 71 -124 96z" />
    <glyph glyph-name="percent.oldstyle" horiz-adv-x="787" 
d="M552 555l-276 -604l-40 18l274 605zM334 359c0 -105 -63 -172 -154 -172c-88 0 -150 67 -150 173c0 107 62 174 154 174c91 0 150 -65 150 -175zM285 358c0 81 -41 132 -102 132c-62 0 -103 -50 -103 -131s39 -127 104 -127c62 0 101 46 101 126zM757 164
c0 -105 -63 -172 -154 -172c-88 0 -150 67 -150 173c0 107 62 174 154 174c91 0 150 -65 150 -175zM708 163c0 81 -41 132 -102 132c-62 0 -103 -50 -103 -131s39 -127 104 -127c62 0 101 46 101 126z" />
    <glyph glyph-name="ampersand.sc" horiz-adv-x="543" 
d="M409 226h56c-4 -47 -17 -90 -41 -130c19 -21 32 -37 49 -48c10 -7 24 -10 43 -11v-48c-22 1 -38 4 -51 8c-18 6 -42 21 -73 55c-45 -49 -102 -67 -158 -67c-105 0 -181 61 -181 150c0 78 44 121 144 167c-35 49 -47 81 -47 113c0 61 47 105 117 105c67 0 113 -36 113 -94
c0 -55 -19 -94 -107 -141c29 -44 86 -116 116 -150c13 28 19 59 20 91zM246 326c57 23 78 56 78 92c0 31 -23 53 -57 53c-39 0 -61 -25 -61 -55c0 -24 9 -48 40 -90zM225 261c-86 -39 -112 -74 -112 -126c0 -56 53 -99 122 -99c46 0 89 15 123 54c-28 34 -87 108 -133 171z
" />
    <glyph glyph-name="zero.oldstyle" 
d="M29 263c0 138 74 270 236 270c151 0 227 -123 227 -265c0 -171 -88 -280 -232 -280c-160 0 -231 135 -231 275zM91 262c0 -119 54 -221 172 -221c141 0 167 135 167 228c0 75 -29 213 -167 213c-75 0 -172 -55 -172 -220z" />
    <glyph glyph-name="one.oldstyle" horiz-adv-x="313" 
d="M33 366v51c106 0 128 52 132 110h55v-527h-63v398c-36 -30 -94 -32 -111 -32h-13z" />
    <glyph glyph-name="two.oldstyle" horiz-adv-x="471" 
d="M448 0h-422v49c61 44 124 87 185 132c117 87 134 143 134 180c0 71 -57 120 -126 120c-96 0 -133 -76 -133 -132c0 -16 4 -29 6 -35l-66 21c-1 5 -1 12 -1 21c0 80 63 177 195 177c130 0 188 -89 188 -172c0 -54 -15 -149 -243 -279l-58 -33s321 6 341 6v-55z" />
    <glyph glyph-name="three.oldstyle" horiz-adv-x="490" 
d="M24 35l63 18c5 -86 62 -167 169 -167c104 0 147 79 147 144c0 111 -120 145 -207 145c-14 0 -26 -1 -41 -2v51c5 0 20 -2 39 -2c36 0 91 5 132 30c18 11 58 40 58 100c0 47 -36 130 -144 130c-119 0 -141 -103 -142 -111l-58 22c25 93 113 140 201 140
c116 0 203 -79 203 -180c0 -89 -75 -146 -149 -152c34 -7 171 -34 171 -175c0 -80 -57 -194 -212 -194c-175 0 -226 139 -230 203z" />
    <glyph glyph-name="four.oldstyle" horiz-adv-x="506" 
d="M483 0h-93v-168h-59v168h-311v53l311 471h59v-471h93v-53zM331 53v383l-245 -383h245z" />
    <glyph glyph-name="five.oldstyle" horiz-adv-x="475" 
d="M411 469h-296l-9 -245c23 38 64 73 145 73c103 0 201 -73 201 -225c0 -129 -82 -240 -223 -240c-130 0 -195 93 -204 188l66 21v-10c0 -82 59 -147 144 -147c79 0 153 62 153 181s-62 178 -152 178c-68 0 -123 -39 -137 -106l-47 6s9 366 10 378h349v-52z" />
    <glyph glyph-name="six.oldstyle" horiz-adv-x="494" 
d="M457 541l-58 -20c-6 68 -53 117 -126 117c-48 0 -170 -12 -185 -289c12 23 50 103 173 103c136 0 208 -103 208 -231c0 -137 -83 -233 -215 -233c-153 0 -229 114 -229 320c0 367 194 381 252 381c132 0 168 -94 180 -148zM92 229c0 -119 83 -190 166 -190
c106 0 148 95 148 185c0 133 -85 177 -148 177c-83 0 -166 -59 -166 -172z" />
    <glyph glyph-name="seven.oldstyle" horiz-adv-x="475" 
d="M76 315h-52v206h429v-52c-34 -50 -69 -102 -98 -156c-46 -86 -117 -241 -140 -480h-67c8 63 20 126 35 188c27 107 70 247 208 448h-315v-154z" />
    <glyph glyph-name="eight.oldstyle" horiz-adv-x="502" 
d="M340 361c112 -40 137 -120 137 -172c0 -124 -89 -201 -227 -201c-123 0 -226 73 -226 199c0 106 84 156 139 174c-51 19 -115 56 -115 150c0 76 53 178 203 178c107 0 201 -58 201 -175c0 -111 -84 -144 -112 -153zM393 509c0 81 -63 129 -141 129
c-66 0 -145 -34 -145 -124s78 -128 147 -128c72 0 139 44 139 123zM415 184c0 67 -44 146 -165 146c-87 0 -161 -48 -161 -142c0 -95 74 -147 162 -147c86 0 164 49 164 143z" />
    <glyph glyph-name="nine.oldstyle" horiz-adv-x="496" 
d="M40 -24l61 24c5 -48 38 -117 127 -117c141 0 180 163 180 292c-3 -8 -42 -106 -174 -106c-151 0 -209 121 -209 233c0 155 103 230 218 230c191 0 228 -182 228 -326c0 -210 -67 -374 -248 -374c-128 0 -172 94 -183 144zM403 292c0 107 -72 189 -167 189
c-61 0 -147 -36 -147 -184c0 -118 71 -177 150 -177c100 0 164 82 164 172z" />
    <glyph glyph-name="a.sc" horiz-adv-x="507" 
d="M489 0h-63l-63 149h-222l-63 -149h-60l217 503h42zM343 197l-89 222l-94 -222h183z" />
    <glyph glyph-name="b.sc" horiz-adv-x="516" 
d="M70 503h239c107 0 152 -57 152 -127c0 -59 -31 -94 -98 -110c75 -13 117 -58 117 -127c0 -94 -75 -139 -181 -139h-229v503zM130 453v-166h152c81 0 119 31 119 85c0 63 -48 81 -115 81h-156zM130 238v-188h150c69 0 139 11 139 90c0 70 -46 98 -161 98h-128z" />
    <glyph glyph-name="c.sc" horiz-adv-x="529" 
d="M495 389l-57 -26c-25 74 -72 107 -151 107c-114 0 -177 -79 -177 -222c0 -132 67 -213 179 -213c74 0 126 35 152 101l52 -29c-44 -85 -109 -123 -207 -123c-148 0 -242 101 -242 261c0 171 92 274 245 274c103 0 166 -39 206 -130z" />
    <glyph glyph-name="d.sc" horiz-adv-x="548" 
d="M70 503h195c106 0 239 -44 239 -249c0 -199 -129 -254 -252 -254h-182v503zM130 453v-403h101c114 0 210 35 210 204c0 122 -67 199 -168 199h-143z" />
    <glyph glyph-name="e.sc" horiz-adv-x="487" 
d="M452 0h-382v503h361v-53h-302v-163h273v-52h-273v-182h323v-53z" />
    <glyph glyph-name="f.sc" horiz-adv-x="457" 
d="M435 450h-305v-165h272v-52h-272v-233h-60v503h365v-53z" />
    <glyph glyph-name="g.sc" horiz-adv-x="557" 
d="M495 393l-56 -25c-26 72 -71 103 -150 103c-113 0 -180 -82 -180 -220s64 -218 173 -218c92 0 156 54 156 181h-196v52h247v-266h-51v76c-25 -59 -84 -92 -164 -92c-138 0 -230 104 -230 262c0 167 97 273 249 273c101 0 164 -39 202 -126z" />
    <glyph glyph-name="h.sc" horiz-adv-x="579" 
d="M508 0h-59v233h-319v-233h-60v503h60v-218h319v218h59v-503z" />
    <glyph glyph-name="i.sc" horiz-adv-x="200" 
d="M130 0h-60v503h60v-503z" />
    <glyph glyph-name="j.sc" horiz-adv-x="413" 
d="M287 503h59v-331c0 -41 -2 -89 -22 -120c-31 -50 -88 -63 -144 -63c-110 0 -168 50 -168 162l62 14c-1 -8 -1 -16 -1 -24c0 -69 39 -105 107 -105c74 0 107 37 107 110v357z" />
    <glyph glyph-name="k.sc" horiz-adv-x="517" 
d="M496 0h-74l-195 255l-97 -95v-160h-60v503h60v-275l274 275h79l-215 -209z" />
    <glyph glyph-name="l.sc" horiz-adv-x="448" 
d="M423 0h-358v503h59v-450h299v-53z" />
    <glyph glyph-name="m.sc" horiz-adv-x="649" 
d="M578 0h-56c0 20 4 435 4 435l-182 -435h-36l-187 440s8 -420 8 -440h-59v503h81l178 -416l168 416h81v-503z" />
    <glyph glyph-name="n.sc" horiz-adv-x="563" 
d="M493 0h-57l-311 441s3 -419 3 -441h-58v503h76l296 -420s-5 402 -5 420h56v-503z" />
    <glyph glyph-name="o.sc" horiz-adv-x="576" 
d="M532 261c0 -167 -96 -276 -245 -276c-146 0 -243 107 -243 266c0 162 98 267 247 267c147 0 241 -101 241 -257zM467 251c0 132 -71 219 -178 219c-110 0 -180 -84 -180 -216c0 -136 68 -220 177 -220c111 0 181 83 181 217z" />
    <glyph glyph-name="p.sc" horiz-adv-x="495" 
d="M70 503h253c92 0 152 -46 152 -149c0 -147 -122 -151 -250 -151h-95v-203h-60v503zM130 453v-202h122c96 0 160 10 160 101c0 94 -57 101 -152 101h-130z" />
    <glyph glyph-name="q.sc" horiz-adv-x="576" 
d="M568 13l-35 -40l-84 72c-46 -41 -97 -60 -162 -60c-146 0 -243 107 -243 266c0 162 98 267 247 267c147 0 241 -101 241 -257c0 -59 -17 -135 -48 -179zM467 251c0 132 -71 219 -178 219c-110 0 -180 -84 -180 -216c0 -136 68 -220 177 -220c111 0 181 83 181 217z" />
    <glyph glyph-name="r.sc" horiz-adv-x="509" 
d="M481 0h-76l-150 211h-125v-211h-60v503h231c112 0 171 -56 171 -144c0 -84 -53 -133 -152 -144zM130 453v-192h131c74 0 147 13 147 99c0 75 -66 93 -117 93h-161z" />
    <glyph glyph-name="s.sc" horiz-adv-x="463" 
d="M419 406l-52 -32c-18 62 -66 94 -139 94c-72 0 -114 -32 -114 -87c0 -41 26 -65 88 -82l103 -28c86 -23 123 -64 123 -132c0 -92 -78 -152 -199 -152c-112 0 -179 47 -200 140l55 25c9 -77 58 -117 145 -117s138 36 138 96c0 48 -28 74 -104 93l-88 22
c-80 20 -120 64 -120 131c0 85 68 139 178 139c94 0 152 -34 186 -110z" />
    <glyph glyph-name="t.sc" horiz-adv-x="443" 
d="M427 453h-176v-453h-59v453h-177v50h412v-50z" />
    <glyph glyph-name="u.sc" horiz-adv-x="553" 
d="M69 503h59v-310c0 -87 28 -157 152 -157c103 0 146 58 146 153v314h58v-313c0 -92 -32 -203 -209 -203c-197 0 -206 138 -206 190v326z" />
    <glyph glyph-name="v.sc" horiz-adv-x="487" 
d="M473 503l-207 -503h-49l-203 503h64l165 -424l169 424h61z" />
    <glyph glyph-name="w.sc" horiz-adv-x="714" 
d="M699 503l-155 -503h-49l-130 398l-133 -398h-48l-168 503h62l135 -410l133 410h39l136 -410l118 410h60z" />
    <glyph glyph-name="x.sc" horiz-adv-x="524" 
d="M499 0h-73l-165 227l-169 -227h-69l200 265l-177 238h72l143 -196l144 196h69l-177 -233z" />
    <glyph glyph-name="y.sc" horiz-adv-x="493" 
d="M482 503l-212 -292v-211h-59v211l-200 292h71l161 -243l170 243h69z" />
    <glyph glyph-name="z.sc" horiz-adv-x="455" 
d="M432 470l-319 -417h314v-53h-404v31l319 419h-299v53h389v-33z" />
    <glyph glyph-name="aacute.sc" horiz-adv-x="507" 
d="M489 0h-63l-63 149h-222l-63 -149h-60l217 503h42zM343 197l-89 222l-94 -222h183zM411 698l-170 -140h-53l112 140h111z" />
    <glyph glyph-name="agrave.sc" horiz-adv-x="507" 
d="M489 0h-63l-63 149h-222l-63 -149h-60l217 503h42zM343 197l-89 222l-94 -222h183zM328 558h-53l-172 140h112z" />
    <glyph glyph-name="acircumflex.sc" horiz-adv-x="507" 
d="M489 0h-63l-63 149h-222l-63 -149h-60l217 503h42zM343 197l-89 222l-94 -222h183zM403 558h-51l-98 65l-89 -65h-51l128 138h26z" />
    <glyph glyph-name="adieresis.sc" horiz-adv-x="507" 
d="M489 0h-63l-63 149h-222l-63 -149h-60l217 503h42zM343 197l-89 222l-94 -222h183zM372 582h-61v92h61v-92zM200 582h-61v92h61v-92z" />
    <glyph glyph-name="atilde.sc" horiz-adv-x="507" 
d="M489 0h-63l-63 149h-222l-63 -149h-60l217 503h42zM343 197l-89 222l-94 -222h183zM364 675l41 -10c-20 -66 -42 -90 -87 -90c-19 0 -41 8 -85 32c-20 11 -30 16 -40 16c-19 0 -30 -17 -41 -44l-41 11c20 58 48 88 86 88c17 0 36 -4 75 -28c27 -17 41 -18 47 -18
c28 0 38 26 45 43z" />
    <glyph glyph-name="aring.sc" horiz-adv-x="507" 
d="M489 0h-63l-63 149h-222l-63 -149h-60l217 503h42zM343 197l-89 222l-94 -222h183zM178 631c0 44 35 79 79 79s79 -35 79 -79s-35 -79 -79 -79s-79 35 -79 79zM214 631c0 -23 19 -42 42 -42s42 19 42 42s-19 42 -42 42s-42 -19 -42 -42z" />
    <glyph glyph-name="ccedilla.sc" horiz-adv-x="529" 
d="M495 389l-57 -26c-25 74 -72 107 -151 107c-114 0 -177 -79 -177 -222c0 -132 67 -213 179 -213c74 0 126 35 152 101l52 -29c-15 -29 -22 -38 -35 -53c-40 -46 -98 -70 -169 -70h-13l-14 -31c10 2 16 3 26 3c44 0 72 -25 72 -64c0 -49 -43 -82 -104 -82
c-13 0 -19 1 -35 3v27c11 -2 15 -2 24 -2c40 0 62 15 62 41c0 21 -18 36 -46 36c-14 0 -28 -3 -40 -10v24l32 57c-132 16 -209 112 -209 259c0 171 92 274 245 274c103 0 166 -39 206 -130z" />
    <glyph glyph-name="eacute.sc" horiz-adv-x="487" 
d="M452 0h-382v503h361v-53h-302v-163h273v-52h-273v-182h323v-53zM406 698l-170 -140h-53l112 140h111z" />
    <glyph glyph-name="egrave.sc" horiz-adv-x="487" 
d="M452 0h-382v503h361v-53h-302v-163h273v-52h-273v-182h323v-53zM321 558h-53l-172 140h112z" />
    <glyph glyph-name="ecircumflex.sc" horiz-adv-x="487" 
d="M452 0h-382v503h361v-53h-302v-163h273v-52h-273v-182h323v-53zM397 558h-51l-98 65l-89 -65h-51l128 138h26z" />
    <glyph glyph-name="edieresis.sc" horiz-adv-x="487" 
d="M452 0h-382v503h361v-53h-302v-163h273v-52h-273v-182h323v-53zM367 582h-61v92h61v-92zM195 582h-61v92h61v-92z" />
    <glyph glyph-name="iacute.sc" horiz-adv-x="200" 
d="M130 0h-60v503h60v-503zM264 698l-170 -140h-53l112 140h111z" />
    <glyph glyph-name="igrave.sc" horiz-adv-x="200" 
d="M130 0h-60v503h60v-503zM164 558h-53l-172 140h112z" />
    <glyph glyph-name="icircumflex.sc" horiz-adv-x="200" 
d="M130 0h-60v503h60v-503zM246 558h-51l-98 65l-89 -65h-51l128 138h26z" />
    <glyph glyph-name="idieresis.sc" horiz-adv-x="200" 
d="M130 0h-60v503h60v-503zM217 582h-61v92h61v-92zM45 582h-61v92h61v-92z" />
    <glyph glyph-name="ntilde.sc" horiz-adv-x="563" 
d="M493 0h-57l-311 441s3 -419 3 -441h-58v503h76l296 -420s-5 402 -5 420h56v-503zM397 675l41 -10c-20 -66 -42 -90 -87 -90c-19 0 -41 8 -85 32c-20 11 -30 16 -40 16c-19 0 -30 -17 -41 -44l-41 11c20 58 48 88 86 88c17 0 36 -4 75 -28c27 -17 41 -18 47 -18
c28 0 38 26 45 43z" />
    <glyph glyph-name="oacute.sc" horiz-adv-x="576" 
d="M532 261c0 -167 -96 -276 -245 -276c-146 0 -243 107 -243 266c0 162 98 267 247 267c147 0 241 -101 241 -257zM467 251c0 132 -71 219 -178 219c-110 0 -180 -84 -180 -216c0 -136 68 -220 177 -220c111 0 181 83 181 217zM447 698l-170 -140h-53l112 140h111z" />
    <glyph glyph-name="ograve.sc" horiz-adv-x="576" 
d="M532 261c0 -167 -96 -276 -245 -276c-146 0 -243 107 -243 266c0 162 98 267 247 267c147 0 241 -101 241 -257zM467 251c0 132 -71 219 -178 219c-110 0 -180 -84 -180 -216c0 -136 68 -220 177 -220c111 0 181 83 181 217zM347 558h-53l-172 140h112z" />
    <glyph glyph-name="ocircumflex.sc" horiz-adv-x="576" 
d="M532 261c0 -167 -96 -276 -245 -276c-146 0 -243 107 -243 266c0 162 98 267 247 267c147 0 241 -101 241 -257zM467 251c0 132 -71 219 -178 219c-110 0 -180 -84 -180 -216c0 -136 68 -220 177 -220c111 0 181 83 181 217zM433 558h-51l-98 65l-89 -65h-51l128 138h26z
" />
    <glyph glyph-name="odieresis.sc" horiz-adv-x="576" 
d="M532 261c0 -167 -96 -276 -245 -276c-146 0 -243 107 -243 266c0 162 98 267 247 267c147 0 241 -101 241 -257zM467 251c0 132 -71 219 -178 219c-110 0 -180 -84 -180 -216c0 -136 68 -220 177 -220c111 0 181 83 181 217zM404 582h-61v92h61v-92zM232 582h-61v92h61
v-92z" />
    <glyph glyph-name="otilde.sc" horiz-adv-x="576" 
d="M532 261c0 -167 -96 -276 -245 -276c-146 0 -243 107 -243 266c0 162 98 267 247 267c147 0 241 -101 241 -257zM467 251c0 132 -71 219 -178 219c-110 0 -180 -84 -180 -216c0 -136 68 -220 177 -220c111 0 181 83 181 217zM396 675l41 -10c-20 -66 -42 -90 -87 -90
c-19 0 -41 8 -85 32c-20 11 -30 16 -40 16c-19 0 -30 -17 -41 -44l-41 11c20 58 48 88 86 88c17 0 36 -4 75 -28c27 -17 41 -18 47 -18c28 0 38 26 45 43z" />
    <glyph glyph-name="uacute.sc" horiz-adv-x="553" 
d="M69 503h59v-310c0 -87 28 -157 152 -157c103 0 146 58 146 153v314h58v-313c0 -92 -32 -203 -209 -203c-197 0 -206 138 -206 190v326zM437 698l-170 -140h-53l112 140h111z" />
    <glyph glyph-name="ugrave.sc" horiz-adv-x="553" 
d="M69 503h59v-310c0 -87 28 -157 152 -157c103 0 146 58 146 153v314h58v-313c0 -92 -32 -203 -209 -203c-197 0 -206 138 -206 190v326zM342 558h-53l-172 140h112z" />
    <glyph glyph-name="ucircumflex.sc" horiz-adv-x="553" 
d="M69 503h59v-310c0 -87 28 -157 152 -157c103 0 146 58 146 153v314h58v-313c0 -92 -32 -203 -209 -203c-197 0 -206 138 -206 190v326zM424 558h-51l-98 65l-89 -65h-51l128 138h26z" />
    <glyph glyph-name="udieresis.sc" horiz-adv-x="553" 
d="M69 503h59v-310c0 -87 28 -157 152 -157c103 0 146 58 146 153v314h58v-313c0 -92 -32 -203 -209 -203c-197 0 -206 138 -206 190v326zM390 582h-61v92h61v-92zM218 582h-61v92h61v-92z" />
    <glyph glyph-name="cent.oldstyle" horiz-adv-x="442" 
d="M365 121l53 -13c-27 -56 -72 -100 -160 -108v-83h-48v83c-103 10 -167 89 -167 197c0 105 61 188 167 201v80h48v-79c79 -4 131 -34 160 -107l-50 -13c-19 42 -53 71 -110 71v-300c55 5 86 27 107 71zM210 50v298c-73 -12 -109 -67 -109 -148c0 -82 36 -136 109 -150z
" />
    <glyph glyph-name="sterling.oldstyle" horiz-adv-x="550" 
d="M456 160l57 -4c-1 -117 -41 -159 -121 -159c-38 0 -72 16 -141 52c-39 -40 -84 -53 -119 -53c-62 0 -91 31 -91 72c0 44 30 75 85 75c29 0 66 -8 108 -29c7 13 9 25 9 31c0 13 -1 30 -36 69h-121v49h78c-53 43 -68 88 -68 127c0 89 71 142 190 142
c108 0 171 -52 188 -162l-60 -12c-6 77 -42 123 -132 123c-89 0 -124 -33 -124 -82c0 -27 6 -68 88 -136h143v-49h-110c14 -20 19 -42 19 -60c0 -19 -3 -37 -16 -60c67 -33 93 -46 116 -46c54 0 58 49 58 112zM204 72c-28 16 -50 25 -78 25c-27 0 -36 -14 -36 -29
s10 -28 38 -28c30 0 53 12 76 32z" />
    <glyph glyph-name="germandbls.sc" horiz-adv-x="925" 
d="M419 406l-52 -32c-18 62 -66 94 -139 94c-72 0 -114 -32 -114 -87c0 -41 26 -65 88 -82l103 -28c86 -23 123 -64 123 -132c0 -92 -78 -152 -199 -152c-112 0 -179 47 -200 140l55 25c9 -77 58 -117 145 -117s138 36 138 96c0 48 -28 74 -104 93l-88 22
c-80 20 -120 64 -120 131c0 85 68 139 178 139c94 0 152 -34 186 -110zM881 406l-52 -32c-18 62 -66 94 -139 94c-72 0 -114 -32 -114 -87c0 -41 26 -65 88 -82l103 -28c86 -23 123 -64 123 -132c0 -92 -78 -152 -199 -152c-112 0 -179 47 -200 140l55 25
c9 -77 58 -117 145 -117s138 36 138 96c0 48 -28 74 -104 93l-88 22c-80 20 -120 64 -120 131c0 85 68 139 178 139c94 0 152 -34 186 -110z" />
    <glyph glyph-name="yen.oldstyle" horiz-adv-x="491" 
d="M242 276l170 243h69l-135 -189h118v-48h-154l-41 -56v-5h195v-47h-195v-174h-59v174h-183v47h183v6l-40 55h-143v48h110l-127 189h71z" />
    <glyph glyph-name="ae.sc" horiz-adv-x="770" 
d="M735 0h-376v146h-192l-96 -146h-66l334 503h376v-53h-297v-164h267v-52h-267v-181h317v-53zM359 196v249l-160 -249h160z" />
    <glyph glyph-name="oslash.sc" horiz-adv-x="576" 
d="M470 535l35 -28l-42 -54c47 -53 69 -116 69 -193c0 -167 -96 -275 -245 -275c-59 0 -94 11 -145 45l-40 -52l-35 27l42 55c-43 50 -65 114 -65 191c0 161 98 267 247 267c54 0 101 -13 138 -38zM145 108l249 327c-27 23 -64 36 -107 36c-109 0 -180 -85 -180 -215
c0 -57 14 -111 38 -148zM426 402l-252 -329c29 -27 67 -40 114 -40c111 0 181 85 181 219c0 55 -16 110 -43 150z" />
    <glyph glyph-name="florin.oldstyle" horiz-adv-x="333" 
d="M320 521l-13 -55c-11 6 -33 9 -46 9c-15 0 -28 -5 -36 -15c-8 -9 -15 -25 -23 -68l-13 -73h81v-49h-89l-70 -387c-12 -65 -48 -93 -101 -93c-18 0 -43 3 -63 11l12 56c15 -7 34 -11 45 -11c25 0 40 4 49 52l68 372h-68v49h76l19 104c15 83 53 108 108 108
c15 0 42 -2 64 -10z" />
    <glyph glyph-name="oe.sc" horiz-adv-x="798" 
d="M763 0h-376c-49 -8 -67 -10 -101 -10c-149 0 -242 98 -242 255c0 166 95 268 250 268c34 0 50 -2 93 -10h356v-53h-297v-164h267v-52h-267v-181h317v-53zM387 50v403c-34 9 -58 12 -95 12c-120 0 -186 -81 -186 -209c0 -139 68 -218 187 -218c32 0 62 4 94 12z" />
    <glyph glyph-name="ydieresis.sc" horiz-adv-x="493" 
d="M482 503l-212 -292v-211h-59v211l-200 292h71l161 -243l170 243h69zM362 582h-61v92h61v-92zM190 582h-61v92h61v-92z" />
    <glyph glyph-name="Euro.oldstyle" horiz-adv-x="565" 
d="M545 469l-28 -54c-44 51 -91 66 -164 66c-78 0 -165 -34 -195 -138h332l-21 -48h-317c-1 -9 -2 -22 -2 -31c0 -10 0 -21 1 -30h301l-20 -47h-275c22 -97 91 -146 198 -146c58 0 122 16 173 62v-68c-65 -39 -127 -47 -177 -47c-140 0 -232 71 -257 199h-73l23 47h45
c-1 15 -1 20 -1 31s1 22 2 30h-63l21 48h49c34 121 125 190 263 190c68 0 132 -15 185 -64z" />
    <glyph glyph-name="f_i.sc" horiz-adv-x="657" 
d="M587 0h-60v503h60v-503zM435 450h-305v-165h272v-52h-272v-233h-60v503h365v-53z" />
    <glyph glyph-name="f_l.sc" horiz-adv-x="910" 
d="M885 0h-358v503h59v-450h299v-53zM435 450h-305v-165h272v-52h-272v-233h-60v503h365v-53z" />
    <glyph glyph-name="periodcentered.sc" horiz-adv-x="187" 
d="M134 236h-81v108h81v-108z" />
    <glyph glyph-name="perthousand.oldstyle" horiz-adv-x="1137" 
d="M552 555l-276 -604l-40 18l274 605zM334 359c0 -105 -63 -172 -154 -172c-88 0 -150 67 -150 173c0 107 62 174 154 174c91 0 150 -65 150 -175zM285 358c0 81 -41 132 -102 132c-62 0 -103 -50 -103 -131s39 -127 104 -127c62 0 101 46 101 126zM757 164
c0 -105 -63 -172 -154 -172c-88 0 -150 67 -150 173c0 107 62 174 154 174c91 0 150 -65 150 -175zM708 163c0 81 -41 132 -102 132c-62 0 -103 -50 -103 -131s39 -127 104 -127c62 0 101 46 101 126zM1107 164c0 -105 -63 -172 -154 -172c-88 0 -150 67 -150 173
c0 107 62 174 154 174c91 0 150 -65 150 -175zM1058 163c0 81 -41 132 -102 132c-62 0 -103 -50 -103 -131s39 -127 104 -127c62 0 101 46 101 126z" />
    <glyph glyph-name="acute.sc" horiz-adv-x="271" 
d="M247 698l-170 -140h-53l112 140h111z" />
    <glyph glyph-name="breve.sc" horiz-adv-x="271" 
d="M232 684h44c-13 -70 -71 -120 -147 -120c-66 0 -129 45 -134 120h44c15 -62 79 -64 91 -64c32 0 93 13 102 64z" />
    <glyph glyph-name="caron.sc" horiz-adv-x="271" 
d="M280 696l-127 -138h-27l-135 138h51l98 -65l90 65h50z" />
    <glyph glyph-name="cedilla.sc" horiz-adv-x="271" 
d="M107 0h24l-24 -47c4 1 16 3 29 3c39 -1 69 -23 69 -64c0 -56 -53 -82 -102 -82c-12 0 -25 2 -37 3v27c11 -1 22 -2 32 -2c40 0 56 20 56 40c0 16 -14 37 -50 37c-9 0 -20 -1 -38 -10v25z" />
    <glyph glyph-name="circumflex.sc" horiz-adv-x="271" 
d="M280 558h-51l-98 65l-89 -65h-51l128 138h26z" />
    <glyph glyph-name="commaaccent.sc" horiz-adv-x="271" 
d="M105 -41h61v-49c-1 -56 -1 -76 -30 -119l-28 14c21 29 25 46 25 81h-28v73z" />
    <glyph glyph-name="dieresis.sc" horiz-adv-x="271" 
d="M252 582h-61v92h61v-92zM80 582h-61v92h61v-92z" />
    <glyph glyph-name="dotaccent.sc" horiz-adv-x="271" 
d="M166 582h-61v92h61v-92z" />
    <glyph glyph-name="grave.sc" horiz-adv-x="271" 
d="M248 558h-53l-172 140h112z" />
    <glyph glyph-name="hungarumlaut.sc" horiz-adv-x="271" 
d="M167 698l-164 -140h-46l108 140h102zM314 698l-164 -140h-46l108 140h102z" />
    <glyph glyph-name="macron.sc" horiz-adv-x="271" 
d="M272 582h-273v62h273v-62z" />
    <glyph glyph-name="ogonek.sc" horiz-adv-x="271" 
d="M145 6c11 0 47 -1 47 -1c-5 -4 -65 -41 -65 -82c0 -37 42 -40 62 -40h12v-46c-9 -1 -16 -1 -25 -1c-65 0 -106 24 -106 67c0 40 41 76 75 103z" />
    <glyph glyph-name="ring.sc" horiz-adv-x="271" 
d="M56 631c0 44 35 79 79 79s79 -35 79 -79s-35 -79 -79 -79s-79 35 -79 79zM92 631c0 -23 19 -42 42 -42s42 19 42 42s-19 42 -42 42s-42 -19 -42 -42z" />
    <glyph glyph-name="tilde.sc" horiz-adv-x="271" 
d="M242 675l41 -10c-20 -66 -42 -90 -87 -90c-19 0 -41 8 -85 32c-20 11 -30 16 -40 16c-19 0 -30 -17 -41 -44l-41 11c20 58 48 88 86 88c17 0 36 -4 75 -28c27 -17 41 -18 47 -18c28 0 38 26 45 43z" />
    <glyph glyph-name="onethird" unicode="&#x2153;" horiz-adv-x="875" 
d="M592 730l-353 -769l-40 18l352 770zM206 265h-48v345c-20 -10 -34 -13 -67 -13h-11v44c58 0 78 20 78 57v8h48v-441zM592 208v44h57c44 0 109 3 109 73c0 56 -41 83 -90 83c-76 0 -95 -62 -95 -88v-9l-54 14c13 50 40 125 149 125c74 0 140 -37 140 -125
c0 -41 -17 -77 -68 -93c38 -9 77 -44 77 -105c0 -48 -32 -134 -147 -134c-19 0 -111 1 -146 88c-11 26 -11 40 -12 52l52 17v-11c0 -91 71 -101 103 -101c76 0 98 47 98 84c0 52 -26 86 -90 86h-83z" />
    <glyph glyph-name="twothirds" unicode="&#x2154;" horiz-adv-x="875" 
d="M654 730l-353 -769l-40 18l352 770zM614 208v44h57c44 0 109 3 109 73c0 56 -41 83 -90 83c-76 0 -95 -62 -95 -88v-9l-54 14c13 50 40 125 149 125c74 0 140 -37 140 -125c0 -41 -17 -77 -68 -93c38 -9 77 -44 77 -105c0 -48 -32 -134 -147 -134c-19 0 -111 1 -146 88
c-11 26 -11 40 -12 52l52 17v-11c0 -91 71 -101 103 -101c76 0 98 47 98 84c0 52 -26 86 -90 86h-83zM324 309v-44h-283v42c100 62 183 131 214 173c12 17 32 51 32 94c0 62 -42 98 -100 98c-80 0 -101 -61 -101 -93c0 -39 26 -65 37 -79l-66 8c-6 16 -17 39 -17 74
c0 91 73 132 147 132c86 0 151 -51 151 -142c0 -111 -120 -199 -216 -263h202z" />
    <glyph glyph-name="oneeighth" unicode="&#x215b;" horiz-adv-x="875" 
d="M592 730l-353 -769l-40 18l352 770zM206 265h-48v345c-20 -10 -34 -13 -67 -13h-11v44c58 0 78 20 78 57v8h48v-441zM730 234c55 -17 87 -59 87 -114c0 -75 -62 -127 -151 -127c-90 0 -152 52 -152 127c0 56 31 96 90 114c-50 21 -73 52 -73 100c0 68 56 114 138 114
s136 -46 136 -115c0 -49 -26 -83 -75 -99zM757 332c0 45 -35 75 -89 75c-53 0 -88 -30 -88 -75c0 -43 35 -72 87 -72c55 0 90 28 90 72zM766 121c0 54 -40 89 -101 89c-58 0 -97 -35 -97 -87c0 -51 41 -86 100 -86c57 0 98 35 98 84z" />
    <glyph glyph-name="threeeighths" unicode="&#x215c;" horiz-adv-x="875" 
d="M634 730l-353 -769l-40 18l352 770zM752 234c55 -17 87 -59 87 -114c0 -75 -62 -127 -151 -127c-90 0 -152 52 -152 127c0 56 31 96 90 114c-50 21 -73 52 -73 100c0 68 56 114 138 114s136 -46 136 -115c0 -49 -26 -83 -75 -99zM779 332c0 45 -35 75 -89 75
c-53 0 -88 -30 -88 -75c0 -43 35 -72 87 -72c55 0 90 28 90 72zM788 121c0 54 -40 89 -101 89c-58 0 -97 -35 -97 -87c0 -51 41 -86 100 -86c57 0 98 35 98 84zM110 473v44h57c44 0 109 3 109 73c0 56 -41 83 -90 83c-76 0 -95 -62 -95 -88v-9l-54 14c13 50 40 125 149 125
c74 0 140 -37 140 -125c0 -41 -17 -77 -68 -93c38 -9 77 -44 77 -105c0 -48 -32 -134 -147 -134c-19 0 -111 1 -146 88c-11 26 -11 40 -12 52l52 17v-11c0 -91 71 -101 103 -101c76 0 98 47 98 84c0 52 -26 86 -90 86h-83z" />
    <glyph glyph-name="fiveeighths" unicode="&#x215d;" horiz-adv-x="875" 
d="M643 730l-353 -769l-40 18l352 770zM761 234c55 -17 87 -59 87 -114c0 -75 -62 -127 -151 -127c-90 0 -152 52 -152 127c0 56 31 96 90 114c-50 21 -73 52 -73 100c0 68 56 114 138 114s136 -46 136 -115c0 -49 -26 -83 -75 -99zM788 332c0 45 -35 75 -89 75
c-53 0 -88 -30 -88 -75c0 -43 35 -72 87 -72c55 0 90 28 90 72zM797 121c0 54 -40 89 -101 89c-58 0 -97 -35 -97 -87c0 -51 41 -86 100 -86c57 0 98 35 98 84zM318 707v-44h-199l-5 -125c26 25 58 38 97 38c82 0 141 -66 141 -158c0 -94 -66 -160 -159 -160
c-80 0 -142 45 -149 124l48 21c5 -65 41 -101 103 -101c64 0 107 47 107 116c0 68 -41 113 -102 113c-51 0 -84 -28 -95 -81l-39 3s4 135 8 254h244z" />
    <glyph glyph-name="seveneighths" unicode="&#x215e;" horiz-adv-x="875" 
d="M584 730l-353 -769l-40 18l352 770zM742 234c55 -17 87 -59 87 -114c0 -75 -62 -127 -151 -127c-90 0 -152 52 -152 127c0 56 31 96 90 114c-50 21 -73 52 -73 100c0 68 56 114 138 114s136 -46 136 -115c0 -49 -26 -83 -75 -99zM769 332c0 45 -35 75 -89 75
c-53 0 -88 -30 -88 -75c0 -43 35 -72 87 -72c55 0 90 28 90 72zM778 121c0 54 -40 89 -101 89c-58 0 -97 -35 -97 -87c0 -51 41 -86 100 -86c57 0 98 35 98 84zM341 706v-37c-112 -134 -147 -242 -170 -404h-56c9 131 69 287 170 397h-205v-92h-47v136h308z" />
    <glyph glyph-name="onefifth" horiz-adv-x="875" 
d="M583 730l-353 -769l-40 18l352 770zM208 265h-48v345c-20 -10 -34 -13 -67 -13h-11v44c58 0 78 20 78 57v8h48v-441zM787 442v-44h-199l-5 -125c26 25 58 38 97 38c82 0 141 -66 141 -158c0 -94 -66 -160 -159 -160c-80 0 -142 45 -149 124l48 21c5 -65 41 -101 103 -101
c64 0 107 47 107 116c0 68 -41 113 -102 113c-51 0 -84 -28 -95 -81l-39 3s4 135 8 254h244z" />
    <glyph glyph-name="twofifths" horiz-adv-x="875" 
d="M633 730l-353 -769l-40 18l352 770zM813 442v-44h-199l-5 -125c26 25 58 38 97 38c82 0 141 -66 141 -158c0 -94 -66 -160 -159 -160c-80 0 -142 45 -149 124l48 21c5 -65 41 -101 103 -101c64 0 107 47 107 116c0 68 -41 113 -102 113c-51 0 -84 -28 -95 -81l-39 3
s4 135 8 254h244zM324 309v-44h-283v42c100 62 183 131 214 173c12 17 32 51 32 94c0 62 -42 98 -100 98c-80 0 -101 -61 -101 -93c0 -39 26 -65 37 -79l-66 8c-6 16 -17 39 -17 74c0 91 73 132 147 132c86 0 151 -51 151 -142c0 -111 -120 -199 -216 -263h202z" />
    <glyph glyph-name="threefifths" horiz-adv-x="875" 
d="M634 730l-353 -769l-40 18l352 770zM807 442v-44h-199l-5 -125c26 25 58 38 97 38c82 0 141 -66 141 -158c0 -94 -66 -160 -159 -160c-80 0 -142 45 -149 124l48 21c5 -65 41 -101 103 -101c64 0 107 47 107 116c0 68 -41 113 -102 113c-51 0 -84 -28 -95 -81l-39 3
s4 135 8 254h244zM110 473v44h57c44 0 109 3 109 73c0 56 -41 83 -90 83c-76 0 -95 -62 -95 -88v-9l-54 14c13 50 40 125 149 125c74 0 140 -37 140 -125c0 -41 -17 -77 -68 -93c38 -9 77 -44 77 -105c0 -48 -32 -134 -147 -134c-19 0 -111 1 -146 88c-11 26 -11 40 -12 52
l52 17v-11c0 -91 71 -101 103 -101c76 0 98 47 98 84c0 52 -26 86 -90 86h-83z" />
    <glyph glyph-name="fourfifths" horiz-adv-x="875" 
d="M642 730l-353 -769l-40 18l352 770zM815 442v-44h-199l-5 -125c26 25 58 38 97 38c82 0 141 -66 141 -158c0 -94 -66 -160 -159 -160c-80 0 -142 45 -149 124l48 21c5 -65 41 -101 103 -101c64 0 107 47 107 116c0 68 -41 113 -102 113c-51 0 -84 -28 -95 -81l-39 3
s4 135 8 254h244zM346 373h-66v-108h-48v108h-192v38l191 296h49v-290h66v-44zM232 417v206l-135 -206h135z" />
    <glyph glyph-name="zero.numerator" horiz-adv-x="375" 
d="M348 483c0 -138 -63 -225 -163 -225c-97 0 -159 88 -159 227c0 142 62 229 163 229c100 0 159 -85 159 -231zM294 483c0 119 -40 189 -107 189c-66 0 -106 -70 -106 -187c0 -116 39 -182 107 -182s106 65 106 180z" />
    <glyph glyph-name="one.numerator" horiz-adv-x="375" 
d="M228 265h-48v345c-20 -10 -34 -13 -67 -13h-11v44c58 0 78 20 78 57v8h48v-441z" />
    <glyph glyph-name="two.numerator" horiz-adv-x="375" 
d="M324 309v-44h-283v42c100 62 183 131 214 173c12 17 32 51 32 94c0 62 -42 98 -100 98c-80 0 -101 -61 -101 -93c0 -39 26 -65 37 -79l-66 8c-6 16 -17 39 -17 74c0 91 73 132 147 132c86 0 151 -51 151 -142c0 -111 -120 -199 -216 -263h202z" />
    <glyph glyph-name="three.numerator" horiz-adv-x="375" 
d="M110 473v44h57c44 0 109 3 109 73c0 56 -41 83 -90 83c-76 0 -95 -62 -95 -88v-9l-54 14c13 50 40 125 149 125c74 0 140 -37 140 -125c0 -41 -17 -77 -68 -93c38 -9 77 -44 77 -105c0 -48 -32 -134 -147 -134c-19 0 -111 1 -146 88c-11 26 -11 40 -12 52l52 17v-11
c0 -91 71 -101 103 -101c76 0 98 47 98 84c0 52 -26 86 -90 86h-83z" />
    <glyph glyph-name="four.numerator" horiz-adv-x="375" 
d="M338 373h-66v-108h-48v108h-192v38l191 296h49v-290h66v-44zM224 417v206l-135 -206h135z" />
    <glyph glyph-name="five.numerator" horiz-adv-x="375" 
d="M309 707v-44h-199l-5 -125c26 25 58 38 97 38c82 0 141 -66 141 -158c0 -94 -66 -160 -159 -160c-80 0 -142 45 -149 124l48 21c5 -65 41 -101 103 -101c64 0 107 47 107 116c0 68 -41 113 -102 113c-51 0 -84 -28 -95 -81l-39 3s4 135 8 254h244z" />
    <glyph glyph-name="six.numerator" horiz-adv-x="375" 
d="M344 617l-46 -23c-13 51 -39 78 -94 78c-90 0 -113 -80 -117 -170c28 39 67 58 119 58c86 0 145 -61 145 -151c0 -91 -62 -151 -153 -151c-106 0 -159 73 -159 218c0 157 58 238 169 238c70 0 112 -30 136 -97zM297 412c0 65 -36 105 -97 105c-63 0 -104 -40 -104 -101
c0 -68 42 -117 103 -117s98 43 98 113z" />
    <glyph glyph-name="seven.numerator" horiz-adv-x="375" 
d="M351 706v-37c-112 -134 -147 -242 -170 -404h-56c9 131 69 287 170 397h-205v-92h-47v136h308z" />
    <glyph glyph-name="eight.numerator" horiz-adv-x="375" 
d="M252 499c55 -17 87 -59 87 -114c0 -75 -62 -127 -151 -127c-90 0 -152 52 -152 127c0 56 31 96 90 114c-50 21 -73 52 -73 100c0 68 56 114 138 114s136 -46 136 -115c0 -49 -26 -83 -75 -99zM279 597c0 45 -35 75 -89 75c-53 0 -88 -30 -88 -75c0 -43 35 -72 87 -72
c55 0 90 28 90 72zM288 386c0 54 -40 89 -101 89c-58 0 -97 -35 -97 -87c0 -51 41 -86 100 -86c57 0 98 35 98 84z" />
    <glyph glyph-name="nine.numerator" horiz-adv-x="375" 
d="M35 356l46 23c12 -51 38 -78 94 -78c99 0 112 94 117 170c-28 -39 -67 -59 -119 -59c-86 0 -145 62 -145 151c0 91 62 152 153 152c106 0 159 -73 159 -218c0 -157 -58 -239 -169 -239c-70 0 -112 31 -136 98zM82 561c0 -66 36 -105 97 -105c63 0 104 40 104 101
c0 68 -42 117 -103 117s-98 -43 -98 -113z" />
    <glyph glyph-name="period.numerator" horiz-adv-x="116" 
d="M86 265h-56v78h56v-78z" />
    <glyph glyph-name="comma.numerator" horiz-adv-x="116" 
d="M30 343h56v-67c0 -45 -3 -71 -29 -110l-25 15c20 31 25 55 25 84h-27v78z" />
    <glyph glyph-name="hyphen.numerator" horiz-adv-x="223" 
d="M194 445h-165v43h165v-43z" />
    <glyph glyph-name="parenleft.numerator" horiz-adv-x="207" 
d="M181 775l17 -23c-78 -68 -113 -151 -113 -269c0 -96 31 -212 116 -282l-18 -24c-99 74 -152 181 -152 304c0 115 52 229 150 294z" />
    <glyph glyph-name="parenright.numerator" horiz-adv-x="207" 
d="M26 177l-17 23c78 68 113 151 113 269c0 96 -31 212 -116 282l18 24c99 -74 152 -181 152 -304c0 -115 -52 -229 -150 -294z" />
    <glyph glyph-name="dollar.numerator" horiz-adv-x="390" 
d="M215 202h-42v64c-40 3 -123 18 -157 115l54 6c16 -42 49 -69 103 -76v165c-96 23 -130 62 -130 119c0 82 79 110 130 112v56h42v-56c63 -5 111 -39 129 -106l-51 -6c-13 41 -45 66 -78 68v-146c89 -21 149 -51 149 -127c0 -53 -36 -120 -149 -124v-64zM173 528v136
c-56 -3 -80 -30 -80 -65c0 -36 24 -55 80 -71zM215 463v-154c68 0 97 40 97 75c0 46 -38 64 -97 79z" />
    <glyph glyph-name="cent.numerator" horiz-adv-x="332" 
d="M307 497l-48 -11c-12 31 -28 45 -58 48v-226c32 7 52 22 63 52l48 -9c-14 -35 -44 -80 -111 -86v-69h-42v69c-92 9 -126 84 -126 155c0 105 68 150 126 156v60h42v-59c38 -2 86 -17 106 -80zM159 308v225c-53 -9 -74 -51 -74 -113c0 -61 21 -103 74 -112z" />
    <glyph glyph-name="sterling.numerator" horiz-adv-x="386" 
d="M324 376l52 -4c-4 -59 -22 -116 -93 -116c-39 0 -64 17 -97 33c-29 -27 -58 -35 -89 -35c-50 0 -72 27 -72 58c0 33 29 56 72 56c21 0 45 -5 76 -19c6 14 6 26 6 34c0 14 -6 30 -26 51h-88v38h55c-38 32 -68 67 -68 116c0 67 56 112 140 112c94 0 152 -44 159 -127
l-53 -9c-4 48 -27 92 -107 92c-47 0 -88 -23 -88 -68c0 -50 49 -80 84 -116h103v-38h-79c6 -9 17 -25 17 -53c0 -8 -1 -28 -15 -50c19 -9 51 -24 71 -24c25 0 38 14 40 69zM146 308c-18 11 -34 18 -54 18c-17 0 -25 -8 -25 -17c0 -11 11 -18 26 -18s34 3 53 17z" />
    <glyph glyph-name="yen.numerator" horiz-adv-x="416" 
d="M410 706l-131 -189h100v-38h-126l-22 -33h148v-38h-148v-143h-55v143h-139v38h139l-21 33h-118v38h94l-125 189h63l136 -213l144 213h61z" />
    <glyph glyph-name="Euro.numerator" horiz-adv-x="432" 
d="M419 659l-20 -51c-29 44 -73 61 -123 61c-84 0 -124 -50 -137 -124h235l-13 -38h-225c-1 -15 -1 -21 -1 -33h214l-12 -38h-199c10 -77 59 -133 144 -133c43 0 95 12 122 45v-55c-36 -24 -76 -34 -126 -34c-112 0 -181 72 -193 177h-49l13 38h33c0 13 0 21 1 33h-47l12 38
h39c14 103 84 166 195 166c53 0 101 -15 137 -52z" />
    <glyph glyph-name="florin.numerator" horiz-adv-x="222" 
d="M239 705l-11 -44c-7 4 -20 7 -28 7c-18 0 -27 -6 -36 -40l-16 -64h53l-9 -38h-52l-86 -352c-10 -39 -35 -60 -76 -60c-15 0 -35 4 -42 7l12 45c4 -2 20 -7 28 -7c16 0 23 5 31 37l80 330h-45l9 38h45l19 78c10 43 34 70 78 70c14 0 33 -3 46 -7z" />
    <glyph glyph-name="zero.denominator" horiz-adv-x="375" 
d="M348 218c0 -138 -63 -225 -163 -225c-97 0 -159 88 -159 227c0 142 62 229 163 229c100 0 159 -85 159 -231zM294 218c0 119 -40 189 -107 189c-66 0 -106 -70 -106 -187c0 -116 39 -182 107 -182s106 65 106 180z" />
    <glyph glyph-name="one.denominator" horiz-adv-x="375" 
d="M228 0h-48v345c-20 -10 -34 -13 -67 -13h-11v44c58 0 78 20 78 57v8h48v-441z" />
    <glyph glyph-name="two.denominator" horiz-adv-x="375" 
d="M324 44v-44h-283v42c100 62 183 131 214 173c12 17 32 51 32 94c0 62 -42 98 -100 98c-80 0 -101 -61 -101 -93c0 -39 26 -65 37 -79l-66 8c-6 16 -17 39 -17 74c0 91 73 132 147 132c86 0 151 -51 151 -142c0 -111 -120 -199 -216 -263h202z" />
    <glyph glyph-name="three.denominator" horiz-adv-x="375" 
d="M110 208v44h57c44 0 109 3 109 73c0 56 -41 83 -90 83c-76 0 -95 -62 -95 -88v-9l-54 14c13 50 40 125 149 125c74 0 140 -37 140 -125c0 -41 -17 -77 -68 -93c38 -9 77 -44 77 -105c0 -48 -32 -134 -147 -134c-19 0 -111 1 -146 88c-11 26 -11 40 -12 52l52 17v-11
c0 -91 71 -101 103 -101c76 0 98 47 98 84c0 52 -26 86 -90 86h-83z" />
    <glyph glyph-name="four.denominator" horiz-adv-x="375" 
d="M338 108h-66v-108h-48v108h-192v38l191 296h49v-290h66v-44zM224 152v206l-135 -206h135z" />
    <glyph glyph-name="five.denominator" horiz-adv-x="375" 
d="M309 442v-44h-199l-5 -125c26 25 58 38 97 38c82 0 141 -66 141 -158c0 -94 -66 -160 -159 -160c-80 0 -142 45 -149 124l48 21c5 -65 41 -101 103 -101c64 0 107 47 107 116c0 68 -41 113 -102 113c-51 0 -84 -28 -95 -81l-39 3s4 135 8 254h244z" />
    <glyph glyph-name="six.denominator" horiz-adv-x="375" 
d="M344 352l-46 -23c-13 51 -39 78 -94 78c-90 0 -113 -80 -117 -170c28 39 67 58 119 58c86 0 145 -61 145 -151c0 -91 -62 -151 -153 -151c-106 0 -159 73 -159 218c0 157 58 238 169 238c70 0 112 -30 136 -97zM297 147c0 65 -36 105 -97 105c-63 0 -104 -40 -104 -101
c0 -68 42 -117 103 -117s98 43 98 113z" />
    <glyph glyph-name="seven.denominator" horiz-adv-x="375" 
d="M351 441v-37c-112 -134 -147 -242 -170 -404h-56c9 131 69 287 170 397h-205v-92h-47v136h308z" />
    <glyph glyph-name="eight.denominator" horiz-adv-x="375" 
d="M252 234c55 -17 87 -59 87 -114c0 -75 -62 -127 -151 -127c-90 0 -152 52 -152 127c0 56 31 96 90 114c-50 21 -73 52 -73 100c0 68 56 114 138 114s136 -46 136 -115c0 -49 -26 -83 -75 -99zM279 332c0 45 -35 75 -89 75c-53 0 -88 -30 -88 -75c0 -43 35 -72 87 -72
c55 0 90 28 90 72zM288 121c0 54 -40 89 -101 89c-58 0 -97 -35 -97 -87c0 -51 41 -86 100 -86c57 0 98 35 98 84z" />
    <glyph glyph-name="nine.denominator" horiz-adv-x="375" 
d="M35 91l46 23c12 -51 38 -78 94 -78c99 0 112 94 117 170c-28 -39 -67 -59 -119 -59c-86 0 -145 62 -145 151c0 91 62 152 153 152c106 0 159 -73 159 -218c0 -157 -58 -239 -169 -239c-70 0 -112 31 -136 98zM82 296c0 -66 36 -105 97 -105c63 0 104 40 104 101
c0 68 -42 117 -103 117s-98 -43 -98 -113z" />
    <glyph glyph-name="period.denominator" horiz-adv-x="116" 
d="M86 0h-56v78h56v-78z" />
    <glyph glyph-name="comma.denominator" horiz-adv-x="116" 
d="M30 78h56v-67c0 -45 -3 -71 -29 -110l-25 15c20 31 25 55 25 84h-27v78z" />
    <glyph glyph-name="hyphen.denominator" horiz-adv-x="223" 
d="M194 180h-165v43h165v-43z" />
    <glyph glyph-name="parenleft.denominator" horiz-adv-x="207" 
d="M181 510l17 -23c-78 -68 -113 -151 -113 -269c0 -96 31 -212 116 -282l-18 -24c-99 74 -152 181 -152 304c0 115 52 229 150 294z" />
    <glyph glyph-name="parenright.denominator" horiz-adv-x="207" 
d="M26 -88l-17 23c78 68 113 151 113 269c0 96 -31 212 -116 282l18 24c99 -74 152 -181 152 -304c0 -115 -52 -229 -150 -294z" />
    <glyph glyph-name="dollar.denominator" horiz-adv-x="390" 
d="M215 -63h-42v64c-40 3 -123 18 -157 115l54 6c16 -42 49 -69 103 -76v165c-96 23 -130 62 -130 119c0 82 79 110 130 112v56h42v-56c63 -5 111 -39 129 -106l-51 -6c-13 41 -45 66 -78 68v-146c89 -21 149 -51 149 -127c0 -53 -36 -120 -149 -124v-64zM173 263v136
c-56 -3 -80 -30 -80 -65c0 -36 24 -55 80 -71zM215 198v-154c68 0 97 40 97 75c0 46 -38 64 -97 79z" />
    <glyph glyph-name="cent.denominator" horiz-adv-x="332" 
d="M307 232l-48 -11c-12 31 -28 45 -58 48v-226c32 7 52 22 63 52l48 -9c-14 -35 -44 -80 -111 -86v-69h-42v69c-92 9 -126 84 -126 155c0 105 68 150 126 156v60h42v-59c38 -2 86 -17 106 -80zM159 43v225c-53 -9 -74 -51 -74 -113c0 -61 21 -103 74 -112z" />
    <glyph glyph-name="sterling.denominator" horiz-adv-x="386" 
d="M324 111l52 -4c-4 -59 -22 -116 -93 -116c-39 0 -64 17 -97 33c-29 -27 -58 -35 -89 -35c-50 0 -72 27 -72 58c0 33 29 56 72 56c21 0 45 -5 76 -19c6 14 6 26 6 34c0 14 -6 30 -26 51h-88v38h55c-38 32 -68 67 -68 116c0 67 56 112 140 112c94 0 152 -44 159 -127
l-53 -9c-4 48 -27 92 -107 92c-47 0 -88 -23 -88 -68c0 -50 49 -80 84 -116h103v-38h-79c6 -9 17 -25 17 -53c0 -8 -1 -28 -15 -50c19 -9 51 -24 71 -24c25 0 38 14 40 69zM146 43c-18 11 -34 18 -54 18c-17 0 -25 -8 -25 -17c0 -11 11 -18 26 -18s34 3 53 17z" />
    <glyph glyph-name="yen.denominator" horiz-adv-x="416" 
d="M410 441l-131 -189h100v-38h-126l-22 -33h148v-38h-148v-143h-55v143h-139v38h139l-21 33h-118v38h94l-125 189h63l136 -213l144 213h61z" />
    <glyph glyph-name="Euro.denominator" horiz-adv-x="432" 
d="M419 394l-20 -51c-29 44 -73 61 -123 61c-84 0 -124 -50 -137 -124h235l-13 -38h-225c-1 -15 -1 -21 -1 -33h214l-12 -38h-199c10 -77 59 -133 144 -133c43 0 95 12 122 45v-55c-36 -24 -76 -34 -126 -34c-112 0 -181 72 -193 177h-49l13 38h33c0 13 0 21 1 33h-47l12 38
h39c14 103 84 166 195 166c53 0 101 -15 137 -52z" />
    <glyph glyph-name="florin.denominator" horiz-adv-x="222" 
d="M239 440l-11 -44c-7 4 -20 7 -28 7c-18 0 -27 -6 -36 -40l-16 -64h53l-9 -38h-52l-86 -352c-10 -39 -35 -60 -76 -60c-15 0 -35 4 -42 7l12 45c4 -2 20 -7 28 -7c16 0 23 5 31 37l80 330h-45l9 38h45l19 78c10 43 34 70 78 70c14 0 33 -3 46 -7z" />
    <glyph glyph-name="zero.superior" unicode="&#x2070;" horiz-adv-x="375" 
d="M348 633c0 -138 -63 -225 -163 -225c-97 0 -159 88 -159 227c0 142 62 229 163 229c100 0 159 -85 159 -231zM294 633c0 119 -40 189 -107 189c-66 0 -106 -70 -106 -187c0 -116 39 -182 107 -182s106 65 106 180z" />
    <glyph glyph-name="one.superior" horiz-adv-x="375" 
d="M228 415h-48v345c-20 -10 -34 -13 -67 -13h-11v44c58 0 78 20 78 57v8h48v-441z" />
    <glyph glyph-name="two.superior" horiz-adv-x="375" 
d="M324 459v-44h-283v42c100 62 183 131 214 173c12 17 32 51 32 94c0 62 -42 98 -100 98c-80 0 -101 -61 -101 -93c0 -39 26 -65 37 -79l-66 8c-6 16 -17 39 -17 74c0 91 73 132 147 132c86 0 151 -51 151 -142c0 -111 -120 -199 -216 -263h202z" />
    <glyph glyph-name="three.superior" horiz-adv-x="375" 
d="M110 623v44h57c44 0 109 3 109 73c0 56 -41 83 -90 83c-76 0 -95 -62 -95 -88v-9l-54 14c13 50 40 125 149 125c74 0 140 -37 140 -125c0 -41 -17 -77 -68 -93c38 -9 77 -44 77 -105c0 -48 -32 -134 -147 -134c-19 0 -111 1 -146 88c-11 26 -11 40 -12 52l52 17v-11
c0 -91 71 -101 103 -101c76 0 98 47 98 84c0 52 -26 86 -90 86h-83z" />
    <glyph glyph-name="four.superior" unicode="&#x2074;" horiz-adv-x="375" 
d="M338 523h-66v-108h-48v108h-192v38l191 296h49v-290h66v-44zM224 567v206l-135 -206h135z" />
    <glyph glyph-name="five.superior" unicode="&#x2075;" horiz-adv-x="375" 
d="M309 857v-44h-199l-5 -125c26 25 58 38 97 38c82 0 141 -66 141 -158c0 -94 -66 -160 -159 -160c-80 0 -142 45 -149 124l48 21c5 -65 41 -101 103 -101c64 0 107 47 107 116c0 68 -41 113 -102 113c-51 0 -84 -28 -95 -81l-39 3s4 135 8 254h244z" />
    <glyph glyph-name="six.superior" unicode="&#x2076;" horiz-adv-x="375" 
d="M344 767l-46 -23c-13 51 -39 78 -94 78c-90 0 -113 -80 -117 -170c28 39 67 58 119 58c86 0 145 -61 145 -151c0 -91 -62 -151 -153 -151c-106 0 -159 73 -159 218c0 157 58 238 169 238c70 0 112 -30 136 -97zM297 562c0 65 -36 105 -97 105c-63 0 -104 -40 -104 -101
c0 -68 42 -117 103 -117s98 43 98 113z" />
    <glyph glyph-name="seven.superior" unicode="&#x2077;" horiz-adv-x="375" 
d="M351 856v-37c-112 -134 -147 -242 -170 -404h-56c9 131 69 287 170 397h-205v-92h-47v136h308z" />
    <glyph glyph-name="eight.superior" unicode="&#x2078;" horiz-adv-x="375" 
d="M252 649c55 -17 87 -59 87 -114c0 -75 -62 -127 -151 -127c-90 0 -152 52 -152 127c0 56 31 96 90 114c-50 21 -73 52 -73 100c0 68 56 114 138 114s136 -46 136 -115c0 -49 -26 -83 -75 -99zM279 747c0 45 -35 75 -89 75c-53 0 -88 -30 -88 -75c0 -43 35 -72 87 -72
c55 0 90 28 90 72zM288 536c0 54 -40 89 -101 89c-58 0 -97 -35 -97 -87c0 -51 41 -86 100 -86c57 0 98 35 98 84z" />
    <glyph glyph-name="nine.superior" unicode="&#x2079;" horiz-adv-x="375" 
d="M35 506l46 23c12 -51 38 -78 94 -78c99 0 112 94 117 170c-28 -39 -67 -59 -119 -59c-86 0 -145 62 -145 151c0 91 62 152 153 152c106 0 159 -73 159 -218c0 -157 -58 -239 -169 -239c-70 0 -112 31 -136 98zM82 711c0 -66 36 -105 97 -105c63 0 104 40 104 101
c0 68 -42 117 -103 117s-98 -43 -98 -113z" />
    <glyph glyph-name="period.superior" horiz-adv-x="116" 
d="M86 415h-56v78h56v-78z" />
    <glyph glyph-name="comma.superior" horiz-adv-x="116" 
d="M30 493h56v-67c0 -45 -3 -71 -29 -110l-25 15c20 31 25 55 25 84h-27v78z" />
    <glyph glyph-name="hyphen.superior" horiz-adv-x="223" 
d="M194 595h-165v43h165v-43z" />
    <glyph glyph-name="parenleft.superior" unicode="&#x207d;" horiz-adv-x="207" 
d="M181 925l17 -23c-78 -68 -113 -151 -113 -269c0 -96 31 -212 116 -282l-18 -24c-99 74 -152 181 -152 304c0 115 52 229 150 294z" />
    <glyph glyph-name="parenright.superior" unicode="&#x207e;" horiz-adv-x="207" 
d="M26 327l-17 23c78 68 113 151 113 269c0 96 -31 212 -116 282l18 24c99 -74 152 -181 152 -304c0 -115 -52 -229 -150 -294z" />
    <glyph glyph-name="dollar.superior" horiz-adv-x="390" 
d="M215 352h-42v64c-40 3 -123 18 -157 115l54 6c16 -42 49 -69 103 -76v165c-96 23 -130 62 -130 119c0 82 79 110 130 112v56h42v-56c63 -5 111 -39 129 -106l-51 -6c-13 41 -45 66 -78 68v-146c89 -21 149 -51 149 -127c0 -53 -36 -120 -149 -124v-64zM173 678v136
c-56 -3 -80 -30 -80 -65c0 -36 24 -55 80 -71zM215 613v-154c68 0 97 40 97 75c0 46 -38 64 -97 79z" />
    <glyph glyph-name="cent.superior" horiz-adv-x="332" 
d="M307 647l-48 -11c-12 31 -28 45 -58 48v-226c32 7 52 22 63 52l48 -9c-14 -35 -44 -80 -111 -86v-69h-42v69c-92 9 -126 84 -126 155c0 105 68 150 126 156v60h42v-59c38 -2 86 -17 106 -80zM159 458v225c-53 -9 -74 -51 -74 -113c0 -61 21 -103 74 -112z" />
    <glyph glyph-name="sterling.superior" horiz-adv-x="386" 
d="M324 526l52 -4c-4 -59 -22 -116 -93 -116c-39 0 -64 17 -97 33c-29 -27 -58 -35 -89 -35c-50 0 -72 27 -72 58c0 33 29 56 72 56c21 0 45 -5 76 -19c6 14 6 26 6 34c0 14 -6 30 -26 51h-88v38h55c-38 32 -68 67 -68 116c0 67 56 112 140 112c94 0 152 -44 159 -127
l-53 -9c-4 48 -27 92 -107 92c-47 0 -88 -23 -88 -68c0 -50 49 -80 84 -116h103v-38h-79c6 -9 17 -25 17 -53c0 -8 -1 -28 -15 -50c19 -9 51 -24 71 -24c25 0 38 14 40 69zM146 458c-18 11 -34 18 -54 18c-17 0 -25 -8 -25 -17c0 -11 11 -18 26 -18s34 3 53 17z" />
    <glyph glyph-name="yen.superior" horiz-adv-x="416" 
d="M410 856l-131 -189h100v-38h-126l-22 -33h148v-38h-148v-143h-55v143h-139v38h139l-21 33h-118v38h94l-125 189h63l136 -213l144 213h61z" />
    <glyph glyph-name="Euro.superior" horiz-adv-x="432" 
d="M419 809l-20 -51c-29 44 -73 61 -123 61c-84 0 -124 -50 -137 -124h235l-13 -38h-225c-1 -15 -1 -21 -1 -33h214l-12 -38h-199c10 -77 59 -133 144 -133c43 0 95 12 122 45v-55c-36 -24 -76 -34 -126 -34c-112 0 -181 72 -193 177h-49l13 38h33c0 13 0 21 1 33h-47l12 38
h39c14 103 84 166 195 166c53 0 101 -15 137 -52z" />
    <glyph glyph-name="florin.superior" horiz-adv-x="222" 
d="M239 855l-11 -44c-7 4 -20 7 -28 7c-18 0 -27 -6 -36 -40l-16 -64h53l-9 -38h-52l-86 -352c-10 -39 -35 -60 -76 -60c-15 0 -35 4 -42 7l12 45c4 -2 20 -7 28 -7c16 0 23 5 31 37l80 330h-45l9 38h45l19 78c10 43 34 70 78 70c14 0 33 -3 46 -7z" />
    <glyph glyph-name="zero.inferior" unicode="&#x2080;" horiz-adv-x="375" 
d="M348 68c0 -138 -63 -225 -163 -225c-97 0 -159 88 -159 227c0 142 62 229 163 229c100 0 159 -85 159 -231zM294 68c0 119 -40 189 -107 189c-66 0 -106 -70 -106 -187c0 -116 39 -182 107 -182s106 65 106 180z" />
    <glyph glyph-name="one.inferior" unicode="&#x2081;" horiz-adv-x="375" 
d="M228 -150h-48v345c-20 -10 -34 -13 -67 -13h-11v44c58 0 78 20 78 57v8h48v-441z" />
    <glyph glyph-name="two.inferior" unicode="&#x2082;" horiz-adv-x="375" 
d="M324 -106v-44h-283v42c100 62 183 131 214 173c12 17 32 51 32 94c0 62 -42 98 -100 98c-80 0 -101 -61 -101 -93c0 -39 26 -65 37 -79l-66 8c-6 16 -17 39 -17 74c0 91 73 132 147 132c86 0 151 -51 151 -142c0 -111 -120 -199 -216 -263h202z" />
    <glyph glyph-name="three.inferior" unicode="&#x2083;" horiz-adv-x="375" 
d="M110 58v44h57c44 0 109 3 109 73c0 56 -41 83 -90 83c-76 0 -95 -62 -95 -88v-9l-54 14c13 50 40 125 149 125c74 0 140 -37 140 -125c0 -41 -17 -77 -68 -93c38 -9 77 -44 77 -105c0 -48 -32 -134 -147 -134c-19 0 -111 1 -146 88c-11 26 -11 40 -12 52l52 17v-11
c0 -91 71 -101 103 -101c76 0 98 47 98 84c0 52 -26 86 -90 86h-83z" />
    <glyph glyph-name="four.inferior" unicode="&#x2084;" horiz-adv-x="375" 
d="M338 -42h-66v-108h-48v108h-192v38l191 296h49v-290h66v-44zM224 2v206l-135 -206h135z" />
    <glyph glyph-name="five.inferior" unicode="&#x2085;" horiz-adv-x="375" 
d="M309 292v-44h-199l-5 -125c26 25 58 38 97 38c82 0 141 -66 141 -158c0 -94 -66 -160 -159 -160c-80 0 -142 45 -149 124l48 21c5 -65 41 -101 103 -101c64 0 107 47 107 116c0 68 -41 113 -102 113c-51 0 -84 -28 -95 -81l-39 3s4 135 8 254h244z" />
    <glyph glyph-name="six.inferior" unicode="&#x2086;" horiz-adv-x="375" 
d="M344 202l-46 -23c-13 51 -39 78 -94 78c-90 0 -113 -80 -117 -170c28 39 67 58 119 58c86 0 145 -61 145 -151c0 -91 -62 -151 -153 -151c-106 0 -159 73 -159 218c0 157 58 238 169 238c70 0 112 -30 136 -97zM297 -3c0 65 -36 105 -97 105c-63 0 -104 -40 -104 -101
c0 -68 42 -117 103 -117s98 43 98 113z" />
    <glyph glyph-name="seven.inferior" unicode="&#x2087;" horiz-adv-x="375" 
d="M351 291v-37c-112 -134 -147 -242 -170 -404h-56c9 131 69 287 170 397h-205v-92h-47v136h308z" />
    <glyph glyph-name="eight.inferior" unicode="&#x2088;" horiz-adv-x="375" 
d="M252 84c55 -17 87 -59 87 -114c0 -75 -62 -127 -151 -127c-90 0 -152 52 -152 127c0 56 31 96 90 114c-50 21 -73 52 -73 100c0 68 56 114 138 114s136 -46 136 -115c0 -49 -26 -83 -75 -99zM279 182c0 45 -35 75 -89 75c-53 0 -88 -30 -88 -75c0 -43 35 -72 87 -72
c55 0 90 28 90 72zM288 -29c0 54 -40 89 -101 89c-58 0 -97 -35 -97 -87c0 -51 41 -86 100 -86c57 0 98 35 98 84z" />
    <glyph glyph-name="nine.inferior" unicode="&#x2089;" horiz-adv-x="375" 
d="M35 -59l46 23c12 -51 38 -78 94 -78c99 0 112 94 117 170c-28 -39 -67 -59 -119 -59c-86 0 -145 62 -145 151c0 91 62 152 153 152c106 0 159 -73 159 -218c0 -157 -58 -239 -169 -239c-70 0 -112 31 -136 98zM82 146c0 -66 36 -105 97 -105c63 0 104 40 104 101
c0 68 -42 117 -103 117s-98 -43 -98 -113z" />
    <glyph glyph-name="period.inferior" horiz-adv-x="116" 
d="M86 -150h-56v78h56v-78z" />
    <glyph glyph-name="comma.inferior" horiz-adv-x="116" 
d="M30 -72h56v-67c0 -45 -3 -71 -29 -110l-25 15c20 31 25 55 25 84h-27v78z" />
    <glyph glyph-name="hyphen.inferior" horiz-adv-x="223" 
d="M194 30h-165v43h165v-43z" />
    <glyph glyph-name="parenleft.inferior" unicode="&#x208d;" horiz-adv-x="207" 
d="M181 360l17 -23c-78 -68 -113 -151 -113 -269c0 -96 31 -212 116 -282l-18 -24c-99 74 -152 181 -152 304c0 115 52 229 150 294z" />
    <glyph glyph-name="parenright.inferior" unicode="&#x208e;" horiz-adv-x="207" 
d="M26 -238l-17 23c78 68 113 151 113 269c0 96 -31 212 -116 282l18 24c99 -74 152 -181 152 -304c0 -115 -52 -229 -150 -294z" />
    <glyph glyph-name="dollar.inferior" horiz-adv-x="390" 
d="M215 -213h-42v64c-40 3 -123 18 -157 115l54 6c16 -42 49 -69 103 -76v165c-96 23 -130 62 -130 119c0 82 79 110 130 112v56h42v-56c63 -5 111 -39 129 -106l-51 -6c-13 41 -45 66 -78 68v-146c89 -21 149 -51 149 -127c0 -53 -36 -120 -149 -124v-64zM173 113v136
c-56 -3 -80 -30 -80 -65c0 -36 24 -55 80 -71zM215 48v-154c68 0 97 40 97 75c0 46 -38 64 -97 79z" />
    <glyph glyph-name="cent.inferior" horiz-adv-x="332" 
d="M307 82l-48 -11c-12 31 -28 45 -58 48v-226c32 7 52 22 63 52l48 -9c-14 -35 -44 -80 -111 -86v-69h-42v69c-92 9 -126 84 -126 155c0 105 68 150 126 156v60h42v-59c38 -2 86 -17 106 -80zM159 -107v225c-53 -9 -74 -51 -74 -113c0 -61 21 -103 74 -112z" />
    <glyph glyph-name="sterling.inferior" horiz-adv-x="386" 
d="M324 -39l52 -4c-4 -59 -22 -116 -93 -116c-39 0 -64 17 -97 33c-29 -27 -58 -35 -89 -35c-50 0 -72 27 -72 58c0 33 29 56 72 56c21 0 45 -5 76 -19c6 14 6 26 6 34c0 14 -6 30 -26 51h-88v38h55c-38 32 -68 67 -68 116c0 67 56 112 140 112c94 0 152 -44 159 -127
l-53 -9c-4 48 -27 92 -107 92c-47 0 -88 -23 -88 -68c0 -50 49 -80 84 -116h103v-38h-79c6 -9 17 -25 17 -53c0 -8 -1 -28 -15 -50c19 -9 51 -24 71 -24c25 0 38 14 40 69zM146 -107c-18 11 -34 18 -54 18c-17 0 -25 -8 -25 -17c0 -11 11 -18 26 -18s34 3 53 17z" />
    <glyph glyph-name="yen.inferior" horiz-adv-x="416" 
d="M410 291l-131 -189h100v-38h-126l-22 -33h148v-38h-148v-143h-55v143h-139v38h139l-21 33h-118v38h94l-125 189h63l136 -213l144 213h61z" />
    <glyph glyph-name="Euro.inferior" horiz-adv-x="432" 
d="M419 244l-20 -51c-29 44 -73 61 -123 61c-84 0 -124 -50 -137 -124h235l-13 -38h-225c-1 -15 -1 -21 -1 -33h214l-12 -38h-199c10 -77 59 -133 144 -133c43 0 95 12 122 45v-55c-36 -24 -76 -34 -126 -34c-112 0 -181 72 -193 177h-49l13 38h33c0 13 0 21 1 33h-47l12 38
h39c14 103 84 166 195 166c53 0 101 -15 137 -52z" />
    <glyph glyph-name="florin.inferior" horiz-adv-x="222" 
d="M239 290l-11 -44c-7 4 -20 7 -28 7c-18 0 -27 -6 -36 -40l-16 -64h53l-9 -38h-52l-86 -352c-10 -39 -35 -60 -76 -60c-15 0 -35 4 -42 7l12 45c4 -2 20 -7 28 -7c16 0 23 5 31 37l80 330h-45l9 38h45l19 78c10 43 34 70 78 70c14 0 33 -3 46 -7z" />
    <glyph glyph-name="Eth.sc" horiz-adv-x="548" 
d="M70 503h195c106 0 239 -43 239 -249c0 -202 -129 -254 -252 -254h-182v235h-69v50h69v218zM130 453v-168h179v-50h-179v-185h101c114 0 210 35 210 204c0 122 -65 199 -168 199h-143z" />
    <glyph glyph-name="Lslash.sc" horiz-adv-x="448" 
d="M423 0h-358v180l-65 -42v56l65 43v266h59v-228l184 119v-57l-184 -119v-165h299v-53z" />
    <glyph glyph-name="Scaron.sc" horiz-adv-x="463" 
d="M419 406l-52 -32c-18 62 -66 94 -139 94c-72 0 -114 -32 -114 -87c0 -41 26 -65 88 -82l103 -28c86 -23 123 -64 123 -132c0 -92 -78 -152 -199 -152c-112 0 -179 47 -200 140l55 25c9 -77 58 -117 145 -117s138 36 138 96c0 48 -28 74 -104 93l-88 22
c-80 20 -120 64 -120 131c0 85 68 139 178 139c94 0 152 -34 186 -110zM379 696l-127 -138h-27l-135 138h51l98 -65l90 65h50z" />
    <glyph glyph-name="Yacute.sc" horiz-adv-x="493" 
d="M482 503l-212 -292v-211h-59v211l-200 292h71l161 -243l170 243h69zM413 698l-170 -140h-53l112 140h111z" />
    <glyph glyph-name="Thorn.sc" horiz-adv-x="495" 
d="M130 503v-93h186c99 0 159 -41 159 -149c0 -148 -133 -151 -229 -151h-116v-110h-60v503h60zM130 360v-202h84c101 0 126 3 152 15c30 15 46 46 46 86s-14 70 -39 85c-24 14 -44 16 -150 16h-93z" />
    <glyph glyph-name="Zcaron.sc" horiz-adv-x="455" 
d="M432 470l-319 -417h314v-53h-404v31l319 419h-299v53h389v-33zM369 696l-127 -138h-27l-135 138h51l98 -65l90 65h50z" />
    <glyph glyph-name="A.sc" horiz-adv-x="507" 
d="M489 0h-63l-63 149h-222l-63 -149h-60l217 503h42zM343 197l-89 222l-94 -222h183z" />
    <glyph glyph-name="B.sc" horiz-adv-x="516" 
d="M70 503h239c107 0 152 -57 152 -127c0 -59 -31 -94 -98 -110c75 -13 117 -58 117 -127c0 -94 -75 -139 -181 -139h-229v503zM130 453v-166h152c81 0 119 31 119 85c0 63 -48 81 -115 81h-156zM130 238v-188h150c69 0 139 11 139 90c0 70 -46 98 -161 98h-128z" />
    <glyph glyph-name="C.sc" horiz-adv-x="529" 
d="M495 389l-57 -26c-25 74 -72 107 -151 107c-114 0 -177 -79 -177 -222c0 -132 67 -213 179 -213c74 0 126 35 152 101l52 -29c-44 -85 -109 -123 -207 -123c-148 0 -242 101 -242 261c0 171 92 274 245 274c103 0 166 -39 206 -130z" />
    <glyph glyph-name="D.sc" horiz-adv-x="548" 
d="M70 503h195c106 0 239 -44 239 -249c0 -199 -129 -254 -252 -254h-182v503zM130 453v-403h101c114 0 210 35 210 204c0 122 -67 199 -168 199h-143z" />
    <glyph glyph-name="E.sc" horiz-adv-x="487" 
d="M452 0h-382v503h361v-53h-302v-163h273v-52h-273v-182h323v-53z" />
    <glyph glyph-name="F.sc" horiz-adv-x="457" 
d="M435 450h-305v-165h272v-52h-272v-233h-60v503h365v-53z" />
    <glyph glyph-name="G.sc" horiz-adv-x="557" 
d="M495 393l-56 -25c-26 72 -71 103 -150 103c-113 0 -180 -82 -180 -220s64 -218 173 -218c92 0 156 54 156 181h-196v52h247v-266h-51v76c-25 -59 -84 -92 -164 -92c-138 0 -230 104 -230 262c0 167 97 273 249 273c101 0 164 -39 202 -126z" />
    <glyph glyph-name="H.sc" horiz-adv-x="579" 
d="M508 0h-59v233h-319v-233h-60v503h60v-218h319v218h59v-503z" />
    <glyph glyph-name="I.sc" horiz-adv-x="200" 
d="M130 0h-60v503h60v-503z" />
    <glyph glyph-name="J.sc" horiz-adv-x="413" 
d="M287 503h59v-331c0 -41 -2 -89 -22 -120c-31 -50 -88 -63 -144 -63c-110 0 -168 50 -168 162l62 14c-1 -8 -1 -16 -1 -24c0 -69 39 -105 107 -105c74 0 107 37 107 110v357z" />
    <glyph glyph-name="K.sc" horiz-adv-x="517" 
d="M496 0h-74l-195 255l-97 -95v-160h-60v503h60v-275l274 275h79l-215 -209z" />
    <glyph glyph-name="L.sc" horiz-adv-x="448" 
d="M423 0h-358v503h59v-450h299v-53z" />
    <glyph glyph-name="M.sc" horiz-adv-x="649" 
d="M578 0h-56c0 20 4 435 4 435l-182 -435h-36l-187 440s8 -420 8 -440h-59v503h81l178 -416l168 416h81v-503z" />
    <glyph glyph-name="N.sc" horiz-adv-x="563" 
d="M493 0h-57l-311 441s3 -419 3 -441h-58v503h76l296 -420s-5 402 -5 420h56v-503z" />
    <glyph glyph-name="O.sc" horiz-adv-x="576" 
d="M532 261c0 -167 -96 -276 -245 -276c-146 0 -243 107 -243 266c0 162 98 267 247 267c147 0 241 -101 241 -257zM467 251c0 132 -71 219 -178 219c-110 0 -180 -84 -180 -216c0 -136 68 -220 177 -220c111 0 181 83 181 217z" />
    <glyph glyph-name="P.sc" horiz-adv-x="495" 
d="M70 503h253c92 0 152 -46 152 -149c0 -147 -122 -151 -250 -151h-95v-203h-60v503zM130 453v-202h122c96 0 160 10 160 101c0 94 -57 101 -152 101h-130z" />
    <glyph glyph-name="Q.sc" horiz-adv-x="576" 
d="M568 13l-35 -40l-84 72c-46 -41 -97 -60 -162 -60c-146 0 -243 107 -243 266c0 162 98 267 247 267c147 0 241 -101 241 -257c0 -59 -17 -135 -48 -179zM467 251c0 132 -71 219 -178 219c-110 0 -180 -84 -180 -216c0 -136 68 -220 177 -220c111 0 181 83 181 217z" />
    <glyph glyph-name="R.sc" horiz-adv-x="509" 
d="M481 0h-76l-150 211h-125v-211h-60v503h231c112 0 171 -56 171 -144c0 -84 -53 -133 -152 -144zM130 453v-192h131c74 0 147 13 147 99c0 75 -66 93 -117 93h-161z" />
    <glyph glyph-name="S.sc" horiz-adv-x="463" 
d="M419 406l-52 -32c-18 62 -66 94 -139 94c-72 0 -114 -32 -114 -87c0 -41 26 -65 88 -82l103 -28c86 -23 123 -64 123 -132c0 -92 -78 -152 -199 -152c-112 0 -179 47 -200 140l55 25c9 -77 58 -117 145 -117s138 36 138 96c0 48 -28 74 -104 93l-88 22
c-80 20 -120 64 -120 131c0 85 68 139 178 139c94 0 152 -34 186 -110z" />
    <glyph glyph-name="T.sc" horiz-adv-x="443" 
d="M427 453h-176v-453h-59v453h-177v50h412v-50z" />
    <glyph glyph-name="U.sc" horiz-adv-x="553" 
d="M69 503h59v-310c0 -87 28 -157 152 -157c103 0 146 58 146 153v314h58v-313c0 -92 -32 -203 -209 -203c-197 0 -206 138 -206 190v326z" />
    <glyph glyph-name="V.sc" horiz-adv-x="487" 
d="M473 503l-207 -503h-49l-203 503h64l165 -424l169 424h61z" />
    <glyph glyph-name="W.sc" horiz-adv-x="714" 
d="M699 503l-155 -503h-49l-130 398l-133 -398h-48l-168 503h62l135 -410l133 410h39l136 -410l118 410h60z" />
    <glyph glyph-name="X.sc" horiz-adv-x="524" 
d="M499 0h-73l-165 227l-169 -227h-69l200 265l-177 238h72l143 -196l144 196h69l-177 -233z" />
    <glyph glyph-name="Y.sc" horiz-adv-x="493" 
d="M482 503l-212 -292v-211h-59v211l-200 292h71l161 -243l170 243h69z" />
    <glyph glyph-name="Z.sc" horiz-adv-x="455" 
d="M432 470l-319 -417h314v-53h-404v31l319 419h-299v53h389v-33z" />
    <glyph glyph-name="Aacute.sc" horiz-adv-x="507" 
d="M489 0h-63l-63 149h-222l-63 -149h-60l217 503h42zM343 197l-89 222l-94 -222h183zM411 698l-170 -140h-53l112 140h111z" />
    <glyph glyph-name="Agrave.sc" horiz-adv-x="507" 
d="M489 0h-63l-63 149h-222l-63 -149h-60l217 503h42zM343 197l-89 222l-94 -222h183zM328 558h-53l-172 140h112z" />
    <glyph glyph-name="Acircumflex.sc" horiz-adv-x="507" 
d="M489 0h-63l-63 149h-222l-63 -149h-60l217 503h42zM343 197l-89 222l-94 -222h183zM403 558h-51l-98 65l-89 -65h-51l128 138h26z" />
    <glyph glyph-name="Adieresis.sc" horiz-adv-x="507" 
d="M489 0h-63l-63 149h-222l-63 -149h-60l217 503h42zM343 197l-89 222l-94 -222h183zM372 582h-61v92h61v-92zM200 582h-61v92h61v-92z" />
    <glyph glyph-name="Atilde.sc" horiz-adv-x="507" 
d="M489 0h-63l-63 149h-222l-63 -149h-60l217 503h42zM343 197l-89 222l-94 -222h183zM364 675l41 -10c-20 -66 -42 -90 -87 -90c-19 0 -41 8 -85 32c-20 11 -30 16 -40 16c-19 0 -30 -17 -41 -44l-41 11c20 58 48 88 86 88c17 0 36 -4 75 -28c27 -17 41 -18 47 -18
c28 0 38 26 45 43z" />
    <glyph glyph-name="Aring.sc" horiz-adv-x="507" 
d="M489 0h-63l-63 149h-222l-63 -149h-60l217 503h42zM343 197l-89 222l-94 -222h183zM178 631c0 44 35 79 79 79s79 -35 79 -79s-35 -79 -79 -79s-79 35 -79 79zM214 631c0 -23 19 -42 42 -42s42 19 42 42s-19 42 -42 42s-42 -19 -42 -42z" />
    <glyph glyph-name="Ccedilla.sc" horiz-adv-x="529" 
d="M495 389l-57 -26c-25 74 -72 107 -151 107c-114 0 -177 -79 -177 -222c0 -132 67 -213 179 -213c74 0 126 35 152 101l52 -29c-15 -29 -22 -38 -35 -53c-40 -46 -98 -70 -169 -70h-13l-14 -31c10 2 16 3 26 3c44 0 72 -25 72 -64c0 -49 -43 -82 -104 -82
c-13 0 -19 1 -35 3v27c11 -2 15 -2 24 -2c40 0 62 15 62 41c0 21 -18 36 -46 36c-14 0 -28 -3 -40 -10v24l32 57c-132 16 -209 112 -209 259c0 171 92 274 245 274c103 0 166 -39 206 -130z" />
    <glyph glyph-name="Eacute.sc" horiz-adv-x="487" 
d="M452 0h-382v503h361v-53h-302v-163h273v-52h-273v-182h323v-53zM406 698l-170 -140h-53l112 140h111z" />
    <glyph glyph-name="Egrave.sc" horiz-adv-x="487" 
d="M452 0h-382v503h361v-53h-302v-163h273v-52h-273v-182h323v-53zM321 558h-53l-172 140h112z" />
    <glyph glyph-name="Ecircumflex.sc" horiz-adv-x="487" 
d="M452 0h-382v503h361v-53h-302v-163h273v-52h-273v-182h323v-53zM397 558h-51l-98 65l-89 -65h-51l128 138h26z" />
    <glyph glyph-name="Edieresis.sc" horiz-adv-x="487" 
d="M452 0h-382v503h361v-53h-302v-163h273v-52h-273v-182h323v-53zM367 582h-61v92h61v-92zM195 582h-61v92h61v-92z" />
    <glyph glyph-name="Iacute.sc" horiz-adv-x="200" 
d="M130 0h-60v503h60v-503zM264 698l-170 -140h-53l112 140h111z" />
    <glyph glyph-name="Igrave.sc" horiz-adv-x="200" 
d="M130 0h-60v503h60v-503zM164 558h-53l-172 140h112z" />
    <glyph glyph-name="Icircumflex.sc" horiz-adv-x="200" 
d="M130 0h-60v503h60v-503zM246 558h-51l-98 65l-89 -65h-51l128 138h26z" />
    <glyph glyph-name="Idieresis.sc" horiz-adv-x="200" 
d="M130 0h-60v503h60v-503zM217 582h-61v92h61v-92zM45 582h-61v92h61v-92z" />
    <glyph glyph-name="Ntilde.sc" horiz-adv-x="563" 
d="M493 0h-57l-311 441s3 -419 3 -441h-58v503h76l296 -420s-5 402 -5 420h56v-503zM397 675l41 -10c-20 -66 -42 -90 -87 -90c-19 0 -41 8 -85 32c-20 11 -30 16 -40 16c-19 0 -30 -17 -41 -44l-41 11c20 58 48 88 86 88c17 0 36 -4 75 -28c27 -17 41 -18 47 -18
c28 0 38 26 45 43z" />
    <glyph glyph-name="Oacute.sc" horiz-adv-x="576" 
d="M532 261c0 -167 -96 -276 -245 -276c-146 0 -243 107 -243 266c0 162 98 267 247 267c147 0 241 -101 241 -257zM467 251c0 132 -71 219 -178 219c-110 0 -180 -84 -180 -216c0 -136 68 -220 177 -220c111 0 181 83 181 217zM447 698l-170 -140h-53l112 140h111z" />
    <glyph glyph-name="Ograve.sc" horiz-adv-x="576" 
d="M532 261c0 -167 -96 -276 -245 -276c-146 0 -243 107 -243 266c0 162 98 267 247 267c147 0 241 -101 241 -257zM467 251c0 132 -71 219 -178 219c-110 0 -180 -84 -180 -216c0 -136 68 -220 177 -220c111 0 181 83 181 217zM347 558h-53l-172 140h112z" />
    <glyph glyph-name="Ocircumflex.sc" horiz-adv-x="576" 
d="M532 261c0 -167 -96 -276 -245 -276c-146 0 -243 107 -243 266c0 162 98 267 247 267c147 0 241 -101 241 -257zM467 251c0 132 -71 219 -178 219c-110 0 -180 -84 -180 -216c0 -136 68 -220 177 -220c111 0 181 83 181 217zM433 558h-51l-98 65l-89 -65h-51l128 138h26z
" />
    <glyph glyph-name="Odieresis.sc" horiz-adv-x="576" 
d="M532 261c0 -167 -96 -276 -245 -276c-146 0 -243 107 -243 266c0 162 98 267 247 267c147 0 241 -101 241 -257zM467 251c0 132 -71 219 -178 219c-110 0 -180 -84 -180 -216c0 -136 68 -220 177 -220c111 0 181 83 181 217zM404 582h-61v92h61v-92zM232 582h-61v92h61
v-92z" />
    <glyph glyph-name="Otilde.sc" horiz-adv-x="576" 
d="M532 261c0 -167 -96 -276 -245 -276c-146 0 -243 107 -243 266c0 162 98 267 247 267c147 0 241 -101 241 -257zM467 251c0 132 -71 219 -178 219c-110 0 -180 -84 -180 -216c0 -136 68 -220 177 -220c111 0 181 83 181 217zM396 675l41 -10c-20 -66 -42 -90 -87 -90
c-19 0 -41 8 -85 32c-20 11 -30 16 -40 16c-19 0 -30 -17 -41 -44l-41 11c20 58 48 88 86 88c17 0 36 -4 75 -28c27 -17 41 -18 47 -18c28 0 38 26 45 43z" />
    <glyph glyph-name="Uacute.sc" horiz-adv-x="553" 
d="M69 503h59v-310c0 -87 28 -157 152 -157c103 0 146 58 146 153v314h58v-313c0 -92 -32 -203 -209 -203c-197 0 -206 138 -206 190v326zM437 698l-170 -140h-53l112 140h111z" />
    <glyph glyph-name="Ugrave.sc" horiz-adv-x="553" 
d="M69 503h59v-310c0 -87 28 -157 152 -157c103 0 146 58 146 153v314h58v-313c0 -92 -32 -203 -209 -203c-197 0 -206 138 -206 190v326zM342 558h-53l-172 140h112z" />
    <glyph glyph-name="Ucircumflex.sc" horiz-adv-x="553" 
d="M69 503h59v-310c0 -87 28 -157 152 -157c103 0 146 58 146 153v314h58v-313c0 -92 -32 -203 -209 -203c-197 0 -206 138 -206 190v326zM424 558h-51l-98 65l-89 -65h-51l128 138h26z" />
    <glyph glyph-name="Udieresis.sc" horiz-adv-x="553" 
d="M69 503h59v-310c0 -87 28 -157 152 -157c103 0 146 58 146 153v314h58v-313c0 -92 -32 -203 -209 -203c-197 0 -206 138 -206 190v326zM390 582h-61v92h61v-92zM218 582h-61v92h61v-92z" />
    <glyph glyph-name="AE.sc" horiz-adv-x="770" 
d="M735 0h-376v146h-192l-96 -146h-66l334 503h376v-53h-297v-164h267v-52h-267v-181h317v-53zM359 196v249l-160 -249h160z" />
    <glyph glyph-name="Oslash.sc" horiz-adv-x="576" 
d="M470 535l35 -28l-42 -54c47 -53 69 -116 69 -193c0 -167 -96 -275 -245 -275c-59 0 -94 11 -145 45l-40 -52l-35 27l42 55c-43 50 -65 114 -65 191c0 161 98 267 247 267c54 0 101 -13 138 -38zM145 108l249 327c-27 23 -64 36 -107 36c-109 0 -180 -85 -180 -215
c0 -57 14 -111 38 -148zM426 402l-252 -329c29 -27 67 -40 114 -40c111 0 181 85 181 219c0 55 -16 110 -43 150z" />
    <glyph glyph-name="OE.sc" horiz-adv-x="798" 
d="M763 0h-376c-49 -8 -67 -10 -101 -10c-149 0 -242 98 -242 255c0 166 95 268 250 268c34 0 50 -2 93 -10h356v-53h-297v-164h267v-52h-267v-181h317v-53zM387 50v403c-34 9 -58 12 -95 12c-120 0 -186 -81 -186 -209c0 -139 68 -218 187 -218c32 0 62 4 94 12z" />
    <glyph glyph-name="Ydieresis.sc" horiz-adv-x="493" 
d="M482 503l-212 -292v-211h-59v211l-200 292h71l161 -243l170 243h69zM362 582h-61v92h61v-92zM190 582h-61v92h61v-92z" />
    <glyph glyph-name="zero.fitted" horiz-adv-x="583" 
d="M44 359c0 121 40 361 249 361c240 0 247 -304 247 -375c0 -76 -23 -358 -250 -358c-164 0 -246 157 -246 372zM111 355c0 -147 36 -312 181 -312c132 0 181 139 181 304c0 168 -50 318 -181 318c-157 0 -181 -217 -181 -310z" />
    <glyph glyph-name="one.fitted" horiz-adv-x="308" 
d="M209 0h-61v573c-21 -18 -75 -28 -111 -28h-17v54c21 0 128 4 128 92v15h61v-706z" />
    <glyph glyph-name="two.fitted" horiz-adv-x="519" 
d="M19 0v55c109 66 241 166 313 241c22 23 91 96 91 203c0 98 -66 168 -175 168c-90 0 -172 -59 -172 -159c0 -62 36 -105 49 -120l-82 10c-22 55 -25 90 -25 116c0 109 74 206 231 206c109 0 240 -58 240 -225c0 -34 -5 -87 -48 -155c-88 -140 -304 -271 -330 -285h354v-55
h-446z" />
    <glyph glyph-name="three.fitted" horiz-adv-x="530" 
d="M146 339v55h100c125 0 172 54 172 132c0 100 -83 141 -156 141c-112 0 -152 -79 -161 -119c-2 -8 -3 -19 -3 -38l-70 19c25 103 85 191 234 191c54 0 113 -15 156 -50c61 -49 63 -121 63 -146c0 -60 -23 -114 -80 -138c-23 -10 -51 -14 -74 -17c40 -2 65 -11 80 -18
c35 -16 89 -59 89 -154c0 -141 -111 -210 -236 -210c-119 0 -181 58 -207 99c-14 22 -32 58 -38 116l67 22c0 -132 78 -180 179 -180c139 0 168 90 168 148c0 17 -2 79 -49 116c-40 31 -88 31 -136 31h-98z" />
    <glyph glyph-name="four.fitted" horiz-adv-x="529" 
d="M506 177h-110v-177h-61v177h-315v51l310 478h66v-474h110v-55zM335 232v375l-246 -375h246z" />
    <glyph glyph-name="five.fitted" horiz-adv-x="518" 
d="M443 706v-59h-315l-14 -243c20 41 67 85 157 85c126 0 224 -92 224 -247c0 -140 -83 -256 -237 -256c-129 0 -216 70 -234 200l65 19c1 -90 58 -163 167 -163c117 0 173 85 173 198c0 99 -49 196 -167 196c-70 0 -135 -47 -153 -135l-51 6s11 374 12 399h373z" />
    <glyph glyph-name="six.fitted" horiz-adv-x="535" 
d="M512 564l-66 -23c-4 47 -28 123 -144 123c-162 0 -193 -147 -204 -288c38 54 95 97 192 97c22 0 91 -3 147 -48c76 -61 82 -162 82 -197c0 -136 -85 -241 -239 -241c-214 0 -246 199 -246 344c0 101 12 217 76 299c49 63 110 90 190 90c129 0 189 -77 212 -156zM101 249
c0 -68 36 -207 181 -207c146 0 171 128 171 186c0 123 -67 191 -168 191c-83 0 -184 -57 -184 -170z" />
    <glyph glyph-name="seven.fitted" horiz-adv-x="494" 
d="M491 706v-59c-55 -75 -86 -127 -106 -163c-114 -208 -132 -394 -141 -484h-67c11 174 67 341 154 490c31 54 67 106 103 157h-334v-158h-57v217h448z" />
    <glyph glyph-name="eight.fitted" horiz-adv-x="542" 
d="M375 376c52 -13 142 -71 142 -183c0 -118 -96 -206 -245 -206c-175 0 -248 110 -248 210c0 73 43 150 145 179c-45 16 -118 64 -118 158c0 98 74 186 222 186c125 0 224 -66 224 -183c0 -89 -55 -143 -122 -161zM114 531c0 -82 78 -130 160 -130c56 0 159 23 159 132
c0 56 -34 132 -160 132c-125 0 -159 -82 -159 -134zM91 197c0 -65 44 -153 180 -153c115 0 180 64 180 154c0 79 -66 148 -180 148c-89 0 -180 -47 -180 -149z" />
    <glyph glyph-name="nine.fitted" horiz-adv-x="537" 
d="M27 143l69 25c9 -86 57 -126 144 -126c174 0 192 157 200 301c-31 -61 -97 -109 -196 -109c-123 0 -227 87 -227 241c0 141 90 245 235 245c136 0 252 -77 252 -347c0 -133 -21 -386 -267 -386c-109 0 -178 51 -210 156zM84 476c0 -89 37 -186 170 -186
c115 0 181 81 181 162c0 107 -57 216 -184 216c-106 0 -167 -76 -167 -192z" />
    <glyph glyph-name="zero.tab" horiz-adv-x="583" 
d="M44 359c0 121 40 361 249 361c240 0 247 -304 247 -375c0 -76 -23 -358 -250 -358c-164 0 -246 157 -246 372zM111 355c0 -147 36 -312 181 -312c132 0 181 139 181 304c0 168 -50 318 -181 318c-157 0 -181 -217 -181 -310z" />
    <glyph glyph-name="one.tab" horiz-adv-x="583" 
d="M350 0h-61v573c-21 -18 -75 -28 -111 -28h-17v54c21 0 128 4 128 92v15h61v-706z" />
    <glyph glyph-name="two.tab" horiz-adv-x="583" 
d="M60 0v55c109 66 241 166 313 241c22 23 91 96 91 203c0 98 -66 168 -175 168c-90 0 -172 -59 -172 -159c0 -62 36 -105 49 -120l-82 10c-22 55 -25 90 -25 116c0 109 74 206 231 206c109 0 240 -58 240 -225c0 -34 -5 -87 -48 -155c-88 -140 -304 -271 -330 -285h354v-55
h-446z" />
    <glyph glyph-name="three.tab" horiz-adv-x="583" 
d="M174 339v55h100c125 0 172 54 172 132c0 100 -83 141 -156 141c-112 0 -152 -79 -161 -119c-2 -8 -3 -19 -3 -38l-70 19c25 103 85 191 234 191c54 0 113 -15 156 -50c61 -49 63 -121 63 -146c0 -60 -23 -114 -80 -138c-23 -10 -51 -14 -74 -17c40 -2 65 -11 80 -18
c35 -16 89 -59 89 -154c0 -141 -111 -210 -236 -210c-119 0 -181 58 -207 99c-14 22 -32 58 -38 116l67 22c0 -132 78 -180 179 -180c139 0 168 90 168 148c0 17 -2 79 -49 116c-40 31 -88 31 -136 31h-98z" />
    <glyph glyph-name="four.tab" horiz-adv-x="583" 
d="M542 177h-110v-177h-61v177h-315v51l310 478h66v-474h110v-55zM371 232v375l-246 -375h246z" />
    <glyph glyph-name="five.tab" horiz-adv-x="583" 
d="M472 706v-59h-315l-14 -243c20 41 67 85 157 85c126 0 224 -92 224 -247c0 -140 -83 -256 -237 -256c-129 0 -216 70 -234 200l65 19c1 -90 58 -163 167 -163c117 0 173 85 173 198c0 99 -49 196 -167 196c-70 0 -135 -47 -153 -135l-51 6s11 374 12 399h373z" />
    <glyph glyph-name="six.tab" horiz-adv-x="583" 
d="M535 564l-66 -23c-4 47 -28 123 -144 123c-162 0 -193 -147 -204 -288c38 54 95 97 192 97c22 0 91 -3 147 -48c76 -61 82 -162 82 -197c0 -136 -85 -241 -239 -241c-214 0 -246 199 -246 344c0 101 12 217 76 299c49 63 110 90 190 90c129 0 189 -77 212 -156zM124 249
c0 -68 36 -207 181 -207c146 0 171 128 171 186c0 123 -67 191 -168 191c-83 0 -184 -57 -184 -170z" />
    <glyph glyph-name="seven.tab" horiz-adv-x="583" 
d="M511 706v-59c-55 -75 -86 -127 -106 -163c-114 -208 -132 -394 -141 -484h-67c11 174 67 341 154 490c31 54 67 106 103 157h-334v-158h-57v217h448z" />
    <glyph glyph-name="eight.tab" horiz-adv-x="583" 
d="M396 376c52 -13 142 -71 142 -183c0 -118 -96 -206 -245 -206c-175 0 -248 110 -248 210c0 73 43 150 145 179c-45 16 -118 64 -118 158c0 98 74 186 222 186c125 0 224 -66 224 -183c0 -89 -55 -143 -122 -161zM135 531c0 -82 78 -130 160 -130c56 0 159 23 159 132
c0 56 -34 132 -160 132c-125 0 -159 -82 -159 -134zM112 197c0 -65 44 -153 180 -153c115 0 180 64 180 154c0 79 -66 148 -180 148c-89 0 -180 -47 -180 -149z" />
    <glyph glyph-name="nine.tab" horiz-adv-x="583" 
d="M54 143l69 25c9 -86 57 -126 144 -126c174 0 192 157 200 301c-31 -61 -97 -109 -196 -109c-123 0 -227 87 -227 241c0 141 90 245 235 245c136 0 252 -77 252 -347c0 -133 -21 -386 -267 -386c-109 0 -178 51 -210 156zM111 476c0 -89 37 -186 170 -186
c115 0 181 81 181 162c0 107 -57 216 -184 216c-106 0 -167 -76 -167 -192z" />
    <glyph glyph-name="zero.taboldstyle" 
d="M29 263c0 138 74 270 236 270c151 0 227 -123 227 -265c0 -171 -88 -280 -232 -280c-160 0 -231 135 -231 275zM91 262c0 -119 54 -221 172 -221c141 0 167 135 167 228c0 75 -29 213 -167 213c-75 0 -172 -55 -172 -220z" />
    <glyph glyph-name="one.taboldstyle" 
d="M137 366v51c106 0 128 52 132 110h55v-527h-63v398c-36 -30 -94 -32 -111 -32h-13z" />
    <glyph glyph-name="two.taboldstyle" 
d="M484 0h-422v49c61 44 124 87 185 132c117 87 134 143 134 180c0 71 -57 120 -126 120c-96 0 -133 -76 -133 -132c0 -16 4 -29 6 -35l-66 21c-1 5 -1 12 -1 21c0 80 63 177 195 177c130 0 188 -89 188 -172c0 -54 -15 -149 -243 -279l-58 -33s321 6 341 6v-55z" />
    <glyph glyph-name="three.taboldstyle" 
d="M26 35l63 18c5 -86 62 -167 169 -167c104 0 147 79 147 144c0 111 -120 145 -207 145c-14 0 -26 -1 -41 -2v51c5 0 20 -2 39 -2c36 0 91 5 132 30c18 11 58 40 58 100c0 47 -36 130 -144 130c-119 0 -141 -103 -142 -111l-58 22c25 93 113 140 201 140
c116 0 203 -79 203 -180c0 -89 -75 -146 -149 -152c34 -7 171 -34 171 -175c0 -80 -57 -194 -212 -194c-175 0 -226 139 -230 203z" />
    <glyph glyph-name="four.taboldstyle" 
d="M499 0h-93v-168h-59v168h-311v53l311 471h59v-471h93v-53zM347 53v383l-245 -383h245z" />
    <glyph glyph-name="five.taboldstyle" 
d="M441 469h-296l-9 -245c23 38 64 73 145 73c103 0 201 -73 201 -225c0 -129 -82 -240 -223 -240c-130 0 -195 93 -204 188l66 21v-10c0 -82 59 -147 144 -147c79 0 153 62 153 181s-62 178 -152 178c-68 0 -123 -39 -137 -106l-47 6s9 366 10 378h349v-52z" />
    <glyph glyph-name="six.taboldstyle" 
d="M473 541l-58 -20c-6 68 -53 117 -126 117c-48 0 -170 -12 -185 -289c12 23 50 103 173 103c136 0 208 -103 208 -231c0 -137 -83 -233 -215 -233c-153 0 -229 114 -229 320c0 367 194 381 252 381c132 0 168 -94 180 -148zM108 229c0 -119 83 -190 166 -190
c106 0 148 95 148 185c0 133 -85 177 -148 177c-83 0 -166 -59 -166 -172z" />
    <glyph glyph-name="seven.taboldstyle" 
d="M112 315h-52v206h429v-52c-34 -50 -69 -102 -98 -156c-46 -86 -117 -241 -140 -480h-67c8 63 20 126 35 188c27 107 70 247 208 448h-315v-154z" />
    <glyph glyph-name="eight.taboldstyle" 
d="M350 361c112 -40 137 -120 137 -172c0 -124 -89 -201 -227 -201c-123 0 -226 73 -226 199c0 106 84 156 139 174c-51 19 -115 56 -115 150c0 76 53 178 203 178c107 0 201 -58 201 -175c0 -111 -84 -144 -112 -153zM403 509c0 81 -63 129 -141 129
c-66 0 -145 -34 -145 -124s78 -128 147 -128c72 0 139 44 139 123zM425 184c0 67 -44 146 -165 146c-87 0 -161 -48 -161 -142c0 -95 74 -147 162 -147c86 0 164 49 164 143z" />
    <glyph glyph-name="nine.taboldstyle" 
d="M49 -24l61 24c5 -48 38 -117 127 -117c141 0 180 163 180 292c-3 -8 -42 -106 -174 -106c-151 0 -209 121 -209 233c0 155 103 230 218 230c191 0 228 -182 228 -326c0 -210 -67 -374 -248 -374c-128 0 -172 94 -183 144zM412 292c0 107 -72 189 -167 189
c-61 0 -147 -36 -147 -184c0 -118 71 -177 150 -177c100 0 164 82 164 172z" />
    <glyph glyph-name="braceleft.cap" horiz-adv-x="268" 
d="M255 -122h-12c-97 0 -139 34 -139 139v195c0 87 -14 98 -85 106v51c65 8 85 17 85 104v190c0 74 9 146 123 146h28v-49h-21c-68 0 -69 -40 -69 -92v-190c0 -82 -16 -110 -81 -135c61 -18 81 -51 81 -134v-185c0 -83 14 -97 78 -97h12v-49z" />
    <glyph glyph-name="braceright.cap" horiz-adv-x="268" 
d="M12 809h12c97 0 140 -34 140 -139v-195c0 -87 13 -98 84 -106v-51c-65 -8 -84 -17 -84 -104v-190c0 -74 -14 -146 -124 -146h-28v49h21c68 0 69 40 69 92v190c0 82 16 110 81 135c-61 18 -81 51 -81 134v185c0 83 -14 97 -78 97h-12v49z" />
    <glyph glyph-name="bracketleft.cap" horiz-adv-x="271" 
d="M244 -118h-170v923h170v-51h-109v-822h109v-50z" />
    <glyph glyph-name="bracketright.cap" horiz-adv-x="271" 
d="M196 -117h-170v50h109v823h-109v50h170v-923z" />
    <glyph glyph-name="emdash.cap" horiz-adv-x="843" 
d="M805 309h-767v60h767v-60z" />
    <glyph glyph-name="endash.cap" horiz-adv-x="565" 
d="M527 309h-489v60h489v-60z" />
    <glyph glyph-name="guillemotleft.cap" horiz-adv-x="375" 
d="M339 193l-47 -31l-119 172l119 185l47 -30l-99 -155zM204 193l-48 -31l-118 172l118 185l48 -30l-100 -155z" />
    <glyph glyph-name="guillemotright.cap" horiz-adv-x="375" 
d="M171 488l48 31l118 -172l-118 -185l-48 30l99 155zM36 488l47 31l119 -172l-119 -185l-47 30l99 155z" />
    <glyph glyph-name="guilsinglleft.cap" horiz-adv-x="250" 
d="M209 193l-47 -31l-119 172l119 185l47 -30l-99 -155z" />
    <glyph glyph-name="guilsinglright.cap" horiz-adv-x="250" 
d="M207 347l-119 -185l-47 30l99 155l-99 141l47 31z" />
    <glyph glyph-name="hyphen.cap" horiz-adv-x="341" 
d="M303 309h-265v60h265v-60z" />
    <glyph glyph-name="parenleft.cap" horiz-adv-x="308" 
d="M283 823l24 -33c-131 -108 -191 -247 -191 -435c0 -154 57 -348 195 -454l-25 -37c-158 120 -243 291 -243 487c0 185 83 371 240 472z" />
    <glyph glyph-name="parenright.cap" horiz-adv-x="313" 
d="M8 790l25 37c157 -121 242 -291 242 -486c0 -186 -84 -373 -242 -473l-24 32c132 109 192 248 192 437c0 171 -59 345 -193 453z" />
    <glyph glyph-name="periodcentered.cap" horiz-adv-x="187" 
d="M134 281h-81v108h81v-108z" />
    <glyph glyph-name="Amacron" unicode="&#x100;" horiz-adv-x="646" 
d="M635 0h-73l-81 213h-316l-81 -213h-74l288 706h56zM461 267l-136 361l-138 -361h274zM462 784h-273v62h273v-62z" />
    <glyph glyph-name="amacron" unicode="&#x101;" horiz-adv-x="500" 
d="M492 0h-12c-79 0 -116 20 -116 87c-11 -36 -65 -97 -169 -97c-101 0 -150 62 -150 130c0 95 81 129 239 165l80 18v37c0 46 -23 97 -111 97c-98 0 -129 -38 -129 -115l-65 11c12 97 77 156 187 156c83 0 175 -25 175 -144v-209c0 -64 2 -89 61 -89h10v-47zM364 216v36
l-30 -8c-162 -43 -232 -53 -232 -123c0 -33 26 -79 96 -79c58 0 129 35 153 90c9 20 13 40 13 84zM391 582h-273v62h273v-62z" />
    <glyph glyph-name="Abreve" unicode="&#x102;" horiz-adv-x="646" 
d="M635 0h-73l-81 213h-316l-81 -213h-74l288 706h56zM461 267l-136 361l-138 -361h274zM420 883h44c-11 -63 -66 -107 -141 -107c-66 0 -129 40 -134 107h44c13 -42 46 -53 90 -53c34 0 91 8 97 53z" />
    <glyph glyph-name="abreve" unicode="&#x103;" horiz-adv-x="500" 
d="M492 0h-12c-79 0 -116 20 -116 87c-11 -36 -65 -97 -169 -97c-101 0 -150 62 -150 130c0 95 81 129 239 165l80 18v37c0 46 -23 97 -111 97c-98 0 -129 -38 -129 -115l-65 11c12 97 77 156 187 156c83 0 175 -25 175 -144v-209c0 -64 2 -89 61 -89h10v-47zM364 216v36
l-30 -8c-162 -43 -232 -53 -232 -123c0 -33 26 -79 96 -79c58 0 129 35 153 90c9 20 13 40 13 84zM351 684h44c-13 -70 -71 -120 -147 -120c-66 0 -129 45 -134 120h44c15 -62 79 -64 91 -64c32 0 93 13 102 64z" />
    <glyph glyph-name="Aogonek" unicode="&#x104;" horiz-adv-x="646" 
d="M635 0h-8c-22 -7 -64 -43 -64 -77c0 -37 42 -40 62 -40h12v-46c-9 -1 -16 -1 -25 -1c-65 0 -106 24 -106 67c0 37 36 71 68 97h-12l-81 213h-316l-81 -213h-74l288 706h56zM461 267l-136 361l-138 -361h274z" />
    <glyph glyph-name="aogonek" unicode="&#x105;" horiz-adv-x="500" 
d="M492 0h-12c-15 0 -27 1 -39 2c-20 -6 -68 -42 -68 -79s42 -40 62 -40h12v-46c-9 -1 -16 -1 -25 -1c-65 0 -106 24 -106 67c0 38 38 75 85 110c-24 13 -37 36 -37 74c-11 -36 -65 -97 -169 -97c-101 0 -150 62 -150 130c0 95 81 129 239 165l80 18v37c0 46 -23 97 -111 97
c-98 0 -129 -38 -129 -115l-65 11c12 97 77 156 187 156c83 0 175 -25 175 -144v-209c0 -64 2 -89 61 -89h10v-47zM364 216v36l-30 -8c-162 -43 -232 -53 -232 -123c0 -33 26 -79 96 -79c58 0 129 35 153 90c9 20 13 40 13 84z" />
    <glyph glyph-name="Cacute" unicode="&#x106;" horiz-adv-x="667" 
d="M625 541l-68 -34c-17 76 -68 158 -204 158c-207 0 -233 -212 -233 -308c0 -119 22 -315 246 -315c101 0 167 61 191 150l63 -38c-56 -116 -131 -172 -262 -172c-249 0 -308 208 -308 367c0 146 52 375 301 375c170 0 234 -88 274 -183zM487 895l-147 -125h-57l99 125h105
z" />
    <glyph glyph-name="cacute" unicode="&#x107;" horiz-adv-x="479" 
d="M394 120l60 -14c-29 -61 -83 -118 -191 -118c-135 0 -219 100 -219 247c0 156 95 254 229 254c102 0 156 -54 181 -120l-55 -13c-21 53 -73 80 -129 80c-110 0 -162 -94 -162 -198c0 -107 48 -198 157 -198c60 0 101 28 129 80zM422 698l-170 -140h-53l112 140h111z" />
    <glyph glyph-name="Ccircumflex" unicode="&#x108;" horiz-adv-x="667" 
d="M625 541l-68 -34c-17 76 -68 158 -204 158c-207 0 -233 -212 -233 -308c0 -119 22 -315 246 -315c101 0 167 61 191 150l63 -38c-56 -116 -131 -172 -262 -172c-249 0 -308 208 -308 367c0 146 52 375 301 375c170 0 234 -88 274 -183zM487 772h-49l-78 56l-77 -56h-47
l105 123h42z" />
    <glyph glyph-name="ccircumflex" unicode="&#x109;" horiz-adv-x="479" 
d="M394 120l60 -14c-29 -61 -83 -118 -191 -118c-135 0 -219 100 -219 247c0 156 95 254 229 254c102 0 156 -54 181 -120l-55 -13c-21 53 -73 80 -129 80c-110 0 -162 -94 -162 -198c0 -107 48 -198 157 -198c60 0 101 28 129 80zM405 558h-51l-98 65l-89 -65h-51l128 138
h26z" />
    <glyph glyph-name="Cdotaccent" unicode="&#x10a;" horiz-adv-x="667" 
d="M625 541l-68 -34c-17 76 -68 158 -204 158c-207 0 -233 -212 -233 -308c0 -119 22 -315 246 -315c101 0 167 61 191 150l63 -38c-56 -116 -131 -172 -262 -172c-249 0 -308 208 -308 367c0 146 52 375 301 375c170 0 234 -88 274 -183zM386 784h-67v97h67v-97z" />
    <glyph glyph-name="cdotaccent" unicode="&#x10b;" horiz-adv-x="479" 
d="M394 120l60 -14c-29 -61 -83 -118 -191 -118c-135 0 -219 100 -219 247c0 156 95 254 229 254c102 0 156 -54 181 -120l-55 -13c-21 53 -73 80 -129 80c-110 0 -162 -94 -162 -198c0 -107 48 -198 157 -198c60 0 101 28 129 80zM287 582h-61v92h61v-92z" />
    <glyph glyph-name="Ccaron" unicode="&#x10c;" horiz-adv-x="667" 
d="M625 541l-68 -34c-17 76 -68 158 -204 158c-207 0 -233 -212 -233 -308c0 -119 22 -315 246 -315c101 0 167 61 191 150l63 -38c-56 -116 -131 -172 -262 -172c-249 0 -308 208 -308 367c0 146 52 375 301 375c170 0 234 -88 274 -183zM471 895l-104 -123h-42l-104 123
h49l77 -56l78 56h46z" />
    <glyph glyph-name="ccaron" unicode="&#x10d;" horiz-adv-x="479" 
d="M394 120l60 -14c-29 -61 -83 -118 -191 -118c-135 0 -219 100 -219 247c0 156 95 254 229 254c102 0 156 -54 181 -120l-55 -13c-21 53 -73 80 -129 80c-110 0 -162 -94 -162 -198c0 -107 48 -198 157 -198c60 0 101 28 129 80zM405 696l-127 -138h-27l-135 138h51
l98 -65l90 65h50z" />
    <glyph glyph-name="Dcaron" unicode="&#x10e;" horiz-adv-x="688" 
d="M81 706h219c95 0 172 -3 243 -78c40 -42 95 -130 95 -273c0 -38 -4 -174 -93 -272c-11 -12 -44 -46 -91 -64s-92 -19 -189 -19h-184v706zM149 645v-585h106c93 0 150 4 188 22c94 43 127 173 127 271c0 69 -23 234 -142 278c-39 14 -75 14 -155 14h-124zM429 895
l-104 -123h-42l-104 123h49l77 -56l78 56h46z" />
    <glyph glyph-name="dcaron" unicode="&#x10f;" 
d="M446 0h-58v86c-22 -63 -83 -97 -147 -97c-119 0 -197 108 -197 250s80 248 206 248c62 0 120 -32 138 -86v305h58v-706zM108 239c0 -141 68 -194 142 -194c77 0 139 54 139 185v26c0 158 -89 177 -136 177c-90 0 -145 -76 -145 -194zM488 706h62v-57
c0 -69 -5 -91 -37 -141l-25 16c22 33 28 57 28 94v4h-28v84z" />
    <glyph glyph-name="Dcroat" unicode="&#x110;" horiz-adv-x="688" 
d="M0 352v54h81v300h189c94 0 151 -4 193 -21c96 -40 175 -160 175 -329c0 -177 -84 -300 -185 -337c-51 -19 -128 -19 -181 -19h-191v352h-81zM149 645v-239h221v-54h-221v-292h135c75 0 130 7 160 22c70 35 126 137 126 269c0 79 -23 230 -137 278c-38 16 -80 16 -160 16
h-124z" />
    <glyph glyph-name="dcroat" unicode="&#x111;" 
d="M446 0h-58v86c-22 -63 -83 -97 -147 -97c-119 0 -197 108 -197 250s80 248 206 248c62 0 120 -32 138 -86v166h-162v48h162v91h58v-91h74v-48h-74v-567zM389 230v26c0 158 -89 177 -136 177c-90 0 -145 -76 -145 -195c0 -140 68 -193 142 -193c77 0 139 54 139 185z" />
    <glyph glyph-name="Emacron" unicode="&#x112;" horiz-adv-x="604" 
d="M450 784h-273v62h273v-62zM567 0h-486v706h461v-61h-394v-252h357v-62h-357v-269h419v-62z" />
    <glyph glyph-name="emacron" unicode="&#x113;" 
d="M109 238v-14c0 -71 30 -182 160 -182c43 0 109 9 155 100l55 -16c-22 -49 -72 -138 -207 -138c-194 0 -228 172 -228 255c0 163 109 246 220 246c135 0 215 -118 215 -242v-9h-370zM110 287h301c-14 123 -96 149 -148 149c-101 0 -146 -82 -153 -149zM401 582h-273v62
h273v-62z" />
    <glyph glyph-name="Ebreve" unicode="&#x114;" horiz-adv-x="604" 
d="M404 883h44c-11 -63 -66 -107 -141 -107c-66 0 -129 40 -134 107h44c13 -42 46 -53 90 -53c34 0 91 8 97 53zM567 0h-486v706h461v-61h-394v-252h357v-62h-357v-269h419v-62z" />
    <glyph glyph-name="ebreve" unicode="&#x115;" 
d="M109 238v-14c0 -71 30 -182 160 -182c43 0 109 9 155 100l55 -16c-22 -49 -72 -138 -207 -138c-194 0 -228 172 -228 255c0 163 109 246 220 246c135 0 215 -118 215 -242v-9h-370zM110 287h301c-14 123 -96 149 -148 149c-101 0 -146 -82 -153 -149zM361 684h44
c-13 -70 -71 -120 -147 -120c-66 0 -129 45 -134 120h44c15 -62 79 -64 91 -64c32 0 93 13 102 64z" />
    <glyph glyph-name="Edotaccent" unicode="&#x116;" horiz-adv-x="604" 
d="M348 784h-67v97h67v-97zM567 0h-486v706h461v-61h-394v-252h357v-62h-357v-269h419v-62z" />
    <glyph glyph-name="edotaccent" unicode="&#x117;" 
d="M109 238v-14c0 -71 30 -182 160 -182c43 0 109 9 155 100l55 -16c-22 -49 -72 -138 -207 -138c-194 0 -228 172 -228 255c0 163 109 246 220 246c135 0 215 -118 215 -242v-9h-370zM110 287h301c-14 123 -96 149 -148 149c-101 0 -146 -82 -153 -149zM292 582h-61v92h61
v-92z" />
    <glyph glyph-name="Eogonek" unicode="&#x118;" horiz-adv-x="604" 
d="M567 0h-45c-22 -5 -66 -42 -66 -77c0 -37 42 -40 62 -40h12v-46c-9 -1 -16 -1 -25 -1c-65 0 -106 24 -106 67c0 37 36 71 68 97h-386v706h461v-61h-394v-252h357v-62h-357v-269h419v-62z" />
    <glyph glyph-name="eogonek" unicode="&#x119;" 
d="M109 238v-14c0 -71 30 -182 160 -182c43 0 109 9 155 100l55 -16c-20 -41 -47 -99 -135 -128c-41 -18 -63 -52 -63 -75c0 -37 42 -40 62 -40h12v-46c-9 -1 -16 -1 -25 -1c-65 0 -106 24 -106 67c0 32 25 61 53 85h-5c-194 0 -228 172 -228 255c0 163 109 246 220 246
c135 0 215 -118 215 -242v-9h-370zM110 287h301c-14 123 -96 149 -148 149c-101 0 -146 -82 -153 -149z" />
    <glyph glyph-name="Ecaron" unicode="&#x11a;" horiz-adv-x="604" 
d="M436 895l-104 -123h-42l-104 123h49l77 -56l78 56h46zM567 0h-486v706h461v-61h-394v-252h357v-62h-357v-269h419v-62z" />
    <glyph glyph-name="ecaron" unicode="&#x11b;" 
d="M109 238v-14c0 -71 30 -182 160 -182c43 0 109 9 155 100l55 -16c-22 -49 -72 -138 -207 -138c-194 0 -228 172 -228 255c0 163 109 246 220 246c135 0 215 -118 215 -242v-9h-370zM110 287h301c-14 123 -96 149 -148 149c-101 0 -146 -82 -153 -149zM402 696l-127 -138
h-27l-135 138h51l98 -65l90 65h50z" />
    <glyph glyph-name="Gcircumflex" unicode="&#x11c;" horiz-adv-x="708" 
d="M304 369h318v-369h-58v118c-40 -102 -128 -136 -213 -136c-217 0 -301 183 -301 366c0 161 71 376 317 376c178 0 233 -117 260 -179l-63 -34c-21 80 -75 157 -191 157c-134 0 -252 -100 -252 -317c0 -204 94 -309 233 -309c42 0 210 7 210 266h-260v61zM491 772h-49
l-78 56l-77 -56h-47l105 123h42z" />
    <glyph glyph-name="gcircumflex" unicode="&#x11d;" horiz-adv-x="542" 
d="M409 477h57v-507c0 -100 -26 -214 -212 -214c-154 0 -203 92 -206 170l62 11c8 -53 23 -130 152 -130c119 0 147 64 147 189v96c-4 -23 -40 -102 -158 -102c-125 0 -207 98 -207 251c0 176 101 246 208 246c73 0 141 -39 157 -98v88zM104 243c0 -114 46 -200 152 -200
c115 0 151 81 151 203c0 84 -21 190 -148 190c-90 0 -155 -65 -155 -193zM403 558h-51l-98 65l-89 -65h-51l128 138h26z" />
    <glyph glyph-name="Gbreve" unicode="&#x11e;" horiz-adv-x="708" 
d="M304 369h318v-369h-58v118c-40 -102 -128 -136 -213 -136c-217 0 -301 183 -301 366c0 161 71 376 317 376c178 0 233 -117 260 -179l-63 -34c-21 80 -75 157 -191 157c-134 0 -252 -100 -252 -317c0 -204 94 -309 233 -309c42 0 210 7 210 266h-260v61zM454 883h44
c-11 -63 -66 -107 -141 -107c-66 0 -129 40 -134 107h44c13 -42 46 -53 90 -53c34 0 91 8 97 53z" />
    <glyph glyph-name="gbreve" unicode="&#x11f;" horiz-adv-x="542" 
d="M409 477h57v-507c0 -100 -26 -214 -212 -214c-154 0 -203 92 -206 170l62 11c8 -53 23 -130 152 -130c119 0 147 64 147 189v96c-4 -23 -40 -102 -158 -102c-125 0 -207 98 -207 251c0 176 101 246 208 246c73 0 141 -39 157 -98v88zM104 243c0 -114 46 -200 152 -200
c115 0 151 81 151 203c0 84 -21 190 -148 190c-90 0 -155 -65 -155 -193zM361 684h44c-13 -70 -71 -120 -147 -120c-66 0 -129 45 -134 120h44c15 -62 79 -64 91 -64c32 0 93 13 102 64z" />
    <glyph glyph-name="Gdotaccent" unicode="&#x120;" horiz-adv-x="708" 
d="M304 369h318v-369h-58v118c-40 -102 -128 -136 -213 -136c-217 0 -301 183 -301 366c0 161 71 376 317 376c178 0 233 -117 260 -179l-63 -34c-21 80 -75 157 -191 157c-134 0 -252 -100 -252 -317c0 -204 94 -309 233 -309c42 0 210 7 210 266h-260v61zM392 784h-67v97
h67v-97z" />
    <glyph glyph-name="gdotaccent" unicode="&#x121;" horiz-adv-x="542" 
d="M409 477h57v-507c0 -100 -26 -214 -212 -214c-154 0 -203 92 -206 170l62 11c8 -53 23 -130 152 -130c119 0 147 64 147 189v96c-4 -23 -40 -102 -158 -102c-125 0 -207 98 -207 251c0 176 101 246 208 246c73 0 141 -39 157 -98v88zM104 243c0 -114 46 -200 152 -200
c115 0 151 81 151 203c0 84 -21 190 -148 190c-90 0 -155 -65 -155 -193zM293 582h-61v92h61v-92z" />
    <glyph glyph-name="Gcommaaccent" unicode="&#x122;" horiz-adv-x="708" 
d="M304 369h318v-369h-58v118c-40 -102 -128 -136 -213 -136c-217 0 -301 183 -301 366c0 161 71 376 317 376c178 0 233 -117 260 -179l-63 -34c-21 80 -75 157 -191 157c-134 0 -252 -100 -252 -317c0 -204 94 -309 233 -309c42 0 210 7 210 266h-260v61zM327 -41h63v-49
c0 -56 -3 -76 -32 -119l-28 14c21 29 25 46 25 81h-28v73z" />
    <glyph glyph-name="gcommaaccent" unicode="&#x123;" horiz-adv-x="542" 
d="M409 477h57v-507c0 -100 -26 -214 -212 -214c-154 0 -203 92 -206 170l62 11c8 -53 23 -130 152 -130c119 0 147 64 147 189v96c-4 -23 -40 -102 -158 -102c-125 0 -207 98 -207 251c0 176 101 246 208 246c73 0 141 -39 157 -98v88zM104 243c0 -114 46 -200 152 -200
c115 0 151 81 151 203c0 84 -21 190 -148 190c-90 0 -155 -65 -155 -193zM285 558h-63v49c0 56 3 76 32 119l28 -14c-21 -29 -25 -46 -25 -81h28v-73z" />
    <glyph glyph-name="Hcircumflex" unicode="&#x124;" horiz-adv-x="729" 
d="M648 0h-67v331h-434v-331h-66v706h66v-315h434v315h67v-706zM488 772h-49l-78 56l-77 -56h-47l105 123h42z" />
    <glyph glyph-name="hcircumflex" unicode="&#x125;" 
d="M445 0h-58v302c0 60 -15 131 -112 131c-72 0 -106 -41 -120 -67c-19 -37 -20 -77 -20 -160v-206h-60v706h60v-305c15 31 55 86 148 86c21 0 90 -4 131 -59c27 -36 31 -75 31 -159v-269zM233 772h-49l-78 56l-77 -56h-47l105 123h42z" />
    <glyph glyph-name="Hbar" unicode="&#x126;" horiz-adv-x="729" 
d="M648 0h-67v331h-434v-331h-66v532h-71v58h71v116h66v-116h434v116h67v-116h70v-58h-70v-532zM147 391h434v141h-434v-141z" />
    <glyph glyph-name="hbar" unicode="&#x127;" 
d="M297 567h-162v-166c15 31 55 86 148 86c21 0 90 -4 131 -59c27 -36 31 -75 31 -159v-269h-58v302c0 60 -15 131 -112 131c-72 0 -106 -41 -120 -67c-19 -37 -20 -77 -20 -160v-206h-60v567h-75v48h75v91h60v-91h162v-48z" />
    <glyph glyph-name="Itilde" unicode="&#x128;" horiz-adv-x="229" 
d="M148 0h-67v706h67v-706zM232 886l39 -19c-23 -52 -40 -93 -90 -93c-46 0 -106 51 -135 51c-27 0 -36 -25 -46 -51l-42 13c5 17 31 103 93 103c48 0 99 -53 131 -53c27 0 39 26 50 49z" />
    <glyph glyph-name="itilde" unicode="&#x129;" horiz-adv-x="208" 
d="M133 0h-58v477h58v-477zM210 675l41 -10c-20 -66 -42 -90 -87 -90c-19 0 -41 8 -85 32c-20 11 -30 16 -40 16c-19 0 -30 -17 -41 -44l-41 11c20 58 48 88 86 88c17 0 36 -4 75 -28c27 -17 41 -18 47 -18c28 0 38 26 45 43z" />
    <glyph glyph-name="uni012A" unicode="&#x12a;" horiz-adv-x="229" 
d="M148 0h-67v706h67v-706zM224 784h-218v62h218v-62z" />
    <glyph glyph-name="imacron" unicode="&#x12b;" horiz-adv-x="208" 
d="M133 0h-58v477h58v-477zM203 582h-198v62h198v-62z" />
    <glyph glyph-name="Ibreve" unicode="&#x12c;" horiz-adv-x="229" 
d="M148 0h-67v706h67v-706zM209 883h44c-11 -63 -66 -107 -141 -107c-66 0 -129 40 -134 107h44c13 -42 46 -53 90 -53c34 0 91 8 97 53z" />
    <glyph glyph-name="uni012D" unicode="&#x12d;" horiz-adv-x="208" 
d="M133 0h-58v477h58v-477zM202 684h44c-13 -70 -71 -120 -147 -120c-66 0 -129 45 -134 120h44c15 -62 79 -64 91 -64c32 0 93 13 102 64z" />
    <glyph glyph-name="Iogonek" unicode="&#x12e;" horiz-adv-x="229" 
d="M81 706h67v-706c-19 -11 -59 -45 -59 -77c0 -37 42 -40 62 -40h12v-46c-9 -1 -16 -1 -25 -1c-65 0 -106 24 -106 67c0 37 36 71 68 97h-19v706z" />
    <glyph glyph-name="iogonek" unicode="&#x12f;" horiz-adv-x="208" 
d="M75 477h58v-477c-17 -12 -58 -43 -58 -77c0 -37 42 -40 62 -40h12v-46c-9 -1 -16 -1 -25 -1c-65 0 -106 24 -106 67c0 37 36 71 68 97h-11v477zM133 589h-58v91h58v-91z" />
    <glyph glyph-name="Idotaccent" unicode="&#x130;" horiz-adv-x="229" 
d="M148 0h-67v706h67v-706zM148 784h-67v97h67v-97z" />
    <glyph glyph-name="IJ" unicode="&#x132;" horiz-adv-x="729" 
d="M148 0h-67v706h67v-706zM582 706h66v-490c0 -131 -31 -232 -197 -232c-74 0 -161 19 -195 117c-13 38 -13 84 -14 93l71 16c-1 -11 -1 -21 -1 -33c0 -14 0 -66 32 -98c37 -36 97 -36 113 -36c19 0 72 0 103 48c22 35 22 92 22 132v483z" />
    <glyph glyph-name="ij" unicode="&#x133;" horiz-adv-x="416" 
d="M133 589h-58v91h58v-91zM133 0h-58v477h58v-477zM341 589h-58v91h58v-91zM283 477h58v-586c0 -54 -3 -84 -16 -107c-10 -18 -32 -40 -79 -40c-16 0 -49 1 -86 20v56l10 -6c28 -15 58 -18 69 -18c43 0 44 25 44 84v597z" />
    <glyph glyph-name="Jcircumflex" unicode="&#x134;" horiz-adv-x="500" 
d="M353 706h66v-490c0 -131 -31 -232 -197 -232c-74 0 -161 19 -195 117c-13 38 -13 84 -14 93l71 16c-1 -11 -1 -21 -1 -33c0 -14 0 -66 32 -98c37 -36 97 -36 113 -36c19 0 72 0 103 48c22 35 22 92 22 132v483zM512 772h-49l-78 56l-77 -56h-47l105 123h42z" />
    <glyph glyph-name="jcircumflex" unicode="&#x135;" horiz-adv-x="208" 
d="M75 477h58v-586c0 -54 -3 -84 -16 -107c-10 -18 -32 -40 -79 -40c-16 0 -49 1 -86 20v56l10 -6c28 -15 58 -18 69 -18c43 0 44 25 44 84v597zM250 558h-51l-98 65l-89 -65h-51l128 138h26z" />
    <glyph glyph-name="Kcommaaccent" unicode="&#x136;" horiz-adv-x="667" 
d="M649 0h-82l-264 382l-154 -155v-227h-68v706h68v-394l384 394h92l-276 -280zM312 -41h63v-49c0 -56 -3 -76 -32 -119l-28 14c21 29 25 46 25 81h-28v73z" />
    <glyph glyph-name="kcommaaccent" unicode="&#x137;" horiz-adv-x="500" 
d="M489 0h-72l-182 247l-102 -97v-150h-58v706h58v-480l268 251h74l-199 -190zM232 -41h63v-49c0 -56 -3 -76 -32 -119l-28 14c21 29 25 46 25 81h-28v73z" />
    <glyph glyph-name="kgreenlandic" unicode="&#x138;" horiz-adv-x="500" 
d="M489 0h-72l-182 247l-102 -97v-150h-58v477h58v-251l268 251h74l-199 -190z" />
    <glyph glyph-name="Lacute" unicode="&#x139;" horiz-adv-x="562" 
d="M539 0h-458v706h68v-644h390v-62zM279 895l-147 -125h-57l99 125h105z" />
    <glyph glyph-name="lacute" unicode="&#x13a;" horiz-adv-x="208" 
d="M134 0h-60v706h60v-706zM254 895l-147 -125h-57l99 125h105z" />
    <glyph glyph-name="Lcommaaccent" unicode="&#x13b;" horiz-adv-x="562" 
d="M539 0h-458v706h68v-644h390v-62zM279 -41h63v-49c0 -56 -3 -76 -32 -119l-28 14c21 29 25 46 25 81h-28v73z" />
    <glyph glyph-name="lcommaaccent" unicode="&#x13c;" horiz-adv-x="208" 
d="M134 0h-60v706h60v-706zM74 -41h63v-49c0 -56 -3 -76 -32 -119l-28 14c21 29 25 46 25 81h-28v73z" />
    <glyph glyph-name="Lcaron" unicode="&#x13d;" horiz-adv-x="562" 
d="M539 0h-458v706h68v-644h390v-62zM191 706h62v-57c0 -69 -5 -91 -37 -141l-25 16c22 33 28 57 28 94v4h-28v84z" />
    <glyph glyph-name="lcaron" unicode="&#x13e;" horiz-adv-x="208" 
d="M134 0h-60v706h60v-706zM176 706h62v-57c0 -69 -5 -91 -37 -141l-25 16c22 33 28 57 28 94v4h-28v84z" />
    <glyph glyph-name="Ldot" unicode="&#x13f;" horiz-adv-x="562" 
d="M539 0h-458v706h68v-644h390v-62zM408 325h-71v93h71v-93z" />
    <glyph glyph-name="ldot" unicode="&#x140;" horiz-adv-x="267" 
d="M134 0h-60v706h60v-706zM274 321h-69v92h69v-92z" />
    <glyph glyph-name="Nacute" unicode="&#x143;" horiz-adv-x="708" 
d="M627 0h-66l-414 610v-610h-66v706h66l419 -604s-5 589 -5 604h66v-706zM497 895l-147 -125h-57l99 125h105z" />
    <glyph glyph-name="nacute" unicode="&#x144;" 
d="M446 0h-59v248c0 64 0 102 -11 130c-18 46 -67 56 -99 56c-99 0 -143 -74 -143 -161v-273h-59v477h59v-85c4 13 34 95 150 95c89 0 130 -49 145 -82c16 -34 17 -68 17 -134v-271zM422 698l-170 -140h-53l112 140h111z" />
    <glyph glyph-name="Ncommaaccent" unicode="&#x145;" horiz-adv-x="708" 
d="M627 0h-66l-414 610v-610h-66v706h66l419 -604s-5 589 -5 604h66v-706zM324 -41h63v-49c0 -56 -3 -76 -32 -119l-28 14c21 29 25 46 25 81h-28v73z" />
    <glyph glyph-name="ncommaaccent" unicode="&#x146;" 
d="M446 0h-59v248c0 64 0 102 -11 130c-18 46 -67 56 -99 56c-99 0 -143 -74 -143 -161v-273h-59v477h59v-85c4 13 34 95 150 95c89 0 130 -49 145 -82c16 -34 17 -68 17 -134v-271zM231 -41h63v-49c0 -56 -3 -76 -32 -119l-28 14c21 29 25 46 25 81h-28v73z" />
    <glyph glyph-name="Ncaron" unicode="&#x147;" horiz-adv-x="708" 
d="M627 0h-66l-414 610v-610h-66v706h66l419 -604s-5 589 -5 604h66v-706zM480 895l-104 -123h-42l-104 123h49l77 -56l78 56h46z" />
    <glyph glyph-name="ncaron" unicode="&#x148;" 
d="M446 0h-59v248c0 64 0 102 -11 130c-18 46 -67 56 -99 56c-99 0 -143 -74 -143 -161v-273h-59v477h59v-85c4 13 34 95 150 95c89 0 130 -49 145 -82c16 -34 17 -68 17 -134v-271zM400 696l-127 -136h-26l-135 136h51l98 -64l89 64h50z" />
    <glyph glyph-name="napostrophe" unicode="&#x149;" 
d="M446 0h-59v248c0 64 0 102 -11 130c-18 46 -67 56 -99 56c-99 0 -143 -74 -143 -161v-273h-59v477h59v-85c4 13 34 95 150 95c89 0 130 -49 145 -82c16 -34 17 -68 17 -134v-271zM17 706h62v-57c0 -69 -5 -91 -37 -141l-25 16c22 33 28 57 28 94v4h-28v84z" />
    <glyph glyph-name="Eng" unicode="&#x14a;" horiz-adv-x="708" 
d="M627 706v-734c0 -57 -3 -88 -15 -112c-10 -20 -33 -44 -80 -44c-16 0 -44 4 -57 10v56c17 -9 32 -12 46 -12c38 0 43 24 43 91v35l-417 614v-610h-66v706h66l419 -603s-5 588 -5 603h66z" />
    <glyph glyph-name="eng" unicode="&#x14b;" 
d="M75 477h59v-85c4 13 34 95 150 95c89 0 130 -49 145 -82c16 -34 17 -68 17 -134v-280c0 -57 -2 -88 -14 -112c-10 -20 -32 -44 -79 -44c-21 0 -40 3 -50 7v52c17 -7 29 -10 43 -10c40 0 41 37 41 96v268c0 64 0 102 -11 130c-18 46 -67 56 -99 56
c-99 0 -143 -74 -143 -161v-273h-59v477z" />
    <glyph glyph-name="Omacron" unicode="&#x14c;" horiz-adv-x="708" 
d="M50 355c0 131 53 369 306 369c187 0 302 -135 302 -362c0 -181 -81 -380 -302 -380c-241 0 -306 221 -306 373zM121 353c0 -91 29 -311 232 -311c182 0 234 184 234 322c0 108 -46 302 -231 302c-175 0 -235 -169 -235 -313zM492 784h-273v62h273v-62z" />
    <glyph glyph-name="omacron" unicode="&#x14d;" 
d="M477 241c0 -178 -115 -253 -219 -253c-123 0 -214 91 -214 245c0 148 81 256 218 256c149 0 213 -127 215 -248zM414 241c0 150 -78 198 -153 198c-86 0 -154 -63 -154 -206c0 -147 77 -193 152 -193c74 0 155 48 155 201zM397 582h-273v62h273v-62z" />
    <glyph glyph-name="Obreve" unicode="&#x14e;" horiz-adv-x="708" 
d="M50 355c0 131 53 369 306 369c187 0 302 -135 302 -362c0 -181 -81 -380 -302 -380c-241 0 -306 221 -306 373zM121 353c0 -91 29 -311 232 -311c182 0 234 184 234 322c0 108 -46 302 -231 302c-175 0 -235 -169 -235 -313zM453 883h44c-11 -63 -66 -107 -141 -107
c-66 0 -129 40 -134 107h44c13 -42 46 -53 90 -53c34 0 91 8 97 53z" />
    <glyph glyph-name="obreve" unicode="&#x14f;" 
d="M477 241c0 -178 -115 -253 -219 -253c-123 0 -214 91 -214 245c0 148 81 256 218 256c149 0 213 -127 215 -248zM414 241c0 150 -78 198 -153 198c-86 0 -154 -63 -154 -206c0 -147 77 -193 152 -193c74 0 155 48 155 201zM366 684h44c-13 -70 -71 -120 -147 -120
c-66 0 -129 45 -134 120h44c15 -62 79 -64 91 -64c32 0 93 13 102 64z" />
    <glyph glyph-name="Ohungarumlaut" unicode="&#x150;" horiz-adv-x="708" 
d="M50 355c0 131 53 369 306 369c187 0 302 -135 302 -362c0 -181 -81 -380 -302 -380c-241 0 -306 221 -306 373zM121 353c0 -91 29 -311 232 -311c182 0 234 184 234 322c0 108 -46 302 -231 302c-175 0 -235 -169 -235 -313zM428 895l-138 -125h-54l98 125h94zM567 895
l-138 -125h-54l98 125h94z" />
    <glyph glyph-name="ohungarumlaut" unicode="&#x151;" 
d="M477 241c0 -178 -115 -253 -219 -253c-123 0 -214 91 -214 245c0 148 81 256 218 256c149 0 213 -127 215 -248zM414 241c0 150 -78 198 -153 198c-86 0 -154 -63 -154 -206c0 -147 77 -193 152 -193c74 0 155 48 155 201zM343 698l-164 -140h-46l108 140h102zM490 698
l-164 -140h-46l108 140h102z" />
    <glyph glyph-name="Racute" unicode="&#x154;" horiz-adv-x="646" 
d="M81 706h274c76 0 154 -12 201 -69c24 -29 45 -76 45 -133c0 -125 -96 -191 -209 -191l229 -313h-84l-223 313h-165v-313h-68v706zM149 646v-275h211c85 0 175 21 175 136c0 13 -1 47 -21 79c-33 55 -90 60 -147 60h-218zM449 895l-147 -125h-57l99 125h105z" />
    <glyph glyph-name="racute" unicode="&#x155;" horiz-adv-x="313" 
d="M75 477h59v-76c25 56 72 83 131 83c8 0 24 0 41 -2v-53c-12 2 -24 3 -38 3c-102 0 -134 -75 -134 -171v-261h-59v477zM340 698l-170 -140h-53l112 140h111z" />
    <glyph glyph-name="Rcommaaccent" unicode="&#x156;" horiz-adv-x="646" 
d="M81 706h274c76 0 154 -12 201 -69c24 -29 45 -76 45 -133c0 -125 -96 -191 -209 -191l229 -313h-84l-223 313h-165v-313h-68v706zM149 646v-275h211c85 0 175 21 175 136c0 13 -1 47 -21 79c-33 55 -90 60 -147 60h-218zM298 -41h63v-49c0 -56 -3 -76 -32 -119l-28 14
c21 29 25 46 25 81h-28v73z" />
    <glyph glyph-name="rcommaaccent" unicode="&#x157;" horiz-adv-x="313" 
d="M75 477h59v-76c25 56 72 83 131 83c8 0 24 0 41 -2v-53c-12 2 -24 3 -38 3c-102 0 -134 -75 -134 -171v-261h-59v477zM73 -41h63v-49c0 -56 -3 -76 -32 -119l-28 14c21 29 25 46 25 81h-28v73z" />
    <glyph glyph-name="Rcaron" unicode="&#x158;" horiz-adv-x="646" 
d="M81 706h274c76 0 154 -12 201 -69c24 -29 45 -76 45 -133c0 -125 -96 -191 -209 -191l229 -313h-84l-223 313h-165v-313h-68v706zM149 646v-275h211c85 0 175 21 175 136c0 13 -1 47 -21 79c-33 55 -90 60 -147 60h-218zM412 895l-104 -123h-42l-104 123h49l77 -56l78 56
h46z" />
    <glyph glyph-name="rcaron" unicode="&#x159;" horiz-adv-x="313" 
d="M75 477h59v-76c25 56 72 83 131 83c8 0 24 0 41 -2v-53c-12 2 -24 3 -38 3c-102 0 -134 -75 -134 -171v-261h-59v477zM319 696l-127 -138h-27l-135 138h51l98 -65l90 65h50z" />
    <glyph glyph-name="Sacute" unicode="&#x15a;" horiz-adv-x="604" 
d="M561 569l-62 -33c-7 22 -15 42 -29 61c-20 29 -68 72 -154 72c-122 0 -166 -67 -166 -126c0 -91 82 -114 150 -132l68 -18c127 -34 207 -89 207 -200c0 -37 -11 -106 -87 -161c-33 -23 -84 -50 -176 -50c-135 0 -234 58 -263 196l67 35c2 -42 7 -60 16 -79
c20 -44 73 -93 180 -93c130 0 195 70 195 150c0 78 -50 115 -150 141l-81 21c-80 21 -191 58 -191 188c0 98 72 183 233 183c97 0 198 -33 243 -155zM449 895l-147 -125h-57l99 125h105z" />
    <glyph glyph-name="sacute" unicode="&#x15b;" horiz-adv-x="458" 
d="M34 116l58 20c8 -33 44 -94 133 -94c92 0 122 51 122 93c0 41 -24 69 -103 86l-56 12c-74 16 -124 49 -124 119c0 17 3 63 41 97c33 30 88 40 130 40c14 0 73 0 117 -31c37 -26 48 -61 52 -77l-56 -15c-11 55 -68 71 -116 71c-97 0 -110 -51 -110 -80
c0 -56 59 -69 100 -77l50 -10c84 -17 132 -65 132 -139c0 -55 -44 -143 -178 -143c-40 0 -141 6 -192 128zM368 698l-170 -140h-53l112 140h111z" />
    <glyph glyph-name="Scircumflex" unicode="&#x15c;" horiz-adv-x="604" 
d="M561 569l-62 -33c-7 22 -15 42 -29 61c-20 29 -68 72 -154 72c-122 0 -166 -67 -166 -126c0 -91 82 -114 150 -132l68 -18c127 -34 207 -89 207 -200c0 -37 -11 -106 -87 -161c-33 -23 -84 -50 -176 -50c-135 0 -234 58 -263 196l67 35c2 -42 7 -60 16 -79
c20 -44 73 -93 180 -93c130 0 195 70 195 150c0 78 -50 115 -150 141l-81 21c-80 21 -191 58 -191 188c0 98 72 183 233 183c97 0 198 -33 243 -155zM445 772h-49l-78 56l-77 -56h-47l105 123h42z" />
    <glyph glyph-name="scircumflex" unicode="&#x15d;" horiz-adv-x="458" 
d="M34 116l58 20c8 -33 44 -94 133 -94c92 0 122 51 122 93c0 41 -24 69 -103 86l-56 12c-74 16 -124 49 -124 119c0 17 3 63 41 97c33 30 88 40 130 40c14 0 73 0 117 -31c37 -26 48 -61 52 -77l-56 -15c-11 55 -68 71 -116 71c-97 0 -110 -51 -110 -80
c0 -56 59 -69 100 -77l50 -10c84 -17 132 -65 132 -139c0 -55 -44 -143 -178 -143c-40 0 -141 6 -192 128zM381 558h-51l-98 65l-89 -65h-51l128 138h26z" />
    <glyph glyph-name="Scedilla" unicode="&#x15e;" horiz-adv-x="604" 
d="M561 569l-62 -33c-7 22 -15 42 -29 61c-20 29 -68 72 -154 72c-122 0 -166 -67 -166 -126c0 -91 82 -114 150 -132l68 -18c127 -34 207 -89 207 -200c0 -37 -11 -106 -87 -161c-33 -23 -84 -50 -176 -50l-15 -29c4 1 16 3 29 3c39 0 69 -24 69 -64
c0 -56 -53 -82 -102 -82c-12 0 -25 1 -37 3v27c11 -1 22 -2 32 -2c40 0 56 20 56 40c0 16 -14 37 -50 37c-9 0 -20 -1 -38 -10v25l31 53c-122 7 -211 65 -238 195l67 35c2 -42 7 -60 16 -79c20 -44 73 -93 180 -93c130 0 195 70 195 150c0 78 -50 115 -150 141l-81 21
c-80 21 -191 58 -191 188c0 98 72 183 233 183c97 0 198 -33 243 -155z" />
    <glyph glyph-name="scedilla" unicode="&#x15f;" horiz-adv-x="458" 
d="M34 116l58 20c8 -33 44 -94 133 -94c92 0 122 51 122 93c0 41 -24 69 -103 86l-56 12c-74 16 -124 49 -124 119c0 17 3 63 41 97c33 30 88 40 130 40c14 0 73 0 117 -31c37 -26 48 -61 52 -77l-56 -15c-11 55 -68 71 -116 71c-97 0 -110 -51 -110 -80
c0 -56 59 -69 100 -77l50 -10c84 -17 132 -65 132 -139c0 -54 -43 -140 -172 -143l-18 -35c4 1 16 3 29 3c39 0 69 -24 69 -64c0 -56 -53 -82 -102 -82c-12 0 -25 1 -37 3v27c11 -1 22 -2 32 -2c40 0 56 20 56 40c0 16 -14 37 -50 37c-9 0 -20 -1 -38 -10v25l34 59
c-47 3 -129 21 -173 127z" />
    <glyph glyph-name="Tcommaaccent" unicode="&#x162;" horiz-adv-x="542" 
d="M527 647h-223v-647h-67v647h-222v59h512v-59zM240 -41h63v-49c0 -56 -3 -76 -32 -119l-28 14c21 29 25 46 25 81h-28v73z" />
    <glyph glyph-name="tcommaaccent" unicode="&#x163;" horiz-adv-x="292" 
d="M172 427v-326c0 -27 4 -58 39 -58c24 0 48 17 66 30v-60c-13 -10 -38 -22 -79 -22c-17 0 -61 1 -76 43c-6 17 -7 52 -7 78v315h-100v50h100v203h57v-203h105v-50h-105zM142 -41h63v-49c0 -56 -3 -76 -32 -119l-28 14c21 29 25 46 25 81h-28v73z" />
    <glyph glyph-name="Tcaron" unicode="&#x164;" horiz-adv-x="542" 
d="M527 647h-223v-647h-67v647h-222v59h512v-59zM396 895l-104 -123h-42l-104 123h49l77 -56l78 56h46z" />
    <glyph glyph-name="tcaron" unicode="&#x165;" horiz-adv-x="292" 
d="M172 427v-326c0 -27 4 -58 39 -58c24 0 48 17 66 30v-60c-13 -10 -38 -22 -79 -22c-17 0 -61 1 -76 43c-6 17 -7 52 -7 78v315h-100v50h100v203h57v-203h105v-50h-105zM214 706h62v-57c0 -69 -5 -91 -37 -141l-25 16c22 33 28 57 28 94v4h-28v84z" />
    <glyph glyph-name="Tbar" unicode="&#x166;" horiz-adv-x="542" 
d="M464 418h-160v-418h-67v418h-160v57h160v172h-222v59h512v-59h-223v-172h160v-57z" />
    <glyph glyph-name="tbar" unicode="&#x167;" horiz-adv-x="292" 
d="M263 278h-91v-177c0 -27 4 -58 39 -58c24 0 48 17 66 30v-60c-13 -10 -38 -22 -79 -22c-17 0 -61 1 -76 43c-6 17 -7 52 -7 78v166h-96v48h96v101h-100v50h100v203h57v-203h105v-50h-105v-101h91v-48z" />
    <glyph glyph-name="Utilde" unicode="&#x168;" horiz-adv-x="688" 
d="M608 706v-443c0 -156 -58 -281 -264 -281c-69 0 -264 16 -264 267v457h66v-475c0 -158 117 -187 199 -187c126 0 196 58 196 204v458h67zM461 886l39 -19c-23 -52 -40 -93 -90 -93c-46 0 -106 51 -135 51c-27 0 -36 -25 -46 -51l-42 13c5 17 31 103 93 103
c48 0 99 -53 131 -53c27 0 39 26 50 49z" />
    <glyph glyph-name="utilde" unicode="&#x169;" 
d="M446 0h-59v86c-26 -59 -71 -97 -152 -97c-66 0 -126 35 -147 101c-10 33 -13 78 -13 153v234h60v-247c0 -58 1 -89 8 -116c8 -29 29 -70 99 -70c24 0 75 1 113 53c29 40 32 90 32 139v241h59v-477zM366 675l41 -10c-20 -66 -42 -90 -87 -90c-19 0 -41 8 -85 32
c-20 11 -30 16 -40 16c-19 0 -30 -17 -41 -44l-41 11c20 58 48 88 86 88c17 0 36 -4 75 -28c27 -17 41 -18 47 -18c28 0 38 26 45 43z" />
    <glyph glyph-name="Umacron" unicode="&#x16a;" horiz-adv-x="688" 
d="M608 706v-443c0 -156 -58 -281 -264 -281c-69 0 -264 16 -264 267v457h66v-475c0 -158 117 -187 199 -187c126 0 196 58 196 204v458h67zM481 784h-273v62h273v-62z" />
    <glyph glyph-name="umacron" unicode="&#x16b;" 
d="M446 0h-59v86c-26 -59 -71 -97 -152 -97c-66 0 -126 35 -147 101c-10 33 -13 78 -13 153v234h60v-247c0 -58 1 -89 8 -116c8 -29 29 -70 99 -70c24 0 75 1 113 53c29 40 32 90 32 139v241h59v-477zM397 582h-273v62h273v-62z" />
    <glyph glyph-name="Ubreve" unicode="&#x16c;" horiz-adv-x="688" 
d="M608 706v-443c0 -156 -58 -281 -264 -281c-69 0 -264 16 -264 267v457h66v-475c0 -158 117 -187 199 -187c126 0 196 58 196 204v458h67zM437 883h44c-11 -63 -66 -107 -141 -107c-66 0 -129 40 -134 107h44c13 -42 46 -53 90 -53c34 0 91 8 97 53z" />
    <glyph glyph-name="ubreve" unicode="&#x16d;" 
d="M446 0h-59v86c-26 -59 -71 -97 -152 -97c-66 0 -126 35 -147 101c-10 33 -13 78 -13 153v234h60v-247c0 -58 1 -89 8 -116c8 -29 29 -70 99 -70c24 0 75 1 113 53c29 40 32 90 32 139v241h59v-477zM357 684h44c-13 -70 -71 -120 -147 -120c-66 0 -129 45 -134 120h44
c15 -62 79 -64 91 -64c32 0 93 13 102 64z" />
    <glyph glyph-name="Uring" unicode="&#x16e;" horiz-adv-x="688" 
d="M608 706v-443c0 -156 -58 -281 -264 -281c-69 0 -264 16 -264 267v457h66v-475c0 -158 117 -187 199 -187c126 0 196 58 196 204v458h67zM264 827c0 44 35 79 79 79s79 -35 79 -79s-35 -79 -79 -79s-79 35 -79 79zM301 827c0 -23 19 -42 42 -42s42 19 42 42
s-19 42 -42 42s-42 -19 -42 -42z" />
    <glyph glyph-name="uring" unicode="&#x16f;" 
d="M446 0h-59v86c-26 -59 -71 -97 -152 -97c-66 0 -126 35 -147 101c-10 33 -13 78 -13 153v234h60v-247c0 -58 1 -89 8 -116c8 -29 29 -70 99 -70c24 0 75 1 113 53c29 40 32 90 32 139v241h59v-477zM182 631c0 44 35 79 79 79s79 -35 79 -79s-35 -79 -79 -79
s-79 35 -79 79zM218 631c0 -23 19 -42 42 -42s42 19 42 42s-19 42 -42 42s-42 -19 -42 -42z" />
    <glyph glyph-name="Uhungarumlaut" unicode="&#x170;" horiz-adv-x="688" 
d="M608 706v-443c0 -156 -58 -281 -264 -281c-69 0 -264 16 -264 267v457h66v-475c0 -158 117 -187 199 -187c126 0 196 58 196 204v458h67zM413 895l-138 -125h-54l98 125h94zM552 895l-138 -125h-54l98 125h94z" />
    <glyph glyph-name="uhungarumlaut" unicode="&#x171;" 
d="M446 0h-59v86c-26 -59 -71 -97 -152 -97c-66 0 -126 35 -147 101c-10 33 -13 78 -13 153v234h60v-247c0 -58 1 -89 8 -116c8 -29 29 -70 99 -70c24 0 75 1 113 53c29 40 32 90 32 139v241h59v-477zM343 698l-164 -140h-46l108 140h102zM490 698l-164 -140h-46l108 140
h102z" />
    <glyph glyph-name="Uogonek" unicode="&#x172;" horiz-adv-x="688" 
d="M608 706v-443c0 -147 -49 -252 -208 -278c-43 -7 -59 -39 -59 -62c0 -37 42 -40 62 -40h12v-46c-9 -1 -16 -1 -25 -1c-65 0 -106 24 -106 67c0 29 21 56 46 79c-77 3 -250 30 -250 267v457h66v-475c0 -158 117 -187 199 -187c126 0 196 58 196 204v458h67z" />
    <glyph glyph-name="uogonek" unicode="&#x173;" 
d="M446 477v-477c-21 -4 -66 -43 -66 -77c0 -37 42 -40 62 -40h12v-46c-9 -1 -16 -1 -25 -1c-65 0 -106 24 -106 67c0 37 36 71 68 97h-4v86c-26 -59 -71 -97 -152 -97c-66 0 -126 35 -147 101c-10 33 -13 78 -13 153v234h60v-247c0 -58 1 -89 8 -116c8 -29 29 -70 99 -70
c24 0 75 1 113 53c29 40 32 90 32 139v241h59z" />
    <glyph glyph-name="Wcircumflex" unicode="&#x174;" horiz-adv-x="875" 
d="M864 706l-201 -706h-54l-169 571l-168 -571h-53l-209 706h72l166 -586l168 586h46l174 -586l161 586h67zM566 772h-49l-78 56l-77 -56h-47l105 123h42z" />
    <glyph glyph-name="wcircumflex" unicode="&#x175;" horiz-adv-x="688" 
d="M667 477l-151 -477h-49l-118 393l-117 -393h-50l-161 477h57l128 -385l117 385h50l118 -385l119 385h57zM494 558h-51l-98 65l-89 -65h-51l128 138h26z" />
    <glyph glyph-name="Ycircumflex" unicode="&#x176;" horiz-adv-x="625" 
d="M615 706l-276 -414v-292h-66v292l-263 414h79l218 -351l227 351h81zM434 772h-49l-78 56l-77 -56h-47l105 123h42z" />
    <glyph glyph-name="ycircumflex" unicode="&#x177;" horiz-adv-x="437" 
d="M367 477h60l-225 -570c-38 -98 -57 -149 -128 -149c-33 0 -53 12 -63 19v60c27 -19 46 -23 62 -23c34 0 44 21 64 72l44 114l-165 477h57l139 -406zM357 558h-51l-98 65l-89 -65h-51l128 138h26z" />
    <glyph glyph-name="Zacute" unicode="&#x179;" horiz-adv-x="583" 
d="M554 660l-430 -600h424v-60h-519v44l435 602h-409v60h499v-46zM446 895l-147 -125h-57l99 125h105z" />
    <glyph glyph-name="zacute" unicode="&#x17a;" horiz-adv-x="396" 
d="M376 0h-348v37l258 389h-236v51h319v-35l-258 -389h265v-53zM381 698l-170 -140h-53l112 140h111z" />
    <glyph glyph-name="Zdotaccent" unicode="&#x17b;" horiz-adv-x="583" 
d="M554 660l-430 -600h424v-60h-519v44l435 602h-409v60h499v-46zM338 784h-67v97h67v-97z" />
    <glyph glyph-name="zdotaccent" unicode="&#x17c;" horiz-adv-x="396" 
d="M376 0h-348v37l258 389h-236v51h319v-35l-258 -389h265v-53zM240 582h-61v92h61v-92z" />
    <glyph glyph-name="longs" unicode="&#x17f;" horiz-adv-x="285" 
d="M128 427h-105v50h105v132c0 43 5 111 106 111c23 0 39 -3 61 -7v-58c-11 4 -29 13 -57 13c-43 0 -51 -32 -51 -66v-602h-59v427z" />
    <glyph glyph-name="Aringacute" unicode="&#x1fa;" horiz-adv-x="646" 
d="M458 998l-145 -100h-52l100 100h97zM635 0h-73l-81 213h-316l-81 -213h-74l288 706h56zM461 267l-136 361l-138 -361h274zM257 808c0 39 31 70 71 70c39 0 70 -31 70 -70s-31 -70 -70 -70c-40 0 -71 31 -71 70zM292 808c0 -20 16 -35 36 -35c19 0 35 15 35 35
c0 19 -16 35 -35 35c-20 0 -36 -16 -36 -35z" />
    <glyph glyph-name="aringacute" unicode="&#x1fb;" horiz-adv-x="500" 
d="M380 845l-159 -133h-49l101 133h107zM492 0h-12c-79 0 -116 20 -116 87c-11 -36 -65 -97 -169 -97c-101 0 -150 62 -150 130c0 95 81 129 239 165l80 18v37c0 46 -23 97 -111 97c-98 0 -129 -38 -129 -115l-65 11c12 97 77 156 187 156c83 0 175 -25 175 -144v-209
c0 -64 2 -89 61 -89h10v-47zM364 216v36l-30 -8c-162 -43 -232 -53 -232 -123c0 -33 26 -79 96 -79c58 0 129 35 153 90c9 20 13 40 13 84zM169 605c0 40 33 70 72 70s71 -30 71 -70s-32 -71 -71 -71s-72 30 -72 71zM204 604c0 -20 16 -35 36 -35c19 0 35 15 35 35
c0 21 -16 36 -35 36c-20 0 -36 -15 -36 -36z" />
    <glyph glyph-name="AEacute" unicode="&#x1fc;" horiz-adv-x="1000" 
d="M970 0h-496v204h-266l-129 -204h-79l452 706h499v-61h-411v-254h370v-62h-370v-269h430v-60zM474 267v365l-226 -365h226zM813 895l-147 -125h-57l99 125h105z" />
    <glyph glyph-name="aeacute" unicode="&#x1fd;" horiz-adv-x="833" 
d="M738 148l54 -11c-24 -63 -66 -100 -86 -114c-48 -33 -110 -35 -126 -35c-91 0 -144 44 -166 72c-8 10 -15 20 -25 44c-12 -24 -23 -38 -31 -47c-24 -27 -77 -67 -167 -67c-76 0 -153 31 -153 128c0 23 6 67 53 100c37 26 103 43 203 68l71 18v49c0 47 -23 81 -111 81
c-11 0 -67 0 -99 -23c-36 -25 -36 -73 -36 -89l-66 9c7 55 36 158 201 158c64 0 131 -17 161 -79c35 57 99 79 162 79c29 0 101 -2 156 -66s58 -150 59 -181v-5h-368c0 -4 -1 -12 -1 -22c0 -39 7 -112 71 -150c15 -9 46 -25 90 -25c27 0 100 1 154 108zM424 286h298
c-3 34 -13 150 -145 150c-50 0 -142 -21 -153 -150zM365 212v39c-41 -9 -179 -45 -217 -62c-18 -8 -52 -26 -52 -67c0 -35 18 -78 93 -78c99 0 151 58 164 87c11 24 12 55 12 81zM574 698l-170 -140h-53l112 140h111z" />
    <glyph glyph-name="Oslashacute" unicode="&#x1fe;" horiz-adv-x="708" 
d="M627 714l39 -31l-67 -82c27 -46 62 -116 62 -240c0 -33 0 -214 -117 -314c-74 -64 -156 -65 -191 -65c-110 0 -167 46 -199 78l-59 -70l-37 31l64 78c-25 38 -72 121 -72 257c0 187 87 368 309 368c36 0 135 -3 208 -84zM167 153l354 433c-34 51 -87 78 -159 78
c-66 0 -115 -15 -160 -63c-40 -42 -81 -117 -81 -247c0 -33 1 -117 46 -201zM550 542l-354 -430c38 -50 98 -71 160 -71c87 0 131 37 156 63c61 66 77 156 77 242c0 27 0 119 -39 196zM492 895l-147 -125h-57l99 125h105z" />
    <glyph glyph-name="oslashacute" unicode="&#x1ff;" 
d="M384 504l39 -23l-26 -45c21 -18 80 -80 80 -196c0 -19 -1 -63 -19 -111c-16 -42 -66 -141 -198 -141c-48 0 -87 14 -103 26l-21 -36l-37 22l21 38c-16 17 -76 82 -76 199c0 128 76 252 217 252c20 0 57 -1 100 -26zM371 391l-189 -331c14 -8 36 -20 75 -20
c45 0 83 14 113 48c24 27 46 70 46 150c0 82 -24 124 -45 153zM149 89l187 329s-33 20 -73 20c-112 0 -159 -110 -159 -203c0 -75 29 -122 45 -146zM421 698l-170 -140h-53l112 140h111z" />
    <glyph glyph-name="Scommaaccent" unicode="&#x218;" horiz-adv-x="604" 
d="M561 569l-62 -33c-7 22 -15 42 -29 61c-20 29 -68 72 -154 72c-122 0 -166 -67 -166 -126c0 -91 82 -114 150 -132l68 -18c127 -34 207 -89 207 -200c0 -37 -11 -106 -87 -161c-33 -23 -84 -50 -176 -50c-135 0 -234 58 -263 196l67 35c2 -42 7 -60 16 -79
c20 -44 73 -93 180 -93c130 0 195 70 195 150c0 78 -50 115 -150 141l-81 21c-80 21 -191 58 -191 188c0 98 72 183 233 183c97 0 198 -33 243 -155zM286 -41h63v-49c0 -56 -3 -76 -32 -119l-28 14c21 29 25 46 25 81h-28v73z" />
    <glyph glyph-name="scommaaccent" unicode="&#x219;" horiz-adv-x="458" 
d="M34 116l58 20c8 -33 44 -94 133 -94c92 0 122 51 122 93c0 41 -24 69 -103 86l-56 12c-74 16 -124 49 -124 119c0 17 3 63 41 97c33 30 88 40 130 40c14 0 73 0 117 -31c37 -26 48 -61 52 -77l-56 -15c-11 55 -68 71 -116 71c-97 0 -110 -51 -110 -80
c0 -56 59 -69 100 -77l50 -10c84 -17 132 -65 132 -139c0 -55 -44 -143 -178 -143c-40 0 -141 6 -192 128zM199 -41h63v-49c0 -56 -3 -76 -32 -119l-28 14c21 29 25 46 25 81h-28v73z" />
    <glyph glyph-name="uni021A" unicode="&#x21a;" horiz-adv-x="542" 
d="M527 647h-223v-647h-67v647h-222v59h512v-59zM240 -41h63v-49c0 -56 -3 -76 -32 -119l-28 14c21 29 25 46 25 81h-28v73z" />
    <glyph glyph-name="uni021B" unicode="&#x21b;" horiz-adv-x="292" 
d="M172 427v-326c0 -27 4 -58 39 -58c24 0 48 17 66 30v-60c-13 -10 -38 -22 -79 -22c-17 0 -61 1 -76 43c-6 17 -7 52 -7 78v315h-100v50h100v203h57v-203h105v-50h-105zM142 -41h63v-49c0 -56 -3 -76 -32 -119l-28 14c21 29 25 46 25 81h-28v73z" />
    <glyph glyph-name="Wgrave" unicode="&#x1e80;" horiz-adv-x="875" 
d="M864 706l-201 -706h-54l-169 571l-168 -571h-53l-209 706h72l166 -586l168 586h46l174 -586l161 586h67zM507 770h-58l-147 125h106z" />
    <glyph glyph-name="wgrave" unicode="&#x1e81;" horiz-adv-x="688" 
d="M667 477l-151 -477h-49l-118 393l-117 -393h-50l-161 477h57l128 -385l117 385h50l118 -385l119 385h57zM415 558h-53l-172 140h112z" />
    <glyph glyph-name="Wacute" unicode="&#x1e82;" horiz-adv-x="875" 
d="M864 706l-201 -706h-54l-169 571l-168 -571h-53l-209 706h72l166 -586l168 586h46l174 -586l161 586h67zM571 895l-147 -125h-57l99 125h105z" />
    <glyph glyph-name="wacute" unicode="&#x1e83;" horiz-adv-x="688" 
d="M667 477l-151 -477h-49l-118 393l-117 -393h-50l-161 477h57l128 -385l117 385h50l118 -385l119 385h57zM504 698l-170 -140h-53l112 140h111z" />
    <glyph glyph-name="Wdieresis" unicode="&#x1e84;" horiz-adv-x="875" 
d="M864 706l-201 -706h-54l-169 571l-168 -571h-53l-209 706h72l166 -586l168 586h46l174 -586l161 586h67zM581 784h-67v97h67v-97zM362 784h-67v97h67v-97z" />
    <glyph glyph-name="wdieresis" unicode="&#x1e85;" horiz-adv-x="688" 
d="M667 477l-151 -477h-49l-118 393l-117 -393h-50l-161 477h57l128 -385l117 385h50l118 -385l119 385h57zM464 582h-61v92h61v-92zM292 582h-61v92h61v-92z" />
    <glyph glyph-name="Ygrave" unicode="&#x1ef2;" horiz-adv-x="625" 
d="M615 706l-276 -414v-292h-66v292l-263 414h79l218 -351l227 351h81zM376 770h-58l-147 125h106z" />
    <glyph glyph-name="ygrave" unicode="&#x1ef3;" horiz-adv-x="437" 
d="M367 477h60l-225 -570c-38 -98 -57 -149 -128 -149c-33 0 -53 12 -63 19v60c27 -19 46 -23 62 -23c34 0 44 21 64 72l44 114l-165 477h57l139 -406zM274 558h-53l-172 140h112z" />
    <glyph glyph-name="uniF6C1" unicode="&#xf6c1;" horiz-adv-x="604" 
d="M561 569l-62 -33c-7 22 -15 42 -29 61c-20 29 -68 72 -154 72c-122 0 -166 -67 -166 -126c0 -91 82 -114 150 -132l68 -18c127 -34 207 -89 207 -200c0 -37 -11 -106 -87 -161c-33 -23 -84 -50 -176 -50l-15 -29c4 1 16 3 29 3c39 0 69 -24 69 -64
c0 -56 -53 -82 -102 -82c-12 0 -25 1 -37 3v27c11 -1 22 -2 32 -2c40 0 56 20 56 40c0 16 -14 37 -50 37c-9 0 -20 -1 -38 -10v25l31 53c-122 7 -211 65 -238 195l67 35c2 -42 7 -60 16 -79c20 -44 73 -93 180 -93c130 0 195 70 195 150c0 78 -50 115 -150 141l-81 21
c-80 21 -191 58 -191 188c0 98 72 183 233 183c97 0 198 -33 243 -155z" />
    <glyph glyph-name="uniF6C2" unicode="&#xf6c2;" horiz-adv-x="458" 
d="M34 116l58 20c8 -33 44 -94 133 -94c92 0 122 51 122 93c0 41 -24 69 -103 86l-56 12c-74 16 -124 49 -124 119c0 17 3 63 41 97c33 30 88 40 130 40c14 0 73 0 117 -31c37 -26 48 -61 52 -77l-56 -15c-11 55 -68 71 -116 71c-97 0 -110 -51 -110 -80
c0 -56 59 -69 100 -77l50 -10c84 -17 132 -65 132 -139c0 -54 -43 -140 -172 -143l-18 -35c4 1 16 3 29 3c39 0 69 -24 69 -64c0 -56 -53 -82 -102 -82c-12 0 -25 1 -37 3v27c11 -1 22 -2 32 -2c40 0 56 20 56 40c0 16 -14 37 -50 37c-9 0 -20 -1 -38 -10v25l34 59
c-47 3 -129 21 -173 127z" />
    <glyph glyph-name="amacron.sc" horiz-adv-x="507" 
d="M489 0h-63l-63 149h-222l-63 -149h-60l217 503h42zM343 197l-89 222l-94 -222h183zM392 582h-273v62h273v-62z" />
    <glyph glyph-name="abreve.sc" horiz-adv-x="507" 
d="M489 0h-63l-63 149h-222l-63 -149h-60l217 503h42zM343 197l-89 222l-94 -222h183zM354 684h44c-13 -70 -71 -120 -147 -120c-66 0 -129 45 -134 120h44c15 -62 79 -64 91 -64c32 0 93 13 102 64z" />
    <glyph glyph-name="aogonek.sc" horiz-adv-x="507" 
d="M489 0h-10c-20 -4 -65 -43 -65 -77c0 -37 42 -40 62 -40h12v-46c-9 -1 -16 -1 -25 -1c-65 0 -106 24 -106 67c0 38 36 72 69 97l-63 149h-222l-63 -149h-60l217 503h42zM343 197l-89 222l-94 -222h183z" />
    <glyph glyph-name="cacute.sc" horiz-adv-x="529" 
d="M495 389l-57 -26c-25 74 -72 107 -151 107c-114 0 -177 -79 -177 -222c0 -132 67 -213 179 -213c74 0 126 35 152 101l52 -29c-44 -85 -109 -123 -207 -123c-148 0 -242 101 -242 261c0 171 92 274 245 274c103 0 166 -39 206 -130zM434 698l-170 -140h-53l112 140h111z
" />
    <glyph glyph-name="ccircumflex.sc" horiz-adv-x="529" 
d="M495 389l-57 -26c-25 74 -72 107 -151 107c-114 0 -177 -79 -177 -222c0 -132 67 -213 179 -213c74 0 126 35 152 101l52 -29c-44 -85 -109 -123 -207 -123c-148 0 -242 101 -242 261c0 171 92 274 245 274c103 0 166 -39 206 -130zM434 558h-51l-98 65l-89 -65h-51
l128 138h26z" />
    <glyph glyph-name="cdotaccent.sc" horiz-adv-x="529" 
d="M495 389l-57 -26c-25 74 -72 107 -151 107c-114 0 -177 -79 -177 -222c0 -132 67 -213 179 -213c74 0 126 35 152 101l52 -29c-44 -85 -109 -123 -207 -123c-148 0 -242 101 -242 261c0 171 92 274 245 274c103 0 166 -39 206 -130zM311 582h-61v92h61v-92z" />
    <glyph glyph-name="ccaron.sc" horiz-adv-x="529" 
d="M495 389l-57 -26c-25 74 -72 107 -151 107c-114 0 -177 -79 -177 -222c0 -132 67 -213 179 -213c74 0 126 35 152 101l52 -29c-44 -85 -109 -123 -207 -123c-148 0 -242 101 -242 261c0 171 92 274 245 274c103 0 166 -39 206 -130zM422 696l-127 -138h-27l-135 138h51
l98 -65l90 65h50z" />
    <glyph glyph-name="dcaron.sc" horiz-adv-x="548" 
d="M70 503h195c106 0 239 -44 239 -249c0 -199 -129 -254 -252 -254h-182v503zM130 453v-403h101c114 0 210 35 210 204c0 122 -67 199 -168 199h-143zM386 700l-127 -138h-27l-135 138h51l98 -65l90 65h50z" />
    <glyph glyph-name="dcroat.sc" horiz-adv-x="548" 
d="M70 503h195c106 0 239 -43 239 -249c0 -202 -129 -254 -252 -254h-182v235h-69v50h69v218zM130 453v-168h179v-50h-179v-185h101c114 0 210 35 210 204c0 122 -65 199 -168 199h-143z" />
    <glyph glyph-name="emacron.sc" horiz-adv-x="487" 
d="M452 0h-382v503h361v-53h-302v-163h273v-52h-273v-182h323v-53zM390 582h-273v62h273v-62z" />
    <glyph glyph-name="ebreve.sc" horiz-adv-x="487" 
d="M452 0h-382v503h361v-53h-302v-163h273v-52h-273v-182h323v-53zM349 684h44c-13 -70 -71 -120 -147 -120c-66 0 -129 45 -134 120h44c15 -62 79 -64 91 -64c32 0 93 13 102 64z" />
    <glyph glyph-name="edotaccent.sc" horiz-adv-x="487" 
d="M452 0h-382v503h361v-53h-302v-163h273v-52h-273v-182h323v-53zM284 582h-61v92h61v-92z" />
    <glyph glyph-name="eogonek.sc" horiz-adv-x="487" 
d="M452 0h-32c-21 -4 -66 -43 -66 -77c0 -37 42 -40 62 -40h12v-46c-9 -1 -16 -1 -25 -1c-65 0 -106 24 -106 67c0 37 36 71 68 97h-295v503h361v-53h-302v-163h273v-52h-273v-182h323v-53z" />
    <glyph glyph-name="ecaron.sc" horiz-adv-x="487" 
d="M452 0h-382v503h361v-53h-302v-163h273v-52h-273v-182h323v-53zM398 696l-127 -138h-27l-135 138h51l98 -65l90 65h50z" />
    <glyph glyph-name="gcircumflex.sc" horiz-adv-x="557" 
d="M495 393l-56 -25c-26 72 -71 103 -150 103c-113 0 -180 -82 -180 -220s64 -218 173 -218c92 0 156 54 156 181h-196v52h247v-266h-51v76c-25 -59 -84 -92 -164 -92c-138 0 -230 104 -230 262c0 167 97 273 249 273c101 0 164 -39 202 -126zM438 558h-51l-98 65l-89 -65
h-51l128 138h26z" />
    <glyph glyph-name="gbreve.sc" horiz-adv-x="557" 
d="M495 393l-56 -25c-26 72 -71 103 -150 103c-113 0 -180 -82 -180 -220s64 -218 173 -218c92 0 156 54 156 181h-196v52h247v-266h-51v76c-25 -59 -84 -92 -164 -92c-138 0 -230 104 -230 262c0 167 97 273 249 273c101 0 164 -39 202 -126zM383 684h44
c-13 -70 -71 -120 -147 -120c-66 0 -129 45 -134 120h44c15 -62 79 -64 91 -64c32 0 93 13 102 64z" />
    <glyph glyph-name="gdotaccent.sc" horiz-adv-x="557" 
d="M495 393l-56 -25c-26 72 -71 103 -150 103c-113 0 -180 -82 -180 -220s64 -218 173 -218c92 0 156 54 156 181h-196v52h247v-266h-51v76c-25 -59 -84 -92 -164 -92c-138 0 -230 104 -230 262c0 167 97 273 249 273c101 0 164 -39 202 -126zM316 582h-61v92h61v-92z" />
    <glyph glyph-name="gcommaaccent.sc" horiz-adv-x="557" 
d="M495 393l-56 -25c-26 72 -71 103 -150 103c-113 0 -180 -82 -180 -220s64 -218 173 -218c92 0 156 54 156 181h-196v52h247v-266h-51v76c-25 -59 -84 -92 -164 -92c-138 0 -230 104 -230 262c0 167 97 273 249 273c101 0 164 -39 202 -126zM256 -41h63v-49
c0 -56 -3 -76 -32 -119l-28 14c21 29 25 46 25 81h-28v73z" />
    <glyph glyph-name="hbar.sc" horiz-adv-x="579" 
d="M508 0h-59v233h-319v-233h-60v363h-50v52h50v88h60v-88h319v88h59v-88h51v-52h-51v-363zM130 285h319v78h-319v-78z" />
    <glyph glyph-name="hcircumflex.sc" horiz-adv-x="579" 
d="M508 0h-59v233h-319v-233h-60v503h60v-218h319v218h59v-503zM435 558h-51l-98 65l-89 -65h-51l128 138h26z" />
    <glyph glyph-name="itilde.sc" horiz-adv-x="200" 
d="M130 0h-60v503h60v-503zM206 675l41 -10c-20 -66 -42 -90 -87 -90c-19 0 -41 8 -85 32c-20 11 -30 16 -40 16c-19 0 -30 -17 -41 -44l-41 11c20 58 48 88 86 88c17 0 36 -4 75 -28c27 -17 41 -18 47 -18c28 0 38 26 45 43z" />
    <glyph glyph-name="imacron.sc" horiz-adv-x="200" 
d="M130 0h-60v503h60v-503zM189 582h-178v62h178v-62z" />
    <glyph glyph-name="ibreve.sc" horiz-adv-x="200" 
d="M130 0h-60v503h60v-503zM197 684h44c-13 -70 -71 -120 -147 -120c-66 0 -129 45 -134 120h44c15 -62 79 -64 91 -64c32 0 93 13 102 64z" />
    <glyph glyph-name="iogonek.sc" horiz-adv-x="200" 
d="M70 0v503h60v-503c-17 -11 -58 -43 -58 -77c0 -37 42 -40 62 -40h12v-46c-9 -1 -16 -1 -25 -1c-65 0 -106 24 -106 67c0 37 35 71 67 97h-12z" />
    <glyph glyph-name="idotaccent.sc" horiz-adv-x="200" 
d="M130 0h-60v503h60v-503zM131 582h-61v92h61v-92z" />
    <glyph glyph-name="ij.sc" horiz-adv-x="613" 
d="M130 0h-60v503h60v-503zM487 503h59v-331c0 -41 -2 -89 -22 -120c-31 -50 -88 -63 -144 -63c-110 0 -168 50 -168 162l62 14c-1 -8 -1 -16 -1 -24c0 -69 39 -105 107 -105c74 0 107 37 107 110v357z" />
    <glyph glyph-name="jcircumflex.sc" horiz-adv-x="413" 
d="M287 503h59v-331c0 -41 -2 -89 -22 -120c-31 -50 -88 -63 -144 -63c-110 0 -168 50 -168 162l62 14c-1 -8 -1 -16 -1 -24c0 -69 39 -105 107 -105c74 0 107 37 107 110v357zM462 558h-51l-98 65l-89 -65h-51l128 138h26z" />
    <glyph glyph-name="kcommaaccent.sc" horiz-adv-x="517" 
d="M496 0h-74l-195 255l-97 -95v-160h-60v503h60v-275l274 275h79l-215 -209zM237 -41h63v-49c0 -56 -3 -76 -32 -119l-28 14c21 29 25 46 25 81h-28v73z" />
    <glyph glyph-name="lacute.sc" horiz-adv-x="448" 
d="M423 0h-358v503h59v-450h299v-53zM281 698l-170 -140h-53l112 140h111z" />
    <glyph glyph-name="lcommaaccent.sc" horiz-adv-x="448" 
d="M423 0h-358v503h59v-450h299v-53zM213 -41h63v-49c0 -56 -3 -76 -32 -119l-28 14c21 29 25 46 25 81h-28v73z" />
    <glyph glyph-name="lcaron.sc" horiz-adv-x="448" 
d="M423 0h-358v503h59v-450h299v-53zM173 535h62v-57c0 -69 -5 -91 -37 -141l-25 16c22 33 28 57 28 94v4h-28v84z" />
    <glyph glyph-name="ldot.sc" horiz-adv-x="448" 
d="M423 0h-358v503h59v-450h299v-53zM335 247h-69v92h69v-92z" />
    <glyph glyph-name="nacute.sc" horiz-adv-x="563" 
d="M493 0h-57l-311 441s3 -419 3 -441h-58v503h76l296 -420s-5 402 -5 420h56v-503zM450 698l-170 -140h-53l112 140h111z" />
    <glyph glyph-name="ncommaaccent.sc" horiz-adv-x="563" 
d="M493 0h-57l-311 441s3 -419 3 -441h-58v503h76l296 -420s-5 402 -5 420h56v-503zM251 -41h63v-49c0 -56 -3 -76 -32 -119l-28 14c21 29 25 46 25 81h-28v73z" />
    <glyph glyph-name="ncaron.sc" horiz-adv-x="563" 
d="M493 0h-57l-311 441s3 -419 3 -441h-58v503h76l296 -420s-5 402 -5 420h56v-503zM424 696l-127 -138h-27l-135 138h51l98 -65l90 65h50z" />
    <glyph glyph-name="eng.sc" horiz-adv-x="563" 
d="M70 503h76l296 -420s-5 402 -5 420h56v-503c0 -57 -2 -97 -14 -121c-10 -20 -32 -44 -79 -44c-21 0 -40 3 -50 7v52c17 -7 29 -10 43 -10c40 0 41 37 41 96v24l-309 437s3 -419 3 -441h-58v503z" />
    <glyph glyph-name="omacron.sc" horiz-adv-x="576" 
d="M532 261c0 -167 -96 -276 -245 -276c-146 0 -243 107 -243 266c0 162 98 267 247 267c147 0 241 -101 241 -257zM467 251c0 132 -71 219 -178 219c-110 0 -180 -84 -180 -216c0 -136 68 -220 177 -220c111 0 181 83 181 217zM424 582h-273v62h273v-62z" />
    <glyph glyph-name="obreve.sc" horiz-adv-x="576" 
d="M532 261c0 -167 -96 -276 -245 -276c-146 0 -243 107 -243 266c0 162 98 267 247 267c147 0 241 -101 241 -257zM467 251c0 132 -71 219 -178 219c-110 0 -180 -84 -180 -216c0 -136 68 -220 177 -220c111 0 181 83 181 217zM391 684h44c-13 -70 -71 -120 -147 -120
c-66 0 -129 45 -134 120h44c15 -62 79 -64 91 -64c32 0 93 13 102 64z" />
    <glyph glyph-name="ohungarumlaut.sc" horiz-adv-x="576" 
d="M532 261c0 -167 -96 -276 -245 -276c-146 0 -243 107 -243 266c0 162 98 267 247 267c147 0 241 -101 241 -257zM467 251c0 132 -71 219 -178 219c-110 0 -180 -84 -180 -216c0 -136 68 -220 177 -220c111 0 181 83 181 217zM382 698l-164 -140h-46l108 140h102zM529 698
l-164 -140h-46l108 140h102z" />
    <glyph glyph-name="racute.sc" horiz-adv-x="509" 
d="M481 0h-76l-150 211h-125v-211h-60v503h231c112 0 171 -56 171 -144c0 -84 -53 -133 -152 -144zM130 453v-192h131c74 0 147 13 147 99c0 75 -66 93 -117 93h-161zM403 698l-170 -140h-53l112 140h111z" />
    <glyph glyph-name="rcommaaccent.sc" horiz-adv-x="509" 
d="M481 0h-76l-150 211h-125v-211h-60v503h231c112 0 171 -56 171 -144c0 -84 -53 -133 -152 -144zM130 453v-192h131c74 0 147 13 147 99c0 75 -66 93 -117 93h-161zM227 -41h63v-49c0 -56 -3 -76 -32 -119l-28 14c21 29 25 46 25 81h-28v73z" />
    <glyph glyph-name="rcaron.sc" horiz-adv-x="509" 
d="M481 0h-76l-150 211h-125v-211h-60v503h231c112 0 171 -56 171 -144c0 -84 -53 -133 -152 -144zM130 453v-192h131c74 0 147 13 147 99c0 75 -66 93 -117 93h-161zM378 696l-127 -138h-27l-135 138h51l98 -65l90 65h50z" />
    <glyph glyph-name="sacute.sc" horiz-adv-x="463" 
d="M419 406l-52 -32c-18 62 -66 94 -139 94c-72 0 -114 -32 -114 -87c0 -41 26 -65 88 -82l103 -28c86 -23 123 -64 123 -132c0 -92 -78 -152 -199 -152c-112 0 -179 47 -200 140l55 25c9 -77 58 -117 145 -117s138 36 138 96c0 48 -28 74 -104 93l-88 22
c-80 20 -120 64 -120 131c0 85 68 139 178 139c94 0 152 -34 186 -110zM394 698l-170 -140h-53l112 140h111z" />
    <glyph glyph-name="scircumflex.sc" horiz-adv-x="463" 
d="M419 406l-52 -32c-18 62 -66 94 -139 94c-72 0 -114 -32 -114 -87c0 -41 26 -65 88 -82l103 -28c86 -23 123 -64 123 -132c0 -92 -78 -152 -199 -152c-112 0 -179 47 -200 140l55 25c9 -77 58 -117 145 -117s138 36 138 96c0 48 -28 74 -104 93l-88 22
c-80 20 -120 64 -120 131c0 85 68 139 178 139c94 0 152 -34 186 -110zM386 558h-51l-98 65l-89 -65h-51l128 138h26z" />
    <glyph glyph-name="scedilla.sc" horiz-adv-x="463" 
d="M419 406l-52 -32c-18 62 -66 94 -139 94c-72 0 -114 -32 -114 -87c0 -41 26 -65 88 -82l103 -28c86 -23 123 -64 123 -132c0 -92 -77 -151 -197 -152l-17 -34c4 1 16 3 29 3c39 0 69 -24 69 -64c0 -56 -53 -82 -102 -82c-12 0 -25 2 -37 3v27c11 -1 22 -2 32 -2
c40 0 56 20 56 40c0 16 -14 37 -50 37c-9 0 -20 -1 -38 -10v25l34 58c-99 6 -159 52 -178 139l55 25c9 -77 58 -117 145 -117s138 36 138 96c0 48 -28 74 -104 93l-88 22c-80 20 -120 64 -120 131c0 85 68 139 178 139c94 0 152 -34 186 -110z" />
    <glyph glyph-name="tcommaaccent.sc" horiz-adv-x="443" 
d="M427 453h-176v-453h-59v453h-177v50h412v-50zM191 -41h63v-49c0 -56 -3 -76 -32 -119l-28 14c21 29 25 46 25 81h-28v73z" />
    <glyph glyph-name="tcaron.sc" horiz-adv-x="443" 
d="M427 453h-176v-453h-59v453h-177v50h412v-50zM364 696l-127 -138h-27l-135 138h51l98 -65l90 65h50z" />
    <glyph glyph-name="tbar.sc" horiz-adv-x="443" 
d="M375 268h-124v-268h-59v268h-122v50h122v135h-177v50h412v-50h-176v-135h124v-50z" />
    <glyph glyph-name="utilde.sc" horiz-adv-x="553" 
d="M69 503h59v-310c0 -87 28 -157 152 -157c103 0 146 58 146 153v314h58v-313c0 -92 -32 -203 -209 -203c-197 0 -206 138 -206 190v326zM386 675l41 -10c-20 -66 -42 -90 -87 -90c-19 0 -41 8 -85 32c-20 11 -30 16 -40 16c-19 0 -30 -17 -41 -44l-41 11
c20 58 48 88 86 88c17 0 36 -4 75 -28c27 -17 41 -18 47 -18c28 0 38 26 45 43z" />
    <glyph glyph-name="umacron.sc" horiz-adv-x="553" 
d="M69 503h59v-310c0 -87 28 -157 152 -157c103 0 146 58 146 153v314h58v-313c0 -92 -32 -203 -209 -203c-197 0 -206 138 -206 190v326zM413 582h-273v62h273v-62z" />
    <glyph glyph-name="ubreve.sc" horiz-adv-x="553" 
d="M69 503h59v-310c0 -87 28 -157 152 -157c103 0 146 58 146 153v314h58v-313c0 -92 -32 -203 -209 -203c-197 0 -206 138 -206 190v326zM378 684h44c-13 -70 -71 -120 -147 -120c-66 0 -129 45 -134 120h44c15 -62 79 -64 91 -64c32 0 93 13 102 64z" />
    <glyph glyph-name="uring.sc" horiz-adv-x="553" 
d="M69 503h59v-310c0 -87 28 -157 152 -157c103 0 146 58 146 153v314h58v-313c0 -92 -32 -203 -209 -203c-197 0 -206 138 -206 190v326zM196 631c0 44 35 79 79 79s79 -35 79 -79s-35 -79 -79 -79s-79 35 -79 79zM232 631c0 -23 19 -42 42 -42s42 19 42 42s-19 42 -42 42
s-42 -19 -42 -42z" />
    <glyph glyph-name="uhungarumlaut.sc" horiz-adv-x="553" 
d="M69 503h59v-310c0 -87 28 -157 152 -157c103 0 146 58 146 153v314h58v-313c0 -92 -32 -203 -209 -203c-197 0 -206 138 -206 190v326zM354 698l-164 -140h-46l108 140h102zM501 698l-164 -140h-46l108 140h102z" />
    <glyph glyph-name="uogonek.sc" horiz-adv-x="553" 
d="M69 503h59v-310c0 -87 28 -157 152 -157c103 0 146 58 146 153v314h58v-313c0 -84 -23 -168 -141 -196c-43 -10 -68 -44 -68 -71c0 -37 42 -40 62 -40h12v-46c-9 -1 -16 -1 -25 -1c-65 0 -106 24 -106 67c0 31 25 60 52 84c-192 3 -201 138 -201 190v326z" />
    <glyph glyph-name="wacute.sc" horiz-adv-x="714" 
d="M699 503l-155 -503h-49l-130 398l-133 -398h-48l-168 503h62l135 -410l133 410h39l136 -410l118 410h60zM527 698l-170 -140h-53l112 140h111z" />
    <glyph glyph-name="wcircumflex.sc" horiz-adv-x="714" 
d="M699 503l-155 -503h-49l-130 398l-133 -398h-48l-168 503h62l135 -410l133 410h39l136 -410l118 410h60zM511 558h-51l-98 65l-89 -65h-51l128 138h26z" />
    <glyph glyph-name="wdieresis.sc" horiz-adv-x="714" 
d="M699 503l-155 -503h-49l-130 398l-133 -398h-48l-168 503h62l135 -410l133 410h39l136 -410l118 410h60zM482 582h-61v92h61v-92zM310 582h-61v92h61v-92z" />
    <glyph glyph-name="wgrave.sc" horiz-adv-x="714" 
d="M699 503l-155 -503h-49l-130 398l-133 -398h-48l-168 503h62l135 -410l133 410h39l136 -410l118 410h60zM425 558h-53l-172 140h112z" />
    <glyph glyph-name="ycircumflex.sc" horiz-adv-x="493" 
d="M482 503l-212 -292v-211h-59v211l-200 292h71l161 -243l170 243h69zM389 558h-51l-98 65l-89 -65h-51l128 138h26z" />
    <glyph glyph-name="ygrave.sc" horiz-adv-x="493" 
d="M482 503l-212 -292v-211h-59v211l-200 292h71l161 -243l170 243h69zM304 558h-53l-172 140h112z" />
    <glyph glyph-name="zacute.sc" horiz-adv-x="455" 
d="M432 470l-319 -417h314v-53h-404v31l319 419h-299v53h389v-33zM402 698l-170 -140h-53l112 140h111z" />
    <glyph glyph-name="zdotaccent.sc" horiz-adv-x="455" 
d="M432 470l-319 -417h314v-53h-404v31l319 419h-299v53h389v-33zM257 582h-61v92h61v-92z" />
    <glyph glyph-name="aringacute.sc" horiz-adv-x="507" 
d="M489 0h-63l-63 149h-222l-63 -149h-60l217 503h42zM343 197l-89 222l-94 -222h183zM397 845l-159 -133h-49l101 133h107zM186 605c0 40 33 70 72 70s71 -30 71 -70s-32 -71 -71 -71s-72 30 -72 71zM221 604c0 -20 16 -35 36 -35c19 0 35 15 35 35c0 21 -16 36 -35 36
c-20 0 -36 -15 -36 -36z" />
    <glyph glyph-name="aeacute.sc" horiz-adv-x="770" 
d="M735 0h-376v146h-192l-96 -146h-66l334 503h376v-53h-297v-164h267v-52h-267v-181h317v-53zM359 196v249l-160 -249h160zM667 698l-170 -140h-53l112 140h111z" />
    <glyph glyph-name="oslashacute.sc" horiz-adv-x="576" 
d="M470 535l35 -28l-42 -54c47 -53 69 -116 69 -193c0 -167 -96 -275 -245 -275c-59 0 -94 11 -145 45l-40 -52l-35 27l42 55c-43 50 -65 114 -65 191c0 161 98 267 247 267c54 0 101 -13 138 -38zM145 108l249 327c-27 23 -64 36 -107 36c-109 0 -180 -85 -180 -215
c0 -57 14 -111 38 -148zM426 402l-252 -329c29 -27 67 -40 114 -40c111 0 181 85 181 219c0 55 -16 110 -43 150zM448 698l-170 -140h-53l112 140h111z" />
    </font>
</defs>
</svg>
