<?xml version="1.0" standalone="no"?>
<!DOCTYPE svg PUBLIC "-//W3C//DTD SVG 1.1//EN" "http://www.w3.org/Graphics/SVG/1.1/DTD/svg11.dtd" >
<svg xmlns="http://www.w3.org/2000/svg" xmlns:xlink="http://www.w3.org/1999/xlink" version="1.1">
<metadata>
Created by FontForge 20150715 at Mon Oct 19 11:20:19 2015
 By Jimmy Wärting
Berthold first published Akzidenz-Grotesk in 1896. The design originates from Royal Grotesk light by Ferdinand Theinhardt who also supplied the regular, medium and bold weights. Throughout the years, Berthold has expanded this extremely popular and versatile family. AG Super was developed in 1968 by Guenter Gerhard Lange and is an excellent choice for headlines. In 2001, Guenter Gerhard Lange added more weights for Berthold including Super Italic and Extra Bold italic.
</metadata>
<defs>
<font id="AkzidenzGroteskPro-Super" horiz-adv-x="646" >
  <font-face 
    font-family="Akzidenz-Grotesk Pro Super"
    font-weight="900"
    font-stretch="normal"
    units-per-em="1000"
    panose-1="2 0 5 3 5 0 0 2 0 4"
    ascent="750"
    descent="-250"
    x-height="518"
    cap-height="706"
    bbox="-284 -293 1414 998"
    underline-thickness="50"
    underline-position="-100"
    stemh="155"
    stemv="207"
    unicode-range="U+0020-FB02"
  />
<missing-glyph horiz-adv-x="500" 
d="M0 0v706h500v-706h-500zM250 401l170 255h-340zM280 353l170 -258v516zM80 50h340l-170 258zM50 611v-516l170 258z" />
    <glyph glyph-name="fi" unicode="fi" horiz-adv-x="667" 
d="M623 569h-206v137h206v-137zM623 0h-206v518h206v-518zM375 394h-93v-394h-206v394h-77v112h77v54c0 63 19 158 191 158c51 0 89 -8 108 -14v-140c-19 7 -26 7 -38 7c-52 0 -55 -35 -55 -57v-8h93v-112z" />
    <glyph glyph-name="fl" unicode="fl" horiz-adv-x="667" 
d="M623 0h-207v706h207v-706zM375 394h-93v-394h-206v394h-77v112h77v54c0 63 19 158 191 158c51 0 89 -8 108 -14v-140c-19 7 -26 7 -38 7c-52 0 -55 -35 -55 -57v-8h93v-112z" />
    <glyph glyph-name=".notdef" horiz-adv-x="500" 
d="M0 0v706h500v-706h-500zM250 401l170 255h-340zM280 353l170 -258v516zM80 50h340l-170 258zM50 611v-516l170 258z" />
    <glyph glyph-name="space" unicode=" " horiz-adv-x="313" 
 />
    <glyph glyph-name="exclam" unicode="!" horiz-adv-x="292" 
d="M74 706h183v-191l-39 -257h-101l-43 259v189zM257 0h-183v188h183v-188z" />
    <glyph glyph-name="quotedbl" unicode="&#x22;" horiz-adv-x="306" 
d="M287 743l-34 -308h-40l-35 308h109zM129 743l-35 -308h-39l-36 308h110z" />
    <glyph glyph-name="numbersign" unicode="#" horiz-adv-x="668" 
d="M632 397h-109l-10 -80h96v-139h-116l-25 -178h-143l26 178h-82l-25 -178h-142l24 178h-92v139h112l11 80h-98v139h117l24 170h142l-24 -170h83l23 170h142l-23 -170h89v-139zM382 397h-83l-11 -80h82z" />
    <glyph glyph-name="dollar" unicode="$" horiz-adv-x="667" 
d="M606 618l-104 -122c-51 37 -68 44 -113 48v-112c85 -8 258 -55 258 -216c0 -172 -160 -224 -258 -229v-101h-96v101c-123 14 -175 26 -269 85l106 126c70 -47 107 -55 163 -62v132c-133 27 -258 61 -258 209c0 136 116 221 258 221v65h96v-68c108 -7 180 -53 217 -77z
M293 449v98c-14 0 -68 -13 -68 -52c0 -34 41 -41 68 -46zM389 253v-115c28 7 67 23 67 63c0 34 -24 40 -67 52z" />
    <glyph glyph-name="percent" unicode="%" horiz-adv-x="1000" 
d="M699 706l-302 -706h-91l301 706h92zM416 470c0 -126 -62 -236 -201 -236c-136 0 -195 104 -195 227c0 104 50 234 203 234c166 0 193 -148 193 -225zM277 468c0 86 -15 131 -56 131c-56 0 -62 -68 -62 -135c0 -103 17 -131 59 -131c36 0 59 30 59 135zM977 226
c0 -126 -62 -236 -201 -236c-136 0 -195 104 -195 227c0 104 50 234 203 234c166 0 193 -148 193 -225zM838 224c0 86 -15 131 -56 131c-56 0 -62 -68 -62 -135c0 -103 17 -131 59 -131c36 0 59 30 59 135z" />
    <glyph glyph-name="ampersand" unicode="&#x26;" horiz-adv-x="688" 
d="M675 137v-136c-27 -3 -55 -6 -83 -6c-50 0 -89 7 -125 42c-20 -13 -78 -52 -188 -52c-150 0 -262 94 -262 227c0 143 118 197 164 218c-16 22 -47 63 -47 130c0 103 87 153 192 153c186 0 205 -106 205 -155c0 -79 -54 -149 -139 -181c27 -34 56 -68 85 -100
c10 27 17 38 25 88l151 -56c-30 -91 -39 -113 -69 -159c11 -5 30 -16 60 -16c11 0 20 1 31 3zM319 487c24 13 61 33 61 66c0 18 -15 40 -49 40c-38 0 -45 -23 -45 -39c0 -19 9 -36 33 -67zM372 149c-38 47 -77 99 -116 150c-22 -18 -51 -41 -51 -83c0 -59 44 -89 90 -89
c33 0 66 15 77 22z" />
    <glyph glyph-name="quotesingle" unicode="'" horiz-adv-x="148" 
d="M129 743l-35 -308h-39l-36 308h110z" />
    <glyph glyph-name="parenleft" unicode="(" horiz-adv-x="344" 
d="M355 -85l-64 -81c-60 50 -109 92 -141 129c-81 94 -123 213 -123 345c0 134 43 259 126 363c36 45 80 89 133 132l69 -70l-13 -16c-57 -71 -82 -112 -105 -174c-26 -68 -38 -141 -38 -224c0 -81 12 -154 35 -219c27 -76 62 -130 121 -185z" />
    <glyph glyph-name="parenright" unicode=")" horiz-adv-x="344" 
d="M-11 719l64 81c68 -55 107 -89 141 -130c81 -95 123 -212 123 -344c0 -88 -20 -180 -57 -256c-38 -78 -93 -144 -187 -226l-15 -13l-69 69l13 16c58 71 81 112 105 175c25 67 38 141 38 224c0 174 -51 306 -156 404z" />
    <glyph glyph-name="asterisk" unicode="*" horiz-adv-x="437" 
d="M423 516l-100 -34l61 -78l-97 -77l-68 86l-64 -87l-101 74l59 80l-100 29l35 119l104 -30v107h125v-107l106 36z" />
    <glyph glyph-name="plus" unicode="+" horiz-adv-x="724" 
d="M633 258h-171v-194h-200v194h-171v153h171v189h200v-189h171v-153z" />
    <glyph glyph-name="comma" unicode="," horiz-adv-x="250" 
d="M34 188h182v-151c0 -110 -30 -190 -182 -214v88c47 16 61 39 62 89h-62v188z" />
    <glyph glyph-name="hyphen" unicode="-" horiz-adv-x="373" 
d="M344 230h-315v171h315v-171z" />
    <glyph glyph-name="period" unicode="." horiz-adv-x="250" 
d="M216 0h-182v188h182v-188z" />
    <glyph glyph-name="slash" unicode="/" horiz-adv-x="500" 
d="M497 706l-301 -706h-195l303 706h193z" />
    <glyph glyph-name="zero" unicode="0" 
d="M623 351c0 -137 -60 -369 -309 -369c-196 0 -294 154 -294 351c0 172 80 367 304 367c171 0 299 -114 299 -349zM420 335c0 136 -19 229 -96 229c-97 0 -100 -146 -100 -244c0 -69 2 -197 97 -197c84 0 99 107 99 212z" />
    <glyph glyph-name="one" unicode="1" 
d="M463 0h-206v456c-33 -12 -61 -17 -147 -17v155h26c54 0 131 17 149 93h178v-687z" />
    <glyph glyph-name="two" unicode="2" 
d="M597 160v-160h-570v130c55 36 110 73 163 112c46 33 91 67 133 105c38 35 75 71 75 126c0 43 -22 80 -82 80c-40 0 -88 -17 -88 -102c0 -22 1 -30 7 -50l-203 24v16c0 193 127 256 301 256c206 0 273 -104 273 -221c0 -39 -6 -99 -69 -167c-44 -48 -99 -83 -215 -149h275
z" />
    <glyph glyph-name="three" unicode="3" 
d="M246 281v136c19 -2 26 -3 46 -3c33 0 112 5 112 75c0 32 -20 72 -93 72c-85 0 -93 -75 -96 -102l-189 11c18 164 127 229 298 229c170 0 275 -74 275 -193c0 -72 -36 -124 -110 -150c60 -17 132 -48 132 -153c0 -140 -110 -217 -311 -217c-156 0 -278 45 -307 220l191 36
c5 -63 32 -115 112 -115c73 0 106 32 106 87c0 58 -57 72 -112 72c-28 0 -39 -1 -54 -5z" />
    <glyph glyph-name="four" unicode="4" 
d="M623 143h-88v-143h-196v143h-320v137l312 408h204v-409h88v-136zM340 279v211l-157 -211h157z" />
    <glyph glyph-name="five" unicode="5" 
d="M600 683l-14 -143h-350l-9 -96c49 27 117 30 133 30c141 0 261 -90 261 -231c0 -143 -103 -260 -304 -260c-174 0 -276 66 -301 225l204 20v-8c0 -59 24 -99 91 -99c63 0 102 43 102 107c0 67 -42 106 -105 106c-13 0 -60 0 -84 -44l-172 21l39 372h509z" />
    <glyph glyph-name="six" unicode="6" 
d="M610 523l-195 -30c-10 67 -61 73 -80 73c-86 0 -127 -80 -127 -182c8 10 58 71 178 71c134 0 241 -92 241 -228c0 -155 -134 -244 -294 -244c-196 0 -315 114 -315 342c0 196 90 375 328 375c162 0 227 -64 264 -177zM430 222c0 69 -49 104 -100 104
c-68 0 -104 -55 -104 -105c0 -60 43 -105 102 -105c78 0 102 61 102 106z" />
    <glyph glyph-name="seven" unicode="7" 
d="M43 533v156h551v-132c-134 -123 -231 -333 -259 -557h-215c45 220 154 409 254 533h-331z" />
    <glyph glyph-name="eight" unicode="8" 
d="M137 362c-59 35 -84 80 -84 141c0 123 108 195 277 195c106 0 267 -35 267 -193c0 -60 -19 -99 -79 -142c78 -36 108 -91 108 -163c0 -146 -133 -215 -309 -215c-163 0 -299 71 -299 210c0 97 65 148 119 167zM411 496c0 38 -28 70 -91 70c-55 0 -86 -29 -86 -70
c0 -28 22 -72 90 -72c69 0 87 44 87 72zM426 205c0 35 -26 85 -105 85c-53 0 -102 -31 -102 -89c0 -32 19 -86 102 -86c85 0 105 55 105 90z" />
    <glyph glyph-name="nine" unicode="9" 
d="M34 161l195 29c10 -67 62 -73 80 -73c81 0 127 78 127 169v14c-18 -29 -82 -72 -174 -72c-156 0 -245 107 -245 228c0 135 108 244 294 244c212 0 315 -130 315 -342c0 -199 -95 -375 -333 -375c-127 0 -229 51 -259 178zM417 463c0 63 -41 104 -101 104
c-73 0 -102 -58 -102 -105c0 -64 43 -104 99 -104c61 0 104 40 104 105z" />
    <glyph glyph-name="colon" unicode=":" horiz-adv-x="292" 
d="M256 330h-182v188h182v-188zM256 0h-182v188h182v-188z" />
    <glyph glyph-name="semicolon" unicode=";" horiz-adv-x="292" 
d="M256 330h-182v188h182v-188zM74 188h182v-151c0 -110 -30 -190 -182 -214v88c47 16 61 39 62 89h-62v188z" />
    <glyph glyph-name="less" unicode="&#x3c;" horiz-adv-x="724" 
d="M577 36l-465 222v179l465 216v-184l-284 -115l284 -124v-194z" />
    <glyph glyph-name="equal" unicode="=" horiz-adv-x="724" 
d="M625 353h-525v155h525v-155zM625 124h-525v154h525v-154z" />
    <glyph glyph-name="greater" unicode="&#x3e;" horiz-adv-x="724" 
d="M605 252l-464 -216v184l284 115l-284 124v194l464 -222v-179z" />
    <glyph glyph-name="question" unicode="?" horiz-adv-x="604" 
d="M376 258h-173c4 56 15 95 105 159c30 21 83 57 83 102c0 23 -16 64 -75 64c-80 0 -93 -62 -100 -111l-170 57c26 99 102 189 283 189c143 0 265 -61 265 -192c0 -23 -5 -74 -45 -115c-57 -59 -162 -90 -173 -153zM380 0h-183v188h183v-188z" />
    <glyph glyph-name="at" unicode="@" horiz-adv-x="850" 
d="M753 110l57 -71c-56 -49 -80 -67 -126 -94c-82 -47 -163 -69 -254 -69c-85 0 -159 19 -227 58c-114 65 -172 170 -172 312c0 260 208 467 470 467c189 0 310 -116 310 -296c0 -190 -114 -351 -247 -351c-47 0 -82 26 -91 68c-37 -45 -77 -67 -124 -67
c-87 0 -146 69 -146 170c0 152 105 286 223 286c48 0 76 -17 107 -60l10 40h104l-42 -196c-10 -48 -17 -91 -17 -110c0 -16 6 -25 17 -25c45 0 105 141 105 234c0 141 -91 216 -227 216c-191 0 -348 -167 -348 -370c0 -172 118 -282 300 -282c110 0 216 46 318 140zM322 246
c0 -48 23 -78 60 -78c60 0 116 91 116 174c0 50 -26 80 -64 80c-58 0 -112 -84 -112 -176z" />
    <glyph glyph-name="A" unicode="A" horiz-adv-x="792" 
d="M787 0h-240l-31 98h-246l-31 -98h-240l270 706h254zM470 256l-75 249l-77 -249h152z" />
    <glyph glyph-name="B" unicode="B" horiz-adv-x="729" 
d="M44 706h417c106 0 228 -39 228 -179c0 -70 -37 -132 -110 -162c88 -19 130 -85 130 -163c0 -96 -46 -202 -228 -202h-437v706zM267 557v-120h123c36 0 73 9 73 60c0 42 -31 60 -65 60h-131zM266 289v-137h142c43 0 74 26 74 68c0 49 -38 69 -79 69h-137z" />
    <glyph glyph-name="C" unicode="C" horiz-adv-x="750" 
d="M546 274l191 -92c-41 -77 -127 -204 -344 -204c-261 0 -366 203 -366 371c0 223 155 383 367 383c190 0 298 -112 342 -197l-187 -93c-18 34 -46 117 -145 117c-106 0 -150 -94 -150 -191c0 -165 76 -210 149 -210c93 0 124 68 143 116z" />
    <glyph glyph-name="D" unicode="D" horiz-adv-x="750" 
d="M44 0v706h307c203 0 373 -67 373 -349c0 -235 -116 -357 -327 -357h-353zM268 162h88c129 0 144 130 144 191c0 67 -17 188 -138 188h-94v-379z" />
    <glyph glyph-name="E" unicode="E" 
d="M633 0h-589v706h559v-155h-335v-105h313v-153h-314v-140h366v-153z" />
    <glyph glyph-name="F" unicode="F" horiz-adv-x="625" 
d="M602 551h-336v-127h314v-153h-314v-271h-222v706h558v-155z" />
    <glyph glyph-name="G" unicode="G" horiz-adv-x="792" 
d="M757 517l-199 -56c-12 73 -69 105 -137 105c-128 0 -167 -104 -167 -202c0 -160 81 -214 173 -214c57 0 126 27 133 99h-131v142h324v-391h-167v49c-43 -32 -115 -68 -212 -68c-147 0 -347 108 -347 367c0 208 134 387 376 387c142 0 313 -69 354 -218z" />
    <glyph glyph-name="H" unicode="H" horiz-adv-x="750" 
d="M705 0h-225v272h-213v-272h-223v706h223v-257h213v257h225v-706z" />
    <glyph glyph-name="I" unicode="I" horiz-adv-x="313" 
d="M268 0h-224v706h224v-706z" />
    <glyph glyph-name="J" unicode="J" horiz-adv-x="417" 
d="M148 706h223v-510c0 -167 -82 -196 -222 -196h-149v174c16 -3 27 -6 57 -6c72 0 91 25 91 81v457z" />
    <glyph glyph-name="K" unicode="K" horiz-adv-x="771" 
d="M779 0h-251l-156 282l-105 -115v-167h-223v706h223v-267l222 267h272l-245 -268z" />
    <glyph glyph-name="L" unicode="L" horiz-adv-x="542" 
d="M540 0h-496v706h223v-528h273v-178z" />
    <glyph glyph-name="M" unicode="M" horiz-adv-x="958" 
d="M911 0h-213v502l-139 -502h-166l-138 502v-502h-212v706h320l115 -439l113 439h320v-706z" />
    <glyph glyph-name="N" unicode="N" horiz-adv-x="771" 
d="M726 0h-241l-233 405v-405h-208v706h237l236 -400v400h209v-706z" />
    <glyph glyph-name="O" unicode="O" horiz-adv-x="812" 
d="M784 359c0 -190 -119 -382 -382 -382c-226 0 -376 143 -376 376c0 186 111 379 380 379c257 0 378 -180 378 -373zM250 351c0 -124 55 -195 156 -195c73 0 153 49 153 209c0 141 -77 189 -153 189c-93 0 -156 -71 -156 -203z" />
    <glyph glyph-name="P" unicode="P" horiz-adv-x="708" 
d="M44 706h424c161 0 240 -94 240 -230c0 -140 -83 -246 -244 -246h-196v-230h-224v706zM268 558v-180h127c53 0 91 32 91 91c0 43 -23 89 -92 89h-126z" />
    <glyph glyph-name="Q" unicode="Q" horiz-adv-x="812" 
d="M822 72l-68 -154c-40 6 -105 16 -175 94c-47 -24 -126 -36 -181 -36c-225 0 -371 151 -371 378c0 220 140 379 384 379c304 0 373 -247 373 -371c0 -32 -9 -156 -74 -242c54 -36 77 -45 112 -48zM557 361c0 120 -53 193 -152 193c-77 0 -152 -51 -152 -204
c0 -126 55 -194 150 -194c101 0 154 83 154 205z" />
    <glyph glyph-name="R" unicode="R" horiz-adv-x="708" 
d="M44 706h397c119 0 251 -47 251 -226c0 -92 -40 -155 -145 -195l173 -285h-250l-137 249h-65v-249h-224v706zM268 394h93c47 0 108 7 108 82c0 78 -65 82 -110 82h-91v-164z" />
    <glyph glyph-name="S" unicode="S" horiz-adv-x="729" 
d="M696 604l-141 -117c-38 57 -125 72 -185 72c-18 0 -80 -3 -80 -46c0 -34 34 -44 124 -59c119 -20 286 -51 286 -218c0 -182 -159 -257 -327 -257c-150 0 -283 41 -366 155l171 110c34 -70 127 -93 197 -93c67 0 106 19 106 54c0 41 -45 49 -172 71
c-148 26 -243 88 -243 213c0 189 179 240 309 240c126 0 248 -38 321 -125z" />
    <glyph glyph-name="T" unicode="T" horiz-adv-x="583" 
d="M581 532h-179v-532h-223v532h-180v174h582v-174z" />
    <glyph glyph-name="U" unicode="U" horiz-adv-x="729" 
d="M42 706h224v-447c0 -70 35 -105 97 -105c64 0 98 37 98 111v441h225v-423c0 -203 -144 -302 -325 -302c-169 0 -319 77 -319 282v443z" />
    <glyph glyph-name="V" unicode="V" horiz-adv-x="708" 
d="M708 706l-239 -706h-233l-236 706h228l126 -433l125 433h229z" />
    <glyph glyph-name="W" unicode="W" horiz-adv-x="1042" 
d="M1040 706l-176 -706h-239l-107 440l-104 -440h-240l-176 706h218l100 -461l108 461h189l113 -461l97 461h217z" />
    <glyph glyph-name="X" unicode="X" horiz-adv-x="833" 
d="M833 0h-263l-154 254l-156 -254h-262l273 379l-229 327h262l112 -194l114 194h255l-223 -326z" />
    <glyph glyph-name="Y" unicode="Y" horiz-adv-x="792" 
d="M788 706l-284 -409v-297h-224v297l-283 409h258l139 -235l136 235h258z" />
    <glyph glyph-name="Z" unicode="Z" horiz-adv-x="667" 
d="M654 562l-356 -390h355v-172h-651v141l362 396h-341v169h631v-144z" />
    <glyph glyph-name="bracketleft" unicode="[" horiz-adv-x="299" 
d="M284 -144h-240v923h240v-95h-84v-733h84v-95z" />
    <glyph glyph-name="backslash" unicode="\" horiz-adv-x="500" 
d="M497 0h-193l-303 706h195z" />
    <glyph glyph-name="bracketright" unicode="]" horiz-adv-x="299" 
d="M255 -144h-241v95h85v733h-85v95h241v-923z" />
    <glyph glyph-name="asciicircum" unicode="^" horiz-adv-x="724" 
d="M669 279h-197l-102 255l-106 -255h-208l218 427h184z" />
    <glyph glyph-name="underscore" unicode="_" horiz-adv-x="500" 
d="M510 -240h-520v127h520v-127z" />
    <glyph glyph-name="grave" unicode="`" horiz-adv-x="313" 
d="M301 587h-127l-162 137h213z" />
    <glyph glyph-name="a" unicode="a" horiz-adv-x="604" 
d="M580 0h-203v40c-46 -30 -81 -52 -172 -52c-105 0 -186 60 -186 167c0 28 6 90 71 134c72 49 188 36 277 67c-2 37 -11 59 -70 59c-48 0 -62 -16 -67 -48c0 0 -167 -4 -194 -5c15 68 38 173 280 173c122 0 246 -27 246 -178v-293c0 -38 5 -46 18 -64zM366 222v19
c-44 -21 -156 -26 -156 -80c0 -16 13 -40 51 -40c51 0 105 42 105 101z" />
    <glyph glyph-name="b" unicode="b" horiz-adv-x="625" 
d="M42 706h205v-224c36 36 82 51 132 51c133 0 226 -100 226 -263c0 -31 -6 -283 -234 -283c-64 0 -109 23 -130 51v-38h-199v706zM402 260c0 58 -18 126 -79 126c-67 0 -81 -76 -81 -126c0 -65 18 -124 80 -124c38 0 80 29 80 124z" />
    <glyph glyph-name="c" unicode="c" horiz-adv-x="577" 
d="M403 225l158 -87c-28 -64 -102 -158 -267 -158c-167 0 -276 112 -276 282c0 172 110 279 289 279c158 0 222 -83 253 -135l-156 -88c-11 31 -29 78 -89 78c-75 0 -93 -89 -93 -141c0 -56 16 -118 90 -118c58 0 87 64 91 88z" />
    <glyph glyph-name="d" unicode="d" horiz-adv-x="625" 
d="M582 0h-200v37c-27 -38 -85 -50 -130 -50c-140 0 -233 105 -233 290c0 155 94 256 227 256c23 0 78 -2 131 -51v224h205v-706zM382 261c0 93 -38 125 -81 125c-44 0 -79 -34 -79 -126c0 -54 14 -124 81 -124c60 0 79 58 79 125z" />
    <glyph glyph-name="e" unicode="e" horiz-adv-x="604" 
d="M588 222h-361c0 -23 5 -97 85 -97c70 0 90 57 96 67l169 -71c-37 -61 -120 -142 -273 -142c-208 0 -287 154 -287 283c0 202 156 278 285 278c191 0 286 -131 286 -286v-32zM229 331h150c-4 53 -34 78 -73 78c-55 0 -77 -56 -77 -78z" />
    <glyph glyph-name="f" unicode="f" horiz-adv-x="375" 
d="M375 394h-93v-394h-206v394h-77v112h77v54c0 63 19 158 191 158c51 0 89 -8 108 -14v-140c-19 7 -26 7 -38 7c-52 0 -55 -35 -55 -57v-8h93v-112z" />
    <glyph glyph-name="g" unicode="g" horiz-adv-x="625" 
d="M20 -7h187v-8c0 -34 20 -59 81 -59c60 0 97 21 97 86v66c-26 -45 -87 -53 -138 -53c-171 0 -229 131 -229 249c0 139 68 258 244 258c75 0 114 -24 142 -63v49h178v-499c0 -168 -132 -214 -295 -214c-138 0 -267 21 -267 175v13zM380 277c0 43 -6 112 -76 112
c-50 0 -90 -28 -90 -120s41 -108 81 -108c75 0 85 66 85 116z" />
    <glyph glyph-name="h" unicode="h" 
d="M603 0h-206v296c0 50 -24 74 -74 74c-40 0 -76 -15 -76 -78v-292h-206v706h205v-240c16 21 60 74 165 74c84 0 192 -35 192 -191v-349z" />
    <glyph glyph-name="i" unicode="i" horiz-adv-x="292" 
d="M248 569h-206v137h206v-137zM248 0h-206v518h206v-518z" />
    <glyph glyph-name="j" unicode="j" horiz-adv-x="292" 
d="M249 569h-206v137h206v-137zM43 518h206v-550c0 -138 -82 -162 -238 -162h-45v151h17c50 0 60 27 60 56v505z" />
    <glyph glyph-name="k" unicode="k" 
d="M648 0h-235l-112 197l-54 -52v-145h-206v706h206v-336l141 148h251l-197 -187z" />
    <glyph glyph-name="l" unicode="l" horiz-adv-x="292" 
d="M248 0h-207v706h207v-706z" />
    <glyph glyph-name="m" unicode="m" horiz-adv-x="1000" 
d="M955 0h-206v281c0 27 -4 80 -72 80c-56 0 -75 -37 -75 -80v-281h-206v284c0 54 -33 77 -72 77c-17 0 -76 -7 -76 -80v-281h-207v518h199v-74c21 42 70 86 163 86c99 0 154 -40 180 -96c21 42 66 96 182 96c106 0 190 -58 190 -183v-347z" />
    <glyph glyph-name="n" unicode="n" 
d="M598 0h-206v283c0 41 -11 78 -71 78c-74 0 -74 -60 -74 -83v-278h-206v518h195v-69c36 60 103 82 170 82c127 0 192 -72 192 -200v-331z" />
    <glyph glyph-name="o" unicode="o" 
d="M624 258c0 -149 -101 -278 -309 -278c-161 0 -295 90 -295 275c0 156 101 285 302 285c208 0 302 -130 302 -282zM416 263c0 101 -41 132 -96 132c-68 0 -95 -58 -95 -134s24 -137 96 -137c50 0 95 28 95 139z" />
    <glyph glyph-name="p" unicode="p" horiz-adv-x="625" 
d="M42 518h201v-40c26 30 65 54 137 54c162 0 226 -132 226 -276c0 -145 -67 -269 -228 -269c-47 0 -103 11 -134 48v-223h-202v706zM403 262c0 52 -15 120 -77 120c-78 0 -84 -77 -84 -126c0 -48 7 -124 79 -124c75 0 82 80 82 130z" />
    <glyph glyph-name="q" unicode="q" horiz-adv-x="625" 
d="M584 -188h-203v223c-30 -29 -66 -48 -134 -48c-162 0 -228 125 -228 269c0 100 35 276 227 276c65 0 108 -20 137 -54v40h201v-706zM384 257c0 68 -20 125 -82 125c-58 0 -80 -48 -80 -129c0 -104 51 -121 82 -121c45 0 80 30 80 125z" />
    <glyph glyph-name="r" unicode="r" horiz-adv-x="417" 
d="M411 529v-174c-16 2 -28 2 -44 2c-41 0 -121 -11 -121 -105v-252h-205v518h198v-45c58 53 107 56 172 56z" />
    <glyph glyph-name="s" unicode="s" horiz-adv-x="542" 
d="M508 464l-111 -101c-20 12 -70 49 -133 49c-21 0 -44 -6 -44 -26c0 -19 12 -24 83 -40l74 -17c93 -21 146 -75 146 -156c0 -116 -103 -193 -246 -193c-107 0 -201 38 -278 104l116 105c28 -31 90 -70 160 -70c27 0 54 9 54 34c0 17 -13 25 -52 32
c-157 28 -251 60 -251 177c0 86 71 177 235 177c83 0 182 -20 247 -75z" />
    <glyph glyph-name="t" unicode="t" horiz-adv-x="375" 
d="M279 506h89v-112h-92v-199c0 -21 2 -54 56 -54c12 0 17 0 37 4v-141c-17 -2 -74 -11 -130 -11c-145 0 -169 76 -169 150v251h-70v112h73v163h206v-163z" />
    <glyph glyph-name="u" unicode="u" 
d="M602 0h-196v76c-18 -43 -72 -89 -171 -89c-100 0 -196 45 -196 208v323h207v-286c0 -26 2 -80 75 -80c71 0 74 58 74 85v281h207v-518z" />
    <glyph glyph-name="v" unicode="v" horiz-adv-x="562" 
d="M561 518l-172 -518h-219l-173 518h218l63 -310l67 310h216z" />
    <glyph glyph-name="w" unicode="w" horiz-adv-x="854" 
d="M851 518l-155 -518h-205l-68 307l-63 -307h-205l-156 518h210l64 -321l63 321h177l65 -320l62 320h211z" />
    <glyph glyph-name="x" unicode="x" horiz-adv-x="604" 
d="M606 0h-220l-85 168l-84 -168h-221l174 272l-154 246h221l64 -155l68 155h222l-157 -245z" />
    <glyph glyph-name="y" unicode="y" horiz-adv-x="583" 
d="M366 518h215l-189 -548c-36 -104 -75 -157 -185 -157c-83 0 -125 6 -129 7v147c20 -1 39 -3 59 -3c29 0 43 6 43 25c0 8 -8 30 -16 53l-164 476h215l73 -330z" />
    <glyph glyph-name="z" unicode="z" horiz-adv-x="542" 
d="M529 400l-241 -245h239v-155h-519v114l246 250h-215v154h490v-118z" />
    <glyph glyph-name="braceleft" unicode="{" horiz-adv-x="332" 
d="M320 -149h-89c-109 0 -136 45 -136 150v161c0 88 -16 97 -87 106v98c68 7 87 20 87 106v170c0 93 29 139 127 139h98v-95h-15c-48 0 -53 -40 -53 -84v-151c0 -82 -17 -110 -83 -135c62 -19 83 -51 83 -134v-138c0 -57 5 -98 58 -98h10v-95z" />
    <glyph glyph-name="bar" unicode="|" horiz-adv-x="264" 
d="M210 -144h-156v923h156v-923z" />
    <glyph glyph-name="braceright" unicode="}" horiz-adv-x="332" 
d="M12 687v94h96c96 0 130 -45 130 -147v-165c0 -85 14 -95 86 -104v-98c-66 -6 -86 -18 -86 -106v-149c0 -124 -31 -161 -139 -161h-87v95h16c45 0 52 33 52 92v144c0 82 17 110 83 135c-61 19 -83 51 -83 134v163c0 42 -15 73 -58 73h-10z" />
    <glyph glyph-name="asciitilde" unicode="~" horiz-adv-x="724" 
d="M607 461l48 -159c-60 -74 -110 -99 -164 -99c-32 0 -63 10 -122 38l-36 17c-45 21 -74 31 -103 31c-39 0 -56 -13 -103 -68l-10 -12l-48 161c53 72 94 99 159 99c35 0 63 -9 115 -33l63 -29c46 -21 59 -25 78 -25c42 0 73 17 123 79z" />
    <glyph glyph-name="Adieresis" unicode="&#xc4;" horiz-adv-x="792" 
d="M787 0h-240l-31 98h-246l-31 -98h-240l270 706h254zM470 256l-75 249l-77 -249h152zM594 757h-166v119h166v-119zM364 757h-165v119h165v-119z" />
    <glyph glyph-name="Aring" unicode="&#xc5;" horiz-adv-x="792" 
d="M787 0h-240l-31 98h-246l-31 -98h-240l270 706h254zM470 256l-75 249l-77 -249h152zM430 831c0 19 -15 36 -36 36c-20 0 -36 -17 -36 -36c0 -20 16 -37 36 -37s36 16 36 37zM510 831c0 -44 -34 -101 -116 -101c-79 0 -116 52 -116 101c0 42 32 100 116 100
c82 0 116 -57 116 -100z" />
    <glyph glyph-name="Ccedilla" unicode="&#xc7;" horiz-adv-x="750" 
d="M736 535l-187 -93c-18 34 -46 117 -145 117c-106 0 -150 -98 -150 -191c0 -165 76 -210 149 -210c93 0 124 68 143 116l191 -92c-40 -75 -121 -195 -325 -204l-17 -45c16 4 28 7 43 7c54 0 82 -40 82 -79c0 -57 -51 -99 -137 -99c-25 0 -50 3 -74 6v59c11 -2 22 -4 33 -4
c6 0 40 0 40 25c0 8 -8 21 -30 21c-16 0 -30 -6 -44 -12v45l50 77c-236 17 -331 209 -331 370c0 223 155 383 367 383c190 0 295 -112 342 -197z" />
    <glyph glyph-name="Eacute" unicode="&#xc9;" 
d="M633 0h-589v706h559v-155h-335v-105h313v-153h-314v-140h366v-153zM513 874l-150 -120h-131l64 120h217z" />
    <glyph glyph-name="Ntilde" unicode="&#xd1;" horiz-adv-x="771" 
d="M726 0h-241l-233 405v-405h-208v706h237l236 -400v400h209v-706zM470 886h96c-8 -61 -23 -136 -106 -136c-48 0 -95 31 -125 31c-15 0 -24 -12 -25 -30h-91c9 74 31 135 102 135c54 0 96 -27 122 -27c19 0 25 12 27 27z" />
    <glyph glyph-name="Odieresis" unicode="&#xd6;" horiz-adv-x="812" 
d="M784 359c0 -190 -119 -382 -382 -382c-226 0 -376 143 -376 376c0 186 111 379 380 379c257 0 378 -180 378 -373zM250 351c0 -124 55 -195 156 -195c73 0 153 49 153 209c0 141 -77 189 -153 189c-93 0 -156 -71 -156 -203zM604 757h-166v119h166v-119zM374 757h-165
v119h165v-119z" />
    <glyph glyph-name="Udieresis" unicode="&#xdc;" horiz-adv-x="729" 
d="M42 706h224v-447c0 -70 35 -105 97 -105c64 0 98 37 98 111v441h225v-423c0 -203 -144 -302 -325 -302c-169 0 -319 77 -319 282v443zM561 757h-166v119h166v-119zM331 757h-165v119h165v-119z" />
    <glyph glyph-name="aacute" unicode="&#xe1;" horiz-adv-x="604" 
d="M580 0h-203v40c-46 -30 -81 -52 -172 -52c-105 0 -186 60 -186 167c0 28 6 90 71 134c72 49 188 36 277 67c-2 37 -11 59 -70 59c-48 0 -62 -16 -67 -48c0 0 -167 -4 -194 -5c15 68 38 173 280 173c122 0 246 -27 246 -178v-293c0 -38 5 -46 18 -64zM366 222v19
c-44 -21 -156 -26 -156 -80c0 -16 13 -40 51 -40c51 0 105 42 105 101zM511 724l-161 -137h-128l77 137h212z" />
    <glyph glyph-name="agrave" unicode="&#xe0;" horiz-adv-x="604" 
d="M580 0h-203v40c-46 -30 -81 -52 -172 -52c-105 0 -186 60 -186 167c0 28 6 90 71 134c72 49 188 36 277 67c-2 37 -11 59 -70 59c-48 0 -62 -16 -67 -48c0 0 -167 -4 -194 -5c15 68 38 173 280 173c122 0 246 -27 246 -178v-293c0 -38 5 -46 18 -64zM366 222v19
c-44 -21 -156 -26 -156 -80c0 -16 13 -40 51 -40c51 0 105 42 105 101zM414 587h-127l-162 137h213z" />
    <glyph glyph-name="acircumflex" unicode="&#xe2;" horiz-adv-x="604" 
d="M580 0h-203v40c-46 -30 -81 -52 -172 -52c-105 0 -186 60 -186 167c0 28 6 90 71 134c72 49 188 36 277 67c-2 37 -11 59 -70 59c-48 0 -62 -16 -67 -48c0 0 -167 -4 -194 -5c15 68 38 173 280 173c122 0 246 -27 246 -178v-293c0 -38 5 -46 18 -64zM366 222v19
c-44 -21 -156 -26 -156 -80c0 -16 13 -40 51 -40c51 0 105 42 105 101zM488 586h-143l-41 66l-40 -66h-143l106 138h156z" />
    <glyph glyph-name="adieresis" unicode="&#xe4;" horiz-adv-x="604" 
d="M580 0h-203v40c-46 -30 -81 -52 -172 -52c-105 0 -186 60 -186 167c0 28 6 90 71 134c72 49 188 36 277 67c-2 37 -11 59 -70 59c-48 0 -62 -16 -67 -48c0 0 -167 -4 -194 -5c15 68 38 173 280 173c122 0 246 -27 246 -178v-293c0 -38 5 -46 18 -64zM366 222v19
c-44 -21 -156 -26 -156 -80c0 -16 13 -40 51 -40c51 0 105 42 105 101zM526 605h-166v119h166v-119zM281 605h-166v119h166v-119z" />
    <glyph glyph-name="atilde" unicode="&#xe3;" horiz-adv-x="604" 
d="M580 0h-203v40c-46 -30 -81 -52 -172 -52c-105 0 -186 60 -186 167c0 28 6 90 71 134c72 49 188 36 277 67c-2 37 -11 59 -70 59c-48 0 -62 -16 -67 -48c0 0 -167 -4 -194 -5c15 68 38 173 280 173c122 0 246 -27 246 -178v-293c0 -38 5 -46 18 -64zM366 222v19
c-44 -21 -156 -26 -156 -80c0 -16 13 -40 51 -40c51 0 105 42 105 101zM211 586h-87c6 65 16 145 94 145c47 0 112 -35 141 -35c22 0 25 14 27 31h89c-5 -74 -18 -146 -93 -146c-48 0 -117 36 -148 36c-18 0 -22 -17 -23 -31z" />
    <glyph glyph-name="aring" unicode="&#xe5;" horiz-adv-x="604" 
d="M580 0h-203v40c-46 -30 -81 -52 -172 -52c-105 0 -186 60 -186 167c0 28 6 90 71 134c72 49 188 36 277 67c-2 37 -11 59 -70 59c-48 0 -62 -16 -67 -48c0 0 -167 -4 -194 -5c15 68 38 173 280 173c122 0 246 -27 246 -178v-293c0 -38 5 -46 18 -64zM366 222v19
c-44 -21 -156 -26 -156 -80c0 -16 13 -40 51 -40c51 0 105 42 105 101zM210 691c0 61 50 111 111 111s111 -50 111 -111s-50 -111 -111 -111s-111 50 -111 111zM285 691c0 -20 16 -36 36 -36s36 16 36 36s-16 36 -36 36s-36 -16 -36 -36z" />
    <glyph glyph-name="ccedilla" unicode="&#xe7;" horiz-adv-x="577" 
d="M403 225l158 -87c-26 -60 -92 -144 -232 -157l-20 -40c3 1 13 2 26 2c29 0 84 -14 84 -73c0 -51 -48 -88 -119 -88c-35 0 -55 1 -88 7l3 55c5 -1 11 -4 22 -4c15 0 43 5 43 23c0 11 -13 15 -25 15c-8 0 -23 -2 -38 -6l3 36l49 72c-153 11 -251 120 -251 282
c0 172 110 279 289 279c158 0 222 -83 253 -135l-156 -88c-11 31 -29 78 -89 78c-75 0 -93 -89 -93 -141c0 -56 16 -118 90 -118c58 0 87 64 91 88z" />
    <glyph glyph-name="eacute" unicode="&#xe9;" horiz-adv-x="604" 
d="M588 222h-361c0 -23 5 -97 85 -97c70 0 90 57 96 67l169 -71c-37 -61 -120 -142 -273 -142c-208 0 -287 154 -287 283c0 202 156 278 285 278c191 0 286 -131 286 -286v-32zM229 331h150c-4 53 -34 78 -73 78c-55 0 -77 -56 -77 -78zM504 724l-161 -137h-128l77 137h212z
" />
    <glyph glyph-name="egrave" unicode="&#xe8;" horiz-adv-x="604" 
d="M588 222h-361c0 -23 5 -97 85 -97c70 0 90 57 96 67l169 -71c-37 -61 -120 -142 -273 -142c-208 0 -287 154 -287 283c0 202 156 278 285 278c191 0 286 -131 286 -286v-32zM229 331h150c-4 53 -34 78 -73 78c-55 0 -77 -56 -77 -78zM396 587h-127l-162 137h213z" />
    <glyph glyph-name="ecircumflex" unicode="&#xea;" horiz-adv-x="604" 
d="M588 222h-361c0 -23 5 -97 85 -97c70 0 90 57 96 67l169 -71c-37 -61 -120 -142 -273 -142c-208 0 -287 154 -287 283c0 202 156 278 285 278c191 0 286 -131 286 -286v-32zM229 331h150c-4 53 -34 78 -73 78c-55 0 -77 -56 -77 -78zM488 586h-143l-41 66l-40 -66h-143
l106 138h156z" />
    <glyph glyph-name="edieresis" unicode="&#xeb;" horiz-adv-x="604" 
d="M588 222h-361c0 -23 5 -97 85 -97c70 0 90 57 96 67l169 -71c-37 -61 -120 -142 -273 -142c-208 0 -287 154 -287 283c0 202 156 278 285 278c191 0 286 -131 286 -286v-32zM229 331h150c-4 53 -34 78 -73 78c-55 0 -77 -56 -77 -78zM509 605h-166v119h166v-119zM264 605
h-166v119h166v-119z" />
    <glyph glyph-name="iacute" unicode="&#xed;" horiz-adv-x="292" 
d="M248 0h-206v518h206v-518zM337 724l-161 -137h-128l77 137h212z" />
    <glyph glyph-name="igrave" unicode="&#xec;" horiz-adv-x="292" 
d="M248 0h-206v518h206v-518zM249 587h-127l-162 137h213z" />
    <glyph glyph-name="icircumflex" unicode="&#xee;" horiz-adv-x="292" 
d="M248 0h-206v518h206v-518zM331 586h-143l-41 66l-40 -66h-143l106 138h156z" />
    <glyph glyph-name="idieresis" unicode="&#xef;" horiz-adv-x="292" 
d="M248 0h-206v518h206v-518zM352 605h-166v119h166v-119zM107 605h-166v119h166v-119z" />
    <glyph glyph-name="ntilde" unicode="&#xf1;" 
d="M598 0h-206v283c0 41 -11 78 -71 78c-74 0 -74 -60 -74 -83v-278h-206v518h195v-69c36 60 103 82 170 82c127 0 192 -72 192 -200v-331zM232 586h-87c6 65 16 145 94 145c47 0 112 -35 141 -35c22 0 25 14 27 31h89c-5 -74 -18 -146 -93 -146c-48 0 -117 36 -148 36
c-18 0 -22 -17 -23 -31z" />
    <glyph glyph-name="oacute" unicode="&#xf3;" 
d="M624 258c0 -149 -101 -278 -309 -278c-161 0 -295 90 -295 275c0 156 101 285 302 285c208 0 302 -130 302 -282zM416 263c0 101 -41 132 -96 132c-68 0 -95 -58 -95 -134s24 -137 96 -137c50 0 95 28 95 139zM528 724l-161 -137h-128l77 137h212z" />
    <glyph glyph-name="ograve" unicode="&#xf2;" 
d="M624 258c0 -149 -101 -278 -309 -278c-161 0 -295 90 -295 275c0 156 101 285 302 285c208 0 302 -130 302 -282zM416 263c0 101 -41 132 -96 132c-68 0 -95 -58 -95 -134s24 -137 96 -137c50 0 95 28 95 139zM414 587h-127l-162 137h213z" />
    <glyph glyph-name="ocircumflex" unicode="&#xf4;" 
d="M624 258c0 -149 -101 -278 -309 -278c-161 0 -295 90 -295 275c0 156 101 285 302 285c208 0 302 -130 302 -282zM416 263c0 101 -41 132 -96 132c-68 0 -95 -58 -95 -134s24 -137 96 -137c50 0 95 28 95 139zM509 586h-143l-41 66l-40 -66h-143l106 138h156z" />
    <glyph glyph-name="odieresis" unicode="&#xf6;" 
d="M624 258c0 -149 -101 -278 -309 -278c-161 0 -295 90 -295 275c0 156 101 285 302 285c208 0 302 -130 302 -282zM416 263c0 101 -41 132 -96 132c-68 0 -95 -58 -95 -134s24 -137 96 -137c50 0 95 28 95 139zM528 605h-166v119h166v-119zM283 605h-166v119h166v-119z
" />
    <glyph glyph-name="otilde" unicode="&#xf5;" 
d="M624 258c0 -149 -101 -278 -309 -278c-161 0 -295 90 -295 275c0 156 101 285 302 285c208 0 302 -130 302 -282zM416 263c0 101 -41 132 -96 132c-68 0 -95 -58 -95 -134s24 -137 96 -137c50 0 95 28 95 139zM232 586h-87c6 65 16 145 94 145c47 0 112 -35 141 -35
c22 0 25 14 27 31h89c-5 -74 -18 -146 -93 -146c-48 0 -117 36 -148 36c-18 0 -22 -17 -23 -31z" />
    <glyph glyph-name="uacute" unicode="&#xfa;" 
d="M602 0h-196v76c-18 -43 -72 -89 -171 -89c-100 0 -196 45 -196 208v323h207v-286c0 -26 2 -80 75 -80c71 0 74 58 74 85v281h207v-518zM525 724l-161 -137h-128l77 137h212z" />
    <glyph glyph-name="ugrave" unicode="&#xf9;" 
d="M602 0h-196v76c-18 -43 -72 -89 -171 -89c-100 0 -196 45 -196 208v323h207v-286c0 -26 2 -80 75 -80c71 0 74 58 74 85v281h207v-518zM417 587h-127l-162 137h213z" />
    <glyph glyph-name="ucircumflex" unicode="&#xfb;" 
d="M602 0h-196v76c-18 -43 -72 -89 -171 -89c-100 0 -196 45 -196 208v323h207v-286c0 -26 2 -80 75 -80c71 0 74 58 74 85v281h207v-518zM509 586h-143l-41 66l-40 -66h-143l106 138h156z" />
    <glyph glyph-name="udieresis" unicode="&#xfc;" 
d="M602 0h-196v76c-18 -43 -72 -89 -171 -89c-100 0 -196 45 -196 208v323h207v-286c0 -26 2 -80 75 -80c71 0 74 58 74 85v281h207v-518zM526 605h-166v119h166v-119zM281 605h-166v119h166v-119z" />
    <glyph glyph-name="dagger" unicode="&#x2020;" horiz-adv-x="625" 
d="M587 335h-178v-488h-194v488h-177v158h177v213h194v-213h178v-158z" />
    <glyph glyph-name="degree" unicode="&#xb0;" horiz-adv-x="354" 
d="M349 573c0 -95 -77 -171 -172 -171s-172 76 -172 171c0 96 76 172 172 172s172 -76 172 -172zM121 574c0 -31 25 -56 56 -56s56 25 56 56s-25 56 -56 56s-56 -25 -56 -56z" />
    <glyph glyph-name="cent" unicode="&#xa2;" horiz-adv-x="583" 
d="M408 217l158 -86c-38 -97 -149 -143 -210 -150v-128h-100v128c-163 22 -233 132 -233 267c0 127 70 266 233 283v116h100v-115c110 -9 173 -74 206 -131l-155 -88c-10 22 -23 76 -89 76c-58 0 -91 -48 -91 -136c0 -49 8 -121 86 -121c66 0 86 67 95 85z" />
    <glyph glyph-name="sterling" unicode="&#xa3;" horiz-adv-x="729" 
d="M707 234v-68c0 -129 -67 -182 -167 -182c-86 0 -164 56 -185 71c-41 -37 -88 -69 -178 -69c-50 0 -162 19 -162 126c0 99 107 131 164 131c24 0 48 -5 56 -5c-13 27 -20 35 -38 61h-134v101h69c-15 21 -43 51 -43 115c0 49 29 197 282 197c154 0 294 -40 294 -222v-34
h-178v23c0 37 -17 88 -104 88c-85 0 -98 -51 -98 -75c0 -35 25 -67 45 -92h156v-101h-90c8 -13 26 -45 26 -89c0 -13 -1 -19 -4 -42c19 -13 57 -38 82 -38c38 0 39 37 39 64c0 21 -2 31 -4 40h172zM247 127c-10 5 -31 18 -62 18c-19 0 -47 -8 -47 -34c0 -19 18 -29 37 -29
c30 0 58 22 72 45z" />
    <glyph glyph-name="section" unicode="&#xa7;" horiz-adv-x="625" 
d="M54 -68l99 106c40 -27 120 -67 182 -67c18 0 42 5 42 24c0 22 -32 38 -110 70c-159 66 -250 112 -250 229c0 96 61 135 98 159c-18 24 -34 46 -34 87c0 67 54 165 207 165c121 0 206 -46 273 -85l-93 -105c-42 23 -102 57 -181 57c-19 0 -41 -3 -41 -22
c0 -15 15 -24 47 -38l84 -36c117 -50 229 -100 229 -224c0 -90 -62 -134 -100 -162c24 -23 34 -56 34 -90c0 -83 -72 -159 -211 -159c-117 0 -198 47 -275 91zM397 288l-190 93c-14 -15 -34 -36 -34 -60c0 -42 53 -66 111 -92c24 -11 113 -52 129 -60c33 27 36 50 36 59
c0 33 -37 53 -52 60z" />
    <glyph glyph-name="bullet" unicode="&#x2022;" horiz-adv-x="333" 
d="M295 219h-257v258h257v-258z" />
    <glyph glyph-name="paragraph" unicode="&#xb6;" horiz-adv-x="637" 
d="M556 610h-36v-777h-102v777h-99v-777h-103v459c-101 26 -154 94 -154 199c0 66 22 121 66 161c44 41 86 54 183 54h245v-96z" />
    <glyph glyph-name="germandbls" unicode="&#xdf;" horiz-adv-x="625" 
d="M41 0v472c0 179 108 240 281 240c96 0 239 -32 239 -182c0 -49 -14 -95 -65 -122c62 -15 105 -54 105 -183c0 -139 -59 -238 -222 -238c-50 0 -73 11 -94 21v130c8 -5 26 -20 51 -20c54 0 68 40 68 117c0 87 -17 110 -101 110v110c3 -1 10 -2 17 -2c24 0 53 16 53 66
c0 43 -19 69 -62 69c-58 0 -65 -43 -65 -88v-500h-205z" />
    <glyph glyph-name="registered" unicode="&#xae;" horiz-adv-x="833" 
d="M773 360c0 -207 -153 -363 -357 -363c-197 0 -355 158 -355 356s158 356 356 356c195 0 356 -157 356 -349zM717 346c0 179 -130 315 -301 315c-165 0 -299 -138 -299 -309s132 -307 299 -307c164 0 301 137 301 301zM616 144h-135l-64 155h-37v-155h-126v432h142
c86 0 115 -8 138 -21c45 -26 68 -66 68 -119c0 -54 -22 -91 -72 -120zM379 389h37c44 0 61 13 61 47c0 32 -19 46 -62 46h-36v-93z" />
    <glyph glyph-name="copyright" unicode="&#xa9;" horiz-adv-x="833" 
d="M527 290l81 -92c-60 -59 -111 -81 -185 -81c-141 0 -236 96 -236 237c0 140 97 238 236 238c78 0 128 -22 185 -81l-82 -94c-34 38 -59 51 -100 51c-63 0 -106 -47 -106 -117c0 -66 42 -110 105 -110c40 0 62 11 102 49zM773 360c0 -207 -153 -363 -357 -363
c-197 0 -355 158 -355 356s158 356 356 356c195 0 356 -157 356 -349zM717 346c0 179 -130 315 -301 315c-165 0 -299 -138 -299 -309s132 -307 299 -307c164 0 301 137 301 301z" />
    <glyph glyph-name="trademark" unicode="&#x2122;" horiz-adv-x="749" 
d="M696 374h-95c0 20 4 230 4 230l-58 -230h-80l-55 229s2 -210 2 -229h-96v332h142l47 -213l47 213h142v-332zM282 633h-81v-259h-102v259h-84v73h267v-73z" />
    <glyph glyph-name="acute" unicode="&#xb4;" horiz-adv-x="313" 
d="M301 724l-161 -137h-128l77 137h212z" />
    <glyph glyph-name="dieresis" unicode="&#xa8;" horiz-adv-x="313" 
d="M362 605h-166v119h166v-119zM117 605h-166v119h166v-119z" />
    <glyph glyph-name="notequal" unicode="&#x2260;" horiz-adv-x="724" 
d="M625 123h-279l-63 -129h-147l64 129h-101v154h177l36 75h-213v154h289l61 122h146l-60 -122h90v-154h-166l-37 -75h203v-154z" />
    <glyph glyph-name="AE" unicode="&#xc6;" horiz-adv-x="1104" 
d="M1089 0h-576v100h-227l-51 -100h-252l413 706h658v-153h-325v-106h300v-155h-300v-137h360v-155zM514 544l-148 -290h148v290z" />
    <glyph glyph-name="Oslash" unicode="&#xd8;" horiz-adv-x="812" 
d="M735 729l66 -71l-83 -78c45 -67 66 -140 66 -219c0 -119 -66 -384 -378 -384c-88 0 -192 25 -250 76l-77 -72l-65 69l78 74c-36 66 -64 115 -64 229c0 63 23 380 373 380c118 0 200 -32 254 -79zM255 277l254 239c-31 40 -88 41 -100 41c-28 0 -160 -1 -160 -201
c0 -26 3 -53 6 -79zM556 429l-255 -241c18 -14 45 -36 99 -36c104 0 161 76 161 206c0 24 -2 48 -5 71z" />
    <glyph glyph-name="infinity" unicode="&#x221e;" horiz-adv-x="724" 
d="M364 460c47 70 93 99 157 99c102 0 172 -89 172 -220c0 -138 -70 -230 -175 -230c-65 0 -110 26 -161 94c-49 -68 -86 -96 -151 -96c-108 0 -174 84 -174 222c0 134 74 230 177 230c62 0 105 -27 155 -99zM456 329c28 -48 43 -64 59 -64c21 0 36 26 36 65
c0 37 -13 61 -34 61c-16 0 -31 -14 -61 -62zM270 331c-27 47 -43 64 -59 64c-21 0 -36 -26 -36 -64s13 -62 33 -62c17 0 35 18 62 62z" />
    <glyph glyph-name="plusminus" unicode="&#xb1;" horiz-adv-x="724" 
d="M633 383h-172v-178h-199v178h-171v152h172v171h199v-171h171v-152zM632 0h-541v154h541v-154z" />
    <glyph glyph-name="lessequal" unicode="&#x2264;" horiz-adv-x="724" 
d="M586 176l-463 206v180l463 183v-181l-288 -91l288 -97v-200zM586 0h-463v154h463v-154z" />
    <glyph glyph-name="greaterequal" unicode="&#x2265;" horiz-adv-x="724" 
d="M601 359l-463 -183v181l287 90l-287 97v200l463 -206v-179zM601 0h-463v154h463v-154z" />
    <glyph glyph-name="yen" unicode="&#xa5;" horiz-adv-x="792" 
d="M788 698l-154 -220h76v-122h-162l-44 -63v-7h206v-122h-206v-164h-224v164h-198v122h198v7l-44 63h-154v122h69l-154 220h258l138 -238l137 238h258z" />
    <glyph glyph-name="mu" unicode="&#xb5;" horiz-adv-x="676" 
d="M52 517h208v-263c0 -74 21 -117 71 -117c55 0 67 44 67 169v211h207v-329c0 -35 11 -50 34 -50c9 0 15 1 29 7v-145c-32 -9 -73 -14 -109 -14c-64 0 -109 20 -137 78c-16 -52 -38 -72 -84 -72c-41 0 -66 18 -82 57c0 0 3 -243 3 -265h-207v733z" />
    <glyph glyph-name="partialdiff" unicode="&#x2202;" horiz-adv-x="590" 
d="M359 407v12c0 95 -28 144 -105 144c-22 0 -40 -3 -91 -16l-18 149c50 15 108 23 158 23c173 0 254 -108 254 -340c0 -265 -95 -395 -288 -395c-155 0 -240 100 -240 224c0 142 88 239 219 239c46 0 75 -12 111 -40zM347 261c-19 21 -45 34 -67 34c-36 0 -60 -32 -60 -80
s26 -82 62 -82c43 0 64 40 65 128z" />
    <glyph glyph-name="summation" unicode="&#x2211;" horiz-adv-x="624" 
d="M602 -122h-577v153l215 261l-215 258v156h577v-156h-344l223 -251l-235 -265h356v-156z" />
    <glyph glyph-name="product" unicode="&#x220f;" horiz-adv-x="790" 
d="M743 -122h-222v672h-253v-672h-222v828h697v-828z" />
    <glyph glyph-name="pi" unicode="&#x3c0;" horiz-adv-x="688" 
d="M17 515h641v-149h-54v-156c0 -50 12 -62 58 -62h12v-148c-42 -1 -76 -2 -110 -2c-119 0 -167 40 -167 167v201h-119v-366h-207v366h-54v149z" />
    <glyph glyph-name="integral" unicode="&#x222b;" horiz-adv-x="394" 
d="M376 698v-156c-22 17 -34 23 -49 23c-27 0 -35 -16 -35 -72v-458c0 -55 -2 -98 -27 -138c-29 -48 -82 -73 -154 -73c-33 0 -61 5 -99 18v155c25 -17 35 -22 49 -22c29 0 33 13 33 72v444c0 79 7 121 26 152c29 47 83 72 157 72c37 0 63 -4 99 -17z" />
    <glyph glyph-name="ordfeminine" unicode="&#xaa;" horiz-adv-x="396" 
d="M376 374h-130v26c-21 -19 -55 -34 -104 -34c-97 0 -123 63 -123 108c0 8 0 38 23 65c34 40 90 43 128 49c25 4 44 7 70 13c-2 23 -7 36 -43 36c-23 0 -38 -3 -43 -30c-24 -1 -124 -3 -124 -3c12 84 87 111 168 111c102 0 167 -26 167 -113v-201c0 -12 1 -16 11 -27z
M239 526l-47 -14c-25 -7 -49 -14 -49 -34c0 -19 18 -26 31 -26c34 0 65 31 65 66v8z" />
    <glyph glyph-name="ordmasculine" unicode="&#xba;" horiz-adv-x="417" 
d="M15 536c0 113 79 181 192 181c159 0 192 -113 192 -178c0 -116 -85 -178 -197 -178c-103 0 -187 62 -187 175zM266 540c0 56 -19 83 -56 83c-49 0 -63 -38 -63 -89c0 -41 15 -79 59 -79c41 0 60 28 60 85z" />
    <glyph glyph-name="Omega" unicode="&#x2126;" horiz-adv-x="778" 
d="M742 150v-150h-312v153c49 44 71 112 71 216c0 118 -37 180 -107 180c-77 0 -118 -70 -118 -198c0 -96 10 -148 73 -199v-152h-313v150h188c-108 46 -166 138 -166 261c0 187 141 315 344 315c197 0 320 -129 320 -299c0 -125 -59 -225 -164 -277h184z" />
    <glyph glyph-name="ae" unicode="&#xe6;" horiz-adv-x="938" 
d="M921 223h-360v-16c0 -54 37 -83 88 -83c56 0 76 34 96 70l168 -71c-48 -71 -120 -144 -269 -144c-93 0 -154 31 -192 63c-41 -23 -115 -63 -224 -63c-165 0 -211 98 -211 171c0 23 5 78 51 120c64 58 192 51 299 78c0 27 -1 68 -67 68c-60 0 -66 -26 -70 -53
c0 0 -177 -4 -194 -4c8 144 164 179 257 179c87 0 153 -14 195 -43c48 26 80 44 158 44c153 0 275 -102 275 -284v-32zM564 330h147c0 51 -28 75 -71 75c-55 0 -72 -40 -76 -75zM373 236c-102 -33 -165 -27 -165 -76c0 -28 26 -42 52 -42c30 0 62 16 82 37
c23 24 28 49 31 81z" />
    <glyph glyph-name="oslash" unicode="&#xf8;" 
d="M580 535l45 -52l-53 -46c15 -23 54 -80 54 -181c0 -137 -91 -282 -313 -282c-85 0 -156 23 -203 66l-62 -54l-44 53l60 52c-19 36 -46 75 -46 162c0 184 122 292 303 292c108 0 173 -34 204 -58zM223 228l168 144c-13 22 -44 31 -69 31c-77 0 -100 -65 -100 -130
c0 -15 0 -30 1 -45zM418 307l-171 -150c12 -29 44 -41 76 -41c98 0 98 124 98 137c0 18 -1 34 -3 54z" />
    <glyph glyph-name="questiondown" unicode="&#xbf;" horiz-adv-x="604" 
d="M228 448h173c-4 -56 -15 -95 -105 -159c-30 -21 -83 -57 -83 -102c0 -23 16 -64 75 -64c80 0 93 62 100 111l170 -57c-26 -99 -102 -189 -283 -189c-143 0 -265 61 -265 192c0 23 5 74 45 115c57 59 162 90 173 153zM224 706h183v-188h-183v188z" />
    <glyph glyph-name="exclamdown" unicode="&#xa1;" horiz-adv-x="292" 
d="M215 518h-183v188h183v-188zM215 0h-183v192l39 256h101l43 -258v-190z" />
    <glyph glyph-name="logicalnot" unicode="&#xac;" horiz-adv-x="724" 
d="M633 31h-200v222h-366v158h566v-380z" />
    <glyph glyph-name="radical" unicode="&#x221a;" horiz-adv-x="724" 
d="M691 706l-246 -891h-187l-106 238l-74 -23l-58 151l238 84l83 -207l152 648h198z" />
    <glyph glyph-name="florin" unicode="&#x192;" horiz-adv-x="437" 
d="M446 687l-16 -142c-10 4 -20 8 -39 8c-53 0 -57 -36 -60 -56l-1 -8h93l-12 -113h-93l-38 -343c-8 -69 -8 -135 -58 -178c-33 -29 -79 -50 -158 -50c-42 0 -66 4 -108 13l16 141c10 -5 22 -7 40 -7c64 0 59 53 66 117l34 307h-77l12 113h78l5 51c14 141 138 160 208 160
c42 0 66 -4 108 -13z" />
    <glyph glyph-name="approxequal" unicode="&#x2248;" horiz-adv-x="724" 
d="M607 580l48 -152c-61 -71 -109 -95 -164 -95c-32 0 -62 10 -122 37l-36 16c-45 20 -74 30 -103 30c-37 0 -52 -8 -113 -76l-48 153c55 70 93 95 159 95c38 0 62 -9 115 -32l63 -27c46 -20 59 -24 78 -24c43 0 71 16 123 75zM607 325l48 -151c-59 -71 -110 -95 -164 -95
c-32 0 -62 10 -122 37l-36 16c-46 21 -73 29 -103 29c-39 0 -50 -7 -113 -76l-48 154c53 68 94 95 159 95c37 0 63 -11 115 -33l63 -27c45 -19 59 -24 79 -24c42 0 71 18 122 75z" />
    <glyph glyph-name="Delta" unicode="&#x2206;" horiz-adv-x="790" 
d="M789 0h-788l273 706h248zM506 157l-113 350l-100 -350h213z" />
    <glyph glyph-name="guillemotleft" unicode="&#xab;" horiz-adv-x="417" 
d="M383 100l-158 125v183l158 125v-149l-90 -69l90 -67v-148zM189 100l-157 125v183l157 125v-149l-89 -69l89 -67v-148z" />
    <glyph glyph-name="guillemotright" unicode="&#xbb;" horiz-adv-x="417" 
d="M383 225l-158 -125v149l90 69l-90 67v148l158 -125v-183zM189 225l-157 -125v149l90 69l-90 67v148l157 -125v-183z" />
    <glyph glyph-name="ellipsis" unicode="&#x2026;" horiz-adv-x="1000" 
d="M904 0h-142v140h142v-140zM571 0h-141v140h141v-140zM237 0h-142v140h142v-140z" />
    <glyph glyph-name="uni00A0" unicode="&#xa0;" horiz-adv-x="313" 
 />
    <glyph glyph-name="Agrave" unicode="&#xc0;" horiz-adv-x="792" 
d="M787 0h-240l-31 98h-246l-31 -98h-240l270 706h254zM470 256l-75 249l-77 -249h152zM488 754h-132l-150 120h217z" />
    <glyph glyph-name="Atilde" unicode="&#xc3;" horiz-adv-x="792" 
d="M787 0h-240l-31 98h-246l-31 -98h-240l270 706h254zM470 256l-75 249l-77 -249h152zM480 886h96c-8 -61 -23 -136 -106 -136c-48 0 -95 31 -125 31c-15 0 -24 -12 -25 -30h-91c9 74 31 135 102 135c54 0 96 -27 122 -27c19 0 25 12 27 27z" />
    <glyph glyph-name="Otilde" unicode="&#xd5;" horiz-adv-x="812" 
d="M784 359c0 -190 -119 -382 -382 -382c-226 0 -376 143 -376 376c0 186 111 379 380 379c257 0 378 -180 378 -373zM250 351c0 -124 55 -195 156 -195c73 0 153 49 153 209c0 141 -77 189 -153 189c-93 0 -156 -71 -156 -203zM490 886h96c-8 -61 -23 -136 -106 -136
c-48 0 -95 31 -125 31c-15 0 -24 -12 -25 -30h-91c9 74 31 135 102 135c54 0 96 -27 122 -27c19 0 25 12 27 27z" />
    <glyph glyph-name="OE" unicode="&#x152;" horiz-adv-x="1104" 
d="M1088 0h-570v25c-22 -14 -60 -40 -149 -40c-160 0 -338 107 -338 367c0 236 168 366 337 366c83 0 120 -22 150 -41v29h536v-154h-322v-104h300v-154h-300v-140h356v-154zM518 195v317c-22 16 -47 34 -107 34c-91 0 -158 -52 -158 -194c0 -102 42 -194 147 -194
c58 0 102 27 118 37z" />
    <glyph glyph-name="oe" unicode="&#x153;" horiz-adv-x="1000" 
d="M990 224h-364c0 -36 15 -99 87 -99c65 0 90 52 98 68l169 -71c-36 -59 -124 -143 -277 -143c-96 0 -158 40 -187 58c-26 -19 -85 -57 -196 -57c-202 0 -301 127 -301 278c0 170 121 283 302 283c99 0 154 -25 205 -53c47 27 93 53 180 53c113 0 223 -57 263 -166
c14 -39 19 -72 21 -151zM630 333h148c0 7 0 75 -72 75c-47 0 -70 -31 -76 -75zM417 269c0 59 -20 126 -91 126c-59 0 -101 -34 -101 -135c0 -82 28 -133 95 -133c44 0 97 24 97 142z" />
    <glyph glyph-name="endash" unicode="&#x2013;" horiz-adv-x="629" 
d="M600 230h-571v171h571v-171z" />
    <glyph glyph-name="emdash" unicode="&#x2014;" horiz-adv-x="947" 
d="M918 230h-889v171h889v-171z" />
    <glyph glyph-name="quotedblleft" unicode="&#x201c;" horiz-adv-x="521" 
d="M478 343h-182v150c0 110 34 198 182 216v-89c-48 -15 -61 -40 -62 -89h62v-188zM224 343h-183v150c0 110 33 198 183 216v-89c-48 -15 -61 -40 -62 -89h62v-188z" />
    <glyph glyph-name="quotedblright" unicode="&#x201d;" horiz-adv-x="521" 
d="M296 706h182v-151c0 -110 -32 -195 -182 -214v88c47 16 61 39 62 89h-62v188zM41 706h183v-151c0 -110 -37 -197 -183 -214v88c47 16 61 39 62 89h-62v188z" />
    <glyph glyph-name="quoteleft" unicode="&#x2018;" horiz-adv-x="250" 
d="M216 343h-182v150c0 110 30 195 182 216v-89c-48 -15 -61 -40 -62 -89h62v-188z" />
    <glyph glyph-name="quoteright" unicode="&#x2019;" horiz-adv-x="250" 
d="M34 706h182v-151c0 -110 -32 -194 -182 -214v88c47 16 61 39 62 89h-62v188z" />
    <glyph glyph-name="divide" unicode="&#xf7;" horiz-adv-x="724" 
d="M449 462h-176v175h176v-175zM644 251h-565v164h565v-164zM448 29h-176v175h176v-175z" />
    <glyph glyph-name="lozenge" unicode="&#x25ca;" horiz-adv-x="724" 
d="M644 353l-188 -353h-184l-192 353l192 353h185zM462 353l-95 203l-105 -203l96 -201z" />
    <glyph glyph-name="ydieresis" unicode="&#xff;" horiz-adv-x="583" 
d="M366 518h215l-189 -548c-36 -104 -75 -157 -185 -157c-83 0 -125 6 -129 7v147c20 -1 39 -3 59 -3c29 0 43 6 43 25c0 8 -8 30 -16 53l-164 476h215l73 -330zM498 605h-166v119h166v-119zM253 605h-166v119h166v-119z" />
    <glyph glyph-name="Ydieresis" unicode="&#x178;" horiz-adv-x="792" 
d="M788 706l-284 -409v-297h-224v297l-283 409h258l139 -235l136 235h258zM597 757h-166v119h166v-119zM367 757h-165v119h165v-119z" />
    <glyph glyph-name="fraction" unicode="&#x2044;" horiz-adv-x="125" 
d="M261 706l-303 -706h-91l301 706h93z" />
    <glyph glyph-name="Euro" unicode="&#x20ac;" horiz-adv-x="716" 
d="M684 643l-63 -170c-40 45 -82 67 -142 67c-64 0 -116 -32 -134 -95h266l-30 -81h-249c-2 -13 -3 -27 -3 -40h238l-30 -81h-193c20 -63 84 -90 146 -90c60 0 121 27 159 73v-208c-57 -29 -117 -40 -181 -40c-99 0 -199 19 -270 93c-45 47 -74 108 -86 172h-79l28 81h42
s1 33 1 40h-67l28 81h50c36 171 173 263 343 263c89 0 153 -13 226 -65z" />
    <glyph glyph-name="guilsinglleft" unicode="&#x2039;" horiz-adv-x="229" 
d="M192 100l-157 125v183l157 125v-149l-89 -69l89 -67v-148z" />
    <glyph glyph-name="guilsinglright" unicode="&#x203a;" horiz-adv-x="229" 
d="M192 225l-157 -125v149l90 69l-90 67v148l157 -125v-183z" />
    <glyph glyph-name="daggerdbl" unicode="&#x2021;" 
d="M597 391h-183v-195h182v-154h-182v-193h-182v193h-183v154h183v195h-183v153h183v162h182v-162h183v-153z" />
    <glyph glyph-name="periodcentered" unicode="&#xb7;" horiz-adv-x="250" 
d="M218 212h-186v185h186v-185z" />
    <glyph glyph-name="quotesinglbase" unicode="&#x201a;" horiz-adv-x="250" 
d="M34 188h182v-151c0 -110 -34 -196 -182 -214v88c47 16 61 39 62 89h-62v188z" />
    <glyph glyph-name="quotedblbase" unicode="&#x201e;" horiz-adv-x="521" 
d="M296 188h182v-151c0 -110 -33 -195 -182 -214v88c47 16 61 39 62 89h-62v188zM41 188h183v-151c0 -110 -35 -196 -183 -214v88c47 16 61 39 62 89h-62v188z" />
    <glyph glyph-name="perthousand" unicode="&#x2030;" horiz-adv-x="1438" 
d="M699 706l-302 -706h-92l302 706h92zM416 470c0 -126 -62 -236 -201 -236c-136 0 -195 104 -195 227c0 104 50 234 203 234c166 0 193 -148 193 -225zM277 468c0 86 -15 131 -56 131c-56 0 -62 -68 -62 -135c0 -103 17 -131 59 -131c36 0 59 30 59 135zM977 226
c0 -126 -62 -236 -201 -236c-136 0 -195 104 -195 227c0 104 50 234 203 234c166 0 193 -148 193 -225zM838 224c0 86 -15 131 -56 131c-56 0 -62 -68 -62 -135c0 -103 17 -131 59 -131c36 0 59 30 59 135zM1414 226c0 -126 -62 -236 -201 -236c-136 0 -195 104 -195 227
c0 104 50 234 203 234c166 0 193 -148 193 -225zM1275 224c0 86 -15 131 -56 131c-56 0 -62 -68 -62 -135c0 -103 17 -131 59 -131c36 0 59 30 59 135z" />
    <glyph glyph-name="Acircumflex" unicode="&#xc2;" horiz-adv-x="792" 
d="M787 0h-240l-31 98h-246l-31 -98h-240l270 706h254zM470 256l-75 249l-77 -249h152zM575 751h-144l-34 53l-31 -53h-141l93 123h161z" />
    <glyph glyph-name="Ecircumflex" unicode="&#xca;" 
d="M633 0h-589v706h559v-155h-335v-105h313v-153h-314v-140h366v-153zM502 751h-144l-34 53l-31 -53h-141l93 123h161z" />
    <glyph glyph-name="Aacute" unicode="&#xc1;" horiz-adv-x="792" 
d="M787 0h-240l-31 98h-246l-31 -98h-240l270 706h254zM470 256l-75 249l-77 -249h152zM587 874l-150 -120h-131l64 120h217z" />
    <glyph glyph-name="Edieresis" unicode="&#xcb;" 
d="M633 0h-589v706h559v-155h-335v-105h313v-153h-314v-140h366v-153zM523 757h-166v119h166v-119zM293 757h-165v119h165v-119z" />
    <glyph glyph-name="Egrave" unicode="&#xc8;" 
d="M633 0h-589v706h559v-155h-335v-105h313v-153h-314v-140h366v-153zM415 754h-132l-150 120h217z" />
    <glyph glyph-name="Iacute" unicode="&#xcd;" horiz-adv-x="313" 
d="M268 0h-224v706h224v-706zM346 874l-150 -120h-131l64 120h217z" />
    <glyph glyph-name="Icircumflex" unicode="&#xce;" horiz-adv-x="313" 
d="M268 0h-224v706h224v-706zM335 751h-144l-34 53l-31 -53h-141l93 123h161z" />
    <glyph glyph-name="Idieresis" unicode="&#xcf;" horiz-adv-x="313" 
d="M268 0h-224v706h224v-706zM356 757h-166v119h166v-119zM126 757h-165v119h165v-119z" />
    <glyph glyph-name="Igrave" unicode="&#xcc;" horiz-adv-x="313" 
d="M268 0h-224v706h224v-706zM249 754h-132l-150 120h217z" />
    <glyph glyph-name="Oacute" unicode="&#xd3;" horiz-adv-x="812" 
d="M784 359c0 -190 -119 -382 -382 -382c-226 0 -376 143 -376 376c0 186 111 379 380 379c257 0 378 -180 378 -373zM250 351c0 -124 55 -195 156 -195c73 0 153 49 153 209c0 141 -77 189 -153 189c-93 0 -156 -71 -156 -203zM596 874l-150 -120h-131l64 120h217z" />
    <glyph glyph-name="Ocircumflex" unicode="&#xd4;" horiz-adv-x="812" 
d="M784 359c0 -190 -119 -382 -382 -382c-226 0 -376 143 -376 376c0 186 111 379 380 379c257 0 378 -180 378 -373zM250 351c0 -124 55 -195 156 -195c73 0 153 49 153 209c0 141 -77 189 -153 189c-93 0 -156 -71 -156 -203zM585 751h-144l-34 53l-31 -53h-141l93 123
h161z" />
    <glyph glyph-name="Ograve" unicode="&#xd2;" horiz-adv-x="812" 
d="M784 359c0 -190 -119 -382 -382 -382c-226 0 -376 143 -376 376c0 186 111 379 380 379c257 0 378 -180 378 -373zM250 351c0 -124 55 -195 156 -195c73 0 153 49 153 209c0 141 -77 189 -153 189c-93 0 -156 -71 -156 -203zM498 754h-132l-150 120h217z" />
    <glyph glyph-name="Uacute" unicode="&#xda;" horiz-adv-x="729" 
d="M42 706h224v-447c0 -70 35 -105 97 -105c64 0 98 37 98 111v441h225v-423c0 -203 -144 -302 -325 -302c-169 0 -319 77 -319 282v443zM556 874l-150 -120h-131l64 120h217z" />
    <glyph glyph-name="Ucircumflex" unicode="&#xdb;" horiz-adv-x="729" 
d="M42 706h224v-447c0 -70 35 -105 97 -105c64 0 98 37 98 111v441h225v-423c0 -203 -144 -302 -325 -302c-169 0 -319 77 -319 282v443zM544 751h-144l-34 53l-31 -53h-141l93 123h161z" />
    <glyph glyph-name="Ugrave" unicode="&#xd9;" horiz-adv-x="729" 
d="M42 706h224v-447c0 -70 35 -105 97 -105c64 0 98 37 98 111v441h225v-423c0 -203 -144 -302 -325 -302c-169 0 -319 77 -319 282v443zM457 754h-132l-150 120h217z" />
    <glyph glyph-name="dotlessi" unicode="&#x131;" horiz-adv-x="292" 
d="M248 0h-206v518h206v-518z" />
    <glyph glyph-name="circumflex" unicode="&#x2c6;" horiz-adv-x="313" 
d="M340 586h-143l-41 66l-40 -66h-143l106 138h156z" />
    <glyph glyph-name="tilde" unicode="&#x2dc;" horiz-adv-x="313" 
d="M68 586h-87c6 65 16 145 94 145c47 0 112 -35 141 -35c22 0 25 14 27 31h89c-5 -74 -18 -146 -93 -146c-48 0 -117 36 -148 36c-18 0 -22 -17 -23 -31z" />
    <glyph glyph-name="macron" unicode="&#xaf;" horiz-adv-x="313" 
d="M352 598h-391v107h391v-107z" />
    <glyph glyph-name="breve" unicode="&#x2d8;" horiz-adv-x="313" 
d="M194 726h120c-8 -47 -32 -152 -162 -152c-135 0 -153 122 -153 152h115v-9c0 -36 22 -45 40 -45c27 0 40 19 40 43v11z" />
    <glyph glyph-name="dotaccent" unicode="&#x2d9;" horiz-adv-x="313" 
d="M240 605h-167v119h167v-119z" />
    <glyph glyph-name="ring" unicode="&#x2da;" horiz-adv-x="313" 
d="M45 691c0 61 50 111 111 111s111 -50 111 -111s-50 -111 -111 -111s-111 50 -111 111zM120 691c0 -20 16 -36 36 -36s36 16 36 36s-16 36 -36 36s-36 -16 -36 -36z" />
    <glyph glyph-name="cedilla" unicode="&#xb8;" horiz-adv-x="313" 
d="M127 5l47 -15l-24 -49c3 1 13 2 26 2c27 0 84 -11 84 -73c0 -51 -50 -88 -121 -88c-35 0 -53 1 -86 7l3 55c5 -1 11 -4 22 -4c15 0 43 5 43 23c0 11 -13 15 -25 15c-8 0 -23 -2 -38 -6l3 36z" />
    <glyph glyph-name="hungarumlaut" unicode="&#x2dd;" horiz-adv-x="313" 
d="M180 724l-161 -137h-116l76 137h201zM409 724l-161 -137h-116l76 137h201z" />
    <glyph glyph-name="ogonek" unicode="&#x2db;" horiz-adv-x="313" 
d="M157 0h55c-16 -14 -56 -40 -56 -84c0 -47 43 -55 57 -55c15 0 28 6 40 12l4 -48c-23 -10 -48 -20 -95 -20c-76 0 -106 47 -106 85c0 64 64 93 101 110z" />
    <glyph glyph-name="caron" unicode="&#x2c7;" horiz-adv-x="313" 
d="M340 724l-106 -138h-156l-105 138h143l41 -66l40 66h143z" />
    <glyph glyph-name="currency" unicode="&#xa4;" horiz-adv-x="700" 
d="M677 570l-81 -80c30 -51 42 -96 42 -150c0 -56 -13 -102 -43 -153l81 -82l-96 -95l-81 82c-53 -31 -93 -42 -149 -42c-58 0 -101 12 -152 44l-81 -82l-95 95l82 82c-30 44 -44 90 -44 148s13 102 43 153l-80 80l95 95l80 -80c45 29 94 43 153 43c56 0 97 -12 149 -43
l81 81zM481 338c0 76 -57 135 -131 135s-132 -59 -132 -134s58 -133 132 -133c73 0 131 59 131 132z" />
    <glyph glyph-name="afii61289" unicode="&#x2113;" horiz-adv-x="607" 
d="M521 192l69 -101c-69 -70 -150 -108 -248 -108c-130 0 -210 62 -224 173l-47 -27l-50 124c35 19 61 35 98 56v137c0 178 77 254 228 254c129 0 205 -61 205 -165c0 -69 -26 -119 -92 -176c-49 -43 -78 -63 -164 -117v-18c0 -70 29 -105 86 -105c56 0 97 34 139 73z
M295 401c44 34 104 71 104 120c0 26 -18 42 -47 42c-45 0 -57 -26 -57 -83v-79z" />
    <glyph glyph-name="estimated" unicode="&#x212e;" horiz-adv-x="852" 
d="M833 278h-597c14 -89 87 -146 188 -146c78 0 145 39 187 108l185 -66c-84 -127 -220 -188 -370 -188c-236 0 -399 148 -399 363c0 209 158 350 393 350c245 0 413 -142 413 -401v-20zM240 433h373c-25 84 -96 132 -188 132c-88 0 -157 -44 -185 -132z" />
    <glyph glyph-name="acute.cap" horiz-adv-x="313" 
d="M297 874l-150 -120h-131l64 120h217z" />
    <glyph glyph-name="breve.cap" horiz-adv-x="313" 
d="M198 878h121c-8 -32 -30 -127 -165 -127c-139 0 -160 105 -160 127h114c0 -20 17 -33 45 -33c29 0 45 17 45 33z" />
    <glyph glyph-name="caron.cap" horiz-adv-x="313" 
d="M332 874l-93 -123h-161l-96 123h144l34 -52l31 52h141z" />
    <glyph glyph-name="cedilla.cap" horiz-adv-x="313" 
d="M122 11l39 -14l-24 -64c16 4 29 7 44 7c54 0 81 -40 81 -79c0 -57 -50 -99 -136 -99c-25 0 -50 3 -74 6v59c11 -2 22 -4 33 -4c6 0 39 0 39 25c0 8 -7 21 -29 21c-16 0 -30 -6 -44 -12v45z" />
    <glyph glyph-name="circumflex.cap" horiz-adv-x="313" 
d="M332 751h-144l-34 53l-31 -53h-141l93 123h161z" />
    <glyph glyph-name="commaaccent" horiz-adv-x="313" 
d="M95 -118v77h123v-27c0 -79 -25 -116 -118 -118v43c12 3 23 12 24 25h-29z" />
    <glyph glyph-name="dieresis.cap" horiz-adv-x="313" 
d="M354 757h-166v119h166v-119zM124 757h-165v119h165v-119z" />
    <glyph glyph-name="dotaccent.cap" horiz-adv-x="313" 
d="M239 757h-166v119h166v-119z" />
    <glyph glyph-name="grave.cap" horiz-adv-x="313" 
d="M297 754h-132l-150 120h217z" />
    <glyph glyph-name="hungarumlaut.cap" horiz-adv-x="313" 
d="M172 874l-150 -120h-119l64 120h205zM411 874l-150 -120h-119l64 120h205z" />
    <glyph glyph-name="macron.cap" horiz-adv-x="313" 
d="M352 750h-391v107h391v-107z" />
    <glyph glyph-name="ring.cap" horiz-adv-x="313" 
d="M192 831c0 19 -15 36 -36 36c-20 0 -36 -17 -36 -36c0 -20 16 -37 36 -37s36 16 36 37zM272 831c0 -44 -34 -101 -116 -101c-79 0 -116 52 -116 101c0 42 32 100 116 100c82 0 116 -57 116 -100z" />
    <glyph glyph-name="tilde.cap" horiz-adv-x="313" 
d="M234 886h96c-8 -61 -23 -136 -106 -136c-48 0 -95 31 -125 31c-15 0 -24 -12 -25 -30h-91c9 74 31 135 102 135c54 0 96 -27 122 -27c19 0 25 12 27 27z" />
    <glyph glyph-name="caron.alt" horiz-adv-x="313" 
d="M90 612v94h132v-71c0 -30 -3 -59 -37 -84c-29 -21 -61 -26 -95 -29v44c43 10 44 30 45 46h-45z" />
    <glyph glyph-name="Eth" unicode="&#xd0;" horiz-adv-x="750" 
d="M44 0v300h-44v131h44v275h307c203 0 373 -67 373 -349c0 -235 -116 -357 -327 -357h-353zM268 162h85c129 0 146 130 146 191c0 67 -18 188 -139 188h-92v-110h144v-131h-144v-138z" />
    <glyph glyph-name="eth" unicode="&#xf0;" 
d="M176 615l142 33c-14 17 -24 28 -39 44l143 32c8 -8 12 -13 38 -43l91 20l18 -55l-69 -15c46 -59 125 -183 125 -338c0 -166 -95 -313 -322 -313c-153 0 -283 99 -283 276c0 43 8 171 134 246c62 37 116 39 137 39c71 0 111 -33 141 -68c-27 59 -54 104 -73 126l-168 -38z
M416 259c0 92 -32 136 -94 136c-91 0 -97 -103 -97 -128c0 -52 8 -142 96 -142c83 0 95 81 95 134z" />
    <glyph glyph-name="Lslash" unicode="&#x141;" horiz-adv-x="542" 
d="M540 0h-496v187l-44 -27v129l44 26v391h223v-257l193 116v-128l-193 -116v-143h273v-178z" />
    <glyph glyph-name="lslash" unicode="&#x142;" horiz-adv-x="292" 
d="M292 414l-44 -30v-384h-207v245l-41 -28v111l41 28v350h207v-208l44 29v-113z" />
    <glyph glyph-name="Scaron" unicode="&#x160;" horiz-adv-x="729" 
d="M696 604l-141 -117c-38 57 -125 72 -185 72c-18 0 -80 -3 -80 -46c0 -34 34 -44 124 -59c119 -20 286 -51 286 -218c0 -182 -159 -257 -327 -257c-150 0 -283 41 -366 155l171 110c34 -70 127 -93 197 -93c67 0 106 19 106 54c0 41 -45 49 -172 71
c-148 26 -243 88 -243 213c0 189 179 240 309 240c126 0 248 -38 321 -125zM544 874l-93 -123h-161l-96 123h144l34 -52l31 52h141z" />
    <glyph glyph-name="scaron" unicode="&#x161;" horiz-adv-x="542" 
d="M508 464l-111 -101c-20 12 -70 49 -133 49c-21 0 -44 -6 -44 -26c0 -19 12 -24 83 -40l74 -17c93 -21 146 -75 146 -156c0 -116 -103 -193 -246 -193c-107 0 -201 38 -278 104l116 105c28 -31 90 -70 160 -70c27 0 54 9 54 34c0 17 -13 25 -52 32
c-157 28 -251 60 -251 177c0 86 71 177 235 177c83 0 182 -20 247 -75zM455 724l-106 -138h-156l-105 138h143l41 -66l40 66h143z" />
    <glyph glyph-name="Yacute" unicode="&#xdd;" horiz-adv-x="792" 
d="M788 706l-284 -409v-297h-224v297l-283 409h258l139 -235l136 235h258zM597 874l-150 -120h-131l64 120h217z" />
    <glyph glyph-name="yacute" unicode="&#xfd;" horiz-adv-x="583" 
d="M366 518h215l-189 -548c-36 -104 -75 -157 -185 -157c-83 0 -125 6 -129 7v147c20 -1 39 -3 59 -3c29 0 43 6 43 25c0 8 -8 30 -16 53l-164 476h215l73 -330zM493 724l-161 -137h-128l77 137h212z" />
    <glyph glyph-name="Thorn" unicode="&#xde;" horiz-adv-x="708" 
d="M44 706h224v-100h179c41 0 97 -3 138 -21c121 -53 123 -179 123 -206c0 -78 -23 -127 -49 -161c-61 -82 -144 -88 -219 -88h-172v-130h-224v706zM268 458v-180h127c66 0 92 39 92 91c0 85 -71 89 -101 89h-118z" />
    <glyph glyph-name="thorn" unicode="&#xfe;" horiz-adv-x="625" 
d="M42 -188v894h201v-228c21 28 64 54 136 54c173 0 227 -146 227 -277c0 -137 -63 -268 -226 -268c-65 0 -106 18 -136 48v-223h-202zM403 253c0 42 -4 129 -80 129c-73 0 -82 -76 -82 -123c0 -51 6 -127 82 -127c59 0 80 60 80 121z" />
    <glyph glyph-name="Zcaron" unicode="&#x17d;" horiz-adv-x="667" 
d="M654 562l-356 -390h355v-172h-651v141l362 396h-341v169h631v-144zM506 874l-93 -123h-161l-96 123h144l34 -52l31 52h141z" />
    <glyph glyph-name="zcaron" unicode="&#x17e;" horiz-adv-x="542" 
d="M529 400l-241 -245h239v-155h-519v114l246 250h-215v154h490v-118zM455 724l-106 -138h-156l-105 138h143l41 -66l40 66h143z" />
    <glyph glyph-name="onehalf" unicode="&#xbd;" horiz-adv-x="1000" 
d="M583 0v89c116 65 246 145 246 212c0 36 -28 49 -56 49c-29 0 -55 -11 -55 -62c0 -16 3 -33 3 -37l-136 17c0 95 26 180 203 180c130 0 182 -60 182 -142c0 -100 -81 -146 -166 -196h160v-110h-381zM676 706l-302 -706h-92l302 706h92zM309 243h-139v285
c-19 -5 -33 -8 -68 -8h-25v106h9c66 0 88 16 102 59h121v-442z" />
    <glyph glyph-name="onequarter" unicode="&#xbc;" horiz-adv-x="1000" 
d="M699 706l-302 -706h-91l301 706h92zM309 243h-139v285c-19 -5 -33 -8 -68 -8h-25v106h9c66 0 88 16 102 59h121v-442zM976 89h-63v-89h-130v89h-210v88l204 266h136v-257h63v-97zM697 186h87c1 49 1 82 4 131c-32 -50 -55 -84 -91 -131z" />
    <glyph glyph-name="onesuperior" unicode="&#xb9;" horiz-adv-x="437" 
d="M309 243h-139v285c-19 -5 -33 -8 -68 -8h-25v106h9c66 0 88 16 102 59h121v-442z" />
    <glyph glyph-name="threequarters" unicode="&#xbe;" horiz-adv-x="1000" 
d="M976 89h-63v-89h-130v89h-210v88l204 266h136v-257h63v-97zM699 706l-303 -706h-91l301 706h93zM697 186h87c1 49 1 82 4 131c-32 -50 -55 -84 -91 -131zM177 424v92h24c23 0 62 0 62 41c0 22 -16 41 -54 41c-39 0 -55 -17 -60 -54l-127 8c13 91 70 142 194 142
c118 0 179 -51 179 -127c0 -53 -31 -76 -57 -92c48 -15 71 -56 71 -96c0 -56 -27 -144 -196 -144c-125 0 -184 43 -204 136l128 24c2 -27 17 -61 72 -61c44 0 60 23 60 49c0 37 -42 41 -64 41h-28z" />
    <glyph glyph-name="threesuperior" unicode="&#xb3;" horiz-adv-x="437" 
d="M177 424v92h24c23 0 62 0 62 41c0 22 -16 41 -54 41c-39 0 -55 -17 -60 -54l-127 8c13 91 70 142 194 142c118 0 179 -51 179 -127c0 -53 -31 -76 -57 -92c48 -15 71 -56 71 -96c0 -56 -27 -144 -196 -144c-125 0 -184 43 -204 136l128 24c2 -27 17 -61 72 -61
c44 0 60 23 60 49c0 37 -42 41 -64 41h-28z" />
    <glyph glyph-name="twosuperior" unicode="&#xb2;" horiz-adv-x="437" 
d="M20 243v89c116 65 246 145 246 212c0 36 -27 49 -55 49c-29 0 -56 -11 -56 -62c0 -16 3 -31 4 -37l-137 17c0 95 27 181 204 181c130 0 181 -61 181 -143c0 -100 -80 -146 -165 -196h159v-110h-381z" />
    <glyph glyph-name="brokenbar" unicode="&#xa6;" horiz-adv-x="264" 
d="M210 382h-156v397h156v-397zM210 -144h-156v397h156v-397z" />
    <glyph glyph-name="minus" unicode="&#x2212;" horiz-adv-x="724" 
d="M644 250h-564v164h564v-164z" />
    <glyph glyph-name="multiply" unicode="&#xd7;" horiz-adv-x="724" 
d="M627 224l-134 -147l-143 131l-116 -126l-112 103l115 126l-139 128l135 147l139 -128l116 127l112 -103l-116 -127z" />
    <glyph glyph-name="uni00AD" unicode="&#xad;" horiz-adv-x="374" 
d="M344 230h-315v171h315v-171z" />
    <glyph glyph-name="uni03BC" unicode="&#x3bc;" horiz-adv-x="676" 
d="M52 517h208v-263c0 -74 21 -117 71 -117c55 0 67 44 67 169v211h207v-329c0 -35 11 -50 34 -50c9 0 15 1 29 7v-145c-32 -9 -73 -14 -109 -14c-64 0 -109 20 -137 78c-16 -52 -38 -72 -84 -72c-41 0 -66 18 -82 57c0 0 3 -243 3 -265h-207v733z" />
    <glyph glyph-name="uni03A9" unicode="&#x3a9;" horiz-adv-x="778" 
d="M742 150v-150h-312v153c49 44 71 112 71 216c0 118 -37 180 -107 180c-77 0 -118 -70 -118 -198c0 -96 10 -148 73 -199v-152h-313v150h188c-108 46 -166 138 -166 261c0 187 141 315 344 315c197 0 320 -129 320 -299c0 -125 -59 -225 -164 -277h184z" />
    <glyph glyph-name="uni0394" unicode="&#x394;" horiz-adv-x="790" 
d="M789 0h-788l273 706h248zM506 157l-113 350l-100 -350h213z" />
    <glyph glyph-name="uni2215" unicode="&#x2215;" horiz-adv-x="125" 
d="M261 706l-303 -706h-91l301 706h93z" />
    <glyph glyph-name="uni2219" unicode="&#x2219;" horiz-adv-x="250" 
d="M218 212h-186v185h186v-185z" />
    <glyph glyph-name="uni02C9" unicode="&#x2c9;" horiz-adv-x="313" 
d="M352 598h-391v107h391v-107z" />
    <glyph glyph-name="uni037E" unicode="&#x37e;" horiz-adv-x="292" 
d="M256 330h-182v188h182v-188zM74 188h182v-151c0 -110 -30 -190 -182 -214v88c47 16 61 39 62 89h-62v188z" />
    <glyph glyph-name="zero.tab" 
d="M623 351c0 -137 -60 -369 -309 -369c-196 0 -294 154 -294 351c0 172 80 367 304 367c171 0 299 -114 299 -349zM420 335c0 136 -19 229 -96 229c-97 0 -100 -146 -100 -244c0 -69 2 -197 97 -197c84 0 99 107 99 212z" />
    <glyph glyph-name="one.tab" 
d="M463 0h-206v456c-33 -12 -61 -17 -147 -17v155h26c54 0 131 17 149 93h178v-687z" />
    <glyph glyph-name="two.tab" 
d="M597 160v-160h-570v130c55 36 110 73 163 112c46 33 91 67 133 105c38 35 75 71 75 126c0 43 -22 80 -82 80c-40 0 -88 -17 -88 -102c0 -22 1 -30 7 -50l-203 24v16c0 193 127 256 301 256c206 0 273 -104 273 -221c0 -39 -6 -99 -69 -167c-44 -48 -99 -83 -215 -149h275
z" />
    <glyph glyph-name="three.tab" 
d="M246 281v136c19 -2 26 -3 46 -3c33 0 112 5 112 75c0 32 -20 72 -93 72c-85 0 -93 -75 -96 -102l-189 11c18 164 127 229 298 229c170 0 275 -74 275 -193c0 -72 -36 -124 -110 -150c60 -17 132 -48 132 -153c0 -140 -110 -217 -311 -217c-156 0 -278 45 -307 220l191 36
c5 -63 32 -115 112 -115c73 0 106 32 106 87c0 58 -57 72 -112 72c-28 0 -39 -1 -54 -5z" />
    <glyph glyph-name="four.tab" 
d="M623 143h-88v-143h-196v143h-320v137l312 408h204v-409h88v-136zM340 279v211l-157 -211h157z" />
    <glyph glyph-name="five.tab" 
d="M600 683l-14 -143h-350l-9 -96c49 27 117 30 133 30c141 0 261 -90 261 -231c0 -143 -103 -260 -304 -260c-174 0 -276 66 -301 225l204 20v-8c0 -59 24 -99 91 -99c63 0 102 43 102 107c0 67 -42 106 -105 106c-13 0 -60 0 -84 -44l-172 21l39 372h509z" />
    <glyph glyph-name="six.tab" 
d="M610 523l-195 -30c-10 67 -61 73 -80 73c-86 0 -127 -80 -127 -182c8 10 58 71 178 71c134 0 241 -92 241 -228c0 -155 -134 -244 -294 -244c-196 0 -315 114 -315 342c0 196 90 375 328 375c162 0 227 -64 264 -177zM430 222c0 69 -49 104 -100 104
c-68 0 -104 -55 -104 -105c0 -60 43 -105 102 -105c78 0 102 61 102 106z" />
    <glyph glyph-name="seven.tab" 
d="M43 533v156h551v-132c-134 -123 -231 -333 -259 -557h-215c45 220 154 409 254 533h-331z" />
    <glyph glyph-name="eight.tab" 
d="M137 362c-59 35 -84 80 -84 141c0 123 108 195 277 195c106 0 267 -35 267 -193c0 -60 -19 -99 -79 -142c78 -36 108 -91 108 -163c0 -146 -133 -215 -309 -215c-163 0 -299 71 -299 210c0 97 65 148 119 167zM411 496c0 38 -28 70 -91 70c-55 0 -86 -29 -86 -70
c0 -28 22 -72 90 -72c69 0 87 44 87 72zM426 205c0 35 -26 85 -105 85c-53 0 -102 -31 -102 -89c0 -32 19 -86 102 -86c85 0 105 55 105 90z" />
    <glyph glyph-name="nine.tab" 
d="M34 161l195 29c10 -67 62 -73 80 -73c81 0 127 78 127 169v14c-18 -29 -82 -72 -174 -72c-156 0 -245 107 -245 228c0 135 108 244 294 244c212 0 315 -130 315 -342c0 -199 -95 -375 -333 -375c-127 0 -229 51 -259 178zM417 463c0 63 -41 104 -101 104
c-73 0 -102 -58 -102 -105c0 -64 43 -104 99 -104c61 0 104 40 104 105z" />
    <glyph glyph-name="Amacron" unicode="&#x100;" horiz-adv-x="792" 
d="M787 0h-240l-31 98h-246l-31 -98h-240l270 706h254zM470 256l-75 249l-77 -249h152zM590 750h-391v107h391v-107z" />
    <glyph glyph-name="amacron" unicode="&#x101;" horiz-adv-x="604" 
d="M580 0h-203v40c-46 -30 -81 -52 -172 -52c-105 0 -186 60 -186 167c0 28 6 90 71 134c72 49 188 36 277 67c-2 37 -11 59 -70 59c-48 0 -62 -16 -67 -48c0 0 -167 -4 -194 -5c15 68 38 173 280 173c122 0 246 -27 246 -178v-293c0 -38 5 -46 18 -64zM366 222v19
c-44 -21 -156 -26 -156 -80c0 -16 13 -40 51 -40c51 0 105 42 105 101zM502 598h-391v107h391v-107z" />
    <glyph glyph-name="Abreve" unicode="&#x102;" horiz-adv-x="792" 
d="M787 0h-240l-31 98h-246l-31 -98h-240l270 706h254zM470 256l-75 249l-77 -249h152zM438 878h121c-8 -32 -30 -127 -165 -127c-139 0 -160 105 -160 127h114c0 -20 17 -33 45 -33c29 0 45 17 45 33z" />
    <glyph glyph-name="abreve" unicode="&#x103;" horiz-adv-x="604" 
d="M580 0h-203v40c-46 -30 -81 -52 -172 -52c-105 0 -186 60 -186 167c0 28 6 90 71 134c72 49 188 36 277 67c-2 37 -11 59 -70 59c-48 0 -62 -16 -67 -48c0 0 -167 -4 -194 -5c15 68 38 173 280 173c122 0 246 -27 246 -178v-293c0 -38 5 -46 18 -64zM366 222v19
c-44 -21 -156 -26 -156 -80c0 -16 13 -40 51 -40c51 0 105 42 105 101zM352 726h120c-8 -47 -32 -152 -162 -152c-135 0 -153 122 -153 152h115v-9c0 -36 22 -45 40 -45c27 0 40 19 40 43v11z" />
    <glyph glyph-name="Aogonek" unicode="&#x104;" horiz-adv-x="792" 
d="M239 0h-240l270 706h254l264 -706h-70c-31 -3 -76 -40 -76 -84c0 -49 43 -55 57 -55c16 0 27 6 40 11l4 -47c-23 -10 -48 -20 -95 -20c-76 0 -106 47 -106 85c0 64 64 93 101 110h-95l-31 98h-246zM470 256l-75 249l-77 -249h152z" />
    <glyph glyph-name="aogonek" unicode="&#x105;" horiz-adv-x="604" 
d="M377 0v40c-46 -30 -81 -52 -172 -52c-105 0 -186 60 -186 167c0 28 6 90 71 134c72 49 188 36 277 67c-2 37 -11 59 -70 59c-48 0 -62 -16 -67 -48c0 0 -167 -4 -194 -5c15 68 38 173 280 173c122 0 246 -27 246 -178v-293c0 -38 5 -46 18 -64h-58
c-32 -4 -76 -40 -76 -84c0 -49 43 -55 57 -55c16 0 27 6 40 11l4 -47c-23 -10 -48 -20 -95 -20c-76 0 -106 47 -106 85c0 64 64 94 101 110h-70zM366 222v19c-44 -21 -156 -26 -156 -80c0 -16 13 -40 51 -40c51 0 105 42 105 101z" />
    <glyph glyph-name="Cacute" unicode="&#x106;" horiz-adv-x="750" 
d="M546 274l191 -92c-41 -77 -127 -204 -344 -204c-261 0 -366 203 -366 371c0 223 155 383 367 383c190 0 298 -112 342 -197l-187 -93c-18 34 -46 117 -145 117c-106 0 -150 -94 -150 -191c0 -165 76 -210 149 -210c93 0 124 68 143 116zM585 874l-150 -120h-131l64 120
h217z" />
    <glyph glyph-name="cacute" unicode="&#x107;" horiz-adv-x="577" 
d="M403 225l158 -87c-28 -64 -102 -158 -267 -158c-167 0 -276 112 -276 282c0 172 110 279 289 279c158 0 222 -83 253 -135l-156 -88c-11 31 -29 78 -89 78c-75 0 -93 -89 -93 -141c0 -56 16 -118 90 -118c58 0 87 64 91 88zM494 724l-161 -137h-128l77 137h212z" />
    <glyph glyph-name="Ccircumflex" unicode="&#x108;" horiz-adv-x="750" 
d="M546 274l191 -92c-41 -77 -127 -204 -344 -204c-261 0 -366 203 -366 371c0 223 155 383 367 383c190 0 298 -112 342 -197l-187 -93c-18 34 -46 117 -145 117c-106 0 -150 -94 -150 -191c0 -165 76 -210 149 -210c93 0 124 68 143 116zM586 751h-144l-34 53l-31 -53
h-141l93 123h161z" />
    <glyph glyph-name="ccircumflex" unicode="&#x109;" horiz-adv-x="577" 
d="M403 225l158 -87c-28 -64 -102 -158 -267 -158c-167 0 -276 112 -276 282c0 172 110 279 289 279c158 0 222 -83 253 -135l-156 -88c-11 31 -29 78 -89 78c-75 0 -93 -89 -93 -141c0 -56 16 -118 90 -118c58 0 87 64 91 88zM501 586h-143l-41 66l-40 -66h-143l106 138
h156z" />
    <glyph glyph-name="Cdotaccent" unicode="&#x10a;" horiz-adv-x="750" 
d="M546 274l191 -92c-41 -77 -127 -204 -344 -204c-261 0 -366 203 -366 371c0 223 155 383 367 383c190 0 298 -112 342 -197l-187 -93c-18 34 -46 117 -145 117c-106 0 -150 -94 -150 -191c0 -165 76 -210 149 -210c93 0 124 68 143 116zM486 757h-166v119h166v-119z" />
    <glyph glyph-name="cdotaccent" unicode="&#x10b;" horiz-adv-x="577" 
d="M403 225l158 -87c-28 -64 -102 -158 -267 -158c-167 0 -276 112 -276 282c0 172 110 279 289 279c158 0 222 -83 253 -135l-156 -88c-11 31 -29 78 -89 78c-75 0 -93 -89 -93 -141c0 -56 16 -118 90 -118c58 0 87 64 91 88zM394 605h-167v119h167v-119z" />
    <glyph glyph-name="Ccaron" unicode="&#x10c;" horiz-adv-x="750" 
d="M546 274l191 -92c-41 -77 -127 -204 -344 -204c-261 0 -366 203 -366 371c0 223 155 383 367 383c190 0 298 -112 342 -197l-187 -93c-18 34 -46 117 -145 117c-106 0 -150 -94 -150 -191c0 -165 76 -210 149 -210c93 0 124 68 143 116zM570 874l-93 -123h-161l-96 123
h144l34 -52l31 52h141z" />
    <glyph glyph-name="ccaron" unicode="&#x10d;" horiz-adv-x="577" 
d="M403 225l158 -87c-28 -64 -102 -158 -267 -158c-167 0 -276 112 -276 282c0 172 110 279 289 279c158 0 222 -83 253 -135l-156 -88c-11 31 -29 78 -89 78c-75 0 -93 -89 -93 -141c0 -56 16 -118 90 -118c58 0 87 64 91 88zM482 724l-106 -138h-156l-105 138h143l41 -66
l40 66h143z" />
    <glyph glyph-name="Dcaron" unicode="&#x10e;" horiz-adv-x="750" 
d="M44 0v706h307c203 0 373 -67 373 -349c0 -235 -116 -357 -327 -357h-353zM268 162h88c129 0 144 130 144 191c0 67 -17 188 -138 188h-94v-379zM496 874l-93 -123h-161l-96 123h144l34 -52l31 52h141z" />
    <glyph glyph-name="dcaron" unicode="&#x10f;" horiz-adv-x="625" 
d="M582 0h-200v37c-27 -38 -85 -50 -130 -50c-140 0 -233 105 -233 290c0 155 94 256 227 256c23 0 78 -2 131 -51v224h205v-706zM382 261c0 93 -38 125 -81 125c-44 0 -79 -34 -79 -126c0 -54 14 -124 81 -124c60 0 79 58 79 125zM609 612v94h132v-71c0 -30 -3 -59 -37 -84
c-29 -21 -61 -26 -95 -29v44c43 10 44 30 45 46h-45z" />
    <glyph glyph-name="Dcroat" unicode="&#x110;" horiz-adv-x="750" 
d="M44 0v300h-44v131h44v275h307c203 0 373 -67 373 -349c0 -235 -116 -357 -327 -357h-353zM268 162h85c129 0 146 130 146 191c0 67 -18 188 -139 188h-92v-110h144v-131h-144v-138z" />
    <glyph glyph-name="dcroat" unicode="&#x111;" horiz-adv-x="625" 
d="M582 0h-200v37c-27 -38 -85 -50 -130 -50c-140 0 -233 105 -233 290c0 155 94 256 227 256c28 0 78 -2 131 -51v70h-116v112h116v42h205v-42h51v-112h-51v-552zM382 261c0 93 -38 125 -81 125c-44 0 -79 -34 -79 -126c0 -54 14 -124 81 -124c60 0 79 58 79 125z" />
    <glyph glyph-name="Emacron" unicode="&#x112;" 
d="M633 0h-589v706h559v-155h-335v-105h313v-153h-314v-140h366v-153zM521 750h-391v107h391v-107z" />
    <glyph glyph-name="emacron" unicode="&#x113;" horiz-adv-x="604" 
d="M588 222h-361c0 -23 5 -97 85 -97c70 0 90 57 96 67l169 -71c-37 -61 -120 -142 -273 -142c-208 0 -287 154 -287 283c0 202 156 278 285 278c191 0 286 -131 286 -286v-32zM229 331h150c-4 53 -34 78 -73 78c-55 0 -77 -56 -77 -78zM495 598h-391v107h391v-107z" />
    <glyph glyph-name="Ebreve" unicode="&#x114;" 
d="M633 0h-589v706h559v-155h-335v-105h313v-153h-314v-140h366v-153zM364 878h121c-8 -32 -30 -127 -165 -127c-139 0 -160 105 -160 127h114c0 -20 17 -33 45 -33c29 0 45 17 45 33z" />
    <glyph glyph-name="ebreve" unicode="&#x115;" horiz-adv-x="604" 
d="M588 222h-361c0 -23 5 -97 85 -97c70 0 90 57 96 67l169 -71c-37 -61 -120 -142 -273 -142c-208 0 -287 154 -287 283c0 202 156 278 285 278c191 0 286 -131 286 -286v-32zM229 331h150c-4 53 -34 78 -73 78c-55 0 -77 -56 -77 -78zM339 726h120
c-8 -47 -32 -152 -162 -152c-135 0 -153 122 -153 152h115v-9c0 -36 22 -45 40 -45c27 0 40 19 40 43v11z" />
    <glyph glyph-name="Edotaccent" unicode="&#x116;" 
d="M633 0h-589v706h559v-155h-335v-105h313v-153h-314v-140h366v-153zM410 757h-166v119h166v-119z" />
    <glyph glyph-name="edotaccent" unicode="&#x117;" horiz-adv-x="604" 
d="M588 222h-361c0 -23 5 -97 85 -97c70 0 90 57 96 67l169 -71c-37 -61 -120 -142 -273 -142c-208 0 -287 154 -287 283c0 202 156 278 285 278c191 0 286 -131 286 -286v-32zM229 331h150c-4 53 -34 78 -73 78c-55 0 -77 -56 -77 -78zM384 605h-167v119h167v-119z" />
    <glyph glyph-name="Eogonek" unicode="&#x118;" 
d="M633 153v-153h-49c-35 -7 -76 -40 -76 -84c0 -47 43 -55 57 -55c13 0 27 6 40 12l4 -48c-23 -10 -48 -20 -95 -20c-76 0 -106 47 -106 85c0 64 64 93 101 110h-465v706h559v-155h-335v-105h313v-153h-314v-140h366z" />
    <glyph glyph-name="eogonek" unicode="&#x119;" horiz-adv-x="604" 
d="M588 222h-361c0 -23 5 -97 85 -97c70 0 90 57 96 67l169 -71c-26 -46 -79 -90 -120 -109c-76 -35 -98 -57 -98 -96c0 -47 43 -55 57 -55c13 0 27 6 40 12l4 -48c-23 -10 -48 -20 -95 -20c-76 0 -106 47 -106 85c0 44 29 71 59 89h-14c-208 0 -287 154 -287 283
c0 202 156 278 285 278c191 0 286 -131 286 -286v-32zM229 331h150c-4 53 -34 78 -73 78c-55 0 -77 -56 -77 -78z" />
    <glyph glyph-name="Ecaron" unicode="&#x11a;" 
d="M633 0h-589v706h559v-155h-335v-105h313v-153h-314v-140h366v-153zM501 874l-93 -123h-161l-96 123h144l34 -52l31 52h141z" />
    <glyph glyph-name="ecaron" unicode="&#x11b;" horiz-adv-x="604" 
d="M588 222h-361c0 -23 5 -97 85 -97c70 0 90 57 96 67l169 -71c-37 -61 -120 -142 -273 -142c-208 0 -287 154 -287 283c0 202 156 278 285 278c191 0 286 -131 286 -286v-32zM229 331h150c-4 53 -34 78 -73 78c-55 0 -77 -56 -77 -78zM486 724l-106 -138h-156l-105 138
h143l41 -66l40 66h143z" />
    <glyph glyph-name="Gcircumflex" unicode="&#x11c;" horiz-adv-x="792" 
d="M757 517l-199 -56c-12 73 -69 105 -137 105c-128 0 -167 -104 -167 -202c0 -160 81 -214 173 -214c57 0 126 27 133 99h-131v142h324v-391h-167v49c-43 -32 -115 -68 -212 -68c-147 0 -347 108 -347 367c0 208 134 387 376 387c142 0 313 -69 354 -218zM585 751h-144
l-34 53l-31 -53h-141l93 123h161z" />
    <glyph glyph-name="gcircumflex" unicode="&#x11d;" horiz-adv-x="625" 
d="M20 -7h187v-8c0 -34 20 -59 81 -59c60 0 97 21 97 86v66c-26 -45 -87 -53 -138 -53c-171 0 -229 131 -229 249c0 139 68 258 244 258c75 0 114 -24 142 -63v49h178v-499c0 -168 -132 -214 -295 -214c-138 0 -267 21 -267 175v13zM380 277c0 43 -6 112 -76 112
c-50 0 -90 -28 -90 -120s41 -108 81 -108c75 0 85 66 85 116zM481 586h-143l-41 66l-40 -66h-143l106 138h156z" />
    <glyph glyph-name="Gbreve" unicode="&#x11e;" horiz-adv-x="792" 
d="M757 517l-199 -56c-12 73 -69 105 -137 105c-128 0 -167 -104 -167 -202c0 -160 81 -214 173 -214c57 0 126 27 133 99h-131v142h324v-391h-167v49c-43 -32 -115 -68 -212 -68c-147 0 -347 108 -347 367c0 208 134 387 376 387c142 0 313 -69 354 -218zM449 878h121
c-8 -32 -30 -127 -165 -127c-139 0 -160 105 -160 127h114c0 -20 17 -33 45 -33c29 0 45 17 45 33z" />
    <glyph glyph-name="gbreve" unicode="&#x11f;" horiz-adv-x="625" 
d="M20 -7h187v-8c0 -34 20 -59 81 -59c60 0 97 21 97 86v66c-26 -45 -87 -53 -138 -53c-171 0 -229 131 -229 249c0 139 68 258 244 258c75 0 114 -24 142 -63v49h178v-499c0 -168 -132 -214 -295 -214c-138 0 -267 21 -267 175v13zM380 277c0 43 -6 112 -76 112
c-50 0 -90 -28 -90 -120s41 -108 81 -108c75 0 85 66 85 116zM351 726h120c-8 -47 -32 -152 -162 -152c-135 0 -153 122 -153 152h115v-9c0 -36 22 -45 40 -45c27 0 40 19 40 43v11z" />
    <glyph glyph-name="Gdotaccent" unicode="&#x120;" horiz-adv-x="792" 
d="M757 517l-199 -56c-12 73 -69 105 -137 105c-128 0 -167 -104 -167 -202c0 -160 81 -214 173 -214c57 0 126 27 133 99h-131v142h324v-391h-167v49c-43 -32 -115 -68 -212 -68c-147 0 -347 108 -347 367c0 208 134 387 376 387c142 0 313 -69 354 -218zM494 757h-166v119
h166v-119z" />
    <glyph glyph-name="gdotaccent" unicode="&#x121;" horiz-adv-x="625" 
d="M20 -7h187v-8c0 -34 20 -59 81 -59c60 0 97 21 97 86v66c-26 -45 -87 -53 -138 -53c-171 0 -229 131 -229 249c0 139 68 258 244 258c75 0 114 -24 142 -63v49h178v-499c0 -168 -132 -214 -295 -214c-138 0 -267 21 -267 175v13zM380 277c0 43 -6 112 -76 112
c-50 0 -90 -28 -90 -120s41 -108 81 -108c75 0 85 66 85 116zM383 605h-167v119h167v-119z" />
    <glyph glyph-name="Gcommaaccent" unicode="&#x122;" horiz-adv-x="792" 
d="M757 517l-199 -56c-12 73 -69 105 -137 105c-128 0 -167 -104 -167 -202c0 -160 81 -214 173 -214c57 0 126 27 133 99h-131v142h324v-391h-167v49c-43 -32 -115 -68 -212 -68c-147 0 -347 108 -347 367c0 208 134 387 376 387c142 0 313 -69 354 -218zM334 -118v77h123
v-27c0 -79 -25 -116 -118 -118v43c12 3 23 12 24 25h-29z" />
    <glyph glyph-name="gcommaaccent" unicode="&#x123;" horiz-adv-x="625" 
d="M366 664v-77h-123v27c0 79 25 116 118 118v-43c-12 -3 -23 -12 -24 -25h29zM20 -7h187v-8c0 -34 20 -59 81 -59c60 0 97 21 97 86v66c-26 -45 -87 -53 -138 -53c-171 0 -229 131 -229 249c0 139 68 258 244 258c75 0 114 -24 142 -63v49h178v-499
c0 -168 -132 -214 -295 -214c-138 0 -267 21 -267 175v13zM380 277c0 43 -6 112 -76 112c-50 0 -90 -28 -90 -120s41 -108 81 -108c75 0 85 66 85 116z" />
    <glyph glyph-name="Hbar" unicode="&#x126;" horiz-adv-x="750" 
d="M2 497v129h42v80h223v-80h213v80h225v-80h43v-129h-43v-497h-225v272h-213v-272h-223v497h-42zM267 449h213v48h-213v-48z" />
    <glyph glyph-name="hbar" unicode="&#x127;" 
d="M361 552h-115v-86c16 21 60 74 165 74c84 0 192 -35 192 -191v-349h-206v296c0 50 -24 74 -74 74c-40 0 -76 -15 -76 -78v-292h-206v552h-48v112h48v42h205v-42h115v-112z" />
    <glyph glyph-name="Hcircumflex" unicode="&#x124;" horiz-adv-x="750" 
d="M705 0h-225v272h-213v-272h-223v706h223v-257h213v257h225v-706zM550 751h-144l-34 53l-31 -53h-141l93 123h161z" />
    <glyph glyph-name="hcircumflex" unicode="&#x125;" 
d="M603 0h-206v296c0 50 -24 74 -74 74c-40 0 -76 -15 -76 -78v-292h-206v706h205v-240c16 21 60 74 165 74c84 0 192 -35 192 -191v-349zM317 751h-144l-34 53l-31 -53h-141l93 123h161z" />
    <glyph glyph-name="Itilde" unicode="&#x128;" horiz-adv-x="313" 
d="M268 0h-224v706h224v-706zM234 886h96c-8 -61 -23 -136 -106 -136c-48 0 -95 31 -125 31c-15 0 -24 -12 -25 -30h-91c9 74 31 135 102 135c54 0 96 -27 122 -27c19 0 25 12 27 27z" />
    <glyph glyph-name="itilde" unicode="&#x129;" horiz-adv-x="292" 
d="M248 0h-206v518h206v-518zM57 586h-87c6 65 16 145 94 145c47 0 112 -35 141 -35c22 0 25 14 27 31h89c-5 -74 -18 -146 -93 -146c-48 0 -117 36 -148 36c-18 0 -22 -17 -23 -31z" />
    <glyph glyph-name="uni012A" unicode="&#x12a;" horiz-adv-x="313" 
d="M268 0h-224v706h224v-706zM323 750h-333v107h333v-107z" />
    <glyph glyph-name="imacron" unicode="&#x12b;" horiz-adv-x="292" 
d="M248 0h-206v518h206v-518zM300 598h-308v107h308v-107z" />
    <glyph glyph-name="Ibreve" unicode="&#x12c;" horiz-adv-x="313" 
d="M268 0h-224v706h224v-706zM198 878h121c-8 -32 -30 -127 -165 -127c-139 0 -160 105 -160 127h114c0 -20 17 -33 45 -33c29 0 45 17 45 33z" />
    <glyph glyph-name="uni012D" unicode="&#x12d;" horiz-adv-x="292" 
d="M248 0h-206v518h206v-518zM184 726h120c-8 -47 -32 -152 -162 -152c-135 0 -153 122 -153 152h115v-9c0 -36 22 -45 40 -45c27 0 40 19 40 43v11z" />
    <glyph glyph-name="Iogonek" unicode="&#x12e;" horiz-adv-x="313" 
d="M268 0h-40c-35 -6 -76 -40 -76 -84c0 -47 43 -55 57 -55c15 0 28 6 40 12l4 -48c-23 -10 -48 -20 -95 -20c-76 0 -106 47 -106 85c0 64 64 93 101 110h-109v706h224v-706z" />
    <glyph glyph-name="iogonek" unicode="&#x12f;" horiz-adv-x="292" 
d="M42 518h206v-518h-29c-32 -4 -76 -40 -76 -84c0 -47 43 -55 57 -55c15 0 28 6 40 12l4 -48c-23 -10 -48 -20 -95 -20c-76 0 -106 47 -106 85c0 64 63 93 101 110h-102v518zM248 569h-206v137h206v-137z" />
    <glyph glyph-name="Idotaccent" unicode="&#x130;" horiz-adv-x="313" 
d="M268 0h-224v706h224v-706zM239 757h-166v119h166v-119z" />
    <glyph glyph-name="IJ" unicode="&#x132;" horiz-adv-x="730" 
d="M268 0h-224v706h224v-706zM461 706h223v-510c0 -167 -82 -196 -222 -196h-149v174c16 -3 27 -6 57 -6c72 0 91 25 91 81v457z" />
    <glyph glyph-name="ij" unicode="&#x133;" horiz-adv-x="584" 
d="M248 569h-206v137h206v-137zM248 0h-206v518h206v-518zM541 569h-206v137h206v-137zM335 518h206v-550c0 -138 -82 -162 -238 -162h-45v151h17c50 0 60 27 60 56v505z" />
    <glyph glyph-name="Jcircumflex" unicode="&#x134;" horiz-adv-x="417" 
d="M148 706h223v-510c0 -167 -82 -196 -222 -196h-149v174c16 -3 27 -6 57 -6c72 0 91 25 91 81v457zM439 751h-144l-34 53l-31 -53h-141l93 123h161z" />
    <glyph glyph-name="jcircumflex" unicode="&#x135;" horiz-adv-x="292" 
d="M43 518h206v-550c0 -138 -82 -162 -238 -162h-45v151h17c50 0 60 27 60 56v505zM330 586h-143l-41 66l-40 -66h-143l106 138h156z" />
    <glyph glyph-name="Kcommaaccent" unicode="&#x136;" horiz-adv-x="771" 
d="M779 0h-251l-156 282l-105 -115v-167h-223v706h223v-267l222 267h272l-245 -268zM333 -118v77h123v-27c0 -79 -25 -116 -118 -118v43c12 3 23 12 24 25h-29z" />
    <glyph glyph-name="kcommaaccent" unicode="&#x137;" 
d="M648 0h-235l-112 197l-54 -52v-145h-206v706h206v-336l141 148h251l-197 -187zM271 -118v77h123v-27c0 -79 -25 -116 -118 -118v43c12 3 23 12 24 25h-29z" />
    <glyph glyph-name="kgreenlandic" unicode="&#x138;" 
d="M648 0h-235l-112 197l-54 -52v-145h-206v518h206v-148l141 148h251l-197 -187z" />
    <glyph glyph-name="Lacute" unicode="&#x139;" horiz-adv-x="542" 
d="M540 0h-496v706h223v-528h273v-178zM356 874l-150 -120h-131l64 120h217z" />
    <glyph glyph-name="lacute" unicode="&#x13a;" horiz-adv-x="292" 
d="M248 0h-207v706h207v-706zM340 874l-150 -120h-131l64 120h217z" />
    <glyph glyph-name="Lcommaaccent" unicode="&#x13b;" horiz-adv-x="542" 
d="M540 0h-496v706h223v-528h273v-178zM233 -118v77h123v-27c0 -79 -25 -116 -118 -118v43c12 3 23 12 24 25h-29z" />
    <glyph glyph-name="lcommaaccent" unicode="&#x13c;" horiz-adv-x="292" 
d="M248 0h-207v706h207v-706zM84 -118v77h123v-27c0 -79 -25 -116 -118 -118v43c12 3 23 12 24 25h-29z" />
    <glyph glyph-name="Lcaron" unicode="&#x13d;" horiz-adv-x="542" 
d="M540 0h-496v706h223v-528h273v-178zM298 612v94h132v-71c0 -30 -3 -59 -37 -84c-29 -21 -61 -26 -95 -29v44c43 10 44 30 45 46h-45z" />
    <glyph glyph-name="lcaron" unicode="&#x13e;" horiz-adv-x="292" 
d="M248 0h-207v706h207v-706zM274 612v94h132v-71c0 -30 -3 -59 -37 -84c-29 -21 -61 -26 -95 -29v44c43 10 44 30 45 46h-45z" />
    <glyph glyph-name="Ldot" unicode="&#x13f;" horiz-adv-x="542" 
d="M540 0h-496v706h223v-528h273v-178zM510 319h-179v177h179v-177z" />
    <glyph glyph-name="ldot" unicode="&#x140;" horiz-adv-x="455" 
d="M248 0h-207v706h207v-706zM460 283h-174v169h174v-169z" />
    <glyph glyph-name="Nacute" unicode="&#x143;" horiz-adv-x="771" 
d="M726 0h-241l-233 405v-405h-208v706h237l236 -400v400h209v-706zM570 874l-150 -120h-131l64 120h217z" />
    <glyph glyph-name="nacute" unicode="&#x144;" 
d="M598 0h-206v283c0 41 -11 78 -71 78c-74 0 -74 -60 -74 -83v-278h-206v518h195v-69c36 60 103 82 170 82c127 0 192 -72 192 -200v-331zM508 724l-161 -137h-128l77 137h212z" />
    <glyph glyph-name="Ncommaaccent" unicode="&#x145;" horiz-adv-x="771" 
d="M726 0h-241l-233 405v-405h-208v706h237l236 -400v400h209v-706zM324 -118v77h123v-27c0 -79 -25 -116 -118 -118v43c12 3 23 12 24 25h-29z" />
    <glyph glyph-name="ncommaaccent" unicode="&#x146;" 
d="M598 0h-206v283c0 41 -11 78 -71 78c-74 0 -74 -60 -74 -83v-278h-206v518h195v-69c36 60 103 82 170 82c127 0 192 -72 192 -200v-331zM257 -118v77h123v-27c0 -79 -25 -116 -118 -118v43c12 3 23 12 24 25h-29z" />
    <glyph glyph-name="Ncaron" unicode="&#x147;" horiz-adv-x="771" 
d="M726 0h-241l-233 405v-405h-208v706h237l236 -400v400h209v-706zM558 874l-93 -123h-161l-96 123h144l34 -52l31 52h141z" />
    <glyph glyph-name="ncaron" unicode="&#x148;" 
d="M598 0h-206v283c0 41 -11 78 -71 78c-74 0 -74 -60 -74 -83v-278h-206v518h195v-69c36 60 103 82 170 82c127 0 192 -72 192 -200v-331zM503 724l-106 -138h-156l-105 138h143l41 -66l40 66h143z" />
    <glyph glyph-name="napostrophe" unicode="&#x149;" 
d="M598 0h-206v283c0 41 -11 78 -71 78c-74 0 -74 -60 -74 -83v-278h-206v518h195v-69c36 60 103 82 170 82c127 0 192 -72 192 -200v-331zM0 612v94h132v-71c0 -30 -3 -59 -37 -84c-29 -21 -61 -26 -95 -29v44c43 10 44 30 45 46h-45z" />
    <glyph glyph-name="Eng" unicode="&#x14a;" horiz-adv-x="771" 
d="M443 -218v151h17c47 0 56 12 56 31l-264 441v-405h-208v706h237l236 -390v390h209v-762c0 -138 -82 -162 -238 -162h-45z" />
    <glyph glyph-name="eng" unicode="&#x14b;" 
d="M247 0h-206v518h195v-69c36 60 103 82 170 82c127 0 192 -72 192 -200v-339c0 -138 -66 -186 -238 -186h-45v144h17c50 0 60 15 60 63v270c0 41 -11 78 -71 78c-74 0 -74 -60 -74 -83v-278z" />
    <glyph glyph-name="Omacron" unicode="&#x14c;" horiz-adv-x="812" 
d="M784 359c0 -190 -119 -382 -382 -382c-226 0 -376 143 -376 376c0 186 111 379 380 379c257 0 378 -180 378 -373zM250 351c0 -124 55 -195 156 -195c73 0 153 49 153 209c0 141 -77 189 -153 189c-93 0 -156 -71 -156 -203zM599 750h-391v107h391v-107z" />
    <glyph glyph-name="omacron" unicode="&#x14d;" 
d="M624 258c0 -149 -101 -278 -309 -278c-161 0 -295 90 -295 275c0 156 101 285 302 285c208 0 302 -130 302 -282zM416 263c0 101 -41 132 -96 132c-68 0 -95 -58 -95 -134s24 -137 96 -137c50 0 95 28 95 139zM518 598h-391v107h391v-107z" />
    <glyph glyph-name="Obreve" unicode="&#x14e;" horiz-adv-x="812" 
d="M784 359c0 -190 -119 -382 -382 -382c-226 0 -376 143 -376 376c0 186 111 379 380 379c257 0 378 -180 378 -373zM250 351c0 -124 55 -195 156 -195c73 0 153 49 153 209c0 141 -77 189 -153 189c-93 0 -156 -71 -156 -203zM447 878h121c-8 -32 -30 -127 -165 -127
c-139 0 -160 105 -160 127h114c0 -20 17 -33 45 -33c29 0 45 17 45 33z" />
    <glyph glyph-name="obreve" unicode="&#x14f;" 
d="M624 258c0 -149 -101 -278 -309 -278c-161 0 -295 90 -295 275c0 156 101 285 302 285c208 0 302 -130 302 -282zM416 263c0 101 -41 132 -96 132c-68 0 -95 -58 -95 -134s24 -137 96 -137c50 0 95 28 95 139zM360 726h120c-8 -47 -32 -152 -162 -152
c-135 0 -153 122 -153 152h115v-9c0 -36 22 -45 40 -45c27 0 40 19 40 43v11z" />
    <glyph glyph-name="Ohungarumlaut" unicode="&#x150;" horiz-adv-x="812" 
d="M784 359c0 -190 -119 -382 -382 -382c-226 0 -376 143 -376 376c0 186 111 379 380 379c257 0 378 -180 378 -373zM250 351c0 -124 55 -195 156 -195c73 0 153 49 153 209c0 141 -77 189 -153 189c-93 0 -156 -71 -156 -203zM484 874l-150 -120h-119l64 120h205zM723 874
l-150 -120h-119l64 120h205z" />
    <glyph glyph-name="ohungarumlaut" unicode="&#x151;" 
d="M624 258c0 -149 -101 -278 -309 -278c-161 0 -295 90 -295 275c0 156 101 285 302 285c208 0 302 -130 302 -282zM416 263c0 101 -41 132 -96 132c-68 0 -95 -58 -95 -134s24 -137 96 -137c50 0 95 28 95 139zM409 724l-161 -137h-116l76 137h201zM638 724l-161 -137
h-116l76 137h201z" />
    <glyph glyph-name="Racute" unicode="&#x154;" horiz-adv-x="708" 
d="M44 706h397c119 0 251 -47 251 -226c0 -92 -40 -155 -145 -195l173 -285h-250l-137 249h-65v-249h-224v706zM268 394h93c47 0 108 7 108 82c0 78 -65 82 -110 82h-91v-164zM507 874l-150 -120h-131l64 120h217z" />
    <glyph glyph-name="racute" unicode="&#x155;" horiz-adv-x="417" 
d="M411 529v-174c-16 2 -28 2 -44 2c-41 0 -121 -11 -121 -105v-252h-205v518h198v-45c58 53 107 56 172 56zM422 724l-161 -137h-128l77 137h212z" />
    <glyph glyph-name="Rcommaaccent" unicode="&#x156;" horiz-adv-x="708" 
d="M44 706h397c119 0 251 -47 251 -226c0 -92 -40 -155 -145 -195l173 -285h-250l-137 249h-65v-249h-224v706zM268 394h93c47 0 108 7 108 82c0 78 -65 82 -110 82h-91v-164zM316 -118v77h123v-27c0 -79 -25 -116 -118 -118v43c12 3 23 12 24 25h-29z" />
    <glyph glyph-name="rcommaaccent" unicode="&#x157;" horiz-adv-x="417" 
d="M411 529v-174c-16 2 -28 2 -44 2c-41 0 -121 -11 -121 -105v-252h-205v518h198v-45c58 53 107 56 172 56zM84 -118v77h123v-27c0 -79 -25 -116 -118 -118v43c12 3 23 12 24 25h-29z" />
    <glyph glyph-name="Rcaron" unicode="&#x158;" horiz-adv-x="708" 
d="M44 706h397c119 0 251 -47 251 -226c0 -92 -40 -155 -145 -195l173 -285h-250l-137 249h-65v-249h-224v706zM268 394h93c47 0 108 7 108 82c0 78 -65 82 -110 82h-91v-164zM496 874l-93 -123h-161l-96 123h144l34 -52l31 52h141z" />
    <glyph glyph-name="rcaron" unicode="&#x159;" horiz-adv-x="417" 
d="M411 529v-174c-16 2 -28 2 -44 2c-41 0 -121 -11 -121 -105v-252h-205v518h198v-45c58 53 107 56 172 56zM407 724l-106 -138h-156l-105 138h143l41 -66l40 66h143z" />
    <glyph glyph-name="Sacute" unicode="&#x15a;" horiz-adv-x="729" 
d="M696 604l-141 -117c-38 57 -125 72 -185 72c-18 0 -80 -3 -80 -46c0 -34 34 -44 124 -59c119 -20 286 -51 286 -218c0 -182 -159 -257 -327 -257c-150 0 -283 41 -366 155l171 110c34 -70 127 -93 197 -93c67 0 106 19 106 54c0 41 -45 49 -172 71
c-148 26 -243 88 -243 213c0 189 179 240 309 240c126 0 248 -38 321 -125zM543 874l-150 -120h-131l64 120h217z" />
    <glyph glyph-name="sacute" unicode="&#x15b;" horiz-adv-x="542" 
d="M508 464l-111 -101c-20 12 -70 49 -133 49c-21 0 -44 -6 -44 -26c0 -19 12 -24 83 -40l74 -17c93 -21 146 -75 146 -156c0 -116 -103 -193 -246 -193c-107 0 -201 38 -278 104l116 105c28 -31 90 -70 160 -70c27 0 54 9 54 34c0 17 -13 25 -52 32
c-157 28 -251 60 -251 177c0 86 71 177 235 177c83 0 182 -20 247 -75zM457 724l-161 -137h-128l77 137h212z" />
    <glyph glyph-name="Scircumflex" unicode="&#x15c;" horiz-adv-x="729" 
d="M696 604l-141 -117c-38 57 -125 72 -185 72c-18 0 -80 -3 -80 -46c0 -34 34 -44 124 -59c119 -20 286 -51 286 -218c0 -182 -159 -257 -327 -257c-150 0 -283 41 -366 155l171 110c34 -70 127 -93 197 -93c67 0 106 19 106 54c0 41 -45 49 -172 71
c-148 26 -243 88 -243 213c0 189 179 240 309 240c126 0 248 -38 321 -125zM551 751h-144l-34 53l-31 -53h-141l93 123h161z" />
    <glyph glyph-name="scircumflex" unicode="&#x15d;" horiz-adv-x="542" 
d="M508 464l-111 -101c-20 12 -70 49 -133 49c-21 0 -44 -6 -44 -26c0 -19 12 -24 83 -40l74 -17c93 -21 146 -75 146 -156c0 -116 -103 -193 -246 -193c-107 0 -201 38 -278 104l116 105c28 -31 90 -70 160 -70c27 0 54 9 54 34c0 17 -13 25 -52 32
c-157 28 -251 60 -251 177c0 86 71 177 235 177c83 0 182 -20 247 -75zM454 586h-143l-41 66l-40 -66h-143l106 138h156z" />
    <glyph glyph-name="Scedilla" unicode="&#x15e;" horiz-adv-x="729" 
d="M696 604l-141 -117c-38 57 -125 72 -185 72c-18 0 -80 -3 -80 -46c0 -34 34 -44 124 -59c119 -20 286 -51 286 -218c0 -181 -157 -256 -324 -257l-17 -46c16 4 29 7 44 7c54 0 81 -40 81 -79c0 -57 -50 -99 -136 -99c-25 0 -50 3 -74 6v59c11 -2 22 -4 33 -4
c6 0 39 0 39 25c0 8 -7 21 -29 21c-16 0 -30 -6 -44 -12v45l51 79c-130 8 -243 51 -317 153l171 110c34 -70 127 -93 197 -93c67 0 106 19 106 54c0 41 -45 49 -172 71c-148 26 -243 88 -243 213c0 189 179 240 309 240c126 0 248 -38 321 -125z" />
    <glyph glyph-name="scedilla" unicode="&#x15f;" horiz-adv-x="542" 
d="M508 464l-111 -101c-20 12 -70 49 -133 49c-21 0 -44 -6 -44 -26c0 -19 12 -24 83 -40l74 -17c93 -21 146 -75 146 -156c0 -114 -99 -190 -238 -193l-19 -39c3 1 13 2 26 2c27 0 84 -11 84 -73c0 -51 -50 -88 -121 -88c-35 0 -53 1 -86 7l3 55c5 -1 11 -4 22 -4
c15 0 43 5 43 23c0 11 -13 15 -25 15c-8 0 -23 -2 -38 -6l3 36l51 75c-87 9 -164 45 -229 101l116 105c28 -31 90 -70 160 -70c27 0 54 9 54 34c0 17 -13 25 -52 32c-157 28 -251 60 -251 177c0 86 71 177 235 177c83 0 182 -20 247 -75z" />
    <glyph glyph-name="Tcommaaccent" unicode="&#x162;" horiz-adv-x="583" 
d="M581 532h-179v-532h-223v532h-180v174h582v-174zM228 -118v77h123v-27c0 -79 -25 -116 -118 -118v43c12 3 23 12 24 25h-29z" />
    <glyph glyph-name="tcommaaccent" unicode="&#x163;" horiz-adv-x="375" 
d="M279 506h89v-112h-92v-199c0 -21 2 -54 56 -54c12 0 17 0 37 4v-141c-17 -2 -74 -11 -130 -11c-145 0 -169 76 -169 150v251h-70v112h73v163h206v-163zM148 -118v77h123v-27c0 -79 -25 -116 -118 -118v43c12 3 23 12 24 25h-29z" />
    <glyph glyph-name="Tcaron" unicode="&#x164;" horiz-adv-x="583" 
d="M581 532h-179v-532h-223v532h-180v174h582v-174zM465 874l-93 -123h-161l-96 123h144l34 -52l31 52h141z" />
    <glyph glyph-name="tcaron" unicode="&#x165;" horiz-adv-x="375" 
d="M279 506h89v-112h-92v-199c0 -21 2 -54 56 -54c12 0 17 0 37 4v-141c-17 -2 -74 -11 -130 -11c-145 0 -169 76 -169 150v251h-70v112h73v163h206v-163zM307 612v94h132v-71c0 -30 -3 -59 -37 -84c-29 -21 -61 -26 -95 -29v44c43 10 44 30 45 46h-45z" />
    <glyph glyph-name="Tbar" unicode="&#x166;" horiz-adv-x="583" 
d="M65 308v139h114v85h-180v174h582v-174h-179v-85h114v-139h-114v-308h-223v308h-114z" />
    <glyph glyph-name="tbar" unicode="&#x167;" horiz-adv-x="375" 
d="M346 242h-70v-47c0 -21 2 -54 56 -54c12 0 17 0 37 4v-141c-17 -2 -74 -11 -130 -11c-145 0 -169 76 -169 150v99h-60v112h60v40h-70v112h73v163h206v-163h89v-112h-92v-40h70v-112z" />
    <glyph glyph-name="Utilde" unicode="&#x168;" horiz-adv-x="729" 
d="M42 706h224v-447c0 -70 35 -105 97 -105c64 0 98 37 98 111v441h225v-423c0 -203 -144 -302 -325 -302c-169 0 -319 77 -319 282v443zM442 886h96c-8 -61 -23 -136 -106 -136c-48 0 -95 31 -125 31c-15 0 -24 -12 -25 -30h-91c9 74 31 135 102 135c54 0 96 -27 122 -27
c19 0 25 12 27 27z" />
    <glyph glyph-name="utilde" unicode="&#x169;" 
d="M602 0h-196v76c-18 -43 -72 -89 -171 -89c-100 0 -196 45 -196 208v323h207v-286c0 -26 2 -80 75 -80c71 0 74 58 74 85v281h207v-518zM234 586h-87c6 65 16 145 94 145c47 0 112 -35 141 -35c22 0 25 14 27 31h89c-5 -74 -18 -146 -93 -146c-48 0 -117 36 -148 36
c-18 0 -22 -17 -23 -31z" />
    <glyph glyph-name="Umacron" unicode="&#x16a;" horiz-adv-x="729" 
d="M42 706h224v-447c0 -70 35 -105 97 -105c64 0 98 37 98 111v441h225v-423c0 -203 -144 -302 -325 -302c-169 0 -319 77 -319 282v443zM559 750h-391v107h391v-107z" />
    <glyph glyph-name="umacron" unicode="&#x16b;" 
d="M602 0h-196v76c-18 -43 -72 -89 -171 -89c-100 0 -196 45 -196 208v323h207v-286c0 -26 2 -80 75 -80c71 0 74 58 74 85v281h207v-518zM516 598h-391v107h391v-107z" />
    <glyph glyph-name="Ubreve" unicode="&#x16c;" horiz-adv-x="729" 
d="M42 706h224v-447c0 -70 35 -105 97 -105c64 0 98 37 98 111v441h225v-423c0 -203 -144 -302 -325 -302c-169 0 -319 77 -319 282v443zM406 878h121c-8 -32 -30 -127 -165 -127c-139 0 -160 105 -160 127h114c0 -20 17 -33 45 -33c29 0 45 17 45 33z" />
    <glyph glyph-name="ubreve" unicode="&#x16d;" 
d="M602 0h-196v76c-18 -43 -72 -89 -171 -89c-100 0 -196 45 -196 208v323h207v-286c0 -26 2 -80 75 -80c71 0 74 58 74 85v281h207v-518zM360 726h120c-8 -47 -32 -152 -162 -152c-135 0 -153 122 -153 152h115v-9c0 -36 22 -45 40 -45c27 0 40 19 40 43v11z" />
    <glyph glyph-name="Uring" unicode="&#x16e;" horiz-adv-x="729" 
d="M42 706h224v-447c0 -70 35 -105 97 -105c64 0 98 37 98 111v441h225v-423c0 -203 -144 -302 -325 -302c-169 0 -319 77 -319 282v443zM399 831c0 19 -15 36 -36 36c-20 0 -36 -17 -36 -36c0 -20 16 -37 36 -37s36 16 36 37zM479 831c0 -44 -34 -101 -116 -101
c-79 0 -116 52 -116 101c0 42 32 100 116 100c82 0 116 -57 116 -100z" />
    <glyph glyph-name="uring" unicode="&#x16f;" 
d="M602 0h-196v76c-18 -43 -72 -89 -171 -89c-100 0 -196 45 -196 208v323h207v-286c0 -26 2 -80 75 -80c71 0 74 58 74 85v281h207v-518zM210 691c0 61 50 111 111 111s111 -50 111 -111s-50 -111 -111 -111s-111 50 -111 111zM285 691c0 -20 16 -36 36 -36s36 16 36 36
s-16 36 -36 36s-36 -16 -36 -36z" />
    <glyph glyph-name="Uhungarumlaut" unicode="&#x170;" horiz-adv-x="729" 
d="M42 706h224v-447c0 -70 35 -105 97 -105c64 0 98 37 98 111v441h225v-423c0 -203 -144 -302 -325 -302c-169 0 -319 77 -319 282v443zM444 874l-150 -120h-119l64 120h205zM683 874l-150 -120h-119l64 120h205z" />
    <glyph glyph-name="uhungarumlaut" unicode="&#x171;" 
d="M602 0h-196v76c-18 -43 -72 -89 -171 -89c-100 0 -196 45 -196 208v323h207v-286c0 -26 2 -80 75 -80c71 0 74 58 74 85v281h207v-518zM404 724l-161 -137h-116l76 137h201zM633 724l-161 -137h-116l76 137h201z" />
    <glyph glyph-name="Uogonek" unicode="&#x172;" horiz-adv-x="729" 
d="M42 706h224v-447c0 -70 35 -105 97 -105c64 0 98 37 98 111v441h225v-423c0 -168 -94 -266 -244 -295c-42 -8 -58 -46 -58 -72c0 -47 43 -55 57 -55c15 0 28 6 40 12l4 -48c-23 -10 -48 -20 -95 -20c-76 0 -106 47 -106 85c0 45 31 73 63 91c-163 4 -305 82 -305 282v443
z" />
    <glyph glyph-name="uogonek" unicode="&#x173;" 
d="M602 0h-45c-36 -7 -76 -40 -76 -84c0 -47 43 -55 57 -55c15 0 28 6 40 12l4 -48c-23 -10 -48 -20 -95 -20c-76 0 -106 47 -106 85c0 64 64 93 101 110h-76v76c-18 -43 -72 -89 -171 -89c-100 0 -196 45 -196 208v323h207v-286c0 -26 2 -80 75 -80c71 0 74 58 74 85v281
h207v-518z" />
    <glyph glyph-name="Wacute" unicode="&#x1e82;" horiz-adv-x="1042" 
d="M1040 706l-176 -706h-239l-107 440l-104 -440h-240l-176 706h218l100 -461l108 461h189l113 -461l97 461h217zM697 874l-150 -120h-131l64 120h217z" />
    <glyph glyph-name="wacute" unicode="&#x1e83;" horiz-adv-x="854" 
d="M851 518l-155 -518h-205l-68 307l-63 -307h-205l-156 518h210l64 -321l63 321h177l65 -320l62 320h211zM626 724l-161 -137h-128l77 137h212z" />
    <glyph glyph-name="Wcircumflex" unicode="&#x174;" horiz-adv-x="1042" 
d="M1040 706l-176 -706h-239l-107 440l-104 -440h-240l-176 706h218l100 -461l108 461h189l113 -461l97 461h217zM693 751h-144l-34 53l-31 -53h-141l93 123h161z" />
    <glyph glyph-name="wcircumflex" unicode="&#x175;" horiz-adv-x="854" 
d="M851 518l-155 -518h-205l-68 307l-63 -307h-205l-156 518h210l64 -321l63 321h177l65 -320l62 320h211zM607 586h-143l-41 66l-40 -66h-143l106 138h156z" />
    <glyph glyph-name="Wdieresis" unicode="&#x1e84;" horiz-adv-x="1042" 
d="M1040 706l-176 -706h-239l-107 440l-104 -440h-240l-176 706h218l100 -461l108 461h189l113 -461l97 461h217zM716 757h-166v119h166v-119zM486 757h-165v119h165v-119z" />
    <glyph glyph-name="wdieresis" unicode="&#x1e85;" horiz-adv-x="854" 
d="M851 518l-155 -518h-205l-68 307l-63 -307h-205l-156 518h210l64 -321l63 321h177l65 -320l62 320h211zM629 605h-166v119h166v-119zM384 605h-166v119h166v-119z" />
    <glyph glyph-name="Wgrave" unicode="&#x1e80;" horiz-adv-x="1042" 
d="M1040 706l-176 -706h-239l-107 440l-104 -440h-240l-176 706h218l100 -461l108 461h189l113 -461l97 461h217zM617 754h-132l-150 120h217z" />
    <glyph glyph-name="wgrave" unicode="&#x1e81;" horiz-adv-x="854" 
d="M851 518l-155 -518h-205l-68 307l-63 -307h-205l-156 518h210l64 -321l63 321h177l65 -320l62 320h211zM516 587h-127l-162 137h213z" />
    <glyph glyph-name="Ycircumflex" unicode="&#x176;" horiz-adv-x="792" 
d="M788 706l-284 -409v-297h-224v297l-283 409h258l139 -235l136 235h258zM569 751h-144l-34 53l-31 -53h-141l93 123h161z" />
    <glyph glyph-name="ycircumflex" unicode="&#x177;" horiz-adv-x="583" 
d="M366 518h215l-189 -548c-36 -104 -75 -157 -185 -157c-83 0 -125 6 -129 7v147c20 -1 39 -3 59 -3c29 0 43 6 43 25c0 8 -8 30 -16 53l-164 476h215l73 -330zM473 586h-143l-41 66l-40 -66h-143l106 138h156z" />
    <glyph glyph-name="Ygrave" unicode="&#x1ef2;" horiz-adv-x="792" 
d="M788 706l-284 -409v-297h-224v297l-283 409h258l139 -235l136 235h258zM485 754h-132l-150 120h217z" />
    <glyph glyph-name="ygrave" unicode="&#x1ef3;" horiz-adv-x="583" 
d="M366 518h215l-189 -548c-36 -104 -75 -157 -185 -157c-83 0 -125 6 -129 7v147c20 -1 39 -3 59 -3c29 0 43 6 43 25c0 8 -8 30 -16 53l-164 476h215l73 -330zM389 587h-127l-162 137h213z" />
    <glyph glyph-name="Zacute" unicode="&#x179;" horiz-adv-x="667" 
d="M654 562l-356 -390h355v-172h-651v141l362 396h-341v169h631v-144zM517 874l-150 -120h-131l64 120h217z" />
    <glyph glyph-name="zacute" unicode="&#x17a;" horiz-adv-x="542" 
d="M529 400l-241 -245h239v-155h-519v114l246 250h-215v154h490v-118zM476 724l-161 -137h-128l77 137h212z" />
    <glyph glyph-name="Zdotaccent" unicode="&#x17b;" horiz-adv-x="667" 
d="M654 562l-356 -390h355v-172h-651v141l362 396h-341v169h631v-144zM422 757h-166v119h166v-119z" />
    <glyph glyph-name="zdotaccent" unicode="&#x17c;" horiz-adv-x="542" 
d="M529 400l-241 -245h239v-155h-519v114l246 250h-215v154h490v-118zM360 605h-167v119h167v-119z" />
    <glyph glyph-name="longs" unicode="&#x17f;" horiz-adv-x="351" 
d="M76 394h-77v112h77v54c0 63 19 158 191 158c51 0 89 -8 108 -14v-140c-19 7 -26 7 -38 7c-52 0 -55 -35 -55 -57v-514h-206v394z" />
    <glyph glyph-name="Aringacute" unicode="&#x1fa;" horiz-adv-x="792" 
d="M583 998l-160 -100h-121l74 100h207zM787 0h-240l-31 98h-246l-31 -98h-240l270 706h254zM470 256l-75 249l-77 -249h152zM417 803c0 12 -10 23 -23 23s-23 -11 -23 -23s10 -23 23 -23s23 10 23 23zM487 803c0 -33 -27 -76 -93 -76c-63 0 -93 39 -93 76c0 32 26 76 93 76
c66 0 93 -43 93 -76z" />
    <glyph glyph-name="aringacute" unicode="&#x1fb;" horiz-adv-x="604" 
d="M514 941l-171 -117h-128l87 117h212zM580 0h-203v40c-46 -30 -81 -52 -172 -52c-105 0 -186 60 -186 167c0 28 6 90 71 134c72 49 188 36 277 67c-2 37 -11 59 -70 59c-48 0 -62 -16 -67 -48c0 0 -167 -4 -194 -5c15 68 38 173 280 173c122 0 246 -27 246 -178v-293
c0 -38 5 -46 18 -64zM366 222v19c-44 -21 -156 -26 -156 -80c0 -16 13 -40 51 -40c51 0 105 42 105 101zM210 691c0 61 50 111 111 111s111 -50 111 -111s-50 -111 -111 -111s-111 50 -111 111zM285 691c0 -20 16 -36 36 -36s36 16 36 36s-16 36 -36 36s-36 -16 -36 -36z
" />
    <glyph glyph-name="AEacute" unicode="&#x1fc;" horiz-adv-x="1104" 
d="M1089 0h-576v100h-227l-51 -100h-252l413 706h658v-153h-325v-106h300v-155h-300v-137h360v-155zM514 544l-148 -290h148v290zM859 874l-150 -120h-131l64 120h217z" />
    <glyph glyph-name="aeacute" unicode="&#x1fd;" horiz-adv-x="938" 
d="M921 223h-360v-16c0 -54 37 -83 88 -83c56 0 76 34 96 70l168 -71c-48 -71 -120 -144 -269 -144c-93 0 -154 31 -192 63c-41 -23 -115 -63 -224 -63c-165 0 -211 98 -211 171c0 23 5 78 51 120c64 58 192 51 299 78c0 27 -1 68 -67 68c-60 0 -66 -26 -70 -53
c0 0 -177 -4 -194 -4c8 144 164 179 257 179c87 0 153 -14 195 -43c48 26 80 44 158 44c153 0 275 -102 275 -284v-32zM564 330h147c0 51 -28 75 -71 75c-55 0 -72 -40 -76 -75zM373 236c-102 -33 -165 -27 -165 -76c0 -28 26 -42 52 -42c30 0 62 16 82 37
c23 24 28 49 31 81zM684 724l-161 -137h-128l77 137h212z" />
    <glyph glyph-name="Oslashacute" unicode="&#x1fe;" horiz-adv-x="812" 
d="M735 729l66 -71l-83 -78c45 -67 66 -140 66 -219c0 -119 -66 -384 -378 -384c-88 0 -192 25 -250 76l-77 -72l-65 69l78 74c-36 66 -64 115 -64 229c0 63 23 380 373 380c118 0 200 -32 254 -79zM255 277l254 239c-31 40 -88 41 -100 41c-28 0 -160 -1 -160 -201
c0 -26 3 -53 6 -79zM556 429l-255 -241c18 -14 45 -36 99 -36c104 0 161 76 161 206c0 24 -2 48 -5 71zM591 874l-150 -120h-131l64 120h217z" />
    <glyph glyph-name="oslashacute" unicode="&#x1ff;" 
d="M580 535l45 -52l-53 -46c15 -23 54 -80 54 -181c0 -137 -91 -282 -313 -282c-85 0 -156 23 -203 66l-62 -54l-44 53l60 52c-19 36 -46 75 -46 162c0 184 122 292 303 292c108 0 173 -34 204 -58zM223 228l168 144c-13 22 -44 31 -69 31c-77 0 -100 -65 -100 -130
c0 -15 0 -30 1 -45zM418 307l-171 -150c12 -29 44 -41 76 -41c98 0 98 124 98 137c0 18 -1 34 -3 54zM511 724l-161 -137h-128l77 137h212z" />
    <glyph glyph-name="Scommaaccent" unicode="&#x218;" horiz-adv-x="729" 
d="M696 604l-141 -117c-38 57 -125 72 -185 72c-18 0 -80 -3 -80 -46c0 -34 34 -44 124 -59c119 -20 286 -51 286 -218c0 -182 -159 -257 -327 -257c-150 0 -283 41 -366 155l171 110c34 -70 127 -93 197 -93c67 0 106 19 106 54c0 41 -45 49 -172 71
c-148 26 -243 88 -243 213c0 189 179 240 309 240c126 0 248 -38 321 -125zM318 -118v77h123v-27c0 -79 -25 -116 -118 -118v43c12 3 23 12 24 25h-29z" />
    <glyph glyph-name="scommaaccent" unicode="&#x219;" horiz-adv-x="542" 
d="M508 464l-111 -101c-20 12 -70 49 -133 49c-21 0 -44 -6 -44 -26c0 -19 12 -24 83 -40l74 -17c93 -21 146 -75 146 -156c0 -116 -103 -193 -246 -193c-107 0 -201 38 -278 104l116 105c28 -31 90 -70 160 -70c27 0 54 9 54 34c0 17 -13 25 -52 32
c-157 28 -251 60 -251 177c0 86 71 177 235 177c83 0 182 -20 247 -75zM215 -118v77h123v-27c0 -79 -25 -116 -118 -118v43c12 3 23 12 24 25h-29z" />
    <glyph glyph-name="uni021A" unicode="&#x21a;" horiz-adv-x="583" 
d="M581 532h-179v-532h-223v532h-180v174h582v-174zM228 -118v77h123v-27c0 -79 -25 -116 -118 -118v43c12 3 23 12 24 25h-29z" />
    <glyph glyph-name="uni021B" unicode="&#x21b;" horiz-adv-x="375" 
d="M279 506h89v-112h-92v-199c0 -21 2 -54 56 -54c12 0 17 0 37 4v-141c-17 -2 -74 -11 -130 -11c-145 0 -169 76 -169 150v251h-70v112h73v163h206v-163zM148 -118v77h123v-27c0 -79 -25 -116 -118 -118v43c12 3 23 12 24 25h-29z" />
    <glyph glyph-name="uniF6C1" unicode="&#xf6c1;" horiz-adv-x="729" 
d="M696 604l-141 -117c-38 57 -125 72 -185 72c-18 0 -80 -3 -80 -46c0 -34 34 -44 124 -59c119 -20 286 -51 286 -218c0 -181 -157 -256 -324 -257l-17 -46c16 4 29 7 44 7c54 0 81 -40 81 -79c0 -57 -50 -99 -136 -99c-25 0 -50 3 -74 6v59c11 -2 22 -4 33 -4
c6 0 39 0 39 25c0 8 -7 21 -29 21c-16 0 -30 -6 -44 -12v45l51 79c-130 8 -243 51 -317 153l171 110c34 -70 127 -93 197 -93c67 0 106 19 106 54c0 41 -45 49 -172 71c-148 26 -243 88 -243 213c0 189 179 240 309 240c126 0 248 -38 321 -125z" />
    <glyph glyph-name="uniF6C2" unicode="&#xf6c2;" horiz-adv-x="542" 
d="M508 464l-111 -101c-20 12 -70 49 -133 49c-21 0 -44 -6 -44 -26c0 -19 12 -24 83 -40l74 -17c93 -21 146 -75 146 -156c0 -114 -99 -190 -238 -193l-19 -39c3 1 13 2 26 2c27 0 84 -11 84 -73c0 -51 -50 -88 -121 -88c-35 0 -53 1 -86 7l3 55c5 -1 11 -4 22 -4
c15 0 43 5 43 23c0 11 -13 15 -25 15c-8 0 -23 -2 -38 -6l3 36l51 75c-87 9 -164 45 -229 101l116 105c28 -31 90 -70 160 -70c27 0 54 9 54 34c0 17 -13 25 -52 32c-157 28 -251 60 -251 177c0 86 71 177 235 177c83 0 182 -20 247 -75z" />
    <glyph glyph-name="i.dot" horiz-adv-x="292" 
d="M248 569h-206v137h206v-137zM248 0h-206v518h206v-518z" />
    <glyph glyph-name="zero.numerator" horiz-adv-x="437" 
d="M421 472c0 -145 -80 -237 -207 -237c-121 0 -198 86 -198 223c0 145 79 236 204 236c128 0 201 -86 201 -222zM285 460c0 98 -18 137 -64 137c-48 0 -68 -42 -68 -144c0 -83 20 -119 66 -119c44 0 66 43 66 126z" />
    <glyph glyph-name="one.numerator" horiz-adv-x="437" 
d="M309 243h-139v285c-19 -5 -33 -8 -68 -8h-25v106h9c66 0 88 16 102 59h121v-442z" />
    <glyph glyph-name="two.numerator" horiz-adv-x="437" 
d="M20 243v89c116 65 246 145 246 212c0 36 -27 49 -55 49c-29 0 -56 -11 -56 -62c0 -16 3 -31 4 -37l-137 17c0 95 27 181 204 181c130 0 181 -61 181 -143c0 -100 -80 -146 -165 -196h159v-110h-381z" />
    <glyph glyph-name="three.numerator" horiz-adv-x="437" 
d="M177 424v92h24c23 0 62 0 62 41c0 22 -16 41 -54 41c-39 0 -55 -17 -60 -54l-127 8c13 91 70 142 194 142c118 0 179 -51 179 -127c0 -53 -31 -76 -57 -92c48 -15 71 -56 71 -96c0 -56 -27 -144 -196 -144c-125 0 -184 43 -204 136l128 24c2 -27 17 -61 72 -61
c44 0 60 23 60 49c0 37 -42 41 -64 41h-28z" />
    <glyph glyph-name="four.numerator" horiz-adv-x="437" 
d="M420 332h-63v-89h-130v89h-210v88l204 266h136v-257h63v-97zM141 429h87c1 49 1 82 4 131c-32 -50 -55 -84 -91 -131z" />
    <glyph glyph-name="five.numerator" horiz-adv-x="437" 
d="M405 683l-12 -107h-228l-7 -52c25 14 50 19 83 19c104 0 176 -61 176 -147c0 -97 -81 -161 -202 -161c-109 0 -186 44 -202 144l137 14v-4c0 -36 21 -56 60 -56s62 22 62 58c0 39 -25 63 -65 63c-26 0 -40 -7 -55 -28l-116 14l27 243h342z" />
    <glyph glyph-name="six.numerator" horiz-adv-x="437" 
d="M144 491c27 31 67 46 116 46c97 0 161 -59 161 -147c0 -93 -80 -155 -197 -155c-131 0 -206 78 -206 215c0 153 82 244 220 244c87 0 146 -31 171 -114l-128 -19c-10 26 -28 39 -55 39c-52 0 -82 -36 -82 -97v-12zM286 390c0 38 -25 63 -63 63s-64 -25 -64 -61
c0 -35 25 -58 63 -58c39 0 64 21 64 56z" />
    <glyph glyph-name="seven.numerator" horiz-adv-x="437" 
d="M35 683h362v-84c-101 -111 -143 -193 -170 -356h-147c31 125 92 249 162 333h-207v107z" />
    <glyph glyph-name="eight.numerator" horiz-adv-x="437" 
d="M100 477c-39 26 -54 50 -54 89c0 81 64 127 176 127c110 0 172 -45 172 -125c0 -38 -12 -62 -49 -91c44 -19 68 -56 68 -104c0 -86 -75 -138 -197 -138c-119 0 -192 50 -192 133c0 52 24 87 76 109zM269 559c0 26 -20 42 -51 42s-51 -17 -51 -42s21 -41 51 -41
c31 0 51 16 51 41zM280 378c0 31 -24 51 -61 51c-36 0 -61 -21 -61 -51c0 -29 25 -49 61 -49s61 20 61 49z" />
    <glyph glyph-name="nine.numerator" horiz-adv-x="437" 
d="M293 438c-27 -29 -67 -45 -116 -45c-95 0 -160 57 -160 141c0 94 80 160 194 160c133 0 207 -77 207 -215c0 -153 -82 -244 -220 -244c-95 0 -155 40 -180 118l129 19c9 -28 33 -43 64 -43c51 0 82 36 82 97v12zM151 539c0 -38 25 -62 63 -62s63 25 63 61
c0 34 -25 57 -63 57c-39 0 -63 -22 -63 -56z" />
    <glyph glyph-name="period.numerator" horiz-adv-x="174" 
d="M149 243h-124v133h124v-133z" />
    <glyph glyph-name="comma.numerator" horiz-adv-x="174" 
d="M25 376h124v-109c0 -71 -23 -130 -124 -143v66c30 10 39 21 40 53h-40v133z" />
    <glyph glyph-name="hyphen.numerator" horiz-adv-x="250" 
d="M228 381h-206v117h206v-117z" />
    <glyph glyph-name="parenleft.numerator" horiz-adv-x="246" 
d="M245 184l-51 -56c-106 78 -171 172 -171 306c0 129 65 240 167 319l54 -52c-68 -88 -95 -160 -95 -260c0 -102 28 -189 96 -257z" />
    <glyph glyph-name="parenright.numerator" horiz-adv-x="246" 
d="M1 697l51 56c106 -78 171 -172 171 -306c0 -129 -65 -240 -167 -319l-54 52c68 88 95 160 95 260c0 102 -28 189 -96 257z" />
    <glyph glyph-name="dollar.numerator" horiz-adv-x="435" 
d="M400 636l-71 -87c-25 20 -47 30 -71 33v-61c126 -33 164 -69 164 -141c0 -94 -87 -133 -164 -137v-72h-69v72c-67 7 -122 21 -173 53l71 88c34 -25 67 -37 102 -41v68c-115 29 -165 61 -165 137c0 82 69 134 165 138v63h69v-65c69 -5 110 -26 142 -48zM189 535v49
c-18 0 -33 -7 -33 -23c0 -13 9 -23 33 -26zM258 401v-59c25 2 37 12 37 28s-6 23 -37 31z" />
    <glyph glyph-name="cent.numerator" horiz-adv-x="392" 
d="M270 392l108 -53c-33 -62 -83 -88 -136 -96v-77h-68v77c-105 14 -150 85 -150 172s52 170 150 182v71h68v-70c71 -6 113 -47 136 -87l-108 -57c-8 31 -22 49 -53 49c-37 0 -62 -31 -62 -88c0 -50 23 -75 59 -75c31 0 47 16 56 52z" />
    <glyph glyph-name="sterling.numerator" horiz-adv-x="478" 
d="M343 391h113c1 -19 1 -29 1 -43c0 -82 -44 -115 -107 -115c-40 0 -73 16 -118 43c-26 -22 -55 -42 -112 -42c-56 0 -101 28 -101 82c0 58 52 81 101 81c16 0 27 -2 37 -3c-8 16 -15 26 -24 38h-83v64h42c-16 26 -26 43 -26 79c0 55 46 118 176 118c97 0 187 -26 187 -140
v-22h-118v15c0 23 -6 56 -60 56c-46 0 -55 -33 -55 -48c0 -22 16 -43 29 -58h98v-64h-62c5 -9 16 -28 16 -57c0 -8 -2 -18 -5 -26c20 -14 36 -24 51 -24c21 0 23 17 23 40c0 10 -2 22 -3 26zM164 323c-6 3 -19 12 -39 12c-14 0 -29 -6 -29 -22c0 -12 12 -18 24 -18
c18 0 35 13 44 28z" />
    <glyph glyph-name="yen.numerator" horiz-adv-x="520" 
d="M512 686l-115 -164h66v-63h-111l-21 -30v-5h132v-63h-132v-118h-142v118h-126v63h126v5l-22 30h-104v63h60l-115 164h164l88 -151l88 151h164z" />
    <glyph glyph-name="florin.numerator" horiz-adv-x="328" 
d="M310 684l-12 -96c-6 2 -13 5 -25 5c-19 0 -35 -4 -38 -32l-2 -17h55l-8 -72h-55l-22 -210c-7 -66 -18 -97 -47 -121c-20 -16 -54 -26 -93 -26c-22 0 -46 3 -69 9l12 96c8 -3 17 -5 26 -5c23 0 33 9 37 48l23 209h-49l8 72h50l5 40c11 91 79 109 134 109c27 0 43 -3 70 -9
z" />
    <glyph glyph-name="Euro.numerator" horiz-adv-x="465" 
d="M453 655l-40 -103c-29 27 -55 38 -90 38c-40 0 -73 -15 -87 -48h173l-19 -59h-165c-1 -9 -1 -23 -1 -31h157l-20 -60h-126c12 -36 47 -52 90 -52c37 0 81 18 105 46v-126c-36 -17 -76 -25 -116 -25c-133 0 -200 67 -216 157h-58l18 60h32c0 11 0 19 1 31h-46l18 59h35
c25 96 103 151 210 151c54 0 99 -9 145 -38z" />
    <glyph glyph-name="zero.denominator" horiz-adv-x="437" 
d="M421 229c0 -145 -80 -237 -207 -237c-121 0 -198 86 -198 223c0 145 79 236 204 236c128 0 201 -86 201 -222zM285 217c0 98 -18 137 -64 137c-48 0 -68 -42 -68 -144c0 -83 20 -119 66 -119c44 0 66 43 66 126z" />
    <glyph glyph-name="one.denominator" horiz-adv-x="437" 
d="M309 0h-139v285c-19 -5 -33 -8 -68 -8h-25v106h9c66 0 88 16 102 59h121v-442z" />
    <glyph glyph-name="two.denominator" horiz-adv-x="437" 
d="M20 0v89c116 65 246 145 246 212c0 36 -27 49 -55 49c-29 0 -56 -11 -56 -62c0 -16 3 -31 4 -37l-137 17c0 95 27 181 204 181c130 0 181 -61 181 -143c0 -100 -80 -146 -165 -196h159v-110h-381z" />
    <glyph glyph-name="three.denominator" horiz-adv-x="437" 
d="M177 181v92h24c23 0 62 0 62 41c0 22 -16 41 -54 41c-39 0 -55 -17 -60 -54l-127 8c13 91 70 142 194 142c118 0 179 -51 179 -127c0 -53 -31 -76 -57 -92c48 -15 71 -56 71 -96c0 -56 -27 -144 -196 -144c-125 0 -184 43 -204 136l128 24c2 -27 17 -61 72 -61
c44 0 60 23 60 49c0 37 -42 41 -64 41h-28z" />
    <glyph glyph-name="four.denominator" horiz-adv-x="437" 
d="M420 89h-63v-89h-130v89h-210v88l204 266h136v-257h63v-97zM141 186h87c1 49 1 82 4 131c-32 -50 -55 -84 -91 -131z" />
    <glyph glyph-name="five.denominator" horiz-adv-x="437" 
d="M405 440l-12 -107h-228l-7 -52c25 14 50 19 83 19c104 0 176 -61 176 -147c0 -97 -81 -161 -202 -161c-109 0 -186 44 -202 144l137 14v-4c0 -36 21 -56 60 -56s62 22 62 58c0 39 -25 63 -65 63c-26 0 -40 -7 -55 -28l-116 14l27 243h342z" />
    <glyph glyph-name="six.denominator" horiz-adv-x="437" 
d="M144 248c27 31 67 46 116 46c97 0 161 -59 161 -147c0 -93 -80 -155 -197 -155c-131 0 -206 78 -206 215c0 153 82 244 220 244c87 0 146 -31 171 -114l-128 -19c-10 26 -28 39 -55 39c-52 0 -82 -36 -82 -97v-12zM286 147c0 38 -25 63 -63 63s-64 -25 -64 -61
c0 -35 25 -58 63 -58c39 0 64 21 64 56z" />
    <glyph glyph-name="seven.denominator" horiz-adv-x="437" 
d="M35 440h362v-84c-101 -111 -143 -193 -170 -356h-147c31 125 92 249 162 333h-207v107z" />
    <glyph glyph-name="eight.denominator" horiz-adv-x="437" 
d="M100 234c-39 26 -54 50 -54 89c0 81 64 127 176 127c110 0 172 -45 172 -125c0 -38 -12 -62 -49 -91c44 -19 68 -56 68 -104c0 -86 -75 -138 -197 -138c-119 0 -192 50 -192 133c0 52 24 87 76 109zM269 316c0 26 -20 42 -51 42s-51 -17 -51 -42s21 -41 51 -41
c31 0 51 16 51 41zM280 135c0 31 -24 51 -61 51c-36 0 -61 -21 -61 -51c0 -29 25 -49 61 -49s61 20 61 49z" />
    <glyph glyph-name="nine.denominator" horiz-adv-x="437" 
d="M293 195c-27 -29 -67 -45 -116 -45c-95 0 -160 57 -160 141c0 94 80 160 194 160c133 0 207 -77 207 -215c0 -153 -82 -244 -220 -244c-95 0 -155 40 -180 118l129 19c9 -28 33 -43 64 -43c51 0 82 36 82 97v12zM151 296c0 -38 25 -62 63 -62s63 25 63 61
c0 34 -25 57 -63 57c-39 0 -63 -22 -63 -56z" />
    <glyph glyph-name="period.denominator" horiz-adv-x="174" 
d="M149 0h-124v133h124v-133z" />
    <glyph glyph-name="comma.denominator" horiz-adv-x="174" 
d="M25 133h124v-109c0 -71 -23 -130 -124 -143v66c30 10 39 21 40 53h-40v133z" />
    <glyph glyph-name="hyphen.denominator" horiz-adv-x="250" 
d="M228 138h-206v117h206v-117z" />
    <glyph glyph-name="parenleft.denominator" horiz-adv-x="246" 
d="M245 -59l-51 -56c-106 78 -171 172 -171 306c0 129 65 240 167 319l54 -52c-68 -88 -95 -160 -95 -260c0 -102 28 -189 96 -257z" />
    <glyph glyph-name="parenright.denominator" horiz-adv-x="246" 
d="M1 454l51 56c106 -78 171 -172 171 -306c0 -129 -65 -240 -167 -319l-54 52c68 88 95 160 95 260c0 102 -28 189 -96 257z" />
    <glyph glyph-name="dollar.denominator" horiz-adv-x="435" 
d="M400 393l-71 -87c-25 20 -47 30 -71 33v-61c126 -33 164 -69 164 -141c0 -94 -87 -133 -164 -137v-72h-69v72c-67 7 -122 21 -173 53l71 88c34 -25 67 -37 102 -41v68c-115 29 -165 61 -165 137c0 82 69 134 165 138v63h69v-65c69 -5 110 -26 142 -48zM189 292v49
c-18 0 -33 -7 -33 -23c0 -13 9 -23 33 -26zM258 158v-59c25 2 37 12 37 28s-6 23 -37 31z" />
    <glyph glyph-name="cent.denominator" horiz-adv-x="392" 
d="M270 149l108 -53c-33 -62 -83 -88 -136 -96v-77h-68v77c-105 14 -150 85 -150 172s52 170 150 182v71h68v-70c71 -6 113 -47 136 -87l-108 -57c-8 31 -22 49 -53 49c-37 0 -62 -31 -62 -88c0 -50 23 -75 59 -75c31 0 47 16 56 52z" />
    <glyph glyph-name="sterling.denominator" horiz-adv-x="478" 
d="M343 148h113c1 -19 1 -29 1 -43c0 -82 -44 -115 -107 -115c-40 0 -73 16 -118 43c-26 -22 -55 -42 -112 -42c-56 0 -101 28 -101 82c0 58 52 81 101 81c16 0 27 -2 37 -3c-8 16 -15 26 -24 38h-83v64h42c-16 26 -26 43 -26 79c0 55 46 118 176 118c97 0 187 -26 187 -140
v-22h-118v15c0 23 -6 56 -60 56c-46 0 -55 -33 -55 -48c0 -22 16 -43 29 -58h98v-64h-62c5 -9 16 -28 16 -57c0 -8 -2 -18 -5 -26c20 -14 36 -24 51 -24c21 0 23 17 23 40c0 10 -2 22 -3 26zM164 80c-6 3 -19 12 -39 12c-14 0 -29 -6 -29 -22c0 -12 12 -18 24 -18
c18 0 35 13 44 28z" />
    <glyph glyph-name="yen.denominator" horiz-adv-x="520" 
d="M512 443l-115 -164h66v-63h-111l-21 -30v-5h132v-63h-132v-118h-142v118h-126v63h126v5l-22 30h-104v63h60l-115 164h164l88 -151l88 151h164z" />
    <glyph glyph-name="florin.denominator" horiz-adv-x="328" 
d="M310 441l-12 -96c-6 2 -13 5 -25 5c-19 0 -35 -4 -38 -32l-2 -17h55l-8 -72h-55l-22 -210c-7 -66 -18 -97 -47 -121c-20 -16 -54 -26 -93 -26c-22 0 -46 3 -69 9l12 96c8 -3 17 -5 26 -5c23 0 33 9 37 48l23 209h-49l8 72h50l5 40c11 91 79 109 134 109c27 0 43 -3 70 -9
z" />
    <glyph glyph-name="Euro.denominator" horiz-adv-x="465" 
d="M453 412l-40 -103c-29 27 -55 38 -90 38c-40 0 -73 -15 -87 -48h173l-19 -59h-165c-1 -9 -1 -23 -1 -31h157l-20 -60h-126c12 -36 47 -52 90 -52c37 0 81 18 105 46v-126c-36 -17 -76 -25 -116 -25c-133 0 -200 67 -216 157h-58l18 60h32c0 11 0 19 1 31h-46l18 59h35
c25 96 103 151 210 151c54 0 99 -9 145 -38z" />
    <glyph glyph-name="zero.superior" unicode="&#x2070;" horiz-adv-x="437" 
d="M421 654c0 -145 -80 -237 -207 -237c-121 0 -198 86 -198 223c0 145 79 236 204 236c128 0 201 -86 201 -222zM285 642c0 98 -18 137 -64 137c-48 0 -68 -42 -68 -144c0 -83 20 -119 66 -119c44 0 66 43 66 126z" />
    <glyph glyph-name="one.superior" horiz-adv-x="437" 
d="M309 425h-139v285c-19 -5 -33 -8 -68 -8h-25v106h9c66 0 88 16 102 59h121v-442z" />
    <glyph glyph-name="two.superior" horiz-adv-x="437" 
d="M20 425v89c116 65 246 145 246 212c0 36 -27 49 -55 49c-29 0 -56 -11 -56 -62c0 -16 3 -31 4 -37l-137 17c0 95 27 181 204 181c130 0 181 -61 181 -143c0 -100 -80 -146 -165 -196h159v-110h-381z" />
    <glyph glyph-name="three.superior" horiz-adv-x="437" 
d="M177 606v92h24c23 0 62 0 62 41c0 22 -16 41 -54 41c-39 0 -55 -17 -60 -54l-127 8c13 91 70 142 194 142c118 0 179 -51 179 -127c0 -53 -31 -76 -57 -92c48 -15 71 -56 71 -96c0 -56 -27 -144 -196 -144c-125 0 -184 43 -204 136l128 24c2 -27 17 -61 72 -61
c44 0 60 23 60 49c0 37 -42 41 -64 41h-28z" />
    <glyph glyph-name="four.superior" unicode="&#x2074;" horiz-adv-x="437" 
d="M420 514h-63v-89h-130v89h-210v88l204 266h136v-257h63v-97zM141 611h87c1 49 1 82 4 131c-32 -50 -55 -84 -91 -131z" />
    <glyph glyph-name="five.superior" unicode="&#x2075;" horiz-adv-x="437" 
d="M405 865l-12 -107h-228l-7 -52c25 14 50 19 83 19c104 0 176 -61 176 -147c0 -97 -81 -161 -202 -161c-109 0 -186 44 -202 144l137 14v-4c0 -36 21 -56 60 -56s62 22 62 58c0 39 -25 63 -65 63c-26 0 -40 -7 -55 -28l-116 14l27 243h342z" />
    <glyph glyph-name="six.superior" unicode="&#x2076;" horiz-adv-x="437" 
d="M144 673c27 31 67 46 116 46c97 0 161 -59 161 -147c0 -93 -80 -155 -197 -155c-131 0 -206 78 -206 215c0 153 82 244 220 244c87 0 146 -31 171 -114l-128 -19c-10 26 -28 39 -55 39c-52 0 -82 -36 -82 -97v-12zM286 572c0 38 -25 63 -63 63s-64 -25 -64 -61
c0 -35 25 -58 63 -58c39 0 64 21 64 56z" />
    <glyph glyph-name="seven.superior" unicode="&#x2077;" horiz-adv-x="437" 
d="M35 865h362v-84c-101 -111 -143 -193 -170 -356h-147c31 125 92 249 162 333h-207v107z" />
    <glyph glyph-name="eight.superior" unicode="&#x2078;" horiz-adv-x="437" 
d="M100 659c-39 26 -54 50 -54 89c0 81 64 127 176 127c110 0 172 -45 172 -125c0 -38 -12 -62 -49 -91c44 -19 68 -56 68 -104c0 -86 -75 -138 -197 -138c-119 0 -192 50 -192 133c0 52 24 87 76 109zM269 741c0 26 -20 42 -51 42s-51 -17 -51 -42s21 -41 51 -41
c31 0 51 16 51 41zM280 560c0 31 -24 51 -61 51c-36 0 -61 -21 -61 -51c0 -29 25 -49 61 -49s61 20 61 49z" />
    <glyph glyph-name="nine.superior" unicode="&#x2079;" horiz-adv-x="437" 
d="M293 620c-27 -29 -67 -45 -116 -45c-95 0 -160 57 -160 141c0 94 80 160 194 160c133 0 207 -77 207 -215c0 -153 -82 -244 -220 -244c-95 0 -155 40 -180 118l129 19c9 -28 33 -43 64 -43c51 0 82 36 82 97v12zM151 721c0 -38 25 -62 63 -62s63 25 63 61
c0 34 -25 57 -63 57c-39 0 -63 -22 -63 -56z" />
    <glyph glyph-name="period.superior" horiz-adv-x="174" 
d="M149 425h-124v133h124v-133z" />
    <glyph glyph-name="comma.superior" horiz-adv-x="174" 
d="M25 558h124v-109c0 -71 -23 -130 -124 -143v66c30 10 39 21 40 53h-40v133z" />
    <glyph glyph-name="hyphen.superior" horiz-adv-x="250" 
d="M228 563h-206v117h206v-117z" />
    <glyph glyph-name="parenleft.superior" unicode="&#x207d;" horiz-adv-x="246" 
d="M245 366l-51 -56c-106 78 -171 172 -171 306c0 129 65 240 167 319l54 -52c-68 -88 -95 -160 -95 -260c0 -102 28 -189 96 -257z" />
    <glyph glyph-name="parenright.superior" unicode="&#x207e;" horiz-adv-x="246" 
d="M1 879l51 56c106 -78 171 -172 171 -306c0 -129 -65 -240 -167 -319l-54 52c68 88 95 160 95 260c0 102 -28 189 -96 257z" />
    <glyph glyph-name="dollar.superior" horiz-adv-x="435" 
d="M400 818l-71 -87c-25 20 -47 30 -71 33v-61c126 -33 164 -69 164 -141c0 -94 -87 -133 -164 -137v-72h-69v72c-67 7 -122 21 -173 53l71 88c34 -25 67 -37 102 -41v68c-115 29 -165 61 -165 137c0 82 69 134 165 138v63h69v-65c69 -5 110 -26 142 -48zM189 717v49
c-18 0 -33 -7 -33 -23c0 -13 9 -23 33 -26zM258 583v-59c25 2 37 12 37 28s-6 23 -37 31z" />
    <glyph glyph-name="cent.superior" horiz-adv-x="392" 
d="M270 574l108 -53c-33 -62 -83 -88 -136 -96v-77h-68v77c-105 14 -150 85 -150 172s52 170 150 182v71h68v-70c71 -6 113 -47 136 -87l-108 -57c-8 31 -22 49 -53 49c-37 0 -62 -31 -62 -88c0 -50 23 -75 59 -75c31 0 47 16 56 52z" />
    <glyph glyph-name="sterling.superior" horiz-adv-x="478" 
d="M343 573h113c1 -19 1 -29 1 -43c0 -82 -44 -115 -107 -115c-40 0 -73 16 -118 43c-26 -22 -55 -42 -112 -42c-56 0 -101 28 -101 82c0 58 52 81 101 81c16 0 27 -2 37 -3c-8 16 -15 26 -24 38h-83v64h42c-16 26 -26 43 -26 79c0 55 46 118 176 118c97 0 187 -26 187 -140
v-22h-118v15c0 23 -6 56 -60 56c-46 0 -55 -33 -55 -48c0 -22 16 -43 29 -58h98v-64h-62c5 -9 16 -28 16 -57c0 -8 -2 -18 -5 -26c20 -14 36 -24 51 -24c21 0 23 17 23 40c0 10 -2 22 -3 26zM164 505c-6 3 -19 12 -39 12c-14 0 -29 -6 -29 -22c0 -12 12 -18 24 -18
c18 0 35 13 44 28z" />
    <glyph glyph-name="yen.superior" horiz-adv-x="520" 
d="M512 868l-115 -164h66v-63h-111l-21 -30v-5h132v-63h-132v-118h-142v118h-126v63h126v5l-22 30h-104v63h60l-115 164h164l88 -151l88 151h164z" />
    <glyph glyph-name="florin.superior" horiz-adv-x="328" 
d="M310 866l-12 -96c-6 2 -13 5 -25 5c-19 0 -35 -4 -38 -32l-2 -17h55l-8 -72h-55l-22 -210c-7 -66 -18 -97 -47 -121c-20 -16 -54 -26 -93 -26c-22 0 -46 3 -69 9l12 96c8 -3 17 -5 26 -5c23 0 33 9 37 48l23 209h-49l8 72h50l5 40c11 91 79 109 134 109c27 0 43 -3 70 -9
z" />
    <glyph glyph-name="Euro.superior" horiz-adv-x="465" 
d="M453 837l-40 -103c-29 27 -55 38 -90 38c-40 0 -73 -15 -87 -48h173l-19 -59h-165c-1 -9 -1 -23 -1 -31h157l-20 -60h-126c12 -36 47 -52 90 -52c37 0 81 18 105 46v-126c-36 -17 -76 -25 -116 -25c-133 0 -200 67 -216 157h-58l18 60h32c0 11 0 19 1 31h-46l18 59h35
c25 96 103 151 210 151c54 0 99 -9 145 -38z" />
    <glyph glyph-name="zero.inferior" unicode="&#x2080;" horiz-adv-x="437" 
d="M421 64c0 -145 -80 -237 -207 -237c-121 0 -198 86 -198 223c0 145 79 236 204 236c128 0 201 -86 201 -222zM285 52c0 98 -18 137 -64 137c-48 0 -68 -42 -68 -144c0 -83 20 -119 66 -119c44 0 66 43 66 126z" />
    <glyph glyph-name="one.inferior" unicode="&#x2081;" horiz-adv-x="437" 
d="M309 -165h-139v285c-19 -5 -33 -8 -68 -8h-25v106h9c66 0 88 16 102 59h121v-442z" />
    <glyph glyph-name="two.inferior" unicode="&#x2082;" horiz-adv-x="437" 
d="M20 -165v89c116 65 246 145 246 212c0 36 -27 49 -55 49c-29 0 -56 -11 -56 -62c0 -16 3 -31 4 -37l-137 17c0 95 27 181 204 181c130 0 181 -61 181 -143c0 -100 -80 -146 -165 -196h159v-110h-381z" />
    <glyph glyph-name="three.inferior" unicode="&#x2083;" horiz-adv-x="437" 
d="M177 16v92h24c23 0 62 0 62 41c0 22 -16 41 -54 41c-39 0 -55 -17 -60 -54l-127 8c13 91 70 142 194 142c118 0 179 -51 179 -127c0 -53 -31 -76 -57 -92c48 -15 71 -56 71 -96c0 -56 -27 -144 -196 -144c-125 0 -184 43 -204 136l128 24c2 -27 17 -61 72 -61
c44 0 60 23 60 49c0 37 -42 41 -64 41h-28z" />
    <glyph glyph-name="four.inferior" unicode="&#x2084;" horiz-adv-x="437" 
d="M420 -76h-63v-89h-130v89h-210v88l204 266h136v-257h63v-97zM141 21h87c1 49 1 82 4 131c-32 -50 -55 -84 -91 -131z" />
    <glyph glyph-name="five.inferior" unicode="&#x2085;" horiz-adv-x="437" 
d="M405 275l-12 -107h-228l-7 -52c25 14 50 19 83 19c104 0 176 -61 176 -147c0 -97 -81 -161 -202 -161c-109 0 -186 44 -202 144l137 14v-4c0 -36 21 -56 60 -56s62 22 62 58c0 39 -25 63 -65 63c-26 0 -40 -7 -55 -28l-116 14l27 243h342z" />
    <glyph glyph-name="six.inferior" unicode="&#x2086;" horiz-adv-x="437" 
d="M144 83c27 31 67 46 116 46c97 0 161 -59 161 -147c0 -93 -80 -155 -197 -155c-131 0 -206 78 -206 215c0 153 82 244 220 244c87 0 146 -31 171 -114l-128 -19c-10 26 -28 39 -55 39c-52 0 -82 -36 -82 -97v-12zM286 -18c0 38 -25 63 -63 63s-64 -25 -64 -61
c0 -35 25 -58 63 -58c39 0 64 21 64 56z" />
    <glyph glyph-name="seven.inferior" unicode="&#x2087;" horiz-adv-x="437" 
d="M35 275h362v-84c-101 -111 -143 -193 -170 -356h-147c31 125 92 249 162 333h-207v107z" />
    <glyph glyph-name="eight.inferior" unicode="&#x2088;" horiz-adv-x="437" 
d="M100 69c-39 26 -54 50 -54 89c0 81 64 127 176 127c110 0 172 -45 172 -125c0 -38 -12 -62 -49 -91c44 -19 68 -56 68 -104c0 -86 -75 -138 -197 -138c-119 0 -192 50 -192 133c0 52 24 87 76 109zM269 151c0 26 -20 42 -51 42s-51 -17 -51 -42s21 -41 51 -41
c31 0 51 16 51 41zM280 -30c0 31 -24 51 -61 51c-36 0 -61 -21 -61 -51c0 -29 25 -49 61 -49s61 20 61 49z" />
    <glyph glyph-name="nine.inferior" unicode="&#x2089;" horiz-adv-x="437" 
d="M293 30c-27 -29 -67 -45 -116 -45c-95 0 -160 57 -160 141c0 94 80 160 194 160c133 0 207 -77 207 -215c0 -153 -82 -244 -220 -244c-95 0 -155 40 -180 118l129 19c9 -28 33 -43 64 -43c51 0 82 36 82 97v12zM151 131c0 -38 25 -62 63 -62s63 25 63 61
c0 34 -25 57 -63 57c-39 0 -63 -22 -63 -56z" />
    <glyph glyph-name="period.inferior" horiz-adv-x="174" 
d="M149 -165h-124v133h124v-133z" />
    <glyph glyph-name="comma.inferior" horiz-adv-x="174" 
d="M25 -32h124v-109c0 -71 -23 -130 -124 -143v66c30 10 39 21 40 53h-40v133z" />
    <glyph glyph-name="hyphen.inferior" horiz-adv-x="250" 
d="M228 -27h-206v117h206v-117z" />
    <glyph glyph-name="parenleft.inferior" unicode="&#x208d;" horiz-adv-x="246" 
d="M245 -224l-51 -56c-106 78 -171 172 -171 306c0 129 65 240 167 319l54 -52c-68 -88 -95 -160 -95 -260c0 -102 28 -189 96 -257z" />
    <glyph glyph-name="parenright.inferior" unicode="&#x208e;" horiz-adv-x="246" 
d="M1 289l51 56c106 -78 171 -172 171 -306c0 -129 -65 -240 -167 -319l-54 52c68 88 95 160 95 260c0 102 -28 189 -96 257z" />
    <glyph glyph-name="dollar.inferior" horiz-adv-x="435" 
d="M400 228l-71 -87c-25 20 -47 30 -71 33v-61c126 -33 164 -69 164 -141c0 -94 -87 -133 -164 -137v-72h-69v72c-67 7 -122 21 -173 53l71 88c34 -25 67 -37 102 -41v68c-115 29 -165 61 -165 137c0 82 69 134 165 138v63h69v-65c69 -5 110 -26 142 -48zM189 127v49
c-18 0 -33 -7 -33 -23c0 -13 9 -23 33 -26zM258 -7v-59c25 2 37 12 37 28s-6 23 -37 31z" />
    <glyph glyph-name="cent.inferior" horiz-adv-x="392" 
d="M270 -16l108 -53c-33 -62 -83 -88 -136 -96v-77h-68v77c-105 14 -150 85 -150 172s52 170 150 182v71h68v-70c71 -6 113 -47 136 -87l-108 -57c-8 31 -22 49 -53 49c-37 0 -62 -31 -62 -88c0 -50 23 -75 59 -75c31 0 47 16 56 52z" />
    <glyph glyph-name="sterling.inferior" horiz-adv-x="478" 
d="M343 -17h113c1 -19 1 -29 1 -43c0 -82 -44 -115 -107 -115c-40 0 -73 16 -118 43c-26 -22 -55 -42 -112 -42c-56 0 -101 28 -101 82c0 58 52 81 101 81c16 0 27 -2 37 -3c-8 16 -15 26 -24 38h-83v64h42c-16 26 -26 43 -26 79c0 55 46 118 176 118c97 0 187 -26 187 -140
v-22h-118v15c0 23 -6 56 -60 56c-46 0 -55 -33 -55 -48c0 -22 16 -43 29 -58h98v-64h-62c5 -9 16 -28 16 -57c0 -8 -2 -18 -5 -26c20 -14 36 -24 51 -24c21 0 23 17 23 40c0 10 -2 22 -3 26zM164 -85c-6 3 -19 12 -39 12c-14 0 -29 -6 -29 -22c0 -12 12 -18 24 -18
c18 0 35 13 44 28z" />
    <glyph glyph-name="yen.inferior" horiz-adv-x="520" 
d="M512 278l-115 -164h66v-63h-111l-21 -30v-5h132v-63h-132v-118h-142v118h-126v63h126v5l-22 30h-104v63h60l-115 164h164l88 -151l88 151h164z" />
    <glyph glyph-name="florin.inferior" horiz-adv-x="328" 
d="M310 276l-12 -96c-6 2 -13 5 -25 5c-19 0 -35 -4 -38 -32l-2 -17h55l-8 -72h-55l-22 -210c-7 -66 -18 -97 -47 -121c-20 -16 -54 -26 -93 -26c-22 0 -46 3 -69 9l12 96c8 -3 17 -5 26 -5c23 0 33 9 37 48l23 209h-49l8 72h50l5 40c11 91 79 109 134 109c27 0 43 -3 70 -9
z" />
    <glyph glyph-name="Euro.inferior" horiz-adv-x="465" 
d="M453 247l-40 -103c-29 27 -55 38 -90 38c-40 0 -73 -15 -87 -48h173l-19 -59h-165c-1 -9 -1 -23 -1 -31h157l-20 -60h-126c12 -36 47 -52 90 -52c37 0 81 18 105 46v-126c-36 -17 -76 -25 -116 -25c-133 0 -200 67 -216 157h-58l18 60h32c0 11 0 19 1 31h-46l18 59h35
c25 96 103 151 210 151c54 0 99 -9 145 -38z" />
    <glyph glyph-name="zero.fitted" 
d="M623 351c0 -137 -60 -369 -309 -369c-196 0 -294 154 -294 351c0 172 80 367 304 367c171 0 299 -114 299 -349zM420 335c0 136 -19 229 -96 229c-97 0 -100 -146 -100 -244c0 -69 2 -197 97 -197c84 0 99 107 99 212z" />
    <glyph glyph-name="one.fitted" horiz-adv-x="479" 
d="M381 0h-206v456c-33 -12 -61 -17 -147 -17v155h26c54 0 131 17 149 93h178v-687z" />
    <glyph glyph-name="two.fitted" horiz-adv-x="614" 
d="M587 160v-160h-570v130c55 36 110 73 163 112c46 33 91 67 133 105c38 35 75 71 75 126c0 43 -22 80 -82 80c-40 0 -88 -17 -88 -102c0 -22 1 -30 7 -50l-203 24v16c0 193 127 256 301 256c206 0 273 -104 273 -221c0 -39 -6 -99 -69 -167c-44 -48 -99 -83 -215 -149h275
z" />
    <glyph glyph-name="three.fitted" horiz-adv-x="634" 
d="M248 281v136c19 -2 26 -3 46 -3c33 0 112 5 112 75c0 32 -20 72 -93 72c-85 0 -93 -75 -96 -102l-189 11c18 164 127 229 298 229c170 0 275 -74 275 -193c0 -72 -36 -124 -110 -150c60 -17 132 -48 132 -153c0 -140 -110 -217 -311 -217c-156 0 -278 45 -307 220l191 36
c5 -63 32 -115 112 -115c73 0 106 32 106 87c0 58 -57 72 -112 72c-28 0 -39 -1 -54 -5z" />
    <glyph glyph-name="four.fitted" horiz-adv-x="636" 
d="M619 143h-88v-143h-196v143h-320v137l312 408h204v-409h88v-136zM336 279v211l-157 -211h157z" />
    <glyph glyph-name="five.fitted" horiz-adv-x="639" 
d="M601 683l-14 -143h-350l-9 -96c49 27 117 30 133 30c141 0 261 -90 261 -231c0 -143 -103 -260 -304 -260c-174 0 -276 66 -301 225l204 20v-8c0 -59 24 -99 91 -99c63 0 102 43 102 107c0 67 -42 106 -105 106c-13 0 -60 0 -84 -44l-172 21l39 372h509z" />
    <glyph glyph-name="six.fitted" 
d="M610 523l-195 -30c-10 67 -61 73 -80 73c-86 0 -127 -80 -127 -182c8 10 58 71 178 71c134 0 241 -92 241 -228c0 -155 -134 -244 -294 -244c-196 0 -315 114 -315 342c0 196 90 375 328 375c162 0 227 -64 264 -177zM430 222c0 69 -49 104 -100 104
c-68 0 -104 -55 -104 -105c0 -60 43 -105 102 -105c78 0 102 61 102 106z" />
    <glyph glyph-name="seven.fitted" horiz-adv-x="563" 
d="M5 533v156h551v-132c-134 -123 -231 -333 -259 -557h-215c45 220 154 409 254 533h-331z" />
    <glyph glyph-name="eight.fitted" 
d="M137 362c-59 35 -84 80 -84 141c0 123 108 195 277 195c106 0 267 -35 267 -193c0 -60 -19 -99 -79 -142c78 -36 108 -91 108 -163c0 -146 -133 -215 -309 -215c-163 0 -299 71 -299 210c0 97 65 148 119 167zM411 496c0 38 -28 70 -91 70c-55 0 -86 -29 -86 -70
c0 -28 22 -72 90 -72c69 0 87 44 87 72zM426 205c0 35 -26 85 -105 85c-53 0 -102 -31 -102 -89c0 -32 19 -86 102 -86c85 0 105 55 105 90z" />
    <glyph glyph-name="nine.fitted" 
d="M34 161l195 29c10 -67 62 -73 80 -73c81 0 127 78 127 169v14c-18 -29 -82 -72 -174 -72c-156 0 -245 107 -245 228c0 135 108 244 294 244c212 0 315 -130 315 -342c0 -199 -95 -375 -333 -375c-127 0 -229 51 -259 178zM417 463c0 63 -41 104 -101 104
c-73 0 -102 -58 -102 -105c0 -64 43 -104 99 -104c61 0 104 40 104 105z" />
    <glyph glyph-name="oneeighth" unicode="&#x215b;" horiz-adv-x="1000" 
d="M666 706l-302 -706h-92l302 706h92zM299 243h-139v285c-19 -5 -33 -8 -68 -8h-25v106h9c66 0 88 16 102 59h121v-442zM641 234c-39 26 -54 50 -54 89c0 81 64 127 176 127c110 0 172 -45 172 -125c0 -38 -12 -62 -49 -91c44 -19 68 -56 68 -104c0 -86 -75 -138 -197 -138
c-119 0 -192 50 -192 133c0 52 24 87 76 109zM810 316c0 26 -20 42 -51 42s-51 -17 -51 -42s21 -41 51 -41c31 0 51 16 51 41zM821 135c0 31 -24 51 -61 51c-36 0 -61 -21 -61 -51c0 -29 25 -49 61 -49s61 20 61 49z" />
    <glyph glyph-name="threeeighths" unicode="&#x215c;" horiz-adv-x="1000" 
d="M704 706l-302 -706h-92l302 706h92zM651 234c-39 26 -54 50 -54 89c0 81 64 127 176 127c110 0 172 -45 172 -125c0 -38 -12 -62 -49 -91c44 -19 68 -56 68 -104c0 -86 -75 -138 -197 -138c-119 0 -192 50 -192 133c0 52 24 87 76 109zM820 316c0 26 -20 42 -51 42
s-51 -17 -51 -42s21 -41 51 -41c31 0 51 16 51 41zM831 135c0 31 -24 51 -61 51c-36 0 -61 -21 -61 -51c0 -29 25 -49 61 -49s61 20 61 49zM177 424v92h24c23 0 62 0 62 41c0 22 -16 41 -54 41c-39 0 -55 -17 -60 -54l-127 8c13 91 70 142 194 142c118 0 179 -51 179 -127
c0 -53 -31 -76 -57 -92c48 -15 71 -56 71 -96c0 -56 -27 -144 -196 -144c-125 0 -184 43 -204 136l128 24c2 -27 17 -61 72 -61c44 0 60 23 60 49c0 37 -42 41 -64 41h-28z" />
    <glyph glyph-name="fiveeighths" unicode="&#x215d;" horiz-adv-x="1000" 
d="M703 706l-302 -706h-92l302 706h92zM651 234c-39 26 -54 50 -54 89c0 81 64 127 176 127c110 0 172 -45 172 -125c0 -38 -12 -62 -49 -91c44 -19 68 -56 68 -104c0 -86 -75 -138 -197 -138c-119 0 -192 50 -192 133c0 52 24 87 76 109zM820 316c0 26 -20 42 -51 42
s-51 -17 -51 -42s21 -41 51 -41c31 0 51 16 51 41zM831 135c0 31 -24 51 -61 51c-36 0 -61 -21 -61 -51c0 -29 25 -49 61 -49s61 20 61 49zM405 683l-12 -107h-228l-7 -52c25 14 50 19 83 19c104 0 176 -61 176 -147c0 -97 -81 -161 -202 -161c-109 0 -186 44 -202 144
l137 14v-4c0 -36 21 -56 60 -56s62 22 62 58c0 39 -25 63 -65 63c-26 0 -40 -7 -55 -28l-116 14l27 243h342z" />
    <glyph glyph-name="seveneighths" unicode="&#x215e;" horiz-adv-x="1000" 
d="M640 706l-302 -706h-92l302 706h92zM651 234c-39 26 -54 50 -54 89c0 81 64 127 176 127c110 0 172 -45 172 -125c0 -38 -12 -62 -49 -91c44 -19 68 -56 68 -104c0 -86 -75 -138 -197 -138c-119 0 -192 50 -192 133c0 52 24 87 76 109zM820 316c0 26 -20 42 -51 42
s-51 -17 -51 -42s21 -41 51 -41c31 0 51 16 51 41zM831 135c0 31 -24 51 -61 51c-36 0 -61 -21 -61 -51c0 -29 25 -49 61 -49s61 20 61 49zM35 683h362v-84c-101 -111 -143 -193 -170 -356h-147c31 125 92 249 162 333h-207v107z" />
    <glyph glyph-name="onethird" unicode="&#x2153;" horiz-adv-x="1000" 
d="M661 706l-302 -706h-92l302 706h92zM294 243h-139v285c-19 -5 -33 -8 -68 -8h-25v106h9c66 0 88 16 102 59h121v-442zM737 181v92h24c23 0 62 0 62 41c0 22 -16 41 -54 41c-39 0 -55 -17 -60 -54l-127 8c13 91 70 142 194 142c118 0 179 -51 179 -127
c0 -53 -31 -76 -57 -92c48 -15 71 -56 71 -96c0 -56 -27 -144 -196 -144c-125 0 -184 43 -204 136l128 24c2 -27 17 -61 72 -61c44 0 60 23 60 49c0 37 -42 41 -64 41h-28z" />
    <glyph glyph-name="twothirds" unicode="&#x2154;" horiz-adv-x="1000" 
d="M723 706l-302 -706h-92l302 706h92zM758 181v92h24c23 0 62 0 62 41c0 22 -16 41 -54 41c-39 0 -55 -17 -60 -54l-127 8c13 91 70 142 194 142c118 0 179 -51 179 -127c0 -53 -31 -76 -57 -92c48 -15 71 -56 71 -96c0 -56 -27 -144 -196 -144c-125 0 -184 43 -204 136
l128 24c2 -27 17 -61 72 -61c44 0 60 23 60 49c0 37 -42 41 -64 41h-28zM20 243v89c116 65 246 145 246 212c0 36 -27 49 -55 49c-29 0 -56 -11 -56 -62c0 -16 3 -31 4 -37l-137 17c0 95 27 181 204 181c130 0 181 -61 181 -143c0 -100 -80 -146 -165 -196h159v-110h-381z
" />
    <glyph glyph-name="onefifth" horiz-adv-x="1000" 
d="M664 706l-302 -706h-92l302 706h92zM297 243h-139v285c-19 -5 -33 -8 -68 -8h-25v106h9c66 0 88 16 102 59h121v-442zM946 440l-12 -107h-228l-7 -52c25 14 50 19 83 19c104 0 176 -61 176 -147c0 -97 -81 -161 -202 -161c-109 0 -186 44 -202 144l137 14v-4
c0 -36 21 -56 60 -56s62 22 62 58c0 39 -25 63 -65 63c-26 0 -40 -7 -55 -28l-116 14l27 243h342z" />
    <glyph glyph-name="twofifths" horiz-adv-x="1000" 
d="M709 706l-302 -706h-92l302 706h92zM971 440l-12 -107h-228l-7 -52c25 14 50 19 83 19c104 0 176 -61 176 -147c0 -97 -81 -161 -202 -161c-109 0 -186 44 -202 144l137 14v-4c0 -36 21 -56 60 -56s62 22 62 58c0 39 -25 63 -65 63c-26 0 -40 -7 -55 -28l-116 14l27 243
h342zM11 243v89c116 65 246 145 246 212c0 36 -27 49 -55 49c-29 0 -56 -11 -56 -62c0 -16 3 -31 4 -37l-137 17c0 95 27 181 204 181c130 0 181 -61 181 -143c0 -100 -80 -146 -165 -196h159v-110h-381z" />
    <glyph glyph-name="threefifths" horiz-adv-x="1000" 
d="M697 706l-302 -706h-92l302 706h92zM963 440l-12 -107h-228l-7 -52c25 14 50 19 83 19c104 0 176 -61 176 -147c0 -97 -81 -161 -202 -161c-109 0 -186 44 -202 144l137 14v-4c0 -36 21 -56 60 -56s62 22 62 58c0 39 -25 63 -65 63c-26 0 -40 -7 -55 -28l-116 14l27 243
h342zM182 424v92h24c23 0 62 0 62 41c0 22 -16 41 -54 41c-39 0 -55 -17 -60 -54l-127 8c13 91 70 142 194 142c118 0 179 -51 179 -127c0 -53 -31 -76 -57 -92c48 -15 71 -56 71 -96c0 -56 -27 -144 -196 -144c-125 0 -184 43 -204 136l128 24c2 -27 17 -61 72 -61
c44 0 60 23 60 49c0 37 -42 41 -64 41h-28z" />
    <glyph glyph-name="fourfifths" horiz-adv-x="1000" 
d="M701 706l-302 -706h-92l302 706h92zM967 440l-12 -107h-228l-7 -52c25 14 50 19 83 19c104 0 176 -61 176 -147c0 -97 -81 -161 -202 -161c-109 0 -186 44 -202 144l137 14v-4c0 -36 21 -56 60 -56s62 22 62 58c0 39 -25 63 -65 63c-26 0 -40 -7 -55 -28l-116 14l27 243
h342zM420 332h-63v-89h-130v89h-210v88l204 266h136v-257h63v-97zM141 429h87c1 49 1 82 4 131c-32 -50 -55 -84 -91 -131z" />
    <glyph glyph-name="braceleft.cap" horiz-adv-x="332" 
d="M320 -123h-89c-109 0 -136 45 -136 150v161c0 88 -16 97 -87 106v98c68 7 87 20 87 106v170c0 93 29 139 127 139h98v-95h-15c-48 0 -53 -40 -53 -84v-151c0 -82 -17 -110 -83 -135c62 -19 83 -51 83 -134v-138c0 -57 5 -98 58 -98h10v-95z" />
    <glyph glyph-name="braceright.cap" horiz-adv-x="332" 
d="M12 713v94h96c96 0 130 -45 130 -147v-165c0 -85 14 -95 86 -104v-98c-66 -6 -86 -18 -86 -106v-149c0 -124 -31 -161 -139 -161h-87v95h16c45 0 52 33 52 92v144c0 82 17 110 83 135c-61 19 -83 51 -83 134v163c0 42 -15 73 -58 73h-10z" />
    <glyph glyph-name="bracketleft.cap" horiz-adv-x="299" 
d="M284 -118h-240v923h240v-95h-84v-733h84v-95z" />
    <glyph glyph-name="bracketright.cap" horiz-adv-x="299" 
d="M255 -118h-241v95h85v733h-85v95h241v-923z" />
    <glyph glyph-name="emdash.cap" horiz-adv-x="947" 
d="M918 265h-889v171h889v-171z" />
    <glyph glyph-name="endash.cap" horiz-adv-x="629" 
d="M600 265h-571v171h571v-171z" />
    <glyph glyph-name="guillemotleft.cap" horiz-adv-x="417" 
d="M383 135l-158 125v183l158 125v-149l-90 -69l90 -67v-148zM189 135l-157 125v183l157 125v-149l-89 -69l89 -67v-148z" />
    <glyph glyph-name="guillemotright.cap" horiz-adv-x="417" 
d="M383 260l-158 -125v149l90 69l-90 67v148l158 -125v-183zM189 260l-157 -125v149l90 69l-90 67v148l157 -125v-183z" />
    <glyph glyph-name="guilsinglleft.cap" horiz-adv-x="229" 
d="M192 135l-157 125v183l157 125v-149l-89 -69l89 -67v-148z" />
    <glyph glyph-name="guilsinglright.cap" horiz-adv-x="229" 
d="M192 260l-157 -125v149l90 69l-90 67v148l157 -125v-183z" />
    <glyph glyph-name="hyphen.cap" horiz-adv-x="373" 
d="M344 265h-315v171h315v-171z" />
    <glyph glyph-name="parenleft.cap" horiz-adv-x="344" 
d="M355 -59l-64 -81c-60 50 -109 92 -141 129c-81 94 -123 213 -123 345c0 134 43 259 126 363c36 45 80 89 133 132l69 -70l-13 -16c-57 -71 -82 -112 -105 -174c-26 -68 -38 -141 -38 -224c0 -81 12 -154 35 -219c27 -76 62 -130 121 -185z" />
    <glyph glyph-name="parenright.cap" horiz-adv-x="344" 
d="M-11 745l64 81c68 -55 107 -89 141 -130c81 -95 123 -212 123 -344c0 -88 -20 -180 -57 -256c-38 -78 -93 -144 -187 -226l-15 -13l-69 69l13 16c58 71 81 112 105 175c25 67 38 141 38 224c0 174 -51 306 -156 404z" />
    <glyph glyph-name="periodcentered.cap" horiz-adv-x="250" 
d="M218 252h-186v185h186v-185z" />
    <glyph glyph-name="afii10017" unicode="&#x410;" horiz-adv-x="792" 
d="M790 0h-240l-31 98h-246l-31 -98h-240l270 706h254zM473 256l-75 249l-77 -249h152z" />
    <glyph glyph-name="afii10018" unicode="&#x411;" horiz-adv-x="730" 
d="M44 706h606v-154h-382v-115h209c132 0 233 -62 233 -219c0 -86 -41 -218 -250 -218h-416v706zM268 289v-137h136c47 0 80 16 80 68c0 61 -44 69 -80 69h-136z" />
    <glyph glyph-name="afii10019" unicode="&#x412;" horiz-adv-x="729" 
d="M44 706h417c106 0 228 -39 228 -179c0 -70 -37 -132 -110 -162c88 -19 130 -85 130 -163c0 -96 -46 -202 -228 -202h-437v706zM267 557v-120h123c36 0 73 9 73 60c0 42 -31 60 -65 60h-131zM266 289v-137h142c43 0 74 26 74 68c0 49 -38 69 -79 69h-137z" />
    <glyph glyph-name="afii10020" unicode="&#x413;" horiz-adv-x="600" 
d="M578 528h-310v-528h-224v706h534v-178z" />
    <glyph glyph-name="afii10021" unicode="&#x414;" horiz-adv-x="854" 
d="M752 706v-534h90v-322h-200v150h-434v-150h-200v322c101 4 152 107 152 364v170h592zM528 534h-160v-33c0 -193 -41 -292 -79 -329h239v362z" />
    <glyph glyph-name="afii10022" unicode="&#x415;" 
d="M634 0h-590v706h560v-154h-336v-106h314v-154h-314v-138h366v-154z" />
    <glyph glyph-name="afii10024" unicode="&#x416;" horiz-adv-x="1040" 
d="M416 706h208v-256h39c69 0 79 28 87 104c8 81 22 121 48 152h228c-48 -44 -60 -117 -69 -179c-16 -112 -74 -140 -118 -150c67 -13 120 -45 130 -161c9 -106 29 -170 67 -216h-228c-26 50 -35 96 -41 182c-4 62 -25 96 -99 96h-44v-278h-208v278h-44
c-74 0 -95 -34 -99 -96c-6 -86 -15 -132 -41 -182h-228c38 46 58 110 67 216c10 116 63 148 130 161c-44 10 -103 38 -118 150c-9 62 -21 135 -69 179h228c26 -31 40 -71 48 -152c8 -76 18 -104 87 -104h39v256z" />
    <glyph glyph-name="afii10025" unicode="&#x417;" horiz-adv-x="734" 
d="M189 487l-161 117c73 84 195 125 355 125c234 0 311 -87 311 -202c0 -68 -37 -129 -110 -158c83 -24 130 -87 130 -167c0 -148 -151 -223 -334 -223c-159 0 -283 41 -366 155l171 110c40 -65 127 -93 197 -93c71 0 106 23 106 68c0 54 -56 63 -105 63h-107v150h107
c50 0 85 22 85 60c0 49 -37 67 -105 67c-57 0 -138 -19 -174 -72z" />
    <glyph glyph-name="afii10026" unicode="&#x418;" horiz-adv-x="760" 
d="M44 706h224v-354l224 276v78h224v-706h-224v358l-224 -276v-82h-224v706z" />
    <glyph glyph-name="afii10027" unicode="&#x419;" horiz-adv-x="760" 
d="M44 706h224v-354l224 276v78h224v-706h-224v358l-224 -276v-82h-224v706zM448 900l150 -20c-13 -93 -95 -138 -218 -138c-111 0 -209 37 -218 138l150 20c4 -39 34 -50 68 -50c31 0 64 10 68 50z" />
    <glyph glyph-name="afii10028" unicode="&#x41a;" horiz-adv-x="716" 
d="M44 706h224v-256h35c74 0 83 28 92 104c10 81 23 121 49 152h248c-48 -44 -60 -117 -68 -179c-15 -112 -70 -140 -109 -150c67 -13 120 -45 130 -161c9 -106 29 -170 67 -216h-244c-26 50 -33 96 -41 182c-5 62 -26 96 -103 96h-56v-278h-224v706z" />
    <glyph glyph-name="afii10029" unicode="&#x41b;" horiz-adv-x="764" 
d="M128 706h592v-706h-224v534h-160v-60c0 -377 -61 -473 -314 -474h-20v172h20c78 9 106 40 106 314v220z" />
    <glyph glyph-name="afii10030" unicode="&#x41c;" horiz-adv-x="958" 
d="M911 0h-213v502l-139 -502h-166l-138 502v-502h-212v706h320l115 -439l113 439h320v-706z" />
    <glyph glyph-name="afii10031" unicode="&#x41d;" horiz-adv-x="750" 
d="M706 0h-224v272h-214v-272h-224v706h224v-256h214v256h224v-706z" />
    <glyph glyph-name="afii10032" unicode="&#x41e;" horiz-adv-x="812" 
d="M786 359c0 -190 -119 -382 -383 -382c-227 0 -377 143 -377 376c0 186 111 379 381 379c258 0 379 -180 379 -373zM250 351c0 -125 55 -196 157 -196c73 0 155 49 155 210c0 141 -79 189 -155 189c-94 0 -157 -71 -157 -203z" />
    <glyph glyph-name="afii10033" unicode="&#x41f;" horiz-adv-x="740" 
d="M696 0h-224v534h-204v-534h-224v706h652v-706z" />
    <glyph glyph-name="afii10034" unicode="&#x420;" horiz-adv-x="708" 
d="M44 706h424c161 0 240 -94 240 -230c0 -140 -83 -246 -244 -246h-196v-230h-224v706zM268 558v-180h127c53 0 91 32 91 91c0 43 -23 89 -92 89h-126z" />
    <glyph glyph-name="afii10035" unicode="&#x421;" horiz-adv-x="750" 
d="M545 274l191 -92c-41 -77 -122 -204 -344 -204c-261 0 -366 203 -366 371c0 223 155 383 367 383c209 0 298 -112 342 -197l-187 -93c-18 34 -46 118 -145 118c-108 0 -153 -94 -153 -192c0 -167 78 -212 152 -212c93 0 124 69 143 118z" />
    <glyph glyph-name="afii10036" unicode="&#x422;" horiz-adv-x="583" 
d="M581 532h-179v-532h-223v532h-180v174h582v-174z" />
    <glyph glyph-name="afii10037" unicode="&#x423;" horiz-adv-x="720" 
d="M492 706h230l-242 -510c-90 -191 -138 -196 -304 -196h-60v178h50c44 0 82 3 97 46l-261 482h254l124 -276z" />
    <glyph glyph-name="afii10038" unicode="&#x424;" horiz-adv-x="960" 
d="M368 720h224v-86h35c186 0 317 -81 317 -277c0 -170 -131 -277 -317 -277h-35v-90h-224v90h-35c-187 0 -317 107 -317 277c0 196 130 277 317 277h35v86zM376 486h-28c-76 0 -108 -64 -108 -129s33 -129 116 -129h20v258zM584 486v-258h20c83 0 116 64 116 129
s-32 129 -108 129h-28z" />
    <glyph glyph-name="afii10039" unicode="&#x425;" horiz-adv-x="833" 
d="M833 0h-263l-154 254l-156 -254h-262l273 379l-229 327h262l112 -194l114 194h255l-223 -326z" />
    <glyph glyph-name="afii10040" unicode="&#x426;" horiz-adv-x="794" 
d="M44 706h224v-534h200v534h224v-534h90v-322h-200v150h-538v706z" />
    <glyph glyph-name="afii10041" unicode="&#x427;" horiz-adv-x="710" 
d="M32 706h224v-221c0 -64 32 -77 82 -77c32 0 83 12 104 24v274h224v-706h-224v254c-41 -12 -105 -24 -165 -24c-169 0 -245 58 -245 201v275z" />
    <glyph glyph-name="afii10042" unicode="&#x428;" horiz-adv-x="1012" 
d="M44 706h208v-534h150v534h208v-534h150v534h208v-706h-924v706z" />
    <glyph glyph-name="afii10043" unicode="&#x429;" horiz-adv-x="1070" 
d="M44 706h208v-534h150v534h208v-534h150v534h208v-534h90v-322h-200v150h-814v706z" />
    <glyph glyph-name="afii10044" unicode="&#x42a;" horiz-adv-x="840" 
d="M2 706h386v-256h199c132 0 233 -66 233 -232c0 -86 -41 -218 -250 -218h-406v528h-162v178zM388 298v-146h126c47 0 80 17 80 72c0 65 -44 74 -80 74h-126z" />
    <glyph glyph-name="afii10045" unicode="&#x42b;" horiz-adv-x="960" 
d="M44 706h208v-256h161c132 0 233 -66 233 -232c0 -86 -41 -218 -250 -218h-352v706zM252 298v-146h106c47 0 80 17 80 72c0 65 -44 74 -80 74h-106zM916 0h-208v706h208v-706z" />
    <glyph glyph-name="afii10046" unicode="&#x42c;" horiz-adv-x="720" 
d="M44 706h224v-256h199c132 0 233 -66 233 -232c0 -86 -41 -218 -250 -218h-406v706zM268 298v-146h126c47 0 80 17 80 72c0 65 -44 74 -80 74h-126z" />
    <glyph glyph-name="afii10047" unicode="&#x42d;" horiz-adv-x="760" 
d="M14 144l191 110c20 -43 51 -104 147 -104c57 0 142 27 158 140h-234v138h234c-11 91 -86 134 -159 134c-102 0 -134 -54 -149 -85l-183 91c44 70 133 164 342 164c215 0 373 -160 373 -383c0 -168 -108 -371 -376 -371c-222 0 -303 103 -344 166z" />
    <glyph glyph-name="afii10048" unicode="&#x42e;" horiz-adv-x="1096" 
d="M44 706h208v-245h98c5 37 25 89 51 126c38 56 125 145 296 145c254 0 373 -180 373 -373c0 -190 -115 -382 -371 -382c-61 0 -173 1 -266 95c-68 68 -84 159 -89 217h-92v-289h-208v706zM846 350c0 94 -32 204 -149 204c-109 0 -143 -108 -143 -200
c0 -120 49 -199 146 -199c91 0 146 91 146 195z" />
    <glyph glyph-name="afii10049" unicode="&#x42f;" horiz-adv-x="720" 
d="M676 706v-706h-224v250h-59c-136 0 -103 -191 -157 -250h-230c73 68 51 265 176 296c-94 19 -126 100 -126 187c0 113 66 223 272 223h348zM452 394v164h-73c-57 0 -99 -22 -99 -84c0 -54 36 -80 95 -80h77z" />
    <glyph glyph-name="afii10065" unicode="&#x430;" horiz-adv-x="604" 
d="M580 0h-203v40c-46 -30 -81 -52 -172 -52c-105 0 -186 60 -186 167c0 28 6 90 71 134c72 49 188 36 277 67c-2 37 -11 59 -70 59c-48 0 -62 -16 -67 -48c0 0 -167 -4 -194 -5c15 68 38 173 280 173c122 0 246 -27 246 -178v-293c0 -38 5 -46 18 -64zM366 222v19
c-44 -21 -156 -26 -156 -80c0 -16 13 -40 51 -40c51 0 105 42 105 101z" />
    <glyph glyph-name="afii10066" unicode="&#x431;" horiz-adv-x="652" 
d="M460 728h160c-1 -101 -23 -179 -206 -191c-160 -11 -199 -61 -204 -126c49 44 118 59 173 59c141 0 247 -71 247 -216c0 -114 -68 -274 -303 -274c-215 0 -301 119 -301 312c0 167 44 366 319 388c68 5 114 13 115 48zM424 239c0 47 -20 111 -95 111
c-59 0 -97 -42 -97 -112c0 -47 24 -114 94 -114c75 0 98 66 98 115z" />
    <glyph glyph-name="afii10067" unicode="&#x432;" horiz-adv-x="624" 
d="M42 518h374c81 0 162 -29 162 -127c0 -39 -7 -84 -80 -112c83 -21 100 -76 100 -133c0 -81 -59 -146 -171 -146h-385v518zM248 402v-86h82c28 0 48 12 48 43c0 30 -18 43 -45 43h-85zM248 216v-96h79c42 0 67 14 67 48s-25 48 -61 48h-85z" />
    <glyph glyph-name="afii10068" unicode="&#x433;" horiz-adv-x="460" 
d="M42 518h410v-154h-204v-364h-206v518z" />
    <glyph glyph-name="afii10069" unicode="&#x434;" horiz-adv-x="716" 
d="M630 518v-374h74v-274h-180v130h-336v-130h-180v274c97 21 120 164 120 317v57h502zM424 384h-110v-30c0 -106 -31 -185 -76 -220h186v250z" />
    <glyph glyph-name="afii10070" unicode="&#x435;" horiz-adv-x="604" 
d="M588 222h-361c0 -23 5 -97 85 -97c70 0 90 57 96 67l169 -71c-37 -61 -120 -142 -273 -142c-208 0 -287 154 -287 283c0 202 156 278 285 278c191 0 286 -131 286 -286v-32zM229 331h150c-4 53 -34 78 -73 78c-55 0 -77 -56 -77 -78z" />
    <glyph glyph-name="afii10072" unicode="&#x436;" horiz-adv-x="880" 
d="M345 518h190v-174h27c87 0 37 115 96 174h210c-100 -56 -42 -200 -144 -236c124 -19 75 -238 154 -282h-216c-46 59 3 199 -97 200h-30v-200h-190v200h-30c-100 -1 -51 -141 -97 -200h-216c79 44 30 263 154 282c-102 36 -44 180 -144 236h210c59 -59 9 -174 96 -174h27
v174z" />
    <glyph glyph-name="afii10073" unicode="&#x437;" horiz-adv-x="596" 
d="M210 324h76c40 0 64 11 64 44c0 28 -27 42 -67 42c-50 0 -93 -25 -111 -68l-156 80c62 82 159 118 279 118c149 0 255 -33 255 -152c0 -29 -11 -78 -80 -109c79 -21 100 -72 100 -133c0 -95 -83 -166 -277 -166c-159 0 -244 70 -283 141c158 75 159 75 159 74
c12 -22 37 -71 118 -71c44 0 79 14 79 49c0 24 -12 41 -67 41h-89v110z" />
    <glyph glyph-name="afii10074" unicode="&#x438;" horiz-adv-x="656" 
d="M42 518h206v-236l160 170v66h206v-518h-206v240l-160 -170v-70h-206v518z" />
    <glyph glyph-name="afii10075" unicode="&#x439;" horiz-adv-x="656" 
d="M42 518h206v-236l160 170v66h206v-518h-206v240l-160 -170v-70h-206v518zM396 726l130 -20c-14 -92 -84 -138 -198 -138c-102 0 -189 38 -198 138l130 20c2 -35 27 -54 68 -54c43 0 66 19 68 54z" />
    <glyph glyph-name="afii10076" unicode="&#x43a;" horiz-adv-x="632" 
d="M42 518h206v-174h57c86 0 37 115 95 174h220c-100 -56 -42 -200 -144 -236c124 -19 75 -238 154 -282h-226c-46 59 3 199 -96 200h-60v-200h-206v518z" />
    <glyph glyph-name="afii10077" unicode="&#x43b;" horiz-adv-x="640" 
d="M86 518h512v-518h-206v374h-120v-72c0 -200 -29 -302 -244 -302h-30v144h16c69 0 72 78 72 147v227z" />
    <glyph glyph-name="afii10078" unicode="&#x43c;" horiz-adv-x="826" 
d="M42 518h317l66 -298l69 298h290v-518h-183v411l-109 -411h-164l-100 411v-411h-186v518z" />
    <glyph glyph-name="afii10079" unicode="&#x43d;" horiz-adv-x="640" 
d="M42 518h206v-170h144v170h206v-518h-206v194h-144v-194h-206v518z" />
    <glyph glyph-name="afii10080" unicode="&#x43e;" horiz-adv-x="648" 
d="M626 258c0 -149 -101 -278 -309 -278c-161 0 -295 90 -295 275c0 156 101 285 302 285c208 0 302 -130 302 -282zM420 263c0 102 -42 133 -98 133c-67 0 -94 -58 -94 -135c0 -76 24 -137 96 -137c50 0 96 28 96 139z" />
    <glyph glyph-name="afii10081" unicode="&#x43f;" horiz-adv-x="636" 
d="M42 518h552v-518h-206v374h-140v-374h-206v518z" />
    <glyph glyph-name="afii10082" unicode="&#x440;" horiz-adv-x="630" 
d="M42 518h200v-40c27 30 66 54 138 54c163 0 228 -132 228 -276c0 -145 -67 -269 -226 -269c-47 0 -103 11 -134 48v-223h-206v706zM402 262c0 52 -15 120 -76 120c-78 0 -84 -77 -84 -126c0 -48 7 -125 80 -125s80 81 80 131z" />
    <glyph glyph-name="afii10083" unicode="&#x441;" horiz-adv-x="577" 
d="M403 225l158 -87c-28 -64 -102 -158 -267 -158c-167 0 -276 112 -276 282c0 172 110 279 289 279c158 0 222 -83 253 -135l-156 -88c-11 31 -29 78 -89 78c-75 0 -93 -89 -93 -141c0 -56 16 -118 90 -118c58 0 87 64 91 88z" />
    <glyph glyph-name="afii10084" unicode="&#x442;" horiz-adv-x="510" 
d="M8 518h494v-154h-144v-364h-206v364h-144v154z" />
    <glyph glyph-name="afii10085" unicode="&#x443;" horiz-adv-x="583" 
d="M366 518h215l-189 -548c-36 -104 -75 -157 -185 -157c-83 0 -125 6 -129 7v147c20 -1 39 -3 59 -3c29 0 43 6 43 25c0 8 -8 30 -16 53l-164 476h215l73 -330z" />
    <glyph glyph-name="afii10086" unicode="&#x444;" horiz-adv-x="840" 
d="M523 706v-188c148 -2 295 -40 295 -258c0 -195 -129 -259 -295 -260v-188h-206v188c-172 0 -295 77 -295 260c0 146 84 257 295 258v188h206zM325 144v230c-83 -1 -113 -43 -113 -116c0 -96 65 -114 113 -114zM515 374v-230c96 2 113 77 113 114c0 88 -56 116 -113 116z
" />
    <glyph glyph-name="afii10087" unicode="&#x445;" horiz-adv-x="604" 
d="M606 0h-220l-85 168l-84 -168h-221l174 272l-154 246h221l64 -155l68 155h222l-157 -245z" />
    <glyph glyph-name="afii10088" unicode="&#x446;" horiz-adv-x="680" 
d="M42 518h206v-374h140v374h206v-374h74v-274h-180v130h-446v518z" />
    <glyph glyph-name="afii10089" unicode="&#x447;" horiz-adv-x="600" 
d="M36 518h196v-144c0 -64 21 -70 59 -70c20 0 42 6 61 16v198h206v-518h-206v180c-34 -11 -90 -20 -137 -20c-109 0 -179 33 -179 152v206z" />
    <glyph glyph-name="afii10090" unicode="&#x448;" horiz-adv-x="920" 
d="M42 518h196v-374h124v374h196v-374h124v374h196v-518h-836v518z" />
    <glyph glyph-name="afii10091" unicode="&#x449;" horiz-adv-x="964" 
d="M42 518h196v-374h124v374h196v-374h124v374h196v-374h74v-274h-180v130h-730v518z" />
    <glyph glyph-name="afii10092" unicode="&#x44a;" horiz-adv-x="700" 
d="M348 518v-166h126c122 0 200 -54 200 -175s-72 -177 -232 -177h-290v364h-144v154h340zM348 222v-92h70c35 0 62 14 62 47c0 36 -34 45 -53 45h-79z" />
    <glyph glyph-name="afii10093" unicode="&#x44b;" horiz-adv-x="820" 
d="M238 518v-166h104c117 0 192 -54 192 -175s-70 -177 -224 -177h-268v518h196zM238 222v-92h58c35 0 62 14 62 47c0 36 -34 45 -53 45h-67zM776 0h-196v518h196v-518z" />
    <glyph glyph-name="afii10094" unicode="&#x44c;" horiz-adv-x="600" 
d="M248 518v-166h126c122 0 200 -54 200 -175s-72 -177 -232 -177h-300v518h206zM248 222v-92h70c35 0 62 14 62 47c0 36 -34 45 -53 45h-79z" />
    <glyph glyph-name="afii10095" unicode="&#x44d;" horiz-adv-x="596" 
d="M210 324h154c0 49 -34 86 -86 86c-45 0 -88 -25 -106 -68l-156 80c66 82 171 118 265 118c176 0 293 -83 293 -278c0 -129 -80 -282 -291 -282c-149 0 -234 70 -273 141l158 76c13 -25 38 -73 107 -73c82 0 89 69 89 90h-154v110z" />
    <glyph glyph-name="afii10096" unicode="&#x44e;" horiz-adv-x="900" 
d="M42 518h206v-180h56c21 116 113 202 277 202c202 0 297 -122 297 -282c0 -163 -105 -278 -292 -278c-137 0 -261 58 -284 216h-54v-196h-206v518zM678 263c0 80 -26 133 -95 133c-53 0 -89 -51 -89 -136c0 -75 26 -136 94 -136c62 0 90 66 90 139z" />
    <glyph glyph-name="afii10097" unicode="&#x44f;" horiz-adv-x="608" 
d="M566 518v-518h-206v176h-23c-78 0 -66 -137 -95 -176h-226c57 44 21 198 149 216c-61 10 -107 64 -107 133c0 76 29 169 191 169h317zM360 282v120h-54c-35 0 -64 -18 -64 -63c0 -35 19 -57 66 -57h52z" />
    <glyph glyph-name="afii10050" unicode="&#x490;" horiz-adv-x="600" 
d="M44 706h354v150h180v-328h-310v-528h-224v706z" />
    <glyph glyph-name="afii10055" unicode="&#x406;" horiz-adv-x="313" 
d="M268 0h-224v706h224v-706z" />
    <glyph glyph-name="afii10051" unicode="&#x402;" horiz-adv-x="840" 
d="M584 528h-179v-126c37 17 90 34 165 34c125 0 250 -37 250 -215c0 -204 -161 -221 -277 -221h-43v152h30c52 0 72 27 72 63c0 38 -19 69 -84 69c-40 0 -86 -17 -113 -34v-250h-224v528h-179v178h582v-178z" />
    <glyph glyph-name="afii10099" unicode="&#x452;" horiz-adv-x="684" 
d="M78 706h205v-68h220v-110h-220v-146c16 21 60 74 165 74c84 0 192 -35 192 -191v-297c0 -138 -82 -162 -238 -162h-45v151h17c50 0 60 27 60 56v199c0 50 -24 74 -74 74c-40 0 -76 -15 -76 -78v-208h-206v528h-80v110h80v68z" />
    <glyph glyph-name="afii10052" unicode="&#x403;" horiz-adv-x="600" 
d="M578 528h-310v-528h-224v706h534v-178zM527 874l-150 -120h-131l64 120h217z" />
    <glyph glyph-name="afii10100" unicode="&#x453;" horiz-adv-x="460" 
d="M42 518h410v-154h-204v-364h-206v518zM441 724l-161 -137h-128l77 137h212z" />
    <glyph glyph-name="afii10103" unicode="&#x456;" horiz-adv-x="290" 
d="M248 570h-206v136h206v-136zM248 0h-206v518h206v-518z" />
    <glyph glyph-name="afii10098" unicode="&#x491;" horiz-adv-x="460" 
d="M42 518h250v130h160v-284h-204v-364h-206v518z" />
    <glyph glyph-name="afii10057" unicode="&#x408;" horiz-adv-x="417" 
d="M148 706h223v-510c0 -167 -82 -196 -222 -196h-149v174c16 -3 27 -6 57 -6c72 0 91 25 91 81v457z" />
    <glyph glyph-name="afii10053" unicode="&#x404;" horiz-adv-x="760" 
d="M555 254l191 -110c-41 -63 -122 -166 -344 -166c-268 0 -376 181 -376 371c0 223 158 383 373 383c209 0 298 -94 342 -164l-183 -91c-13 31 -47 85 -149 85c-79 0 -148 -48 -159 -134h234v-138h-234c16 -113 101 -140 158 -140c96 0 131 61 147 104z" />
    <glyph glyph-name="afii10101" unicode="&#x454;" horiz-adv-x="596" 
d="M386 324v-110h-154c0 -21 15 -90 93 -90c69 0 92 44 103 73l158 -76c-34 -76 -116 -141 -273 -141c-211 0 -291 142 -291 282c0 174 121 278 303 278c102 0 196 -36 255 -118l-156 -80c-10 39 -48 68 -96 68s-94 -34 -96 -86h154z" />
    <glyph glyph-name="afii10056" unicode="&#x407;" horiz-adv-x="380" 
d="M302 0h-224v706h224v-706zM360 756h-140v120h140v-120zM160 756h-140v120h140v-120z" />
    <glyph glyph-name="afii10104" unicode="&#x457;" horiz-adv-x="354" 
d="M280 0h-206v518h206v-518zM336 570h-130v136h130v-136zM148 570h-130v136h130v-136z" />
    <glyph glyph-name="afii10058" unicode="&#x409;" horiz-adv-x="1118" 
d="M128 706h558v-256h179c132 0 233 -66 233 -232c0 -86 -41 -218 -250 -218h-370v534h-150v-60c0 -377 -59 -473 -306 -474h-20v172h20c78 9 106 40 106 314v220zM686 298v-146h106c47 0 80 17 80 72c0 65 -44 74 -80 74h-106z" />
    <glyph glyph-name="afii10106" unicode="&#x459;" horiz-adv-x="928" 
d="M588 518v-166h122c117 0 192 -54 192 -175s-70 -177 -224 -177h-286v374h-120v-72c0 -200 -29 -302 -244 -302h-30v144h16c69 0 72 78 72 147v227h502zM588 222v-92h58c35 0 62 14 62 47c0 36 -34 45 -53 45h-67z" />
    <glyph glyph-name="afii10059" unicode="&#x40a;" horiz-adv-x="1098" 
d="M44 706h208v-256h206v256h208v-256h179c132 0 233 -66 233 -232c0 -86 -41 -218 -250 -218h-370v298h-206v-298h-208v706zM666 298v-146h106c47 0 80 17 80 72c0 65 -44 74 -80 74h-106z" />
    <glyph glyph-name="afii10107" unicode="&#x45a;" horiz-adv-x="918" 
d="M42 518h196v-166h144v166h196v-166h122c117 0 192 -54 192 -175s-70 -177 -224 -177h-286v222h-144v-222h-196v518zM578 222v-92h58c35 0 62 14 62 47c0 36 -34 45 -53 45h-67z" />
    <glyph glyph-name="afii10105" unicode="&#x458;" horiz-adv-x="290" 
d="M248 570h-206v136h206v-136zM42 518h206v-550c0 -138 -82 -162 -238 -162h-46v151h18c50 0 60 27 60 56v505z" />
    <glyph glyph-name="afii10054" unicode="&#x405;" horiz-adv-x="729" 
d="M696 604l-141 -117c-38 57 -125 72 -185 72c-18 0 -80 -3 -80 -46c0 -34 34 -44 124 -59c119 -20 286 -51 286 -218c0 -182 -159 -257 -327 -257c-150 0 -283 41 -366 155l171 110c34 -70 127 -93 197 -93c67 0 106 19 106 54c0 41 -45 49 -172 71
c-148 26 -243 88 -243 213c0 189 179 240 309 240c126 0 248 -38 321 -125z" />
    <glyph glyph-name="afii10060" unicode="&#x40b;" horiz-adv-x="840" 
d="M584 528h-179v-116c39 12 101 24 158 24c169 0 245 -58 245 -201v-235h-224v181c0 64 -32 77 -82 77c-30 0 -77 -12 -97 -24v-234h-224v528h-179v178h582v-178z" />
    <glyph glyph-name="afii10108" unicode="&#x45b;" horiz-adv-x="684" 
d="M640 0h-206v212c0 50 -24 74 -74 74c-40 0 -76 -15 -76 -78v-208h-206v528h-80v110h80v68h205v-68h220v-110h-220v-146c16 21 60 74 165 74c84 0 192 -35 192 -191v-265z" />
    <glyph glyph-name="afii10061" unicode="&#x40c;" horiz-adv-x="716" 
d="M44 706h224v-256h35c74 0 83 28 92 104c10 81 23 121 49 152h248c-48 -44 -60 -117 -68 -179c-15 -112 -70 -140 -109 -150c67 -13 120 -45 130 -161c9 -106 29 -170 67 -216h-244c-26 50 -33 96 -41 182c-5 62 -26 96 -103 96h-56v-278h-224v706zM557 874l-150 -120
h-131l64 120h217z" />
    <glyph glyph-name="afii10109" unicode="&#x45c;" horiz-adv-x="632" 
d="M42 518h206v-174h57c86 0 37 115 95 174h220c-100 -56 -42 -200 -144 -236c124 -19 75 -238 154 -282h-226c-46 59 3 199 -96 200h-60v-200h-206v518zM521 724l-161 -137h-128l77 137h212z" />
    <glyph glyph-name="afii10102" unicode="&#x455;" horiz-adv-x="542" 
d="M508 464l-111 -101c-20 12 -70 49 -133 49c-21 0 -44 -6 -44 -26c0 -19 12 -24 83 -40l74 -17c93 -21 146 -75 146 -156c0 -116 -103 -193 -246 -193c-107 0 -201 38 -278 104l116 105c28 -31 90 -70 160 -70c27 0 54 9 54 34c0 17 -13 25 -52 32
c-157 28 -251 60 -251 177c0 86 71 177 235 177c83 0 182 -20 247 -75z" />
    <glyph glyph-name="afii10062" unicode="&#x40e;" horiz-adv-x="720" 
d="M492 706h230l-242 -510c-90 -191 -138 -196 -304 -196h-60v178h50c44 0 82 3 97 46l-261 482h254l124 -276zM445 900l150 -20c-13 -93 -95 -138 -218 -138c-111 0 -210 37 -219 138l151 20c4 -39 34 -50 68 -50c31 0 64 10 68 50z" />
    <glyph glyph-name="afii10110" unicode="&#x45e;" horiz-adv-x="584" 
d="M366 518h215l-189 -548c-36 -104 -75 -157 -185 -157c-83 0 -125 6 -129 7v147c20 -1 39 -3 59 -3c29 0 43 6 43 25c0 8 -8 30 -16 53l-164 476h215l73 -330zM365 726l130 -20c-14 -92 -84 -138 -198 -138c-102 0 -190 38 -199 138l131 20c2 -35 27 -54 68 -54
c43 0 66 19 68 54z" />
    <glyph glyph-name="afii10145" unicode="&#x40f;" horiz-adv-x="736" 
d="M44 706h224v-534h200v534h224v-706h-224v-170h-200v170h-224v706z" />
    <glyph glyph-name="afii10193" unicode="&#x45f;" horiz-adv-x="636" 
d="M42 518h206v-374h140v374h206v-518h-186v-140h-180v140h-186v518z" />
    <glyph glyph-name="afii61352" unicode="&#x2116;" horiz-adv-x="1226" 
d="M726 0h-240l-234 405v-405h-208v706h238l236 -400v400h208v-706zM1173 222v-127h-364v127h364zM1192 485c0 -91 -59 -217 -199 -217c-101 0 -199 70 -199 218c0 108 61 220 206 220c125 0 192 -103 192 -221zM1050 487c0 59 -20 106 -58 106s-57 -54 -57 -105
s17 -101 55 -101s60 41 60 100z" />
    <glyph glyph-name="afii10023" unicode="&#x401;" 
d="M634 0h-590v706h560v-154h-336v-106h314v-154h-314v-138h366v-154zM534 756h-166v120h166v-120zM290 756h-166v120h166v-120z" />
    <glyph glyph-name="afii10071" unicode="&#x451;" horiz-adv-x="604" 
d="M588 222h-361c0 -23 5 -97 85 -97c70 0 90 57 96 67l169 -71c-37 -61 -120 -142 -273 -142c-208 0 -287 154 -287 283c0 202 156 278 285 278c191 0 286 -131 286 -286v-32zM229 331h150c-4 53 -34 78 -73 78c-55 0 -77 -56 -77 -78zM509 605h-166v119h166v-119zM264 605
h-166v119h166v-119z" />
    <glyph glyph-name="afii10066.locl" horiz-adv-x="652" 
d="M460 728h160c-8 -107 -43 -181 -141 -181c-40 0 -71 8 -91 12c-29 4 -44 7 -70 7c-39 0 -56 -19 -56 -45c0 -53 64 -42 117 -49c197 -15 251 -116 251 -234c0 -139 -101 -258 -309 -258c-177 0 -295 74 -295 224c0 134 74 186 158 201c-51 9 -128 39 -128 132
c0 96 60 171 200 171c36 0 56 -2 98 -8c25 -2 46 -5 67 -5c30 0 37 19 39 33zM424 239c0 47 -20 111 -95 111c-59 0 -97 -42 -97 -112c0 -47 24 -114 94 -114c75 0 98 66 98 115z" />
    <glyph glyph-name="tonos" unicode="&#x384;" horiz-adv-x="309" 
d="M293 724l-149 -137h-128l69 137h208z" />
    <glyph glyph-name="dieresistonos" unicode="&#x385;" horiz-adv-x="436" 
d="M338 774l-109 -169h-97l33 169h173zM485 605h-154v119h154v-119zM105 605h-154v119h154v-119z" />
    <glyph glyph-name="Gamma" unicode="&#x393;" horiz-adv-x="574" 
d="M562 531h-276v-531h-222v706h498v-175z" />
    <glyph glyph-name="Theta" unicode="&#x398;" horiz-adv-x="812" 
d="M784 359c0 -190 -119 -382 -382 -382c-226 0 -376 143 -376 376c0 186 111 379 380 379c257 0 378 -180 378 -373zM559 365c0 141 -77 189 -153 189c-93 0 -156 -71 -156 -203c0 -124 55 -195 156 -195c73 0 153 49 153 209zM493 291h-178v157h178v-157z" />
    <glyph glyph-name="Lambda" unicode="&#x39b;" horiz-adv-x="776" 
d="M390 496l-144 -496h-239l257 706h254l251 -706h-239z" />
    <glyph glyph-name="Xi" unicode="&#x39e;" horiz-adv-x="664" 
d="M624 535h-584v171h584v-171zM582 285h-500v169h500v-169zM642 0h-620v169h620v-169z" />
    <glyph glyph-name="Pi" unicode="&#x3a0;" horiz-adv-x="775" 
d="M711 0h-225v525h-199v-525h-223v706h647v-706z" />
    <glyph glyph-name="Sigma" unicode="&#x3a3;" horiz-adv-x="706" 
d="M686 0h-651v141l212 225l-192 196v144h620v-169h-329l168 -171l-183 -194h355v-172z" />
    <glyph glyph-name="Iotadieresis" unicode="&#x3aa;" horiz-adv-x="313" 
d="M268 0h-224v706h224v-706zM356 757h-166v119h166v-119zM126 757h-165v119h165v-119z" />
    <glyph glyph-name="Alpha" unicode="&#x391;" horiz-adv-x="792" 
d="M790 0h-240l-31 98h-246l-31 -98h-240l270 706h254zM473 256l-75 249l-77 -249h152z" />
    <glyph glyph-name="Beta" unicode="&#x392;" horiz-adv-x="729" 
d="M44 706h417c106 0 228 -39 228 -179c0 -70 -37 -132 -110 -162c88 -19 130 -85 130 -163c0 -96 -46 -202 -228 -202h-437v706zM267 557v-120h123c36 0 73 9 73 60c0 42 -31 60 -65 60h-131zM266 289v-137h142c43 0 74 26 74 68c0 49 -38 69 -79 69h-137z" />
    <glyph glyph-name="Epsilon" unicode="&#x395;" 
d="M633 0h-589v706h559v-155h-335v-105h313v-153h-314v-140h366v-153z" />
    <glyph glyph-name="Zeta" unicode="&#x396;" horiz-adv-x="667" 
d="M654 562l-356 -390h355v-172h-651v141l362 396h-341v169h631v-144z" />
    <glyph glyph-name="Eta" unicode="&#x397;" horiz-adv-x="750" 
d="M705 0h-225v272h-213v-272h-223v706h223v-257h213v257h225v-706z" />
    <glyph glyph-name="Iota" unicode="&#x399;" horiz-adv-x="313" 
d="M268 0h-224v706h224v-706z" />
    <glyph glyph-name="Kappa" unicode="&#x39a;" horiz-adv-x="771" 
d="M779 0h-251l-156 282l-105 -115v-167h-223v706h223v-267l222 267h272l-245 -268z" />
    <glyph glyph-name="Mu" unicode="&#x39c;" horiz-adv-x="958" 
d="M911 0h-213v502l-139 -502h-166l-138 502v-502h-212v706h320l115 -439l113 439h320v-706z" />
    <glyph glyph-name="Phi" unicode="&#x3a6;" horiz-adv-x="901" 
d="M880 350c0 -183 -151 -277 -327 -290v-60h-206v60c-176 13 -326 107 -326 290c0 186 147 284 326 298v58h206v-58c180 -14 327 -112 327 -298zM662 352c0 81 -44 129 -109 141v-278c78 17 109 67 109 137zM347 215v278c-69 -19 -108 -60 -108 -141
c0 -70 31 -122 108 -137z" />
    <glyph glyph-name="Upsilondieresis" unicode="&#x3ab;" horiz-adv-x="792" 
d="M788 706l-284 -409v-297h-224v297l-283 409h258l139 -235l136 235h258zM597 757h-166v119h166v-119zM367 757h-165v119h165v-119z" />
    <glyph glyph-name="Psi" unicode="&#x3a8;" horiz-adv-x="924" 
d="M880 428c0 -205 -116 -279 -315 -289v-139h-206v139c-199 10 -315 84 -315 289v278h218v-289c0 -70 31 -102 97 -105v394h206v-394c66 3 97 35 97 105v289h218v-278z" />
    <glyph glyph-name="Nu" unicode="&#x39d;" horiz-adv-x="771" 
d="M726 0h-241l-233 405v-405h-208v706h237l236 -400v400h209v-706z" />
    <glyph glyph-name="Omicron" unicode="&#x39f;" horiz-adv-x="812" 
d="M784 359c0 -190 -119 -382 -382 -382c-226 0 -376 143 -376 376c0 186 111 379 380 379c257 0 378 -180 378 -373zM250 351c0 -124 55 -195 156 -195c73 0 153 49 153 209c0 141 -77 189 -153 189c-93 0 -156 -71 -156 -203z" />
    <glyph glyph-name="Rho" unicode="&#x3a1;" horiz-adv-x="708" 
d="M44 706h424c161 0 240 -94 240 -230c0 -140 -83 -246 -244 -246h-196v-230h-224v706zM268 558v-180h127c53 0 91 32 91 91c0 43 -23 89 -92 89h-126z" />
    <glyph glyph-name="Tau" unicode="&#x3a4;" horiz-adv-x="583" 
d="M581 532h-179v-532h-223v532h-180v174h582v-174z" />
    <glyph glyph-name="Upsilon" unicode="&#x3a5;" horiz-adv-x="792" 
d="M788 706l-284 -409v-297h-224v297l-283 409h258l139 -235l136 235h258z" />
    <glyph glyph-name="Chi" unicode="&#x3a7;" horiz-adv-x="833" 
d="M833 0h-263l-154 254l-156 -254h-262l273 379l-229 327h262l112 -194l114 194h255l-223 -326z" />
    <glyph glyph-name="Alphatonos" unicode="&#x386;" horiz-adv-x="792" 
d="M790 0h-240l-31 98h-246l-31 -98h-240l270 706h254zM473 256l-75 249l-77 -249h152zM193 707l-149 -137h-128l69 137h208z" />
    <glyph glyph-name="Epsilontonos" unicode="&#x388;" 
d="M633 0h-589v706h559v-155h-335v-105h313v-153h-314v-140h366v-153zM33 707l-149 -137h-128l69 137h208z" />
    <glyph glyph-name="Etatonos" unicode="&#x389;" horiz-adv-x="750" 
d="M705 0h-225v272h-213v-272h-223v706h223v-257h213v257h225v-706zM13 707l-149 -137h-128l69 137h208z" />
    <glyph glyph-name="Iotatonos" unicode="&#x38a;" horiz-adv-x="313" 
d="M268 0h-224v706h224v-706zM-7 707l-149 -137h-128l69 137h208z" />
    <glyph glyph-name="Omicrontonos" unicode="&#x38c;" horiz-adv-x="812" 
d="M784 359c0 -190 -119 -382 -382 -382c-226 0 -376 143 -376 376c0 186 111 379 380 379c257 0 378 -180 378 -373zM250 351c0 -124 55 -195 156 -195c73 0 153 49 153 209c0 141 -77 189 -153 189c-93 0 -156 -71 -156 -203zM83 707l-149 -137h-128l69 137h208z" />
    <glyph glyph-name="Upsilontonos" unicode="&#x38e;" horiz-adv-x="792" 
d="M788 706l-284 -409v-297h-224v297l-283 409h258l139 -235l136 235h258zM-7 707l-149 -137h-128l69 137h208z" />
    <glyph glyph-name="Omegatonos" unicode="&#x38f;" horiz-adv-x="862" 
d="M673 158h134v-158h-319v159c49 44 94 113 94 218c0 118 -65 177 -152 177c-84 0 -152 -64 -152 -182c0 -105 45 -169 94 -213v-159h-317v158h122c-81 67 -117 148 -117 241c0 171 135 333 370 333c239 0 372 -163 372 -334c0 -100 -47 -181 -129 -240zM83 707l-149 -137
h-128l69 137h208z" />
    <glyph glyph-name="alpha" unicode="&#x3b1;" horiz-adv-x="658" 
d="M388 257c0 68 -20 125 -82 125c-58 0 -80 -48 -80 -129c0 -104 51 -121 82 -121c45 0 80 30 80 125zM261 -13c-172 0 -238 125 -238 269c0 100 35 276 227 276c65 0 123 -26 153 -68v54h185v-330c0 -35 3 -47 24 -47c5 0 15 1 26 4v-141c-30 -7 -66 -12 -99 -12
c-59 0 -105 28 -126 79c-23 -39 -63 -84 -152 -84z" />
    <glyph glyph-name="beta" unicode="&#x3b2;" horiz-adv-x="633" 
d="M608 197c0 -139 -107 -210 -239 -210c-31 0 -91 10 -123 54v-229h-202v632c0 182 87 274 272 274c111 0 247 -55 247 -184c0 -76 -41 -133 -114 -148c97 -18 159 -86 159 -189zM405 216c0 81 -39 102 -97 102v114c28 0 70 6 70 89c0 50 -30 72 -63 72
c-49 0 -66 -38 -66 -89v-278c0 -60 29 -94 79 -94c40 0 77 26 77 84z" />
    <glyph glyph-name="psi" unicode="&#x3c8;" horiz-adv-x="846" 
d="M806 518v-301c0 -150 -95 -223 -284 -233v-172h-199v172c-199 10 -283 81 -283 231v303h207v-303c0 -52 30 -87 76 -92v546h200v-546c46 5 76 40 76 92v303h207z" />
    <glyph glyph-name="delta" unicode="&#x3b4;" horiz-adv-x="647" 
d="M319 356c-54 0 -93 -53 -93 -122c0 -47 17 -110 92 -110c77 0 92 67 92 114c0 89 -39 118 -91 118zM211 435c-75 20 -129 68 -129 128c0 79 68 155 242 155c66 0 191 -9 261 -139l-139 -70c-18 39 -45 84 -109 84c-48 0 -62 -22 -62 -43c0 -84 342 -80 342 -303
c0 -176 -132 -267 -302 -267c-180 0 -290 98 -290 242c0 92 51 189 186 213z" />
    <glyph glyph-name="epsilon" unicode="&#x3b5;" horiz-adv-x="609" 
d="M417 198l176 -29c-31 -145 -159 -191 -290 -191c-160 0 -283 32 -283 160c0 79 54 118 119 133c-62 19 -95 61 -95 114c0 104 108 155 261 155c156 0 257 -51 269 -186l-177 -11c-4 26 -15 72 -84 72c-59 0 -81 -25 -81 -47c0 -38 28 -52 56 -52h79v-92h-81
c-46 0 -65 -18 -65 -51c0 -39 33 -60 92 -60c65 0 92 34 104 85z" />
    <glyph glyph-name="phi" unicode="&#x3c6;" horiz-adv-x="859" 
d="M330 -188v172c-215 15 -305 118 -305 271c0 125 52 261 305 280v133h199v-133c260 -19 305 -155 305 -278c0 -117 -52 -251 -305 -272v-173h-199zM230 261c0 -69 26 -134 103 -146v288c-74 -11 -103 -73 -103 -142zM626 264c0 86 -41 128 -100 138v-286
c55 10 100 52 100 148z" />
    <glyph glyph-name="gamma" unicode="&#x3b3;" horiz-adv-x="616" 
d="M431 17v-205h-202v202l-109 309c-14 39 -35 42 -62 42h-18v153h89c77 0 149 -29 165 -128l34 -205l72 333h216z" />
    <glyph glyph-name="eta" unicode="&#x3b7;" horiz-adv-x="680" 
d="M640 -188h-206v471c0 41 -11 78 -71 78c-74 0 -74 -60 -74 -83v-278h-206v333c0 35 -4 48 -24 48c-8 0 -18 -2 -26 -4v141c33 7 66 12 102 12c64 0 111 -21 138 -88c29 62 108 89 175 89c127 0 192 -72 192 -200v-519z" />
    <glyph glyph-name="iota" unicode="&#x3b9;" horiz-adv-x="316" 
d="M246 518v-331c0 -35 3 -47 24 -47c5 0 15 1 26 4v-144c-28 -7 -75 -14 -108 -14c-62 0 -148 9 -148 163v369h206z" />
    <glyph glyph-name="xi" unicode="&#x3be;" horiz-adv-x="514" 
d="M498 570h-139c-44 0 -110 -3 -110 -73c0 -45 43 -63 95 -63h90v-138h-120c-60 0 -93 -21 -93 -69c0 -62 57 -67 122 -67c93 0 178 -13 178 -138c0 -71 -56 -154 -115 -206l-117 91c30 17 63 41 63 62c0 29 -23 31 -81 31c-130 0 -255 35 -255 189c0 110 95 165 170 182
c-51 5 -126 38 -126 108c0 44 35 87 70 97h-74v130h442v-136z" />
    <glyph glyph-name="kappa" unicode="&#x3ba;" horiz-adv-x="652" 
d="M251 142v-142h-206v518h206v-166l148 117c56 44 74 49 176 49h40v-144h-26c-22 0 -37 -5 -55 -19l-83 -63l201 -292h-235l-117 179z" />
    <glyph glyph-name="lambda" unicode="&#x3bb;" horiz-adv-x="619" 
d="M236 489l-2 6c-19 67 -35 79 -75 79c-20 0 -40 -5 -59 -10v139c21 7 52 15 99 15c110 0 146 -53 185 -157l146 -391c11 -29 18 -32 35 -32c10 0 21 2 29 4v-141c-29 -10 -62 -15 -101 -15c-64 0 -116 18 -142 106l-41 141c0 1 -83 -233 -83 -233h-215z" />
    <glyph glyph-name="nu" unicode="&#x3bd;" horiz-adv-x="598" 
d="M295 208l62 165c12 32 13 56 13 72c0 30 -6 54 -10 73h200c4 -19 8 -41 8 -66s-5 -65 -19 -99l-143 -353h-219l-162 518h218z" />
    <glyph glyph-name="omicron" unicode="&#x3bf;" 
d="M624 258c0 -149 -101 -278 -309 -278c-161 0 -295 90 -295 275c0 156 101 285 302 285c208 0 302 -130 302 -282zM416 263c0 101 -41 132 -96 132c-68 0 -95 -58 -95 -134s24 -137 96 -137c50 0 95 28 95 139z" />
    <glyph glyph-name="rho" unicode="&#x3c1;" horiz-adv-x="629" 
d="M604 256c0 -152 -78 -269 -239 -269c-37 0 -92 12 -123 54v-229h-202v443c0 164 89 285 283 285c214 0 281 -140 281 -284zM401 268c0 54 -15 126 -77 126c-78 0 -84 -81 -84 -132c0 -50 7 -130 79 -130c75 0 82 84 82 136z" />
    <glyph glyph-name="sigma" unicode="&#x3c3;" horiz-adv-x="694" 
d="M652 364h-109c67 -38 73 -101 73 -134c0 -122 -93 -250 -301 -250c-151 0 -295 86 -295 264c0 150 101 274 302 274h330v-154zM416 251c0 93 -41 121 -96 121c-68 0 -95 -51 -95 -123c0 -71 31 -125 96 -125c43 0 95 25 95 127z" />
    <glyph glyph-name="tau" unicode="&#x3c4;" horiz-adv-x="520" 
d="M515 364h-152v-169c0 -21 2 -54 56 -54c12 0 17 0 37 4v-141c-17 -2 -74 -11 -130 -11c-145 0 -169 76 -169 150v221h-60c-41 0 -62 -1 -92 -12v139c33 24 83 27 122 27h388v-154z" />
    <glyph glyph-name="theta" unicode="&#x3b8;" horiz-adv-x="633" 
d="M608 359c0 -140 -48 -377 -299 -377c-200 0 -284 158 -284 359c0 175 67 377 294 377c176 0 289 -119 289 -359zM406 423c0 97 -29 161 -87 161c-66 0 -91 -79 -91 -161h178zM407 288h-181c0 -72 15 -165 90 -165c66 0 91 77 91 165z" />
    <glyph glyph-name="omega" unicode="&#x3c9;" horiz-adv-x="867" 
d="M842 259c0 -187 -80 -279 -231 -279c-79 0 -147 27 -179 103c-32 -76 -100 -103 -179 -103c-151 0 -228 89 -228 276c0 195 123 284 294 284v-145c-80 0 -89 -68 -89 -133c0 -85 3 -138 56 -138c49 0 51 61 51 106v97h190v-92c0 -45 0 -111 51 -111c53 0 56 53 56 138
c0 65 -9 133 -89 133v145c177 0 297 -86 297 -281z" />
    <glyph glyph-name="sigma1" unicode="&#x3c2;" horiz-adv-x="566" 
d="M400 318c-11 31 -29 78 -89 78c-70 0 -89 -63 -89 -111c0 -88 45 -102 111 -122c82 -25 172 -30 172 -148c0 -71 -64 -147 -123 -199l-117 91c30 17 63 41 63 62c0 27 -42 35 -74 41c-88 18 -236 55 -236 261c0 149 106 270 285 270c158 0 222 -83 253 -135z" />
    <glyph glyph-name="chi" unicode="&#x3c7;" horiz-adv-x="586" 
d="M513 -9c17 -31 30 -33 49 -33c9 0 27 1 39 5v-141c-32 -9 -63 -15 -99 -15c-53 0 -111 12 -135 66l-57 126l-85 -187h-221l216 370l-97 165c-18 30 -30 35 -49 35c-9 0 -23 -1 -39 -5v141c32 9 63 13 99 13c64 0 113 -21 147 -106l31 -77l65 170h222l-195 -333z" />
    <glyph glyph-name="upsilon" unicode="&#x3c5;" horiz-adv-x="642" 
d="M602 221c0 -148 -78 -241 -282 -241c-194 0 -280 76 -280 226v312h207v-312c0 -52 28 -82 76 -82c49 0 73 32 73 87v307h206v-297z" />
    <glyph glyph-name="zeta" unicode="&#x3b6;" horiz-adv-x="493" 
d="M497 706v-134c-128 -75 -267 -184 -267 -338c0 -64 33 -69 102 -69c93 0 178 -18 178 -143c0 -71 -56 -154 -115 -206l-117 91c30 17 63 41 63 62c0 29 -23 31 -81 31c-130 0 -235 36 -235 196c0 131 84 265 228 363h-191v147h435z" />
    <glyph glyph-name="alphatonos" unicode="&#x3ac;" horiz-adv-x="658" 
d="M388 257c0 68 -20 125 -82 125c-58 0 -80 -48 -80 -129c0 -104 51 -121 82 -121c45 0 80 30 80 125zM261 -13c-172 0 -238 125 -238 269c0 100 35 276 227 276c65 0 123 -26 153 -68v54h185v-330c0 -35 3 -47 24 -47c5 0 15 1 26 4v-141c-30 -7 -66 -12 -99 -12
c-59 0 -105 28 -126 79c-23 -39 -63 -84 -152 -84zM512 724l-149 -137h-128l69 137h208z" />
    <glyph glyph-name="upsilontonos" unicode="&#x3cd;" horiz-adv-x="642" 
d="M602 221c0 -148 -78 -241 -282 -241c-194 0 -280 76 -280 226v312h207v-312c0 -52 28 -82 76 -82c49 0 73 32 73 87v307h206v-297zM532 724l-149 -137h-128l69 137h208z" />
    <glyph glyph-name="epsilontonos" unicode="&#x3ad;" horiz-adv-x="609" 
d="M417 198l176 -29c-31 -145 -159 -191 -290 -191c-160 0 -283 32 -283 160c0 79 54 118 119 133c-62 19 -95 61 -95 114c0 104 108 155 261 155c156 0 257 -51 269 -186l-177 -11c-4 26 -15 72 -84 72c-59 0 -81 -25 -81 -47c0 -38 28 -52 56 -52h79v-92h-81
c-46 0 -65 -18 -65 -51c0 -39 33 -60 92 -60c65 0 92 34 104 85zM491 724l-149 -137h-128l69 137h208z" />
    <glyph glyph-name="etatonos" unicode="&#x3ae;" horiz-adv-x="680" 
d="M640 -188h-206v471c0 41 -11 78 -71 78c-74 0 -74 -60 -74 -83v-278h-206v333c0 35 -4 48 -24 48c-8 0 -18 -2 -26 -4v141c33 7 66 12 102 12c64 0 111 -21 138 -88c29 62 108 89 175 89c127 0 192 -72 192 -200v-519zM520 724l-149 -137h-128l69 137h208z" />
    <glyph glyph-name="iotatonos" unicode="&#x3af;" horiz-adv-x="316" 
d="M246 518v-331c0 -35 3 -47 24 -47c5 0 15 1 26 4v-144c-28 -7 -75 -14 -108 -14c-62 0 -148 9 -148 163v369h206zM334 724l-149 -137h-128l69 137h208z" />
    <glyph glyph-name="omicrontonos" unicode="&#x3cc;" 
d="M624 258c0 -149 -101 -278 -309 -278c-161 0 -295 90 -295 275c0 156 101 285 302 285c208 0 302 -130 302 -282zM416 263c0 101 -41 132 -96 132c-68 0 -95 -58 -95 -134s24 -137 96 -137c50 0 95 28 95 139zM525 724l-149 -137h-128l69 137h208z" />
    <glyph glyph-name="upsilondieresistonos" unicode="&#x3b0;" horiz-adv-x="642" 
d="M602 221c0 -148 -78 -241 -282 -241c-194 0 -280 76 -280 226v312h207v-312c0 -52 28 -82 76 -82c49 0 73 32 73 87v307h206v-297zM454 774l-109 -169h-97l33 169h173zM601 605h-154v119h154v-119zM221 605h-154v119h154v-119z" />
    <glyph glyph-name="iotadieresistonos" unicode="&#x390;" horiz-adv-x="316" 
d="M246 518v-331c0 -35 3 -47 24 -47c5 0 15 1 26 4v-144c-28 -7 -75 -14 -108 -14c-62 0 -148 9 -148 163v369h206zM309 774l-109 -169h-97l33 169h173zM456 605h-154v119h154v-119zM76 605h-154v119h154v-119z" />
    <glyph glyph-name="upsilondieresis" unicode="&#x3cb;" horiz-adv-x="642" 
d="M602 221c0 -148 -78 -241 -282 -241c-194 0 -280 76 -280 226v312h207v-312c0 -52 28 -82 76 -82c49 0 73 32 73 87v307h206v-297zM529 605h-166v119h166v-119zM284 605h-166v119h166v-119z" />
    <glyph glyph-name="iotadieresis" unicode="&#x3ca;" horiz-adv-x="316" 
d="M246 518v-331c0 -35 3 -47 24 -47c5 0 15 1 26 4v-144c-28 -7 -75 -14 -108 -14c-62 0 -148 9 -148 163v369h206zM363 605h-166v119h166v-119zM118 605h-166v119h166v-119z" />
    <glyph glyph-name="omegatonos" unicode="&#x3ce;" horiz-adv-x="867" 
d="M842 259c0 -187 -80 -279 -231 -279c-79 0 -147 27 -179 103c-32 -76 -100 -103 -179 -103c-151 0 -228 89 -228 276c0 195 123 284 294 284v-145c-80 0 -89 -68 -89 -133c0 -85 3 -138 56 -138c49 0 51 61 51 106v97h190v-92c0 -45 0 -111 51 -111c53 0 56 53 56 138
c0 65 -9 133 -89 133v145c177 0 297 -86 297 -281zM628 724l-149 -137h-128l69 137h208z" />
    <glyph glyph-name="Imacron" horiz-adv-x="313" 
d="M268 0h-224v706h224v-706zM323 750h-333v107h333v-107z" />
    <glyph glyph-name="ibreve" horiz-adv-x="292" 
d="M248 0h-206v518h206v-518zM184 726h120c-8 -47 -32 -152 -162 -152c-135 0 -153 122 -153 152h115v-9c0 -36 22 -45 40 -45c27 0 40 19 40 43v11z" />
    <glyph glyph-name="cyrbreve" horiz-adv-x="313" 
d="M225 726l130 -20c-14 -92 -84 -138 -198 -138c-102 0 -190 38 -199 138l131 20c2 -35 27 -54 68 -54c43 0 66 19 68 54z" />
    <glyph glyph-name="dotmath" unicode="&#x22c5;" horiz-adv-x="250" 
d="M218 197h-186v185h186v-185z" />
    <glyph glyph-name="uniF6C3" unicode="&#xf6c3;" horiz-adv-x="313" 
d="M95 -118v77h123v-27c0 -79 -25 -116 -118 -118v43c12 3 23 12 24 25h-29z" />
    <glyph glyph-name="anoteleia" unicode="&#x387;" horiz-adv-x="260" 
d="M214 197h-186v185h186v-185z" />
    <glyph glyph-name="phi.salt" horiz-adv-x="856" 
d="M831 259c0 -197 -125 -265 -302 -275v-172h-199v172c-208 10 -305 99 -305 280c0 160 112 255 253 275l21 -140c-55 -12 -69 -76 -69 -129c0 -67 23 -145 100 -146v163c0 87 5 253 222 253c121 0 279 -49 279 -281zM627 259c0 96 -16 140 -51 140c-46 0 -47 -47 -47 -87
v-188c69 1 98 55 98 135z" />
    <glyph glyph-name="xi.salt" horiz-adv-x="529" 
d="M436 446v-138h-103c-67 0 -110 -21 -110 -76c0 -67 50 -72 122 -72c93 0 178 -13 178 -138c0 -71 -56 -154 -115 -206l-117 91c30 17 63 41 63 62c0 29 -23 31 -81 31c-130 0 -255 26 -255 189c0 101 69 172 170 194c-52 14 -131 51 -131 154c0 108 96 181 261 181
c66 0 191 -9 261 -139l-139 -70c-18 39 -45 80 -109 80c-22 0 -80 -7 -80 -76c0 -46 45 -67 95 -67h90z" />
    <glyph glyph-name="alpha.salt" horiz-adv-x="633" 
d="M388 257c0 68 -20 125 -82 125c-58 0 -80 -48 -80 -129c0 -104 51 -121 82 -121c45 0 80 30 80 125zM403 0v60c-25 -35 -70 -73 -142 -73c-172 0 -238 125 -238 269c0 100 35 276 227 276c65 0 123 -26 153 -68v54h185v-454c0 -38 5 -46 18 -64h-203z" />
    <glyph glyph-name="beta.salt" horiz-adv-x="628" 
d="M609 197c0 -139 -107 -210 -239 -210c-25 0 -94 10 -126 54v-41h-199v444c0 182 87 274 272 274c111 0 247 -55 247 -184c0 -76 -41 -133 -114 -148c97 -18 159 -86 159 -189zM406 216c0 81 -39 102 -97 102v114c28 0 70 6 70 89c0 50 -30 72 -63 72
c-49 0 -66 -38 -66 -89v-278c0 -60 29 -94 79 -94c40 0 77 26 77 84z" />
    <glyph glyph-name="gamma.salt" horiz-adv-x="560" 
d="M180 -188v188l-177 518h218l58 -321l62 321h216l-175 -518v-188h-202z" />
    <glyph glyph-name="eta.salt" horiz-adv-x="642" 
d="M602 0h-206v283c0 41 -11 78 -71 78c-74 0 -74 -60 -74 -83v-278h-206v518h195v-69c36 60 103 82 170 82c127 0 192 -72 192 -200v-331z" />
    <glyph glyph-name="iota.salt" horiz-adv-x="296" 
d="M251 0h-206v518h206v-518z" />
    <glyph glyph-name="kappa.salt" horiz-adv-x="640" 
d="M650 0h-235l-111 187l-54 -52v-135h-205v518h205v-159l149 159h251l-205 -197z" />
    <glyph glyph-name="lambda.salt" horiz-adv-x="591" 
d="M225 489l-2 6c-20 67 -37 79 -77 79c-20 0 -42 -5 -61 -10v139c21 7 52 15 99 15c110 0 147 -53 188 -157l219 -561h-215l-73 233c0 1 -78 -233 -78 -233h-215z" />
    <glyph glyph-name="mu.salt" horiz-adv-x="653" 
d="M415 0v67c-13 -52 -44 -75 -84 -75c-49 0 -74 31 -83 70c0 0 3 -228 3 -250h-206v706h207v-253c0 -83 18 -120 74 -120c53 0 75 29 75 124v249h207v-518h-193z" />
    <glyph glyph-name="nu.salt" horiz-adv-x="570" 
d="M567 518l-172 -518h-219l-173 518h218l63 -310l67 310h216z" />
    <glyph glyph-name="pi.salt" horiz-adv-x="685" 
d="M675 364h-66v-364h-207v364h-119v-364h-207v364h-66v154h665v-154z" />
    <glyph glyph-name="tau.salt" horiz-adv-x="494" 
d="M486 364h-142v-169c0 -21 2 -54 56 -54c12 0 17 0 37 4v-141c-17 -2 -74 -11 -130 -11c-145 0 -169 76 -169 150v221h-133v154h481v-154z" />
    <glyph glyph-name="chi.salt" horiz-adv-x="590" 
d="M600 0h-220l-85 168l-84 -168h-221l174 272l-154 246h221l64 -155l68 155h222l-157 -245z" />
    <glyph glyph-name="alphatonos.salt" horiz-adv-x="633" 
d="M388 257c0 68 -20 125 -82 125c-58 0 -80 -48 -80 -129c0 -104 51 -121 82 -121c45 0 80 30 80 125zM403 0v60c-25 -35 -70 -73 -142 -73c-172 0 -238 125 -238 269c0 100 35 276 227 276c65 0 123 -26 153 -68v54h185v-454c0 -38 5 -46 18 -64h-203zM516 724l-149 -137
h-128l69 137h208z" />
    <glyph glyph-name="etatonos.salt" horiz-adv-x="642" 
d="M602 0h-206v283c0 41 -11 78 -71 78c-74 0 -74 -60 -74 -83v-278h-206v518h195v-69c36 60 103 82 170 82c127 0 192 -72 192 -200v-331zM529 724l-149 -137h-128l69 137h208z" />
    <glyph glyph-name="iotatonos.salt" horiz-adv-x="296" 
d="M251 0h-206v518h206v-518zM336 724l-149 -137h-128l69 137h208z" />
    <glyph glyph-name="iotadieresis.salt" horiz-adv-x="296" 
d="M251 0h-206v518h206v-518zM365 605h-166v119h166v-119zM120 605h-166v119h166v-119z" />
    <glyph glyph-name="iotadieresistonos.salt" horiz-adv-x="296" 
d="M251 0h-206v518h206v-518zM311 774l-109 -169h-97l33 169h173zM458 605h-154v119h154v-119zM78 605h-154v119h154v-119z" />
    <glyph glyph-name="cyrBreve" horiz-adv-x="313" 
d="M225 900l150 -20c-13 -93 -95 -138 -218 -138c-111 0 -210 37 -219 138l151 20c4 -39 34 -50 68 -50c31 0 64 10 68 50z" />
    <glyph glyph-name="psi.salt" horiz-adv-x="846" 
d="M806 518v-301c0 -150 -95 -223 -284 -233v-172h-199v172c-199 10 -283 81 -283 231v303h207v-303c0 -52 30 -87 76 -92v395h200v-395c46 5 76 40 76 92v303h207z" />
    </font>
</defs>
</svg>
