<?xml version="1.0" standalone="no"?>
<!DOCTYPE svg PUBLIC "-//W3C//DTD SVG 1.1//EN" "http://www.w3.org/Graphics/SVG/1.1/DTD/svg11.dtd" >
<svg xmlns="http://www.w3.org/2000/svg" xmlns:xlink="http://www.w3.org/1999/xlink" version="1.1">
<metadata>
Created by FontForge 20141024 at Fri Mar 20 10:12:25 2015
 By System Administrator
Berthold first published Akzidenz-Grotesk in 1896. The design originates from Royal Grotesk light by Ferdinand Theinhardt who also supplied the regular, medium and bold weights. Throughout the years, Berthold has expanded this extremely popular and versatile family. AG Super was developed in 1968 by Guenter Gerhard Lange and is an excellent choice for headlines. In 2001, Guenter Gerhard Lange added more weights for Berthold including Super Italic and Extra Bold italic.
</metadata>
<defs>
<font id="AkzidenzGroteskPro-Bold" horiz-adv-x="375" >
  <font-face 
    font-family="Akzidenz-Grotesk Pro Bold"
    font-weight="700"
    font-stretch="normal"
    units-per-em="1000"
    panose-1="2 0 8 3 5 0 0 2 0 4"
    ascent="750"
    descent="-250"
    x-height="522"
    cap-height="706"
    bbox="-264 -276 1222 998"
    underline-thickness="50"
    underline-position="-50"
    stemh="118"
    stemv="154"
    unicode-range="U+0020-FB02"
  />
<missing-glyph horiz-adv-x="500" 
d="M0 0v706h500v-706h-500zM250 401l170 255h-340zM280 353l170 -258v516zM80 50h340l-170 258zM50 611v-516l170 258z" />
    <glyph glyph-name="fi" unicode="fi" horiz-adv-x="646" 
d="M576 587h-153v119h153v-119zM576 0h-153v522h153v-522zM347 416h-102v-416h-153v416h-82v94h82v75c0 90 67 132 157 132c36 0 86 -8 92 -9v-116h-28c-64 0 -69 -13 -69 -51v-31h103v-94z" />
    <glyph glyph-name="fl" unicode="fl" horiz-adv-x="646" 
d="M576 0h-153v706h153v-706zM347 416h-102v-416h-153v416h-82v94h82v75c0 90 67 132 157 132c36 0 86 -8 92 -9v-116h-28c-64 0 -69 -13 -69 -51v-31h103v-94z" />
    <glyph glyph-name=".notdef" horiz-adv-x="500" 
d="M0 0v706h500v-706h-500zM250 401l170 255h-340zM280 353l170 -258v516zM80 50h340l-170 258zM50 611v-516l170 258z" />
    <glyph glyph-name="space" unicode=" " horiz-adv-x="292" 
 />
    <glyph glyph-name="exclam" unicode="!" horiz-adv-x="292" 
d="M250 706v-204l-48 -259h-67l-45 252v211h160zM250 0h-160v170h160v-170z" />
    <glyph glyph-name="quotedbl" unicode="&#x22;" horiz-adv-x="318" 
d="M292 743l-33 -304h-37l-33 304h103zM130 743l-33 -304h-37l-33 304h103z" />
    <glyph glyph-name="numbersign" unicode="#" horiz-adv-x="667" 
d="M624 405h-109l-12 -95h98v-124h-116l-26 -186h-126l27 186h-99l-26 -186h-124l25 186h-94v124h112l13 95h-100v124h117l25 177h124l-25 -177h100l24 177h125l-24 -177h91v-124zM391 405h-100l-13 -95h99z" />
    <glyph glyph-name="dollar" unicode="$" horiz-adv-x="667" 
d="M296 -130v120c-128 11 -199 45 -270 92l92 104c25 -13 92 -55 178 -60v154c-92 16 -241 43 -241 194c0 179 158 213 240 216v115h81v-115c107 -10 187 -58 223 -81l-88 -102c-75 38 -99 42 -135 49v-133c135 -29 247 -69 247 -206c0 -127 -91 -218 -247 -227v-120h-80z
M296 437v120c-35 -3 -81 -21 -81 -65c0 -31 23 -44 81 -55zM376 265v-137c29 2 87 22 87 76c0 48 -54 56 -87 61z" />
    <glyph glyph-name="percent" unicode="%" horiz-adv-x="875" 
d="M665 679l-376 -721l-79 42l375 721zM26 457c0 97 31 231 162 231c112 0 157 -112 157 -233c0 -100 -35 -227 -156 -227c-120 0 -163 105 -163 229zM243 456c0 75 -13 145 -58 145c-41 0 -57 -60 -57 -151c0 -85 16 -137 60 -137c36 0 55 51 55 143zM528 223
c0 97 31 231 162 231c112 0 157 -110 157 -233c0 -100 -34 -227 -158 -227c-122 0 -161 118 -161 229zM746 222c0 75 -13 145 -58 145c-41 0 -57 -60 -57 -151c0 -85 16 -137 60 -137c36 0 55 51 55 143z" />
    <glyph glyph-name="ampersand" unicode="&#x26;" horiz-adv-x="688" 
d="M662 0h-84c-44 0 -83 6 -119 47c-59 -36 -120 -54 -188 -54c-117 0 -242 69 -242 219c0 123 90 187 173 222c-22 36 -46 77 -46 121c0 122 110 155 181 155c73 0 172 -38 172 -153c0 -35 -14 -115 -132 -164c19 -30 38 -57 57 -85l39 -55c16 35 20 43 34 105l125 -46
c-26 -79 -34 -97 -76 -168c19 -28 50 -33 80 -33h26v-111zM383 560c0 29 -23 43 -49 43c-25 0 -50 -14 -50 -42c0 -23 12 -39 34 -76c30 16 65 42 65 75zM386 145l-122 186l-24 -16c-33 -22 -58 -56 -58 -98c0 -38 27 -105 105 -105c37 0 67 15 99 33z" />
    <glyph glyph-name="quotesingle" unicode="'" horiz-adv-x="156" 
d="M130 743l-33 -304h-37l-33 304h103z" />
    <glyph glyph-name="parenleft" unicode="(" horiz-adv-x="335" 
d="M344 -95l-54 -70c-58 42 -105 89 -140 131c-78 96 -119 215 -119 346c0 127 41 251 116 351c38 51 81 94 138 138l58 -60c-38 -43 -48 -56 -67 -83c-64 -92 -97 -206 -97 -334c0 -176 59 -325 165 -419z" />
    <glyph glyph-name="parenright" unicode=")" horiz-adv-x="336" 
d="M-6 730l54 70c62 -45 105 -88 139 -131c79 -98 120 -215 120 -346c0 -128 -40 -251 -117 -352c-37 -48 -74 -85 -138 -137l-58 60c38 43 49 56 68 83c63 92 96 206 96 334c0 176 -59 326 -164 419z" />
    <glyph glyph-name="asterisk" unicode="*" horiz-adv-x="411" 
d="M394 534l-99 -34l61 -78l-85 -67l-66 85l-61 -85l-87 64l57 79l-98 29l31 104l101 -30v105h108v-105l103 35z" />
    <glyph glyph-name="plus" unicode="+" horiz-adv-x="724" 
d="M632 259h-187v-204h-166v204h-187v130h187v201h166v-201h187v-130z" />
    <glyph glyph-name="comma" unicode="," horiz-adv-x="250" 
d="M45 168h160v-137c0 -118 -45 -174 -159 -204v71c49 18 56 55 60 102h-61v168z" />
    <glyph glyph-name="hyphen" unicode="-" 
d="M337 237h-299v143h299v-143z" />
    <glyph glyph-name="period" unicode="." horiz-adv-x="250" 
d="M203 0h-158v167h158v-167z" />
    <glyph glyph-name="slash" unicode="/" horiz-adv-x="479" 
d="M462 706l-304 -706h-142l304 706h142z" />
    <glyph glyph-name="zero" unicode="0" horiz-adv-x="562" 
d="M40 344c0 191 75 345 241 345c217 0 240 -257 240 -353c0 -154 -51 -351 -246 -351c-160 0 -235 140 -235 359zM188 311c0 -78 12 -202 93 -202c76 0 90 116 90 225c0 110 -18 230 -92 230c-71 0 -90 -99 -91 -253z" />
    <glyph glyph-name="one" unicode="1" horiz-adv-x="562" 
d="M88 473v104c41 3 75 6 112 25c44 23 57 49 70 76h122v-678h-161v495c-37 -16 -46 -20 -143 -22z" />
    <glyph glyph-name="two" unicode="2" horiz-adv-x="562" 
d="M193 426l-161 9v24c0 160 103 231 238 231c139 0 230 -76 230 -207c0 -118 -64 -208 -262 -359c0 0 236 4 264 4v-128h-465v118c52 41 87 68 157 128c80 70 138 127 138 234c0 27 0 93 -69 93c-27 0 -74 -12 -74 -83c0 -17 2 -43 4 -64z" />
    <glyph glyph-name="three" unicode="3" horiz-adv-x="562" 
d="M202 471l-158 14c16 163 128 205 237 205c183 0 221 -117 221 -182c0 -85 -49 -129 -112 -151c85 -15 129 -77 129 -155c0 -64 -42 -214 -257 -214c-150 0 -231 90 -231 225v15l156 13s-1 -19 -1 -29c0 -63 37 -100 83 -100c53 0 89 37 89 100c0 77 -58 87 -100 87
c-8 0 -22 -1 -22 -1v115s15 -1 23 -1c85 0 85 73 85 80c0 55 -40 77 -73 77c-69 0 -69 -69 -69 -98z" />
    <glyph glyph-name="four" unicode="4" horiz-adv-x="562" 
d="M534 157h-90v-157h-158v156h-275c0 23 2 122 2 122l280 400h151v-411h90v-110zM287 267v239l-161 -239h161z" />
    <glyph glyph-name="five" unicode="5" horiz-adv-x="562" 
d="M55 321l41 355h390l-10 -128h-256l-16 -124c15 11 46 35 107 35c131 0 204 -101 204 -224c0 -118 -74 -248 -255 -248c-166 0 -232 110 -232 226l159 6c0 -67 21 -111 80 -111c79 0 84 89 84 126c0 83 -40 117 -86 117c-50 0 -64 -33 -71 -53z" />
    <glyph glyph-name="six" unicode="6" horiz-adv-x="562" 
d="M515 507l-160 -18v13c0 40 -26 68 -62 68c-87 0 -96 -129 -99 -214c17 37 70 79 147 79c82 0 187 -58 187 -208c0 -151 -100 -238 -243 -238c-119 0 -243 76 -243 334c0 184 43 368 264 368c172 0 200 -134 209 -184zM214 216c0 -37 9 -109 78 -109c83 0 83 90 83 109
c0 26 -4 104 -81 104c-46 0 -80 -36 -80 -104z" />
    <glyph glyph-name="seven" unicode="7" horiz-adv-x="562" 
d="M34 547v131h479v-122c-97 -117 -147 -209 -188 -336c-32 -100 -39 -151 -47 -220h-186c21 94 73 329 265 547h-323z" />
    <glyph glyph-name="eight" unicode="8" horiz-adv-x="562" 
d="M395 357c43 -16 124 -53 124 -164c0 -155 -136 -204 -240 -204c-152 0 -240 85 -240 205c0 114 82 147 121 162c-27 16 -93 56 -93 153c0 83 57 181 214 181c118 0 210 -64 210 -186c0 -101 -63 -131 -96 -147zM344 484c0 53 -23 88 -62 88c-46 0 -66 -37 -66 -79
c0 -51 22 -86 65 -86c45 0 63 36 63 77zM357 207c0 45 -21 97 -77 97c-40 0 -79 -32 -79 -97c0 -71 39 -98 77 -98c48 0 79 30 79 98z" />
    <glyph glyph-name="nine" unicode="9" horiz-adv-x="562" 
d="M46 172l160 17v-11c0 -43 25 -70 62 -70c86 0 95 130 98 214c-37 -67 -112 -79 -147 -79c-79 0 -187 55 -187 208c0 151 101 238 243 238c130 0 243 -83 243 -334c0 -186 -44 -368 -263 -368c-171 0 -203 136 -209 185zM346 462c0 37 -9 109 -78 109
c-83 0 -83 -90 -83 -109c0 -26 4 -104 81 -104c46 0 80 36 80 104z" />
    <glyph glyph-name="colon" unicode=":" horiz-adv-x="292" 
d="M246 354h-160v168h160v-168zM246 0h-160v170h160v-170z" />
    <glyph glyph-name="semicolon" unicode=";" horiz-adv-x="292" 
d="M246 354h-160v170h160v-170zM86 171h160v-135c0 -118 -48 -184 -160 -207v70c53 17 57 54 61 101h-61v171z" />
    <glyph glyph-name="less" unicode="&#x3c;" horiz-adv-x="724" 
d="M578 195v-163l-466 226v151l465 222v-155l-314 -137z" />
    <glyph glyph-name="equal" unicode="=" horiz-adv-x="724" 
d="M625 352h-525v132h525v-132zM625 136h-525v131h525v-131z" />
    <glyph glyph-name="greater" unicode="&#x3e;" horiz-adv-x="724" 
d="M607 253l-465 -222v156l314 137l-314 144v163l465 -226v-152z" />
    <glyph glyph-name="question" unicode="?" horiz-adv-x="604" 
d="M204 488l-143 46c37 122 126 186 274 186c183 0 250 -95 250 -187c0 -89 -56 -131 -84 -153c-37 -28 -76 -52 -114 -82c-28 -22 -31 -31 -36 -55h-127c2 45 4 74 42 112c26 26 56 44 85 64c17 12 66 47 66 97c0 23 -8 90 -93 90c-81 0 -120 -60 -120 -118zM210 0v170h158
v-170h-158z" />
    <glyph glyph-name="at" unicode="@" horiz-adv-x="851" 
d="M751 101l46 -62c-55 -50 -78 -68 -121 -94c-78 -46 -161 -69 -252 -69c-216 0 -383 138 -383 361c0 263 204 476 457 476c180 0 300 -117 300 -292c0 -185 -113 -354 -237 -354c-49 0 -82 25 -92 68c-35 -45 -78 -68 -125 -68c-85 0 -139 65 -139 168
c0 155 101 288 217 288c47 0 74 -14 105 -60l10 40h90l-33 -159c-21 -102 -28 -143 -28 -165c0 -18 8 -28 21 -28c11 0 27 10 43 27c51 55 84 150 84 240c0 132 -85 215 -223 215c-198 0 -368 -182 -368 -393c0 -173 118 -285 301 -285c117 0 229 50 327 146zM494 346v4
c0 51 -27 84 -67 84c-62 0 -119 -92 -119 -192c0 -53 24 -86 64 -86c62 0 122 97 122 190z" />
    <glyph glyph-name="A" unicode="A" horiz-adv-x="708" 
d="M705 0h-188l-35 113h-260l-35 -113h-188l262 706h184zM442 240l-92 298l-87 -298h179z" />
    <glyph glyph-name="B" unicode="B" horiz-adv-x="708" 
d="M68 0v706h329c186 0 250 -82 250 -185c0 -119 -108 -153 -151 -158c68 -6 178 -41 178 -165c0 -130 -116 -198 -260 -198h-346zM236 427h133c38 0 105 3 105 76c0 68 -59 71 -93 71h-145v-147zM236 128h123c57 0 136 3 136 84c0 85 -71 87 -107 87h-152v-171z" />
    <glyph glyph-name="C" unicode="C" horiz-adv-x="702" 
d="M542 232l139 -71c-56 -98 -157 -182 -304 -182c-187 0 -338 136 -338 375c0 209 142 374 342 374c130 0 248 -77 298 -183l-140 -70c-15 53 -78 108 -150 108c-114 0 -174 -106 -174 -224c0 -155 79 -232 174 -232c92 0 129 64 153 105z" />
    <glyph glyph-name="D" unicode="D" horiz-adv-x="729" 
d="M67 0v706h242c273 0 390 -121 390 -353c0 -168 -73 -353 -354 -353h-278zM245 557v-415h57c152 0 220 53 220 213c0 110 -36 202 -190 202h-87z" />
    <glyph glyph-name="E" unicode="E" horiz-adv-x="646" 
d="M68 0v706h522v-137h-346v-128h323v-134h-323v-168h377v-139h-553z" />
    <glyph glyph-name="F" unicode="F" horiz-adv-x="625" 
d="M67 706h542v-136h-366v-148h337v-137h-337v-285h-176v706z" />
    <glyph glyph-name="G" unicode="G" horiz-adv-x="750" 
d="M699 567l-134 -81c-25 51 -84 100 -165 100c-113 0 -184 -84 -184 -228c0 -84 25 -232 185 -232c64 0 148 31 154 132h-158v134h307v-392h-138v65c-86 -78 -168 -81 -208 -81c-219 0 -318 190 -318 369c0 168 98 377 348 377c187 0 281 -125 311 -163z" />
    <glyph glyph-name="H" unicode="H" horiz-adv-x="750" 
d="M681 0h-177v301h-258v-301h-178v706h178v-255h258v255h177v-706z" />
    <glyph glyph-name="I" unicode="I" horiz-adv-x="313" 
d="M243 0h-176v706h176v-706z" />
    <glyph glyph-name="J" unicode="J" horiz-adv-x="396" 
d="M16 0v143h35c83 0 103 12 103 63v500h177v-536c0 -134 -68 -170 -197 -170h-118z" />
    <glyph glyph-name="K" unicode="K" horiz-adv-x="708" 
d="M732 0h-199l-188 320l-109 -113v-207h-168v706h168v-288l264 288h213l-250 -262z" />
    <glyph glyph-name="L" unicode="L" horiz-adv-x="542" 
d="M520 0h-452v706h176v-557h276v-149z" />
    <glyph glyph-name="M" unicode="M" horiz-adv-x="917" 
d="M848 0h-170s0 390 4 528l-147 -528h-153l-146 528c3 -99 4 -528 4 -528h-172v706h258l133 -494l131 494h258v-706z" />
    <glyph glyph-name="N" unicode="N" horiz-adv-x="729" 
d="M660 0h-173l-250 422v-422h-170v706h173l251 -430v430h169v-706z" />
    <glyph glyph-name="O" unicode="O" horiz-adv-x="792" 
d="M42 356c0 161 94 372 349 372c257 0 358 -212 358 -380c0 -189 -129 -369 -356 -369c-233 0 -351 183 -351 377zM216 358c0 -113 51 -229 178 -229c131 0 178 122 178 221c0 128 -56 230 -181 230c-134 0 -175 -127 -175 -222z" />
    <glyph glyph-name="P" unicode="P" horiz-adv-x="688" 
d="M67 706h350c167 0 255 -79 255 -241c0 -179 -157 -234 -285 -234h-143v-231h-177v706zM244 576v-214h116c80 0 136 19 136 111c0 102 -84 103 -139 103h-113z" />
    <glyph glyph-name="Q" unicode="Q" horiz-adv-x="792" 
d="M817 61l-51 -125c-57 5 -118 32 -194 93c-64 -31 -106 -49 -178 -49c-224 0 -352 165 -352 376c0 199 133 371 352 371c192 0 356 -136 356 -369c0 -91 -31 -180 -70 -234c44 -44 86 -55 137 -63zM218 356c0 -106 48 -227 180 -227c151 0 177 161 177 226
c0 136 -73 223 -180 223c-130 0 -177 -108 -177 -222z" />
    <glyph glyph-name="R" unicode="R" horiz-adv-x="708" 
d="M67 706h334c105 0 271 -27 271 -229c0 -120 -68 -168 -145 -195l163 -282h-194l-141 252h-110v-252h-178v706zM244 575v-192h146c101 0 106 76 106 98c0 92 -74 94 -105 94h-147z" />
    <glyph glyph-name="S" unicode="S" horiz-adv-x="688" 
d="M644 589l-130 -93c-51 53 -109 88 -185 88c-72 0 -105 -42 -105 -75c0 -38 30 -56 90 -65l78 -11c184 -26 260 -82 260 -203c0 -149 -119 -246 -321 -246c-165 0 -250 59 -322 143l134 85c47 -57 128 -89 204 -89c52 0 130 23 130 82c0 50 -60 64 -123 72l-81 11
c-124 17 -225 75 -225 199c0 139 103 236 285 236c149 0 242 -68 311 -134z" />
    <glyph glyph-name="T" unicode="T" horiz-adv-x="562" 
d="M552 567h-183v-567h-178v567h-184v139h545v-139z" />
    <glyph glyph-name="U" unicode="U" horiz-adv-x="729" 
d="M665 706v-427c0 -177 -113 -295 -304 -295c-166 0 -299 88 -299 283v439h178v-459c0 -94 48 -117 127 -117c90 0 121 45 121 126v450h177z" />
    <glyph glyph-name="V" unicode="V" horiz-adv-x="667" 
d="M666 706l-245 -706h-180l-242 706h188l146 -502l145 502h188z" />
    <glyph glyph-name="W" unicode="W" horiz-adv-x="979" 
d="M977 706l-179 -706h-182l-127 452l-128 -452h-182l-179 706h177l104 -486l128 486h157l132 -486l103 486h176z" />
    <glyph glyph-name="X" unicode="X" horiz-adv-x="771" 
d="M769 0h-203l-181 267l-183 -267h-202l273 383l-235 323h209l136 -213l138 213h205l-233 -323z" />
    <glyph glyph-name="Y" unicode="Y" horiz-adv-x="708" 
d="M708 706l-267 -372v-334h-174v329l-265 377h202l152 -239l151 239h201z" />
    <glyph glyph-name="Z" unicode="Z" horiz-adv-x="625" 
d="M608 568l-385 -429h383v-139h-601v133l391 436h-358v137h570v-138z" />
    <glyph glyph-name="bracketleft" unicode="[" horiz-adv-x="292" 
d="M275 -144h-224v923h224v-84h-91v-755h91v-84z" />
    <glyph glyph-name="backslash" unicode="\" horiz-adv-x="479" 
d="M462 0h-142l-304 706h142z" />
    <glyph glyph-name="bracketright" unicode="]" horiz-adv-x="292" 
d="M241 -144h-224v84h91v755h-91v84h224v-923z" />
    <glyph glyph-name="asciicircum" unicode="^" horiz-adv-x="724" 
d="M651 281h-165l-118 281l-121 -281h-174l214 425h156z" />
    <glyph glyph-name="underscore" unicode="_" horiz-adv-x="498" 
d="M508 -231h-520v110h520v-110z" />
    <glyph glyph-name="grave" unicode="`" horiz-adv-x="271" 
d="M265 587h-101l-158 133h185z" />
    <glyph glyph-name="a" unicode="a" horiz-adv-x="583" 
d="M526 0h-151v47c-41 -27 -80 -61 -160 -61c-119 0 -171 84 -171 159c0 65 45 123 110 150c36 15 91 26 206 48v29c0 18 -3 63 -59 63c-65 0 -77 -38 -81 -61h-154c0 115 106 162 220 162c90 0 225 -24 225 -150v-305c0 -45 2 -62 15 -81zM360 250l-99 -33
c-53 -17 -66 -42 -66 -65c0 -18 15 -53 59 -53c60 0 106 54 106 128v23z" />
    <glyph glyph-name="b" unicode="b" horiz-adv-x="625" 
d="M69 706h150v-232c23 25 55 63 149 63c125 0 223 -95 223 -266c0 -134 -59 -285 -228 -285c-75 0 -128 36 -152 69v-55h-142v706zM441 267c0 47 -9 158 -105 158c-65 0 -121 -39 -121 -160c0 -83 23 -165 115 -165c104 0 111 121 111 167z" />
    <glyph glyph-name="c" unicode="c" horiz-adv-x="539" 
d="M408 183l116 -60c-59 -103 -152 -140 -232 -140c-122 0 -259 78 -259 274c0 209 144 280 262 280c47 0 150 -10 223 -126l-114 -65c-14 29 -42 73 -102 73c-82 0 -111 -94 -111 -157c0 -66 31 -157 116 -157c60 0 90 45 101 78z" />
    <glyph glyph-name="d" unicode="d" horiz-adv-x="604" 
d="M536 0h-140v49c-57 -58 -111 -63 -139 -63c-123 0 -226 95 -226 271c0 155 76 279 218 279c73 0 118 -37 138 -53v223h149v-706zM187 258c0 -46 10 -158 99 -158c100 0 104 132 104 157c0 65 -12 164 -96 164c-82 0 -107 -89 -107 -163z" />
    <glyph glyph-name="e" unicode="e" horiz-adv-x="583" 
d="M562 229h-373v-6c0 -70 48 -124 119 -124c73 0 116 50 132 93l116 -60c-59 -99 -152 -151 -260 -151c-159 0 -264 101 -264 270c0 131 64 287 268 287c196 0 262 -157 262 -302v-7zM189 325h214c-2 58 -41 103 -104 103c-73 0 -103 -61 -110 -103z" />
    <glyph glyph-name="f" unicode="f" horiz-adv-x="354" 
d="M347 416h-102v-416h-153v416h-82v94h82v75c0 90 67 132 157 132c36 0 86 -8 92 -9v-116h-28c-64 0 -69 -13 -69 -51v-31h103v-94z" />
    <glyph glyph-name="g" unicode="g" horiz-adv-x="604" 
d="M392 522h145v-509c0 -136 -89 -200 -259 -200c-141 0 -239 57 -239 171v16h159c0 -35 15 -85 95 -85c57 0 91 24 91 83v71c-35 -23 -67 -45 -137 -45c-85 0 -216 49 -216 252c0 156 91 255 216 255c76 0 117 -30 145 -57v48zM384 277c0 66 -10 139 -100 139
c-89 0 -94 -101 -94 -134c0 -74 14 -141 98 -141c91 0 96 83 96 136z" />
    <glyph glyph-name="h" unicode="h" horiz-adv-x="604" 
d="M537 0h-153v282c0 54 -3 123 -79 123c-64 0 -83 -48 -83 -130v-275h-154v706h154v-240c57 63 119 70 149 70c108 0 166 -68 166 -179v-357z" />
    <glyph glyph-name="i" unicode="i" horiz-adv-x="292" 
d="M222 587h-153v119h153v-119zM222 0h-153v522h153v-522z" />
    <glyph glyph-name="j" unicode="j" horiz-adv-x="292" 
d="M221 588h-152v118h152v-118zM69 522h152v-518c0 -138 -40 -182 -151 -182c-23 0 -45 0 -70 2v122c3 0 13 -1 19 -1c49 0 50 29 50 74v503z" />
    <glyph glyph-name="k" unicode="k" horiz-adv-x="583" 
d="M595 0h-178l-134 225l-66 -63v-162h-150v706h151v-363l169 179h185l-180 -186z" />
    <glyph glyph-name="l" unicode="l" horiz-adv-x="292" 
d="M222 0h-153v706h153v-706z" />
    <glyph glyph-name="m" unicode="m" horiz-adv-x="896" 
d="M67 522h153v-54c13 16 57 68 147 68c70 0 114 -23 146 -61c29 24 77 61 155 61c96 0 160 -50 160 -153v-383h-153v301c0 70 -17 110 -72 110s-79 -35 -79 -98v-313h-153v312c0 73 -27 98 -75 98c-69 0 -77 -64 -77 -108v-302h-152v522z" />
    <glyph glyph-name="n" unicode="n" horiz-adv-x="604" 
d="M535 0h-154v322c0 49 -14 90 -76 90c-71 0 -81 -50 -81 -120v-292h-154v522h156v-46c25 30 74 59 147 59c106 0 162 -54 162 -160v-375z" />
    <glyph glyph-name="o" unicode="o" horiz-adv-x="625" 
d="M593 261c0 -169 -106 -277 -281 -277c-136 0 -280 74 -280 280c0 132 80 274 275 274c219 0 286 -152 286 -277zM437 256c0 111 -47 160 -131 160c-58 0 -119 -44 -119 -153c0 -87 37 -156 127 -156c85 0 123 71 123 149z" />
    <glyph glyph-name="p" unicode="p" horiz-adv-x="604" 
d="M64 522h138v-51c11 17 54 63 146 63c150 0 227 -127 227 -272c0 -168 -88 -272 -227 -272c-55 0 -83 16 -128 44v-215h-156v703zM213 254c0 -87 35 -153 106 -153c79 0 108 88 108 169c0 35 -11 155 -104 155c-57 0 -110 -50 -110 -171z" />
    <glyph glyph-name="q" unicode="q" horiz-adv-x="604" 
d="M536 -180h-154v217c-35 -25 -68 -48 -135 -48c-110 0 -216 84 -216 266c0 135 69 281 226 281c61 0 95 -20 139 -59v45h140v-702zM393 266c0 103 -46 160 -102 160c-80 0 -108 -90 -108 -163c0 -98 50 -160 105 -160c56 0 105 54 105 163z" />
    <glyph glyph-name="r" unicode="r" 
d="M67 522h149v-54c13 11 27 25 61 39c42 17 71 20 90 21v-136l-51 -8c-81 -13 -96 -34 -96 -90v-294h-153v522z" />
    <glyph glyph-name="s" unicode="s" horiz-adv-x="521" 
d="M488 461l-95 -88c-34 28 -84 52 -133 52c-33 0 -72 -11 -72 -40c0 -25 24 -33 85 -45l37 -7c113 -21 188 -67 188 -164c0 -130 -138 -182 -247 -182c-130 0 -215 60 -253 101l97 88c38 -40 96 -72 152 -72c51 0 93 18 93 51c0 29 -27 37 -83 46l-47 8
c-124 21 -175 75 -175 155c0 89 74 175 221 175c89 0 169 -30 232 -78z" />
    <glyph glyph-name="t" unicode="t" horiz-adv-x="354" 
d="M341 415h-102v-250c0 -35 16 -43 40 -43c11 0 54 1 54 1v-119c-10 -2 -41 -8 -97 -8c-84 0 -149 26 -149 148v272h-76v94h76v163h152v-164h102v-94z" />
    <glyph glyph-name="u" unicode="u" horiz-adv-x="604" 
d="M534 0h-154v49c-14 -20 -66 -64 -152 -64c-115 0 -164 58 -164 187v350h155v-335c0 -35 12 -77 74 -77s88 38 88 86v326h153v-522z" />
    <glyph glyph-name="v" unicode="v" horiz-adv-x="500" 
d="M499 522l-169 -522h-161l-170 522h163l93 -354l86 354h158z" />
    <glyph glyph-name="w" unicode="w" horiz-adv-x="792" 
d="M790 522l-156 -522h-167l-77 348l-78 -348h-169l-143 522h162l73 -365l79 365h164l72 -368l81 368h159z" />
    <glyph glyph-name="x" unicode="x" horiz-adv-x="521" 
d="M520 0h-164l-99 162l-87 -162h-170l177 283l-158 239h174l69 -133l74 133h165l-158 -244z" />
    <glyph glyph-name="y" unicode="y" horiz-adv-x="500" 
d="M336 522h164l-184 -564c-12 -37 -24 -69 -51 -98c-32 -34 -63 -40 -109 -40h-111v123h66c42 0 52 20 52 38c0 14 -3 25 -11 50l-152 491h164l86 -374z" />
    <glyph glyph-name="z" unicode="z" horiz-adv-x="542" 
d="M511 0h-477v115l282 289h-252v118h447v-118l-278 -285h278v-119z" />
    <glyph glyph-name="braceleft" unicode="{" horiz-adv-x="317" 
d="M305 -148h-63c-121 0 -145 38 -145 161v155c0 88 -17 100 -86 106v87c68 5 86 21 86 106v154c0 124 27 161 143 161h64v-84h-16c-49 0 -57 -28 -57 -106v-141c0 -82 -17 -110 -83 -135c63 -18 83 -50 83 -134v-138c0 -66 2 -109 62 -109h12v-83z" />
    <glyph glyph-name="bar" unicode="|" horiz-adv-x="256" 
d="M194 -143h-133v922h133v-922z" />
    <glyph glyph-name="braceright" unicode="}" horiz-adv-x="317" 
d="M306 273c-66 -6 -86 -18 -86 -106v-155c0 -120 -24 -161 -143 -161h-65v84h16c48 0 57 25 57 106v141c0 82 17 110 83 135c-61 19 -83 51 -83 134v143c0 60 0 104 -61 104h-12v84h64c121 0 144 -41 144 -162v-155c0 -87 15 -99 86 -106v-86z" />
    <glyph glyph-name="asciitilde" unicode="~" horiz-adv-x="724" 
d="M608 436l46 -130c-60 -74 -109 -99 -165 -99c-31 0 -61 9 -121 38l-35 17c-46 22 -75 30 -104 30c-35 0 -60 -11 -103 -67l-9 -12l-47 132c53 72 94 100 159 100c32 0 59 -8 121 -36l57 -26c46 -21 59 -25 79 -25c42 0 69 18 122 78z" />
    <glyph glyph-name="Adieresis" unicode="&#xc4;" horiz-adv-x="708" 
d="M705 0h-188l-35 113h-260l-35 -113h-188l262 706h184zM442 240l-92 298l-87 -298h179zM542 780h-161v116h161v-116zM319 780h-160v117h160v-117z" />
    <glyph glyph-name="Aring" unicode="&#xc5;" horiz-adv-x="708" 
d="M705 0h-188l-35 113h-260l-35 -113h-188l262 706h184zM442 240l-92 298l-87 -298h179zM251 829c0 54 44 98 98 98s98 -44 98 -98s-44 -98 -98 -98s-98 44 -98 98zM309 829c0 -22 18 -40 40 -40s40 18 40 40s-18 40 -40 40s-40 -18 -40 -40z" />
    <glyph glyph-name="Ccedilla" unicode="&#xc7;" horiz-adv-x="702" 
d="M542 232l139 -71c-56 -98 -160 -182 -304 -182h-7l-15 -32c13 1 25 3 39 3c60 0 76 -39 76 -65c0 -50 -51 -82 -96 -82c-41 0 -73 23 -99 52l28 23c14 -17 30 -32 54 -32c18 0 35 11 35 31c0 29 -32 40 -55 40c-12 0 -19 -2 -28 -3l-12 18l27 51
c-164 25 -285 155 -285 371c0 209 142 374 342 374c130 0 248 -77 298 -183l-140 -70c-15 53 -78 108 -150 108c-114 0 -174 -106 -174 -224c0 -155 79 -232 174 -232c92 0 129 64 153 105z" />
    <glyph glyph-name="Eacute" unicode="&#xc9;" horiz-adv-x="646" 
d="M68 0v706h522v-137h-346v-128h323v-134h-323v-168h377v-139h-553zM493 897l-145 -115h-96l61 115h180z" />
    <glyph glyph-name="Ntilde" unicode="&#xd1;" horiz-adv-x="729" 
d="M660 0h-173l-250 422v-422h-170v706h173l251 -430v430h169v-706zM480 902h69c-3 -74 -37 -137 -97 -137c-58 0 -114 50 -153 50c-31 0 -36 -36 -37 -45h-68c2 55 31 135 105 135c56 0 104 -45 141 -45c30 0 39 34 40 42z" />
    <glyph glyph-name="Odieresis" unicode="&#xd6;" horiz-adv-x="792" 
d="M42 356c0 161 94 372 349 372c257 0 358 -212 358 -380c0 -189 -129 -369 -356 -369c-233 0 -351 183 -351 377zM216 358c0 -113 51 -229 178 -229c131 0 178 122 178 221c0 128 -56 230 -181 230c-134 0 -175 -127 -175 -222zM588 780h-161v116h161v-116zM365 780h-160
v117h160v-117z" />
    <glyph glyph-name="Udieresis" unicode="&#xdc;" horiz-adv-x="729" 
d="M665 706v-427c0 -177 -113 -295 -304 -295c-166 0 -299 88 -299 283v439h178v-459c0 -94 48 -117 127 -117c90 0 121 45 121 126v450h177zM555 780h-161v116h161v-116zM332 780h-160v117h160v-117z" />
    <glyph glyph-name="aacute" unicode="&#xe1;" horiz-adv-x="583" 
d="M526 0h-151v47c-41 -27 -80 -61 -160 -61c-119 0 -171 84 -171 159c0 65 45 123 110 150c36 15 91 26 206 48v29c0 18 -3 63 -59 63c-65 0 -77 -38 -81 -61h-154c0 115 106 162 220 162c90 0 225 -24 225 -150v-305c0 -45 2 -62 15 -81zM360 250l-99 -33
c-53 -17 -66 -42 -66 -65c0 -18 15 -53 59 -53c60 0 106 54 106 128v23zM465 719l-153 -133h-102l73 133h182z" />
    <glyph glyph-name="agrave" unicode="&#xe0;" horiz-adv-x="583" 
d="M526 0h-151v47c-41 -27 -80 -61 -160 -61c-119 0 -171 84 -171 159c0 65 45 123 110 150c36 15 91 26 206 48v29c0 18 -3 63 -59 63c-65 0 -77 -38 -81 -61h-154c0 115 106 162 220 162c90 0 225 -24 225 -150v-305c0 -45 2 -62 15 -81zM360 250l-99 -33
c-53 -17 -66 -42 -66 -65c0 -18 15 -53 59 -53c60 0 106 54 106 128v23zM377 587h-101l-158 133h185z" />
    <glyph glyph-name="acircumflex" unicode="&#xe2;" horiz-adv-x="583" 
d="M526 0h-151v47c-41 -27 -80 -61 -160 -61c-119 0 -171 84 -171 159c0 65 45 123 110 150c36 15 91 26 206 48v29c0 18 -3 63 -59 63c-65 0 -77 -38 -81 -61h-154c0 115 106 162 220 162c90 0 225 -24 225 -150v-305c0 -45 2 -62 15 -81zM360 250l-99 -33
c-53 -17 -66 -42 -66 -65c0 -18 15 -53 59 -53c60 0 106 54 106 128v23zM460 589h-118l-49 62l-46 -63h-118l101 132h127z" />
    <glyph glyph-name="adieresis" unicode="&#xe4;" horiz-adv-x="583" 
d="M526 0h-151v47c-41 -27 -80 -61 -160 -61c-119 0 -171 84 -171 159c0 65 45 123 110 150c36 15 91 26 206 48v29c0 18 -3 63 -59 63c-65 0 -77 -38 -81 -61h-154c0 115 106 162 220 162c90 0 225 -24 225 -150v-305c0 -45 2 -62 15 -81zM360 250l-99 -33
c-53 -17 -66 -42 -66 -65c0 -18 15 -53 59 -53c60 0 106 54 106 128v23zM511 596h-158v124h158v-124zM259 596h-157v124h157v-124z" />
    <glyph glyph-name="atilde" unicode="&#xe3;" horiz-adv-x="583" 
d="M526 0h-151v47c-41 -27 -80 -61 -160 -61c-119 0 -171 84 -171 159c0 65 45 123 110 150c36 15 91 26 206 48v29c0 18 -3 63 -59 63c-65 0 -77 -38 -81 -61h-154c0 115 106 162 220 162c90 0 225 -24 225 -150v-305c0 -45 2 -62 15 -81zM360 250l-99 -33
c-53 -17 -66 -42 -66 -65c0 -18 15 -53 59 -53c60 0 106 54 106 128v23zM397 720h69c-6 -59 -19 -138 -92 -138c-61 0 -109 46 -153 46c-26 0 -35 -25 -37 -46h-72c10 101 41 142 100 142c60 0 101 -45 145 -45c11 0 35 3 40 41z" />
    <glyph glyph-name="aring" unicode="&#xe5;" horiz-adv-x="583" 
d="M526 0h-151v47c-41 -27 -80 -61 -160 -61c-119 0 -171 84 -171 159c0 65 45 123 110 150c36 15 91 26 206 48v29c0 18 -3 63 -59 63c-65 0 -77 -38 -81 -61h-154c0 115 106 162 220 162c90 0 225 -24 225 -150v-305c0 -45 2 -62 15 -81zM360 250l-99 -33
c-53 -17 -66 -42 -66 -65c0 -18 15 -53 59 -53c60 0 106 54 106 128v23zM190 655c0 54 44 98 98 98s98 -44 98 -98s-44 -98 -98 -98s-98 44 -98 98zM248 655c0 -22 18 -40 40 -40s40 18 40 40s-18 40 -40 40s-40 -18 -40 -40z" />
    <glyph glyph-name="ccedilla" unicode="&#xe7;" horiz-adv-x="539" 
d="M408 183l116 -60c-59 -103 -151 -139 -231 -139h-14l-18 -37c13 1 25 3 39 3c60 0 76 -39 76 -65c0 -50 -51 -82 -96 -82c-41 0 -73 23 -99 52l28 23c14 -17 30 -32 54 -32c18 0 35 11 35 31c0 29 -32 40 -55 40c-12 0 -19 -2 -28 -3l-12 18l32 58
c-104 21 -202 101 -202 267c0 209 144 280 262 280c47 0 150 -10 223 -126l-114 -65c-14 29 -42 73 -102 73c-82 0 -111 -94 -111 -157c0 -66 31 -157 116 -157c60 0 90 45 101 78z" />
    <glyph glyph-name="eacute" unicode="&#xe9;" horiz-adv-x="583" 
d="M562 229h-373v-6c0 -70 48 -124 119 -124c73 0 116 50 132 93l116 -60c-59 -99 -152 -151 -260 -151c-159 0 -264 101 -264 270c0 131 64 287 268 287c196 0 262 -157 262 -302v-7zM189 325h214c-2 58 -41 103 -104 103c-73 0 -103 -61 -110 -103zM473 719l-153 -133
h-102l73 133h182z" />
    <glyph glyph-name="egrave" unicode="&#xe8;" horiz-adv-x="583" 
d="M562 229h-373v-6c0 -70 48 -124 119 -124c73 0 116 50 132 93l116 -60c-59 -99 -152 -151 -260 -151c-159 0 -264 101 -264 270c0 131 64 287 268 287c196 0 262 -157 262 -302v-7zM189 325h214c-2 58 -41 103 -104 103c-73 0 -103 -61 -110 -103zM374 587h-101l-158 133
h185z" />
    <glyph glyph-name="ecircumflex" unicode="&#xea;" horiz-adv-x="583" 
d="M562 229h-373v-6c0 -70 48 -124 119 -124c73 0 116 50 132 93l116 -60c-59 -99 -152 -151 -260 -151c-159 0 -264 101 -264 270c0 131 64 287 268 287c196 0 262 -157 262 -302v-7zM189 325h214c-2 58 -41 103 -104 103c-73 0 -103 -61 -110 -103zM460 589h-118l-49 62
l-46 -63h-118l101 132h127z" />
    <glyph glyph-name="edieresis" unicode="&#xeb;" horiz-adv-x="583" 
d="M562 229h-373v-6c0 -70 48 -124 119 -124c73 0 116 50 132 93l116 -60c-59 -99 -152 -151 -260 -151c-159 0 -264 101 -264 270c0 131 64 287 268 287c196 0 262 -157 262 -302v-7zM189 325h214c-2 58 -41 103 -104 103c-73 0 -103 -61 -110 -103zM497 596h-158v124h158
v-124zM245 596h-157v124h157v-124z" />
    <glyph glyph-name="iacute" unicode="&#xed;" horiz-adv-x="292" 
d="M221 0h-152v522h152v-522zM328 719l-153 -133h-102l73 133h182z" />
    <glyph glyph-name="igrave" unicode="&#xec;" horiz-adv-x="292" 
d="M221 0h-152v522h152v-522zM218 587h-101l-158 133h185z" />
    <glyph glyph-name="icircumflex" unicode="&#xee;" horiz-adv-x="292" 
d="M221 0h-152v522h152v-522zM315 589h-118l-49 62l-46 -63h-118l101 132h127z" />
    <glyph glyph-name="idieresis" unicode="&#xef;" horiz-adv-x="292" 
d="M221 0h-152v522h152v-522zM352 596h-158v124h158v-124zM100 596h-157v124h157v-124z" />
    <glyph glyph-name="ntilde" unicode="&#xf1;" horiz-adv-x="604" 
d="M535 0h-154v322c0 49 -14 90 -76 90c-71 0 -81 -50 -81 -120v-292h-154v522h156v-46c25 30 74 59 147 59c106 0 162 -54 162 -160v-375zM408 720h69c-6 -59 -19 -138 -92 -138c-61 0 -109 46 -153 46c-26 0 -35 -25 -37 -46h-72c10 101 41 142 100 142
c60 0 101 -45 145 -45c11 0 35 3 40 41z" />
    <glyph glyph-name="oacute" unicode="&#xf3;" horiz-adv-x="625" 
d="M593 261c0 -169 -106 -277 -281 -277c-136 0 -280 74 -280 280c0 132 80 274 275 274c219 0 286 -152 286 -277zM437 256c0 111 -47 160 -131 160c-58 0 -119 -44 -119 -153c0 -87 37 -156 127 -156c85 0 123 71 123 149zM493 719l-153 -133h-102l73 133h182z" />
    <glyph glyph-name="ograve" unicode="&#xf2;" horiz-adv-x="625" 
d="M593 261c0 -169 -106 -277 -281 -277c-136 0 -280 74 -280 280c0 132 80 274 275 274c219 0 286 -152 286 -277zM437 256c0 111 -47 160 -131 160c-58 0 -119 -44 -119 -153c0 -87 37 -156 127 -156c85 0 123 71 123 149zM388 587h-101l-158 133h185z" />
    <glyph glyph-name="ocircumflex" unicode="&#xf4;" horiz-adv-x="625" 
d="M593 261c0 -169 -106 -277 -281 -277c-136 0 -280 74 -280 280c0 132 80 274 275 274c219 0 286 -152 286 -277zM437 256c0 111 -47 160 -131 160c-58 0 -119 -44 -119 -153c0 -87 37 -156 127 -156c85 0 123 71 123 149zM480 589h-118l-49 62l-46 -63h-118l101 132h127z
" />
    <glyph glyph-name="odieresis" unicode="&#xf6;" horiz-adv-x="625" 
d="M593 261c0 -169 -106 -277 -281 -277c-136 0 -280 74 -280 280c0 132 80 274 275 274c219 0 286 -152 286 -277zM437 256c0 111 -47 160 -131 160c-58 0 -119 -44 -119 -153c0 -87 37 -156 127 -156c85 0 123 71 123 149zM520 596h-158v124h158v-124zM268 596h-157v124
h157v-124z" />
    <glyph glyph-name="otilde" unicode="&#xf5;" horiz-adv-x="625" 
d="M593 261c0 -169 -106 -277 -281 -277c-136 0 -280 74 -280 280c0 132 80 274 275 274c219 0 286 -152 286 -277zM437 256c0 111 -47 160 -131 160c-58 0 -119 -44 -119 -153c0 -87 37 -156 127 -156c85 0 123 71 123 149zM417 720h69c-6 -59 -19 -138 -92 -138
c-61 0 -109 46 -153 46c-26 0 -35 -25 -37 -46h-72c10 101 41 142 100 142c60 0 101 -45 145 -45c11 0 35 3 40 41z" />
    <glyph glyph-name="uacute" unicode="&#xfa;" horiz-adv-x="604" 
d="M534 0h-154v49c-14 -20 -66 -64 -152 -64c-115 0 -164 58 -164 187v350h155v-335c0 -35 12 -77 74 -77s88 38 88 86v326h153v-522zM484 719l-153 -133h-102l73 133h182z" />
    <glyph glyph-name="ugrave" unicode="&#xf9;" horiz-adv-x="604" 
d="M534 0h-154v49c-14 -20 -66 -64 -152 -64c-115 0 -164 58 -164 187v350h155v-335c0 -35 12 -77 74 -77s88 38 88 86v326h153v-522zM379 587h-101l-158 133h185z" />
    <glyph glyph-name="ucircumflex" unicode="&#xfb;" horiz-adv-x="604" 
d="M534 0h-154v49c-14 -20 -66 -64 -152 -64c-115 0 -164 58 -164 187v350h155v-335c0 -35 12 -77 74 -77s88 38 88 86v326h153v-522zM471 589h-118l-49 62l-46 -63h-118l101 132h127z" />
    <glyph glyph-name="udieresis" unicode="&#xfc;" horiz-adv-x="604" 
d="M534 0h-154v49c-14 -20 -66 -64 -152 -64c-115 0 -164 58 -164 187v350h155v-335c0 -35 12 -77 74 -77s88 38 88 86v326h153v-522zM506 596h-158v124h158v-124zM254 596h-157v124h157v-124z" />
    <glyph glyph-name="dagger" unicode="&#x2020;" horiz-adv-x="583" 
d="M543 348h-185v-467h-135v467h-184v127h184v234h135v-234h185v-127z" />
    <glyph glyph-name="degree" unicode="&#xb0;" horiz-adv-x="354" 
d="M349 582c0 -94 -78 -172 -172 -172s-172 78 -172 172c0 95 76 173 172 173s172 -77 172 -173zM249 582c0 40 -33 71 -72 71c-40 0 -72 -31 -72 -71c0 -39 33 -72 72 -72s72 33 72 72z" />
    <glyph glyph-name="cent" unicode="&#xa2;" horiz-adv-x="542" 
d="M416 182l114 -59c-26 -42 -70 -115 -187 -136v-119h-76v117c-220 24 -235 207 -235 269c0 191 133 279 235 279v112h77v-113c103 -17 150 -75 182 -121l-114 -66c-27 47 -42 58 -68 66v-302c30 8 48 23 72 73zM267 113v298c-44 -18 -76 -76 -76 -151
c0 -86 37 -127 76 -147z" />
    <glyph glyph-name="sterling" unicode="&#xa3;" horiz-adv-x="688" 
d="M515 237l145 -11c-3 -85 -14 -232 -144 -232c-63 0 -115 37 -166 72c-36 -54 -110 -81 -176 -81c-68 0 -158 32 -158 122c0 47 35 126 166 126c15 0 32 -1 63 -5c-20 41 -26 49 -42 71h-145v98h77c-9 11 -36 57 -36 114c0 48 21 185 284 185c24 0 134 -2 192 -62
c52 -53 52 -158 52 -167l-153 -11c0 110 -59 117 -101 117c-77 0 -106 -35 -106 -81c0 -38 23 -65 44 -95h156v-98h-90c9 -19 26 -47 26 -96c0 -12 -1 -20 -4 -43c21 -13 41 -36 66 -36c26 0 48 11 50 113zM248 134c-5 2 -37 18 -67 18c-39 0 -56 -24 -56 -41
c0 -26 25 -39 47 -39c42 0 76 43 76 62z" />
    <glyph glyph-name="section" unicode="&#xa7;" horiz-adv-x="604" 
d="M53 -50l97 79c46 -27 111 -59 170 -59c39 0 56 17 56 32s-23 33 -72 55l-100 46c-86 40 -183 85 -183 193c0 86 61 127 101 153c-21 26 -38 47 -38 88c0 113 112 153 196 153c114 0 201 -47 273 -87l-98 -78c-43 23 -100 53 -168 53c-27 0 -54 -6 -54 -29
c0 -17 4 -26 81 -61l102 -46c105 -47 172 -100 172 -186c0 -88 -64 -136 -99 -162c18 -26 34 -48 34 -85c0 -78 -74 -152 -189 -152c-105 0 -224 53 -281 93zM407 157c19 18 41 39 41 72c0 42 -40 61 -113 97l-131 65c-18 -13 -45 -32 -45 -69c0 -44 31 -59 142 -110
c14 -6 96 -49 106 -55z" />
    <glyph glyph-name="bullet" unicode="&#x2022;" horiz-adv-x="333" 
d="M291 226h-249v248h249v-248z" />
    <glyph glyph-name="paragraph" unicode="&#xb6;" horiz-adv-x="639" 
d="M547 623h-36v-790h-88v790h-113v-790h-89v468c-94 16 -155 92 -155 195c0 145 95 210 234 210h247v-83z" />
    <glyph glyph-name="germandbls" unicode="&#xdf;" horiz-adv-x="604" 
d="M273 364v92h26c52 0 86 16 86 80c0 45 -23 82 -80 82c-64 0 -85 -48 -85 -115v-503h-153v469c0 178 90 252 233 252c119 0 227 -52 227 -184c0 -87 -57 -116 -90 -122c36 -3 135 -14 135 -187c0 -141 -66 -239 -190 -239c-53 0 -81 12 -97 17v114c10 -5 24 -15 51 -15
c84 0 86 98 86 116c0 113 -51 143 -109 143h-40z" />
    <glyph glyph-name="registered" unicode="&#xae;" horiz-adv-x="823" 
d="M768 361c0 -207 -153 -363 -357 -363c-197 0 -355 158 -355 356s158 356 356 356c195 0 356 -157 356 -349zM719 347c0 182 -133 321 -307 321c-170 0 -307 -141 -307 -315s136 -313 306 -313c168 0 308 140 308 307zM260 580h133c76 0 110 -6 140 -25
c38 -24 59 -66 59 -119c0 -59 -22 -95 -77 -123l82 -179h-118l-60 161h-52v-161h-107v446zM366 489v-108h56c42 0 58 15 58 55c0 37 -18 53 -59 53h-55z" />
    <glyph glyph-name="copyright" unicode="&#xa9;" horiz-adv-x="823" 
d="M586 509l-69 -80c-36 41 -58 53 -100 53c-61 0 -102 -50 -102 -126c0 -75 41 -124 102 -124c37 0 60 12 97 51l72 -83c-58 -64 -111 -80 -169 -80c-128 0 -217 97 -217 236c0 136 91 233 217 233c70 0 117 -22 169 -80zM768 361c0 -207 -153 -363 -357 -363
c-197 0 -355 158 -355 356s158 356 356 356c195 0 356 -157 356 -349zM719 347c0 182 -133 321 -307 321c-170 0 -307 -141 -307 -315s136 -313 306 -313c168 0 308 140 308 307z" />
    <glyph glyph-name="trademark" unicode="&#x2122;" horiz-adv-x="736" 
d="M679 374h-81c1 29 1 253 1 253l-65 -253h-69l-68 257s4 -240 4 -257h-82c1 27 1 332 1 332h126l54 -212l53 212h125s0 -307 1 -332zM282 638h-91v-264h-86v264h-94v68h271v-68z" />
    <glyph glyph-name="acute" unicode="&#xb4;" horiz-adv-x="271" 
d="M263 719l-153 -133h-102l73 133h182z" />
    <glyph glyph-name="dieresis" unicode="&#xa8;" horiz-adv-x="271" 
d="M340 596h-158v124h158v-124zM88 596h-157v124h157v-124z" />
    <glyph glyph-name="notequal" unicode="&#x2260;" horiz-adv-x="724" 
d="M625 135h-282l-69 -141h-126l69 141h-118v131h183l41 85h-224v132h289l66 133h126l-66 -133h111v-132h-176l-42 -85h218v-131z" />
    <glyph glyph-name="AE" unicode="&#xc6;" horiz-adv-x="1125" 
d="M1106 0h-571v171h-247l-95 -171h-198l417 706h660v-134h-361v-131h337v-135h-336v-168h394v-138zM535 301v316l-176 -316h176z" />
    <glyph glyph-name="Oslash" unicode="&#xd8;" horiz-adv-x="771" 
d="M718 708l54 -59l-94 -86c16 -27 53 -86 53 -207c0 -220 -139 -376 -348 -376c-134 0 -210 72 -239 99l-93 -85l-54 60l97 88c-14 26 -56 80 -56 213c0 183 115 372 353 372c115 0 174 -44 238 -100zM220 257l293 267c-52 57 -96 62 -124 62c-26 0 -74 -3 -118 -48
c-60 -61 -62 -143 -62 -176c0 -34 1 -56 11 -105zM550 447l-290 -264c27 -40 92 -59 134 -59c97 0 171 94 171 223c0 46 -10 84 -15 100z" />
    <glyph glyph-name="infinity" unicode="&#x221e;" horiz-adv-x="724" 
d="M364 431c53 74 96 107 162 107c98 0 167 -87 167 -210c0 -129 -70 -218 -171 -218c-67 0 -110 26 -165 102c-52 -73 -91 -103 -158 -103c-102 0 -168 82 -168 210c0 126 73 218 172 218c66 0 110 -29 161 -106zM442 320c34 -57 55 -78 79 -78c29 0 49 31 49 78
c0 45 -19 76 -47 76c-23 0 -47 -23 -81 -76zM284 321c-33 56 -56 78 -79 78c-30 0 -50 -31 -50 -77s19 -77 48 -77c22 0 46 22 81 76z" />
    <glyph glyph-name="plusminus" unicode="&#xb1;" horiz-adv-x="724" 
d="M632 375h-187v-191h-167v191h-186v130h187v184h166v-184h187v-130zM632 0h-540v132h540v-132z" />
    <glyph glyph-name="lessequal" unicode="&#x2264;" horiz-adv-x="724" 
d="M588 159l-464 212v153l464 194v-153l-316 -117l316 -121v-168zM588 0h-464v132h464v-132z" />
    <glyph glyph-name="greaterequal" unicode="&#x2265;" horiz-adv-x="724" 
d="M600 353l-464 -194v153l316 116l-316 122v168l464 -213v-152zM600 0h-464v132h464v-132z" />
    <glyph glyph-name="yen" unicode="&#xa5;" horiz-adv-x="708" 
d="M708 692l-173 -236h85v-108h-164l-15 -21v-48h179v-108h-179v-171h-174v171h-180v108h180v43l-19 26h-161v108h84l-169 236h202l152 -236l151 236h201z" />
    <glyph glyph-name="mu" unicode="&#xb5;" horiz-adv-x="587" 
d="M55 521h153v-234c0 -94 2 -172 79 -172c66 0 79 49 79 192v214h153v-351c0 -40 8 -55 31 -55c8 0 12 1 26 7v-122c-24 -8 -56 -12 -86 -12c-56 0 -87 22 -107 78c-19 -54 -44 -75 -91 -75c-42 0 -68 18 -87 58c0 0 3 -233 3 -265h-153v737z" />
    <glyph glyph-name="partialdiff" unicode="&#x2202;" horiz-adv-x="576" 
d="M159 571l-16 126c47 15 99 23 146 23c167 0 243 -108 243 -343c0 -264 -88 -391 -272 -391c-137 0 -227 87 -227 220c0 140 87 235 216 235c44 0 80 -10 117 -40v8c0 123 -35 178 -116 178c-22 0 -41 -3 -91 -16zM356 273c-23 25 -54 40 -84 40c-48 0 -79 -41 -79 -102
c0 -60 31 -100 78 -100c57 0 84 52 85 162z" />
    <glyph glyph-name="summation" unicode="&#x2211;" horiz-adv-x="615" 
d="M592 -122h-566v130l238 287l-238 278v133h566v-136h-363l232 -269l-241 -284h372v-139z" />
    <glyph glyph-name="product" unicode="&#x220f;" horiz-adv-x="750" 
d="M681 -122h-178v692h-258v-692h-177v828h613v-828z" />
    <glyph glyph-name="pi" unicode="&#x3c0;" horiz-adv-x="637" 
d="M597 522v-117h-52v-213c0 -57 8 -68 56 -68h10v-124c-29 -1 -53 -1 -71 -1c-113 0 -149 36 -149 155v251h-157v-405h-153v405h-52v117h568z" />
    <glyph glyph-name="integral" unicode="&#x222b;" horiz-adv-x="378" 
d="M356 701v-134c-21 16 -34 22 -50 22c-29 0 -37 -17 -37 -73v-479c0 -149 -37 -213 -162 -213c-30 0 -54 5 -88 16v133c23 -16 34 -20 48 -20c30 0 36 16 36 73v491c0 129 31 200 164 200c33 0 57 -5 89 -16z" />
    <glyph glyph-name="ordfeminine" unicode="&#xaa;" horiz-adv-x="333" 
d="M296 432h-85c-1 7 -1 15 -1 17v7c-17 -13 -40 -29 -78 -29c-63 0 -95 39 -95 84c0 72 70 85 118 95l51 11v7c0 14 -6 33 -36 33c-29 0 -35 -18 -37 -31h-85c3 61 47 89 122 89c52 0 116 -14 116 -81v-174c0 -13 1 -15 10 -28zM205 561l-47 -14c-16 -5 -37 -12 -37 -32
c0 -10 6 -25 28 -25c53 0 56 53 56 67v4z" />
    <glyph glyph-name="ordmasculine" unicode="&#xba;" horiz-adv-x="354" 
d="M322 571c0 -114 -80 -148 -147 -148c-48 0 -145 20 -145 148c0 90 56 145 148 145c64 0 144 -40 144 -145zM237 565c0 56 -24 83 -60 83c-58 0 -63 -54 -63 -82c0 -40 21 -75 65 -75s58 41 58 74z" />
    <glyph glyph-name="Omega" unicode="&#x2126;" horiz-adv-x="767" 
d="M727 0h-300v131c66 43 97 120 97 242c0 130 -50 205 -137 205c-92 0 -145 -80 -145 -220c0 -90 14 -180 98 -227v-131h-300v129h179c-105 49 -160 143 -160 272c0 191 134 324 329 324c191 0 318 -114 318 -300c0 -135 -58 -243 -158 -296h179v-129z" />
    <glyph glyph-name="ae" unicode="&#xe6;" horiz-adv-x="875" 
d="M735 195l119 -60c-44 -88 -143 -147 -242 -147c-76 0 -146 33 -188 79c-51 -51 -132 -80 -205 -80c-82 0 -194 43 -194 169c0 96 59 150 185 172c47 8 96 12 141 23c0 50 -11 81 -76 81c-36 0 -72 -11 -72 -57h-157c7 100 67 164 203 164c77 0 126 -16 187 -56
c46 33 79 56 162 56c174 0 255 -137 255 -302h-349c0 -67 51 -128 117 -128c76 0 105 71 114 86zM505 332h188c-2 18 -14 97 -92 97c-74 0 -91 -64 -96 -97zM350 238v21c-45 -22 -173 -21 -173 -98c0 -54 48 -58 67 -58c76 0 106 70 106 135z" />
    <glyph glyph-name="oslash" unicode="&#xf8;" horiz-adv-x="625" 
d="M571 541l40 -46l-74 -68c50 -75 55 -129 55 -171c0 -128 -87 -270 -280 -270c-34 0 -116 3 -185 67l-76 -69l-41 46l75 69c-10 16 -52 66 -52 167c0 128 75 272 273 272c113 0 169 -48 190 -65zM191 195l208 190c-22 22 -51 36 -89 36c-71 0 -128 -51 -128 -158
c0 -36 4 -52 9 -68zM431 331l-207 -190c15 -16 36 -37 89 -37c95 0 127 82 127 161c0 18 -1 33 -9 66z" />
    <glyph glyph-name="questiondown" unicode="&#xbf;" horiz-adv-x="604" 
d="M253 466h127c-2 -45 -4 -74 -42 -112c-26 -26 -56 -44 -85 -64c-17 -12 -66 -47 -66 -97c0 -23 8 -90 93 -90c81 0 120 60 120 118l143 -46c-37 -122 -126 -186 -274 -186c-183 0 -250 95 -250 187c0 89 56 131 84 153c37 28 76 52 114 82c28 22 31 31 36 55zM394 706
v-167h-158v167h158z" />
    <glyph glyph-name="exclamdown" unicode="&#xa1;" horiz-adv-x="292" 
d="M200 706v-168h-159v168h159zM200 0h-159v205l47 260h67l45 -253v-212z" />
    <glyph glyph-name="logicalnot" unicode="&#xac;" horiz-adv-x="724" 
d="M634 24h-166v232h-400v134h566v-366z" />
    <glyph glyph-name="radical" unicode="&#x221a;" horiz-adv-x="724" 
d="M678 706l-251 -891h-157l-115 255l-72 -26l-50 128l211 79l95 -231l173 686h166z" />
    <glyph glyph-name="florin" unicode="&#x192;" horiz-adv-x="333" 
d="M369 679l-11 -102h-49c-28 0 -53 -6 -59 -60l-3 -30h91l-10 -93h-92l-42 -396c-14 -131 -47 -188 -170 -188c-24 0 -51 3 -103 15l11 102c11 -1 21 -1 32 -1c63 0 72 3 83 121l34 347h-71l9 93h73l10 73c10 69 48 133 161 133c26 0 51 -3 106 -14z" />
    <glyph glyph-name="approxequal" unicode="&#x2248;" horiz-adv-x="724" 
d="M608 548l46 -125c-60 -70 -109 -95 -165 -95c-31 0 -62 10 -121 37l-35 16c-46 21 -75 29 -104 29c-39 0 -59 -10 -103 -65l-9 -11l-47 126c56 71 93 96 159 96c32 0 60 -7 121 -34l57 -25c45 -20 59 -24 79 -24c41 0 68 15 122 75zM608 311l46 -125
c-60 -70 -110 -95 -165 -95c-31 0 -61 10 -121 37l-35 16c-46 21 -75 30 -104 30c-35 0 -60 -12 -103 -65l-9 -11l-47 126c55 71 93 95 159 95c32 0 60 -7 121 -34l57 -25c46 -20 59 -24 79 -24c42 0 71 18 122 75z" />
    <glyph glyph-name="Delta" unicode="&#x2206;" horiz-adv-x="745" 
d="M746 0h-746l274 706h202zM503 139l-134 401l-127 -401h261z" />
    <glyph glyph-name="guillemotleft" unicode="&#xab;" horiz-adv-x="417" 
d="M378 100l-158 130v125l158 134v-138l-68 -57l68 -57v-137zM192 100l-160 131v124l160 134v-138l-65 -57l65 -57v-137z" />
    <glyph glyph-name="guillemotright" unicode="&#xbb;" horiz-adv-x="417" 
d="M382 231l-159 -135v138l64 58l-64 57v136l159 -131v-123zM195 231l-159 -135v138l68 58l-68 57v136l159 -129v-125z" />
    <glyph glyph-name="ellipsis" unicode="&#x2026;" horiz-adv-x="1000" 
d="M897 0h-127v126h127v-126zM564 0h-128v126h128v-126zM230 0h-128v126h128v-126z" />
    <glyph glyph-name="uni00A0" unicode="&#xa0;" horiz-adv-x="292" 
 />
    <glyph glyph-name="Agrave" unicode="&#xc0;" horiz-adv-x="708" 
d="M705 0h-188l-35 113h-260l-35 -113h-188l262 706h184zM442 240l-92 298l-87 -298h179zM415 782h-101l-146 116h183z" />
    <glyph glyph-name="Atilde" unicode="&#xc3;" horiz-adv-x="708" 
d="M705 0h-188l-35 113h-260l-35 -113h-188l262 706h184zM442 240l-92 298l-87 -298h179zM469 902h69c-3 -74 -37 -137 -97 -137c-58 0 -114 50 -153 50c-31 0 -36 -36 -37 -45h-68c2 55 31 135 105 135c56 0 104 -45 141 -45c30 0 39 34 40 42z" />
    <glyph glyph-name="Otilde" unicode="&#xd5;" horiz-adv-x="792" 
d="M42 356c0 161 94 372 349 372c257 0 358 -212 358 -380c0 -189 -129 -369 -356 -369c-233 0 -351 183 -351 377zM216 358c0 -113 51 -229 178 -229c131 0 178 122 178 221c0 128 -56 230 -181 230c-134 0 -175 -127 -175 -222zM501 902h69c-3 -74 -37 -137 -97 -137
c-58 0 -114 50 -153 50c-31 0 -36 -36 -37 -45h-68c2 55 31 135 105 135c56 0 104 -45 141 -45c30 0 39 34 40 42z" />
    <glyph glyph-name="OE" unicode="&#x152;" horiz-adv-x="1104" 
d="M1082 0h-568v15c-32 -12 -79 -29 -154 -29c-212 0 -318 170 -318 371c0 193 103 367 324 367c78 0 117 -20 149 -36v18h533v-137h-356v-130h334v-136h-334v-163h390v-140zM516 155v397c-21 21 -72 35 -113 35c-150 0 -183 -131 -183 -232c0 -177 95 -234 180 -234
c46 0 76 13 116 34z" />
    <glyph glyph-name="oe" unicode="&#x153;" horiz-adv-x="938" 
d="M920 230h-373c9 -83 57 -124 126 -124c33 0 101 12 125 87l119 -62c-54 -114 -172 -146 -250 -146c-90 0 -160 44 -194 78c-32 -39 -105 -76 -187 -76c-84 0 -254 48 -254 275c0 157 95 274 260 274c75 0 138 -28 181 -69c43 39 101 70 188 70c171 0 259 -139 259 -307z
M549 325h212c-5 51 -38 97 -108 97c-26 0 -90 -6 -104 -97zM184 260c0 -99 43 -151 113 -151c64 0 104 67 104 151c0 95 -28 158 -105 158c-87 0 -112 -88 -112 -158z" />
    <glyph glyph-name="endash" unicode="&#x2013;" horiz-adv-x="626" 
d="M588 237h-550v143h550v-143z" />
    <glyph glyph-name="emdash" unicode="&#x2014;" horiz-adv-x="918" 
d="M880 237h-842v143h842v-143z" />
    <glyph glyph-name="quotedblleft" unicode="&#x201c;" horiz-adv-x="479" 
d="M434 371h-158v148c0 104 52 179 158 194v-71c-54 -16 -62 -53 -63 -104h63v-167zM204 371h-158v148c0 104 51 179 158 194v-71c-54 -16 -62 -53 -63 -104h63v-167z" />
    <glyph glyph-name="quotedblright" unicode="&#x201d;" horiz-adv-x="479" 
d="M276 706h158v-148c0 -87 -43 -180 -158 -193v71c54 17 62 52 63 103h-63v167zM46 706h158v-150c0 -94 -52 -180 -158 -191v71c54 17 62 52 63 103h-63v167z" />
    <glyph glyph-name="quoteleft" unicode="&#x2018;" horiz-adv-x="250" 
d="M205 372h-159v156c0 98 62 169 159 184v-69c-49 -20 -57 -55 -62 -103h62v-168z" />
    <glyph glyph-name="quoteright" unicode="&#x2019;" horiz-adv-x="250" 
d="M45 706h159v-144c0 -87 -40 -181 -159 -194v71c54 16 63 52 64 103h-64v164z" />
    <glyph glyph-name="divide" unicode="&#xf7;" horiz-adv-x="724" 
d="M437 446h-151v156h151v-156zM644 254h-565v139h565v-139zM436 45h-150v155h150v-155z" />
    <glyph glyph-name="lozenge" unicode="&#x25ca;" horiz-adv-x="724" 
d="M636 354l-196 -354h-155l-196 354l198 352h155zM469 354l-103 219l-111 -220l104 -215z" />
    <glyph glyph-name="ydieresis" unicode="&#xff;" horiz-adv-x="500" 
d="M336 522h164l-184 -564c-12 -37 -24 -69 -51 -98c-32 -34 -63 -40 -109 -40h-111v123h66c42 0 52 20 52 38c0 14 -3 25 -11 50l-152 491h164l86 -374zM456 596h-158v124h158v-124zM204 596h-157v124h157v-124z" />
    <glyph glyph-name="Ydieresis" unicode="&#x178;" horiz-adv-x="708" 
d="M708 706l-267 -372v-334h-174v329l-265 377h202l152 -239l151 239h201zM545 780h-161v116h161v-116zM322 780h-160v117h160v-117z" />
    <glyph glyph-name="fraction" unicode="&#x2044;" horiz-adv-x="125" 
d="M290 679l-376 -721l-79 42l375 721z" />
    <glyph glyph-name="Euro" unicode="&#x20ac;" horiz-adv-x="709" 
d="M675 625l-60 -143c-44 51 -90 76 -158 76c-89 0 -142 -43 -169 -127h310l-26 -73h-297c0 -13 0 -26 1 -39h284l-27 -73h-246c28 -89 98 -130 189 -130c62 0 131 34 169 84v-177c-61 -32 -131 -43 -199 -43c-183 0 -297 86 -337 266h-75l27 73h38c-1 5 -1 11 -1 16
c0 8 1 15 2 23h-66l27 73h49c38 176 168 269 345 269c91 0 149 -18 220 -75z" />
    <glyph glyph-name="guilsinglleft" unicode="&#x2039;" horiz-adv-x="229" 
d="M191 100l-159 130v125l158 134v-138l-67 -57l68 -57v-137z" />
    <glyph glyph-name="guilsinglright" unicode="&#x203a;" horiz-adv-x="229" 
d="M195 231l-159 -135v138l64 58l-64 57v136l159 -131v-123z" />
    <glyph glyph-name="daggerdbl" unicode="&#x2021;" horiz-adv-x="583" 
d="M517 415h-162v-232h161v-123h-160v-180h-131v181h-158v122h158v233h-158v121h159v169h130v-169h161v-122z" />
    <glyph glyph-name="periodcentered" unicode="&#xb7;" horiz-adv-x="235" 
d="M198 206h-161v167h161v-167z" />
    <glyph glyph-name="quotesinglbase" unicode="&#x201a;" horiz-adv-x="250" 
d="M45 168h160v-137c0 -118 -45 -174 -159 -204v71c49 18 56 55 60 102h-61v168z" />
    <glyph glyph-name="quotedblbase" unicode="&#x201e;" horiz-adv-x="479" 
d="M276 167h158v-148c0 -103 -53 -179 -158 -194v71c54 17 62 52 63 104h-63v167zM46 167h158v-148c0 -105 -52 -176 -158 -194v71c53 18 62 53 63 104h-63v167z" />
    <glyph glyph-name="perthousand" unicode="&#x2030;" horiz-adv-x="1250" 
d="M665 679l-376 -721l-79 42l375 721zM26 457c0 97 31 231 162 231c112 0 157 -112 157 -233c0 -100 -35 -227 -156 -227c-120 0 -163 105 -163 229zM243 456c0 75 -13 145 -58 145c-41 0 -57 -60 -57 -151c0 -85 16 -137 60 -137c36 0 55 51 55 143zM528 223
c0 97 31 231 162 231c112 0 157 -110 157 -233c0 -100 -34 -227 -158 -227c-122 0 -161 118 -161 229zM746 222c0 75 -13 145 -58 145c-41 0 -57 -60 -57 -151c0 -85 16 -137 60 -137c36 0 55 51 55 143zM903 223c0 97 31 231 162 231c112 0 157 -110 157 -233
c0 -100 -34 -227 -158 -227c-122 0 -161 118 -161 229zM1121 222c0 75 -13 145 -58 145c-41 0 -57 -60 -57 -151c0 -85 16 -137 60 -137c36 0 55 51 55 143z" />
    <glyph glyph-name="Acircumflex" unicode="&#xc2;" horiz-adv-x="708" 
d="M705 0h-188l-35 113h-260l-35 -113h-188l262 706h184zM442 240l-92 298l-87 -298h179zM509 779h-116l-40 51l-38 -51h-116l89 115h133z" />
    <glyph glyph-name="Ecircumflex" unicode="&#xca;" horiz-adv-x="646" 
d="M68 0v706h522v-137h-346v-128h323v-134h-323v-168h377v-139h-553zM478 779h-116l-40 51l-38 -51h-116l89 115h133z" />
    <glyph glyph-name="Aacute" unicode="&#xc1;" horiz-adv-x="708" 
d="M705 0h-188l-35 113h-260l-35 -113h-188l262 706h184zM442 240l-92 298l-87 -298h179zM526 897l-145 -115h-96l61 115h180z" />
    <glyph glyph-name="Edieresis" unicode="&#xcb;" horiz-adv-x="646" 
d="M68 0v706h522v-137h-346v-128h323v-134h-323v-168h377v-139h-553zM514 780h-161v116h161v-116zM291 780h-160v117h160v-117z" />
    <glyph glyph-name="Egrave" unicode="&#xc8;" horiz-adv-x="646" 
d="M68 0v706h522v-137h-346v-128h323v-134h-323v-168h377v-139h-553zM411 782h-101l-146 116h183z" />
    <glyph glyph-name="Iacute" unicode="&#xcd;" horiz-adv-x="313" 
d="M243 0h-176v706h176v-706zM323 897l-145 -115h-96l61 115h180z" />
    <glyph glyph-name="Icircumflex" unicode="&#xce;" horiz-adv-x="313" 
d="M243 0h-176v706h176v-706zM311 779h-116l-40 51l-38 -51h-116l89 115h133z" />
    <glyph glyph-name="Idieresis" unicode="&#xcf;" horiz-adv-x="313" 
d="M243 0h-176v706h176v-706zM347 780h-161v116h161v-116zM124 780h-160v117h160v-117z" />
    <glyph glyph-name="Igrave" unicode="&#xcc;" horiz-adv-x="313" 
d="M243 0h-176v706h176v-706zM233 782h-101l-146 116h183z" />
    <glyph glyph-name="Oacute" unicode="&#xd3;" horiz-adv-x="792" 
d="M42 356c0 161 94 372 349 372c257 0 358 -212 358 -380c0 -189 -129 -369 -356 -369c-233 0 -351 183 -351 377zM216 358c0 -113 51 -229 178 -229c131 0 178 122 178 221c0 128 -56 230 -181 230c-134 0 -175 -127 -175 -222zM571 897l-145 -115h-96l61 115h180z" />
    <glyph glyph-name="Ocircumflex" unicode="&#xd4;" horiz-adv-x="792" 
d="M42 356c0 161 94 372 349 372c257 0 358 -212 358 -380c0 -189 -129 -369 -356 -369c-233 0 -351 183 -351 377zM216 358c0 -113 51 -229 178 -229c131 0 178 122 178 221c0 128 -56 230 -181 230c-134 0 -175 -127 -175 -222zM551 779h-116l-40 51l-38 -51h-116l89 115
h133z" />
    <glyph glyph-name="Ograve" unicode="&#xd2;" horiz-adv-x="792" 
d="M42 356c0 161 94 372 349 372c257 0 358 -212 358 -380c0 -189 -129 -369 -356 -369c-233 0 -351 183 -351 377zM216 358c0 -113 51 -229 178 -229c131 0 178 122 178 221c0 128 -56 230 -181 230c-134 0 -175 -127 -175 -222zM462 782h-101l-146 116h183z" />
    <glyph glyph-name="Uacute" unicode="&#xda;" horiz-adv-x="729" 
d="M665 706v-427c0 -177 -113 -295 -304 -295c-166 0 -299 88 -299 283v439h178v-459c0 -94 48 -117 127 -117c90 0 121 45 121 126v450h177zM536 897l-145 -115h-96l61 115h180z" />
    <glyph glyph-name="Ucircumflex" unicode="&#xdb;" horiz-adv-x="729" 
d="M665 706v-427c0 -177 -113 -295 -304 -295c-166 0 -299 88 -299 283v439h178v-459c0 -94 48 -117 127 -117c90 0 121 45 121 126v450h177zM520 779h-116l-40 51l-38 -51h-116l89 115h133z" />
    <glyph glyph-name="Ugrave" unicode="&#xd9;" horiz-adv-x="729" 
d="M665 706v-427c0 -177 -113 -295 -304 -295c-166 0 -299 88 -299 283v439h178v-459c0 -94 48 -117 127 -117c90 0 121 45 121 126v450h177zM438 782h-101l-146 116h183z" />
    <glyph glyph-name="dotlessi" unicode="&#x131;" horiz-adv-x="292" 
d="M221 0h-152v522h152v-522z" />
    <glyph glyph-name="circumflex" unicode="&#x2c6;" horiz-adv-x="271" 
d="M301 589h-118l-49 62l-46 -63h-118l101 132h127z" />
    <glyph glyph-name="tilde" unicode="&#x2dc;" horiz-adv-x="271" 
d="M244 720h69c-6 -59 -19 -138 -92 -138c-61 0 -109 46 -153 46c-26 0 -35 -25 -37 -46h-72c10 101 41 142 100 142c60 0 101 -45 145 -45c11 0 35 3 40 41z" />
    <glyph glyph-name="macron" unicode="&#xaf;" horiz-adv-x="271" 
d="M320 597h-369v101h369v-101z" />
    <glyph glyph-name="breve" unicode="&#x2d8;" horiz-adv-x="271" 
d="M189 720h101c-11 -99 -67 -149 -154 -149c-76 0 -147 41 -155 149h101c0 -47 26 -61 52 -61s55 13 55 61z" />
    <glyph glyph-name="dotaccent" unicode="&#x2d9;" horiz-adv-x="271" 
d="M214 590h-157v132h157v-132z" />
    <glyph glyph-name="ring" unicode="&#x2da;" horiz-adv-x="271" 
d="M37 655c0 54 44 98 98 98s98 -44 98 -98s-44 -98 -98 -98s-98 44 -98 98zM95 655c0 -22 18 -40 40 -40s40 18 40 40s-18 40 -40 40s-40 -18 -40 -40z" />
    <glyph glyph-name="cedilla" unicode="&#xb8;" horiz-adv-x="271" 
d="M139 -9l-21 -44c13 1 25 3 39 3c60 0 76 -39 76 -65c0 -50 -51 -82 -96 -82c-41 0 -74 23 -99 52l28 23c14 -18 30 -32 54 -32c18 0 35 11 35 31c0 29 -32 40 -55 40c-12 0 -19 -1 -28 -3l-12 18l32 59h47z" />
    <glyph glyph-name="hungarumlaut" unicode="&#x2dd;" horiz-adv-x="271" 
d="M155 719l-152 -133h-91l73 133h170zM358 719l-152 -133h-91l73 133h170z" />
    <glyph glyph-name="ogonek" unicode="&#x2db;" horiz-adv-x="271" 
d="M123 0h45c-9 -11 -48 -49 -48 -86c0 -29 23 -41 46 -41c9 0 22 4 39 16l25 -24c-22 -21 -47 -40 -95 -40c-66 0 -95 38 -95 74c0 45 39 74 83 101z" />
    <glyph glyph-name="caron" unicode="&#x2c7;" horiz-adv-x="271" 
d="M302 720l-102 -131h-126l-105 131h120l48 -63l45 63h120z" />
    <glyph glyph-name="currency" unicode="&#xa4;" horiz-adv-x="687" 
d="M575 654l84 -84l-80 -79c33 -55 45 -97 45 -152c0 -57 -13 -101 -46 -153l80 -81l-84 -83l-80 81c-57 -34 -95 -45 -151 -45c-58 0 -100 13 -152 46l-80 -80l-83 83l81 80c-33 46 -47 92 -47 151s13 102 46 153l-78 79l83 83l78 -78c46 31 95 45 154 45
c56 0 98 -13 150 -45zM469 337c0 75 -55 132 -125 132c-71 0 -126 -57 -126 -130s55 -129 127 -129c69 0 124 57 124 127z" />
    <glyph glyph-name="afii61289" unicode="&#x2113;" horiz-adv-x="569" 
d="M462 170l60 -75c-69 -79 -134 -111 -218 -111c-118 0 -185 62 -194 176c-19 -13 -25 -16 -41 -26l-47 90c48 29 59 37 89 57v159c0 96 11 141 46 184c34 42 82 63 148 63c107 0 172 -58 172 -155c0 -65 -23 -116 -79 -172c-43 -43 -69 -65 -148 -124v-20
c0 -81 29 -116 92 -116c37 0 65 12 120 70zM245 359c84 73 114 110 114 162c0 35 -19 56 -51 56c-47 0 -63 -28 -63 -105v-113z" />
    <glyph glyph-name="estimated" unicode="&#x212e;" horiz-adv-x="840" 
d="M816 285h-611c14 -108 97 -174 219 -174c87 0 160 39 212 121l150 -58c-82 -122 -208 -187 -364 -187c-230 0 -390 146 -390 356c0 205 155 345 383 345c151 0 272 -57 339 -161c42 -64 60 -132 62 -242zM207 416h428c-29 102 -104 157 -217 157
c-107 0 -188 -60 -211 -157z" />
    <glyph glyph-name="acute.cap" horiz-adv-x="271" 
d="M256 897l-145 -115h-96l61 115h180z" />
    <glyph glyph-name="breve.cap" horiz-adv-x="271" 
d="M194 898h100c-9 -98 -84 -131 -158 -131c-83 0 -149 37 -158 132h101c0 -41 30 -55 56 -55c23 0 59 12 59 54z" />
    <glyph glyph-name="caron.cap" horiz-adv-x="271" 
d="M291 898l-88 -115h-133l-90 115h117l40 -51l39 51h115z" />
    <glyph glyph-name="cedilla.cap" horiz-adv-x="271" 
d="M139 -9l-21 -44c13 1 25 3 39 3c60 0 76 -39 76 -65c0 -50 -51 -82 -96 -82c-41 0 -73 23 -99 52l28 23c14 -17 30 -32 54 -32c18 0 35 11 35 31c0 29 -32 40 -55 40c-12 0 -19 -2 -28 -3l-12 18l32 59h47z" />
    <glyph glyph-name="circumflex.cap" horiz-adv-x="271" 
d="M291 779h-116l-40 51l-38 -51h-116l89 115h133z" />
    <glyph glyph-name="commaaccent" horiz-adv-x="271" 
d="M79 -113v77h112v-38c0 -68 -12 -105 -105 -107v35c23 3 34 14 34 33h-41z" />
    <glyph glyph-name="dieresis.cap" horiz-adv-x="271" 
d="M327 780h-161v116h161v-116zM104 780h-160v117h160v-117z" />
    <glyph glyph-name="dotaccent.cap" horiz-adv-x="271" 
d="M215 767h-160v132h160v-132z" />
    <glyph glyph-name="grave.cap" horiz-adv-x="271" 
d="M259 782h-101l-146 116h183z" />
    <glyph glyph-name="hungarumlaut.cap" horiz-adv-x="271" 
d="M141 897l-144 -115h-88l61 115h171zM361 897l-144 -115h-88l61 115h171z" />
    <glyph glyph-name="macron.cap" horiz-adv-x="271" 
d="M320 778h-369v101h369v-101z" />
    <glyph glyph-name="ring.cap" horiz-adv-x="271" 
d="M37 829c0 54 44 98 98 98s98 -44 98 -98s-44 -98 -98 -98s-98 44 -98 98zM95 829c0 -22 18 -40 40 -40s40 18 40 40s-18 40 -40 40s-40 -18 -40 -40z" />
    <glyph glyph-name="tilde.cap" horiz-adv-x="271" 
d="M244 902h69c-3 -74 -37 -137 -97 -137c-58 0 -114 50 -153 50c-31 0 -36 -36 -37 -45h-68c2 55 31 135 105 135c56 0 104 -45 141 -45c30 0 39 34 40 42z" />
    <glyph glyph-name="caron.alt" horiz-adv-x="271" 
d="M79 616v90h112v-74c0 -66 -35 -102 -112 -112v40c32 7 46 20 46 56h-46z" />
    <glyph glyph-name="Eth" unicode="&#xd0;" horiz-adv-x="729" 
d="M67 706h239c275 0 393 -121 393 -353c0 -168 -73 -353 -355 -353h-277v341h-67v79h67v286zM245 557v-137h174v-79h-174v-199h53c152 0 225 53 225 213c0 110 -38 202 -191 202h-87z" />
    <glyph glyph-name="eth" unicode="&#xf0;" horiz-adv-x="625" 
d="M513 700l22 -49l-76 -21c129 -162 134 -305 134 -363c0 -169 -100 -283 -281 -283c-174 0 -281 115 -281 276c0 178 120 278 252 278c57 0 92 -25 114 -49c-24 51 -51 88 -66 106l-156 -43l-18 51l135 37c-15 15 -25 26 -41 40l120 47c17 -17 31 -28 50 -52zM437 257
c0 112 -53 160 -121 160c-73 0 -130 -47 -130 -154c0 -110 64 -157 125 -157c93 0 126 79 126 151z" />
    <glyph glyph-name="Lslash" unicode="&#x141;" horiz-adv-x="542" 
d="M520 0h-452v218l-68 -47v84l68 47v404h176v-281l191 132v-84l-191 -133v-191h276v-149z" />
    <glyph glyph-name="lslash" unicode="&#x142;" horiz-adv-x="292" 
d="M292 431l-70 -50v-381h-153v270l-69 -50v79l69 50v357h153v-246l70 50v-79z" />
    <glyph glyph-name="Scaron" unicode="&#x160;" horiz-adv-x="688" 
d="M644 589l-130 -93c-51 53 -109 88 -185 88c-72 0 -105 -42 -105 -75c0 -38 30 -56 90 -65l78 -11c184 -26 260 -82 260 -203c0 -149 -119 -246 -321 -246c-165 0 -250 59 -322 143l134 85c47 -57 128 -89 204 -89c52 0 130 23 130 82c0 50 -60 64 -123 72l-81 11
c-124 17 -225 75 -225 199c0 139 103 236 285 236c149 0 242 -68 311 -134zM500 898l-88 -115h-133l-90 115h117l40 -51l39 51h115z" />
    <glyph glyph-name="scaron" unicode="&#x161;" horiz-adv-x="521" 
d="M488 461l-95 -88c-34 28 -84 52 -133 52c-33 0 -72 -11 -72 -40c0 -25 24 -33 85 -45l37 -7c113 -21 188 -67 188 -164c0 -130 -138 -182 -247 -182c-130 0 -215 60 -253 101l97 88c38 -40 96 -72 152 -72c51 0 93 18 93 51c0 29 -27 37 -83 46l-47 8
c-124 21 -175 75 -175 155c0 89 74 175 221 175c89 0 169 -30 232 -78zM426 720l-102 -131h-126l-105 131h120l48 -63l45 63h120z" />
    <glyph glyph-name="Yacute" unicode="&#xdd;" horiz-adv-x="708" 
d="M708 706l-267 -372v-334h-174v329l-265 377h202l152 -239l151 239h201zM535 897l-145 -115h-96l61 115h180z" />
    <glyph glyph-name="yacute" unicode="&#xfd;" horiz-adv-x="500" 
d="M336 522h164l-184 -564c-12 -37 -24 -69 -51 -98c-32 -34 -63 -40 -109 -40h-111v123h66c42 0 52 20 52 38c0 14 -3 25 -11 50l-152 491h164l86 -374zM442 719l-153 -133h-102l73 133h182z" />
    <glyph glyph-name="Thorn" unicode="&#xde;" horiz-adv-x="688" 
d="M67 706h177v-103h163c157 0 265 -61 265 -233c0 -196 -157 -242 -282 -242h-146v-128h-177v706zM244 473v-214h107c74 0 146 6 146 112c0 78 -50 102 -133 102h-120z" />
    <glyph glyph-name="thorn" unicode="&#xfe;" horiz-adv-x="604" 
d="M64 706h137v-235c24 29 75 63 144 63c169 0 230 -142 230 -271c0 -124 -59 -273 -226 -273c-51 0 -79 13 -129 44v-215h-156v887zM427 264c0 70 -23 161 -104 161c-67 0 -110 -63 -110 -165c0 -101 39 -159 106 -159c90 0 108 111 108 163z" />
    <glyph glyph-name="Zcaron" unicode="&#x17d;" horiz-adv-x="625" 
d="M608 568l-385 -429h383v-139h-601v133l391 436h-358v137h570v-138zM467 898l-88 -115h-133l-90 115h117l40 -51l39 51h115z" />
    <glyph glyph-name="zcaron" unicode="&#x17e;" horiz-adv-x="542" 
d="M511 0h-477v115l282 289h-252v118h447v-118l-278 -285h278v-119zM438 720l-102 -131h-126l-105 131h120l48 -63l45 63h120z" />
    <glyph glyph-name="onehalf" unicode="&#xbd;" horiz-adv-x="875" 
d="M835 0h-307v82c36 29 127 97 160 141c23 30 33 60 33 89c0 23 -10 56 -44 56c-36 0 -48 -36 -48 -60c0 -12 4 -30 5 -32l-111 6c0 43 2 170 150 170c128 0 160 -88 160 -145c0 -95 -76 -156 -162 -219h164v-88zM641 679l-376 -721l-79 42l375 721zM265 677v-442h-110v317
c-23 -7 -46 -12 -93 -12h-14v73c77 1 107 18 132 64h85z" />
    <glyph glyph-name="onequarter" unicode="&#xbc;" horiz-adv-x="875" 
d="M858 98h-59v-98h-106v98h-182v84l185 259h104v-265h58v-78zM665 679l-376 -721l-79 42l375 721zM265 677v-442h-110v317c-23 -7 -46 -12 -93 -12h-14v73c77 1 107 18 132 64h85zM693 176v150c-34 -57 -60 -96 -99 -150h99z" />
    <glyph glyph-name="onesuperior" unicode="&#xb9;" 
d="M265 677v-442h-110v317c-23 -7 -46 -12 -93 -12h-14v73c77 1 107 18 132 64h85z" />
    <glyph glyph-name="threequarters" unicode="&#xbe;" horiz-adv-x="875" 
d="M858 98h-59v-98h-106v98h-182v84l185 259h104v-265h58v-78zM694 679l-376 -721l-79 42l375 721zM693 176v150c-34 -57 -60 -96 -99 -150h99zM156 431v80c6 -1 14 -2 21 -2c24 0 50 11 50 48c0 31 -21 48 -46 48c-26 0 -43 -17 -43 -55v-10l-107 10c10 60 30 138 159 138
c104 0 144 -61 144 -117c0 -37 -16 -81 -68 -98c66 -19 82 -66 82 -104c0 -61 -41 -141 -166 -141c-134 0 -160 81 -160 146v16l106 8c-1 -7 -1 -12 -1 -20c0 -47 31 -66 54 -66c35 0 56 28 56 60c0 26 -14 59 -67 59h-14z" />
    <glyph glyph-name="threesuperior" unicode="&#xb3;" 
d="M156 431v80c6 -1 14 -2 21 -2c24 0 50 11 50 48c0 31 -21 48 -46 48c-26 0 -43 -17 -43 -55v-10l-107 10c10 60 30 138 159 138c104 0 144 -61 144 -117c0 -37 -16 -81 -68 -98c66 -19 82 -66 82 -104c0 -61 -41 -141 -166 -141c-134 0 -160 81 -160 146v16l106 8
c-1 -7 -1 -12 -1 -20c0 -47 31 -66 54 -66c35 0 56 28 56 60c0 26 -14 59 -67 59h-14z" />
    <glyph glyph-name="twosuperior" unicode="&#xb2;" 
d="M336 235h-308v82c36 29 127 98 161 142c22 29 32 59 32 89c0 23 -10 56 -44 56c-35 0 -47 -36 -47 -61c0 -12 4 -30 4 -31l-110 6v4c0 41 3 166 149 166c128 0 160 -88 160 -146c0 -95 -76 -156 -161 -219h164v-88z" />
    <glyph glyph-name="brokenbar" unicode="&#xa6;" horiz-adv-x="256" 
d="M194 376h-134v402h134v-402zM194 -144h-134v401h134v-401z" />
    <glyph glyph-name="minus" unicode="&#x2212;" horiz-adv-x="724" 
d="M645 253h-565v139h565v-139z" />
    <glyph glyph-name="multiply" unicode="&#xd7;" horiz-adv-x="724" 
d="M616 198l-114 -120l-148 141l-129 -135l-94 90l129 135l-146 139l115 120l145 -139l129 136l95 -90l-130 -135z" />
    <glyph glyph-name="uni00AD" unicode="&#xad;" horiz-adv-x="376" 
d="M337 237h-299v143h299v-143z" />
    <glyph glyph-name="uni03BC" unicode="&#x3bc;" horiz-adv-x="587" 
d="M55 521h153v-234c0 -94 2 -172 79 -172c66 0 79 49 79 192v214h153v-351c0 -40 8 -55 31 -55c8 0 12 1 26 7v-122c-24 -8 -56 -12 -86 -12c-56 0 -87 22 -107 78c-19 -54 -44 -75 -91 -75c-42 0 -68 18 -87 58c0 0 3 -233 3 -265h-153v737z" />
    <glyph glyph-name="uni03A9" unicode="&#x3a9;" horiz-adv-x="767" 
d="M727 0h-300v131c66 43 97 120 97 242c0 130 -50 205 -137 205c-92 0 -145 -80 -145 -220c0 -90 14 -180 98 -227v-131h-300v129h179c-105 49 -160 143 -160 272c0 191 134 324 329 324c191 0 318 -114 318 -300c0 -135 -58 -243 -158 -296h179v-129z" />
    <glyph glyph-name="uni0394" unicode="&#x394;" horiz-adv-x="745" 
d="M746 0h-746l274 706h202zM503 139l-134 401l-127 -401h261z" />
    <glyph glyph-name="uni2215" unicode="&#x2215;" horiz-adv-x="125" 
d="M290 679l-376 -721l-79 42l375 721z" />
    <glyph glyph-name="uni2219" unicode="&#x2219;" horiz-adv-x="235" 
d="M198 206h-161v167h161v-167z" />
    <glyph glyph-name="uni02C9" unicode="&#x2c9;" horiz-adv-x="271" 
d="M320 597h-369v101h369v-101z" />
    <glyph glyph-name="uni037E" unicode="&#x37e;" horiz-adv-x="292" 
d="M246 354h-160v170h160v-170zM86 171h160v-135c0 -118 -48 -184 -160 -207v70c53 17 57 54 61 101h-61v171z" />
    <glyph glyph-name="zero.tab" horiz-adv-x="562" 
d="M40 344c0 191 75 345 241 345c217 0 240 -257 240 -353c0 -154 -51 -351 -246 -351c-160 0 -235 140 -235 359zM188 311c0 -78 12 -202 93 -202c76 0 90 116 90 225c0 110 -18 230 -92 230c-71 0 -90 -99 -91 -253z" />
    <glyph glyph-name="one.tab" horiz-adv-x="562" 
d="M88 473v104c41 3 75 6 112 25c44 23 57 49 70 76h122v-678h-161v495c-37 -16 -46 -20 -143 -22z" />
    <glyph glyph-name="two.tab" horiz-adv-x="562" 
d="M193 426l-161 9v24c0 160 103 231 238 231c139 0 230 -76 230 -207c0 -118 -64 -208 -262 -359c0 0 236 4 264 4v-128h-465v118c52 41 87 68 157 128c80 70 138 127 138 234c0 27 0 93 -69 93c-27 0 -74 -12 -74 -83c0 -17 2 -43 4 -64z" />
    <glyph glyph-name="three.tab" horiz-adv-x="562" 
d="M202 471l-158 14c16 163 128 205 237 205c183 0 221 -117 221 -182c0 -85 -49 -129 -112 -151c85 -15 129 -77 129 -155c0 -64 -42 -214 -257 -214c-150 0 -231 90 -231 225v15l156 13s-1 -19 -1 -29c0 -63 37 -100 83 -100c53 0 89 37 89 100c0 77 -58 87 -100 87
c-8 0 -22 -1 -22 -1v115s15 -1 23 -1c85 0 85 73 85 80c0 55 -40 77 -73 77c-69 0 -69 -69 -69 -98z" />
    <glyph glyph-name="four.tab" horiz-adv-x="562" 
d="M534 157h-90v-157h-158v156h-275c0 23 2 122 2 122l280 400h151v-411h90v-110zM287 267v239l-161 -239h161z" />
    <glyph glyph-name="five.tab" horiz-adv-x="562" 
d="M55 321l41 355h390l-10 -128h-256l-16 -124c15 11 46 35 107 35c131 0 204 -101 204 -224c0 -118 -74 -248 -255 -248c-166 0 -232 110 -232 226l159 6c0 -67 21 -111 80 -111c79 0 84 89 84 126c0 83 -40 117 -86 117c-50 0 -64 -33 -71 -53z" />
    <glyph glyph-name="six.tab" horiz-adv-x="562" 
d="M515 507l-160 -18v13c0 40 -26 68 -62 68c-87 0 -96 -129 -99 -214c17 37 70 79 147 79c82 0 187 -58 187 -208c0 -151 -100 -238 -243 -238c-119 0 -243 76 -243 334c0 184 43 368 264 368c172 0 200 -134 209 -184zM214 216c0 -37 9 -109 78 -109c83 0 83 90 83 109
c0 26 -4 104 -81 104c-46 0 -80 -36 -80 -104z" />
    <glyph glyph-name="seven.tab" horiz-adv-x="562" 
d="M34 547v131h479v-122c-97 -117 -147 -209 -188 -336c-32 -100 -39 -151 -47 -220h-186c21 94 73 329 265 547h-323z" />
    <glyph glyph-name="eight.tab" horiz-adv-x="562" 
d="M39 194c0 114 82 147 121 162c-27 16 -93 56 -93 153c0 83 57 181 214 181c118 0 210 -64 210 -186c0 -101 -63 -131 -96 -147c43 -16 124 -53 124 -164c0 -155 -136 -204 -240 -204c-152 0 -240 85 -240 205zM281 407c45 0 63 36 63 77c0 53 -23 88 -62 88
c-46 0 -66 -37 -66 -79c0 -51 22 -86 65 -86zM278 109c48 0 79 30 79 98c0 45 -21 97 -77 97c-40 0 -79 -32 -79 -97c0 -71 39 -98 77 -98z" />
    <glyph glyph-name="nine.tab" horiz-adv-x="562" 
d="M46 172l160 17v-11c0 -43 25 -70 62 -70c86 0 95 130 98 214c-37 -67 -112 -79 -147 -79c-79 0 -187 55 -187 208c0 151 101 238 243 238c130 0 243 -83 243 -334c0 -186 -44 -368 -263 -368c-171 0 -203 136 -209 185zM185 462c0 -26 4 -104 81 -104c46 0 80 36 80 104
c0 37 -9 109 -78 109c-83 0 -83 -90 -83 -109z" />
    <glyph glyph-name="Amacron" unicode="&#x100;" horiz-adv-x="708" 
d="M705 0h-188l-35 113h-260l-35 -113h-188l262 706h184zM442 240l-92 298l-87 -298h179zM536 778h-369v101h369v-101z" />
    <glyph glyph-name="amacron" unicode="&#x101;" horiz-adv-x="583" 
d="M526 0h-151v47c-41 -27 -80 -61 -160 -61c-119 0 -171 84 -171 159c0 65 45 123 110 150c36 15 91 26 206 48v29c0 18 -3 63 -59 63c-65 0 -77 -38 -81 -61h-154c0 115 106 162 220 162c90 0 225 -24 225 -150v-305c0 -45 2 -62 15 -81zM360 250l-99 -33
c-53 -17 -66 -42 -66 -65c0 -18 15 -53 59 -53c60 0 106 54 106 128v23zM485 597h-369v101h369v-101z" />
    <glyph glyph-name="Abreve" unicode="&#x102;" horiz-adv-x="708" 
d="M705 0h-188l-35 113h-260l-35 -113h-188l262 706h184zM442 240l-92 298l-87 -298h179zM412 898h100c-9 -98 -84 -131 -158 -131c-83 0 -149 37 -158 132h101c0 -41 30 -55 56 -55c23 0 59 12 59 54z" />
    <glyph glyph-name="abreve" unicode="&#x103;" horiz-adv-x="583" 
d="M526 0h-151v47c-41 -27 -80 -61 -160 -61c-119 0 -171 84 -171 159c0 65 45 123 110 150c36 15 91 26 206 48v29c0 18 -3 63 -59 63c-65 0 -77 -38 -81 -61h-154c0 115 106 162 220 162c90 0 225 -24 225 -150v-305c0 -45 2 -62 15 -81zM360 250l-99 -33
c-53 -17 -66 -42 -66 -65c0 -18 15 -53 59 -53c60 0 106 54 106 128v23zM357 720h101c-11 -99 -67 -149 -154 -149c-76 0 -147 41 -155 149h101c0 -47 26 -61 52 -61s55 13 55 61z" />
    <glyph glyph-name="Aogonek" unicode="&#x104;" horiz-adv-x="708" 
d="M187 0h-188l262 706h184l260 -706h-49c-34 -5 -69 -51 -69 -86c0 -29 24 -41 47 -41c11 0 22 5 39 17l25 -25c-22 -21 -47 -40 -95 -40c-66 0 -95 38 -95 74c0 45 39 74 83 101h-74l-35 113h-260zM442 240l-92 298l-87 -298h179z" />
    <glyph glyph-name="aogonek" unicode="&#x105;" horiz-adv-x="583" 
d="M220 374h-154c0 115 106 162 220 162c90 0 225 -24 225 -150v-305c0 -45 2 -62 15 -81h-30c-31 -2 -69 -51 -69 -86c0 -29 24 -41 47 -41c11 0 22 5 39 17l25 -25c-22 -21 -47 -40 -95 -40c-66 0 -95 38 -95 74c0 45 38 74 82 101h-55v47c-41 -27 -80 -61 -160 -61
c-119 0 -171 84 -171 159c0 65 45 123 110 150c36 15 91 26 206 48v29c0 18 -3 63 -59 63c-65 0 -77 -38 -81 -61zM360 250l-99 -33c-53 -17 -66 -41 -66 -65c0 -18 15 -53 59 -53c60 0 106 54 106 128v23z" />
    <glyph glyph-name="Cacute" unicode="&#x106;" horiz-adv-x="702" 
d="M542 232l139 -71c-56 -98 -157 -182 -304 -182c-187 0 -338 136 -338 375c0 209 142 374 342 374c130 0 248 -77 298 -183l-140 -70c-15 53 -78 108 -150 108c-114 0 -174 -106 -174 -224c0 -155 79 -232 174 -232c92 0 129 64 153 105zM537 897l-145 -115h-96l61 115
h180z" />
    <glyph glyph-name="cacute" unicode="&#x107;" horiz-adv-x="539" 
d="M408 183l116 -60c-59 -103 -152 -140 -232 -140c-122 0 -259 78 -259 274c0 209 144 280 262 280c47 0 150 -10 223 -126l-114 -65c-14 29 -42 73 -102 73c-82 0 -111 -94 -111 -157c0 -66 31 -157 116 -157c60 0 90 45 101 78zM457 719l-153 -133h-102l73 133h182z" />
    <glyph glyph-name="Ccircumflex" unicode="&#x108;" horiz-adv-x="702" 
d="M542 232l139 -71c-56 -98 -157 -182 -304 -182c-187 0 -338 136 -338 375c0 209 142 374 342 374c130 0 248 -77 298 -183l-140 -70c-15 53 -78 108 -150 108c-114 0 -174 -106 -174 -224c0 -155 79 -232 174 -232c92 0 129 64 153 105zM546 779h-116l-40 51l-38 -51
h-116l89 115h133z" />
    <glyph glyph-name="ccircumflex" unicode="&#x109;" horiz-adv-x="539" 
d="M408 183l116 -60c-59 -103 -152 -140 -232 -140c-122 0 -259 78 -259 274c0 209 144 280 262 280c47 0 150 -10 223 -126l-114 -65c-14 29 -42 73 -102 73c-82 0 -111 -94 -111 -157c0 -66 31 -157 116 -157c60 0 90 45 101 78zM470 589h-118l-49 62l-46 -63h-118
l101 132h127z" />
    <glyph glyph-name="Cdotaccent" unicode="&#x10a;" horiz-adv-x="702" 
d="M542 232l139 -71c-56 -98 -157 -182 -304 -182c-187 0 -338 136 -338 375c0 209 142 374 342 374c130 0 248 -77 298 -183l-140 -70c-15 53 -78 108 -150 108c-114 0 -174 -106 -174 -224c0 -155 79 -232 174 -232c92 0 129 64 153 105zM467 767h-160v132h160v-132z" />
    <glyph glyph-name="cdotaccent" unicode="&#x10b;" horiz-adv-x="539" 
d="M408 183l116 -60c-59 -103 -152 -140 -232 -140c-122 0 -259 78 -259 274c0 209 144 280 262 280c47 0 150 -10 223 -126l-114 -65c-14 29 -42 73 -102 73c-82 0 -111 -94 -111 -157c0 -66 31 -157 116 -157c60 0 90 45 101 78zM380 590h-157v132h157v-132z" />
    <glyph glyph-name="Ccaron" unicode="&#x10c;" horiz-adv-x="702" 
d="M542 232l139 -71c-56 -98 -157 -182 -304 -182c-187 0 -338 136 -338 375c0 209 142 374 342 374c130 0 248 -77 298 -183l-140 -70c-15 53 -78 108 -150 108c-114 0 -174 -106 -174 -224c0 -155 79 -232 174 -232c92 0 129 64 153 105zM529 898l-88 -115h-133l-90 115
h117l40 -51l39 51h115z" />
    <glyph glyph-name="ccaron" unicode="&#x10d;" horiz-adv-x="539" 
d="M408 183l116 -60c-59 -103 -152 -140 -232 -140c-122 0 -259 78 -259 274c0 209 144 280 262 280c47 0 150 -10 223 -126l-114 -65c-14 29 -42 73 -102 73c-82 0 -111 -94 -111 -157c0 -66 31 -157 116 -157c60 0 90 45 101 78zM453 720l-102 -131h-126l-105 131h120
l48 -63l45 63h120z" />
    <glyph glyph-name="Dcaron" unicode="&#x10e;" horiz-adv-x="729" 
d="M67 0v706h242c273 0 390 -121 390 -353c0 -168 -73 -353 -354 -353h-278zM245 557v-415h57c152 0 220 53 220 213c0 110 -36 202 -190 202h-87zM472 898l-88 -115h-133l-90 115h117l40 -51l39 51h115z" />
    <glyph glyph-name="dcaron" unicode="&#x10f;" horiz-adv-x="604" 
d="M536 0h-140v49c-57 -58 -111 -63 -139 -63c-123 0 -226 95 -226 271c0 155 76 279 218 279c73 0 118 -37 138 -53v223h149v-706zM187 258c0 -46 10 -158 99 -158c100 0 104 132 104 157c0 65 -12 164 -96 164c-82 0 -107 -89 -107 -163zM571 616v90h112v-74
c0 -66 -35 -102 -112 -112v40c32 7 46 20 46 56h-46z" />
    <glyph glyph-name="Dcroat" unicode="&#x110;" horiz-adv-x="729" 
d="M67 706h239c275 0 393 -121 393 -353c0 -168 -73 -353 -355 -353h-277v341h-67v79h67v286zM245 557v-137h174v-79h-174v-199h53c152 0 225 53 225 213c0 110 -38 202 -191 202h-87z" />
    <glyph glyph-name="dcroat" unicode="&#x111;" horiz-adv-x="604" 
d="M536 0h-140v49c-57 -58 -111 -63 -139 -63c-123 0 -226 95 -226 271c0 155 76 279 218 279c73 0 118 -37 138 -53v78h-147v79h147v66h149v-66h68v-79h-68v-561zM187 258c0 -46 10 -158 99 -158c100 0 104 132 104 157c0 65 -12 164 -96 164c-82 0 -107 -89 -107 -163z
" />
    <glyph glyph-name="Emacron" unicode="&#x112;" horiz-adv-x="646" 
d="M68 0v706h522v-137h-346v-128h323v-134h-323v-168h377v-139h-553zM512 778h-369v101h369v-101z" />
    <glyph glyph-name="emacron" unicode="&#x113;" horiz-adv-x="583" 
d="M562 229h-373v-6c0 -70 48 -124 119 -124c73 0 116 50 132 93l116 -60c-59 -99 -152 -151 -260 -151c-159 0 -264 101 -264 270c0 131 64 287 268 287c196 0 262 -157 262 -302v-7zM189 325h214c-2 58 -41 103 -104 103c-73 0 -103 -61 -110 -103zM482 597h-369v101h369
v-101z" />
    <glyph glyph-name="Ebreve" unicode="&#x114;" horiz-adv-x="646" 
d="M68 0v706h522v-137h-346v-128h323v-134h-323v-168h377v-139h-553zM392 898h100c-9 -98 -84 -131 -158 -131c-83 0 -149 37 -158 132h101c0 -41 30 -55 56 -55c23 0 59 12 59 54z" />
    <glyph glyph-name="ebreve" unicode="&#x115;" horiz-adv-x="583" 
d="M562 229h-373v-6c0 -70 48 -124 119 -124c73 0 116 50 132 93l116 -60c-59 -99 -152 -151 -260 -151c-159 0 -264 101 -264 270c0 131 64 287 268 287c196 0 262 -157 262 -302v-7zM189 325h214c-2 58 -41 103 -104 103c-73 0 -103 -61 -110 -103zM350 720h101
c-11 -99 -67 -149 -154 -149c-76 0 -147 41 -155 149h101c0 -47 26 -61 52 -61s55 13 55 61z" />
    <glyph glyph-name="Edotaccent" unicode="&#x116;" horiz-adv-x="646" 
d="M68 0v706h522v-137h-346v-128h323v-134h-323v-168h377v-139h-553zM409 767h-160v132h160v-132z" />
    <glyph glyph-name="edotaccent" unicode="&#x117;" horiz-adv-x="583" 
d="M562 229h-373v-6c0 -70 48 -124 119 -124c73 0 116 50 132 93l116 -60c-59 -99 -152 -151 -260 -151c-159 0 -264 101 -264 270c0 131 64 287 268 287c196 0 262 -157 262 -302v-7zM189 325h214c-2 58 -41 103 -104 103c-73 0 -103 -61 -110 -103zM373 590h-157v132h157
v-132z" />
    <glyph glyph-name="Eogonek" unicode="&#x118;" horiz-adv-x="646" 
d="M68 0v706h522v-137h-346v-128h323v-134h-323v-168h377v-139h-44c-32 -3 -69 -51 -69 -86c0 -29 24 -41 47 -41c13 0 22 5 39 17l25 -25c-22 -21 -47 -40 -95 -40c-66 0 -95 38 -95 74c0 45 38 74 82 101h-443z" />
    <glyph glyph-name="eogonek" unicode="&#x119;" horiz-adv-x="583" 
d="M562 229h-373v-6c0 -70 48 -124 119 -124c73 0 116 50 132 93l116 -60c-41 -68 -75 -93 -134 -125c-63 -34 -76 -66 -76 -93c0 -29 24 -41 47 -41c12 0 22 5 39 17l25 -25c-22 -21 -47 -40 -95 -40c-66 0 -95 38 -95 74c0 35 24 61 55 83c-8 -1 -17 -1 -26 -1
c-159 0 -264 101 -264 270c0 131 64 287 268 287c196 0 262 -157 262 -302v-7zM189 325h214c-2 58 -41 103 -104 103c-73 0 -103 -61 -110 -103z" />
    <glyph glyph-name="Ecaron" unicode="&#x11a;" horiz-adv-x="646" 
d="M68 0v706h522v-137h-346v-128h323v-134h-323v-168h377v-139h-553zM486 898l-88 -115h-133l-90 115h117l40 -51l39 51h115z" />
    <glyph glyph-name="ecaron" unicode="&#x11b;" horiz-adv-x="583" 
d="M562 229h-373v-6c0 -70 48 -124 119 -124c73 0 116 50 132 93l116 -60c-59 -99 -152 -151 -260 -151c-159 0 -264 101 -264 270c0 131 64 287 268 287c196 0 262 -157 262 -302v-7zM189 325h214c-2 58 -41 103 -104 103c-73 0 -103 -61 -110 -103zM465 720l-102 -131
h-126l-105 131h120l48 -63l45 63h120z" />
    <glyph glyph-name="Gcircumflex" unicode="&#x11c;" horiz-adv-x="750" 
d="M699 567l-134 -81c-25 51 -84 100 -165 100c-113 0 -184 -84 -184 -228c0 -84 25 -232 185 -232c64 0 148 31 154 132h-158v134h307v-392h-138v65c-86 -78 -168 -81 -208 -81c-219 0 -318 190 -318 369c0 168 98 377 348 377c187 0 281 -125 311 -163zM545 779h-116
l-40 51l-38 -51h-116l89 115h133z" />
    <glyph glyph-name="gcircumflex" unicode="&#x11d;" horiz-adv-x="604" 
d="M392 522h145v-509c0 -136 -89 -200 -259 -200c-141 0 -239 57 -239 171v16h159c0 -35 15 -85 95 -85c57 0 91 24 91 83v71c-35 -23 -67 -45 -137 -45c-85 0 -216 49 -216 252c0 156 91 255 216 255c76 0 117 -30 145 -57v48zM384 277c0 66 -10 139 -100 139
c-89 0 -94 -101 -94 -134c0 -74 14 -141 98 -141c91 0 96 83 96 136zM459 589h-118l-49 62l-46 -63h-118l101 132h127z" />
    <glyph glyph-name="Gbreve" unicode="&#x11e;" horiz-adv-x="750" 
d="M699 567l-134 -81c-25 51 -84 100 -165 100c-113 0 -184 -84 -184 -228c0 -84 25 -232 185 -232c64 0 148 31 154 132h-158v134h307v-392h-138v65c-86 -78 -168 -81 -208 -81c-219 0 -318 190 -318 369c0 168 98 377 348 377c187 0 281 -125 311 -163zM441 898h100
c-9 -98 -84 -131 -158 -131c-83 0 -149 37 -158 132h101c0 -41 30 -55 56 -55c23 0 59 12 59 54z" />
    <glyph glyph-name="gbreve" unicode="&#x11f;" horiz-adv-x="604" 
d="M392 522h145v-509c0 -136 -89 -200 -259 -200c-141 0 -239 57 -239 171v16h159c0 -35 15 -85 95 -85c57 0 91 24 91 83v71c-35 -23 -67 -45 -137 -45c-85 0 -216 49 -216 252c0 156 91 255 216 255c76 0 117 -30 145 -57v48zM384 277c0 66 -10 139 -100 139
c-89 0 -94 -101 -94 -134c0 -74 14 -141 98 -141c91 0 96 83 96 136zM341 720h101c-11 -99 -67 -149 -154 -149c-76 0 -147 41 -155 149h101c0 -47 26 -61 52 -61s55 13 55 61z" />
    <glyph glyph-name="Gdotaccent" unicode="&#x120;" horiz-adv-x="750" 
d="M699 567l-134 -81c-25 51 -84 100 -165 100c-113 0 -184 -84 -184 -228c0 -84 25 -232 185 -232c64 0 148 31 154 132h-158v134h307v-392h-138v65c-86 -78 -168 -81 -208 -81c-219 0 -318 190 -318 369c0 168 98 377 348 377c187 0 281 -125 311 -163zM466 767h-160v132
h160v-132z" />
    <glyph glyph-name="gdotaccent" unicode="&#x121;" horiz-adv-x="604" 
d="M392 522h145v-509c0 -136 -89 -200 -259 -200c-141 0 -239 57 -239 171v16h159c0 -35 15 -85 95 -85c57 0 91 24 91 83v71c-35 -23 -67 -45 -137 -45c-85 0 -216 49 -216 252c0 156 91 255 216 255c76 0 117 -30 145 -57v48zM384 277c0 66 -10 139 -100 139
c-89 0 -94 -101 -94 -134c0 -74 14 -141 98 -141c91 0 96 83 96 136zM380 590h-157v132h157v-132z" />
    <glyph glyph-name="Gcommaaccent" unicode="&#x122;" horiz-adv-x="750" 
d="M699 567l-134 -81c-25 51 -84 100 -165 100c-113 0 -184 -84 -184 -228c0 -84 25 -232 185 -232c64 0 148 31 154 132h-158v134h307v-392h-138v65c-86 -78 -168 -81 -208 -81c-219 0 -318 190 -318 369c0 168 98 377 348 377c187 0 281 -125 311 -163zM319 -113v77h112
v-38c0 -68 -12 -105 -105 -107v35c23 3 34 14 34 33h-41z" />
    <glyph glyph-name="gcommaaccent" unicode="&#x123;" horiz-adv-x="604" 
d="M392 522h145v-509c0 -136 -89 -200 -259 -200c-141 0 -239 57 -239 171v16h159c0 -35 15 -85 95 -85c57 0 91 24 91 83v71c-35 -23 -67 -45 -137 -45c-85 0 -216 49 -216 252c0 156 91 255 216 255c76 0 117 -30 145 -57v48zM384 277c0 66 -10 139 -100 139
c-89 0 -94 -101 -94 -134c0 -74 14 -141 98 -141c91 0 96 83 96 136zM338 663v-77h-112v38c0 68 12 105 105 107v-35c-23 -3 -34 -14 -34 -33h41z" />
    <glyph glyph-name="Hbar" unicode="&#x126;" horiz-adv-x="750" 
d="M12 502v119h56v85h178v-85h258v85h177v-85h58v-119h-58v-502h-177v301h-258v-301h-178v502h-56zM246 451h258v51h-258v-51z" />
    <glyph glyph-name="hbar" unicode="&#x127;" horiz-adv-x="604" 
d="M0 640h68v66h154v-66h134v-79h-134v-95c57 63 119 70 149 70c108 0 166 -68 166 -179v-357h-153v282c0 54 -3 123 -79 123c-64 0 -83 -48 -83 -130v-275h-154v561h-68v79z" />
    <glyph glyph-name="Hcircumflex" unicode="&#x124;" horiz-adv-x="750" 
d="M681 0h-177v301h-258v-301h-178v706h178v-255h258v255h177v-706zM530 779h-116l-40 51l-38 -51h-116l89 115h133z" />
    <glyph glyph-name="hcircumflex" unicode="&#x125;" horiz-adv-x="604" 
d="M537 0h-153v282c0 54 -3 123 -79 123c-64 0 -83 -48 -83 -130v-275h-154v706h154v-240c57 63 119 70 149 70c108 0 166 -68 166 -179v-357zM299 779h-116l-40 51l-38 -51h-116l89 115h133z" />
    <glyph glyph-name="Itilde" unicode="&#x128;" horiz-adv-x="313" 
d="M243 0h-176v706h176v-706zM265 902h69c-3 -74 -37 -137 -97 -137c-58 0 -114 50 -153 50c-31 0 -36 -36 -37 -45h-68c2 55 31 135 105 135c56 0 104 -45 141 -45c30 0 39 34 40 42z" />
    <glyph glyph-name="itilde" unicode="&#x129;" horiz-adv-x="292" 
d="M221 0h-152v522h152v-522zM254 720h69c-6 -59 -19 -138 -92 -138c-61 0 -109 46 -153 46c-26 0 -35 -25 -37 -46h-72c10 101 41 142 100 142c60 0 101 -45 145 -45c11 0 35 3 40 41z" />
    <glyph glyph-name="uni012A" unicode="&#x12a;" horiz-adv-x="313" 
d="M243 0h-176v706h176v-706zM307 778h-301v101h301v-101z" />
    <glyph glyph-name="imacron" unicode="&#x12b;" horiz-adv-x="292" 
d="M221 0h-152v522h152v-522zM286 597h-280v101h280v-101z" />
    <glyph glyph-name="Ibreve" unicode="&#x12c;" horiz-adv-x="313" 
d="M243 0h-176v706h176v-706zM214 898h100c-9 -98 -84 -131 -158 -131c-83 0 -149 37 -158 132h101c0 -41 30 -55 56 -55c23 0 59 12 59 54z" />
    <glyph glyph-name="uni012D" unicode="&#x12d;" horiz-adv-x="292" 
d="M221 0h-152v522h152v-522zM199 720h101c-11 -99 -67 -149 -154 -149c-76 0 -147 41 -155 149h101c0 -47 26 -61 52 -61s55 13 55 61z" />
    <glyph glyph-name="Iogonek" unicode="&#x12e;" horiz-adv-x="313" 
d="M67 0v706h176v-706h-30c-39 -8 -69 -54 -69 -86c0 -29 24 -41 47 -41c12 0 22 5 39 17l25 -25c-22 -21 -47 -40 -95 -40c-66 0 -95 38 -95 74c0 45 38 74 82 101h-80z" />
    <glyph glyph-name="iogonek" unicode="&#x12f;" horiz-adv-x="292" 
d="M69 0v522h153v-522h-16c-35 -6 -69 -51 -69 -86c0 -29 24 -41 47 -41c12 0 22 5 39 17l25 -25c-22 -21 -47 -40 -95 -40c-66 0 -95 38 -95 74c0 45 39 74 83 101h-72zM222 587h-153v119h153v-119z" />
    <glyph glyph-name="Idotaccent" unicode="&#x130;" horiz-adv-x="313" 
d="M243 0h-176v706h176v-706zM236 767h-160v132h160v-132z" />
    <glyph glyph-name="IJ" unicode="&#x132;" horiz-adv-x="709" 
d="M243 0h-176v706h176v-706zM329 0v143h35c83 0 103 12 103 63v500h177v-536c0 -134 -68 -170 -197 -170h-118z" />
    <glyph glyph-name="ij" unicode="&#x133;" horiz-adv-x="584" 
d="M222 587h-153v119h153v-119zM222 0h-153v522h153v-522zM513 588h-152v118h152v-118zM361 522h152v-518c0 -138 -40 -182 -151 -182c-23 0 -45 0 -70 2v122c3 0 13 -1 19 -1c49 0 50 29 50 74v503z" />
    <glyph glyph-name="Jcircumflex" unicode="&#x134;" horiz-adv-x="396" 
d="M16 0v143h35c83 0 103 12 103 63v500h177v-536c0 -134 -68 -170 -197 -170h-118zM398 779h-116l-40 51l-38 -51h-116l89 115h133z" />
    <glyph glyph-name="jcircumflex" unicode="&#x135;" horiz-adv-x="292" 
d="M69 522h152v-518c0 -138 -40 -182 -151 -182c-23 0 -45 0 -70 2v122c3 0 13 -1 19 -1c49 0 50 29 50 74v503zM311 589h-118l-49 62l-46 -63h-118l101 132h127z" />
    <glyph glyph-name="Kcommaaccent" unicode="&#x136;" horiz-adv-x="708" 
d="M732 0h-199l-188 320l-109 -113v-207h-168v706h168v-288l264 288h213l-250 -262zM331 -113v77h112v-38c0 -68 -12 -105 -105 -107v35c23 3 34 14 34 33h-41z" />
    <glyph glyph-name="kcommaaccent" unicode="&#x137;" horiz-adv-x="583" 
d="M595 0h-178l-134 225l-66 -63v-162h-150v706h151v-363l169 179h185l-180 -186zM271 -113v77h112v-38c0 -68 -12 -105 -105 -107v35c23 3 34 14 34 33h-41z" />
    <glyph glyph-name="kgreenlandic" unicode="&#x138;" horiz-adv-x="583" 
d="M595 0h-178l-134 225l-66 -63v-162h-150v522h151v-179l169 179h185l-180 -186z" />
    <glyph glyph-name="Lacute" unicode="&#x139;" horiz-adv-x="542" 
d="M520 0h-452v706h176v-557h276v-149zM329 897l-145 -115h-96l61 115h180z" />
    <glyph glyph-name="lacute" unicode="&#x13a;" horiz-adv-x="292" 
d="M222 0h-153v706h153v-706zM319 897l-145 -115h-96l61 115h180z" />
    <glyph glyph-name="Lcommaaccent" unicode="&#x13b;" horiz-adv-x="542" 
d="M520 0h-452v706h176v-557h276v-149zM238 -113v77h112v-38c0 -68 -12 -105 -105 -107v35c23 3 34 14 34 33h-41z" />
    <glyph glyph-name="lcommaaccent" unicode="&#x13c;" horiz-adv-x="292" 
d="M222 0h-153v706h153v-706zM89 -113v77h112v-38c0 -68 -12 -105 -105 -107v35c23 3 34 14 34 33h-41z" />
    <glyph glyph-name="Lcaron" unicode="&#x13d;" horiz-adv-x="542" 
d="M520 0h-452v706h176v-557h276v-149zM282 616v90h112v-74c0 -66 -35 -102 -112 -112v40c32 7 46 20 46 56h-46z" />
    <glyph glyph-name="lcaron" unicode="&#x13e;" horiz-adv-x="292" 
d="M222 0h-153v706h153v-706zM259 616v90h112v-74c0 -66 -35 -102 -112 -112v40c32 7 46 20 46 56h-46z" />
    <glyph glyph-name="Ldot" unicode="&#x13f;" horiz-adv-x="542" 
d="M520 0h-452v706h176v-557h276v-149zM496 309h-160v162h160v-162z" />
    <glyph glyph-name="ldot" unicode="&#x140;" horiz-adv-x="398" 
d="M222 0h-153v706h153v-706zM423 289h-156v155h156v-155z" />
    <glyph glyph-name="Nacute" unicode="&#x143;" horiz-adv-x="729" 
d="M660 0h-173l-250 422v-422h-170v706h173l251 -430v430h169v-706zM520 897l-145 -115h-96l61 115h180z" />
    <glyph glyph-name="nacute" unicode="&#x144;" horiz-adv-x="604" 
d="M535 0h-154v322c0 49 -14 90 -76 90c-71 0 -81 -50 -81 -120v-292h-154v522h156v-46c25 30 74 59 147 59c106 0 162 -54 162 -160v-375zM481 719l-153 -133h-102l73 133h182z" />
    <glyph glyph-name="Ncommaaccent" unicode="&#x145;" horiz-adv-x="729" 
d="M660 0h-173l-250 422v-422h-170v706h173l251 -430v430h169v-706zM308 -113v77h112v-38c0 -68 -12 -105 -105 -107v35c23 3 34 14 34 33h-41z" />
    <glyph glyph-name="ncommaaccent" unicode="&#x146;" horiz-adv-x="604" 
d="M535 0h-154v322c0 49 -14 90 -76 90c-71 0 -81 -50 -81 -120v-292h-154v522h156v-46c25 30 74 59 147 59c106 0 162 -54 162 -160v-375zM249 -113v77h112v-38c0 -68 -12 -105 -105 -107v35c23 3 34 14 34 33h-41z" />
    <glyph glyph-name="Ncaron" unicode="&#x147;" horiz-adv-x="729" 
d="M660 0h-173l-250 422v-422h-170v706h173l251 -430v430h169v-706zM517 898l-88 -115h-133l-90 115h117l40 -51l39 51h115z" />
    <glyph glyph-name="ncaron" unicode="&#x148;" horiz-adv-x="604" 
d="M535 0h-154v322c0 49 -14 90 -76 90c-71 0 -81 -50 -81 -120v-292h-154v522h156v-46c25 30 74 59 147 59c106 0 162 -54 162 -160v-375zM467 720l-102 -131h-126l-105 131h120l48 -63l45 63h120z" />
    <glyph glyph-name="napostrophe" unicode="&#x149;" horiz-adv-x="604" 
d="M535 0h-154v322c0 49 -14 90 -76 90c-71 0 -81 -50 -81 -120v-292h-154v522h156v-46c25 30 74 59 147 59c106 0 162 -54 162 -160v-375zM11 616v90h112v-74c0 -66 -35 -102 -112 -112v40c32 7 46 20 46 56h-46z" />
    <glyph glyph-name="Eng" unicode="&#x14a;" horiz-adv-x="729" 
d="M660 706v-710c0 -135 -41 -184 -151 -184c-23 0 -53 1 -78 3v129c6 -1 16 -2 24 -2c20 0 32 10 32 33v25l-250 422v-422h-170v706h173l251 -430v430h169z" />
    <glyph glyph-name="eng" unicode="&#x14b;" horiz-adv-x="604" 
d="M224 0h-154v522h156v-46c25 30 74 59 147 59c106 0 162 -54 162 -160v-373c0 -138 -47 -176 -151 -176c-21 0 -45 1 -64 4v121c5 -1 16 -2 23 -2c32 0 38 21 38 55v318c0 49 -14 90 -76 90c-71 0 -81 -50 -81 -120v-292z" />
    <glyph glyph-name="Omacron" unicode="&#x14c;" horiz-adv-x="792" 
d="M42 356c0 161 94 372 349 372c257 0 358 -212 358 -380c0 -189 -129 -369 -356 -369c-233 0 -351 183 -351 377zM216 358c0 -113 51 -229 178 -229c131 0 178 122 178 221c0 128 -56 230 -181 230c-134 0 -175 -127 -175 -222zM580 778h-369v101h369v-101z" />
    <glyph glyph-name="omacron" unicode="&#x14d;" horiz-adv-x="625" 
d="M593 261c0 -169 -106 -277 -281 -277c-136 0 -280 74 -280 280c0 132 80 274 275 274c219 0 286 -152 286 -277zM437 256c0 111 -47 160 -131 160c-58 0 -119 -44 -119 -153c0 -87 37 -156 127 -156c85 0 123 71 123 149zM497 597h-369v101h369v-101z" />
    <glyph glyph-name="Obreve" unicode="&#x14e;" horiz-adv-x="792" 
d="M42 356c0 161 94 372 349 372c257 0 358 -212 358 -380c0 -189 -129 -369 -356 -369c-233 0 -351 183 -351 377zM216 358c0 -113 51 -229 178 -229c131 0 178 122 178 221c0 128 -56 230 -181 230c-134 0 -175 -127 -175 -222zM454 898h100c-9 -98 -84 -131 -158 -131
c-83 0 -149 37 -158 132h101c0 -41 30 -55 56 -55c23 0 59 12 59 54z" />
    <glyph glyph-name="obreve" unicode="&#x14f;" horiz-adv-x="625" 
d="M593 261c0 -169 -106 -277 -281 -277c-136 0 -280 74 -280 280c0 132 80 274 275 274c219 0 286 -152 286 -277zM437 256c0 111 -47 160 -131 160c-58 0 -119 -44 -119 -153c0 -87 37 -156 127 -156c85 0 123 71 123 149zM366 720h101c-11 -99 -67 -149 -154 -149
c-76 0 -147 41 -155 149h101c0 -47 26 -61 52 -61s55 13 55 61z" />
    <glyph glyph-name="Ohungarumlaut" unicode="&#x150;" horiz-adv-x="792" 
d="M42 356c0 161 94 372 349 372c257 0 358 -212 358 -380c0 -189 -129 -369 -356 -369c-233 0 -351 183 -351 377zM216 358c0 -113 51 -229 178 -229c131 0 178 122 178 221c0 128 -56 230 -181 230c-134 0 -175 -127 -175 -222zM460 897l-144 -115h-88l61 115h171z
M680 897l-144 -115h-88l61 115h171z" />
    <glyph glyph-name="ohungarumlaut" unicode="&#x151;" horiz-adv-x="625" 
d="M593 261c0 -169 -106 -277 -281 -277c-136 0 -280 74 -280 280c0 132 80 274 275 274c219 0 286 -152 286 -277zM437 256c0 111 -47 160 -131 160c-58 0 -119 -44 -119 -153c0 -87 37 -156 127 -156c85 0 123 71 123 149zM390 719l-152 -133h-91l73 133h170zM593 719
l-152 -133h-91l73 133h170z" />
    <glyph glyph-name="Racute" unicode="&#x154;" horiz-adv-x="708" 
d="M67 706h334c105 0 271 -27 271 -229c0 -120 -68 -168 -145 -195l163 -282h-194l-141 252h-110v-252h-178v706zM244 575v-192h146c101 0 106 76 106 98c0 92 -74 94 -105 94h-147zM491 897l-145 -115h-96l61 115h180z" />
    <glyph glyph-name="racute" unicode="&#x155;" 
d="M67 522h149v-54c13 11 27 25 61 39c42 17 71 20 90 21v-136l-51 -8c-81 -13 -96 -34 -96 -90v-294h-153v522zM389 719l-153 -133h-102l73 133h182z" />
    <glyph glyph-name="Rcommaaccent" unicode="&#x156;" horiz-adv-x="708" 
d="M67 706h334c105 0 271 -27 271 -229c0 -120 -68 -168 -145 -195l163 -282h-194l-141 252h-110v-252h-178v706zM244 575v-192h146c101 0 106 76 106 98c0 92 -74 94 -105 94h-147zM316 -113v77h112v-38c0 -68 -12 -105 -105 -107v35c23 3 34 14 34 33h-41z" />
    <glyph glyph-name="rcommaaccent" unicode="&#x157;" 
d="M67 522h149v-54c13 11 27 25 61 39c42 17 71 20 90 21v-136l-51 -8c-81 -13 -96 -34 -96 -90v-294h-153v522zM90 -113v77h112v-38c0 -68 -12 -105 -105 -107v35c23 3 34 14 34 33h-41z" />
    <glyph glyph-name="Rcaron" unicode="&#x158;" horiz-adv-x="708" 
d="M67 706h334c105 0 271 -27 271 -229c0 -120 -68 -168 -145 -195l163 -282h-194l-141 252h-110v-252h-178v706zM244 575v-192h146c101 0 106 76 106 98c0 92 -74 94 -105 94h-147zM465 898l-88 -115h-133l-90 115h117l40 -51l39 51h115z" />
    <glyph glyph-name="rcaron" unicode="&#x159;" 
d="M67 522h149v-54c13 11 27 25 61 39c42 17 71 20 90 21v-136l-51 -8c-81 -13 -96 -34 -96 -90v-294h-153v522zM376 720l-102 -131h-126l-105 131h120l48 -63l45 63h120z" />
    <glyph glyph-name="Sacute" unicode="&#x15a;" horiz-adv-x="688" 
d="M644 589l-130 -93c-51 53 -109 88 -185 88c-72 0 -105 -42 -105 -75c0 -38 30 -56 90 -65l78 -11c184 -26 260 -82 260 -203c0 -149 -119 -246 -321 -246c-165 0 -250 59 -322 143l134 85c47 -57 128 -89 204 -89c52 0 130 23 130 82c0 50 -60 64 -123 72l-81 11
c-124 17 -225 75 -225 199c0 139 103 236 285 236c149 0 242 -68 311 -134zM491 897l-145 -115h-96l61 115h180z" />
    <glyph glyph-name="sacute" unicode="&#x15b;" horiz-adv-x="521" 
d="M488 461l-95 -88c-34 28 -84 52 -133 52c-33 0 -72 -11 -72 -40c0 -25 24 -33 85 -45l37 -7c113 -21 188 -67 188 -164c0 -130 -138 -182 -247 -182c-130 0 -215 60 -253 101l97 88c38 -40 96 -72 152 -72c51 0 93 18 93 51c0 29 -27 37 -83 46l-47 8
c-124 21 -175 75 -175 155c0 89 74 175 221 175c89 0 169 -30 232 -78zM427 719l-153 -133h-102l73 133h182z" />
    <glyph glyph-name="Scircumflex" unicode="&#x15c;" horiz-adv-x="688" 
d="M644 589l-130 -93c-51 53 -109 88 -185 88c-72 0 -105 -42 -105 -75c0 -38 30 -56 90 -65l78 -11c184 -26 260 -82 260 -203c0 -149 -119 -246 -321 -246c-165 0 -250 59 -322 143l134 85c47 -57 128 -89 204 -89c52 0 130 23 130 82c0 50 -60 64 -123 72l-81 11
c-124 17 -225 75 -225 199c0 139 103 236 285 236c149 0 242 -68 311 -134zM499 779h-116l-40 51l-38 -51h-116l89 115h133z" />
    <glyph glyph-name="scircumflex" unicode="&#x15d;" horiz-adv-x="521" 
d="M488 461l-95 -88c-34 28 -84 52 -133 52c-33 0 -72 -11 -72 -40c0 -25 24 -33 85 -45l37 -7c113 -21 188 -67 188 -164c0 -130 -138 -182 -247 -182c-130 0 -215 60 -253 101l97 88c38 -40 96 -72 152 -72c51 0 93 18 93 51c0 29 -27 37 -83 46l-47 8
c-124 21 -175 75 -175 155c0 89 74 175 221 175c89 0 169 -30 232 -78zM426 589h-118l-49 62l-46 -63h-118l101 132h127z" />
    <glyph glyph-name="Scedilla" unicode="&#x15e;" horiz-adv-x="688" 
d="M644 589l-130 -93c-51 53 -109 88 -185 88c-72 0 -105 -42 -105 -75c0 -36 30 -56 90 -65l78 -11c184 -26 260 -82 260 -203c0 -147 -114 -243 -312 -246l-19 -37c13 2 25 3 39 3c60 0 76 -39 76 -65c0 -50 -51 -82 -96 -82c-41 0 -73 23 -99 52l28 23
c14 -17 30 -32 54 -32c18 0 35 11 35 31c0 29 -32 40 -55 40c-12 0 -19 -2 -28 -3l-12 18l29 53c-140 9 -217 65 -283 142l134 85c47 -57 128 -89 204 -89c52 0 130 23 130 82c0 52 -60 64 -123 72l-81 11c-124 17 -225 75 -225 199c0 139 103 236 285 236
c149 0 242 -68 311 -134z" />
    <glyph glyph-name="scedilla" unicode="&#x15f;" horiz-adv-x="521" 
d="M488 461l-95 -88c-34 28 -84 52 -133 52c-33 0 -72 -11 -72 -40c0 -25 24 -33 85 -45l37 -7c113 -21 188 -67 188 -164c0 -128 -133 -181 -241 -183l-19 -39c13 2 25 3 39 3c60 0 76 -39 76 -65c0 -50 -51 -82 -96 -82c-41 0 -74 23 -99 52l28 23c14 -18 30 -32 54 -32
c18 0 35 11 35 31c0 29 -32 40 -55 40c-12 0 -19 -1 -28 -3l-12 18l31 56c-108 11 -179 63 -213 100l97 88c38 -40 96 -72 152 -72c51 0 93 18 93 51c0 30 -27 37 -83 46l-47 8c-124 21 -175 75 -175 155c0 89 74 175 221 175c89 0 169 -30 232 -78z" />
    <glyph glyph-name="Tcommaaccent" unicode="&#x162;" horiz-adv-x="562" 
d="M552 567h-183v-567h-178v567h-184v139h545v-139zM225 -113v77h112v-38c0 -68 -12 -105 -105 -107v35c23 3 34 14 34 33h-41z" />
    <glyph glyph-name="tcommaaccent" unicode="&#x163;" horiz-adv-x="354" 
d="M341 415h-102v-250c0 -35 16 -43 40 -43c11 0 54 1 54 1v-119c-10 -2 -41 -8 -97 -8c-84 0 -149 26 -149 148v272h-76v94h76v163h152v-164h102v-94zM154 -113v77h112v-38c0 -68 -12 -105 -105 -107v35c23 3 34 14 34 33h-41z" />
    <glyph glyph-name="Tcaron" unicode="&#x164;" horiz-adv-x="562" 
d="M552 567h-183v-567h-178v567h-184v139h545v-139zM433 898l-88 -115h-133l-90 115h117l40 -51l39 51h115z" />
    <glyph glyph-name="tcaron" unicode="&#x165;" horiz-adv-x="354" 
d="M341 415h-102v-250c0 -35 16 -43 40 -43c11 0 54 1 54 1v-119c-10 -2 -41 -8 -97 -8c-84 0 -149 26 -149 148v272h-76v94h76v163h152v-164h102v-94zM274 616v90h112v-74c0 -66 -35 -102 -112 -112v40c32 7 46 20 46 56h-46z" />
    <glyph glyph-name="Tbar" unicode="&#x166;" horiz-adv-x="562" 
d="M65 358v119h126v90h-184v139h545v-139h-183v-90h126v-119h-126v-358h-178v358h-126z" />
    <glyph glyph-name="tbar" unicode="&#x167;" horiz-adv-x="354" 
d="M317 343v-80h-78v-98c0 -35 16 -43 40 -43c11 0 54 1 54 1v-119c-10 -2 -41 -8 -97 -8c-84 0 -149 26 -149 148v119h-68v80h68v73h-76v94h76v163h152v-164h102v-94h-102v-72h78z" />
    <glyph glyph-name="Utilde" unicode="&#x168;" horiz-adv-x="729" 
d="M665 706v-427c0 -177 -113 -295 -304 -295c-166 0 -299 88 -299 283v439h178v-459c0 -94 48 -117 127 -117c90 0 121 45 121 126v450h177zM473 902h69c-3 -74 -37 -137 -97 -137c-58 0 -114 50 -153 50c-31 0 -36 -36 -37 -45h-68c2 55 31 135 105 135
c56 0 104 -45 141 -45c30 0 39 34 40 42z" />
    <glyph glyph-name="utilde" unicode="&#x169;" horiz-adv-x="604" 
d="M534 0h-154v49c-14 -20 -66 -64 -152 -64c-115 0 -164 58 -164 187v350h155v-335c0 -35 12 -77 74 -77s88 38 88 86v326h153v-522zM410 720h69c-6 -59 -19 -138 -92 -138c-61 0 -109 46 -153 46c-26 0 -35 -25 -37 -46h-72c10 101 41 142 100 142c60 0 101 -45 145 -45
c11 0 35 3 40 41z" />
    <glyph glyph-name="Umacron" unicode="&#x16a;" horiz-adv-x="729" 
d="M665 706v-427c0 -177 -113 -295 -304 -295c-166 0 -299 88 -299 283v439h178v-459c0 -94 48 -117 127 -117c90 0 121 45 121 126v450h177zM549 778h-369v101h369v-101z" />
    <glyph glyph-name="umacron" unicode="&#x16b;" horiz-adv-x="604" 
d="M534 0h-154v49c-14 -20 -66 -64 -152 -64c-115 0 -164 58 -164 187v350h155v-335c0 -35 12 -77 74 -77s88 38 88 86v326h153v-522zM484 597h-369v101h369v-101z" />
    <glyph glyph-name="Ubreve" unicode="&#x16c;" horiz-adv-x="729" 
d="M665 706v-427c0 -177 -113 -295 -304 -295c-166 0 -299 88 -299 283v439h178v-459c0 -94 48 -117 127 -117c90 0 121 45 121 126v450h177zM422 898h100c-9 -98 -84 -131 -158 -131c-83 0 -149 37 -158 132h101c0 -41 30 -55 56 -55c23 0 59 12 59 54z" />
    <glyph glyph-name="ubreve" unicode="&#x16d;" horiz-adv-x="604" 
d="M534 0h-154v49c-14 -20 -66 -64 -152 -64c-115 0 -164 58 -164 187v350h155v-335c0 -35 12 -77 74 -77s88 38 88 86v326h153v-522zM355 720h101c-11 -99 -67 -149 -154 -149c-76 0 -147 41 -155 149h101c0 -47 26 -61 52 -61s55 13 55 61z" />
    <glyph glyph-name="Uring" unicode="&#x16e;" horiz-adv-x="729" 
d="M665 706v-427c0 -177 -113 -295 -304 -295c-166 0 -299 88 -299 283v439h178v-459c0 -94 48 -117 127 -117c90 0 121 45 121 126v450h177zM266 829c0 54 44 98 98 98s98 -44 98 -98s-44 -98 -98 -98s-98 44 -98 98zM324 829c0 -22 18 -40 40 -40s40 18 40 40
s-18 40 -40 40s-40 -18 -40 -40z" />
    <glyph glyph-name="uring" unicode="&#x16f;" horiz-adv-x="604" 
d="M534 0h-154v49c-14 -20 -66 -64 -152 -64c-115 0 -164 58 -164 187v350h155v-335c0 -35 12 -77 74 -77s88 38 88 86v326h153v-522zM202 655c0 54 44 98 98 98s98 -44 98 -98s-44 -98 -98 -98s-98 44 -98 98zM260 655c0 -22 18 -40 40 -40s40 18 40 40s-18 40 -40 40
s-40 -18 -40 -40z" />
    <glyph glyph-name="Uhungarumlaut" unicode="&#x170;" horiz-adv-x="729" 
d="M665 706v-427c0 -177 -113 -295 -304 -295c-166 0 -299 88 -299 283v439h178v-459c0 -94 48 -117 127 -117c90 0 121 45 121 126v450h177zM428 897l-144 -115h-88l61 115h171zM648 897l-144 -115h-88l61 115h171z" />
    <glyph glyph-name="uhungarumlaut" unicode="&#x171;" horiz-adv-x="604" 
d="M534 0h-154v49c-14 -20 -66 -64 -152 -64c-115 0 -164 58 -164 187v350h155v-335c0 -35 12 -77 74 -77s88 38 88 86v326h153v-522zM384 719l-152 -133h-91l73 133h170zM587 719l-152 -133h-91l73 133h170z" />
    <glyph glyph-name="Uogonek" unicode="&#x172;" horiz-adv-x="729" 
d="M665 706v-427c0 -164 -80 -255 -242 -289c-33 -7 -55 -49 -55 -76c0 -29 23 -41 46 -41c9 0 22 4 39 16l25 -24c-22 -21 -47 -40 -95 -40c-66 0 -95 38 -95 74c0 37 25 62 58 85c-159 5 -284 93 -284 283v439h178v-459c0 -94 48 -117 127 -117c90 0 121 45 121 126v450
h177z" />
    <glyph glyph-name="uogonek" unicode="&#x173;" horiz-adv-x="604" 
d="M380 0v49c-14 -20 -66 -64 -152 -64c-115 0 -164 58 -164 187v350h155v-335c0 -35 12 -77 74 -77s88 38 88 86v326h153v-522h-27c-36 -7 -68 -49 -68 -86c0 -29 23 -41 46 -41c9 0 22 4 39 16l25 -24c-22 -21 -47 -40 -95 -40c-66 0 -95 38 -95 74c0 45 39 74 83 101h-62
z" />
    <glyph glyph-name="Wacute" unicode="&#x1e82;" horiz-adv-x="979" 
d="M977 706l-179 -706h-182l-127 452l-128 -452h-182l-179 706h177l104 -486l128 486h157l132 -486l103 486h176zM641 897l-145 -115h-96l61 115h180z" />
    <glyph glyph-name="wacute" unicode="&#x1e83;" horiz-adv-x="792" 
d="M790 522l-156 -522h-167l-77 348l-78 -348h-169l-143 522h162l73 -365l79 365h164l72 -368l81 368h159zM560 719l-153 -133h-102l73 133h182z" />
    <glyph glyph-name="Wcircumflex" unicode="&#x174;" horiz-adv-x="979" 
d="M977 706l-179 -706h-182l-127 452l-128 -452h-182l-179 706h177l104 -486l128 486h157l132 -486l103 486h176zM644 779h-116l-40 51l-38 -51h-116l89 115h133z" />
    <glyph glyph-name="wcircumflex" unicode="&#x175;" horiz-adv-x="792" 
d="M790 522l-156 -522h-167l-77 348l-78 -348h-169l-143 522h162l73 -365l79 365h164l72 -368l81 368h159zM561 589h-118l-49 62l-46 -63h-118l101 132h127z" />
    <glyph glyph-name="Wdieresis" unicode="&#x1e84;" horiz-adv-x="979" 
d="M977 706l-179 -706h-182l-127 452l-128 -452h-182l-179 706h177l104 -486l128 486h157l132 -486l103 486h176zM681 780h-161v116h161v-116zM458 780h-160v117h160v-117z" />
    <glyph glyph-name="wdieresis" unicode="&#x1e85;" horiz-adv-x="792" 
d="M790 522l-156 -522h-167l-77 348l-78 -348h-169l-143 522h162l73 -365l79 365h164l72 -368l81 368h159zM600 596h-158v124h158v-124zM348 596h-157v124h157v-124z" />
    <glyph glyph-name="Wgrave" unicode="&#x1e80;" horiz-adv-x="979" 
d="M977 706l-179 -706h-182l-127 452l-128 -452h-182l-179 706h177l104 -486l128 486h157l132 -486l103 486h176zM572 782h-101l-146 116h183z" />
    <glyph glyph-name="wgrave" unicode="&#x1e81;" horiz-adv-x="792" 
d="M790 522l-156 -522h-167l-77 348l-78 -348h-169l-143 522h162l73 -365l79 365h164l72 -368l81 368h159zM492 587h-101l-158 133h185z" />
    <glyph glyph-name="Ycircumflex" unicode="&#x176;" horiz-adv-x="708" 
d="M708 706l-267 -372v-334h-174v329l-265 377h202l152 -239l151 239h201zM509 779h-116l-40 51l-38 -51h-116l89 115h133z" />
    <glyph glyph-name="ycircumflex" unicode="&#x177;" horiz-adv-x="500" 
d="M336 522h164l-184 -564c-12 -37 -24 -69 -51 -98c-32 -34 -63 -40 -109 -40h-111v123h66c42 0 52 20 52 38c0 14 -3 25 -11 50l-152 491h164l86 -374zM415 589h-118l-49 62l-46 -63h-118l101 132h127z" />
    <glyph glyph-name="Ygrave" unicode="&#x1ef2;" horiz-adv-x="708" 
d="M708 706l-267 -372v-334h-174v329l-265 377h202l152 -239l151 239h201zM444 782h-101l-146 116h183z" />
    <glyph glyph-name="ygrave" unicode="&#x1ef3;" horiz-adv-x="500" 
d="M336 522h164l-184 -564c-12 -37 -24 -69 -51 -98c-32 -34 -63 -40 -109 -40h-111v123h66c42 0 52 20 52 38c0 14 -3 25 -11 50l-152 491h164l86 -374zM326 587h-101l-158 133h185z" />
    <glyph glyph-name="Zacute" unicode="&#x179;" horiz-adv-x="625" 
d="M608 568l-385 -429h383v-139h-601v133l391 436h-358v137h570v-138zM483 897l-145 -115h-96l61 115h180z" />
    <glyph glyph-name="zacute" unicode="&#x17a;" horiz-adv-x="542" 
d="M511 0h-477v115l282 289h-252v118h447v-118l-278 -285h278v-119zM457 719l-153 -133h-102l73 133h182z" />
    <glyph glyph-name="Zdotaccent" unicode="&#x17b;" horiz-adv-x="625" 
d="M608 568l-385 -429h383v-139h-601v133l391 436h-358v137h570v-138zM402 767h-160v132h160v-132z" />
    <glyph glyph-name="zdotaccent" unicode="&#x17c;" horiz-adv-x="542" 
d="M511 0h-477v115l282 289h-252v118h447v-118l-278 -285h278v-119zM368 590h-157v132h157v-132z" />
    <glyph glyph-name="longs" unicode="&#x17f;" horiz-adv-x="328" 
d="M10 510h82v75c0 90 67 132 157 132c36 0 86 -8 92 -9v-116h-28c-64 0 -68 -9 -68 -55v-537h-153v416h-82v94z" />
    <glyph glyph-name="Aringacute" unicode="&#x1fa;" horiz-adv-x="708" 
d="M513 998l-145 -100h-96l61 100h180zM705 0h-188l-35 113h-260l-35 -113h-188l262 706h184zM442 240l-92 298l-87 -298h179zM273 806c0 41 34 75 76 75s76 -34 76 -75c0 -42 -34 -75 -76 -75s-76 33 -76 75zM324 806c0 -15 10 -25 25 -25s25 10 25 25s-10 26 -25 26
s-25 -11 -25 -26z" />
    <glyph glyph-name="aringacute" unicode="&#x1fb;" horiz-adv-x="583" 
d="M471 883l-161 -109h-102l81 109h182zM526 0h-151v47c-41 -27 -80 -61 -160 -61c-119 0 -171 84 -171 159c0 65 45 123 110 150c36 15 91 26 206 48v29c0 18 -3 63 -59 63c-65 0 -77 -38 -81 -61h-154c0 115 106 162 220 162c90 0 225 -24 225 -150v-305
c0 -45 2 -62 15 -81zM360 250l-99 -33c-53 -17 -66 -42 -66 -65c0 -18 15 -53 59 -53c60 0 106 54 106 128v23zM191 655c0 54 44 98 98 98s98 -44 98 -98s-44 -98 -98 -98s-98 44 -98 98zM249 655c0 -22 18 -40 40 -40s40 18 40 40s-18 40 -40 40s-40 -18 -40 -40z" />
    <glyph glyph-name="AEacute" unicode="&#x1fc;" horiz-adv-x="1125" 
d="M1106 0h-571v171h-247l-95 -171h-198l417 706h660v-134h-361v-131h337v-135h-336v-168h394v-138zM535 301v316l-176 -316h176zM877 897l-145 -115h-96l61 115h180z" />
    <glyph glyph-name="aeacute" unicode="&#x1fd;" horiz-adv-x="875" 
d="M735 195l119 -60c-44 -88 -143 -147 -242 -147c-76 0 -146 33 -188 79c-51 -51 -132 -80 -205 -80c-82 0 -194 43 -194 169c0 96 59 150 185 172c47 8 96 12 141 23c0 50 -11 81 -76 81c-36 0 -72 -11 -72 -57h-157c7 100 67 164 203 164c77 0 126 -16 187 -56
c46 33 79 56 162 56c174 0 255 -137 255 -302h-349c0 -67 51 -128 117 -128c76 0 105 71 114 86zM505 332h188c-2 18 -14 97 -92 97c-74 0 -91 -64 -96 -97zM350 238v21c-45 -22 -173 -21 -173 -98c0 -54 48 -58 67 -58c76 0 106 70 106 135zM596 719l-153 -133h-102l73 133
h182z" />
    <glyph glyph-name="Oslashacute" unicode="&#x1fe;" horiz-adv-x="771" 
d="M718 708l54 -59l-94 -86c16 -27 53 -86 53 -207c0 -220 -139 -376 -348 -376c-134 0 -210 72 -239 99l-93 -85l-54 60l97 88c-14 26 -56 80 -56 213c0 183 115 372 353 372c115 0 174 -44 238 -100zM220 257l293 267c-52 57 -96 62 -124 62c-26 0 -74 -3 -118 -48
c-60 -61 -62 -143 -62 -176c0 -34 1 -56 11 -105zM550 447l-290 -264c27 -40 92 -59 134 -59c97 0 171 94 171 223c0 46 -10 84 -15 100zM550 897l-145 -115h-96l61 115h180z" />
    <glyph glyph-name="oslashacute" unicode="&#x1ff;" horiz-adv-x="625" 
d="M571 541l40 -46l-74 -68c50 -75 55 -129 55 -171c0 -128 -87 -270 -280 -270c-34 0 -116 3 -185 67l-76 -69l-41 46l75 69c-10 16 -52 66 -52 167c0 128 75 272 273 272c113 0 169 -48 190 -65zM191 195l208 190c-22 22 -51 36 -89 36c-71 0 -128 -51 -128 -158
c0 -36 4 -52 9 -68zM431 331l-207 -190c15 -16 36 -37 89 -37c95 0 127 82 127 161c0 18 -1 33 -9 66zM486 719l-153 -133h-102l73 133h182z" />
    <glyph glyph-name="Scommaaccent" unicode="&#x218;" horiz-adv-x="688" 
d="M644 589l-130 -93c-51 53 -109 88 -185 88c-72 0 -105 -42 -105 -75c0 -38 30 -56 90 -65l78 -11c184 -26 260 -82 260 -203c0 -149 -119 -246 -321 -246c-165 0 -250 59 -322 143l134 85c47 -57 128 -89 204 -89c52 0 130 23 130 82c0 50 -60 64 -123 72l-81 11
c-124 17 -225 75 -225 199c0 139 103 236 285 236c149 0 242 -68 311 -134zM286 -113v77h112v-38c0 -68 -12 -105 -105 -107v35c23 3 34 14 34 33h-41z" />
    <glyph glyph-name="scommaaccent" unicode="&#x219;" horiz-adv-x="521" 
d="M488 461l-95 -88c-34 28 -84 52 -133 52c-33 0 -72 -11 -72 -40c0 -25 24 -33 85 -45l37 -7c113 -21 188 -67 188 -164c0 -130 -138 -182 -247 -182c-130 0 -215 60 -253 101l97 88c38 -40 96 -72 152 -72c51 0 93 18 93 51c0 29 -27 37 -83 46l-47 8
c-124 21 -175 75 -175 155c0 89 74 175 221 175c89 0 169 -30 232 -78zM206 -113v77h112v-38c0 -68 -12 -105 -105 -107v35c23 3 34 14 34 33h-41z" />
    <glyph glyph-name="uni021A" unicode="&#x21a;" horiz-adv-x="562" 
d="M552 567h-183v-567h-178v567h-184v139h545v-139zM225 -113v77h112v-38c0 -68 -12 -105 -105 -107v35c23 3 34 14 34 33h-41z" />
    <glyph glyph-name="uni021B" unicode="&#x21b;" horiz-adv-x="354" 
d="M341 415h-102v-250c0 -35 16 -43 40 -43c11 0 54 1 54 1v-119c-10 -2 -41 -8 -97 -8c-84 0 -149 26 -149 148v272h-76v94h76v163h152v-164h102v-94zM154 -113v77h112v-38c0 -68 -12 -105 -105 -107v35c23 3 34 14 34 33h-41z" />
    <glyph glyph-name="uniF6C1" unicode="&#xf6c1;" horiz-adv-x="688" 
d="M644 589l-130 -93c-51 53 -109 88 -185 88c-72 0 -105 -42 -105 -75c0 -36 30 -56 90 -65l78 -11c184 -26 260 -82 260 -203c0 -147 -114 -243 -312 -246l-19 -37c13 2 25 3 39 3c60 0 76 -39 76 -65c0 -50 -51 -82 -96 -82c-41 0 -73 23 -99 52l28 23
c14 -17 30 -32 54 -32c18 0 35 11 35 31c0 29 -32 40 -55 40c-12 0 -19 -2 -28 -3l-12 18l29 53c-140 9 -217 65 -283 142l134 85c47 -57 128 -89 204 -89c52 0 130 23 130 82c0 52 -60 64 -123 72l-81 11c-124 17 -225 75 -225 199c0 139 103 236 285 236
c149 0 242 -68 311 -134z" />
    <glyph glyph-name="uniF6C2" unicode="&#xf6c2;" horiz-adv-x="521" 
d="M488 461l-95 -88c-34 28 -84 52 -133 52c-33 0 -72 -11 -72 -40c0 -25 24 -33 85 -45l37 -7c113 -21 188 -67 188 -164c0 -128 -133 -181 -241 -183l-19 -39c13 2 25 3 39 3c60 0 76 -39 76 -65c0 -50 -51 -82 -96 -82c-41 0 -74 23 -99 52l28 23c14 -18 30 -32 54 -32
c18 0 35 11 35 31c0 29 -32 40 -55 40c-12 0 -19 -1 -28 -3l-12 18l31 56c-108 11 -179 63 -213 100l97 88c38 -40 96 -72 152 -72c51 0 93 18 93 51c0 30 -27 37 -83 46l-47 8c-124 21 -175 75 -175 155c0 89 74 175 221 175c89 0 169 -30 232 -78z" />
    <glyph glyph-name="i.dot" horiz-adv-x="292" 
d="M222 587h-153v119h153v-119zM222 0h-153v522h153v-522z" />
    <glyph glyph-name="zero.numerator" horiz-adv-x="381" 
d="M363 459c0 -146 -64 -231 -173 -231c-106 0 -166 82 -166 228c0 147 62 231 170 231c105 0 169 -86 169 -228zM257 459c0 93 -22 143 -64 143c-43 0 -64 -51 -64 -153c0 -92 21 -137 65 -137c43 0 63 46 63 147z" />
    <glyph glyph-name="one.numerator" 
d="M265 677v-442h-110v317c-23 -7 -46 -12 -93 -12h-14v73c77 1 107 18 132 64h85z" />
    <glyph glyph-name="two.numerator" 
d="M336 235h-308v82c36 29 127 98 161 142c22 29 32 59 32 89c0 23 -10 56 -44 56c-35 0 -47 -36 -47 -61c0 -12 4 -30 4 -31l-110 6v4c0 41 3 166 149 166c128 0 160 -88 160 -146c0 -95 -76 -156 -161 -219h164v-88z" />
    <glyph glyph-name="three.numerator" 
d="M156 431v80c6 -1 14 -2 21 -2c24 0 50 11 50 48c0 31 -21 48 -46 48c-26 0 -43 -17 -43 -55v-10l-107 10c10 60 30 138 159 138c104 0 144 -61 144 -117c0 -37 -16 -81 -68 -98c66 -19 82 -66 82 -104c0 -61 -41 -141 -166 -141c-134 0 -160 81 -160 146v16l106 8
c-1 -7 -1 -12 -1 -20c0 -47 31 -66 54 -66c35 0 56 28 56 60c0 26 -14 59 -67 59h-14z" />
    <glyph glyph-name="four.numerator" 
d="M360 333h-59v-98h-106v98h-182v84l185 259h104v-265h58v-78zM195 411v150c-34 -57 -60 -96 -99 -150h99z" />
    <glyph glyph-name="five.numerator" 
d="M66 676h266l-6 -83h-175l-12 -81c25 18 45 24 74 24c82 0 139 -59 139 -146c0 -96 -71 -162 -174 -162c-80 0 -151 36 -158 148c50 1 108 3 108 3c2 -50 18 -71 55 -71c38 0 59 27 59 78c0 49 -23 79 -61 79c-24 0 -38 -10 -48 -34l-95 15z" />
    <glyph glyph-name="six.numerator" 
d="M129 468c23 35 54 52 101 52c77 0 129 -55 129 -137c0 -93 -67 -155 -165 -155c-111 0 -170 77 -170 221c0 159 60 238 180 238c82 0 127 -37 146 -120l-111 -12c-4 36 -16 50 -43 50c-46 0 -65 -41 -67 -137zM253 378c0 42 -21 67 -56 67c-33 0 -55 -27 -55 -68
c0 -44 20 -69 55 -69c36 0 56 25 56 70z" />
    <glyph glyph-name="seven.numerator" 
d="M31 677h313v-80c-106 -141 -123 -205 -154 -362h-123c24 139 81 260 166 354h-202v88z" />
    <glyph glyph-name="eight.numerator" 
d="M104 469c-46 24 -67 56 -67 101c0 71 61 118 152 118s149 -47 149 -123c0 -41 -16 -71 -68 -96c62 -18 88 -59 88 -106c0 -81 -68 -135 -170 -135c-103 0 -170 53 -170 133c0 50 28 90 86 108zM234 552c0 34 -17 55 -46 55s-45 -18 -45 -49c0 -34 17 -55 45 -55
c29 0 46 18 46 49zM243 371c0 39 -21 63 -55 63c-33 0 -56 -25 -56 -63c0 -37 21 -59 56 -59s55 21 55 59z" />
    <glyph glyph-name="nine.numerator" 
d="M248 447c-23 -35 -54 -52 -101 -52c-77 0 -129 55 -129 137c0 93 67 155 165 155c111 0 170 -77 170 -221c0 -159 -60 -238 -180 -238c-82 0 -127 37 -146 120l111 12c4 -36 16 -50 43 -50c45 0 65 41 67 137zM124 537c0 -42 21 -67 56 -67c33 0 55 27 55 68
c0 44 -20 69 -55 69c-36 0 -56 -25 -56 -70z" />
    <glyph glyph-name="period.numerator" horiz-adv-x="172" 
d="M141 235h-110v118h110v-118z" />
    <glyph glyph-name="comma.numerator" horiz-adv-x="172" 
d="M31 353h110v-99c0 -73 -41 -120 -109 -130v55c28 9 37 27 37 56h-38v118z" />
    <glyph glyph-name="hyphen.numerator" horiz-adv-x="247" 
d="M220 403h-193v97h193v-97z" />
    <glyph glyph-name="parenleft.numerator" horiz-adv-x="228" 
d="M226 178l-40 -48c-101 72 -161 170 -161 298c0 122 60 232 158 305l42 -41c-62 -72 -101 -150 -101 -257c0 -110 44 -199 102 -257z" />
    <glyph glyph-name="parenright.numerator" horiz-adv-x="228" 
d="M2 685l40 48c101 -72 161 -170 161 -298c0 -122 -60 -232 -158 -305l-42 41c62 72 100 150 100 257c0 110 -43 199 -101 257z" />
    <glyph glyph-name="dollar.numerator" horiz-adv-x="414" 
d="M185 160v75c-80 7 -124 28 -169 57l59 74c15 -8 56 -40 110 -43v90c-58 10 -151 30 -151 124c0 111 99 133 150 135v71h58v-71c66 -7 116 -37 139 -51l-56 -73c-27 19 -61 35 -83 37v-78c88 -16 154 -45 154 -131c0 -79 -57 -136 -154 -141v-75h-57zM185 516v69
c-31 -2 -48 -15 -48 -34s9 -28 48 -35zM242 406v-82c30 1 51 14 51 43c0 24 -21 36 -51 39z" />
    <glyph glyph-name="cent.numerator" horiz-adv-x="359" 
d="M273 366l79 -39c-17 -39 -52 -84 -118 -92v-77h-56v76c-106 15 -151 82 -151 167c0 115 78 172 151 175v72h57v-73c63 -8 92 -42 116 -82l-81 -43c-9 20 -18 36 -35 41v-170c15 5 28 18 38 45zM178 322v169c-31 -9 -49 -39 -49 -86c0 -48 20 -73 49 -83z" />
    <glyph glyph-name="sterling.numerator" horiz-adv-x="433" 
d="M324 390l101 -7c-1 -55 -7 -155 -98 -155c-44 0 -72 21 -105 47c-23 -32 -69 -47 -111 -47c-54 0 -101 24 -101 81c0 44 31 81 102 81c15 0 36 -4 50 -11c-10 22 -20 37 -33 51h-92v63h50c-5 7 -23 39 -23 76c0 61 52 117 169 117c115 0 166 -54 169 -148l-105 -7
c0 62 -26 76 -61 76c-47 0 -62 -22 -62 -50c0 -21 16 -45 29 -64h103v-63h-61c6 -12 14 -32 14 -56c0 -8 -1 -17 -2 -27c18 -14 33 -21 40 -21c16 0 26 7 27 64zM156 322c-10 6 -22 13 -41 13c-22 0 -33 -10 -33 -26c0 -15 14 -23 27 -23c28 0 43 21 47 36z" />
    <glyph glyph-name="yen.numerator" horiz-adv-x="477" 
d="M471 676l-122 -162h66v-56h-109l-14 -19v-15h123v-56h-123v-132h-109v132h-122v56h122v12l-17 22h-105v56h64l-119 162h134l101 -156l99 156h131z" />
    <glyph glyph-name="florin.numerator" horiz-adv-x="273" 
d="M266 679l-8 -78c-11 3 -23 4 -33 4c-22 0 -32 -10 -35 -38l-2 -19h62l-7 -63h-61l-26 -233c-9 -86 -33 -118 -107 -118c-19 0 -42 2 -67 7l6 78c11 -2 24 -4 30 -4c26 0 36 6 42 67l21 203h-45l7 63h45l7 55c6 43 32 83 104 83c25 0 48 -3 67 -7z" />
    <glyph glyph-name="Euro.numerator" horiz-adv-x="442" 
d="M437 631l-38 -88c-28 32 -63 50 -104 50c-50 0 -83 -18 -98 -65h196l-23 -56h-183c-1 -12 -1 -30 -1 -34h175l-22 -56h-145c16 -49 61 -64 118 -64c39 0 82 18 105 49v-111c-38 -20 -81 -26 -124 -26c-110 0 -188 57 -210 152h-54l23 56h24c0 8 0 29 1 34h-48l24 56h33
c29 108 108 151 213 151c44 0 97 -13 138 -48z" />
    <glyph glyph-name="zero.denominator" 
d="M357 224c0 -146 -64 -231 -173 -231c-106 0 -166 82 -166 228c0 147 62 231 170 231c105 0 169 -86 169 -228zM251 224c0 93 -22 143 -64 143c-43 0 -64 -51 -64 -153c0 -92 21 -137 65 -137c43 0 63 46 63 147z" />
    <glyph glyph-name="one.denominator" 
d="M265 442v-442h-110v317c-23 -7 -46 -12 -93 -12h-14v73c77 1 107 18 132 64h85z" />
    <glyph glyph-name="two.denominator" 
d="M336 0h-308v82c36 29 127 98 161 142c22 29 32 59 32 89c0 23 -10 56 -44 56c-35 0 -47 -36 -47 -61c0 -12 4 -30 4 -31l-110 6v4c0 41 3 166 149 166c128 0 160 -88 160 -146c0 -95 -76 -156 -161 -219h164v-88z" />
    <glyph glyph-name="three.denominator" 
d="M156 196v80c6 -1 14 -2 21 -2c24 0 50 11 50 48c0 31 -21 48 -46 48c-26 0 -43 -17 -43 -55v-10l-107 10c10 60 30 138 159 138c104 0 144 -61 144 -117c0 -37 -16 -81 -68 -98c66 -19 82 -66 82 -104c0 -61 -41 -141 -166 -141c-134 0 -160 81 -160 146v16l106 8
c-1 -7 -1 -12 -1 -20c0 -47 31 -66 54 -66c35 0 56 28 56 60c0 26 -14 59 -67 59h-14z" />
    <glyph glyph-name="four.denominator" 
d="M360 98h-59v-98h-106v98h-182v84l185 259h104v-265h58v-78zM195 176v150c-34 -57 -60 -96 -99 -150h99z" />
    <glyph glyph-name="five.denominator" 
d="M332 441l-6 -83h-175l-12 -81c25 18 45 24 74 24c82 0 139 -59 139 -146c0 -96 -71 -162 -174 -162c-77 0 -152 37 -158 148c41 1 108 3 108 3c2 -50 18 -71 55 -71c38 0 59 27 59 78c0 49 -23 79 -61 79c-24 0 -38 -10 -48 -34l-95 15l28 230h266z" />
    <glyph glyph-name="six.denominator" 
d="M129 233c23 35 54 52 101 52c77 0 129 -55 129 -137c0 -93 -67 -155 -165 -155c-111 0 -170 77 -170 221c0 159 60 238 180 238c82 0 127 -37 146 -120l-111 -12c-4 36 -16 50 -43 50c-46 0 -65 -41 -67 -137zM253 143c0 42 -21 67 -56 67c-33 0 -55 -27 -55 -68
c0 -44 20 -69 55 -69c36 0 56 25 56 70z" />
    <glyph glyph-name="seven.denominator" 
d="M31 442h313v-80c-106 -141 -123 -205 -154 -362h-123c24 139 81 260 166 354h-202v88z" />
    <glyph glyph-name="eight.denominator" 
d="M104 234c-46 24 -67 56 -67 101c0 71 61 118 152 118s149 -47 149 -123c0 -41 -16 -71 -68 -96c62 -18 88 -59 88 -106c0 -81 -68 -135 -170 -135c-103 0 -170 53 -170 133c0 50 28 90 86 108zM234 317c0 34 -17 55 -46 55s-45 -18 -45 -49c0 -34 17 -55 45 -55
c29 0 46 18 46 49zM243 136c0 39 -21 63 -55 63c-33 0 -56 -25 -56 -63c0 -37 21 -59 56 -59s55 21 55 59z" />
    <glyph glyph-name="nine.denominator" 
d="M248 212c-23 -35 -54 -52 -101 -52c-77 0 -129 55 -129 137c0 93 67 155 165 155c111 0 170 -77 170 -221c0 -159 -60 -238 -180 -238c-82 0 -127 37 -146 120l111 12c4 -36 16 -50 43 -50c45 0 65 41 67 137zM124 302c0 -42 21 -67 56 -67c33 0 55 27 55 68
c0 44 -20 69 -55 69c-36 0 -56 -25 -56 -70z" />
    <glyph glyph-name="period.denominator" horiz-adv-x="172" 
d="M141 0h-110v118h110v-118z" />
    <glyph glyph-name="comma.denominator" horiz-adv-x="172" 
d="M31 118h110v-99c0 -73 -41 -120 -109 -130v55c28 9 37 27 37 56h-38v118z" />
    <glyph glyph-name="hyphen.denominator" horiz-adv-x="247" 
d="M220 168h-193v97h193v-97z" />
    <glyph glyph-name="parenleft.denominator" horiz-adv-x="228" 
d="M226 -57l-40 -48c-101 72 -161 170 -161 298c0 122 60 232 158 305l42 -41c-62 -72 -101 -150 -101 -257c0 -110 44 -199 102 -257z" />
    <glyph glyph-name="parenright.denominator" horiz-adv-x="228" 
d="M2 450l40 48c101 -72 161 -170 161 -298c0 -122 -60 -232 -158 -305l-42 41c62 72 100 150 100 257c0 110 -43 199 -101 257z" />
    <glyph glyph-name="dollar.denominator" horiz-adv-x="414" 
d="M185 -75v75c-80 7 -124 28 -169 57l59 74c15 -8 56 -40 110 -43v90c-58 10 -151 30 -151 124c0 111 99 133 150 135v71h58v-71c66 -7 116 -37 139 -51l-56 -73c-27 19 -61 35 -83 37v-78c88 -16 154 -45 154 -131c0 -79 -57 -136 -154 -141v-75h-57zM185 281v69
c-31 -2 -48 -15 -48 -34s9 -28 48 -35zM242 171v-82c30 1 51 14 51 43c0 24 -21 36 -51 39z" />
    <glyph glyph-name="cent.denominator" horiz-adv-x="359" 
d="M273 131l79 -39c-17 -39 -52 -84 -118 -92v-77h-56v76c-106 15 -151 82 -151 167c0 115 78 172 151 175v72h57v-73c63 -8 92 -42 116 -82l-81 -43c-9 20 -18 36 -35 41v-170c15 5 28 18 38 45zM178 87v169c-31 -9 -49 -39 -49 -86c0 -48 20 -73 49 -83z" />
    <glyph glyph-name="sterling.denominator" horiz-adv-x="433" 
d="M324 155l101 -7c-1 -55 -7 -155 -98 -155c-44 0 -72 21 -105 47c-23 -32 -69 -47 -111 -47c-54 0 -101 24 -101 81c0 44 31 81 102 81c15 0 36 -4 50 -11c-10 22 -20 37 -33 51h-92v63h50c-5 7 -23 39 -23 76c0 61 52 117 169 117c115 0 166 -54 169 -148l-105 -7
c0 62 -26 76 -61 76c-47 0 -62 -22 -62 -50c0 -21 16 -45 29 -64h103v-63h-61c6 -12 14 -32 14 -56c0 -8 -1 -17 -2 -27c18 -14 33 -21 40 -21c16 0 26 7 27 64zM156 87c-10 6 -22 13 -41 13c-22 0 -33 -10 -33 -26c0 -15 14 -23 27 -23c28 0 43 21 47 36z" />
    <glyph glyph-name="yen.denominator" horiz-adv-x="477" 
d="M471 441l-122 -162h66v-56h-109l-14 -19v-15h123v-56h-123v-132h-109v132h-122v56h122v12l-17 22h-105v56h64l-119 162h134l101 -156l99 156h131z" />
    <glyph glyph-name="florin.denominator" horiz-adv-x="273" 
d="M266 444l-8 -78c-11 3 -23 4 -33 4c-22 0 -32 -10 -35 -38l-2 -19h62l-7 -63h-61l-26 -233c-9 -86 -33 -118 -107 -118c-19 0 -42 2 -67 7l6 78c11 -2 24 -4 30 -4c26 0 36 6 42 67l21 203h-45l7 63h45l7 55c6 43 32 83 104 83c25 0 48 -3 67 -7z" />
    <glyph glyph-name="Euro.denominator" horiz-adv-x="442" 
d="M436 396l-38 -88c-28 32 -63 50 -104 50c-50 0 -83 -18 -98 -65h196l-23 -56h-183c-1 -12 -1 -30 -1 -34h175l-22 -56h-145c16 -49 61 -64 118 -64c39 0 82 18 105 49v-111c-38 -20 -81 -26 -124 -26c-110 0 -188 57 -210 152h-54l23 56h24c0 8 0 29 1 34h-48l24 56h33
c29 108 108 151 213 151c44 0 97 -13 138 -48z" />
    <glyph glyph-name="zero.superior" unicode="&#x2070;" 
d="M357 649c0 -146 -64 -231 -173 -231c-106 0 -166 82 -166 228c0 147 62 231 170 231c105 0 169 -86 169 -228zM251 649c0 93 -22 143 -64 143c-43 0 -64 -51 -64 -153c0 -92 21 -137 65 -137c43 0 63 46 63 147z" />
    <glyph glyph-name="one.superior" 
d="M265 867v-442h-110v317c-23 -7 -46 -12 -93 -12h-14v73c77 1 107 18 132 64h85z" />
    <glyph glyph-name="two.superior" 
d="M336 425h-308v82c36 29 127 98 161 142c22 29 32 59 32 89c0 23 -10 56 -44 56c-35 0 -47 -36 -47 -61c0 -12 4 -30 4 -31l-110 6v4c0 41 3 166 149 166c128 0 160 -88 160 -146c0 -95 -76 -156 -161 -219h164v-88z" />
    <glyph glyph-name="three.superior" 
d="M156 621v80c6 -1 14 -2 21 -2c24 0 50 11 50 48c0 31 -21 48 -46 48c-26 0 -43 -17 -43 -55v-10l-107 10c10 60 30 138 159 138c104 0 144 -61 144 -117c0 -37 -16 -81 -68 -98c66 -19 82 -66 82 -104c0 -61 -41 -141 -166 -141c-134 0 -160 81 -160 146v16l106 8
c-1 -7 -1 -12 -1 -20c0 -47 31 -66 54 -66c35 0 56 28 56 60c0 26 -14 59 -67 59h-14z" />
    <glyph glyph-name="four.superior" unicode="&#x2074;" 
d="M360 523h-59v-98h-106v98h-182v84l185 259h104v-265h58v-78zM195 601v150c-34 -57 -60 -96 -99 -150h99z" />
    <glyph glyph-name="five.superior" unicode="&#x2075;" 
d="M66 866h266l-6 -83h-175l-12 -81c25 18 45 24 74 24c82 0 139 -59 139 -146c0 -96 -71 -162 -174 -162c-80 0 -151 36 -158 148c50 1 108 3 108 3c2 -50 18 -71 55 -71c38 0 59 27 59 78c0 49 -23 79 -61 79c-24 0 -38 -10 -48 -34l-95 15z" />
    <glyph glyph-name="six.superior" unicode="&#x2076;" 
d="M129 658c23 35 54 52 101 52c77 0 129 -55 129 -137c0 -93 -67 -155 -165 -155c-111 0 -170 77 -170 221c0 159 60 238 180 238c82 0 127 -37 146 -120l-111 -12c-4 36 -16 50 -43 50c-46 0 -65 -41 -67 -137zM253 568c0 42 -21 67 -56 67c-33 0 -55 -27 -55 -68
c0 -44 20 -69 55 -69c36 0 56 25 56 70z" />
    <glyph glyph-name="seven.superior" unicode="&#x2077;" 
d="M31 867h313v-80c-106 -141 -123 -205 -154 -362h-123c24 139 81 260 166 354h-202v88z" />
    <glyph glyph-name="eight.superior" unicode="&#x2078;" 
d="M104 659c-46 24 -67 56 -67 101c0 71 61 118 152 118s149 -47 149 -123c0 -41 -16 -71 -68 -96c62 -18 88 -59 88 -106c0 -81 -68 -135 -170 -135c-103 0 -170 53 -170 133c0 50 28 90 86 108zM234 742c0 34 -17 55 -46 55s-45 -18 -45 -49c0 -34 17 -55 45 -55
c29 0 46 18 46 49zM243 561c0 39 -21 63 -55 63c-33 0 -56 -25 -56 -63c0 -37 21 -59 56 -59s55 21 55 59z" />
    <glyph glyph-name="nine.superior" unicode="&#x2079;" 
d="M248 637c-23 -35 -54 -52 -101 -52c-77 0 -129 55 -129 137c0 93 67 155 165 155c111 0 170 -77 170 -221c0 -159 -60 -238 -180 -238c-82 0 -127 37 -146 120l111 12c4 -36 16 -50 43 -50c45 0 65 41 67 137zM124 727c0 -42 21 -67 56 -67c33 0 55 27 55 68
c0 44 -20 69 -55 69c-36 0 -56 -25 -56 -70z" />
    <glyph glyph-name="period.superior" horiz-adv-x="172" 
d="M141 425h-110v118h110v-118z" />
    <glyph glyph-name="comma.superior" horiz-adv-x="172" 
d="M31 543h110v-99c0 -73 -41 -120 -109 -130v55c28 9 37 27 37 56h-38v118z" />
    <glyph glyph-name="hyphen.superior" horiz-adv-x="247" 
d="M220 593h-193v97h193v-97z" />
    <glyph glyph-name="parenleft.superior" unicode="&#x207d;" horiz-adv-x="228" 
d="M226 368l-40 -48c-101 72 -161 170 -161 298c0 122 60 232 158 305l42 -41c-62 -72 -101 -150 -101 -257c0 -110 44 -199 102 -257z" />
    <glyph glyph-name="parenright.superior" unicode="&#x207e;" horiz-adv-x="228" 
d="M2 875l40 48c101 -72 161 -170 161 -298c0 -122 -60 -232 -158 -305l-42 41c62 72 100 150 100 257c0 110 -43 199 -101 257z" />
    <glyph glyph-name="dollar.superior" horiz-adv-x="414" 
d="M185 350v75c-80 7 -124 28 -169 57l59 74c15 -8 56 -40 110 -43v90c-58 10 -151 30 -151 124c0 111 99 133 150 135v71h58v-71c66 -7 116 -37 139 -51l-56 -73c-27 19 -61 35 -83 37v-78c88 -16 154 -45 154 -131c0 -79 -57 -136 -154 -141v-75h-57zM185 706v69
c-31 -2 -48 -15 -48 -34s9 -28 48 -35zM242 596v-82c30 1 51 14 51 43c0 24 -21 36 -51 39z" />
    <glyph glyph-name="cent.superior" horiz-adv-x="359" 
d="M273 556l79 -39c-17 -39 -52 -84 -118 -92v-77h-56v76c-106 15 -151 82 -151 167c0 115 78 172 151 175v72h57v-73c63 -8 92 -42 116 -82l-81 -43c-9 20 -18 36 -35 41v-170c15 5 28 18 38 45zM178 512v169c-31 -9 -49 -39 -49 -86c0 -48 20 -73 49 -83z" />
    <glyph glyph-name="sterling.superior" horiz-adv-x="433" 
d="M324 580l101 -7c-1 -55 -7 -155 -98 -155c-44 0 -72 21 -105 47c-23 -32 -69 -47 -111 -47c-54 0 -101 24 -101 81c0 44 31 81 102 81c15 0 36 -4 50 -11c-10 22 -20 37 -33 51h-92v63h50c-5 7 -23 39 -23 76c0 61 52 117 169 117c115 0 166 -54 169 -148l-105 -7
c0 62 -26 76 -61 76c-47 0 -62 -22 -62 -50c0 -21 16 -45 29 -64h103v-63h-61c6 -12 14 -32 14 -56c0 -8 -1 -17 -2 -27c18 -14 33 -21 40 -21c16 0 26 7 27 64zM156 512c-10 6 -22 13 -41 13c-22 0 -33 -10 -33 -26c0 -15 14 -23 27 -23c28 0 43 21 47 36z" />
    <glyph glyph-name="yen.superior" horiz-adv-x="477" 
d="M471 866l-122 -162h66v-56h-109l-14 -19v-15h123v-56h-123v-132h-109v132h-122v56h122v12l-17 22h-105v56h64l-119 162h134l101 -156l99 156h131z" />
    <glyph glyph-name="florin.superior" horiz-adv-x="273" 
d="M266 869l-8 -78c-11 3 -23 4 -33 4c-22 0 -32 -10 -35 -38l-2 -19h62l-7 -63h-61l-26 -233c-9 -86 -33 -118 -107 -118c-19 0 -42 2 -67 7l6 78c11 -2 24 -4 30 -4c26 0 36 6 42 67l21 203h-45l7 63h45l7 55c6 43 32 83 104 83c25 0 48 -3 67 -7z" />
    <glyph glyph-name="Euro.superior" horiz-adv-x="442" 
d="M437 821l-38 -88c-28 32 -63 50 -104 50c-50 0 -83 -18 -98 -65h196l-23 -56h-183c-1 -12 -1 -30 -1 -34h175l-22 -56h-145c16 -49 61 -64 118 -64c39 0 82 18 105 49v-111c-38 -20 -81 -26 -124 -26c-110 0 -188 57 -210 152h-54l23 56h24c0 8 0 29 1 34h-48l24 56h33
c29 108 108 151 213 151c44 0 97 -13 138 -48z" />
    <glyph glyph-name="zero.inferior" unicode="&#x2080;" 
d="M357 59c0 -146 -64 -231 -173 -231c-106 0 -166 82 -166 228c0 147 62 231 170 231c105 0 169 -86 169 -228zM251 59c0 93 -22 143 -64 143c-43 0 -64 -51 -64 -153c0 -92 21 -137 65 -137c43 0 63 46 63 147z" />
    <glyph glyph-name="one.inferior" unicode="&#x2081;" 
d="M265 277v-442h-110v317c-23 -7 -46 -12 -93 -12h-14v73c77 1 107 18 132 64h85z" />
    <glyph glyph-name="two.inferior" unicode="&#x2082;" 
d="M336 -165h-308v82c36 29 127 98 161 142c22 29 32 59 32 89c0 23 -10 56 -44 56c-35 0 -47 -36 -47 -61c0 -12 4 -30 4 -31l-110 6v4c0 41 3 166 149 166c128 0 160 -88 160 -146c0 -95 -76 -156 -161 -219h164v-88z" />
    <glyph glyph-name="three.inferior" unicode="&#x2083;" 
d="M156 31v80c6 -1 14 -2 21 -2c24 0 50 11 50 48c0 31 -21 48 -46 48c-26 0 -43 -17 -43 -55v-10l-107 10c10 60 30 138 159 138c104 0 144 -61 144 -117c0 -37 -16 -81 -68 -98c66 -19 82 -66 82 -104c0 -61 -41 -141 -166 -141c-134 0 -160 81 -160 146v16l106 8
c-1 -7 -1 -12 -1 -20c0 -47 31 -66 54 -66c35 0 56 28 56 60c0 26 -14 59 -67 59h-14z" />
    <glyph glyph-name="four.inferior" unicode="&#x2084;" 
d="M360 -67h-59v-98h-106v98h-182v84l185 259h104v-265h58v-78zM195 11v150c-34 -57 -60 -96 -99 -150h99z" />
    <glyph glyph-name="five.inferior" unicode="&#x2085;" 
d="M332 276l-6 -83h-175l-12 -81c25 18 45 24 74 24c82 0 139 -59 139 -146c0 -96 -71 -162 -174 -162c-77 0 -152 37 -158 148c41 1 108 3 108 3c2 -50 18 -71 55 -71c38 0 59 27 59 78c0 49 -23 79 -61 79c-24 0 -38 -10 -48 -34l-95 15l28 230h266z" />
    <glyph glyph-name="six.inferior" unicode="&#x2086;" 
d="M129 68c23 35 54 52 101 52c77 0 129 -55 129 -137c0 -93 -67 -155 -165 -155c-111 0 -170 77 -170 221c0 159 60 238 180 238c82 0 127 -37 146 -120l-111 -12c-4 36 -16 50 -43 50c-46 0 -65 -41 -67 -137zM253 -22c0 42 -21 67 -56 67c-33 0 -55 -27 -55 -68
c0 -44 20 -69 55 -69c36 0 56 25 56 70z" />
    <glyph glyph-name="seven.inferior" unicode="&#x2087;" 
d="M31 277h313v-80c-106 -141 -123 -205 -154 -362h-123c24 139 81 260 166 354h-202v88z" />
    <glyph glyph-name="eight.inferior" unicode="&#x2088;" 
d="M104 69c-46 24 -67 56 -67 101c0 71 61 118 152 118s149 -47 149 -123c0 -41 -16 -71 -68 -96c62 -18 88 -59 88 -106c0 -81 -68 -135 -170 -135c-103 0 -170 53 -170 133c0 50 28 90 86 108zM234 152c0 34 -17 55 -46 55s-45 -18 -45 -49c0 -34 17 -55 45 -55
c29 0 46 18 46 49zM243 -29c0 39 -21 63 -55 63c-33 0 -56 -25 -56 -63c0 -37 21 -59 56 -59s55 21 55 59z" />
    <glyph glyph-name="nine.inferior" unicode="&#x2089;" 
d="M248 47c-23 -35 -54 -52 -101 -52c-77 0 -129 55 -129 137c0 93 67 155 165 155c111 0 170 -77 170 -221c0 -159 -60 -238 -180 -238c-82 0 -127 37 -146 120l111 12c4 -36 16 -50 43 -50c45 0 65 41 67 137zM124 137c0 -42 21 -67 56 -67c33 0 55 27 55 68
c0 44 -20 69 -55 69c-36 0 -56 -25 -56 -70z" />
    <glyph glyph-name="period.inferior" horiz-adv-x="172" 
d="M141 -165h-110v118h110v-118z" />
    <glyph glyph-name="comma.inferior" horiz-adv-x="172" 
d="M31 -47h110v-99c0 -73 -41 -120 -109 -130v55c28 9 37 27 37 56h-38v118z" />
    <glyph glyph-name="hyphen.inferior" horiz-adv-x="247" 
d="M220 3h-193v97h193v-97z" />
    <glyph glyph-name="parenleft.inferior" unicode="&#x208d;" horiz-adv-x="228" 
d="M226 -222l-40 -48c-101 72 -161 170 -161 298c0 122 60 232 158 305l42 -41c-62 -72 -101 -150 -101 -257c0 -110 44 -199 102 -257z" />
    <glyph glyph-name="parenright.inferior" unicode="&#x208e;" horiz-adv-x="228" 
d="M2 285l40 48c101 -72 161 -170 161 -298c0 -122 -60 -232 -158 -305l-42 41c62 72 100 150 100 257c0 110 -43 199 -101 257z" />
    <glyph glyph-name="dollar.inferior" horiz-adv-x="414" 
d="M185 -240v75c-80 7 -124 28 -169 57l59 74c15 -8 56 -40 110 -43v90c-58 10 -151 30 -151 124c0 111 99 133 150 135v71h58v-71c66 -7 116 -37 139 -51l-56 -73c-27 19 -61 35 -83 37v-78c88 -16 154 -45 154 -131c0 -79 -57 -136 -154 -141v-75h-57zM185 116v69
c-31 -2 -48 -15 -48 -34s9 -28 48 -35zM242 6v-82c30 1 51 14 51 43c0 24 -21 36 -51 39z" />
    <glyph glyph-name="cent.inferior" horiz-adv-x="359" 
d="M273 -34l79 -39c-17 -39 -52 -84 -118 -92v-77h-56v76c-106 15 -151 82 -151 167c0 115 78 172 151 175v72h57v-73c63 -8 92 -42 116 -82l-81 -43c-9 20 -18 36 -35 41v-170c15 5 28 18 38 45zM178 -78v169c-31 -9 -49 -39 -49 -86c0 -48 20 -73 49 -83z" />
    <glyph glyph-name="sterling.inferior" horiz-adv-x="433" 
d="M324 -10l101 -7c-1 -55 -7 -155 -98 -155c-44 0 -72 21 -105 47c-23 -32 -69 -47 -111 -47c-54 0 -101 24 -101 81c0 44 31 81 102 81c15 0 36 -4 50 -11c-10 22 -20 37 -33 51h-92v63h50c-5 7 -23 39 -23 76c0 61 52 117 169 117c115 0 166 -54 169 -148l-105 -7
c0 62 -26 76 -61 76c-47 0 -62 -22 -62 -50c0 -21 16 -45 29 -64h103v-63h-61c6 -12 14 -32 14 -56c0 -8 -1 -17 -2 -27c18 -14 33 -21 40 -21c16 0 26 7 27 64zM156 -78c-10 6 -22 13 -41 13c-22 0 -33 -10 -33 -26c0 -15 14 -23 27 -23c28 0 43 21 47 36z" />
    <glyph glyph-name="yen.inferior" horiz-adv-x="477" 
d="M471 276l-122 -162h66v-56h-109l-14 -19v-15h123v-56h-123v-132h-109v132h-122v56h122v12l-17 22h-105v56h64l-119 162h134l101 -156l99 156h131z" />
    <glyph glyph-name="florin.inferior" horiz-adv-x="273" 
d="M266 279l-8 -78c-11 3 -23 4 -33 4c-22 0 -32 -10 -35 -38l-2 -19h62l-7 -63h-61l-26 -233c-9 -86 -33 -118 -107 -118c-19 0 -42 2 -67 7l6 78c11 -2 24 -4 30 -4c26 0 36 6 42 67l21 203h-45l7 63h45l7 55c6 43 32 83 104 83c25 0 48 -3 67 -7z" />
    <glyph glyph-name="Euro.inferior" horiz-adv-x="442" 
d="M436 231l-38 -88c-28 32 -63 50 -104 50c-50 0 -83 -18 -98 -65h196l-23 -56h-183c-1 -12 -1 -30 -1 -34h175l-22 -56h-145c16 -49 61 -64 118 -64c39 0 82 18 105 49v-111c-38 -20 -81 -26 -124 -26c-110 0 -188 57 -210 152h-54l23 56h24c0 8 0 29 1 34h-48l24 56h33
c29 108 108 151 213 151c44 0 97 -13 138 -48z" />
    <glyph glyph-name="zero.fitted" horiz-adv-x="562" 
d="M40 344c0 191 75 345 241 345c217 0 240 -257 240 -353c0 -154 -51 -351 -246 -351c-160 0 -235 140 -235 359zM188 311c0 -78 12 -202 93 -202c76 0 90 116 90 225c0 110 -18 230 -92 230c-71 0 -90 -99 -91 -253z" />
    <glyph glyph-name="one.fitted" horiz-adv-x="417" 
d="M16 473v104c41 3 75 6 112 25c44 23 57 49 70 76h122v-678h-161v495c-37 -16 -46 -20 -143 -22z" />
    <glyph glyph-name="two.fitted" horiz-adv-x="502" 
d="M171 426l-161 9v24c0 160 103 231 238 231c139 0 230 -76 230 -207c0 -118 -64 -208 -262 -359c0 0 236 4 264 4v-128h-465v118c52 41 87 68 157 128c80 70 138 127 138 234c0 27 0 93 -69 93c-27 0 -74 -12 -74 -83c0 -17 2 -43 4 -64z" />
    <glyph glyph-name="three.fitted" horiz-adv-x="520" 
d="M187 471l-158 14c16 163 128 205 237 205c183 0 221 -117 221 -182c0 -85 -49 -129 -112 -151c85 -15 129 -77 129 -155c0 -64 -42 -214 -257 -214c-150 0 -231 90 -231 225v15l156 13s-1 -19 -1 -29c0 -63 37 -100 83 -100c53 0 89 37 89 100c0 77 -58 87 -100 87
c-8 0 -22 -1 -22 -1v115s15 -1 23 -1c85 0 85 73 85 80c0 55 -40 77 -73 77c-69 0 -69 -69 -69 -98z" />
    <glyph glyph-name="four.fitted" horiz-adv-x="552" 
d="M537 157h-90v-157h-158v156h-275c0 23 2 122 2 122l280 400h151v-411h90v-110zM290 267v239l-161 -239h161z" />
    <glyph glyph-name="five.fitted" horiz-adv-x="519" 
d="M43 321l41 355h390l-10 -128h-256l-16 -124c15 11 46 35 107 35c131 0 204 -101 204 -224c0 -118 -74 -248 -255 -248c-166 0 -232 110 -232 226l159 6c0 -67 21 -111 80 -111c79 0 84 89 84 126c0 83 -40 117 -86 117c-50 0 -64 -33 -71 -53z" />
    <glyph glyph-name="six.fitted" horiz-adv-x="530" 
d="M495 507l-160 -18v13c0 40 -26 68 -62 68c-87 0 -96 -129 -99 -214c17 37 70 79 147 79c82 0 187 -58 187 -208c0 -151 -100 -238 -243 -238c-119 0 -243 76 -243 334c0 184 43 368 264 368c172 0 200 -134 209 -184zM194 216c0 -37 9 -109 78 -109c83 0 83 90 83 109
c0 26 -4 104 -81 104c-46 0 -80 -36 -80 -104z" />
    <glyph glyph-name="seven.fitted" horiz-adv-x="511" 
d="M16 547v131h479v-122c-97 -117 -147 -209 -188 -336c-32 -100 -39 -151 -47 -220h-186c21 94 73 329 265 547h-323z" />
    <glyph glyph-name="eight.fitted" horiz-adv-x="514" 
d="M17 194c0 114 82 147 121 162c-27 16 -93 56 -93 153c0 83 57 181 214 181c118 0 210 -64 210 -186c0 -101 -63 -131 -96 -147c43 -16 124 -53 124 -164c0 -155 -136 -204 -240 -204c-152 0 -240 85 -240 205zM259 407c45 0 63 36 63 77c0 53 -23 88 -62 88
c-46 0 -66 -37 -66 -79c0 -51 22 -86 65 -86zM256 109c48 0 79 30 79 98c0 45 -21 97 -77 97c-40 0 -79 -32 -79 -97c0 -71 39 -98 77 -98z" />
    <glyph glyph-name="nine.fitted" horiz-adv-x="518" 
d="M24 172l160 17v-11c0 -43 25 -70 62 -70c86 0 95 130 98 214c-37 -67 -112 -79 -147 -79c-79 0 -187 55 -187 208c0 151 101 238 243 238c130 0 243 -83 243 -334c0 -186 -44 -368 -263 -368c-171 0 -203 136 -209 185zM163 462c0 -26 4 -104 81 -104c46 0 80 36 80 104
c0 37 -9 109 -78 109c-83 0 -83 -90 -83 -109z" />
    <glyph glyph-name="oneeighth" unicode="&#x215b;" horiz-adv-x="875" 
d="M594 234c-46 24 -67 56 -67 101c0 71 61 118 152 118s149 -47 149 -123c0 -41 -16 -71 -68 -96c62 -18 88 -59 88 -106c0 -81 -68 -135 -170 -135c-103 0 -170 53 -170 133c0 50 28 90 86 108zM724 317c0 34 -17 55 -46 55s-45 -18 -45 -49c0 -34 17 -55 45 -55
c29 0 46 18 46 49zM733 136c0 39 -21 63 -55 63c-33 0 -56 -25 -56 -63c0 -37 21 -59 56 -59s55 21 55 59zM632 679l-376 -721l-79 42l375 721zM255 677v-442h-110v317c-23 -7 -46 -12 -93 -12h-14v73c77 1 107 18 132 64h85z" />
    <glyph glyph-name="threeeighths" unicode="&#x215c;" horiz-adv-x="875" 
d="M606 234c-46 24 -67 56 -67 101c0 71 61 118 152 118s149 -47 149 -123c0 -41 -16 -71 -68 -96c62 -18 88 -59 88 -106c0 -81 -68 -135 -170 -135c-103 0 -170 53 -170 133c0 50 28 90 86 108zM736 317c0 34 -17 55 -46 55s-45 -18 -45 -49c0 -34 17 -55 45 -55
c29 0 46 18 46 49zM745 136c0 39 -21 63 -55 63c-33 0 -56 -25 -56 -63c0 -37 21 -59 56 -59s55 21 55 59zM660 679l-376 -721l-79 42l375 721zM145 431v80c6 -1 14 -2 21 -2c24 0 50 11 50 48c0 31 -21 48 -46 48c-26 0 -43 -17 -43 -55v-10l-107 10c10 60 30 138 159 138
c104 0 144 -61 144 -117c0 -37 -16 -81 -68 -98c66 -19 82 -66 82 -104c0 -61 -41 -141 -166 -141c-134 0 -160 81 -160 146v16l106 8c-1 -7 -1 -12 -1 -20c0 -47 31 -66 54 -66c35 0 56 28 56 60c0 26 -14 59 -67 59h-14z" />
    <glyph glyph-name="fiveeighths" unicode="&#x215d;" horiz-adv-x="875" 
d="M604 234c-46 24 -67 56 -67 101c0 71 61 118 152 118s149 -47 149 -123c0 -41 -16 -71 -68 -96c62 -18 88 -59 88 -106c0 -81 -68 -135 -170 -135c-103 0 -170 53 -170 133c0 50 28 90 86 108zM734 317c0 34 -17 55 -46 55s-45 -18 -45 -49c0 -34 17 -55 45 -55
c29 0 46 18 46 49zM743 136c0 39 -21 63 -55 63c-33 0 -56 -25 -56 -63c0 -37 21 -59 56 -59s55 21 55 59zM660 679l-376 -721l-79 42l375 721zM56 676h266l-6 -83h-175l-12 -81c25 18 45 24 74 24c82 0 139 -59 139 -146c0 -96 -71 -162 -174 -162c-80 0 -151 36 -158 148
c50 1 108 3 108 3c2 -50 18 -71 55 -71c38 0 59 27 59 78c0 49 -23 79 -61 79c-24 0 -38 -10 -48 -34l-95 15z" />
    <glyph glyph-name="seveneighths" unicode="&#x215e;" horiz-adv-x="875" 
d="M569 234c-46 24 -67 56 -67 101c0 71 61 118 152 118s149 -47 149 -123c0 -41 -16 -71 -68 -96c62 -18 88 -59 88 -106c0 -81 -68 -135 -170 -135c-103 0 -170 53 -170 133c0 50 28 90 86 108zM699 317c0 34 -17 55 -46 55s-45 -18 -45 -49c0 -34 17 -55 45 -55
c29 0 46 18 46 49zM708 136c0 39 -21 63 -55 63c-33 0 -56 -25 -56 -63c0 -37 21 -59 56 -59s55 21 55 59zM614 679l-376 -721l-79 42l375 721zM35 677h313v-80c-106 -141 -123 -205 -154 -362h-123c24 139 81 260 166 354h-202v88z" />
    <glyph glyph-name="onethird" unicode="&#x2153;" horiz-adv-x="875" 
d="M639 679l-376 -721l-79 42l375 721zM250 677v-442h-110v317c-23 -7 -46 -12 -93 -12h-14v73c77 1 107 18 132 64h85zM649 196v80c6 -1 14 -2 21 -2c24 0 50 11 50 48c0 31 -21 48 -46 48c-26 0 -43 -17 -43 -55v-10l-107 10c10 60 30 138 159 138c104 0 144 -61 144 -117
c0 -37 -16 -81 -68 -98c66 -19 82 -66 82 -104c0 -61 -41 -141 -166 -141c-134 0 -160 81 -160 146v16l106 8c-1 -7 -1 -12 -1 -20c0 -47 31 -66 54 -66c35 0 56 28 56 60c0 26 -14 59 -67 59h-14z" />
    <glyph glyph-name="twothirds" unicode="&#x2154;" horiz-adv-x="875" 
d="M678 679l-376 -721l-79 42l375 721zM669 196v80c6 -1 14 -2 21 -2c24 0 50 11 50 48c0 31 -21 48 -46 48c-26 0 -43 -17 -43 -55v-10l-107 10c10 60 30 138 159 138c104 0 144 -61 144 -117c0 -37 -16 -81 -68 -98c66 -19 82 -66 82 -104c0 -61 -41 -141 -166 -141
c-134 0 -160 81 -160 146v16l106 8c-1 -7 -1 -12 -1 -20c0 -47 31 -66 54 -66c35 0 56 28 56 60c0 26 -14 59 -67 59h-14zM324 235h-308v82c36 29 127 98 161 142c22 29 32 59 32 89c0 23 -10 56 -44 56c-35 0 -47 -36 -47 -61c0 -12 4 -30 4 -31l-110 6v4
c0 41 3 166 149 166c128 0 160 -88 160 -146c0 -95 -76 -156 -161 -219h164v-88z" />
    <glyph glyph-name="onefifth" horiz-adv-x="875" 
d="M651 679l-376 -721l-79 42l375 721zM253 677v-442h-110v317c-23 -7 -46 -12 -93 -12h-14v73c77 1 107 18 132 64h85zM836 441l-6 -83h-175l-12 -81c25 18 45 24 74 24c82 0 139 -59 139 -146c0 -96 -71 -162 -174 -162c-77 0 -152 37 -158 148c41 1 108 3 108 3
c2 -50 18 -71 55 -71c38 0 59 27 59 78c0 49 -23 79 -61 79c-24 0 -38 -10 -48 -34l-95 15l28 230h266z" />
    <glyph glyph-name="twofifths" horiz-adv-x="875" 
d="M854 441l-6 -83h-175l-12 -81c25 18 45 24 74 24c82 0 139 -59 139 -146c0 -96 -71 -162 -174 -162c-77 0 -152 37 -158 148c41 1 108 3 108 3c2 -50 18 -71 55 -71c38 0 59 27 59 78c0 49 -23 79 -61 79c-24 0 -38 -10 -48 -34l-95 15l28 230h266zM682 679l-376 -721
l-79 42l375 721zM332 235h-308v82c36 29 127 98 161 142c22 29 32 59 32 89c0 23 -10 56 -44 56c-35 0 -47 -36 -47 -61c0 -12 4 -30 4 -31l-110 6v4c0 41 3 166 149 166c128 0 160 -88 160 -146c0 -95 -76 -156 -161 -219h164v-88z" />
    <glyph glyph-name="threefifths" horiz-adv-x="875" 
d="M848 441l-6 -83h-175l-12 -81c25 18 45 24 74 24c82 0 139 -59 139 -146c0 -96 -71 -162 -174 -162c-77 0 -152 37 -158 148c41 1 108 3 108 3c2 -50 18 -71 55 -71c38 0 59 27 59 78c0 49 -23 79 -61 79c-24 0 -38 -10 -48 -34l-95 15l28 230h266zM673 679l-376 -721
l-79 42l375 721zM156 431v80c6 -1 14 -2 21 -2c24 0 50 11 50 48c0 31 -21 48 -46 48c-26 0 -43 -17 -43 -55v-10l-107 10c10 60 30 138 159 138c104 0 144 -61 144 -117c0 -37 -16 -81 -68 -98c66 -19 82 -66 82 -104c0 -61 -41 -141 -166 -141c-134 0 -160 81 -160 146v16
l106 8c-1 -7 -1 -12 -1 -20c0 -47 31 -66 54 -66c35 0 56 28 56 60c0 26 -14 59 -67 59h-14z" />
    <glyph glyph-name="fourfifths" horiz-adv-x="869" 
d="M850 441l-6 -83h-175l-12 -81c25 18 45 24 74 24c82 0 139 -59 139 -146c0 -96 -71 -162 -174 -162c-77 0 -152 37 -158 148c41 1 108 3 108 3c2 -50 18 -71 55 -71c38 0 59 27 59 78c0 49 -23 79 -61 79c-24 0 -38 -10 -48 -34l-95 15l28 230h266zM675 679l-376 -721
l-79 42l375 721zM348 333h-59v-98h-106v98h-182v84l185 259h104v-265h58v-78zM183 411v150c-34 -57 -60 -96 -99 -150h99z" />
    <glyph glyph-name="braceleft.cap" horiz-adv-x="317" 
d="M305 -122h-63c-121 0 -145 38 -145 161v155c0 88 -17 100 -86 106v87c68 5 86 21 86 106v154c0 124 27 161 143 161h64v-84h-16c-49 0 -57 -28 -57 -106v-141c0 -82 -17 -110 -83 -135c63 -18 83 -50 83 -134v-138c0 -66 2 -109 62 -109h12v-83z" />
    <glyph glyph-name="braceright.cap" horiz-adv-x="317" 
d="M306 299c-66 -6 -86 -18 -86 -106v-155c0 -120 -24 -161 -143 -161h-65v84h16c48 0 57 25 57 106v141c0 82 17 110 83 135c-61 19 -83 51 -83 134v143c0 60 0 104 -61 104h-12v84h64c121 0 144 -41 144 -162v-155c0 -87 15 -99 86 -106v-86z" />
    <glyph glyph-name="bracketleft.cap" horiz-adv-x="292" 
d="M275 -118h-224v923h224v-84h-91v-755h91v-84z" />
    <glyph glyph-name="bracketright.cap" horiz-adv-x="292" 
d="M241 -118h-224v84h91v755h-91v84h224v-923z" />
    <glyph glyph-name="emdash.cap" horiz-adv-x="918" 
d="M880 272h-842v143h842v-143z" />
    <glyph glyph-name="endash.cap" horiz-adv-x="626" 
d="M588 272h-550v143h550v-143z" />
    <glyph glyph-name="guillemotleft.cap" horiz-adv-x="417" 
d="M378 155l-158 130v125l158 134v-138l-68 -57l68 -57v-137zM192 155l-160 131v124l160 134v-138l-65 -57l65 -57v-137z" />
    <glyph glyph-name="guillemotright.cap" horiz-adv-x="417" 
d="M382 286l-159 -135v138l64 58l-64 57v136l159 -131v-123zM195 286l-159 -135v138l68 58l-68 57v136l159 -129v-125z" />
    <glyph glyph-name="guilsinglleft.cap" horiz-adv-x="229" 
d="M191 155l-159 130v125l158 134v-138l-67 -57l68 -57v-137z" />
    <glyph glyph-name="guilsinglright.cap" horiz-adv-x="229" 
d="M195 286l-159 -135v138l64 58l-64 57v136l159 -131v-123z" />
    <glyph glyph-name="hyphen.cap" 
d="M337 272h-299v143h299v-143z" />
    <glyph glyph-name="parenleft.cap" horiz-adv-x="335" 
d="M344 -69l-54 -70c-58 42 -105 89 -140 131c-78 96 -119 215 -119 346c0 127 41 251 116 351c38 51 81 94 138 138l58 -60c-38 -43 -48 -56 -67 -83c-64 -92 -97 -206 -97 -334c0 -176 59 -325 165 -419z" />
    <glyph glyph-name="parenright.cap" horiz-adv-x="336" 
d="M-6 756l54 70c62 -45 105 -88 139 -131c79 -98 120 -215 120 -346c0 -128 -40 -251 -117 -352c-37 -48 -74 -85 -138 -137l-58 60c38 43 49 56 68 83c63 92 96 206 96 334c0 176 -59 326 -164 419z" />
    <glyph glyph-name="periodcentered.cap" horiz-adv-x="235" 
d="M198 261h-161v167h161v-167z" />
    <glyph glyph-name="afii10017" unicode="&#x410;" horiz-adv-x="716" 
d="M705 0h-188l-35 113h-260l-35 -113h-188l262 706h184zM442 240l-92 298l-87 -298h179z" />
    <glyph glyph-name="afii10018" unicode="&#x411;" horiz-adv-x="708" 
d="M68 706h542v-138h-364v-138h195c132 0 233 -60 233 -212c0 -86 -41 -218 -250 -218h-356v706zM246 302v-174h119c77 0 131 20 131 88c0 77 -63 86 -114 86h-136z" />
    <glyph glyph-name="afii10019" unicode="&#x412;" horiz-adv-x="708" 
d="M68 0v706h329c186 0 250 -82 250 -185c0 -119 -108 -153 -151 -158c68 -6 178 -41 178 -165c0 -130 -116 -198 -260 -198h-346zM236 427h133c38 0 105 3 105 76c0 68 -59 71 -93 71h-145v-147zM236 128h123c57 0 136 3 136 84c0 85 -71 87 -107 87h-152v-171z" />
    <glyph glyph-name="afii10020" unicode="&#x413;" horiz-adv-x="600" 
d="M68 706h516v-138h-338v-568h-178v706z" />
    <glyph glyph-name="afii10021" unicode="&#x414;" horiz-adv-x="840" 
d="M724 706v-568h90v-288h-166v150h-472v-150h-166v288c104 0 156 126 156 428v140h558zM546 568h-214v-33c0 -250 -41 -352 -83 -397h297v430z" />
    <glyph glyph-name="afii10022" unicode="&#x415;" horiz-adv-x="646" 
d="M68 0v706h522v-137h-346v-128h323v-134h-323v-168h377v-139h-553z" />
    <glyph glyph-name="afii10024" unicode="&#x416;" horiz-adv-x="980" 
d="M405 706h170v-264h45c82 0 89 30 101 112c12 81 24 121 51 152h180c-48 -42 -61 -110 -68 -169c-14 -121 -70 -140 -119 -150c77 -13 128 -36 141 -161c11 -111 28 -161 66 -226h-180c-26 50 -33 96 -41 182c-8 85 -27 132 -110 132h-66v-314h-170v314h-66
c-83 0 -102 -47 -110 -132c-8 -86 -15 -132 -41 -182h-180c38 65 56 115 67 226c12 125 63 148 140 161c-49 10 -104 29 -120 150c-8 59 -19 127 -67 169h180c27 -31 39 -71 51 -152c12 -82 19 -112 101 -112h45v264z" />
    <glyph glyph-name="afii10025" unicode="&#x417;" horiz-adv-x="700" 
d="M20 127l134 85c47 -58 109 -90 192 -90c80 0 142 31 142 95c0 76 -90 79 -141 79h-107v130h110c69 0 122 30 122 80c0 60 -56 81 -122 81c-83 0 -138 -36 -186 -91l-130 93c69 66 162 134 323 134c216 0 291 -84 291 -190c0 -122 -116 -157 -162 -162
c69 -6 180 -43 180 -173c0 -141 -146 -214 -328 -214c-161 0 -246 59 -318 143z" />
    <glyph glyph-name="afii10026" unicode="&#x418;" horiz-adv-x="764" 
d="M246 706v-402l272 326v76h178v-706h-178v406l-272 -326v-80h-178v706h178z" />
    <glyph glyph-name="afii10027" unicode="&#x419;" horiz-adv-x="764" 
d="M246 706v-402l272 326v76h178v-706h-178v406l-272 -326v-80h-178v706h178zM440 900l118 -20c-11 -87 -76 -130 -176 -130c-90 0 -168 35 -176 130l118 20c0 -42 29 -54 58 -54c27 0 58 11 58 54z" />
    <glyph glyph-name="afii10028" unicode="&#x41a;" horiz-adv-x="700" 
d="M68 706h178v-260h77c84 0 92 29 104 108c13 81 26 121 55 152h186c-48 -42 -59 -110 -67 -169c-16 -121 -71 -140 -120 -150c77 -13 128 -36 141 -161c11 -111 28 -161 66 -226h-186c-26 50 -33 96 -41 182c-8 81 -29 126 -117 126h-98v-308h-178v706z" />
    <glyph glyph-name="afii10029" unicode="&#x41b;" horiz-adv-x="748" 
d="M134 706h546v-706h-178v568h-202v-60c0 -404 -53 -507 -272 -508h-20v138h20c78 11 106 48 106 378v190z" />
    <glyph glyph-name="afii10030" unicode="&#x41c;" horiz-adv-x="917" 
d="M848 0h-170s0 390 4 528l-147 -528h-153l-146 528c3 -99 4 -528 4 -528h-172v706h258l133 -494l131 494h258v-706z" />
    <glyph glyph-name="afii10031" unicode="&#x41d;" horiz-adv-x="753" 
d="M681 0h-177v301h-258v-301h-178v706h178v-255h258v255h177v-706z" />
    <glyph glyph-name="afii10032" unicode="&#x41e;" horiz-adv-x="792" 
d="M42 356c0 161 94 372 349 372c257 0 358 -212 358 -380c0 -189 -129 -369 -356 -369c-233 0 -351 183 -351 377zM216 358c0 -113 51 -229 178 -229c131 0 178 122 178 221c0 128 -56 230 -181 230c-134 0 -175 -127 -175 -222z" />
    <glyph glyph-name="afii10033" unicode="&#x41f;" horiz-adv-x="736" 
d="M68 706h600v-706h-178v568h-244v-568h-178v706z" />
    <glyph glyph-name="afii10034" unicode="&#x420;" horiz-adv-x="688" 
d="M67 706h350c167 0 255 -79 255 -241c0 -179 -157 -234 -285 -234h-143v-231h-177v706zM244 576v-214h116c80 0 136 19 136 111c0 102 -84 103 -139 103h-113z" />
    <glyph glyph-name="afii10035" unicode="&#x421;" horiz-adv-x="702" 
d="M542 232l139 -71c-56 -98 -157 -182 -304 -182c-187 0 -338 136 -338 375c0 209 142 374 342 374c130 0 248 -77 298 -183l-140 -70c-15 53 -78 108 -150 108c-114 0 -174 -106 -174 -224c0 -155 79 -232 174 -232c92 0 129 64 153 105z" />
    <glyph glyph-name="afii10036" unicode="&#x422;" horiz-adv-x="562" 
d="M552 567h-183v-567h-178v567h-184v139h545v-139z" />
    <glyph glyph-name="afii10037" unicode="&#x423;" horiz-adv-x="652" 
d="M470 706h186l-227 -509c-65 -171 -157 -197 -305 -197h-40v148h40c59 0 108 3 129 66l-247 492h204l138 -316z" />
    <glyph glyph-name="afii10038" unicode="&#x424;" horiz-adv-x="880" 
d="M351 720h178v-96h50c162 0 277 -78 277 -267c0 -164 -115 -267 -277 -267h-50v-100h-178v100h-50c-163 0 -277 103 -277 267c0 189 114 267 277 267h50v96zM355 486h-48c-78 0 -111 -64 -111 -129s33 -129 119 -129h40v258zM525 486v-258h40c86 0 119 64 119 129
s-33 129 -111 129h-48z" />
    <glyph glyph-name="afii10039" unicode="&#x425;" horiz-adv-x="771" 
d="M769 0h-203l-181 267l-183 -267h-202l273 383l-235 323h209l136 -213l138 213h205l-233 -323z" />
    <glyph glyph-name="afii10040" unicode="&#x426;" horiz-adv-x="780" 
d="M68 706h178v-568h240v568h178v-568h90v-288h-166v150h-520v706z" />
    <glyph glyph-name="afii10041" unicode="&#x427;" horiz-adv-x="708" 
d="M640 706v-706h-178v264c-41 -12 -105 -24 -165 -24c-169 0 -245 58 -245 201v265h178v-211c0 -98 41 -117 108 -117c38 0 99 12 124 24v304h178z" />
    <glyph glyph-name="afii10042" unicode="&#x428;" horiz-adv-x="1026" 
d="M68 706h170v-568h190v568h170v-568h190v568h170v-706h-890v706z" />
    <glyph glyph-name="afii10043" unicode="&#x429;" horiz-adv-x="1074" 
d="M68 706h170v-568h190v568h170v-568h190v568h170v-568h90v-288h-166v150h-814v706z" />
    <glyph glyph-name="afii10044" unicode="&#x42a;" horiz-adv-x="820" 
d="M8 706h358v-256h187c132 0 233 -63 233 -222c0 -90 -41 -228 -250 -228h-348v574h-180v132zM366 320v-190h111c77 0 131 22 131 96c0 84 -63 94 -114 94h-128z" />
    <glyph glyph-name="afii10045" unicode="&#x42b;" horiz-adv-x="960" 
d="M68 706h170v-256h169c132 0 233 -63 233 -222c0 -90 -41 -228 -250 -228h-322v706zM238 320v-190h101c77 0 131 22 131 96c0 84 -63 94 -114 94h-118zM892 0h-178v706h178v-706z" />
    <glyph glyph-name="afii10046" unicode="&#x42c;" horiz-adv-x="700" 
d="M68 706h178v-256h187c132 0 233 -63 233 -222c0 -90 -41 -228 -250 -228h-348v706zM246 320v-190h111c77 0 131 22 131 96c0 84 -63 94 -114 94h-128z" />
    <glyph glyph-name="afii10047" unicode="&#x42d;" horiz-adv-x="706" 
d="M20 161l140 71c35 -76 91 -105 154 -105c76 0 159 33 174 171h-254v128h254c-10 106 -90 156 -165 156c-50 0 -120 -18 -155 -107l-140 70c96 158 198 183 303 183c159 0 333 -110 333 -372c0 -206 -133 -377 -340 -377c-114 0 -229 47 -304 182z" />
    <glyph glyph-name="afii10048" unicode="&#x42e;" horiz-adv-x="1080" 
d="M68 706h170v-261h127c7 42 24 94 54 141c34 53 114 142 273 142c132 0 211 -60 247 -99c63 -69 99 -184 99 -281c0 -108 -45 -224 -127 -294c-37 -32 -103 -75 -217 -75c-41 0 -161 4 -248 99c-67 72 -83 167 -88 229h-120v-307h-170v706zM862 336
c0 113 -36 244 -170 244c-125 0 -164 -127 -164 -222c0 -139 56 -231 167 -231c104 0 167 97 167 209z" />
    <glyph glyph-name="afii10049" unicode="&#x42f;" horiz-adv-x="708" 
d="M640 706v-706h-178v250h-97c-141 0 -107 -191 -163 -250h-186c73 68 43 265 168 296c-95 19 -128 100 -128 187c0 113 66 223 274 223h310zM462 380v196h-121c-63 0 -109 -27 -109 -102c0 -63 38 -94 115 -94h115z" />
    <glyph glyph-name="afii10065" unicode="&#x430;" horiz-adv-x="583" 
d="M526 0h-151v47c-41 -27 -80 -61 -160 -61c-119 0 -171 84 -171 159c0 65 45 123 110 150c36 15 91 26 206 48v29c0 18 -3 63 -59 63c-65 0 -77 -38 -81 -61h-154c0 115 106 162 220 162c90 0 225 -24 225 -150v-305c0 -45 2 -62 15 -81zM360 250l-99 -33
c-53 -17 -66 -42 -66 -65c0 -18 15 -53 59 -53c60 0 106 54 106 128v23z" />
    <glyph glyph-name="afii10066" unicode="&#x431;" horiz-adv-x="630" 
d="M598 254c0 -112 -63 -270 -282 -270c-174 0 -280 93 -280 282c0 207 39 395 281 416c68 6 114 14 115 46h146c-10 -87 -36 -153 -206 -165c-147 -10 -174 -65 -186 -134c48 47 121 63 166 63c120 0 246 -78 246 -238zM442 249c0 59 -26 137 -124 137
c-77 0 -126 -55 -126 -144c0 -57 32 -136 123 -136c97 0 127 82 127 143z" />
    <glyph glyph-name="afii10067" unicode="&#x432;" horiz-adv-x="600" 
d="M68 522h314c81 0 162 -30 162 -131c0 -39 -7 -84 -80 -112c83 -21 100 -76 100 -133c0 -81 -59 -146 -171 -146h-325v522zM214 406v-92h138c28 0 48 14 48 47c0 26 -18 45 -45 45h-141zM214 218v-102h139c42 0 67 12 67 51c0 36 -25 51 -61 51h-145z" />
    <glyph glyph-name="afii10068" unicode="&#x433;" horiz-adv-x="460" 
d="M68 522h382v-122h-228v-400h-154v522z" />
    <glyph glyph-name="afii10069" unicode="&#x434;" horiz-adv-x="676" 
d="M582 522v-404h74v-238h-140v120h-360v-120h-140v239c110 34 120 176 120 342v61h446zM428 404h-146v-39c0 -69 -17 -200 -78 -247h224v286z" />
    <glyph glyph-name="afii10070" unicode="&#x435;" horiz-adv-x="583" 
d="M562 229h-373v-6c0 -70 48 -124 119 -124c73 0 116 50 132 93l116 -60c-59 -99 -152 -151 -260 -151c-159 0 -264 101 -264 270c0 131 64 287 268 287c196 0 262 -157 262 -302v-7zM189 325h214c-2 58 -41 103 -104 103c-73 0 -103 -61 -110 -103z" />
    <glyph glyph-name="afii10072" unicode="&#x436;" horiz-adv-x="760" 
d="M307 522h146v-188h33c92 0 48 125 100 188h156c-89 -78 -16 -217 -142 -236c144 -19 81 -206 154 -286h-156c-45 66 3 223 -104 224h-41v-224h-146v224h-41c-107 -1 -59 -158 -104 -224h-156c73 80 10 267 154 286c-126 19 -53 158 -142 236h156c52 -63 8 -188 100 -188
h33v188z" />
    <glyph glyph-name="afii10073" unicode="&#x437;" horiz-adv-x="556" 
d="M193 320h76c51 0 81 13 81 50s-29 54 -76 54c-49 0 -95 -22 -124 -67l-114 65c54 81 153 116 242 116c111 0 222 -34 222 -147c0 -39 -13 -84 -80 -112c81 -21 100 -74 100 -133c0 -90 -87 -162 -248 -162c-102 0 -181 36 -252 132l116 60c38 -55 89 -74 140 -74
c43 0 90 15 90 59c0 18 -5 53 -74 53h-99v106z" />
    <glyph glyph-name="afii10074" unicode="&#x438;" horiz-adv-x="628" 
d="M68 522h154v-268l184 198v70h154v-522h-154v292l-184 -198v-94h-154v522z" />
    <glyph glyph-name="afii10075" unicode="&#x439;" horiz-adv-x="628" 
d="M68 522h154v-268l184 198v70h154v-522h-154v292l-184 -198v-94h-154v522zM368 720l102 -20c-11 -86 -66 -129 -156 -129c-80 0 -148 35 -156 129l102 20c0 -47 27 -61 54 -61c25 0 54 13 54 61z" />
    <glyph glyph-name="afii10076" unicode="&#x43a;" horiz-adv-x="580" 
d="M68 522h154v-184h60c110 0 58 122 120 184h160c-89 -78 -16 -217 -142 -236c144 -19 81 -206 154 -286h-160c-53 65 3 219 -124 220h-68v-220h-154v522z" />
    <glyph glyph-name="afii10077" unicode="&#x43b;" horiz-adv-x="600" 
d="M86 522h446v-522h-154v404h-146v-142c0 -174 -26 -262 -218 -262h-16v122h16c69 0 72 78 72 147v253z" />
    <glyph glyph-name="afii10078" unicode="&#x43c;" horiz-adv-x="794" 
d="M68 522h246l83 -332l85 332h244v-522h-148s2 249 7 453l-119 -453h-140l-120 451c7 -185 10 -451 10 -451h-148v522z" />
    <glyph glyph-name="afii10079" unicode="&#x43d;" horiz-adv-x="608" 
d="M68 522h154v-188h164v188h154v-522h-154v212h-164v-212h-154v522z" />
    <glyph glyph-name="afii10080" unicode="&#x43e;" horiz-adv-x="625" 
d="M593 261c0 -169 -106 -277 -281 -277c-136 0 -280 74 -280 280c0 132 80 274 275 274c219 0 286 -152 286 -277zM437 256c0 111 -47 160 -131 160c-58 0 -119 -44 -119 -153c0 -87 37 -156 127 -156c85 0 123 71 123 149z" />
    <glyph glyph-name="afii10081" unicode="&#x43f;" horiz-adv-x="604" 
d="M68 522h468v-522h-154v404h-160v-404h-154v522z" />
    <glyph glyph-name="afii10082" unicode="&#x440;" horiz-adv-x="608" 
d="M68 522h136v-51c11 17 54 63 146 63c149 0 226 -127 226 -272c0 -168 -88 -272 -226 -272c-55 0 -83 16 -128 44v-214h-154v702zM216 254c0 -87 35 -153 105 -153c78 0 107 85 107 173c0 40 -13 151 -103 151c-56 0 -109 -50 -109 -171z" />
    <glyph glyph-name="afii10083" unicode="&#x441;" horiz-adv-x="539" 
d="M408 183l116 -60c-59 -103 -152 -140 -232 -140c-122 0 -259 78 -259 274c0 209 144 280 262 280c47 0 150 -10 223 -126l-114 -65c-14 29 -42 73 -102 73c-82 0 -111 -94 -111 -157c0 -66 31 -157 116 -157c60 0 90 45 101 78z" />
    <glyph glyph-name="afii10084" unicode="&#x442;" horiz-adv-x="502" 
d="M10 522h482v-122h-164v-400h-154v400h-164v122z" />
    <glyph glyph-name="afii10085" unicode="&#x443;" horiz-adv-x="500" 
d="M336 522h164l-184 -564c-12 -37 -24 -69 -51 -98c-32 -34 -63 -40 -109 -40h-111v123h66c42 0 52 20 52 38c0 14 -3 25 -11 50l-152 491h164l86 -374z" />
    <glyph glyph-name="afii10086" unicode="&#x444;" horiz-adv-x="780" 
d="M467 706v-184c141 0 281 -41 281 -262c0 -195 -123 -260 -281 -260v-180h-154v180c-164 0 -281 77 -281 260c0 148 81 262 281 262v184h154zM464 404v-286c104 0 134 68 134 145c0 106 -43 141 -134 141zM316 118v286c-98 0 -134 -54 -134 -141c0 -108 52 -145 134 -145z
" />
    <glyph glyph-name="afii10087" unicode="&#x445;" horiz-adv-x="521" 
d="M520 0h-164l-99 162l-87 -162h-170l177 283l-158 239h174l69 -133l74 133h165l-158 -244z" />
    <glyph glyph-name="afii10088" unicode="&#x446;" horiz-adv-x="630" 
d="M68 522h154v-404h160v404h154v-404h74v-238h-140v120h-402v522z" />
    <glyph glyph-name="afii10089" unicode="&#x447;" horiz-adv-x="582" 
d="M44 522h154v-158c0 -64 28 -70 73 -70c29 0 62 6 89 16v212h154v-522h-154v196c-34 -11 -90 -20 -137 -20c-109 0 -179 33 -179 152v194z" />
    <glyph glyph-name="afii10090" unicode="&#x448;" horiz-adv-x="874" 
d="M68 522h146v-404h150v404h146v-404h150v404h146v-522h-738v522z" />
    <glyph glyph-name="afii10091" unicode="&#x449;" horiz-adv-x="900" 
d="M68 522h146v-404h150v404h146v-404h150v404h146v-404h74v-238h-140v120h-672v522z" />
    <glyph glyph-name="afii10092" unicode="&#x44a;" horiz-adv-x="620" 
d="M282 522v-170h136c107 0 176 -54 176 -175s-65 -177 -208 -177h-258v400h-118v122h272zM282 234v-116h100c35 0 62 18 62 59c0 46 -34 57 -53 57h-109z" />
    <glyph glyph-name="afii10093" unicode="&#x44b;" horiz-adv-x="780" 
d="M214 522v-170h120c107 0 176 -54 176 -175s-65 -177 -208 -177h-234v522h146zM214 234v-116h90c35 0 62 18 62 59c0 46 -34 57 -53 57h-99zM566 522h146v-522h-146v522z" />
    <glyph glyph-name="afii10094" unicode="&#x44c;" horiz-adv-x="560" 
d="M222 522v-170h136c107 0 176 -54 176 -175s-65 -177 -208 -177h-258v522h154zM222 234v-116h100c35 0 62 18 62 59c0 46 -34 57 -53 57h-109z" />
    <glyph glyph-name="afii10095" unicode="&#x44d;" horiz-adv-x="552" 
d="M182 320h184c-12 61 -53 104 -116 104c-41 0 -84 -22 -111 -67l-114 65c51 81 144 116 228 116c179 0 267 -123 267 -278s-91 -276 -265 -276c-108 0 -188 36 -235 132l116 60c31 -55 73 -74 111 -74c76 0 115 65 119 112h-184v106z" />
    <glyph glyph-name="afii10096" unicode="&#x44e;" horiz-adv-x="880" 
d="M68 522h146v-190h92c22 122 107 214 261 214c191 0 281 -125 281 -288c0 -161 -100 -274 -276 -274c-129 0 -253 62 -268 230h-90v-214h-146v522zM692 253c0 98 -34 163 -123 163c-69 0 -117 -59 -117 -156c0 -85 34 -154 122 -154c81 0 118 70 118 147z" />
    <glyph glyph-name="afii10097" unicode="&#x44f;" horiz-adv-x="592" 
d="M524 522v-522h-154v178h-58c-112 0 -78 -123 -120 -178h-166c68 44 20 198 139 216c-58 10 -97 64 -97 133c0 48 16 173 181 173h275zM370 294v112h-84c-37 0 -68 -9 -68 -58c0 -45 29 -54 70 -54h82z" />
    <glyph glyph-name="afii10050" unicode="&#x490;" horiz-adv-x="600" 
d="M68 706h360v150h156v-288h-338v-568h-178v706z" />
    <glyph glyph-name="afii10055" unicode="&#x406;" horiz-adv-x="313" 
d="M243 0h-176v706h176v-706z" />
    <glyph glyph-name="afii10051" unicode="&#x402;" horiz-adv-x="820" 
d="M568 568h-198v-156c41 17 102 34 186 34c115 0 230 -39 230 -225c0 -204 -149 -221 -257 -221h-53v130h40c67 0 92 38 92 89c0 50 -24 89 -104 89c-47 0 -103 -17 -134 -34v-274h-178v568h-184v138h560v-138z" />
    <glyph glyph-name="afii10099" unicode="&#x452;" horiz-adv-x="620" 
d="M82 706h154v-68h200v-104h-200v-148c57 63 119 70 149 70c109 0 167 -68 167 -179v-273c0 -138 -41 -182 -153 -182c-23 0 -45 0 -70 2v122l19 -1c49 0 50 29 50 74v183c0 54 -3 123 -79 123c-64 0 -83 -48 -83 -130v-195h-154v534h-80v104h80v68z" />
    <glyph glyph-name="afii10052" unicode="&#x403;" horiz-adv-x="600" 
d="M68 706h516v-138h-338v-568h-178v706zM506 897l-145 -115h-96l61 115h180z" />
    <glyph glyph-name="afii10100" unicode="&#x453;" horiz-adv-x="460" 
d="M68 522h382v-122h-228v-400h-154v522zM443 719l-153 -133h-102l73 133h182z" />
    <glyph glyph-name="afii10103" unicode="&#x456;" horiz-adv-x="292" 
d="M222 587h-153v119h153v-119zM222 0h-153v522h153v-522z" />
    <glyph glyph-name="afii10098" unicode="&#x491;" horiz-adv-x="460" 
d="M68 522h250v120h132v-242h-228v-400h-154v522z" />
    <glyph glyph-name="afii10057" unicode="&#x408;" horiz-adv-x="396" 
d="M16 0v143h35c83 0 103 12 103 63v500h177v-536c0 -134 -68 -170 -197 -170h-118z" />
    <glyph glyph-name="afii10053" unicode="&#x404;" horiz-adv-x="706" 
d="M546 232l140 -71c-51 -98 -142 -182 -304 -182c-189 0 -340 136 -340 377c0 207 142 372 343 372c154 0 253 -77 297 -183l-140 -70c-15 53 -68 107 -155 107c-77 0 -159 -57 -169 -156h254v-128h-254c15 -129 98 -171 174 -171c63 0 119 29 154 105z" />
    <glyph glyph-name="afii10101" unicode="&#x454;" horiz-adv-x="548" 
d="M370 320v-106h-184c4 -47 43 -112 119 -112c38 0 80 19 111 74l116 -60c-47 -96 -127 -132 -235 -132c-174 0 -265 121 -265 276s88 278 267 278c92 0 177 -35 228 -116l-114 -65c-27 45 -70 67 -111 67c-63 0 -104 -43 -116 -104h184z" />
    <glyph glyph-name="afii10056" unicode="&#x407;" horiz-adv-x="370" 
d="M274 0h-178v706h178v-706zM346 780h-130v116h130v-116zM154 780h-130v116h130v-116z" />
    <glyph glyph-name="afii10104" unicode="&#x457;" horiz-adv-x="364" 
d="M334 586h-120v120h120v-120zM150 586h-120v120h120v-120zM257 0h-152v522h152v-522z" />
    <glyph glyph-name="afii10058" unicode="&#x409;" horiz-adv-x="1116" 
d="M134 706h538v-256h177c132 0 233 -63 233 -222c0 -90 -41 -228 -250 -228h-330v568h-202v-60c0 -404 -53 -507 -272 -508h-20v138h20c78 11 106 48 106 378v190zM672 320v-190h101c77 0 131 22 131 96c0 84 -63 94 -114 94h-118z" />
    <glyph glyph-name="afii10106" unicode="&#x459;" horiz-adv-x="846" 
d="M518 522v-170h126c107 0 176 -54 176 -175s-65 -177 -208 -177h-240v404h-146v-142c0 -174 -25 -262 -212 -262h-16v122h16c69 0 72 78 72 147v253h432zM518 234v-116h90c35 0 62 18 62 59c0 46 -34 57 -53 57h-99z" />
    <glyph glyph-name="afii10059" unicode="&#x40a;" horiz-adv-x="1100" 
d="M68 706h170v-256h248v256h170v-256h177c132 0 233 -63 233 -222c0 -90 -41 -228 -250 -228h-330v302h-248v-302h-170v706zM656 320v-190h101c77 0 131 22 131 96c0 84 -63 94 -114 94h-118z" />
    <glyph glyph-name="afii10107" unicode="&#x45a;" horiz-adv-x="846" 
d="M68 522h146v-188h158v188h146v-188h126c107 0 176 -51 176 -165c0 -116 -65 -169 -208 -169h-240v212h-158v-212h-146v522zM518 224v-106h90c35 0 62 17 62 55c0 41 -34 51 -53 51h-99z" />
    <glyph glyph-name="afii10105" unicode="&#x458;" horiz-adv-x="292" 
d="M221 588h-152v118h152v-118zM69 522h152v-518c0 -138 -40 -182 -151 -182c-23 0 -45 0 -70 2v122c3 0 13 -1 19 -1c49 0 50 29 50 74v503z" />
    <glyph glyph-name="afii10054" unicode="&#x405;" horiz-adv-x="688" 
d="M644 589l-130 -93c-51 53 -109 88 -185 88c-72 0 -105 -42 -105 -75c0 -38 30 -56 90 -65l78 -11c184 -26 260 -82 260 -203c0 -149 -119 -246 -321 -246c-165 0 -250 59 -322 143l134 85c47 -57 128 -89 204 -89c52 0 130 23 130 82c0 50 -60 64 -123 72l-81 11
c-124 17 -225 75 -225 199c0 139 103 236 285 236c149 0 242 -68 311 -134z" />
    <glyph glyph-name="afii10060" unicode="&#x40b;" horiz-adv-x="820" 
d="M568 568h-198v-146c38 12 97 24 153 24c169 0 245 -58 245 -201v-245h-178v191c0 98 -41 117 -108 117c-34 0 -89 -12 -112 -24v-284h-178v568h-184v138h560v-138z" />
    <glyph glyph-name="afii10108" unicode="&#x45b;" horiz-adv-x="620" 
d="M82 706h154v-68h200v-104h-200v-148c57 63 119 70 149 70c109 0 167 -68 167 -179v-277h-154v202c0 54 -3 123 -79 123c-64 0 -83 -48 -83 -130v-195h-154v534h-80v104h80v68z" />
    <glyph glyph-name="afii10061" unicode="&#x40c;" horiz-adv-x="700" 
d="M68 706h178v-260h77c84 0 92 29 104 108c13 81 26 121 55 152h186c-48 -42 -59 -110 -67 -169c-16 -121 -71 -140 -120 -150c77 -13 128 -36 141 -161c11 -111 28 -161 66 -226h-186c-26 50 -33 96 -41 182c-8 81 -29 126 -117 126h-98v-308h-178v706zM546 897l-145 -115
h-96l61 115h180z" />
    <glyph glyph-name="afii10109" unicode="&#x45c;" horiz-adv-x="580" 
d="M68 522h154v-184h60c110 0 58 122 120 184h160c-89 -78 -16 -217 -142 -236c144 -19 81 -206 154 -286h-160c-53 65 3 219 -124 220h-68v-220h-154v522zM493 719l-153 -133h-102l73 133h182z" />
    <glyph glyph-name="afii10102" unicode="&#x455;" horiz-adv-x="521" 
d="M488 461l-95 -88c-34 28 -84 52 -133 52c-33 0 -72 -11 -72 -40c0 -25 24 -33 85 -45l37 -7c113 -21 188 -67 188 -164c0 -130 -138 -182 -247 -182c-130 0 -215 60 -253 101l97 88c38 -40 96 -72 152 -72c51 0 93 18 93 51c0 29 -27 37 -83 46l-47 8
c-124 21 -175 75 -175 155c0 89 74 175 221 175c89 0 169 -30 232 -78z" />
    <glyph glyph-name="afii10062" unicode="&#x40e;" horiz-adv-x="652" 
d="M470 706h186l-227 -509c-65 -171 -157 -197 -305 -197h-40v148h40c59 0 108 3 129 66l-247 492h204l138 -316zM403 900l118 -20c-11 -87 -76 -130 -176 -130c-90 0 -168 35 -176 130l118 20c0 -42 29 -54 58 -54c27 0 58 11 58 54z" />
    <glyph glyph-name="afii10110" unicode="&#x45e;" horiz-adv-x="500" 
d="M336 522h164l-184 -564c-12 -37 -24 -69 -51 -98c-32 -34 -63 -40 -109 -40h-111v123h66c42 0 52 20 52 38c0 14 -3 25 -11 50l-152 491h164l86 -374zM303 720l102 -20c-11 -86 -66 -129 -156 -129c-80 0 -148 35 -156 129l102 20c0 -47 27 -61 54 -61c25 0 54 13 54 61z
" />
    <glyph glyph-name="afii10145" unicode="&#x40f;" horiz-adv-x="732" 
d="M68 706h178v-568h240v568h178v-706h-215v-170h-166v170h-215v706z" />
    <glyph glyph-name="afii10193" unicode="&#x45f;" horiz-adv-x="604" 
d="M68 522h154v-404h160v404h154v-522h-164v-140h-140v140h-164v522z" />
    <glyph glyph-name="afii61352" unicode="&#x2116;" horiz-adv-x="1126" 
d="M455 706h159v-706h-165l-222 404v-404h-159v706h166l221 -414v414zM682 486c0 92 39 220 201 220c141 0 197 -107 197 -222c0 -95 -44 -216 -196 -216c-148 0 -202 100 -202 218zM968 485c0 65 -20 127 -88 127c-62 0 -86 -53 -86 -133c0 -72 23 -117 89 -117
c55 0 85 44 85 123zM1061 222v-122h-364v122h364z" />
    <glyph glyph-name="afii10023" unicode="&#x401;" horiz-adv-x="646" 
d="M68 0v706h522v-137h-346v-128h323v-134h-323v-168h377v-139h-553zM514 780h-161v116h161v-116zM291 780h-160v117h160v-117z" />
    <glyph glyph-name="afii10071" unicode="&#x451;" horiz-adv-x="583" 
d="M501 586h-154v120h154v-120zM252 586h-154v120h154v-120zM562 229h-373v-6c0 -70 48 -124 119 -124c73 0 116 50 132 93l116 -60c-59 -99 -152 -151 -260 -151c-159 0 -264 101 -264 270c0 131 64 287 268 287c196 0 262 -157 262 -302v-7zM189 325h214
c-2 58 -41 103 -104 103c-73 0 -103 -61 -110 -103z" />
    <glyph glyph-name="afii10066.locl" horiz-adv-x="630" 
d="M432 728h146c-14 -98 -54 -166 -151 -166c-38 0 -68 8 -87 12c-31 6 -46 11 -74 11c-32 0 -46 -19 -46 -44c0 -53 71 -41 127 -49c185 -11 251 -117 251 -241c0 -163 -106 -267 -281 -267c-136 0 -281 65 -281 250c0 110 64 173 138 191c-43 9 -108 40 -108 128
c0 90 48 154 168 154c18 0 41 -5 83 -14c23 -5 43 -9 66 -9c38 0 47 25 49 44zM192 242c0 -76 37 -136 127 -136c85 0 123 68 123 143c0 95 -46 137 -127 137c-60 0 -123 -41 -123 -144z" />
    <glyph glyph-name="tonos" unicode="&#x384;" horiz-adv-x="271" 
d="M263 719l-153 -133h-102l73 133h182z" />
    <glyph glyph-name="dieresistonos" unicode="&#x385;" horiz-adv-x="599" 
d="M540 586h-140v116h140v-116zM387 731l-76 -145h-81l22 145h135zM198 586h-140v116h140v-116z" />
    <glyph glyph-name="Gamma" unicode="&#x393;" horiz-adv-x="562" 
d="M70 706h482v-141h-306v-565h-176v706z" />
    <glyph glyph-name="Theta" unicode="&#x398;" horiz-adv-x="792" 
d="M504 309h-217v126h217v-126zM42 356c0 161 94 372 349 372c257 0 358 -212 358 -380c0 -189 -129 -369 -356 -369c-233 0 -351 183 -351 377zM216 358c0 -113 51 -229 178 -229c131 0 178 122 178 221c0 128 -56 230 -181 230c-134 0 -175 -127 -175 -222z" />
    <glyph glyph-name="Lambda" unicode="&#x39b;" horiz-adv-x="716" 
d="M356 540l-158 -540h-188l257 706h184l255 -706h-188z" />
    <glyph glyph-name="Xi" unicode="&#x39e;" horiz-adv-x="643" 
d="M25 0v152h593v-152h-593zM44 556v150h554v-150h-554zM84 300v147h475v-147h-475z" />
    <glyph glyph-name="Pi" unicode="&#x3a0;" horiz-adv-x="739" 
d="M669 0h-177v557h-244v-557h-178v706h599v-706z" />
    <glyph glyph-name="Sigma" unicode="&#x3a3;" horiz-adv-x="651" 
d="M243 368l-184 204v134h571v-137h-353l177 -200l-206 -230h383v-139h-601v133z" />
    <glyph glyph-name="Iotadieresis" unicode="&#x3aa;" horiz-adv-x="313" 
d="M243 0h-176v706h176v-706zM347 780h-161v116h161v-116zM124 780h-160v117h160v-117z" />
    <glyph glyph-name="Alpha" unicode="&#x391;" horiz-adv-x="708" 
d="M705 0h-188l-35 113h-260l-35 -113h-188l262 706h184zM442 240l-92 298l-87 -298h179z" />
    <glyph glyph-name="Beta" unicode="&#x392;" horiz-adv-x="708" 
d="M68 0v706h329c186 0 250 -82 250 -185c0 -119 -108 -153 -151 -158c68 -6 178 -41 178 -165c0 -130 -116 -198 -260 -198h-346zM236 427h133c38 0 105 3 105 76c0 68 -59 71 -93 71h-145v-147zM236 128h123c57 0 136 3 136 84c0 85 -71 87 -107 87h-152v-171z" />
    <glyph glyph-name="Epsilon" unicode="&#x395;" horiz-adv-x="646" 
d="M68 0v706h522v-137h-346v-128h323v-134h-323v-168h377v-139h-553z" />
    <glyph glyph-name="Zeta" unicode="&#x396;" horiz-adv-x="625" 
d="M608 568l-385 -429h383v-139h-601v133l391 436h-358v137h570v-138z" />
    <glyph glyph-name="Eta" unicode="&#x397;" horiz-adv-x="750" 
d="M681 0h-177v301h-258v-301h-178v706h178v-255h258v255h177v-706z" />
    <glyph glyph-name="Iota" unicode="&#x399;" horiz-adv-x="313" 
d="M243 0h-176v706h176v-706z" />
    <glyph glyph-name="Kappa" unicode="&#x39a;" horiz-adv-x="708" 
d="M732 0h-199l-188 320l-109 -113v-207h-168v706h168v-288l264 288h213l-250 -262z" />
    <glyph glyph-name="Mu" unicode="&#x39c;" horiz-adv-x="917" 
d="M848 0h-170s0 390 4 528l-147 -528h-153l-146 528c3 -99 4 -528 4 -528h-172v706h258l133 -494l131 494h258v-706z" />
    <glyph glyph-name="Phi" unicode="&#x3a6;" horiz-adv-x="857" 
d="M510 0h-165v61c-200 16 -315 133 -315 293c0 158 115 278 315 294v58h165v-58c200 -16 317 -113 317 -292c0 -167 -117 -279 -317 -295v-61zM510 519v-329c104 14 147 81 147 166c0 89 -42 146 -147 163zM345 190v328c-100 -17 -145 -73 -145 -164
c0 -85 39 -149 145 -164z" />
    <glyph glyph-name="Upsilondieresis" unicode="&#x3ab;" horiz-adv-x="708" 
d="M708 706l-267 -372v-334h-174v329l-265 377h202l152 -239l151 239h201zM545 780h-161v116h161v-116zM322 780h-160v117h160v-117z" />
    <glyph glyph-name="Psi" unicode="&#x3a8;" horiz-adv-x="877" 
d="M827 427c0 -219 -169 -263 -307 -275v-152h-165v152c-138 12 -305 56 -305 275v279h168v-285c0 -97 69 -122 137 -130v415h165v-415c68 8 139 33 139 130v285h168v-279z" />
    <glyph glyph-name="Nu" unicode="&#x39d;" horiz-adv-x="729" 
d="M660 0h-173l-250 422v-422h-170v706h173l251 -430v430h169v-706z" />
    <glyph glyph-name="Omicron" unicode="&#x39f;" horiz-adv-x="792" 
d="M42 356c0 161 94 372 349 372c257 0 358 -212 358 -380c0 -189 -129 -369 -356 -369c-233 0 -351 183 -351 377zM216 358c0 -113 51 -229 178 -229c131 0 178 122 178 221c0 128 -56 230 -181 230c-134 0 -175 -127 -175 -222z" />
    <glyph glyph-name="Rho" unicode="&#x3a1;" horiz-adv-x="688" 
d="M67 706h350c167 0 255 -79 255 -241c0 -179 -157 -234 -285 -234h-143v-231h-177v706zM244 576v-214h116c80 0 136 19 136 111c0 102 -84 103 -139 103h-113z" />
    <glyph glyph-name="Tau" unicode="&#x3a4;" horiz-adv-x="562" 
d="M552 567h-183v-567h-178v567h-184v139h545v-139z" />
    <glyph glyph-name="Upsilon" unicode="&#x3a5;" horiz-adv-x="708" 
d="M708 706l-267 -372v-334h-174v329l-265 377h202l152 -239l151 239h201z" />
    <glyph glyph-name="Chi" unicode="&#x3a7;" horiz-adv-x="771" 
d="M769 0h-203l-181 267l-183 -267h-202l273 383l-235 323h209l136 -213l138 213h205l-233 -323z" />
    <glyph glyph-name="Alphatonos" unicode="&#x386;" horiz-adv-x="716" 
d="M705 0h-188l-35 113h-260l-35 -113h-188l262 706h184zM442 240l-92 298l-87 -298h179zM189 707l-153 -133h-102l73 133h182z" />
    <glyph glyph-name="Epsilontonos" unicode="&#x388;" horiz-adv-x="653" 
d="M68 0v706h522v-137h-346v-128h323v-134h-323v-168h377v-139h-553zM40 707l-153 -133h-102l73 133h182z" />
    <glyph glyph-name="Etatonos" unicode="&#x389;" horiz-adv-x="753" 
d="M681 0h-177v301h-258v-301h-178v706h178v-255h258v255h177v-706zM40 707l-153 -133h-102l73 133h182z" />
    <glyph glyph-name="Iotatonos" unicode="&#x38a;" horiz-adv-x="313" 
d="M243 0h-176v706h176v-706zM41 707l-153 -133h-102l73 133h182z" />
    <glyph glyph-name="Omicrontonos" unicode="&#x38c;" horiz-adv-x="792" 
d="M42 356c0 161 94 372 349 372c257 0 358 -212 358 -380c0 -189 -129 -369 -356 -369c-233 0 -351 183 -351 377zM216 358c0 -113 51 -229 178 -229c131 0 178 122 178 221c0 128 -56 230 -181 230c-134 0 -175 -127 -175 -222zM106 707l-153 -133h-102l73 133h182z" />
    <glyph glyph-name="Upsilontonos" unicode="&#x38e;" horiz-adv-x="708" 
d="M708 706l-267 -372v-334h-174v329l-265 377h202l152 -239l151 239h201zM-9 707l-153 -133h-102l73 133h182z" />
    <glyph glyph-name="Omegatonos" unicode="&#x38f;" horiz-adv-x="817" 
d="M758 388c0 -91 -41 -181 -137 -248h141v-140h-306v141c74 51 126 117 126 233c0 139 -79 206 -177 206s-173 -67 -173 -206c0 -116 50 -182 124 -233v-141h-301v140h141c-96 67 -137 157 -137 248c0 186 130 340 345 340s354 -154 354 -340zM146 707l-153 -133h-102
l73 133h182z" />
    <glyph glyph-name="alpha" unicode="&#x3b1;" horiz-adv-x="605" 
d="M590 119v-115c-26 -8 -57 -12 -81 -12c-35 0 -87 12 -104 71c-34 -50 -81 -74 -158 -74c-110 0 -216 84 -216 266c0 135 64 281 221 281c70 0 116 -26 144 -69v55h140v-360c0 -39 10 -43 30 -43h24zM393 265c0 103 -46 159 -102 159c-80 0 -108 -89 -108 -162
c0 -98 50 -159 105 -159c56 0 105 53 105 162z" />
    <glyph glyph-name="beta" unicode="&#x3b2;" horiz-adv-x="600" 
d="M211 -181h-156v642c0 187 105 256 240 256c119 0 230 -59 230 -178c0 -83 -45 -133 -105 -151c106 -22 150 -95 150 -190c0 -116 -88 -208 -236 -208c-29 0 -85 6 -123 44v-215zM414 215c0 83 -42 115 -107 115h-21v94h9c33 0 90 21 90 103c0 52 -34 85 -91 85
c-66 0 -89 -58 -89 -123v-246c0 -73 30 -142 107 -142c56 0 102 45 102 114z" />
    <glyph glyph-name="psi" unicode="&#x3c8;" horiz-adv-x="800" 
d="M750 230c0 -166 -119 -235 -274 -243v-168h-152v168c-155 8 -274 77 -274 243v292h155v-286c0 -100 58 -126 118 -131v571h153v-571c60 5 119 31 119 131v286h155v-292z" />
    <glyph glyph-name="delta" unicode="&#x3b4;" horiz-adv-x="617" 
d="M438 247c0 62 -38 129 -120 129c-68 0 -125 -58 -125 -135c0 -92 60 -134 124 -134c65 0 121 45 121 140zM326 613c-42 0 -68 -21 -68 -46c0 -43 67 -64 127 -88c127 -50 207 -122 207 -228c0 -175 -122 -267 -277 -267c-162 0 -276 105 -276 252c0 91 56 193 190 213
c-95 29 -123 85 -123 125c0 90 91 143 212 143c67 0 166 -12 224 -121l-110 -62c-14 29 -41 79 -106 79z" />
    <glyph glyph-name="epsilon" unicode="&#x3b5;" horiz-adv-x="580" 
d="M297 422c-51 0 -73 -21 -73 -53c0 -36 28 -51 65 -51h81v-95h-86c-54 0 -81 -21 -81 -57c0 -48 40 -61 99 -61c63 0 96 18 116 78l142 -25c-26 -86 -76 -174 -263 -174c-176 0 -257 48 -257 151c0 65 38 126 136 142c-92 13 -113 75 -113 116c0 105 105 145 231 145
c160 0 241 -72 249 -177l-131 -14c-13 46 -33 75 -115 75z" />
    <glyph glyph-name="phi" unicode="&#x3c6;" horiz-adv-x="793" 
d="M32 264c0 125 66 256 288 270v142h153v-142c238 -18 288 -156 288 -273c0 -157 -92 -259 -288 -273v-169h-152v169c-158 11 -289 87 -289 276zM609 257c0 107 -49 153 -137 162v-316c94 9 137 71 137 154zM184 263c0 -89 40 -150 137 -160v317c-70 -5 -137 -47 -137 -157
z" />
    <glyph glyph-name="gamma" unicode="&#x3b3;" horiz-adv-x="548" 
d="M380 522h167l-185 -522v-181h-158v181l-115 362c-13 39 -26 42 -52 42h-22v118h69c76 0 123 -18 143 -116l55 -265z" />
    <glyph glyph-name="eta" unicode="&#x3b7;" horiz-adv-x="584" 
d="M96 534c64 0 104 -24 111 -82c33 54 92 83 165 83c106 0 162 -54 162 -160v-555h-154v502c0 49 -14 90 -76 90c-71 0 -81 -50 -81 -120v-292h-154v364c0 39 -10 43 -30 43h-24v115c26 8 57 12 81 12z" />
    <glyph glyph-name="iota" unicode="&#x3b9;" horiz-adv-x="275" 
d="M172 -12c-56 0 -124 12 -124 142v392h153v-360c0 -39 10 -43 30 -43h24v-119c-26 -8 -59 -12 -83 -12z" />
    <glyph glyph-name="xi" unicode="&#x3be;" horiz-adv-x="509" 
d="M186 222c0 -73 39 -98 137 -98c95 0 166 -17 166 -124c0 -67 -39 -122 -105 -171l-93 71c41 20 63 36 63 64c0 33 -17 36 -78 36c-130 0 -248 34 -248 188c0 107 83 169 170 189c-65 8 -128 51 -128 118c0 55 42 94 83 105h-88v106h410v-113h-120
c-69 0 -140 -12 -140 -87c0 -65 58 -79 113 -79h85v-108h-102c-74 0 -125 -31 -125 -97z" />
    <glyph glyph-name="kappa" unicode="&#x3ba;" horiz-adv-x="579" 
d="M205 166v-166h-150v522h150v-185l151 136c39 35 67 49 121 49h71v-118h-17c-40 0 -59 -3 -86 -28l-60 -54l199 -322h-180l-135 223c0 1 -36 -31 -64 -57z" />
    <glyph glyph-name="lambda" unicode="&#x3bb;" horiz-adv-x="540" 
d="M535 119v-119c-26 -8 -57 -12 -81 -12c-55 0 -92 9 -125 123l-54 185l-99 -296h-166l204 485l-6 18c-22 62 -31 91 -76 91c-21 0 -41 -5 -61 -10v120c9 3 49 13 72 13c109 0 140 -33 180 -150l138 -402c9 -25 18 -46 43 -46h31z" />
    <glyph glyph-name="nu" unicode="&#x3bd;" horiz-adv-x="513" 
d="M488 461c0 -34 -9 -70 -20 -100l-132 -361h-166l-171 522h163l98 -374l71 247c6 22 11 47 11 61v66h138c6 -26 8 -43 8 -61z" />
    <glyph glyph-name="omicron" unicode="&#x3bf;" horiz-adv-x="625" 
d="M593 261c0 -169 -106 -277 -281 -277c-136 0 -280 74 -280 280c0 132 80 274 275 274c219 0 286 -152 286 -277zM437 256c0 111 -47 160 -131 160c-58 0 -119 -44 -119 -153c0 -87 37 -156 127 -156c85 0 123 71 123 149z" />
    <glyph glyph-name="rho" unicode="&#x3c1;" horiz-adv-x="592" 
d="M560 260c0 -146 -78 -274 -222 -274c-33 0 -102 5 -137 56v-223h-156v440c0 150 90 279 266 279c163 0 249 -121 249 -278zM408 270c0 67 -24 146 -101 146c-74 0 -107 -69 -107 -160c0 -69 24 -149 102 -149c83 0 106 87 106 163z" />
    <glyph glyph-name="sigma" unicode="&#x3c3;" horiz-adv-x="642" 
d="M622 404h-118c71 -35 84 -117 84 -162c0 -146 -94 -258 -282 -258c-160 0 -274 106 -274 275c0 148 99 263 280 263h310v-118zM437 260c0 106 -65 144 -126 144c-74 0 -124 -52 -124 -142c0 -91 41 -155 124 -155c67 0 126 41 126 153z" />
    <glyph glyph-name="tau" unicode="&#x3c4;" horiz-adv-x="491" 
d="M476 404h-155v-239c0 -35 16 -43 40 -43c11 0 54 1 54 1v-119c-10 -2 -41 -8 -97 -8c-84 0 -149 26 -149 148v260h-66c-12 0 -59 -5 -88 -16v109c34 22 78 25 117 25h344v-118z" />
    <glyph glyph-name="theta" unicode="&#x3b8;" horiz-adv-x="622" 
d="M577 361c0 -152 -28 -377 -271 -377c-205 0 -261 175 -261 365c0 138 34 368 268 368c198 0 264 -177 264 -356zM425 413c-2 100 -26 195 -112 195c-90 0 -113 -106 -114 -195h226zM425 304h-228c0 -95 18 -207 114 -207c89 0 114 101 114 207z" />
    <glyph glyph-name="omega" unicode="&#x3c9;" horiz-adv-x="788" 
d="M756 253c0 -158 -62 -269 -202 -269c-67 0 -132 26 -161 102c-28 -76 -93 -102 -161 -102c-139 0 -200 109 -200 267c0 197 98 275 253 287v-121c-75 -8 -98 -61 -98 -163c0 -76 9 -147 70 -147c57 0 63 64 63 115v108h147v-105c0 -51 5 -118 64 -118c61 0 69 71 69 147
c0 102 -22 155 -97 163v121c157 -12 253 -89 253 -285z" />
    <glyph glyph-name="sigma1" unicode="&#x3c2;" horiz-adv-x="532" 
d="M403 346c-14 29 -42 73 -102 73c-76 0 -111 -67 -111 -140c0 -96 65 -126 156 -160c62 -23 116 -41 116 -130c0 -49 -24 -108 -53 -157h-121c23 37 41 83 41 108c0 38 -20 48 -62 63c-108 38 -235 91 -235 268c0 203 147 266 262 266c47 0 150 -10 223 -126z" />
    <glyph glyph-name="chi" unicode="&#x3c7;" horiz-adv-x="572" 
d="M36 407v115c26 8 57 12 81 12c67 0 99 -24 130 -98l53 -127l90 213h172l-180 -337l99 -199c11 -22 22 -42 45 -42h29v-119c-26 -8 -52 -12 -76 -12c-31 0 -81 7 -115 85l-67 154l-107 -233h-170l196 364l-95 194c-10 20 -19 30 -37 30h-48z" />
    <glyph glyph-name="upsilon" unicode="&#x3c5;" horiz-adv-x="571" 
d="M521 203c0 -160 -97 -219 -235 -219s-236 59 -236 219v319h155v-317c0 -71 25 -98 81 -98s81 27 81 98v317h154v-319z" />
    <glyph glyph-name="zeta" unicode="&#x3b6;" horiz-adv-x="459" 
d="M256 0c-130 0 -228 32 -228 186c0 142 97 290 245 397h-211v123h402v-114c-128 -83 -281 -211 -281 -374c0 -67 26 -90 120 -90c95 0 166 -20 166 -127c0 -67 -39 -123 -105 -172l-93 71c41 20 63 36 63 64c0 33 -17 36 -78 36z" />
    <glyph glyph-name="alphatonos" unicode="&#x3ac;" horiz-adv-x="605" 
d="M590 119v-115c-26 -8 -57 -12 -81 -12c-35 0 -87 12 -104 71c-34 -50 -81 -74 -158 -74c-110 0 -216 84 -216 266c0 135 64 281 221 281c70 0 116 -26 144 -69v55h140v-360c0 -39 10 -43 30 -43h24zM393 265c0 103 -46 159 -102 159c-80 0 -108 -89 -108 -162
c0 -98 50 -159 105 -159c56 0 105 53 105 162zM489 719l-153 -133h-102l73 133h182z" />
    <glyph glyph-name="upsilontonos" unicode="&#x3cd;" horiz-adv-x="571" 
d="M521 203c0 -160 -97 -219 -235 -219s-236 59 -236 219v319h155v-317c0 -71 25 -98 81 -98s81 27 81 98v317h154v-319zM478 719l-153 -133h-102l73 133h182z" />
    <glyph glyph-name="epsilontonos" unicode="&#x3ad;" horiz-adv-x="580" 
d="M297 422c-51 0 -73 -21 -73 -53c0 -36 28 -51 65 -51h81v-95h-86c-54 0 -81 -21 -81 -57c0 -48 40 -61 99 -61c63 0 96 18 116 78l142 -25c-26 -86 -76 -174 -263 -174c-176 0 -257 48 -257 151c0 65 38 126 136 142c-92 13 -113 75 -113 116c0 105 105 145 231 145
c160 0 241 -72 249 -177l-131 -14c-13 46 -33 75 -115 75zM499 719l-153 -133h-102l73 133h182z" />
    <glyph glyph-name="etatonos" unicode="&#x3ae;" horiz-adv-x="584" 
d="M96 534c64 0 104 -24 111 -82c33 54 92 83 165 83c106 0 162 -54 162 -160v-555h-154v502c0 49 -14 90 -76 90c-71 0 -81 -50 -81 -120v-292h-154v364c0 39 -10 43 -30 43h-24v115c26 8 57 12 81 12zM521 719l-153 -133h-102l73 133h182z" />
    <glyph glyph-name="iotatonos" unicode="&#x3af;" horiz-adv-x="275" 
d="M172 -12c-56 0 -124 12 -124 142v392h153v-360c0 -39 10 -43 30 -43h24v-119c-26 -8 -59 -12 -83 -12zM320 719l-153 -133h-102l73 133h182z" />
    <glyph glyph-name="omicrontonos" unicode="&#x3cc;" horiz-adv-x="625" 
d="M593 261c0 -169 -106 -277 -281 -277c-136 0 -280 74 -280 280c0 132 80 274 275 274c219 0 286 -152 286 -277zM437 256c0 111 -47 160 -131 160c-58 0 -119 -44 -119 -153c0 -87 37 -156 127 -156c85 0 123 71 123 149zM501 719l-153 -133h-102l73 133h182z" />
    <glyph glyph-name="upsilondieresistonos" unicode="&#x3b0;" horiz-adv-x="571" 
d="M521 203c0 -160 -97 -219 -235 -219s-236 59 -236 219v319h155v-317c0 -71 25 -98 81 -98s81 27 81 98v317h154v-319zM534 586h-140v116h140v-116zM381 731l-76 -145h-81l22 145h135zM192 586h-140v116h140v-116z" />
    <glyph glyph-name="iotadieresistonos" unicode="&#x390;" horiz-adv-x="275" 
d="M172 -12c-56 0 -124 12 -124 142v392h153v-360c0 -39 10 -43 30 -43h24v-119c-26 -8 -59 -12 -83 -12zM401 586h-140v116h140v-116zM248 731l-76 -145h-81l22 145h135zM59 586h-140v116h140v-116z" />
    <glyph glyph-name="upsilondieresis" unicode="&#x3cb;" horiz-adv-x="571" 
d="M521 203c0 -160 -97 -219 -235 -219s-236 59 -236 219v319h155v-317c0 -71 25 -98 81 -98s81 27 81 98v317h154v-319zM491 596h-158v124h158v-124zM239 596h-157v124h157v-124z" />
    <glyph glyph-name="iotadieresis" unicode="&#x3ca;" horiz-adv-x="275" 
d="M172 -12c-56 0 -124 12 -124 142v392h153v-360c0 -39 10 -43 30 -43h24v-119c-26 -8 -59 -12 -83 -12zM339 596h-158v124h158v-124zM87 596h-157v124h157v-124z" />
    <glyph glyph-name="omegatonos" unicode="&#x3ce;" horiz-adv-x="788" 
d="M756 253c0 -158 -62 -269 -202 -269c-67 0 -132 26 -161 102c-28 -76 -93 -102 -161 -102c-139 0 -200 109 -200 267c0 197 98 275 253 287v-121c-75 -8 -98 -61 -98 -163c0 -76 9 -147 70 -147c57 0 63 64 63 115v108h147v-105c0 -51 5 -118 64 -118c61 0 69 71 69 147
c0 102 -22 155 -97 163v121c157 -12 253 -89 253 -285zM591 719l-153 -133h-102l73 133h182z" />
    <glyph glyph-name="Imacron" horiz-adv-x="313" 
d="M243 0h-176v706h176v-706zM307 778h-301v101h301v-101z" />
    <glyph glyph-name="ibreve" horiz-adv-x="292" 
d="M221 0h-152v522h152v-522zM199 720h101c-11 -99 -67 -149 -154 -149c-76 0 -147 41 -155 149h101c0 -47 26 -61 52 -61s55 13 55 61z" />
    <glyph glyph-name="cyrbreve" horiz-adv-x="271" 
d="M189 720l102 -20c-11 -86 -66 -129 -156 -129c-80 0 -148 35 -156 129l102 20c0 -47 27 -61 54 -61c25 0 54 13 54 61z" />
    <glyph glyph-name="onefitted" horiz-adv-x="417" 
d="M16 473v104c41 3 75 6 112 25c44 23 57 49 70 76h122v-678h-161v495c-37 -16 -46 -20 -143 -22z" />
    <glyph glyph-name="anoteleia" unicode="&#x387;" horiz-adv-x="235" 
d="M198 206h-161v167h161v-167z" />
    <glyph glyph-name="phi.salt" horiz-adv-x="787" 
d="M287 417c-84 -15 -103 -95 -103 -154c0 -72 24 -153 134 -159v226c0 184 128 210 192 210c183 0 245 -125 245 -260c0 -153 -66 -281 -286 -291v-169h-151v169c-214 7 -286 124 -286 276c0 141 81 260 240 274zM469 323v-218c107 7 134 86 134 169c0 80 -21 142 -73 142
s-61 -51 -61 -93z" />
    <glyph glyph-name="xi.salt" horiz-adv-x="509" 
d="M305 717c67 0 166 -12 224 -121l-110 -62c-14 29 -44 75 -109 75c-34 0 -95 -15 -95 -84c0 -66 60 -93 114 -93h84v-108h-91c-78 0 -136 -27 -136 -102c0 -73 39 -98 137 -98c95 0 166 -17 166 -124c0 -67 -39 -122 -105 -171l-93 71c41 20 63 36 63 64
c0 33 -17 36 -78 36c-130 0 -248 35 -248 189c0 101 67 173 170 196c-65 14 -131 63 -131 156c0 116 106 176 238 176z" />
    <glyph glyph-name="alpha.salt" horiz-adv-x="607" 
d="M537 522v-441c0 -45 2 -62 15 -81h-143l-5 63c-34 -50 -79 -74 -156 -74c-110 0 -216 84 -216 266c0 135 64 281 221 281c70 0 116 -26 144 -69v55h140zM394 265c0 103 -46 159 -102 159c-80 0 -108 -89 -108 -162c0 -98 50 -159 105 -159c56 0 105 53 105 162z" />
    <glyph glyph-name="beta.salt" horiz-adv-x="605" 
d="M419 215c0 83 -42 115 -107 115h-21v94h9c33 0 90 21 90 103c0 52 -34 85 -91 85c-66 0 -89 -58 -89 -123v-246c0 -73 30 -142 107 -142c56 0 102 45 102 114zM202 0h-142v461c0 187 105 256 240 256c119 0 230 -59 230 -178c0 -83 -45 -133 -105 -151
c106 -22 150 -101 150 -190c0 -116 -97 -208 -236 -208c-61 0 -111 28 -137 65v-55z" />
    <glyph glyph-name="gamma.salt" horiz-adv-x="507" 
d="M333 0v-181h-158v181l-170 522h163l90 -364l86 364h158z" />
    <glyph glyph-name="eta.salt" horiz-adv-x="575" 
d="M525 0h-154v322c0 49 -14 90 -76 90c-71 0 -81 -50 -81 -120v-292h-154v522h156v-46c25 30 74 59 147 59c106 0 162 -54 162 -160v-375z" />
    <glyph glyph-name="iota.salt" horiz-adv-x="273" 
d="M213 0h-153v522h153v-522z" />
    <glyph glyph-name="kappa.salt" horiz-adv-x="599" 
d="M584 0h-178l-130 215l-66 -63v-152h-150v522h151v-189l180 189h185l-191 -196z" />
    <glyph glyph-name="lambda.salt" horiz-adv-x="508" 
d="M508 0h-159l-90 296l-93 -296h-166l195 485l-6 18c-23 62 -33 91 -78 91c-21 0 -41 -3 -63 -10v124c9 3 49 9 72 9c109 0 141 -33 183 -150z" />
    <glyph glyph-name="mu.salt" horiz-adv-x="590" 
d="M382 0v38c-19 -34 -55 -50 -83 -50c-31 0 -65 17 -84 57v-226h-155v703h155v-293c0 -72 19 -119 81 -119c49 0 81 22 81 139v273h153v-522h-148z" />
    <glyph glyph-name="nu.salt" horiz-adv-x="510" 
d="M505 522l-169 -522h-161l-170 522h163l93 -354l86 354h158z" />
    <glyph glyph-name="pi.salt1" horiz-adv-x="639" 
d="M599 404h-61v-404h-154v404h-129v-404h-154v404h-61v118h559v-118z" />
    <glyph glyph-name="tau.salt" horiz-adv-x="482" 
d="M457 404h-147v-237c0 -39 3 -55 51 -55c14 0 29 3 46 9v-120c-16 -4 -60 -13 -111 -13c-100 0 -138 46 -138 140v276h-138v118h437v-118z" />
    <glyph glyph-name="chi.salt" horiz-adv-x="540" 
d="M530 0h-164l-99 162l-87 -162h-170l177 283l-158 239h174l69 -133l74 133h165l-158 -244z" />
    <glyph glyph-name="alphatonos.salt" horiz-adv-x="607" 
d="M537 522v-441c0 -45 2 -62 15 -81h-143l-5 63c-34 -50 -79 -74 -156 -74c-110 0 -216 84 -216 266c0 135 64 281 221 281c70 0 116 -26 144 -69v55h140zM394 265c0 103 -46 159 -102 159c-80 0 -108 -89 -108 -162c0 -98 50 -159 105 -159c56 0 105 53 105 162zM490 719
l-153 -133h-102l73 133h182z" />
    <glyph glyph-name="etatonos.salt" horiz-adv-x="575" 
d="M525 0h-154v322c0 49 -14 90 -76 90c-71 0 -81 -50 -81 -120v-292h-154v522h156v-46c25 30 74 59 147 59c106 0 162 -54 162 -160v-375zM496 719l-153 -133h-102l73 133h182z" />
    <glyph glyph-name="iotatonos.salt" horiz-adv-x="273" 
d="M213 0h-153v522h153v-522zM332 719l-153 -133h-102l73 133h182z" />
    <glyph glyph-name="iotadieresis.salt" horiz-adv-x="273" 
d="M213 0h-153v522h153v-522zM351 596h-158v124h158v-124zM99 596h-157v124h157v-124z" />
    <glyph glyph-name="iotadieresistonos.salt" horiz-adv-x="273" 
d="M213 0h-153v522h153v-522zM405 586h-140v116h140v-116zM252 731l-76 -145h-81l22 145h135zM63 586h-140v116h140v-116z" />
    <glyph glyph-name="cyrBreve" horiz-adv-x="271" 
d="M193 900l118 -20c-11 -87 -76 -130 -176 -130c-90 0 -168 35 -176 130l118 20c0 -42 29 -54 58 -54c27 0 58 11 58 54z" />
    <glyph glyph-name="uni03A9.salt" horiz-adv-x="817" 
d="M758 388c0 -91 -41 -181 -137 -248h141v-140h-306v141c74 51 126 117 126 233c0 139 -79 206 -177 206s-173 -67 -173 -206c0 -116 50 -182 124 -233v-141h-301v140h141c-96 67 -137 157 -137 248c0 186 130 340 345 340s354 -154 354 -340z" />
    <glyph glyph-name="pi.salt" horiz-adv-x="636" 
d="M517 -12c-56 0 -124 12 -124 142v274h-139v-404h-154v404h-10c-11 0 -42 0 -75 -17v109c37 25 82 26 137 26h474v-118h-80v-242c0 -39 10 -43 30 -43h24v-119c-26 -8 -59 -12 -83 -12z" />
    <glyph glyph-name="uni03BC.salt" horiz-adv-x="603" 
d="M55 521h153v-234c0 -94 2 -172 79 -172c66 0 79 49 79 192v214h153v-351c0 -40 8 -55 31 -55c8 0 12 1 26 7v-122c-24 -8 -56 -12 -86 -12c-56 0 -87 22 -107 78c-19 -54 -44 -75 -91 -75c-42 0 -68 18 -87 58c0 0 3 -233 3 -265h-153v737z" />
    <glyph glyph-name="psi.salt" horiz-adv-x="800" 
d="M750 522v-292c0 -166 -119 -235 -274 -243v-168h-152v168c-155 8 -274 77 -274 243v292h155v-286c0 -100 58 -126 118 -131v419h153v-419c60 5 119 31 119 131v286h155z" />
    </font>
</defs>
</svg>
