<?xml version="1.0" standalone="no"?>
<!DOCTYPE svg PUBLIC "-//W3C//DTD SVG 1.1//EN" "http://www.w3.org/Graphics/SVG/1.1/DTD/svg11.dtd" >
<svg xmlns="http://www.w3.org/2000/svg" xmlns:xlink="http://www.w3.org/1999/xlink" version="1.1">
<metadata>
Created by FontForge 20141024 at Fri Mar 20 10:09:36 2015
 By System Administrator
Berthold first published Akzidenz-Grotesk in 1896. The design originates from Royal Grotesk light by Ferdinand Theinhardt who also supplied the regular, medium and bold weights. Throughout the years, Berthold has expanded this extremely popular and versatile family. AG Super was developed in 1968 by Guenter Gerhard Lange and is an excellent choice for headlines. In 2001, Guenter Gerhard Lange added more weights for Berthold including Super Italic and Extra Bold italic.
</metadata>
<defs>
<font id="AkzidenzGroteskPro-It" horiz-adv-x="542" >
  <font-face 
    font-family="Akzidenz-Grotesk Pro Regular"
    font-weight="400"
    font-style="italic"
    font-stretch="normal"
    units-per-em="1000"
    panose-1="2 0 5 3 5 0 0 9 0 4"
    ascent="750"
    descent="-250"
    x-height="471"
    cap-height="706"
    bbox="-117 -264 1304 998"
    underline-thickness="50"
    underline-position="-50"
    slope="-13"
    stemh="62"
    stemv="80"
    unicode-range="U+0020-FB02"
  />
<missing-glyph horiz-adv-x="500" 
d="M0 0v706h500v-706h-500zM250 401l170 255h-340zM280 353l170 -258v516zM80 50h340l-170 258zM50 611v-516l170 258z" />
    <glyph glyph-name="fi" unicode="fi" horiz-adv-x="500" 
d="M556 706l-21 -90h-82l21 90h82zM500 471l-108 -471h-80l109 471h79zM366 704l-14 -60c-16 3 -32 4 -37 4c-31 0 -39 -18 -49 -62l-27 -115h84l-13 -60h-85l-95 -411h-76l95 411h-75l14 60h74l30 130c24 105 83 114 115 114c26 0 53 -8 59 -11z" />
    <glyph glyph-name="fl" unicode="fl" horiz-adv-x="500" 
d="M553 706l-163 -706h-78l163 706h78zM366 704l-14 -60c-16 3 -32 4 -37 4c-31 0 -39 -18 -49 -62l-27 -115h84l-13 -60h-85l-95 -411h-76l95 411h-75l14 60h74l30 130c24 105 83 114 115 114c26 0 53 -8 59 -11z" />
    <glyph glyph-name=".notdef" horiz-adv-x="500" 
d="M0 0v706h500v-706h-500zM250 401l170 255h-340zM280 353l170 -258v516zM80 50h340l-170 258zM50 611v-516l170 258z" />
    <glyph glyph-name="space" unicode=" " horiz-adv-x="271" 
 />
    <glyph glyph-name="exclam" unicode="!" horiz-adv-x="271" 
d="M329 706l-54 -233l-78 -247h-47l37 259l51 221h91zM200 110l-26 -110h-99l25 110h100z" />
    <glyph glyph-name="quotedbl" unicode="&#x22;" horiz-adv-x="347" 
d="M439 743l-95 -294h-32l39 294h88zM270 743l-96 -294h-32l40 294h88z" />
    <glyph glyph-name="numbersign" unicode="#" horiz-adv-x="667" 
d="M695 491l-14 -77h-148l-35 -108h139l-14 -77h-150l-73 -229h-79l73 229h-111l-73 -229h-81l75 229h-138l13 77h149l35 108h-142l14 77h152l68 214h80l-68 -214h110l69 214h78l-67 -214h138zM453 414h-111l-35 -108h112z" />
    <glyph glyph-name="dollar" unicode="$" horiz-adv-x="667" 
d="M690 529l-91 -22c-15 96 -59 120 -120 138l-52 -242c61 -28 196 -66 196 -197c0 -117 -95 -219 -278 -219h-12l-22 -94h-68l22 98c-109 16 -206 82 -206 244l92 18c-1 -12 -1 -26 -1 -30c0 -82 57 -145 132 -161l65 282c-99 39 -179 85 -179 178c0 77 60 198 261 198
l18 77h67l-18 -81c108 -19 186 -81 194 -187zM366 433l47 216c-69 0 -152 -41 -152 -120c0 -51 45 -75 105 -96zM350 57c88 0 182 51 182 143c0 72 -69 93 -122 118z" />
    <glyph glyph-name="percent" unicode="%" horiz-adv-x="917" 
d="M700 669l-362 -698l-44 23l363 697zM91 389c0 120 61 284 206 284c128 0 138 -138 138 -175c0 -102 -57 -282 -206 -282c-51 0 -138 31 -138 173zM151 374c0 -66 31 -113 82 -113c79 0 142 125 142 245c0 59 -16 121 -80 121c-91 0 -144 -137 -144 -253zM563 165
c0 120 61 284 206 284c128 0 139 -138 139 -175c0 -102 -58 -282 -207 -282c-51 0 -138 31 -138 173zM623 150c0 -85 49 -113 82 -113c79 0 142 125 142 245c0 87 -33 122 -80 122c-73 0 -144 -111 -144 -254z" />
    <glyph glyph-name="ampersand" unicode="&#x26;" horiz-adv-x="625" 
d="M549 278l65 -41c-41 -59 -64 -89 -116 -136c30 -19 38 -22 89 -39l-18 -74c-33 8 -73 20 -136 62c-33 -22 -89 -59 -186 -59c-12 0 -52 0 -88 14c-64 25 -104 83 -104 151c0 105 97 190 163 231c-1 9 -9 53 -9 90c0 65 22 142 76 183c41 31 85 35 103 35
c40 0 137 -24 137 -119c0 -27 -12 -74 -59 -120c-37 -36 -71 -53 -156 -102c33 -72 65 -138 131 -202c33 30 58 56 108 126zM294 426c43 24 60 26 110 75c32 31 43 54 43 76c0 47 -46 53 -58 53c-17 0 -50 -8 -73 -45c-17 -26 -27 -74 -27 -105c0 -18 3 -36 5 -54zM372 107
c-80 87 -114 167 -131 206c-16 -11 -97 -67 -97 -153c0 -67 49 -97 103 -97c26 0 82 10 125 44z" />
    <glyph glyph-name="quotesingle" unicode="'" horiz-adv-x="177" 
d="M270 743l-96 -294h-32l40 294h88z" />
    <glyph glyph-name="parenleft" unicode="(" horiz-adv-x="315" 
d="M446 800l31 -44c-201 -126 -308 -318 -308 -554c0 -131 30 -228 106 -320l-44 -42c-101 105 -149 224 -149 371c0 258 146 468 364 589z" />
    <glyph glyph-name="parenright" unicode=")" horiz-adv-x="315" 
d="M123 757l44 42c101 -105 148 -224 148 -371c0 -258 -144 -466 -363 -589l-31 44c198 131 308 317 308 554c0 130 -33 232 -106 320z" />
    <glyph glyph-name="asterisk" unicode="*" horiz-adv-x="349" 
d="M421 549l-110 -11l43 -96l-56 -24l-44 97l-77 -69l-41 46l77 69l-91 51l30 52l93 -51l24 101l60 -14l-24 -102l108 9z" />
    <glyph glyph-name="plus" unicode="+" horiz-adv-x="724" 
d="M681 340l-18 -77h-225l-52 -230h-88l53 230h-224l18 77h224l52 228h88l-53 -228h225z" />
    <glyph glyph-name="comma" unicode="," horiz-adv-x="229" 
d="M57 110h95c-12 -95 -43 -184 -95 -264h-49c30 53 51 94 64 154h-41z" />
    <glyph glyph-name="hyphen" unicode="-" horiz-adv-x="370" 
d="M368 338l-17 -76h-281l18 76h280z" />
    <glyph glyph-name="period" unicode="." horiz-adv-x="229" 
d="M157 110l-22 -110h-101l23 110h100z" />
    <glyph glyph-name="slash" unicode="/" horiz-adv-x="313" 
d="M385 706l-287 -706h-80l289 706h78z" />
    <glyph glyph-name="zero" unicode="0" horiz-adv-x="583" 
d="M76 248c0 214 115 429 309 429c150 0 209 -128 209 -265c0 -186 -107 -424 -310 -424c-124 0 -208 94 -208 260zM162 226c0 -113 57 -174 126 -174c142 0 221 224 221 374c0 160 -78 187 -125 187c-128 0 -222 -190 -222 -387z" />
    <glyph glyph-name="one" unicode="1" horiz-adv-x="583" 
d="M476 677l-156 -677h-83l120 518c-30 -18 -85 -30 -128 -30c-17 0 -34 1 -51 3l16 68c3 0 20 -1 37 -1c130 0 154 87 163 119h82z" />
    <glyph glyph-name="two" unicode="2" horiz-adv-x="583" 
d="M30 0l20 86c91 49 185 109 269 174c33 25 157 128 157 243c0 76 -55 106 -108 106c-66 0 -140 -51 -140 -163c0 -20 2 -32 3 -42l-91 19v12c0 139 76 242 229 242c78 0 196 -37 196 -172c0 -48 -13 -123 -87 -208c-36 -42 -132 -135 -334 -227c0 0 334 5 358 5l-17 -75
h-455z" />
    <glyph glyph-name="three" unicode="3" horiz-adv-x="583" 
d="M220 311l17 68c10 -1 22 -2 44 -2c83 0 196 27 196 133c0 69 -55 100 -112 100c-102 0 -131 -81 -138 -115c-3 -17 -3 -28 -4 -35l-92 17c3 15 12 61 35 100c57 97 169 100 200 100c154 0 198 -102 198 -169c0 -95 -79 -161 -175 -165c89 -10 142 -74 142 -156
c0 -147 -145 -199 -248 -199c-166 0 -238 111 -238 212l90 10c4 -65 36 -155 156 -155c91 0 150 59 150 133c0 44 -24 81 -64 101c-37 19 -75 20 -157 22z" />
    <glyph glyph-name="four" unicode="4" horiz-adv-x="583" 
d="M554 254l-17 -72h-91l-42 -182h-79l42 182h-308l16 72l397 423h82l-91 -423h91zM464 580l-292 -326h212z" />
    <glyph glyph-name="five" unicode="5" horiz-adv-x="583" 
d="M587 665l-17 -71h-307l-56 -209c29 29 71 71 157 71c117 0 190 -83 190 -195c0 -76 -33 -153 -88 -205c-65 -61 -135 -68 -183 -68c-43 0 -108 6 -165 54c-62 53 -68 117 -71 145l82 13c18 -126 106 -146 151 -146c101 0 188 86 188 203c0 91 -56 131 -116 131
c-64 0 -120 -42 -145 -80l-89 14l93 343h376z" />
    <glyph glyph-name="six" unicode="6" horiz-adv-x="583" 
d="M622 517l-86 -17c-4 58 -48 107 -117 107c-151 0 -223 -193 -239 -286c26 42 79 127 198 127c115 0 194 -79 194 -201c0 -112 -74 -259 -253 -259c-150 0 -225 111 -225 269c0 131 58 255 116 319c48 54 123 101 211 101c61 0 103 -22 128 -40c58 -42 68 -95 73 -120z
M192 195c0 -77 48 -140 131 -140c104 0 166 98 166 190c0 90 -53 134 -122 134c-111 0 -175 -99 -175 -184z" />
    <glyph glyph-name="seven" unicode="7" horiz-adv-x="583" 
d="M162 665h414c-1 -17 -5 -44 -18 -82c-19 -59 -52 -102 -113 -209c-98 -174 -141 -288 -163 -374h-100c27 94 95 243 159 350c20 33 41 65 63 98c27 40 65 101 73 148h-255l-29 -125h-76z" />
    <glyph glyph-name="eight" unicode="8" horiz-adv-x="583" 
d="M446 351c67 -16 106 -83 106 -146c0 -106 -83 -217 -262 -217c-148 0 -220 82 -220 176c0 90 67 171 147 187c-21 11 -79 41 -79 123c0 94 73 203 235 203c116 0 201 -61 201 -164c0 -89 -61 -143 -128 -162zM222 481c0 -43 26 -101 121 -101c101 0 147 73 147 129
c0 63 -49 102 -122 102c-105 0 -146 -80 -146 -130zM154 168c0 -78 69 -119 141 -119c92 0 173 65 173 153c0 64 -55 117 -134 117c-90 0 -180 -57 -180 -151z" />
    <glyph glyph-name="nine" unicode="9" horiz-adv-x="583" 
d="M42 151l82 10c16 -76 72 -104 127 -104c150 0 214 159 236 278c-16 -26 -72 -121 -197 -121c-118 0 -193 83 -193 198c0 132 90 265 258 265c153 0 220 -117 220 -258c0 -189 -103 -431 -329 -431c-90 0 -193 47 -204 163zM180 413c0 -89 57 -130 121 -130
c77 0 178 57 178 188c0 85 -49 140 -127 140c-123 0 -172 -120 -172 -198z" />
    <glyph glyph-name="colon" unicode=":" horiz-adv-x="271" 
d="M280 492l-25 -111h-98l25 111h98zM199 111l-26 -111h-99l26 111h99z" />
    <glyph glyph-name="semicolon" unicode=";" horiz-adv-x="271" 
d="M280 492l-25 -110h-101l26 110h100zM99 109h98c-11 -85 -46 -193 -94 -264h-50c26 50 49 100 63 155h-42z" />
    <glyph glyph-name="less" unicode="&#x3c;" horiz-adv-x="724" 
d="M690 584l-23 -94l-427 -189l341 -189l-20 -86l-412 236l21 90z" />
    <glyph glyph-name="equal" unicode="=" horiz-adv-x="724" 
d="M692 428l-18 -77h-526l19 77h525zM649 240l-18 -76h-526l18 76h526z" />
    <glyph glyph-name="greater" unicode="&#x3e;" horiz-adv-x="724" 
d="M639 339l-21 -90l-520 -232l23 95l427 188l-341 190l20 85z" />
    <glyph glyph-name="question" unicode="?" 
d="M269 112h92l-25 -112h-92zM291 176l50 215h13c80 0 152 45 152 132c0 77 -54 118 -124 118c-110 0 -152 -87 -153 -160l-87 14c10 118 91 218 236 218s217 -94 217 -189c0 -87 -53 -182 -192 -199l-34 -149h-78z" />
    <glyph glyph-name="at" unicode="@" horiz-adv-x="862" 
d="M793 77l30 -41c-106 -103 -238 -160 -371 -160c-220 0 -372 140 -372 342c0 270 218 494 480 494c174 0 285 -108 285 -276c0 -183 -123 -366 -246 -366c-49 0 -77 30 -78 85c-46 -60 -95 -84 -145 -84c-78 0 -126 59 -126 153c0 151 107 293 221 293
c50 0 88 -23 112 -84l17 62h68s-53 -212 -62 -258c-8 -40 -10 -47 -10 -66c0 -27 10 -41 29 -41c21 0 56 25 83 61c49 66 79 157 79 242c0 138 -91 225 -238 225c-219 0 -413 -205 -413 -438c0 -175 126 -289 318 -289c69 0 134 14 199 47c50 26 84 48 140 99zM555 353
c0 60 -27 101 -79 101c-74 0 -147 -110 -147 -223c0 -59 29 -95 77 -95c82 0 149 122 149 217z" />
    <glyph glyph-name="A" unicode="A" horiz-adv-x="667" 
d="M607 0h-91l-25 222h-268l-128 -222h-95l409 706h108zM483 295l-35 353l-183 -353h218z" />
    <glyph glyph-name="B" unicode="B" horiz-adv-x="708" 
d="M220 706h274c152 0 212 -76 212 -164c0 -121 -101 -165 -173 -174c72 -1 141 -56 141 -149c0 -56 -37 -219 -262 -219h-355zM291 634l-53 -227h216c115 0 161 65 161 131c0 42 -25 96 -99 96h-225zM161 74h244c144 0 177 86 177 150c0 78 -67 109 -136 109h-225z" />
    <glyph glyph-name="C" unicode="C" horiz-adv-x="771" 
d="M777 505l-89 -17c-17 67 -69 161 -219 161c-223 0 -287 -219 -287 -339c0 -135 59 -251 226 -251c127 0 212 70 262 186l89 -12c-66 -163 -197 -246 -355 -246c-142 0 -317 72 -317 325c0 220 143 408 383 408c198 0 279 -111 307 -215z" />
    <glyph glyph-name="D" unicode="D" horiz-adv-x="729" 
d="M58 0l163 706h241c160 0 270 -89 270 -273c0 -174 -95 -433 -378 -433h-296zM163 72h176c61 0 136 6 203 80c92 102 102 239 102 280c0 12 0 83 -32 131c-42 63 -113 71 -179 71h-141z" />
    <glyph glyph-name="E" unicode="E" horiz-adv-x="625" 
d="M678 706l-17 -75h-370l-54 -233h339l-16 -70h-339l-59 -253h420l-17 -75h-509l163 706h459z" />
    <glyph glyph-name="F" unicode="F" horiz-adv-x="562" 
d="M675 706l-17 -74h-367l-53 -230h342l-17 -72h-342l-76 -330h-88l163 706h455z" />
    <glyph glyph-name="G" unicode="G" horiz-adv-x="792" 
d="M797 504l-94 -12c-17 50 -62 153 -208 153c-226 0 -307 -206 -307 -343c0 -106 46 -243 219 -243c138 0 237 81 262 234h-265l16 73h345l-84 -366h-80l20 88c-40 -69 -140 -101 -229 -101c-201 0 -298 145 -298 315c0 267 194 418 400 418c138 0 269 -72 303 -216z" />
    <glyph glyph-name="H" unicode="H" horiz-adv-x="750" 
d="M785 706l-163 -706h-87l78 337h-390l-78 -337h-87l163 706h87l-68 -295h390l68 295h87z" />
    <glyph glyph-name="I" unicode="I" horiz-adv-x="271" 
d="M306 706l-163 -706h-86l163 706h86z" />
    <glyph glyph-name="J" unicode="J" horiz-adv-x="437" 
d="M477 706l-112 -485c-30 -132 -64 -234 -228 -234c-64 0 -90 9 -120 19l19 85c26 -12 56 -24 101 -24c107 0 127 95 145 175l107 464h88z" />
    <glyph glyph-name="K" unicode="K" horiz-adv-x="646" 
d="M766 706l-335 -267l194 -439h-96l-168 384l-158 -125l-60 -259h-85l163 706h85l-77 -332l419 332h118z" />
    <glyph glyph-name="L" unicode="L" 
d="M497 76l-17 -76h-423l163 706h88l-146 -630h335z" />
    <glyph glyph-name="M" unicode="M" horiz-adv-x="833" 
d="M868 706l-163 -706h-84l153 600l-343 -600h-95l-67 611l-127 -611h-84l163 706h105l72 -632l366 632h104z" />
    <glyph glyph-name="N" unicode="N" horiz-adv-x="729" 
d="M763 706l-163 -706h-91l-234 613l-133 -613h-85l163 706h95l231 -611l133 611h84z" />
    <glyph glyph-name="O" unicode="O" horiz-adv-x="792" 
d="M96 308c0 231 147 412 381 412c211 0 316 -145 316 -322c0 -239 -171 -411 -386 -411c-193 0 -311 135 -311 321zM191 307c0 -137 82 -250 222 -250c188 0 287 176 287 346c0 175 -110 247 -223 247c-214 0 -286 -206 -286 -343z" />
    <glyph glyph-name="P" unicode="P" horiz-adv-x="646" 
d="M56 0l163 706h285c114 0 201 -59 201 -180c0 -130 -96 -225 -281 -225h-211l-69 -301h-88zM230 375h165c69 0 139 1 188 58c32 37 34 74 34 92c0 62 -40 106 -114 106h-213z" />
    <glyph glyph-name="Q" unicode="Q" horiz-adv-x="792" 
d="M746 29l-63 -60l-96 76c-31 -24 -105 -58 -198 -58c-195 0 -304 152 -304 324c0 194 132 409 374 409c149 0 309 -91 309 -321c0 -143 -59 -244 -112 -298zM675 399c0 138 -69 252 -215 252c-189 0 -280 -181 -280 -347c0 -223 163 -247 213 -247c153 0 282 140 282 342z
" />
    <glyph glyph-name="R" unicode="R" horiz-adv-x="667" 
d="M57 0l163 706h285c47 0 83 -2 125 -29c69 -43 76 -120 76 -150c0 -108 -73 -190 -196 -208l122 -319h-96l-114 307h-207l-71 -307h-87zM232 381h205c132 0 180 76 180 147c0 58 -39 103 -114 103h-213z" />
    <glyph glyph-name="S" unicode="S" horiz-adv-x="667" 
d="M691 530l-87 -21c-13 78 -57 143 -172 143c-105 0 -170 -53 -170 -121c0 -58 52 -80 125 -109l81 -32c89 -35 156 -84 156 -181c0 -82 -52 -222 -282 -222c-116 0 -281 33 -281 241l94 18c0 -4 -1 -10 -1 -18c0 -87 50 -175 185 -175c140 0 194 77 194 143
c0 64 -50 90 -111 114l-86 34c-59 23 -167 62 -167 177c0 166 174 199 267 199c120 0 241 -47 255 -190z" />
    <glyph glyph-name="T" unicode="T" 
d="M660 706l-17 -76h-216l-145 -630h-89l150 630h-218l17 76h518z" />
    <glyph glyph-name="U" unicode="U" horiz-adv-x="708" 
d="M754 706l-98 -424c-36 -156 -90 -295 -310 -295c-157 0 -239 84 -239 205c0 32 6 85 23 158l82 356h88l-85 -365c-10 -42 -18 -109 -18 -135c0 -118 85 -144 154 -144c147 0 188 91 226 256l89 388h88z" />
    <glyph glyph-name="V" unicode="V" horiz-adv-x="583" 
d="M692 706l-389 -706h-93l-68 706h89l46 -604l321 604h94z" />
    <glyph glyph-name="W" unicode="W" horiz-adv-x="1000" 
d="M1111 706l-375 -706h-81l-53 613l-312 -613h-89l-73 706h85l57 -594l306 594h85l56 -594l302 594h92z" />
    <glyph glyph-name="X" unicode="X" horiz-adv-x="583" 
d="M685 706l-296 -349l149 -357h-93l-120 294l-241 -294h-103l314 369l-138 337h91l109 -273l224 273h104z" />
    <glyph glyph-name="Y" unicode="Y" horiz-adv-x="583" 
d="M707 706l-359 -399l-70 -307h-89l73 317l-121 389h89l95 -319l276 319h106z" />
    <glyph glyph-name="Z" unicode="Z" horiz-adv-x="583" 
d="M646 706l-18 -79l-512 -550h450l-18 -77h-549l21 90l502 537h-383l18 79h489z" />
    <glyph glyph-name="bracketleft" unicode="[" horiz-adv-x="277" 
d="M410 779l-14 -59h-104l-186 -805h104l-14 -59h-184l213 923h185z" />
    <glyph glyph-name="backslash" unicode="\" horiz-adv-x="375" 
d="M341 0h-80l-132 706h78z" />
    <glyph glyph-name="bracketright" unicode="]" horiz-adv-x="277" 
d="M338 779l-213 -923h-184l14 60h104l185 805h-104l14 58h184z" />
    <glyph glyph-name="asciicircum" unicode="^" horiz-adv-x="724" 
d="M634 287h-87l-79 338l-233 -338h-98l297 419h91z" />
    <glyph glyph-name="underscore" unicode="_" horiz-adv-x="500" 
d="M447 -139l-17 -75h-520l18 75h519z" />
    <glyph glyph-name="grave" unicode="`" horiz-adv-x="292" 
d="M220 531h-53l-95 152h101z" />
    <glyph glyph-name="a" unicode="a" horiz-adv-x="500" 
d="M470 69l-15 -65c-24 -6 -34 -7 -47 -7c-24 0 -69 10 -69 59c0 4 0 9 1 13c-16 -30 -64 -79 -164 -79c-110 0 -140 70 -140 117c0 78 56 135 148 153c61 12 133 18 195 31c4 19 10 43 10 62c0 34 -21 67 -91 67c-101 0 -112 -77 -115 -95l-89 8c22 62 61 147 215 147
c66 0 161 -30 161 -113c0 -23 -4 -45 -9 -67l-43 -185c-2 -9 -4 -19 -4 -29c0 -20 13 -24 25 -24c8 0 15 1 31 7zM365 230l-17 -2c-93 -11 -225 -26 -225 -114c0 -28 18 -65 80 -65c31 0 77 15 101 34c38 30 44 75 48 91z" />
    <glyph glyph-name="b" unicode="b" horiz-adv-x="562" 
d="M208 706h76l-70 -305c38 54 93 79 155 79c117 0 173 -94 173 -197c0 -89 -46 -292 -257 -292c-71 0 -129 26 -144 96l-20 -87h-77zM170 175c0 -104 71 -125 113 -125c116 0 180 127 180 235c0 67 -33 130 -117 130c-38 0 -109 -16 -147 -104c-17 -38 -29 -96 -29 -136z
" />
    <glyph glyph-name="c" unicode="c" horiz-adv-x="509" 
d="M509 340l-74 -17c-8 32 -25 96 -112 96c-137 0 -180 -161 -180 -228c0 -70 35 -145 124 -145c55 0 114 32 139 107l82 -11c-31 -73 -90 -154 -227 -154c-80 0 -199 37 -199 198c0 168 112 297 262 297c90 0 178 -47 185 -143z" />
    <glyph glyph-name="d" unicode="d" horiz-adv-x="562" 
d="M616 706l-163 -706h-77l14 64c-27 -39 -74 -73 -147 -73c-131 0 -180 96 -180 199c0 154 99 290 258 290c70 0 136 -32 142 -100l76 326h77zM145 193c0 -87 44 -141 118 -141c119 0 173 145 173 247c0 58 -29 119 -112 119c-100 0 -179 -98 -179 -225z" />
    <glyph glyph-name="e" unicode="e" horiz-adv-x="521" 
d="M494 227h-353c-1 -7 -2 -19 -2 -33c0 -129 98 -145 133 -145c53 0 112 33 134 96l75 -13c-16 -45 -80 -144 -225 -144c-127 0 -194 85 -194 201c0 163 106 294 260 294c110 0 178 -66 178 -193c0 -19 0 -31 -6 -63zM156 285h266c0 4 1 11 1 19c0 71 -44 118 -106 118
c-77 0 -141 -66 -161 -137z" />
    <glyph glyph-name="f" unicode="f" horiz-adv-x="271" 
d="M366 704l-14 -60c-16 3 -32 4 -37 4c-31 0 -39 -18 -49 -62l-27 -115h84l-13 -60h-85l-95 -411h-76l95 411h-75l14 60h74l30 130c24 105 83 114 115 114c26 0 53 -8 59 -11z" />
    <glyph glyph-name="g" unicode="g" 
d="M465 471h76l-102 -445c-37 -162 -96 -246 -239 -246c-92 0 -187 43 -187 145c0 8 1 16 3 32l80 9c-5 -19 -6 -25 -6 -36c0 -39 30 -90 113 -90c110 0 135 89 165 208c-27 -24 -64 -57 -137 -57c-126 0 -169 109 -169 195c0 84 50 294 252 294c88 0 122 -56 136 -78z
M143 186c0 -107 63 -135 111 -135c135 0 165 193 165 248c0 49 -16 119 -101 119c-133 0 -175 -151 -175 -232z" />
    <glyph glyph-name="h" unicode="h" 
d="M45 0l163 706h78l-73 -315c30 46 81 92 167 92c88 0 133 -48 133 -111c0 -30 -9 -67 -11 -77l-68 -295h-79l70 304c6 24 7 34 7 47c0 45 -34 68 -77 68c-62 0 -141 -32 -176 -180l-56 -239h-78z" />
    <glyph glyph-name="i" unicode="i" horiz-adv-x="229" 
d="M285 706l-21 -90h-82l21 90h82zM229 471l-108 -471h-80l109 471h79z" />
    <glyph glyph-name="j" unicode="j" horiz-adv-x="229" 
d="M286 706l-21 -89h-79l20 89h80zM232 471l-127 -547c-26 -114 -46 -152 -149 -152c-28 0 -41 2 -53 4l15 64c9 -1 15 -2 32 -2c53 0 60 21 75 85l131 548h76z" />
    <glyph glyph-name="k" unicode="k" horiz-adv-x="479" 
d="M536 471l-242 -190l180 -281h-96l-145 231l-74 -57l-40 -174h-78l163 706h78l-100 -431l249 196h105z" />
    <glyph glyph-name="l" unicode="l" horiz-adv-x="229" 
d="M282 706l-163 -706h-78l163 706h78z" />
    <glyph glyph-name="m" unicode="m" horiz-adv-x="792" 
d="M152 471h77l-18 -76c34 48 76 88 155 88c57 0 105 -30 112 -88c22 31 74 88 165 88c50 0 119 -25 119 -113c0 -29 -11 -77 -14 -90l-64 -280h-77l63 276c5 22 14 57 14 80c0 44 -33 65 -73 65c-59 0 -121 -35 -147 -147l-63 -274h-77l55 240c8 34 22 84 22 113
c0 43 -23 68 -71 68s-121 -31 -153 -172l-57 -249h-77z" />
    <glyph glyph-name="n" unicode="n" 
d="M150 471h79l-16 -68c18 19 75 80 162 80c40 0 135 -23 135 -120c0 -24 -6 -56 -11 -79l-66 -284h-78l67 291c6 24 7 36 7 54c0 50 -34 75 -81 75c-108 0 -148 -76 -174 -188l-54 -232h-79z" />
    <glyph glyph-name="o" unicode="o" 
d="M62 195c0 131 84 288 264 288c125 0 196 -94 196 -210c0 -137 -94 -285 -262 -285c-127 0 -198 91 -198 207zM142 189c0 -106 63 -141 118 -141c109 0 182 118 182 235c0 123 -83 139 -115 139c-123 0 -185 -126 -185 -233z" />
    <glyph glyph-name="p" unicode="p" 
d="M152 471h78l-14 -59c21 26 59 68 140 68c27 0 170 -9 170 -187c0 -117 -67 -302 -248 -302c-25 0 -105 0 -138 90l-69 -296h-77zM448 294c0 96 -64 123 -111 123c-35 0 -101 -16 -138 -99c-19 -42 -32 -105 -32 -151c0 -83 56 -112 108 -112c80 0 173 83 173 239z" />
    <glyph glyph-name="q" unicode="q" 
d="M541 471l-158 -686h-77l64 280c-25 -33 -60 -74 -139 -74c-81 0 -168 56 -168 196c0 176 117 293 248 293c74 0 125 -32 134 -91l19 82h77zM145 186c0 -101 59 -131 105 -131c40 0 95 20 130 87c22 41 41 123 41 173c0 62 -42 103 -104 103c-97 0 -172 -101 -172 -232z
" />
    <glyph glyph-name="r" unicode="r" horiz-adv-x="313" 
d="M42 0l108 471h77l-19 -83c32 56 78 92 140 92c6 0 18 -1 18 -1l-17 -75s-12 1 -21 1c-26 0 -65 -5 -101 -48c-40 -47 -55 -122 -58 -136l-51 -221h-76z" />
    <glyph glyph-name="s" unicode="s" horiz-adv-x="479" 
d="M49 162l80 13c-1 -6 -6 -22 -6 -40c0 -66 49 -88 111 -88c71 0 120 32 120 83c0 32 -20 48 -71 68l-83 32c-59 23 -97 58 -97 113c0 58 48 140 189 140c138 0 166 -74 166 -124c0 -6 0 -11 -1 -18l-76 -13c1 3 3 14 3 27c0 39 -37 70 -91 70c-74 0 -107 -40 -107 -72
c0 -34 26 -45 72 -63l77 -30c57 -22 103 -50 103 -116c0 -43 -26 -156 -200 -156c-135 0 -192 58 -192 143c0 8 0 15 3 31z" />
    <glyph glyph-name="t" unicode="t" horiz-adv-x="271" 
d="M321 471l-13 -61h-84l-59 -258c-6 -28 -11 -49 -11 -60c0 -24 13 -30 35 -30c16 0 31 4 54 8l-14 -59c-13 -6 -42 -14 -76 -14c-44 0 -78 19 -78 67c0 17 3 37 11 73l64 273h-76l14 61h75l35 149h75l-35 -149h83z" />
    <glyph glyph-name="u" unicode="u" 
d="M543 471l-109 -471h-75l17 74c-40 -53 -106 -83 -172 -83c-89 0 -130 53 -130 111c0 25 10 65 15 89l64 280h79l-65 -280c-9 -38 -10 -51 -10 -69c0 -40 28 -66 84 -66c19 0 74 4 114 47c38 41 50 94 62 146l51 222h75z" />
    <glyph glyph-name="v" unicode="v" horiz-adv-x="458" 
d="M516 471l-291 -471h-83l-46 471h74l32 -389l228 389h86z" />
    <glyph glyph-name="w" unicode="w" horiz-adv-x="750" 
d="M806 471l-273 -471h-77l-32 384l-204 -384h-77l-46 471h75l31 -385l201 385h77l34 -385l208 385h83z" />
    <glyph glyph-name="x" unicode="x" horiz-adv-x="437" 
d="M503 471l-218 -237l69 -234h-77l-46 180l-160 -180h-94l227 245l-67 226h76l46 -171l153 171h91z" />
    <glyph glyph-name="y" unicode="y" horiz-adv-x="458" 
d="M509 471l-356 -602c-53 -89 -85 -100 -157 -100c-28 0 -41 2 -50 3l16 68c12 -1 25 -2 37 -2c55 0 72 31 95 71l58 99l-53 463h78l37 -376l208 376h87z" />
    <glyph glyph-name="z" unicode="z" horiz-adv-x="458" 
d="M479 471l-17 -74l-345 -329h299l-16 -68h-401l15 63l356 340h-266l15 68h360z" />
    <glyph glyph-name="braceleft" unicode="{" horiz-adv-x="281" 
d="M413 782l-14 -57h-17c-60 0 -73 -23 -90 -95l-42 -181c-20 -88 -47 -121 -112 -135c39 -14 57 -39 57 -80c0 -16 -3 -36 -8 -58l-36 -158c-10 -44 -12 -51 -12 -64c0 -30 18 -44 56 -44h16l-13 -58h-38c-64 0 -101 36 -101 95c0 19 2 34 12 78l37 156c5 20 8 41 8 51
c0 35 -17 49 -68 56l13 60c70 2 89 15 110 106l37 161c31 134 54 167 172 167h33z" />
    <glyph glyph-name="bar" unicode="|" horiz-adv-x="236" 
d="M304 779l-213 -922h-80l212 922h81z" />
    <glyph glyph-name="braceright" unicode="}" horiz-adv-x="281" 
d="M309 347l-14 -60c-67 -2 -89 -15 -110 -106l-37 -162c-28 -124 -48 -167 -166 -167h-39l14 58h17c66 0 75 33 89 92l43 183c21 88 48 122 112 136c-39 13 -57 39 -57 79c0 17 3 36 8 58l36 158c10 44 12 51 12 64c0 31 -18 45 -56 45h-16l13 57h38c64 0 101 -35 101 -95
c0 -19 -2 -33 -12 -77l-37 -157c-4 -19 -8 -41 -8 -50c0 -36 17 -50 69 -56z" />
    <glyph glyph-name="asciitilde" unicode="~" horiz-adv-x="724" 
d="M701 315c-76 -74 -130 -99 -185 -99c-33 0 -61 8 -114 38l-32 18c-40 23 -68 30 -96 30c-41 0 -60 -14 -118 -68l-12 -11l-40 67c72 74 115 99 180 99c36 0 61 -9 108 -33l57 -29c41 -21 53 -25 73 -25c38 0 77 18 139 79z" />
    <glyph glyph-name="Adieresis" unicode="&#xc4;" horiz-adv-x="667" 
d="M607 0h-91l-25 222h-268l-128 -222h-95l409 706h108zM483 295l-35 353l-183 -353h218zM629 880l-24 -103h-91l24 103h91zM435 880l-23 -103h-92l24 103h91z" />
    <glyph glyph-name="Aring" unicode="&#xc5;" horiz-adv-x="667" 
d="M607 0h-91l-25 222h-268l-128 -222h-95l409 706h108zM483 295l-35 353l-183 -353h218zM565 857c0 -50 -40 -90 -90 -90s-90 40 -90 90c0 51 40 90 90 90s90 -40 90 -90zM523 856c0 27 -21 47 -48 47c-26 0 -47 -21 -47 -47c0 -27 21 -48 48 -48c26 0 47 22 47 48z" />
    <glyph glyph-name="Ccedilla" unicode="&#xc7;" horiz-adv-x="771" 
d="M777 505l-89 -17c-2 8 -13 48 -37 81c-47 64 -124 80 -181 80c-203 0 -288 -184 -288 -341c0 -143 69 -249 228 -249c114 0 173 54 215 109c10 13 33 43 45 77l89 -12c-96 -228 -274 -242 -334 -245l-22 -31c3 -1 16 -3 28 -9c46 -25 48 -67 48 -77
c0 -60 -54 -108 -125 -108c-24 0 -49 5 -56 6l7 29c5 0 22 -1 32 -1c42 0 54 24 54 41c0 35 -41 49 -75 55l71 95c-41 4 -74 7 -113 21c-97 36 -187 127 -187 302c0 218 140 409 383 409c126 0 261 -46 307 -215z" />
    <glyph glyph-name="Eacute" unicode="&#xc9;" horiz-adv-x="625" 
d="M678 706l-17 -75h-370l-54 -233h339l-16 -70h-339l-59 -253h420l-17 -75h-509l163 706h459zM609 895l-145 -127h-67l87 127h125z" />
    <glyph glyph-name="Ntilde" unicode="&#xd1;" horiz-adv-x="729" 
d="M763 706l-163 -706h-91l-234 613l-133 -613h-85l163 706h95l231 -611l133 611h84zM620 887l40 -21c-27 -58 -49 -83 -91 -83c-36 0 -82 34 -115 34c-17 0 -32 -8 -46 -37l-43 18c32 66 61 85 96 85c30 0 74 -33 113 -33c15 0 29 8 46 37z" />
    <glyph glyph-name="Odieresis" unicode="&#xd6;" horiz-adv-x="792" 
d="M96 308c0 231 147 412 381 412c211 0 316 -145 316 -322c0 -239 -171 -411 -386 -411c-193 0 -311 135 -311 321zM191 307c0 -137 82 -250 222 -250c188 0 287 176 287 346c0 175 -110 247 -223 247c-214 0 -286 -206 -286 -343zM658 880l-24 -103h-91l24 103h91z
M464 880l-23 -103h-92l24 103h91z" />
    <glyph glyph-name="Udieresis" unicode="&#xdc;" horiz-adv-x="708" 
d="M754 706l-98 -424c-36 -156 -90 -295 -310 -295c-157 0 -239 84 -239 205c0 32 6 85 23 158l82 356h88l-85 -365c-10 -42 -18 -109 -18 -135c0 -118 85 -144 154 -144c147 0 188 91 226 256l89 388h88zM666 880l-24 -103h-91l24 103h91zM472 880l-23 -103h-92l24 103h91z
" />
    <glyph glyph-name="aacute" unicode="&#xe1;" horiz-adv-x="500" 
d="M470 69l-15 -65c-24 -6 -34 -7 -47 -7c-24 0 -69 10 -69 59c0 4 0 9 1 13c-16 -30 -64 -79 -164 -79c-110 0 -140 70 -140 117c0 78 56 135 148 153c61 12 133 18 195 31c4 19 10 43 10 62c0 34 -21 67 -91 67c-101 0 -112 -77 -115 -95l-89 8c22 62 61 147 215 147
c66 0 161 -30 161 -113c0 -23 -4 -45 -9 -67l-43 -185c-2 -9 -4 -19 -4 -29c0 -20 13 -24 25 -24c8 0 15 1 31 7zM365 230l-17 -2c-93 -11 -225 -26 -225 -114c0 -28 18 -65 80 -65c31 0 77 15 101 34c38 30 44 75 48 91zM481 683l-143 -150h-61l87 150h117z" />
    <glyph glyph-name="agrave" unicode="&#xe0;" horiz-adv-x="500" 
d="M470 69l-15 -65c-24 -6 -34 -7 -47 -7c-24 0 -69 10 -69 59c0 4 0 9 1 13c-16 -30 -64 -79 -164 -79c-110 0 -140 70 -140 117c0 78 56 135 148 153c61 12 133 18 195 31c4 19 10 43 10 62c0 34 -21 67 -91 67c-101 0 -112 -77 -115 -95l-89 8c22 62 61 147 215 147
c66 0 161 -30 161 -113c0 -23 -4 -45 -9 -67l-43 -185c-2 -9 -4 -19 -4 -29c0 -20 13 -24 25 -24c8 0 15 1 31 7zM365 230l-17 -2c-93 -11 -225 -26 -225 -114c0 -28 18 -65 80 -65c31 0 77 15 101 34c38 30 44 75 48 91zM392 531h-53l-95 152h101z" />
    <glyph glyph-name="acircumflex" unicode="&#xe2;" horiz-adv-x="500" 
d="M470 69l-15 -65c-24 -6 -34 -7 -47 -7c-24 0 -69 10 -69 59c0 4 0 9 1 13c-16 -30 -64 -79 -164 -79c-110 0 -140 70 -140 117c0 78 56 135 148 153c61 12 133 18 195 31c4 19 10 43 10 62c0 34 -21 67 -91 67c-101 0 -112 -77 -115 -95l-89 8c22 62 61 147 215 147
c66 0 161 -30 161 -113c0 -23 -4 -45 -9 -67l-43 -185c-2 -9 -4 -19 -4 -29c0 -20 13 -24 25 -24c8 0 15 1 31 7zM365 230l-17 -2c-93 -11 -225 -26 -225 -114c0 -28 18 -65 80 -65c31 0 77 15 101 34c38 30 44 75 48 91zM478 529h-68l-45 106l-100 -106h-83l155 154h73z
" />
    <glyph glyph-name="adieresis" unicode="&#xe4;" horiz-adv-x="500" 
d="M470 69l-15 -65c-24 -6 -34 -7 -47 -7c-24 0 -69 10 -69 59c0 4 0 9 1 13c-16 -30 -64 -79 -164 -79c-110 0 -140 70 -140 117c0 78 56 135 148 153c61 12 133 18 195 31c4 19 10 43 10 62c0 34 -21 67 -91 67c-101 0 -112 -77 -115 -95l-89 8c22 62 61 147 215 147
c66 0 161 -30 161 -113c0 -23 -4 -45 -9 -67l-43 -185c-2 -9 -4 -19 -4 -29c0 -20 13 -24 25 -24c8 0 15 1 31 7zM365 230l-17 -2c-93 -11 -225 -26 -225 -114c0 -28 18 -65 80 -65c31 0 77 15 101 34c38 30 44 75 48 91zM492 653l-23 -101h-91l23 101h91zM298 653l-23 -101
h-91l23 101h91z" />
    <glyph glyph-name="atilde" unicode="&#xe3;" horiz-adv-x="500" 
d="M470 69l-15 -65c-24 -6 -34 -7 -47 -7c-24 0 -69 10 -69 59c0 4 0 9 1 13c-16 -30 -64 -79 -164 -79c-110 0 -140 70 -140 117c0 78 56 135 148 153c61 12 133 18 195 31c4 19 10 43 10 62c0 34 -21 67 -91 67c-101 0 -112 -77 -115 -95l-89 8c22 62 61 147 215 147
c66 0 161 -30 161 -113c0 -23 -4 -45 -9 -67l-43 -185c-2 -9 -4 -19 -4 -29c0 -20 13 -24 25 -24c8 0 15 1 31 7zM365 230l-17 -2c-93 -11 -225 -26 -225 -114c0 -28 18 -65 80 -65c31 0 77 15 101 34c38 30 44 75 48 91zM453 664l39 -19c-26 -55 -47 -85 -88 -85
c-35 0 -81 32 -114 32c-16 0 -31 -7 -44 -35l-42 17c31 63 59 87 93 87c30 0 73 -32 112 -32c14 0 28 8 44 35z" />
    <glyph glyph-name="aring" unicode="&#xe5;" horiz-adv-x="500" 
d="M470 69l-15 -65c-24 -6 -34 -7 -47 -7c-24 0 -69 10 -69 59c0 4 0 9 1 13c-16 -30 -64 -79 -164 -79c-110 0 -140 70 -140 117c0 78 56 135 148 153c61 12 133 18 195 31c4 19 10 43 10 62c0 34 -21 67 -91 67c-101 0 -112 -77 -115 -95l-89 8c22 62 61 147 215 147
c66 0 161 -30 161 -113c0 -23 -4 -45 -9 -67l-43 -185c-2 -9 -4 -19 -4 -29c0 -20 13 -24 25 -24c8 0 15 1 31 7zM365 230l-17 -2c-93 -11 -225 -26 -225 -114c0 -28 18 -65 80 -65c31 0 77 15 101 34c38 30 44 75 48 91zM427 610c0 -49 -41 -90 -91 -90
c-49 0 -89 40 -89 90s40 90 90 90c49 0 90 -40 90 -90zM385 609c0 26 -21 47 -48 47c-26 0 -47 -21 -47 -48c0 -26 21 -47 48 -47c26 0 47 22 47 48z" />
    <glyph glyph-name="ccedilla" unicode="&#xe7;" horiz-adv-x="509" 
d="M509 340l-74 -17c-7 34 -31 96 -113 96c-104 0 -179 -112 -179 -225c0 -65 30 -148 122 -148c80 0 121 55 141 107l82 -10c-19 -51 -83 -154 -211 -154l-23 -31c18 -3 59 -12 59 -61c0 -24 -12 -43 -20 -52c-30 -35 -68 -37 -100 -37c-8 0 -13 0 -27 2l6 27h13
c30 0 48 11 48 31c0 30 -36 35 -52 37l61 85l-14 1c-114 8 -166 96 -166 191c0 194 128 301 263 301c124 0 180 -76 184 -143z" />
    <glyph glyph-name="eacute" unicode="&#xe9;" horiz-adv-x="521" 
d="M494 227h-353c-1 -7 -2 -19 -2 -33c0 -129 98 -145 133 -145c53 0 112 33 134 96l75 -13c-16 -45 -80 -144 -225 -144c-127 0 -194 85 -194 201c0 163 106 294 260 294c110 0 178 -66 178 -193c0 -19 0 -31 -6 -63zM156 285h266c0 4 1 11 1 19c0 71 -44 118 -106 118
c-77 0 -141 -66 -161 -137zM492 683l-143 -150h-61l87 150h117z" />
    <glyph glyph-name="egrave" unicode="&#xe8;" horiz-adv-x="521" 
d="M494 227h-353c-1 -7 -2 -19 -2 -33c0 -129 98 -145 133 -145c53 0 112 33 134 96l75 -13c-16 -45 -80 -144 -225 -144c-127 0 -194 85 -194 201c0 163 106 294 260 294c110 0 178 -66 178 -193c0 -19 0 -31 -6 -63zM156 285h266c0 4 1 11 1 19c0 71 -44 118 -106 118
c-77 0 -141 -66 -161 -137zM403 531h-53l-95 152h101z" />
    <glyph glyph-name="ecircumflex" unicode="&#xea;" horiz-adv-x="521" 
d="M494 227h-353c-1 -7 -2 -19 -2 -33c0 -129 98 -145 133 -145c53 0 112 33 134 96l75 -13c-16 -45 -80 -144 -225 -144c-127 0 -194 85 -194 201c0 163 106 294 260 294c110 0 178 -66 178 -193c0 -19 0 -31 -6 -63zM156 285h266c0 4 1 11 1 19c0 71 -44 118 -106 118
c-77 0 -141 -66 -161 -137zM488 529h-68l-45 106l-100 -106h-83l155 154h73z" />
    <glyph glyph-name="edieresis" unicode="&#xeb;" horiz-adv-x="521" 
d="M494 227h-353c-1 -7 -2 -19 -2 -33c0 -129 98 -145 133 -145c53 0 112 33 134 96l75 -13c-16 -45 -80 -144 -225 -144c-127 0 -194 85 -194 201c0 163 106 294 260 294c110 0 178 -66 178 -193c0 -19 0 -31 -6 -63zM156 285h266c0 4 1 11 1 19c0 71 -44 118 -106 118
c-77 0 -141 -66 -161 -137zM522 653l-23 -101h-91l23 101h91zM328 653l-23 -101h-91l23 101h91z" />
    <glyph glyph-name="iacute" unicode="&#xed;" horiz-adv-x="229" 
d="M228 471l-109 -471h-77l108 471h78zM356 683l-143 -150h-61l87 150h117z" />
    <glyph glyph-name="igrave" unicode="&#xec;" horiz-adv-x="229" 
d="M228 471l-109 -471h-77l108 471h78zM252 531h-53l-95 152h101z" />
    <glyph glyph-name="icircumflex" unicode="&#xee;" horiz-adv-x="229" 
d="M228 471l-109 -471h-77l108 471h78zM343 529h-68l-45 106l-100 -106h-83l155 154h73z" />
    <glyph glyph-name="idieresis" unicode="&#xef;" horiz-adv-x="229" 
d="M228 471l-109 -471h-77l108 471h78zM377 653l-23 -101h-91l23 101h91zM183 653l-23 -101h-91l23 101h91z" />
    <glyph glyph-name="ntilde" unicode="&#xf1;" 
d="M150 471h79l-16 -68c18 19 75 80 162 80c40 0 135 -23 135 -120c0 -24 -6 -56 -11 -79l-66 -284h-78l67 291c6 24 7 36 7 54c0 50 -34 75 -81 75c-108 0 -148 -76 -174 -188l-54 -232h-79zM473 664l39 -19c-26 -55 -47 -85 -88 -85c-35 0 -81 32 -114 32
c-16 0 -31 -7 -44 -35l-42 17c31 63 59 87 93 87c30 0 73 -32 112 -32c14 0 28 8 44 35z" />
    <glyph glyph-name="oacute" unicode="&#xf3;" 
d="M62 195c0 131 84 288 264 288c125 0 196 -94 196 -210c0 -137 -94 -285 -262 -285c-127 0 -198 91 -198 207zM142 189c0 -106 63 -141 118 -141c109 0 182 118 182 235c0 123 -83 139 -115 139c-123 0 -185 -126 -185 -233zM502 683l-143 -150h-61l87 150h117z" />
    <glyph glyph-name="ograve" unicode="&#xf2;" 
d="M62 195c0 131 84 288 264 288c125 0 196 -94 196 -210c0 -137 -94 -285 -262 -285c-127 0 -198 91 -198 207zM142 189c0 -106 63 -141 118 -141c109 0 182 118 182 235c0 123 -83 139 -115 139c-123 0 -185 -126 -185 -233zM413 531h-53l-95 152h101z" />
    <glyph glyph-name="ocircumflex" unicode="&#xf4;" 
d="M62 195c0 131 84 288 264 288c125 0 196 -94 196 -210c0 -137 -94 -285 -262 -285c-127 0 -198 91 -198 207zM142 189c0 -106 63 -141 118 -141c109 0 182 118 182 235c0 123 -83 139 -115 139c-123 0 -185 -126 -185 -233zM498 529h-68l-45 106l-100 -106h-83l155 154
h73z" />
    <glyph glyph-name="odieresis" unicode="&#xf6;" 
d="M62 195c0 131 84 288 264 288c125 0 196 -94 196 -210c0 -137 -94 -285 -262 -285c-127 0 -198 91 -198 207zM142 189c0 -106 63 -141 118 -141c109 0 182 118 182 235c0 123 -83 139 -115 139c-123 0 -185 -126 -185 -233zM511 653l-23 -101h-91l23 101h91zM317 653
l-23 -101h-91l23 101h91z" />
    <glyph glyph-name="otilde" unicode="&#xf5;" 
d="M62 195c0 131 84 288 264 288c125 0 196 -94 196 -210c0 -137 -94 -285 -262 -285c-127 0 -198 91 -198 207zM142 189c0 -106 63 -141 118 -141c109 0 182 118 182 235c0 123 -83 139 -115 139c-123 0 -185 -126 -185 -233zM474 664l39 -19c-26 -55 -47 -85 -88 -85
c-35 0 -81 32 -114 32c-16 0 -31 -7 -44 -35l-42 17c31 63 59 87 93 87c30 0 73 -32 112 -32c14 0 28 8 44 35z" />
    <glyph glyph-name="uacute" unicode="&#xfa;" 
d="M543 471l-109 -471h-75l17 74c-40 -53 -106 -83 -172 -83c-89 0 -130 53 -130 111c0 25 10 65 15 89l64 280h79l-65 -280c-9 -38 -10 -51 -10 -69c0 -40 28 -66 84 -66c19 0 74 4 114 47c38 41 50 94 62 146l51 222h75zM502 683l-143 -150h-61l87 150h117z" />
    <glyph glyph-name="ugrave" unicode="&#xf9;" 
d="M543 471l-109 -471h-75l17 74c-40 -53 -106 -83 -172 -83c-89 0 -130 53 -130 111c0 25 10 65 15 89l64 280h79l-65 -280c-9 -38 -10 -51 -10 -69c0 -40 28 -66 84 -66c19 0 74 4 114 47c38 41 50 94 62 146l51 222h75zM402 531h-53l-95 152h101z" />
    <glyph glyph-name="ucircumflex" unicode="&#xfb;" 
d="M543 471l-109 -471h-75l17 74c-40 -53 -106 -83 -172 -83c-89 0 -130 53 -130 111c0 25 10 65 15 89l64 280h79l-65 -280c-9 -38 -10 -51 -10 -69c0 -40 28 -66 84 -66c19 0 74 4 114 47c38 41 50 94 62 146l51 222h75zM498 529h-68l-45 106l-100 -106h-83l155 154h73z
" />
    <glyph glyph-name="udieresis" unicode="&#xfc;" 
d="M543 471l-109 -471h-75l17 74c-40 -53 -106 -83 -172 -83c-89 0 -130 53 -130 111c0 25 10 65 15 89l64 280h79l-65 -280c-9 -38 -10 -51 -10 -69c0 -40 28 -66 84 -66c19 0 74 4 114 47c38 41 50 94 62 146l51 222h75zM534 653l-23 -101h-91l23 101h91zM340 653
l-23 -101h-91l23 101h91z" />
    <glyph glyph-name="dagger" unicode="&#x2020;" horiz-adv-x="479" 
d="M542 528l-17 -74h-176l-107 -454h-78l109 454h-180l17 74h180l39 178h79l-41 -178h175z" />
    <glyph glyph-name="degree" unicode="&#xb0;" horiz-adv-x="354" 
d="M386 594c0 -89 -73 -162 -162 -162c-90 0 -161 73 -161 162s72 161 161 161c90 0 162 -71 162 -161zM303 596c0 44 -35 79 -79 79s-79 -35 -79 -79c0 -43 36 -79 79 -79c44 0 79 35 79 79z" />
    <glyph glyph-name="cent" unicode="&#xa2;" horiz-adv-x="500" 
d="M518 339l-74 -18c-14 62 -40 84 -76 91l-78 -361c79 0 114 78 124 103l83 -10c-12 -35 -35 -64 -45 -76c-61 -70 -132 -77 -164 -77h-12l-21 -92h-65l21 95c-7 2 -31 7 -54 20c-87 51 -88 153 -88 172c0 146 89 242 161 274c41 18 80 20 94 20l18 80h60l-18 -80
c74 -10 126 -71 134 -141zM226 57l83 359c-6 -1 -28 -3 -49 -13c-58 -29 -108 -109 -108 -218c0 -13 0 -73 43 -110c13 -11 27 -16 31 -18z" />
    <glyph glyph-name="sterling" unicode="&#xa3;" horiz-adv-x="720" 
d="M788 545l-89 -17c1 9 2 17 2 24c0 55 -60 94 -124 94c-93 0 -141 -67 -158 -123c-15 -48 -16 -79 -34 -168h175l-15 -64h-175c-14 -78 -49 -146 -61 -169c58 -28 102 -55 153 -55c33 0 81 21 94 94l85 -10c-17 -77 -72 -157 -180 -157c-68 0 -135 35 -195 69
c-36 -40 -92 -69 -150 -69c-44 0 -114 18 -114 87c0 56 58 96 134 96c42 0 70 -12 109 -26c20 40 25 62 42 140h-160l15 64h160c23 111 17 223 104 296c47 39 110 62 182 62c159 0 200 -104 200 -168zM205 98c-14 5 -41 17 -83 17c-20 0 -57 -6 -57 -31c0 -26 38 -30 48 -30
c35 0 79 24 92 44z" />
    <glyph glyph-name="section" unicode="&#xa7;" horiz-adv-x="604" 
d="M567 655l-17 -78c-52 37 -114 68 -180 68c-48 0 -97 -24 -97 -78c0 -50 39 -67 81 -85l80 -34c77 -33 144 -72 144 -166c0 -79 -59 -136 -133 -159c33 -30 51 -64 51 -109c0 -108 -89 -160 -188 -160c-79 0 -185 38 -247 86l19 82c62 -49 147 -98 228 -98
c52 0 107 27 107 86c0 120 -305 112 -305 291c0 82 57 134 131 157c-31 30 -50 64 -50 108c0 94 87 152 174 152c70 0 145 -23 202 -63zM414 369l-101 46c-60 -2 -126 -29 -126 -99c0 -52 53 -83 94 -102l98 -46c61 0 122 31 122 99c0 54 -43 82 -87 102z" />
    <glyph glyph-name="bullet" unicode="&#x2022;" horiz-adv-x="333" 
d="M352 466l-51 -225h-228l52 225h227z" />
    <glyph glyph-name="paragraph" unicode="&#xb6;" horiz-adv-x="640" 
d="M649 706l-13 -54h-34l-189 -819h-57l189 819h-145l-189 -819h-57l113 490c-75 25 -116 87 -116 171c0 67 31 129 85 168c46 33 91 44 187 44h226z" />
    <glyph glyph-name="germandbls" unicode="&#xdf;" 
d="M120 0h-75l115 503c39 169 118 212 222 212c89 0 172 -43 172 -144c0 -103 -71 -162 -169 -162c70 -14 129 -43 129 -157c0 -28 -6 -184 -130 -239c-51 -22 -111 -22 -130 -22c-20 0 -43 0 -84 9l17 71c29 -5 43 -11 73 -11c80 0 129 23 157 102c3 9 17 54 17 93
c0 10 -1 41 -18 68c-22 34 -56 45 -128 48l17 74h17c90 0 150 41 150 121c0 60 -47 84 -91 84c-110 0 -135 -107 -155 -194z" />
    <glyph glyph-name="registered" unicode="&#xae;" horiz-adv-x="840" 
d="M825 361c0 -207 -153 -363 -357 -363c-197 0 -355 158 -355 356s158 356 357 356c194 0 355 -158 355 -349zM789 347c0 187 -138 329 -320 329c-177 0 -319 -144 -319 -323s141 -321 319 -321c174 0 320 144 320 315zM389 579h99c75 0 109 -10 133 -41
c15 -19 25 -49 25 -75c0 -75 -43 -122 -125 -135l68 -193h-72l-64 186h-54l-44 -186h-69zM413 381h77c62 0 86 38 86 77s-20 61 -65 61h-66z" />
    <glyph glyph-name="copyright" unicode="&#xa9;" horiz-adv-x="840" 
d="M686 435l-71 -14c-15 72 -50 102 -121 102c-93 0 -156 -78 -156 -193c0 -90 48 -144 128 -144c63 0 102 29 129 97l66 -19c-40 -99 -103 -144 -203 -144c-114 0 -194 85 -194 205c0 148 102 260 238 260c104 0 163 -48 184 -150zM825 361c0 -207 -153 -363 -357 -363
c-197 0 -355 158 -355 356s158 356 357 356c194 0 355 -158 355 -349zM789 347c0 187 -138 329 -320 329c-177 0 -319 -144 -319 -323s141 -321 319 -321c174 0 320 144 320 315z" />
    <glyph glyph-name="trademark" unicode="&#x2122;" horiz-adv-x="694" 
d="M732 706l-76 -332h-54l62 261l-135 -261h-54l-19 257l-58 -257h-56l77 332h77l19 -265l142 265h75zM384 706l-11 -49h-94l-66 -283h-59l65 283h-96l11 49h250z" />
    <glyph glyph-name="acute" unicode="&#xb4;" horiz-adv-x="292" 
d="M248 683l-143 -150h-61l87 150h117z" />
    <glyph glyph-name="dieresis" unicode="&#xa8;" horiz-adv-x="292" 
d="M300 653l-23 -101h-91l23 101h91zM106 653l-23 -101h-91l23 101h91z" />
    <glyph glyph-name="notequal" unicode="&#x2260;" horiz-adv-x="724" 
d="M694 428l-18 -78h-199l-78 -109h252l-18 -77h-290l-121 -169h-77l122 169h-159l17 77h198l78 109h-250l18 78h289l115 159h76l-114 -159h159z" />
    <glyph glyph-name="AE" unicode="&#xc6;" horiz-adv-x="1062" 
d="M1069 706l-17 -74h-346l-46 -233h347l-16 -70h-348l-58 -254h423l-17 -75h-507l51 225h-240l-203 -225h-110l649 706h438zM631 615l-272 -320h193z" />
    <glyph glyph-name="Oslash" unicode="&#xd8;" horiz-adv-x="792" 
d="M725 721l48 -44l-54 -61c30 -36 72 -102 72 -216c0 -235 -157 -413 -378 -413c-42 0 -118 4 -203 61l-57 -63l-49 41l60 67c-11 11 -70 73 -70 213c0 227 146 414 388 414c98 0 158 -37 190 -60zM220 156l397 444c-14 12 -58 52 -141 52c-183 0 -292 -173 -292 -352
c0 -75 21 -115 36 -144zM660 551l-399 -446c45 -34 89 -48 146 -48c179 0 293 153 293 334c0 85 -20 126 -40 160z" />
    <glyph glyph-name="infinity" unicode="&#x221e;" horiz-adv-x="724" 
d="M412 362c89 93 128 123 197 123c75 0 125 -58 125 -144c0 -124 -88 -228 -196 -228c-72 0 -109 37 -152 121c-75 -85 -133 -121 -195 -121c-75 0 -125 58 -125 146c0 122 91 226 196 226c75 0 109 -39 150 -123zM446 297c39 -81 63 -109 107 -109c56 0 104 64 104 139
c0 49 -22 80 -60 80c-26 0 -62 -20 -92 -50zM354 300c-32 75 -65 109 -105 109c-56 0 -105 -65 -105 -140c0 -50 24 -80 62 -80c53 0 112 68 148 111z" />
    <glyph glyph-name="plusminus" unicode="&#xb1;" horiz-adv-x="724" 
d="M721 433l-17 -77h-225l-50 -220h-88l50 220h-223l18 77h223l50 217h88l-50 -217h224zM640 77l-18 -77h-536l18 77h536z" />
    <glyph glyph-name="lessequal" unicode="&#x2264;" horiz-adv-x="724" 
d="M732 655l-22 -94l-425 -177l343 -178l-20 -86l-413 224l20 90zM599 77l-19 -77h-465l18 77h466z" />
    <glyph glyph-name="greaterequal" unicode="&#x2265;" horiz-adv-x="724" 
d="M642 429l-21 -90l-516 -219l22 94l425 176l-343 179l20 86zM561 77l-18 -77h-465l17 77h466z" />
    <glyph glyph-name="yen" unicode="&#xa5;" horiz-adv-x="610" 
d="M711 674l-261 -283h134l-15 -65h-181l-32 -35l-2 -9h205l-15 -64h-205l-50 -218h-87l50 218h-185l14 64h186l4 21l-4 23h-176l16 65h134l-96 283h89l99 -307l272 307h106z" />
    <glyph glyph-name="mu" unicode="&#xb5;" horiz-adv-x="547" 
d="M550 471l-83 -367c-2 -8 -3 -17 -3 -23c0 -17 8 -25 25 -25c9 0 14 1 29 7l-15 -65c-21 -5 -34 -7 -50 -7c-51 0 -76 20 -76 61v19c-43 -59 -83 -82 -144 -82c-48 0 -78 17 -95 56l-58 -261h-82l160 687h76l-54 -234c-10 -44 -15 -76 -15 -95c0 -53 34 -85 89 -85
c46 0 89 25 120 70c22 31 31 54 48 130l49 214h79z" />
    <glyph glyph-name="partialdiff" unicode="&#x2202;" horiz-adv-x="520" 
d="M241 627v74c34 10 66 14 103 14c117 0 176 -70 176 -209c0 -86 -22 -213 -54 -306c-47 -140 -126 -211 -235 -211c-104 0 -170 71 -170 181c0 141 103 256 230 256c52 0 92 -17 131 -56c8 44 14 94 14 127c0 97 -37 145 -112 145c-24 0 -42 -3 -83 -15zM405 293
c-32 40 -72 61 -118 61c-80 0 -143 -82 -143 -188c0 -65 38 -107 97 -107c86 0 137 92 164 234z" />
    <glyph glyph-name="summation" unicode="&#x2211;" horiz-adv-x="593" 
d="M703 706l-18 -75h-451l218 -333l-359 -346h436l-18 -74h-539l18 78l359 348l-204 322l18 80h540z" />
    <glyph glyph-name="product" unicode="&#x220f;" horiz-adv-x="723" 
d="M776 706l-191 -828h-90l174 753h-387l-174 -753h-87l191 828h564z" />
    <glyph glyph-name="pi" unicode="&#x3c0;" horiz-adv-x="593" 
d="M598 471l-17 -74h-55l-62 -267c-4 -17 -6 -30 -6 -37c0 -18 11 -31 28 -31h30l-14 -62h-25c-68 0 -101 22 -101 71c0 14 3 32 9 57l62 269h-202l-92 -397h-80l92 397h-54l18 74h469z" />
    <glyph glyph-name="integral" unicode="&#x222b;" horiz-adv-x="339" 
d="M431 706l-19 -80c-19 15 -28 19 -46 19c-34 0 -51 -26 -60 -64l-134 -591c-14 -64 -29 -102 -44 -119c-24 -29 -63 -48 -105 -48c-21 0 -36 3 -59 12l19 81c18 -13 28 -17 44 -17c39 0 49 25 61 77l135 600c19 84 53 142 147 142c22 0 38 -3 61 -12z" />
    <glyph glyph-name="ordfeminine" unicode="&#xaa;" horiz-adv-x="354" 
d="M400 477l-11 -45c-1 -1 -18 -5 -29 -5c-32 0 -39 18 -43 35c-31 -38 -81 -39 -90 -39c-43 0 -85 24 -85 74c0 94 121 93 199 107c2 8 5 21 5 31c0 26 -20 38 -50 38c-39 0 -59 -24 -64 -55l-57 4c15 52 52 90 125 90c35 0 99 -15 99 -70c0 -13 -2 -25 -5 -38l-21 -90
c-3 -12 -6 -26 -6 -32c0 -11 7 -12 11 -12c6 0 11 0 22 7zM332 561l-11 -1c-64 -6 -124 -18 -124 -63c0 -34 33 -35 42 -35c37 0 73 19 83 59z" />
    <glyph glyph-name="ordmasculine" unicode="&#xba;" horiz-adv-x="354" 
d="M406 590c0 -98 -67 -170 -150 -170c-73 0 -117 52 -117 120c0 85 50 172 153 172c45 0 113 -23 114 -122zM354 594c0 35 -17 77 -64 77c-44 0 -99 -44 -99 -130c0 -36 17 -80 66 -80c67 0 97 77 97 133z" />
    <glyph glyph-name="Omega" unicode="&#x2126;" horiz-adv-x="742" 
d="M682 75l-17 -75h-272l18 80c140 35 241 207 241 371c0 129 -69 202 -191 202c-157 0 -270 -149 -270 -355c0 -104 33 -180 121 -218l-17 -80h-272l17 75h172c-78 60 -112 136 -112 241c0 234 155 407 364 407c171 0 280 -103 280 -266c0 -150 -84 -311 -227 -382h165z
" />
    <glyph glyph-name="ae" unicode="&#xe6;" horiz-adv-x="833" 
d="M806 226h-363c-1 -12 -2 -22 -2 -33c0 -60 33 -145 140 -145c64 0 115 35 137 96l77 -10c-19 -57 -79 -146 -219 -146c-99 0 -164 41 -198 102c-46 -63 -113 -102 -199 -102c-77 0 -145 44 -145 121c0 35 15 100 97 134c61 26 175 37 238 46c3 18 8 43 8 61
c0 51 -34 74 -83 74c-67 0 -105 -46 -112 -91l-87 13c20 51 72 137 199 137c95 0 137 -51 151 -83c27 37 88 83 177 83c135 0 188 -94 188 -199c0 -20 -2 -39 -4 -58zM454 283h279s1 14 1 21c0 93 -70 118 -116 118c-79 0 -146 -62 -164 -139zM360 233l-40 -6
c-139 -21 -201 -50 -201 -107c0 -45 33 -75 88 -75c44 0 86 26 110 63c14 21 32 63 43 125z" />
    <glyph glyph-name="oslash" unicode="&#xf8;" 
d="M493 487l35 -34l-45 -46c24 -32 39 -76 39 -133c0 -116 -80 -286 -261 -286c-80 0 -117 31 -143 55l-50 -48l-34 34l55 54c-14 26 -27 57 -27 112c0 156 109 288 264 288c63 0 102 -26 123 -40zM144 139l258 258c-14 10 -35 25 -77 25c-132 0 -187 -147 -187 -230
c0 -17 0 -27 6 -53zM431 358l-266 -267c19 -21 50 -44 95 -44c118 0 187 132 187 240c0 37 -8 54 -16 71z" />
    <glyph glyph-name="questiondown" unicode="&#xbf;" 
d="M370 594h-92l25 112h92zM347 529l-50 -215h-13c-80 0 -152 -45 -152 -132c0 -77 54 -118 124 -118c110 0 152 87 153 160l87 -14c-10 -118 -91 -218 -236 -218s-217 94 -217 189c0 87 53 182 192 199l34 149h78z" />
    <glyph glyph-name="exclamdown" unicode="&#xa1;" horiz-adv-x="271" 
d="M290 706l-26 -111h-99l26 111h99zM124 0h-89l56 232l76 248h46l-38 -260z" />
    <glyph glyph-name="logicalnot" unicode="&#xac;" horiz-adv-x="724" 
d="M679 341l-77 -335h-88l58 256h-477l18 79h566z" />
    <glyph glyph-name="radical" unicode="&#x221a;" horiz-adv-x="725" 
d="M771 706l-466 -891h-87l-68 294l-77 -26l-19 70l159 58l65 -289l401 784h92z" />
    <glyph glyph-name="florin" unicode="&#x192;" horiz-adv-x="250" 
d="M348 669l-14 -60c-19 3 -24 4 -34 4c-39 0 -46 -29 -52 -56l-28 -121h85l-14 -60h-84l-109 -473c-19 -84 -43 -132 -145 -132c-19 0 -33 2 -52 4l15 65c12 -2 20 -3 32 -3c58 0 65 33 75 76l107 463h-74l14 60h74l32 140c21 91 77 101 114 101c25 0 48 -4 58 -8z" />
    <glyph glyph-name="approxequal" unicode="&#x2248;" horiz-adv-x="724" 
d="M681 470l39 -62c-75 -69 -130 -94 -185 -94c-32 0 -61 10 -114 36l-32 16c-40 20 -67 29 -95 29c-43 0 -62 -11 -119 -64l-12 -11l-40 63c69 69 114 95 181 95c34 0 61 -9 108 -32l56 -27c42 -20 54 -24 74 -24c42 0 70 14 139 75zM636 278l40 -62
c-79 -71 -129 -94 -185 -94c-33 0 -61 10 -114 36l-32 16c-40 20 -68 29 -96 29c-43 0 -60 -12 -118 -64l-12 -11l-40 63c70 70 114 95 180 95c36 0 61 -10 108 -32l57 -27c42 -20 54 -24 73 -24c42 0 74 16 139 75z" />
    <glyph glyph-name="Delta" unicode="&#x2206;" horiz-adv-x="640" 
d="M625 0h-648l411 706h98zM519 75l-97 544l-298 -544h395z" />
    <glyph glyph-name="guillemotleft" unicode="&#xab;" horiz-adv-x="396" 
d="M421 453l-21 -94l-90 -58l61 -66l-19 -83l-111 121l16 67zM250 455l-22 -95l-89 -58l60 -68l-19 -79l-110 119l15 66z" />
    <glyph glyph-name="guillemotright" unicode="&#xbb;" horiz-adv-x="396" 
d="M396 334l-15 -67l-164 -114l22 94l88 59l-59 68l18 78zM225 334l-16 -67l-164 -113l22 94l89 58l-61 66l19 81z" />
    <glyph glyph-name="ellipsis" unicode="&#x2026;" horiz-adv-x="1000" 
d="M868 93l-22 -93h-94l21 93h95zM534 93l-22 -93h-94l21 93h95zM200 93l-21 -93h-95l22 93h94z" />
    <glyph glyph-name="uni00A0" unicode="&#xa0;" horiz-adv-x="271" 
 />
    <glyph glyph-name="Agrave" unicode="&#xc0;" horiz-adv-x="667" 
d="M607 0h-91l-25 222h-268l-128 -222h-95l409 706h108zM483 295l-35 353l-183 -353h218zM516 770h-54l-86 125h104z" />
    <glyph glyph-name="Atilde" unicode="&#xc3;" horiz-adv-x="667" 
d="M607 0h-91l-25 222h-268l-128 -222h-95l409 706h108zM483 295l-35 353l-183 -353h218zM589 887l40 -21c-27 -58 -49 -83 -91 -83c-36 0 -82 34 -115 34c-17 0 -32 -8 -46 -37l-43 18c32 66 61 85 96 85c30 0 74 -33 113 -33c15 0 29 8 46 37z" />
    <glyph glyph-name="Otilde" unicode="&#xd5;" horiz-adv-x="792" 
d="M96 308c0 231 147 412 381 412c211 0 316 -145 316 -322c0 -239 -171 -411 -386 -411c-193 0 -311 135 -311 321zM191 307c0 -137 82 -250 222 -250c188 0 287 176 287 346c0 175 -110 247 -223 247c-214 0 -286 -206 -286 -343zM651 887l40 -21c-27 -58 -49 -83 -91 -83
c-36 0 -82 34 -115 34c-17 0 -32 -8 -46 -37l-43 18c32 66 61 85 96 85c30 0 74 -33 113 -33c15 0 29 8 46 37z" />
    <glyph glyph-name="OE" unicode="&#x152;" horiz-adv-x="1104" 
d="M1122 706l-11 -73h-338l-48 -233h327l-17 -69h-326l-52 -257h402l-17 -74h-485l21 89c-55 -78 -151 -98 -211 -98c-154 0 -273 126 -273 315c0 258 179 409 366 409c129 0 192 -61 220 -126l23 117h419zM187 301c0 -144 78 -235 195 -235c189 0 255 228 255 389
c0 114 -60 189 -181 189c-143 0 -269 -131 -269 -343z" />
    <glyph glyph-name="oe" unicode="&#x153;" horiz-adv-x="875" 
d="M847 224h-351c-2 -22 -2 -35 -2 -38c0 -83 68 -140 135 -140c51 0 109 35 134 101l76 -12c-6 -12 -24 -64 -80 -105c-52 -38 -118 -42 -137 -42c-93 0 -156 49 -184 94c-30 -32 -90 -93 -188 -93c-125 0 -188 96 -188 204c0 125 75 290 251 290c68 0 142 -32 171 -96
c32 43 91 96 186 96c84 0 184 -49 184 -192c0 -17 -1 -32 -7 -67zM507 283h267c1 4 2 14 2 27c0 91 -74 112 -108 112c-87 0 -151 -89 -161 -139zM141 195c0 -107 64 -145 113 -145c84 0 170 96 170 241c0 93 -54 132 -112 132c-106 0 -171 -121 -171 -228z" />
    <glyph glyph-name="endash" unicode="&#x2013;" horiz-adv-x="600" 
d="M598 338l-18 -76h-510l18 76h510z" />
    <glyph glyph-name="emdash" unicode="&#x2014;" horiz-adv-x="895" 
d="M893 338l-18 -76h-805l18 76h805z" />
    <glyph glyph-name="quotedblleft" unicode="&#x201c;" horiz-adv-x="354" 
d="M368 706h48c-29 -45 -53 -101 -64 -153h42l-26 -110h-97c12 94 48 183 97 263zM214 706h47c-25 -49 -46 -100 -60 -153h40l-26 -110h-94c12 94 45 182 93 263z" />
    <glyph glyph-name="quotedblright" unicode="&#x201d;" horiz-adv-x="354" 
d="M336 706h99c-18 -101 -48 -173 -98 -262h-45c25 50 46 100 61 154h-42zM177 706h97c-15 -109 -46 -165 -91 -262h-45c25 50 47 99 58 154h-44z" />
    <glyph glyph-name="quoteleft" unicode="&#x2018;" horiz-adv-x="229" 
d="M231 442h-97c13 103 42 175 93 264h50c-30 -54 -51 -92 -62 -154h37z" />
    <glyph glyph-name="quoteright" unicode="&#x2019;" horiz-adv-x="229" 
d="M196 706h99c-12 -98 -50 -182 -99 -267h-51c29 48 51 101 63 156h-38z" />
    <glyph glyph-name="divide" unicode="&#xf7;" horiz-adv-x="724" 
d="M501 509l-23 -101h-101l23 101h101zM691 341l-18 -80h-566l19 80h565zM429 191l-23 -101h-102l23 101h102z" />
    <glyph glyph-name="lozenge" unicode="&#x25ca;" horiz-adv-x="724" 
d="M627 353l-263 -353h-88l-96 353l263 353h88zM540 359l-69 268l-202 -277l67 -270z" />
    <glyph glyph-name="ydieresis" unicode="&#xff;" horiz-adv-x="458" 
d="M509 471l-356 -602c-53 -89 -85 -100 -157 -100c-28 0 -41 2 -50 3l16 68c12 -1 25 -2 37 -2c55 0 72 31 95 71l58 99l-53 463h78l37 -376l208 376h87zM491 653l-23 -101h-91l23 101h91zM297 653l-23 -101h-91l23 101h91z" />
    <glyph glyph-name="Ydieresis" unicode="&#x178;" horiz-adv-x="583" 
d="M707 706l-359 -399l-70 -307h-89l73 317l-121 389h89l95 -319l276 319h106zM602 880l-24 -103h-91l24 103h91zM408 880l-23 -103h-92l24 103h91z" />
    <glyph glyph-name="fraction" unicode="&#x2044;" horiz-adv-x="125" 
d="M288 669l-361 -698l-44 23l363 697z" />
    <glyph glyph-name="Euro" unicode="&#x20ac;" horiz-adv-x="772" 
d="M784 604l-48 -80c-41 79 -113 118 -201 118c-140 0 -224 -73 -271 -202h426l-37 -62h-403c-3 -16 -5 -33 -6 -49h382l-38 -62h-345c11 -132 92 -214 226 -214c99 0 167 22 240 91l-27 -109c-68 -40 -138 -53 -216 -53c-179 0 -303 103 -317 285h-90l38 62h51
c1 16 3 33 6 49h-72l38 62h47c53 180 187 274 373 274c101 0 181 -27 244 -110z" />
    <glyph glyph-name="guilsinglleft" unicode="&#x2039;" horiz-adv-x="229" 
d="M250 455l-23 -96l-88 -58l60 -66l-19 -80l-110 119l15 66z" />
    <glyph glyph-name="guilsinglright" unicode="&#x203a;" horiz-adv-x="229" 
d="M231 335l-16 -69l-164 -113l22 94l89 60l-60 66l18 80z" />
    <glyph glyph-name="daggerdbl" unicode="&#x2021;" horiz-adv-x="458" 
d="M507 546l-15 -64h-147l-58 -235h146l-15 -64h-145l-42 -183h-74l40 181h-145l16 66h146l57 235h-150l16 64h151l37 160h71l-36 -160h147z" />
    <glyph glyph-name="periodcentered" unicode="&#xb7;" horiz-adv-x="200" 
d="M191 352l-27 -124h-102l28 124h101z" />
    <glyph glyph-name="quotesinglbase" unicode="&#x201a;" horiz-adv-x="229" 
d="M57 110h95c-12 -95 -43 -184 -95 -264h-49c30 53 51 94 64 154h-41z" />
    <glyph glyph-name="quotedblbase" unicode="&#x201e;" horiz-adv-x="354" 
d="M292 111c-11 -93 -46 -182 -92 -263h-47c24 49 47 99 60 152h-41l26 111h94zM45 111h96c-14 -100 -45 -176 -94 -263h-48c27 50 48 97 62 152h-42z" />
    <glyph glyph-name="perthousand" unicode="&#x2030;" horiz-adv-x="1312" 
d="M700 669l-362 -698l-44 23l363 697zM91 389c0 120 61 284 206 284c128 0 138 -138 138 -175c0 -102 -57 -282 -206 -282c-51 0 -138 31 -138 173zM151 374c0 -66 31 -113 82 -113c79 0 142 125 142 245c0 59 -16 121 -80 121c-91 0 -144 -137 -144 -253zM563 165
c0 120 61 284 206 284c128 0 139 -138 139 -175c0 -102 -58 -282 -207 -282c-51 0 -138 31 -138 173zM623 150c0 -85 49 -113 82 -113c79 0 142 125 142 245c0 87 -33 122 -80 122c-73 0 -144 -111 -144 -254zM959 165c0 120 61 284 206 284c128 0 139 -138 139 -175
c0 -102 -58 -282 -207 -282c-51 0 -138 31 -138 173zM1019 150c0 -85 49 -113 82 -113c79 0 142 125 142 245c0 87 -33 122 -80 122c-73 0 -144 -111 -144 -254z" />
    <glyph glyph-name="Acircumflex" unicode="&#xc2;" horiz-adv-x="667" 
d="M607 0h-91l-25 222h-268l-128 -222h-95l409 706h108zM483 295l-35 353l-183 -353h218zM595 767h-67l-33 79l-78 -79h-80l129 128h72z" />
    <glyph glyph-name="Ecircumflex" unicode="&#xca;" horiz-adv-x="625" 
d="M678 706l-17 -75h-370l-54 -233h339l-16 -70h-339l-59 -253h420l-17 -75h-509l163 706h459zM574 767h-67l-33 79l-78 -79h-80l129 128h72z" />
    <glyph glyph-name="Aacute" unicode="&#xc1;" horiz-adv-x="667" 
d="M607 0h-91l-25 222h-268l-128 -222h-95l409 706h108zM483 295l-35 353l-183 -353h218zM630 895l-145 -127h-67l87 127h125z" />
    <glyph glyph-name="Edieresis" unicode="&#xcb;" horiz-adv-x="625" 
d="M678 706l-17 -75h-370l-54 -233h339l-16 -70h-339l-59 -253h420l-17 -75h-509l163 706h459zM623 880l-24 -103h-91l24 103h91zM429 880l-23 -103h-92l24 103h91z" />
    <glyph glyph-name="Egrave" unicode="&#xc8;" horiz-adv-x="625" 
d="M678 706l-17 -75h-370l-54 -233h339l-16 -70h-339l-59 -253h420l-17 -75h-509l163 706h459zM495 770h-54l-86 125h104z" />
    <glyph glyph-name="Iacute" unicode="&#xcd;" horiz-adv-x="271" 
d="M306 706l-163 -706h-86l163 706h86zM432 895l-145 -127h-67l87 127h125z" />
    <glyph glyph-name="Icircumflex" unicode="&#xce;" horiz-adv-x="271" 
d="M306 706l-163 -706h-86l163 706h86zM397 767h-67l-33 79l-78 -79h-80l129 128h72z" />
    <glyph glyph-name="Idieresis" unicode="&#xcf;" horiz-adv-x="271" 
d="M306 706l-163 -706h-86l163 706h86zM446 880l-24 -103h-91l24 103h91zM252 880l-23 -103h-92l24 103h91z" />
    <glyph glyph-name="Igrave" unicode="&#xcc;" horiz-adv-x="271" 
d="M306 706l-163 -706h-86l163 706h86zM318 770h-54l-86 125h104z" />
    <glyph glyph-name="Oacute" unicode="&#xd3;" horiz-adv-x="792" 
d="M96 308c0 231 147 412 381 412c211 0 316 -145 316 -322c0 -239 -171 -411 -386 -411c-193 0 -311 135 -311 321zM191 307c0 -137 82 -250 222 -250c188 0 287 176 287 346c0 175 -110 247 -223 247c-214 0 -286 -206 -286 -343zM692 895l-145 -127h-67l87 127h125z" />
    <glyph glyph-name="Ocircumflex" unicode="&#xd4;" horiz-adv-x="792" 
d="M96 308c0 231 147 412 381 412c211 0 316 -145 316 -322c0 -239 -171 -411 -386 -411c-193 0 -311 135 -311 321zM191 307c0 -137 82 -250 222 -250c188 0 287 176 287 346c0 175 -110 247 -223 247c-214 0 -286 -206 -286 -343zM658 767h-67l-33 79l-78 -79h-80l129 128
h72z" />
    <glyph glyph-name="Ograve" unicode="&#xd2;" horiz-adv-x="792" 
d="M96 308c0 231 147 412 381 412c211 0 316 -145 316 -322c0 -239 -171 -411 -386 -411c-193 0 -311 135 -311 321zM191 307c0 -137 82 -250 222 -250c188 0 287 176 287 346c0 175 -110 247 -223 247c-214 0 -286 -206 -286 -343zM578 770h-54l-86 125h104z" />
    <glyph glyph-name="Uacute" unicode="&#xda;" horiz-adv-x="708" 
d="M754 706l-98 -424c-36 -156 -90 -295 -310 -295c-157 0 -239 84 -239 205c0 32 6 85 23 158l82 356h88l-85 -365c-10 -42 -18 -109 -18 -135c0 -118 85 -144 154 -144c147 0 188 91 226 256l89 388h88zM651 895l-145 -127h-67l87 127h125z" />
    <glyph glyph-name="Ucircumflex" unicode="&#xdb;" horiz-adv-x="708" 
d="M754 706l-98 -424c-36 -156 -90 -295 -310 -295c-157 0 -239 84 -239 205c0 32 6 85 23 158l82 356h88l-85 -365c-10 -42 -18 -109 -18 -135c0 -118 85 -144 154 -144c147 0 188 91 226 256l89 388h88zM616 767h-67l-33 79l-78 -79h-80l129 128h72z" />
    <glyph glyph-name="Ugrave" unicode="&#xd9;" horiz-adv-x="708" 
d="M754 706l-98 -424c-36 -156 -90 -295 -310 -295c-157 0 -239 84 -239 205c0 32 6 85 23 158l82 356h88l-85 -365c-10 -42 -18 -109 -18 -135c0 -118 85 -144 154 -144c147 0 188 91 226 256l89 388h88zM537 770h-54l-86 125h104z" />
    <glyph glyph-name="dotlessi" unicode="&#x131;" horiz-adv-x="229" 
d="M228 471l-109 -471h-77l108 471h78z" />
    <glyph glyph-name="circumflex" unicode="&#x2c6;" horiz-adv-x="292" 
d="M294 529h-68l-45 106l-100 -106h-83l155 154h73z" />
    <glyph glyph-name="tilde" unicode="&#x2dc;" horiz-adv-x="292" 
d="M251 664l39 -19c-26 -55 -47 -85 -88 -85c-35 0 -81 32 -114 32c-16 0 -31 -7 -44 -35l-42 17c31 63 59 87 93 87c30 0 73 -32 112 -32c14 0 28 8 44 35z" />
    <glyph glyph-name="macron" unicode="&#xaf;" horiz-adv-x="292" 
d="M297 608l-15 -66h-287l15 66h287z" />
    <glyph glyph-name="breve" unicode="&#x2d8;" horiz-adv-x="292" 
d="M220 668h74c-15 -42 -63 -130 -169 -130c-68 0 -127 34 -127 114v16h72c-1 -8 -2 -14 -2 -22c0 -35 28 -52 58 -52c25 0 68 11 94 74z" />
    <glyph glyph-name="dotaccent" unicode="&#x2d9;" horiz-adv-x="292" 
d="M204 653l-24 -102h-92l24 102h92z" />
    <glyph glyph-name="ring" unicode="&#x2da;" horiz-adv-x="292" 
d="M236 610c0 -49 -41 -90 -91 -90c-49 0 -89 40 -89 90s40 90 90 90c49 0 90 -40 90 -90zM194 609c0 26 -21 47 -48 47c-26 0 -47 -21 -47 -48c0 -26 21 -47 48 -47c26 0 47 22 47 48z" />
    <glyph glyph-name="cedilla" unicode="&#xb8;" horiz-adv-x="292" 
d="M167 16h36l-43 -59c35 -2 60 -21 60 -59c0 -55 -56 -90 -112 -90c-8 0 -20 0 -36 3l6 26h12c22 0 49 4 49 31c0 28 -31 33 -52 37z" />
    <glyph glyph-name="hungarumlaut" unicode="&#x2dd;" horiz-adv-x="292" 
d="M170 683l-142 -150h-53l85 150h110zM318 683l-142 -150h-53l85 150h110z" />
    <glyph glyph-name="ogonek" unicode="&#x2db;" horiz-adv-x="292" 
d="M149 9h79c-24 -22 -82 -68 -82 -96c0 -14 10 -25 32 -25c16 0 28 2 44 3l-18 -75c-20 -3 -34 -5 -54 -5c-65 0 -86 39 -86 72c0 65 61 106 85 126z" />
    <glyph glyph-name="caron" unicode="&#x2c7;" horiz-adv-x="292" 
d="M294 683l-155 -153h-71l-70 153h68l45 -104l103 104h80z" />
    <glyph glyph-name="currency" unicode="&#xa4;" horiz-adv-x="673" 
d="M698 556l-80 -69c24 -38 34 -74 34 -117c0 -73 -25 -140 -74 -197l65 -78l-62 -53l-65 77c-52 -30 -97 -42 -154 -42c-65 0 -103 13 -157 55l-82 -69l-50 60l81 68c-26 47 -36 80 -36 125c0 70 25 139 75 191l-66 78l62 54l64 -76c51 28 96 41 152 41
c64 0 113 -17 162 -55l80 68zM571 360c0 101 -68 168 -170 168c-115 0 -200 -89 -200 -208c0 -98 69 -169 163 -169c116 0 207 91 207 209z" />
    <glyph glyph-name="afii61289" unicode="&#x2113;" horiz-adv-x="490" 
d="M410 121l32 -43c-69 -67 -120 -91 -186 -91c-89 0 -144 50 -144 130c0 20 1 31 7 62l-57 -31l-18 58c59 31 65 34 95 51l54 214c23 91 39 127 73 161c28 28 70 45 113 45c73 0 118 -44 118 -117c0 -46 -22 -100 -58 -146c-56 -74 -107 -111 -231 -193l-5 -23
c-3 -14 -12 -46 -12 -67c0 -40 21 -81 84 -81c44 0 77 17 135 71zM228 301c138 101 199 181 199 255c0 34 -22 56 -55 56c-28 0 -52 -14 -67 -37c-14 -22 -15 -25 -33 -96z" />
    <glyph glyph-name="estimated" unicode="&#x212e;" horiz-adv-x="834" 
d="M840 311h-662c-2 -18 -2 -25 -2 -38c0 -138 95 -218 258 -218c122 0 222 53 307 162l68 -38c-98 -124 -227 -191 -388 -191c-206 0 -336 112 -336 290c0 227 185 399 428 399c203 0 330 -120 330 -312c0 -12 -1 -28 -3 -54zM191 379h565c-2 58 -6 80 -25 116
c-39 75 -119 117 -223 117c-151 0 -276 -92 -317 -233z" />
    <glyph glyph-name="acute.cap" horiz-adv-x="292" 
d="M252 895l-145 -127h-67l87 127h125z" />
    <glyph glyph-name="breve.cap" horiz-adv-x="292" 
d="M211 876h70c-18 -54 -66 -109 -157 -109c-53 0 -114 28 -114 95v14h69c-1 -7 -1 -12 -1 -17c0 -21 26 -40 50 -40c42 0 68 17 83 57z" />
    <glyph glyph-name="caron.cap" horiz-adv-x="292" 
d="M274 895l-128 -128h-72l-57 128h66l34 -80l77 80h80z" />
    <glyph glyph-name="cedilla.cap" horiz-adv-x="292" 
d="M144 -12h38l-22 -31c4 -1 16 -3 28 -9c46 -25 48 -67 48 -77c0 -60 -54 -108 -125 -108c-24 0 -49 5 -56 6l7 29c5 0 22 -1 32 -1c42 0 54 24 54 41c0 35 -41 49 -75 55z" />
    <glyph glyph-name="circumflex.cap" horiz-adv-x="292" 
d="M275 767h-67l-33 79l-78 -79h-80l129 128h72z" />
    <glyph glyph-name="commaaccent" horiz-adv-x="292" 
d="M118 -38h80c-20 -85 -34 -108 -66 -150h-39c17 22 33 53 41 80h-32z" />
    <glyph glyph-name="dieresis.cap" horiz-adv-x="292" 
d="M301 880l-24 -103h-91l24 103h91zM107 880l-23 -103h-92l24 103h91z" />
    <glyph glyph-name="dotaccent.cap" horiz-adv-x="292" 
d="M203 880l-23 -103h-92l23 103h92z" />
    <glyph glyph-name="grave.cap" horiz-adv-x="292" 
d="M216 770h-54l-86 125h104z" />
    <glyph glyph-name="hungarumlaut.cap" horiz-adv-x="292" 
d="M162 888l-144 -127h-59l85 127h118zM334 888l-144 -127h-59l85 127h118z" />
    <glyph glyph-name="macron.cap" horiz-adv-x="292" 
d="M297 849l-14 -67h-288l14 67h288z" />
    <glyph glyph-name="ring.cap" horiz-adv-x="292" 
d="M236 857c0 -50 -40 -90 -90 -90s-90 40 -90 90c0 51 40 90 90 90s90 -40 90 -90zM194 856c0 27 -21 47 -48 47c-26 0 -47 -21 -47 -47c0 -27 21 -48 48 -48c26 0 47 22 47 48z" />
    <glyph glyph-name="tilde.cap" horiz-adv-x="292" 
d="M254 887l40 -21c-27 -58 -49 -83 -91 -83c-36 0 -82 34 -115 34c-17 0 -32 -8 -46 -37l-43 18c32 66 61 85 96 85c30 0 74 -33 113 -33c15 0 29 8 46 37z" />
    <glyph glyph-name="caron.alt" horiz-adv-x="292" 
d="M123 706h78c-21 -102 -45 -140 -77 -193h-34c8 13 32 54 49 109h-35z" />
    <glyph glyph-name="Eth" unicode="&#xd0;" horiz-adv-x="729" 
d="M221 706h194c68 0 162 -1 229 -55c70 -57 88 -145 88 -214c0 -124 -48 -333 -233 -410c-65 -27 -125 -27 -189 -27h-252l79 345h-79l16 67h79zM292 634l-51 -222h185l-15 -67h-186l-62 -273h196c204 0 285 222 285 359c0 198 -135 203 -210 203h-142z" />
    <glyph glyph-name="eth" unicode="&#xf0;" 
d="M536 606l-79 -21c33 -58 69 -140 69 -272c0 -224 -136 -325 -266 -325c-129 0 -199 93 -199 211c0 139 105 284 262 284c70 0 102 -31 128 -67c-13 74 -37 120 -54 152l-165 -45l-15 44l154 43c-23 30 -39 52 -64 80l55 31c46 -55 46 -58 70 -94l87 24zM442 283
c0 58 -23 139 -115 139c-126 0 -185 -130 -185 -233c0 -106 62 -141 120 -141c128 0 180 151 180 235z" />
    <glyph glyph-name="Lslash" unicode="&#x141;" 
d="M497 76l-17 -76h-423l47 208l-83 -78l24 104l83 76l92 396h88l-67 -291l196 180l-24 -104l-196 -182l-55 -233h335z" />
    <glyph glyph-name="lslash" unicode="&#x142;" horiz-adv-x="229" 
d="M299 518l-24 -102l-74 -71l-79 -345h-78l57 250l-74 -69l23 100l75 70l82 355h78l-60 -258z" />
    <glyph glyph-name="Scaron" unicode="&#x160;" horiz-adv-x="667" 
d="M691 530l-87 -21c-13 78 -57 143 -172 143c-105 0 -170 -53 -170 -121c0 -58 52 -80 125 -109l81 -32c89 -35 156 -84 156 -181c0 -82 -52 -222 -282 -222c-116 0 -281 33 -281 241l94 18c0 -4 -1 -10 -1 -18c0 -87 50 -175 185 -175c140 0 194 77 194 143
c0 64 -50 90 -111 114l-86 34c-59 23 -167 62 -167 177c0 166 174 199 267 199c120 0 241 -47 255 -190zM638 895l-128 -128h-72l-57 128h66l34 -80l77 80h80z" />
    <glyph glyph-name="scaron" unicode="&#x161;" horiz-adv-x="479" 
d="M49 162l80 13c-1 -6 -6 -22 -6 -40c0 -66 49 -88 111 -88c71 0 120 32 120 83c0 32 -20 48 -71 68l-83 32c-59 23 -97 58 -97 113c0 58 48 140 189 140c138 0 166 -74 166 -124c0 -6 0 -11 -1 -18l-76 -13c1 3 3 14 3 27c0 39 -37 70 -91 70c-74 0 -107 -40 -107 -72
c0 -34 26 -45 72 -63l77 -30c57 -22 103 -50 103 -116c0 -43 -26 -156 -200 -156c-135 0 -192 58 -192 143c0 8 0 15 3 31zM521 683l-155 -153h-71l-70 153h68l45 -104l103 104h80z" />
    <glyph glyph-name="Yacute" unicode="&#xdd;" horiz-adv-x="583" 
d="M707 706l-359 -399l-70 -307h-89l73 317l-121 389h89l95 -319l276 319h106zM588 895l-145 -127h-67l87 127h125z" />
    <glyph glyph-name="yacute" unicode="&#xfd;" horiz-adv-x="458" 
d="M509 471l-356 -602c-53 -89 -85 -100 -157 -100c-28 0 -41 2 -50 3l16 68c12 -1 25 -2 37 -2c55 0 72 31 95 71l58 99l-53 463h78l37 -376l208 376h87zM461 683l-143 -150h-61l87 150h117z" />
    <glyph glyph-name="Thorn" unicode="&#xde;" horiz-adv-x="646" 
d="M56 0l163 706h88l-30 -129h197c91 0 201 -41 201 -180c0 -158 -133 -225 -275 -225h-217l-39 -172h-88zM200 245h193c139 0 194 73 194 150c0 72 -48 107 -120 107h-207z" />
    <glyph glyph-name="thorn" unicode="&#xfe;" 
d="M-6 -215l213 921h77l-68 -294c27 34 67 68 140 68c65 0 170 -37 170 -187c0 -76 -25 -185 -112 -255c-59 -47 -120 -47 -138 -47c-86 0 -117 45 -136 90l-69 -296h-77zM167 167c0 -96 73 -112 108 -112c98 0 173 107 173 234c0 120 -90 128 -110 128
c-125 0 -171 -144 -171 -250z" />
    <glyph glyph-name="Zcaron" unicode="&#x17d;" horiz-adv-x="583" 
d="M646 706l-18 -79l-512 -550h450l-18 -77h-549l21 90l502 537h-383l18 79h489zM597 895l-128 -128h-72l-57 128h66l34 -80l77 80h80z" />
    <glyph glyph-name="zcaron" unicode="&#x17e;" horiz-adv-x="458" 
d="M479 471l-17 -74l-345 -329h299l-16 -68h-401l15 63l356 340h-266l15 68h360zM510 683l-155 -153h-71l-70 153h68l45 -104l103 104h80z" />
    <glyph glyph-name="onehalf" unicode="&#xbd;" horiz-adv-x="917" 
d="M534 0l13 59c38 20 63 36 98 59c73 48 183 124 183 214c0 61 -52 69 -71 69c-61 0 -89 -57 -89 -105c0 -11 1 -19 2 -31l-63 13v12c0 136 103 159 152 159c67 0 131 -34 131 -115c0 -127 -138 -210 -178 -235c-34 -21 -59 -35 -92 -49c0 0 207 3 229 3l-12 -53h-303z
M658 669l-361 -698l-44 23l363 697zM250 233h-58l79 339c-36 -18 -73 -18 -84 -18c-12 0 -21 1 -34 2l11 49c10 -1 16 -1 25 -1c19 0 90 0 107 78h58z" />
    <glyph glyph-name="onequarter" unicode="&#xbc;" horiz-adv-x="917" 
d="M883 170l-12 -50h-60l-27 -120h-56l28 120h-204l12 50l262 279h57l-60 -279h60zM681 669l-362 -698l-44 23l363 697zM818 377l-184 -207h133zM250 233h-58l79 339c-36 -18 -73 -18 -84 -18c-12 0 -21 1 -34 2l11 49c10 -1 16 -1 25 -1c19 0 90 0 107 78h58z" />
    <glyph glyph-name="onesuperior" unicode="&#xb9;" horiz-adv-x="396" 
d="M259 233h-58l79 339c-36 -18 -73 -18 -84 -18c-12 0 -21 1 -34 2l11 49c10 -1 16 -1 25 -1c19 0 90 0 107 78h58z" />
    <glyph glyph-name="threequarters" unicode="&#xbe;" horiz-adv-x="917" 
d="M883 170l-12 -50h-60l-27 -120h-56l28 120h-204l12 50l262 279h57l-60 -279h60zM725 669l-362 -698l-44 23l363 697zM74 366l63 8c0 -26 12 -103 100 -103c74 0 98 51 98 86c0 75 -83 79 -131 79h-15l11 49c9 -1 21 -2 30 -2c89 0 128 37 128 87c0 25 -15 63 -72 63
c-59 0 -91 -46 -91 -99l-65 12c8 34 14 52 23 67c34 56 93 68 137 68c61 0 129 -34 129 -112c0 -62 -47 -102 -106 -110c4 -1 28 -5 45 -18c40 -32 40 -75 40 -86c-2 -94 -95 -131 -162 -131c-52 0 -122 15 -151 88c-9 23 -10 48 -11 54zM818 377l-184 -207h133z" />
    <glyph glyph-name="threesuperior" unicode="&#xb3;" horiz-adv-x="396" 
d="M88 366l63 8c0 -26 12 -103 100 -103c74 0 98 51 98 86c0 75 -83 79 -131 79h-15l11 49c9 -1 21 -2 30 -2c89 0 128 37 128 87c0 25 -15 63 -72 63c-59 0 -91 -46 -91 -99l-65 12c8 34 14 52 23 67c34 56 93 68 137 68c61 0 129 -34 129 -112c0 -62 -47 -102 -106 -110
c4 -1 28 -5 45 -18c40 -32 40 -75 40 -86c-2 -94 -95 -131 -162 -131c-52 0 -122 15 -151 88c-9 23 -10 48 -11 54z" />
    <glyph glyph-name="twosuperior" unicode="&#xb2;" horiz-adv-x="396" 
d="M72 233l13 59c38 20 63 36 98 59c73 48 183 124 183 214c0 61 -52 69 -71 69c-61 0 -89 -57 -89 -105c0 -11 1 -19 2 -31l-63 13v12c0 136 103 159 152 159c67 0 131 -34 131 -115c0 -127 -138 -210 -178 -235c-34 -21 -59 -35 -92 -49c0 0 207 3 229 3l-12 -53h-303z
" />
    <glyph glyph-name="brokenbar" unicode="&#xa6;" horiz-adv-x="236" 
d="M306 779l-93 -402h-82l92 402h83zM186 259l-93 -402h-83l93 402h83z" />
    <glyph glyph-name="minus" unicode="&#x2212;" horiz-adv-x="724" 
d="M691 341l-19 -80h-565l18 80h566z" />
    <glyph glyph-name="multiply" unicode="&#xd7;" horiz-adv-x="724" 
d="M656 465l-204 -166l143 -178l-69 -56l-142 178l-201 -163l-48 59l202 164l-142 176l68 56l142 -177l204 166z" />
    <glyph glyph-name="uni00AD" unicode="&#xad;" horiz-adv-x="370" 
d="M368 338l-17 -76h-281l18 76h280z" />
    <glyph glyph-name="uni03BC" unicode="&#x3bc;" horiz-adv-x="547" 
d="M550 471l-83 -367c-2 -8 -3 -17 -3 -23c0 -17 8 -25 25 -25c9 0 14 1 29 7l-15 -65c-21 -5 -34 -7 -50 -7c-51 0 -76 20 -76 61v19c-43 -59 -83 -82 -144 -82c-48 0 -78 17 -95 56l-58 -261h-82l160 687h76l-54 -234c-10 -44 -15 -76 -15 -95c0 -53 34 -85 89 -85
c46 0 89 25 120 70c22 31 31 54 48 130l49 214h79z" />
    <glyph glyph-name="uni03A9" unicode="&#x3a9;" horiz-adv-x="742" 
d="M682 75l-17 -75h-272l18 80c140 35 241 207 241 371c0 129 -69 202 -191 202c-157 0 -270 -149 -270 -355c0 -104 33 -180 121 -218l-17 -80h-272l17 75h172c-78 60 -112 136 -112 241c0 234 155 407 364 407c171 0 280 -103 280 -266c0 -150 -84 -311 -227 -382h165z
" />
    <glyph glyph-name="uni0394" unicode="&#x394;" horiz-adv-x="640" 
d="M625 0h-648l411 706h98zM519 75l-97 544l-298 -544h395z" />
    <glyph glyph-name="uni2215" unicode="&#x2215;" horiz-adv-x="125" 
d="M288 669l-361 -698l-44 23l363 697z" />
    <glyph glyph-name="uni2219" unicode="&#x2219;" horiz-adv-x="200" 
d="M191 352l-27 -124h-102l28 124h101z" />
    <glyph glyph-name="uni02C9" unicode="&#x2c9;" horiz-adv-x="292" 
d="M297 608l-15 -66h-287l15 66h287z" />
    <glyph glyph-name="uni037E" unicode="&#x37e;" horiz-adv-x="271" 
d="M280 492l-25 -110h-101l26 110h100zM99 109h98c-11 -85 -46 -193 -94 -264h-50c26 50 49 100 63 155h-42z" />
    <glyph glyph-name="zero.tab" horiz-adv-x="583" 
d="M76 248c0 214 115 429 309 429c150 0 209 -128 209 -265c0 -186 -107 -424 -310 -424c-124 0 -208 94 -208 260zM162 226c0 -113 57 -174 126 -174c142 0 221 224 221 374c0 160 -78 187 -125 187c-128 0 -222 -190 -222 -387z" />
    <glyph glyph-name="one.tab" horiz-adv-x="583" 
d="M476 677l-156 -677h-83l120 518c-30 -18 -85 -30 -128 -30c-17 0 -34 1 -51 3l16 68c3 0 20 -1 37 -1c130 0 154 87 163 119h82z" />
    <glyph glyph-name="two.tab" horiz-adv-x="583" 
d="M30 0l20 86c91 49 185 109 269 174c33 25 157 128 157 243c0 76 -55 106 -108 106c-66 0 -140 -51 -140 -163c0 -20 2 -32 3 -42l-91 19v12c0 139 76 242 229 242c78 0 196 -37 196 -172c0 -48 -13 -123 -87 -208c-36 -42 -132 -135 -334 -227c0 0 334 5 358 5l-17 -75
h-455z" />
    <glyph glyph-name="three.tab" horiz-adv-x="583" 
d="M220 311l17 68c10 -1 22 -2 44 -2c83 0 196 27 196 133c0 69 -55 100 -112 100c-102 0 -131 -81 -138 -115c-3 -17 -3 -28 -4 -35l-92 17c3 15 12 61 35 100c57 97 169 100 200 100c154 0 198 -102 198 -169c0 -95 -79 -161 -175 -165c89 -10 142 -74 142 -156
c0 -147 -145 -199 -248 -199c-166 0 -238 111 -238 212l90 10c4 -65 36 -155 156 -155c91 0 150 59 150 133c0 44 -24 81 -64 101c-37 19 -75 20 -157 22z" />
    <glyph glyph-name="four.tab" horiz-adv-x="583" 
d="M554 254l-17 -72h-91l-42 -182h-79l42 182h-308l16 72l397 423h82l-91 -423h91zM464 580l-292 -326h212z" />
    <glyph glyph-name="five.tab" horiz-adv-x="583" 
d="M586 665l-17 -71h-307l-56 -209c29 29 71 71 157 71c117 0 190 -83 190 -195c0 -76 -33 -153 -88 -205c-65 -61 -135 -68 -183 -68c-43 0 -108 6 -165 54c-62 53 -68 117 -71 145l82 13c18 -126 106 -146 151 -146c101 0 188 86 188 203c0 91 -56 131 -116 131
c-64 0 -120 -42 -145 -80l-89 14l93 343h376z" />
    <glyph glyph-name="six.tab" horiz-adv-x="583" 
d="M622 517l-86 -17c-4 58 -48 107 -117 107c-151 0 -223 -193 -239 -286c26 42 79 127 198 127c115 0 194 -79 194 -201c0 -112 -74 -259 -253 -259c-150 0 -225 111 -225 269c0 131 58 255 116 319c48 54 123 101 211 101c61 0 103 -22 128 -40c58 -42 68 -95 73 -120z
M192 195c0 -77 48 -140 131 -140c104 0 166 98 166 190c0 90 -53 134 -122 134c-111 0 -175 -99 -175 -184z" />
    <glyph glyph-name="seven.tab" horiz-adv-x="583" 
d="M162 665h414c-1 -17 -5 -44 -18 -82c-19 -59 -52 -102 -113 -209c-98 -174 -141 -288 -163 -374h-100c27 94 95 243 159 350c20 33 41 65 63 98c27 40 65 101 73 148h-255l-29 -125h-76z" />
    <glyph glyph-name="eight.tab" horiz-adv-x="583" 
d="M446 351c67 -16 106 -83 106 -146c0 -106 -83 -217 -262 -217c-148 0 -220 82 -220 176c0 90 67 171 147 187c-21 11 -79 41 -79 123c0 94 73 203 235 203c116 0 201 -61 201 -164c0 -89 -61 -143 -128 -162zM222 481c0 -43 26 -101 121 -101c101 0 147 73 147 129
c0 63 -49 102 -122 102c-105 0 -146 -80 -146 -130zM154 168c0 -78 69 -119 141 -119c92 0 173 65 173 153c0 64 -55 117 -134 117c-90 0 -180 -57 -180 -151z" />
    <glyph glyph-name="nine.tab" horiz-adv-x="583" 
d="M42 151l82 10c16 -76 72 -104 127 -104c150 0 214 159 236 278c-16 -26 -72 -121 -197 -121c-118 0 -193 83 -193 198c0 132 90 265 258 265c153 0 220 -117 220 -258c0 -189 -103 -431 -329 -431c-90 0 -193 47 -204 163zM180 413c0 -89 57 -130 121 -130
c77 0 178 57 178 188c0 85 -49 140 -127 140c-123 0 -172 -120 -172 -198z" />
    <glyph glyph-name="Amacron" unicode="&#x100;" horiz-adv-x="667" 
d="M607 0h-91l-25 222h-268l-128 -222h-95l409 706h108zM483 295l-35 353l-183 -353h218zM627 849l-14 -67h-288l14 67h288z" />
    <glyph glyph-name="amacron" unicode="&#x101;" horiz-adv-x="500" 
d="M470 69l-15 -65c-24 -6 -34 -7 -47 -7c-24 0 -69 10 -69 59c0 4 0 9 1 13c-16 -30 -64 -79 -164 -79c-110 0 -140 70 -140 117c0 78 56 135 148 153c61 12 133 18 195 31c4 19 10 43 10 62c0 34 -21 67 -91 67c-101 0 -112 -77 -115 -95l-89 8c22 62 61 147 215 147
c66 0 161 -30 161 -113c0 -23 -4 -45 -9 -67l-43 -185c-2 -9 -4 -19 -4 -29c0 -20 13 -24 25 -24c8 0 15 1 31 7zM365 230l-17 -2c-93 -11 -225 -26 -225 -114c0 -28 18 -65 80 -65c31 0 77 15 101 34c38 30 44 75 48 91zM494 608l-15 -66h-287l15 66h287z" />
    <glyph glyph-name="Abreve" unicode="&#x102;" horiz-adv-x="667" 
d="M607 0h-91l-25 222h-268l-128 -222h-95l409 706h108zM483 295l-35 353l-183 -353h218zM561 876h70c-18 -54 -66 -109 -157 -109c-53 0 -114 28 -114 95v14h69c-1 -7 -1 -12 -1 -17c0 -21 26 -40 50 -40c42 0 68 17 83 57z" />
    <glyph glyph-name="abreve" unicode="&#x103;" horiz-adv-x="500" 
d="M470 69l-15 -65c-24 -6 -34 -7 -47 -7c-24 0 -69 10 -69 59c0 4 0 9 1 13c-16 -30 -64 -79 -164 -79c-110 0 -140 70 -140 117c0 78 56 135 148 153c61 12 133 18 195 31c4 19 10 43 10 62c0 34 -21 67 -91 67c-101 0 -112 -77 -115 -95l-89 8c22 62 61 147 215 147
c66 0 161 -30 161 -113c0 -23 -4 -45 -9 -67l-43 -185c-2 -9 -4 -19 -4 -29c0 -20 13 -24 25 -24c8 0 15 1 31 7zM365 230l-17 -2c-93 -11 -225 -26 -225 -114c0 -28 18 -65 80 -65c31 0 77 15 101 34c38 30 44 75 48 91zM433 668h74c-15 -42 -63 -130 -169 -130
c-68 0 -127 34 -127 114v16h72c-1 -8 -2 -14 -2 -22c0 -35 28 -52 58 -52c25 0 68 11 94 74z" />
    <glyph glyph-name="Aogonek" unicode="&#x104;" horiz-adv-x="667" 
d="M95 0h-95l409 706h108l90 -706h-13c-31 -6 -89 -60 -89 -87c0 -14 10 -25 32 -25c16 0 28 2 44 3l-18 -75c-20 -3 -34 -5 -54 -5c-65 0 -86 39 -86 72c0 59 51 100 91 130l-23 209h-268zM483 295l-35 353l-183 -353h218z" />
    <glyph glyph-name="aogonek" unicode="&#x105;" horiz-adv-x="500" 
d="M470 69l-15 -65c-10 -3 -25 -6 -48 -7c-32 -9 -82 -59 -82 -84c0 -14 10 -25 32 -25c16 0 28 2 44 3l-18 -75c-20 -3 -34 -5 -54 -5c-65 0 -86 39 -86 72c0 73 76 118 105 141c-5 8 -9 18 -9 32c0 4 0 9 1 13c-16 -30 -64 -79 -164 -79c-110 0 -140 70 -140 117
c0 78 56 135 148 153c61 12 133 18 195 31c4 19 10 43 10 62c0 34 -21 67 -91 67c-101 0 -112 -77 -115 -95l-89 8c22 62 61 147 215 147c66 0 161 -30 161 -113c0 -23 -4 -45 -9 -67l-43 -185c-2 -9 -4 -19 -4 -29c0 -20 13 -24 25 -24c8 0 15 1 31 7zM365 230l-17 -2
c-93 -11 -225 -26 -225 -114c0 -28 18 -65 80 -65c31 0 77 15 101 34c38 30 44 75 48 91z" />
    <glyph glyph-name="Cacute" unicode="&#x106;" horiz-adv-x="771" 
d="M777 505l-89 -17c-17 67 -69 161 -219 161c-223 0 -287 -219 -287 -339c0 -135 59 -251 226 -251c127 0 212 70 262 186l89 -12c-66 -163 -197 -246 -355 -246c-142 0 -317 72 -317 325c0 220 143 408 383 408c198 0 279 -111 307 -215zM648 895l-145 -127h-67l87 127
h125z" />
    <glyph glyph-name="cacute" unicode="&#x107;" horiz-adv-x="509" 
d="M509 340l-74 -17c-8 32 -25 96 -112 96c-137 0 -180 -161 -180 -228c0 -70 35 -145 124 -145c55 0 114 32 139 107l82 -11c-31 -73 -90 -154 -227 -154c-80 0 -199 37 -199 198c0 168 112 297 262 297c90 0 178 -47 185 -143zM498 683l-143 -150h-61l87 150h117z" />
    <glyph glyph-name="Ccircumflex" unicode="&#x108;" horiz-adv-x="771" 
d="M777 505l-89 -17c-17 67 -69 161 -219 161c-223 0 -287 -219 -287 -339c0 -135 59 -251 226 -251c127 0 212 70 262 186l89 -12c-66 -163 -197 -246 -355 -246c-142 0 -317 72 -317 325c0 220 143 408 383 408c198 0 279 -111 307 -215zM617 767h-67l-33 79l-78 -79h-80
l129 128h72z" />
    <glyph glyph-name="ccircumflex" unicode="&#x109;" horiz-adv-x="509" 
d="M509 340l-74 -17c-8 32 -25 96 -112 96c-137 0 -180 -161 -180 -228c0 -70 35 -145 124 -145c55 0 114 32 139 107l82 -11c-31 -73 -90 -154 -227 -154c-80 0 -199 37 -199 198c0 168 112 297 262 297c90 0 178 -47 185 -143zM498 529h-68l-45 106l-100 -106h-83l155 154
h73z" />
    <glyph glyph-name="Cdotaccent" unicode="&#x10a;" horiz-adv-x="771" 
d="M777 505l-89 -17c-17 67 -69 161 -219 161c-223 0 -287 -219 -287 -339c0 -135 59 -251 226 -251c127 0 212 70 262 186l89 -12c-66 -163 -197 -246 -355 -246c-142 0 -317 72 -317 325c0 220 143 408 383 408c198 0 279 -111 307 -215zM559 880l-23 -103h-92l23 103h92z
" />
    <glyph glyph-name="cdotaccent" unicode="&#x10b;" horiz-adv-x="509" 
d="M509 340l-74 -17c-8 32 -25 96 -112 96c-137 0 -180 -161 -180 -228c0 -70 35 -145 124 -145c55 0 114 32 139 107l82 -11c-31 -73 -90 -154 -227 -154c-80 0 -199 37 -199 198c0 168 112 297 262 297c90 0 178 -47 185 -143zM415 653l-24 -102h-92l24 102h92z" />
    <glyph glyph-name="Ccaron" unicode="&#x10c;" horiz-adv-x="771" 
d="M777 505l-89 -17c-17 67 -69 161 -219 161c-223 0 -287 -219 -287 -339c0 -135 59 -251 226 -251c127 0 212 70 262 186l89 -12c-66 -163 -197 -246 -355 -246c-142 0 -317 72 -317 325c0 220 143 408 383 408c198 0 279 -111 307 -215zM648 895l-128 -128h-72l-57 128
h66l34 -80l77 80h80z" />
    <glyph glyph-name="ccaron" unicode="&#x10d;" horiz-adv-x="509" 
d="M509 340l-74 -17c-8 32 -25 96 -112 96c-137 0 -180 -161 -180 -228c0 -70 35 -145 124 -145c55 0 114 32 139 107l82 -11c-31 -73 -90 -154 -227 -154c-80 0 -199 37 -199 198c0 168 112 297 262 297c90 0 178 -47 185 -143zM525 683l-155 -153h-71l-70 153h68l45 -104
l103 104h80z" />
    <glyph glyph-name="Dcaron" unicode="&#x10e;" horiz-adv-x="729" 
d="M58 0l163 706h241c160 0 270 -89 270 -273c0 -174 -95 -433 -378 -433h-296zM163 72h176c61 0 136 6 203 80c92 102 102 239 102 280c0 12 0 83 -32 131c-42 63 -113 71 -179 71h-141zM599 895l-128 -128h-72l-57 128h66l34 -80l77 80h80z" />
    <glyph glyph-name="dcaron" unicode="&#x10f;" horiz-adv-x="562" 
d="M616 706l-163 -706h-77l14 64c-27 -39 -74 -73 -147 -73c-131 0 -180 96 -180 199c0 154 99 290 258 290c70 0 136 -32 142 -100l76 326h77zM145 193c0 -87 44 -141 118 -141c119 0 173 145 173 247c0 58 -29 119 -112 119c-100 0 -179 -98 -179 -225zM644 706h78
c-21 -102 -45 -140 -77 -193h-34c8 13 32 54 49 109h-35z" />
    <glyph glyph-name="Dcroat" unicode="&#x110;" horiz-adv-x="729" 
d="M58 0l79 345h-79l16 67h79l68 294h194c68 0 162 -1 229 -55c70 -57 88 -145 88 -214c0 -124 -48 -333 -233 -410c-65 -27 -125 -27 -189 -27h-252zM163 72h196c204 0 285 222 285 359c0 198 -135 203 -210 203h-142l-51 -222h185l-15 -67h-186z" />
    <glyph glyph-name="dcroat" unicode="&#x111;" horiz-adv-x="562" 
d="M582 562l-129 -562h-77l14 64c-27 -39 -74 -73 -147 -73c-131 0 -180 96 -180 199c0 154 99 290 258 290c70 0 136 -32 142 -100l42 182h-163l13 59h164l20 85h77l-20 -85h63l-13 -59h-64zM145 193c0 -87 44 -141 118 -141c119 0 173 145 173 247c0 58 -29 119 -112 119
c-100 0 -179 -98 -179 -225z" />
    <glyph glyph-name="Emacron" unicode="&#x112;" horiz-adv-x="625" 
d="M678 706l-17 -75h-370l-54 -233h339l-16 -70h-339l-59 -253h420l-17 -75h-509l163 706h459zM623 849l-14 -67h-288l14 67h288z" />
    <glyph glyph-name="emacron" unicode="&#x113;" horiz-adv-x="521" 
d="M494 227h-353c-1 -7 -2 -19 -2 -33c0 -129 98 -145 133 -145c53 0 112 33 134 96l75 -13c-16 -45 -80 -144 -225 -144c-127 0 -194 85 -194 201c0 163 106 294 260 294c110 0 178 -66 178 -193c0 -19 0 -31 -6 -63zM156 285h266c0 4 1 11 1 19c0 71 -44 118 -106 118
c-77 0 -141 -66 -161 -137zM498 608l-15 -66h-287l15 66h287z" />
    <glyph glyph-name="Ebreve" unicode="&#x114;" horiz-adv-x="625" 
d="M678 706l-17 -75h-370l-54 -233h339l-16 -70h-339l-59 -253h420l-17 -75h-509l163 706h459zM538 876h70c-18 -54 -66 -109 -157 -109c-53 0 -114 28 -114 95v14h69c-1 -7 -1 -12 -1 -17c0 -21 26 -40 50 -40c42 0 68 17 83 57z" />
    <glyph glyph-name="ebreve" unicode="&#x115;" horiz-adv-x="521" 
d="M494 227h-353c-1 -7 -2 -19 -2 -33c0 -129 98 -145 133 -145c53 0 112 33 134 96l75 -13c-16 -45 -80 -144 -225 -144c-127 0 -194 85 -194 201c0 163 106 294 260 294c110 0 178 -66 178 -193c0 -19 0 -31 -6 -63zM156 285h266c0 4 1 11 1 19c0 71 -44 118 -106 118
c-77 0 -141 -66 -161 -137zM429 668h74c-15 -42 -63 -130 -169 -130c-68 0 -127 34 -127 114v16h72c-1 -8 -2 -14 -2 -22c0 -35 28 -52 58 -52c25 0 68 11 94 74z" />
    <glyph glyph-name="Edotaccent" unicode="&#x116;" horiz-adv-x="625" 
d="M678 706l-17 -75h-370l-54 -233h339l-16 -70h-339l-59 -253h420l-17 -75h-509l163 706h459zM522 880l-23 -103h-92l23 103h92z" />
    <glyph glyph-name="edotaccent" unicode="&#x117;" horiz-adv-x="521" 
d="M494 227h-353c-1 -7 -2 -19 -2 -33c0 -129 98 -145 133 -145c53 0 112 33 134 96l75 -13c-16 -45 -80 -144 -225 -144c-127 0 -194 85 -194 201c0 163 106 294 260 294c110 0 178 -66 178 -193c0 -19 0 -31 -6 -63zM156 285h266c0 4 1 11 1 19c0 71 -44 118 -106 118
c-77 0 -141 -66 -161 -137zM404 653l-24 -102h-92l24 102h92z" />
    <glyph glyph-name="Eogonek" unicode="&#x118;" horiz-adv-x="625" 
d="M678 706l-17 -75h-370l-54 -233h339l-16 -70h-339l-59 -253h420l-17 -75h-24c-29 -4 -89 -60 -89 -87c0 -14 10 -25 32 -25c16 0 28 2 44 3l-18 -75c-20 -3 -34 -5 -54 -5c-65 0 -86 39 -86 72c0 57 47 95 75 117h-389l163 706h459z" />
    <glyph glyph-name="eogonek" unicode="&#x119;" horiz-adv-x="521" 
d="M494 227h-353c-1 -7 -2 -19 -2 -33c0 -129 98 -145 133 -145c53 0 112 33 134 96l75 -13c-12 -34 -44 -86 -114 -121c-46 -23 -96 -72 -96 -98c0 -14 10 -25 32 -25c16 0 28 2 44 3l-18 -75c-20 -3 -34 -5 -54 -5c-65 0 -86 39 -86 72c0 48 32 82 59 105
c-122 4 -186 87 -186 201c0 163 106 294 260 294c110 0 178 -66 178 -193c0 -19 0 -31 -6 -63zM156 285h266c0 4 1 11 1 19c0 71 -44 118 -106 118c-77 0 -141 -66 -161 -137z" />
    <glyph glyph-name="Ecaron" unicode="&#x11a;" horiz-adv-x="625" 
d="M678 706l-17 -75h-370l-54 -233h339l-16 -70h-339l-59 -253h420l-17 -75h-509l163 706h459zM615 895l-128 -128h-72l-57 128h66l34 -80l77 80h80z" />
    <glyph glyph-name="ecaron" unicode="&#x11b;" horiz-adv-x="521" 
d="M494 227h-353c-1 -7 -2 -19 -2 -33c0 -129 98 -145 133 -145c53 0 112 33 134 96l75 -13c-16 -45 -80 -144 -225 -144c-127 0 -194 85 -194 201c0 163 106 294 260 294c110 0 178 -66 178 -193c0 -19 0 -31 -6 -63zM156 285h266c0 4 1 11 1 19c0 71 -44 118 -106 118
c-77 0 -141 -66 -161 -137zM520 683l-155 -153h-71l-70 153h68l45 -104l103 104h80z" />
    <glyph glyph-name="Gcircumflex" unicode="&#x11c;" horiz-adv-x="792" 
d="M797 504l-94 -12c-17 50 -62 153 -208 153c-226 0 -307 -206 -307 -343c0 -106 46 -243 219 -243c138 0 237 81 262 234h-265l16 73h345l-84 -366h-80l20 88c-40 -69 -140 -101 -229 -101c-201 0 -298 145 -298 315c0 267 194 418 400 418c138 0 269 -72 303 -216z
M641 767h-67l-33 79l-78 -79h-80l129 128h72z" />
    <glyph glyph-name="gcircumflex" unicode="&#x11d;" 
d="M465 471h76l-102 -445c-37 -162 -96 -246 -239 -246c-92 0 -187 43 -187 145c0 8 1 16 3 32l80 9c-5 -19 -6 -25 -6 -36c0 -39 30 -90 113 -90c110 0 135 89 165 208c-27 -24 -64 -57 -137 -57c-126 0 -169 109 -169 195c0 84 50 294 252 294c88 0 122 -56 136 -78z
M143 186c0 -107 63 -135 111 -135c135 0 165 193 165 248c0 49 -16 119 -101 119c-133 0 -175 -151 -175 -232zM488 529h-68l-45 106l-100 -106h-83l155 154h73z" />
    <glyph glyph-name="Gbreve" unicode="&#x11e;" horiz-adv-x="792" 
d="M797 504l-94 -12c-17 50 -62 153 -208 153c-226 0 -307 -206 -307 -343c0 -106 46 -243 219 -243c138 0 237 81 262 234h-265l16 73h345l-84 -366h-80l20 88c-40 -69 -140 -101 -229 -101c-201 0 -298 145 -298 315c0 267 194 418 400 418c138 0 269 -72 303 -216z
M595 876h70c-18 -54 -66 -109 -157 -109c-53 0 -114 28 -114 95v14h69c-1 -7 -1 -12 -1 -17c0 -21 26 -40 50 -40c42 0 68 17 83 57z" />
    <glyph glyph-name="gbreve" unicode="&#x11f;" 
d="M465 471h76l-102 -445c-37 -162 -96 -246 -239 -246c-92 0 -187 43 -187 145c0 8 1 16 3 32l80 9c-5 -19 -6 -25 -6 -36c0 -39 30 -90 113 -90c110 0 135 89 165 208c-27 -24 -64 -57 -137 -57c-126 0 -169 109 -169 195c0 84 50 294 252 294c88 0 122 -56 136 -78z
M143 186c0 -107 63 -135 111 -135c135 0 165 193 165 248c0 49 -16 119 -101 119c-133 0 -175 -151 -175 -232zM437 668h74c-15 -42 -63 -130 -169 -130c-68 0 -127 34 -127 114v16h72c-1 -8 -2 -14 -2 -22c0 -35 28 -52 58 -52c25 0 68 11 94 74z" />
    <glyph glyph-name="Gdotaccent" unicode="&#x120;" horiz-adv-x="792" 
d="M797 504l-94 -12c-17 50 -62 153 -208 153c-226 0 -307 -206 -307 -343c0 -106 46 -243 219 -243c138 0 237 81 262 234h-265l16 73h345l-84 -366h-80l20 88c-40 -69 -140 -101 -229 -101c-201 0 -298 145 -298 315c0 267 194 418 400 418c138 0 269 -72 303 -216z
M579 880l-23 -103h-92l23 103h92z" />
    <glyph glyph-name="gdotaccent" unicode="&#x121;" 
d="M465 471h76l-102 -445c-37 -162 -96 -246 -239 -246c-92 0 -187 43 -187 145c0 8 1 16 3 32l80 9c-5 -19 -6 -25 -6 -36c0 -39 30 -90 113 -90c110 0 135 89 165 208c-27 -24 -64 -57 -137 -57c-126 0 -169 109 -169 195c0 84 50 294 252 294c88 0 122 -56 136 -78z
M143 186c0 -107 63 -135 111 -135c135 0 165 193 165 248c0 49 -16 119 -101 119c-133 0 -175 -151 -175 -232zM410 653l-24 -102h-92l24 102h92z" />
    <glyph glyph-name="Gcommaaccent" unicode="&#x122;" horiz-adv-x="792" 
d="M797 504l-94 -12c-17 50 -62 153 -208 153c-226 0 -307 -206 -307 -343c0 -106 46 -243 219 -243c138 0 237 81 262 234h-265l16 73h345l-84 -366h-80l20 88c-40 -69 -140 -101 -229 -101c-201 0 -298 145 -298 315c0 267 194 418 400 418c138 0 269 -72 303 -216z
M354 -38h80c-20 -85 -34 -108 -66 -150h-39c17 22 33 53 41 80h-32z" />
    <glyph glyph-name="gcommaaccent" unicode="&#x123;" 
d="M465 471h76l-102 -445c-37 -162 -96 -246 -239 -246c-92 0 -187 43 -187 145c0 8 1 16 3 32l80 9c-5 -19 -6 -25 -6 -36c0 -39 30 -90 113 -90c110 0 135 89 165 208c-27 -24 -64 -57 -137 -57c-126 0 -169 109 -169 195c0 84 50 294 252 294c88 0 122 -56 136 -78z
M143 186c0 -107 63 -135 111 -135c135 0 165 193 165 248c0 49 -16 119 -101 119c-133 0 -175 -151 -175 -232zM371 533h-80c20 85 34 108 66 150h39c-17 -22 -33 -53 -41 -80h32z" />
    <glyph glyph-name="Hbar" unicode="&#x126;" horiz-adv-x="750" 
d="M110 522l16 70h68l27 114h87l-27 -114h390l27 114h87l-27 -114h69l-16 -70h-69l-120 -522h-87l78 337h-390l-78 -337h-87l120 522h-68zM240 411h390l25 111h-390z" />
    <glyph glyph-name="hbar" unicode="&#x127;" 
d="M402 562h-150l-39 -171c30 46 81 92 167 92c88 0 133 -48 133 -111c0 -30 -9 -67 -11 -77l-68 -295h-79l70 304c6 24 7 34 7 47c0 45 -34 68 -77 68c-62 0 -141 -32 -176 -180l-56 -239h-78l130 562h-66l13 59h66l20 85h78l-20 -85h148z" />
    <glyph glyph-name="Hcircumflex" unicode="&#x124;" horiz-adv-x="750" 
d="M785 706l-163 -706h-87l78 337h-390l-78 -337h-87l163 706h87l-68 -295h390l68 295h87zM641 767h-67l-33 79l-78 -79h-80l129 128h72z" />
    <glyph glyph-name="hcircumflex" unicode="&#x125;" 
d="M45 0l163 706h78l-73 -315c30 46 81 92 167 92c88 0 133 -48 133 -111c0 -30 -9 -67 -11 -77l-68 -295h-79l70 304c6 24 7 34 7 47c0 45 -34 68 -77 68c-62 0 -141 -32 -176 -180l-56 -239h-78zM381 767h-67l-33 79l-78 -79h-80l129 128h72z" />
    <glyph glyph-name="Itilde" unicode="&#x128;" horiz-adv-x="271" 
d="M306 706l-163 -706h-86l163 706h86zM396 887l40 -21c-27 -58 -49 -83 -91 -83c-36 0 -82 34 -115 34c-17 0 -32 -8 -46 -37l-43 18c32 66 61 85 96 85c30 0 74 -33 113 -33c15 0 29 8 46 37z" />
    <glyph glyph-name="itilde" unicode="&#x129;" horiz-adv-x="229" 
d="M228 471l-109 -471h-77l108 471h78zM323 664l39 -19c-26 -55 -47 -85 -88 -85c-35 0 -81 32 -114 32c-16 0 -31 -7 -44 -35l-42 17c31 63 59 87 93 87c30 0 73 -32 112 -32c14 0 28 8 44 35z" />
    <glyph glyph-name="uni012A" unicode="&#x12a;" horiz-adv-x="271" 
d="M306 706l-163 -706h-86l163 706h86zM413 849l-14 -67h-248l14 67h248z" />
    <glyph glyph-name="imacron" unicode="&#x12b;" horiz-adv-x="229" 
d="M228 471l-109 -471h-77l108 471h78zM343 608l-15 -66h-253l15 66h253z" />
    <glyph glyph-name="Ibreve" unicode="&#x12c;" horiz-adv-x="271" 
d="M306 706l-163 -706h-86l163 706h86zM355 876h70c-18 -54 -66 -109 -157 -109c-53 0 -114 28 -114 95v14h69c-1 -7 -1 -12 -1 -17c0 -21 26 -40 50 -40c42 0 68 17 83 57z" />
    <glyph glyph-name="uni012D" unicode="&#x12d;" horiz-adv-x="229" 
d="M228 471l-109 -471h-77l108 471h78zM294 668h74c-15 -42 -63 -130 -169 -130c-68 0 -127 34 -127 114v16h72c-1 -8 -2 -14 -2 -22c0 -35 28 -52 58 -52c25 0 68 11 94 74z" />
    <glyph glyph-name="Iogonek" unicode="&#x12e;" horiz-adv-x="271" 
d="M306 706l-163 -706c-30 -24 -73 -62 -73 -87c0 -14 10 -25 32 -25c16 0 28 2 44 3l-18 -75c-20 -3 -34 -5 -54 -5c-65 0 -86 39 -86 72c0 57 46 94 74 117h-5l163 706h86z" />
    <glyph glyph-name="iogonek" unicode="&#x12f;" horiz-adv-x="229" 
d="M229 471l-108 -471c-30 -24 -72 -64 -72 -87c0 -14 10 -25 32 -25c16 0 28 2 44 3l-18 -75c-20 -3 -34 -5 -54 -5c-65 0 -86 39 -86 72c0 57 46 95 74 117l109 471h79zM285 706l-21 -90h-82l21 90h82z" />
    <glyph glyph-name="Idotaccent" unicode="&#x130;" horiz-adv-x="271" 
d="M306 706l-163 -706h-86l163 706h86zM347 880l-23 -103h-92l23 103h92z" />
    <glyph glyph-name="IJ" unicode="&#x132;" horiz-adv-x="672" 
d="M306 706l-163 -706h-86l163 706h86zM712 706l-112 -485c-30 -132 -64 -234 -228 -234c-64 0 -90 9 -120 19l19 85c26 -12 56 -24 101 -24c107 0 127 95 145 175l107 464h88z" />
    <glyph glyph-name="ij" unicode="&#x133;" horiz-adv-x="458" 
d="M285 706l-21 -90h-82l21 90h82zM229 471l-108 -471h-80l109 471h79zM515 706l-21 -89h-79l20 89h80zM461 471l-127 -547c-26 -114 -46 -152 -149 -152c-28 0 -41 2 -53 4l15 64c9 -1 15 -2 32 -2c53 0 60 21 75 85l131 548h76z" />
    <glyph glyph-name="Jcircumflex" unicode="&#x134;" horiz-adv-x="437" 
d="M477 706l-112 -485c-30 -132 -64 -234 -228 -234c-64 0 -90 9 -120 19l19 85c26 -12 56 -24 101 -24c107 0 127 95 145 175l107 464h88zM568 767h-67l-33 79l-78 -79h-80l129 128h72z" />
    <glyph glyph-name="jcircumflex" unicode="&#x135;" horiz-adv-x="229" 
d="M232 471l-127 -547c-26 -114 -46 -152 -149 -152c-28 0 -41 2 -53 4l15 64c9 -1 15 -2 32 -2c53 0 60 21 75 85l131 548h76zM336 529h-68l-45 106l-100 -106h-83l155 154h73z" />
    <glyph glyph-name="Kcommaaccent" unicode="&#x136;" horiz-adv-x="646" 
d="M766 706l-335 -267l194 -439h-96l-168 384l-158 -125l-60 -259h-85l163 706h85l-77 -332l419 332h118zM289 -38h80c-20 -85 -34 -108 -66 -150h-39c17 22 33 53 41 80h-32z" />
    <glyph glyph-name="kcommaaccent" unicode="&#x137;" horiz-adv-x="479" 
d="M536 471l-242 -190l180 -281h-96l-145 231l-74 -57l-40 -174h-78l163 706h78l-100 -431l249 196h105zM202 -38h80c-20 -85 -34 -108 -66 -150h-39c17 22 33 53 41 80h-32z" />
    <glyph glyph-name="kgreenlandic" unicode="&#x138;" horiz-adv-x="479" 
d="M536 471l-242 -190l180 -281h-96l-145 231l-74 -57l-40 -174h-78l109 471h78l-46 -196l249 196h105z" />
    <glyph glyph-name="Lacute" unicode="&#x139;" 
d="M497 76l-17 -76h-423l163 706h88l-146 -630h335zM450 895l-145 -127h-67l87 127h125z" />
    <glyph glyph-name="lacute" unicode="&#x13a;" horiz-adv-x="229" 
d="M282 706l-163 -706h-78l163 706h78zM427 895l-145 -127h-67l87 127h125z" />
    <glyph glyph-name="Lcommaaccent" unicode="&#x13b;" 
d="M497 76l-17 -76h-423l163 706h88l-146 -630h335zM238 -38h80c-20 -85 -34 -108 -66 -150h-39c17 22 33 53 41 80h-32z" />
    <glyph glyph-name="lcommaaccent" unicode="&#x13c;" horiz-adv-x="229" 
d="M282 706l-163 -706h-78l163 706h78zM32 -38h80c-20 -85 -34 -108 -66 -150h-39c17 22 33 53 41 80h-32z" />
    <glyph glyph-name="Lcaron" unicode="&#x13d;" 
d="M497 76l-17 -76h-423l163 706h88l-146 -630h335zM339 706h78c-21 -102 -45 -140 -77 -193h-34c8 13 32 54 49 109h-35z" />
    <glyph glyph-name="lcaron" unicode="&#x13e;" horiz-adv-x="229" 
d="M282 706l-163 -706h-78l163 706h78zM312 706h78c-21 -102 -45 -140 -77 -193h-34c8 13 32 54 49 109h-35z" />
    <glyph glyph-name="Ldot" unicode="&#x13f;" 
d="M497 76l-17 -76h-423l163 706h88l-146 -630h335zM499 424l-23 -102h-90l23 102h90z" />
    <glyph glyph-name="ldot" unicode="&#x140;" horiz-adv-x="265" 
d="M281 706l-163 -706h-78l163 706h78zM352 416l-23 -98h-82l23 98h82z" />
    <glyph glyph-name="Nacute" unicode="&#x143;" horiz-adv-x="729" 
d="M763 706l-163 -706h-91l-234 613l-133 -613h-85l163 706h95l231 -611l133 611h84zM657 895l-145 -127h-67l87 127h125z" />
    <glyph glyph-name="nacute" unicode="&#x144;" 
d="M150 471h79l-16 -68c18 19 75 80 162 80c40 0 135 -23 135 -120c0 -24 -6 -56 -11 -79l-66 -284h-78l67 291c6 24 7 36 7 54c0 50 -34 75 -81 75c-108 0 -148 -76 -174 -188l-54 -232h-79zM504 683l-143 -150h-61l87 150h117z" />
    <glyph glyph-name="Ncommaaccent" unicode="&#x145;" horiz-adv-x="729" 
d="M763 706l-163 -706h-91l-234 613l-133 -613h-85l163 706h95l231 -611l133 611h84zM305 -38h80c-20 -85 -34 -108 -66 -150h-39c17 22 33 53 41 80h-32z" />
    <glyph glyph-name="ncommaaccent" unicode="&#x146;" 
d="M150 471h79l-16 -68c18 19 75 80 162 80c40 0 135 -23 135 -120c0 -24 -6 -56 -11 -79l-66 -284h-78l67 291c6 24 7 36 7 54c0 50 -34 75 -81 75c-108 0 -148 -76 -174 -188l-54 -232h-79zM195 -38h80c-20 -85 -34 -108 -66 -150h-39c17 22 33 53 41 80h-32z" />
    <glyph glyph-name="Ncaron" unicode="&#x147;" horiz-adv-x="729" 
d="M763 706l-163 -706h-91l-234 613l-133 -613h-85l163 706h95l231 -611l133 611h84zM657 895l-128 -128h-72l-57 128h66l34 -80l77 80h80z" />
    <glyph glyph-name="ncaron" unicode="&#x148;" 
d="M150 471h79l-16 -68c18 19 75 80 162 80c40 0 135 -23 135 -120c0 -24 -6 -56 -11 -79l-66 -284h-78l67 291c6 24 7 36 7 54c0 50 -34 75 -81 75c-108 0 -148 -76 -174 -188l-54 -232h-79zM544 683l-155 -153h-71l-70 153h68l45 -104l103 104h80z" />
    <glyph glyph-name="napostrophe" unicode="&#x149;" 
d="M150 471h79l-16 -68c18 19 75 80 162 80c40 0 135 -23 135 -120c0 -24 -6 -56 -11 -79l-66 -284h-78l67 291c6 24 7 36 7 54c0 50 -34 75 -81 75c-108 0 -148 -76 -174 -188l-54 -232h-79zM138 706h78c-21 -102 -45 -140 -77 -193h-34c8 13 32 54 49 109h-35z" />
    <glyph glyph-name="Eng" unicode="&#x14a;" horiz-adv-x="729" 
d="M763 706l-169 -738c-26 -114 -49 -152 -143 -152c-25 0 -47 4 -59 7l16 74c9 -4 29 -9 41 -9c36 0 49 10 65 79l3 13l-242 633l-133 -613h-85l163 706h95l231 -611l133 611h84z" />
    <glyph glyph-name="eng" unicode="&#x14b;" 
d="M120 0h-79l109 471h79l-16 -68c18 19 75 80 162 80c40 0 135 -23 135 -120c0 -24 -6 -56 -11 -79l-69 -297c-26 -114 -48 -152 -144 -152c-19 0 -36 3 -53 8l17 71c10 -3 24 -6 35 -6c40 0 51 14 66 78l71 305c6 24 7 36 7 54c0 50 -34 75 -81 75
c-108 0 -148 -76 -174 -188z" />
    <glyph glyph-name="Omacron" unicode="&#x14c;" horiz-adv-x="792" 
d="M96 308c0 231 147 412 381 412c211 0 316 -145 316 -322c0 -239 -171 -411 -386 -411c-193 0 -311 135 -311 321zM191 307c0 -137 82 -250 222 -250c188 0 287 176 287 346c0 175 -110 247 -223 247c-214 0 -286 -206 -286 -343zM666 849l-14 -67h-288l14 67h288z" />
    <glyph glyph-name="omacron" unicode="&#x14d;" 
d="M62 195c0 131 84 288 264 288c125 0 196 -94 196 -210c0 -137 -94 -285 -262 -285c-127 0 -198 91 -198 207zM142 189c0 -106 63 -141 118 -141c109 0 182 118 182 235c0 123 -83 139 -115 139c-123 0 -185 -126 -185 -233zM503 608l-15 -66h-287l15 66h287z" />
    <glyph glyph-name="Obreve" unicode="&#x14e;" horiz-adv-x="792" 
d="M96 308c0 231 147 412 381 412c211 0 316 -145 316 -322c0 -239 -171 -411 -386 -411c-193 0 -311 135 -311 321zM191 307c0 -137 82 -250 222 -250c188 0 287 176 287 346c0 175 -110 247 -223 247c-214 0 -286 -206 -286 -343zM586 876h70c-18 -54 -66 -109 -157 -109
c-53 0 -114 28 -114 95v14h69c-1 -7 -1 -12 -1 -17c0 -21 26 -40 50 -40c42 0 68 17 83 57z" />
    <glyph glyph-name="obreve" unicode="&#x14f;" 
d="M62 195c0 131 84 288 264 288c125 0 196 -94 196 -210c0 -137 -94 -285 -262 -285c-127 0 -198 91 -198 207zM142 189c0 -106 63 -141 118 -141c109 0 182 118 182 235c0 123 -83 139 -115 139c-123 0 -185 -126 -185 -233zM445 668h74c-15 -42 -63 -130 -169 -130
c-68 0 -127 34 -127 114v16h72c-1 -8 -2 -14 -2 -22c0 -35 28 -52 58 -52c25 0 68 11 94 74z" />
    <glyph glyph-name="Ohungarumlaut" unicode="&#x150;" horiz-adv-x="792" 
d="M96 308c0 231 147 412 381 412c211 0 316 -145 316 -322c0 -239 -171 -411 -386 -411c-193 0 -311 135 -311 321zM191 307c0 -137 82 -250 222 -250c188 0 287 176 287 346c0 175 -110 247 -223 247c-214 0 -286 -206 -286 -343zM565 888l-144 -127h-59l85 127h118z
M737 888l-144 -127h-59l85 127h118z" />
    <glyph glyph-name="ohungarumlaut" unicode="&#x151;" 
d="M62 195c0 131 84 288 264 288c125 0 196 -94 196 -210c0 -137 -94 -285 -262 -285c-127 0 -198 91 -198 207zM142 189c0 -106 63 -141 118 -141c109 0 182 118 182 235c0 123 -83 139 -115 139c-123 0 -185 -126 -185 -233zM426 683l-142 -150h-53l85 150h110zM574 683
l-142 -150h-53l85 150h110z" />
    <glyph glyph-name="Racute" unicode="&#x154;" horiz-adv-x="667" 
d="M57 0l163 706h285c47 0 83 -2 125 -29c69 -43 76 -120 76 -150c0 -108 -73 -190 -196 -208l122 -319h-96l-114 307h-207l-71 -307h-87zM232 381h205c132 0 180 76 180 147c0 58 -39 103 -114 103h-213zM595 895l-145 -127h-67l87 127h125z" />
    <glyph glyph-name="racute" unicode="&#x155;" horiz-adv-x="313" 
d="M42 0l108 471h77l-19 -83c32 56 78 92 140 92c6 0 18 -1 18 -1l-17 -75s-12 1 -21 1c-26 0 -65 -5 -101 -48c-40 -47 -55 -122 -58 -136l-51 -221h-76zM412 683l-143 -150h-61l87 150h117z" />
    <glyph glyph-name="Rcommaaccent" unicode="&#x156;" horiz-adv-x="667" 
d="M57 0l163 706h285c47 0 83 -2 125 -29c69 -43 76 -120 76 -150c0 -108 -73 -190 -196 -208l122 -319h-96l-114 307h-207l-71 -307h-87zM232 381h205c132 0 180 76 180 147c0 58 -39 103 -114 103h-213zM301 -38h80c-20 -85 -34 -108 -66 -150h-39c17 22 33 53 41 80h-32z
" />
    <glyph glyph-name="rcommaaccent" unicode="&#x157;" horiz-adv-x="313" 
d="M42 0l108 471h77l-19 -83c32 56 78 92 140 92c6 0 18 -1 18 -1l-17 -75s-12 1 -21 1c-26 0 -65 -5 -101 -48c-40 -47 -55 -122 -58 -136l-51 -221h-76zM35 -38h80c-20 -85 -34 -108 -66 -150h-39c17 22 33 53 41 80h-32z" />
    <glyph glyph-name="Rcaron" unicode="&#x158;" horiz-adv-x="667" 
d="M57 0l163 706h285c47 0 83 -2 125 -29c69 -43 76 -120 76 -150c0 -108 -73 -190 -196 -208l122 -319h-96l-114 307h-207l-71 -307h-87zM232 381h205c132 0 180 76 180 147c0 58 -39 103 -114 103h-213zM596 895l-128 -128h-72l-57 128h66l34 -80l77 80h80z" />
    <glyph glyph-name="rcaron" unicode="&#x159;" horiz-adv-x="313" 
d="M42 0l108 471h77l-19 -83c32 56 78 92 140 92c6 0 18 -1 18 -1l-17 -75s-12 1 -21 1c-26 0 -65 -5 -101 -48c-40 -47 -55 -122 -58 -136l-51 -221h-76zM455 683l-155 -153h-71l-70 153h68l45 -104l103 104h80z" />
    <glyph glyph-name="Sacute" unicode="&#x15a;" horiz-adv-x="667" 
d="M691 530l-87 -21c-13 78 -57 143 -172 143c-105 0 -170 -53 -170 -121c0 -58 52 -80 125 -109l81 -32c89 -35 156 -84 156 -181c0 -82 -52 -222 -282 -222c-116 0 -281 33 -281 241l94 18c0 -4 -1 -10 -1 -18c0 -87 50 -175 185 -175c140 0 194 77 194 143
c0 64 -50 90 -111 114l-86 34c-59 23 -167 62 -167 177c0 166 174 199 267 199c120 0 241 -47 255 -190zM615 895l-145 -127h-67l87 127h125z" />
    <glyph glyph-name="sacute" unicode="&#x15b;" horiz-adv-x="479" 
d="M49 162l80 13c-1 -6 -6 -22 -6 -40c0 -66 49 -88 111 -88c71 0 120 32 120 83c0 32 -20 48 -71 68l-83 32c-59 23 -97 58 -97 113c0 58 48 140 189 140c138 0 166 -74 166 -124c0 -6 0 -11 -1 -18l-76 -13c1 3 3 14 3 27c0 39 -37 70 -91 70c-74 0 -107 -40 -107 -72
c0 -34 26 -45 72 -63l77 -30c57 -22 103 -50 103 -116c0 -43 -26 -156 -200 -156c-135 0 -192 58 -192 143c0 8 0 15 3 31zM460 683l-143 -150h-61l87 150h117z" />
    <glyph glyph-name="Scircumflex" unicode="&#x15c;" horiz-adv-x="667" 
d="M691 530l-87 -21c-13 78 -57 143 -172 143c-105 0 -170 -53 -170 -121c0 -58 52 -80 125 -109l81 -32c89 -35 156 -84 156 -181c0 -82 -52 -222 -282 -222c-116 0 -281 33 -281 241l94 18c0 -4 -1 -10 -1 -18c0 -87 50 -175 185 -175c140 0 194 77 194 143
c0 64 -50 90 -111 114l-86 34c-59 23 -167 62 -167 177c0 166 174 199 267 199c120 0 241 -47 255 -190zM595 767h-67l-33 79l-78 -79h-80l129 128h72z" />
    <glyph glyph-name="scircumflex" unicode="&#x15d;" horiz-adv-x="479" 
d="M49 162l80 13c-1 -6 -6 -22 -6 -40c0 -66 49 -88 111 -88c71 0 120 32 120 83c0 32 -20 48 -71 68l-83 32c-59 23 -97 58 -97 113c0 58 48 140 189 140c138 0 166 -74 166 -124c0 -6 0 -11 -1 -18l-76 -13c1 3 3 14 3 27c0 39 -37 70 -91 70c-74 0 -107 -40 -107 -72
c0 -34 26 -45 72 -63l77 -30c57 -22 103 -50 103 -116c0 -43 -26 -156 -200 -156c-135 0 -192 58 -192 143c0 8 0 15 3 31zM462 529h-68l-45 106l-100 -106h-83l155 154h73z" />
    <glyph glyph-name="Scedilla" unicode="&#x15e;" horiz-adv-x="667" 
d="M691 530l-87 -21c-13 78 -57 143 -172 143c-105 0 -170 -53 -170 -121c0 -58 52 -80 125 -109l81 -32c89 -35 156 -84 156 -181c0 -82 -52 -222 -280 -222h-5l-21 -30c70 -13 76 -74 76 -86c0 -60 -54 -108 -125 -108c-24 0 -49 5 -56 6l7 29c5 0 22 -1 32 -1
c42 0 54 24 54 41c0 35 -41 49 -75 55l71 96c-110 8 -241 53 -241 239l94 18c0 -4 -1 -10 -1 -18c0 -87 50 -175 185 -175c140 0 194 77 194 143c0 64 -50 90 -111 114l-86 34c-59 23 -167 62 -167 177c0 166 174 199 267 199c120 0 241 -47 255 -190z" />
    <glyph glyph-name="scedilla" unicode="&#x15f;" horiz-adv-x="479" 
d="M49 162l80 13c-1 -6 -6 -22 -6 -40c0 -66 49 -88 111 -88c71 0 120 32 120 83c0 32 -20 48 -71 68l-83 32c-59 23 -97 58 -97 113c0 58 48 140 189 140c138 0 166 -74 166 -124c0 -6 0 -11 -1 -18l-76 -13c1 3 3 14 3 27c0 39 -37 70 -91 70c-74 0 -107 -40 -107 -72
c0 -35 28 -46 72 -63l77 -30c57 -22 103 -50 103 -116c0 -43 -26 -155 -198 -156l-22 -31c35 -2 60 -21 60 -59c0 -55 -56 -90 -112 -90c-8 0 -20 0 -36 3l6 26h12c22 0 49 4 49 31c0 28 -31 33 -52 37l60 84c-111 9 -159 64 -159 142c0 8 0 15 3 31z" />
    <glyph glyph-name="Tcommaaccent" unicode="&#x162;" 
d="M660 706l-17 -76h-216l-145 -630h-89l150 630h-218l17 76h518zM192 -36h80c-20 -85 -34 -108 -66 -150h-39c17 22 33 53 41 80h-32z" />
    <glyph glyph-name="tcommaaccent" unicode="&#x163;" horiz-adv-x="271" 
d="M321 471l-13 -61h-84l-59 -258c-6 -28 -11 -49 -11 -60c0 -24 13 -30 35 -30c16 0 31 4 54 8l-14 -59c-13 -6 -42 -14 -76 -14c-44 0 -78 19 -78 67c0 17 3 37 11 73l64 273h-76l14 61h75l35 149h75l-35 -149h83zM76 -38h80c-20 -85 -34 -108 -66 -150h-39
c17 22 33 53 41 80h-32z" />
    <glyph glyph-name="Tcaron" unicode="&#x164;" 
d="M660 706l-17 -76h-216l-145 -630h-89l150 630h-218l17 76h518zM580 895l-128 -128h-72l-57 128h66l34 -80l77 80h80z" />
    <glyph glyph-name="tcaron" unicode="&#x165;" horiz-adv-x="271" 
d="M321 471l-13 -61h-84l-59 -258c-6 -28 -11 -49 -11 -60c0 -24 13 -30 35 -30c16 0 31 4 54 8l-14 -59c-13 -6 -42 -14 -76 -14c-44 0 -78 19 -78 67c0 17 3 37 11 73l64 273h-76l14 61h75l35 149h75l-35 -149h83zM323 706h78c-21 -102 -45 -140 -77 -193h-34
c8 13 32 54 49 109h-35z" />
    <glyph glyph-name="Tbar" unicode="&#x166;" 
d="M134 408l16 70h156l37 152h-218l17 76h518l-17 -76h-216l-35 -152h155l-16 -70h-155l-94 -408h-89l97 408h-156z" />
    <glyph glyph-name="tbar" unicode="&#x167;" horiz-adv-x="271" 
d="M265 265h-74l-26 -113c-6 -28 -11 -49 -11 -60c0 -24 13 -30 35 -30c16 0 31 4 54 8l-14 -59c-13 -6 -42 -14 -76 -14c-44 0 -78 19 -78 67c0 17 3 37 11 73l30 128h-66l14 59h66l20 86h-76l14 61h75l35 149h75l-35 -149h83l-13 -61h-84l-20 -86h74z" />
    <glyph glyph-name="Utilde" unicode="&#x168;" horiz-adv-x="708" 
d="M754 706l-98 -424c-36 -156 -90 -295 -310 -295c-157 0 -239 84 -239 205c0 32 6 85 23 158l82 356h88l-85 -365c-10 -42 -18 -109 -18 -135c0 -118 85 -144 154 -144c147 0 188 91 226 256l89 388h88zM619 887l40 -21c-27 -58 -49 -83 -91 -83c-36 0 -82 34 -115 34
c-17 0 -32 -8 -46 -37l-43 18c32 66 61 85 96 85c30 0 74 -33 113 -33c15 0 29 8 46 37z" />
    <glyph glyph-name="utilde" unicode="&#x169;" 
d="M543 471l-109 -471h-75l17 74c-40 -53 -106 -83 -172 -83c-89 0 -130 53 -130 111c0 25 10 65 15 89l64 280h79l-65 -280c-9 -38 -10 -51 -10 -69c0 -40 28 -66 84 -66c19 0 74 4 114 47c38 41 50 94 62 146l51 222h75zM485 664l39 -19c-26 -55 -47 -85 -88 -85
c-35 0 -81 32 -114 32c-16 0 -31 -7 -44 -35l-42 17c31 63 59 87 93 87c30 0 73 -32 112 -32c14 0 28 8 44 35z" />
    <glyph glyph-name="Umacron" unicode="&#x16a;" horiz-adv-x="708" 
d="M754 706l-98 -424c-36 -156 -90 -295 -310 -295c-157 0 -239 84 -239 205c0 32 6 85 23 158l82 356h88l-85 -365c-10 -42 -18 -109 -18 -135c0 -118 85 -144 154 -144c147 0 188 91 226 256l89 388h88zM655 849l-14 -67h-288l14 67h288z" />
    <glyph glyph-name="umacron" unicode="&#x16b;" 
d="M543 471l-109 -471h-75l17 74c-40 -53 -106 -83 -172 -83c-89 0 -130 53 -130 111c0 25 10 65 15 89l64 280h79l-65 -280c-9 -38 -10 -51 -10 -69c0 -40 28 -66 84 -66c19 0 74 4 114 47c38 41 50 94 62 146l51 222h75zM522 608l-15 -66h-287l15 66h287z" />
    <glyph glyph-name="Ubreve" unicode="&#x16c;" horiz-adv-x="708" 
d="M754 706l-98 -424c-36 -156 -90 -295 -310 -295c-157 0 -239 84 -239 205c0 32 6 85 23 158l82 356h88l-85 -365c-10 -42 -18 -109 -18 -135c0 -118 85 -144 154 -144c147 0 188 91 226 256l89 388h88zM574 876h70c-18 -54 -66 -109 -157 -109c-53 0 -114 28 -114 95v14
h69c-1 -7 -1 -12 -1 -17c0 -21 26 -40 50 -40c42 0 68 17 83 57z" />
    <glyph glyph-name="ubreve" unicode="&#x16d;" 
d="M543 471l-109 -471h-75l17 74c-40 -53 -106 -83 -172 -83c-89 0 -130 53 -130 111c0 25 10 65 15 89l64 280h79l-65 -280c-9 -38 -10 -51 -10 -69c0 -40 28 -66 84 -66c19 0 74 4 114 47c38 41 50 94 62 146l51 222h75zM457 668h74c-15 -42 -63 -130 -169 -130
c-68 0 -127 34 -127 114v16h72c-1 -8 -2 -14 -2 -22c0 -35 28 -52 58 -52c25 0 68 11 94 74z" />
    <glyph glyph-name="Uring" unicode="&#x16e;" horiz-adv-x="708" 
d="M754 706l-98 -424c-36 -156 -90 -295 -310 -295c-157 0 -239 84 -239 205c0 32 6 85 23 158l82 356h88l-85 -365c-10 -42 -18 -109 -18 -135c0 -118 85 -144 154 -144c147 0 188 91 226 256l89 388h88zM590 857c0 -50 -40 -90 -90 -90s-90 40 -90 90c0 51 40 90 90 90
s90 -40 90 -90zM548 856c0 27 -21 47 -48 47c-26 0 -47 -21 -47 -47c0 -27 21 -48 48 -48c26 0 47 22 47 48z" />
    <glyph glyph-name="uring" unicode="&#x16f;" 
d="M543 471l-109 -471h-75l17 74c-40 -53 -106 -83 -172 -83c-89 0 -130 53 -130 111c0 25 10 65 15 89l64 280h79l-65 -280c-9 -38 -10 -51 -10 -69c0 -40 28 -66 84 -66c19 0 74 4 114 47c38 41 50 94 62 146l51 222h75zM457 610c0 -49 -41 -90 -91 -90
c-49 0 -89 40 -89 90s40 90 90 90c49 0 90 -40 90 -90zM415 609c0 26 -21 47 -48 47c-26 0 -47 -21 -47 -48c0 -26 21 -47 48 -47c26 0 47 22 47 48z" />
    <glyph glyph-name="Uhungarumlaut" unicode="&#x170;" horiz-adv-x="708" 
d="M754 706l-98 -424c-36 -156 -90 -295 -310 -295c-157 0 -239 84 -239 205c0 32 6 85 23 158l82 356h88l-85 -365c-10 -42 -18 -109 -18 -135c0 -118 85 -144 154 -144c147 0 188 91 226 256l89 388h88zM568 888l-144 -127h-59l85 127h118zM740 888l-144 -127h-59l85 127
h118z" />
    <glyph glyph-name="uhungarumlaut" unicode="&#x171;" 
d="M543 471l-109 -471h-75l17 74c-40 -53 -106 -83 -172 -83c-89 0 -130 53 -130 111c0 25 10 65 15 89l64 280h79l-65 -280c-9 -38 -10 -51 -10 -69c0 -40 28 -66 84 -66c19 0 74 4 114 47c38 41 50 94 62 146l51 222h75zM445 683l-142 -150h-53l85 150h110zM593 683
l-142 -150h-53l85 150h110z" />
    <glyph glyph-name="Uogonek" unicode="&#x172;" horiz-adv-x="708" 
d="M754 706l-98 -424c-34 -146 -75 -256 -239 -289c-50 -10 -88 -59 -88 -80c0 -14 10 -25 32 -25c16 0 28 2 44 3l-18 -75c-20 -3 -34 -5 -54 -5c-65 0 -86 39 -86 72c0 48 33 83 60 106c-132 13 -200 92 -200 203c0 32 6 85 23 158l82 356h88l-85 -365
c-10 -42 -18 -109 -18 -135c0 -118 85 -144 154 -144c147 0 188 91 226 256l89 388h88z" />
    <glyph glyph-name="uogonek" unicode="&#x173;" 
d="M468 471h75l-109 -471c-38 -21 -80 -65 -80 -87c0 -14 10 -25 32 -25c16 0 28 2 44 3l-18 -75c-20 -3 -34 -5 -54 -5c-65 0 -86 39 -86 72c0 64 59 106 90 129l14 62c-40 -53 -106 -83 -172 -83c-89 0 -130 53 -130 111c0 25 10 65 15 89l64 280h79l-65 -280
c-9 -38 -10 -51 -10 -69c0 -40 28 -66 84 -66c19 0 74 4 114 47c38 41 50 94 62 146z" />
    <glyph glyph-name="Wacute" unicode="&#x1e82;" horiz-adv-x="1000" 
d="M1111 706l-375 -706h-81l-53 613l-312 -613h-89l-73 706h85l57 -594l306 594h85l56 -594l302 594h92zM769 895l-145 -127h-67l87 127h125z" />
    <glyph glyph-name="wacute" unicode="&#x1e83;" horiz-adv-x="750" 
d="M806 471l-273 -471h-77l-32 384l-204 -384h-77l-46 471h75l31 -385l201 385h77l34 -385l208 385h83zM592 683l-143 -150h-61l87 150h117z" />
    <glyph glyph-name="Wcircumflex" unicode="&#x174;" horiz-adv-x="1000" 
d="M1111 706l-375 -706h-81l-53 613l-312 -613h-89l-73 706h85l57 -594l306 594h85l56 -594l302 594h92zM748 767h-67l-33 79l-78 -79h-80l129 128h72z" />
    <glyph glyph-name="wcircumflex" unicode="&#x175;" horiz-adv-x="750" 
d="M806 471l-273 -471h-77l-32 384l-204 -384h-77l-46 471h75l31 -385l201 385h77l34 -385l208 385h83zM587 529h-68l-45 106l-100 -106h-83l155 154h73z" />
    <glyph glyph-name="Wdieresis" unicode="&#x1e84;" horiz-adv-x="1000" 
d="M1111 706l-375 -706h-81l-53 613l-312 -613h-89l-73 706h85l57 -594l306 594h85l56 -594l302 594h92zM799 880l-24 -103h-91l24 103h91zM605 880l-23 -103h-92l24 103h91z" />
    <glyph glyph-name="wdieresis" unicode="&#x1e85;" horiz-adv-x="750" 
d="M806 471l-273 -471h-77l-32 384l-204 -384h-77l-46 471h75l31 -385l201 385h77l34 -385l208 385h83zM618 653l-23 -101h-91l23 101h91zM424 653l-23 -101h-91l23 101h91z" />
    <glyph glyph-name="Wgrave" unicode="&#x1e80;" horiz-adv-x="1000" 
d="M1111 706l-375 -706h-81l-53 613l-312 -613h-89l-73 706h85l57 -594l306 594h85l56 -594l302 594h92zM667 770h-54l-86 125h104z" />
    <glyph glyph-name="wgrave" unicode="&#x1e81;" horiz-adv-x="750" 
d="M806 471l-273 -471h-77l-32 384l-204 -384h-77l-46 471h75l31 -385l201 385h77l34 -385l208 385h83zM497 531h-53l-95 152h101z" />
    <glyph glyph-name="Ycircumflex" unicode="&#x176;" horiz-adv-x="583" 
d="M707 706l-359 -399l-70 -307h-89l73 317l-121 389h89l95 -319l276 319h106zM552 767h-67l-33 79l-78 -79h-80l129 128h72z" />
    <glyph glyph-name="ycircumflex" unicode="&#x177;" horiz-adv-x="458" 
d="M509 471l-356 -602c-53 -89 -85 -100 -157 -100c-28 0 -41 2 -50 3l16 68c12 -1 25 -2 37 -2c55 0 72 31 95 71l58 99l-53 463h78l37 -376l208 376h87zM454 529h-68l-45 106l-100 -106h-83l155 154h73z" />
    <glyph glyph-name="Ygrave" unicode="&#x1ef2;" horiz-adv-x="583" 
d="M707 706l-359 -399l-70 -307h-89l73 317l-121 389h89l95 -319l276 319h106zM454 770h-54l-86 125h104z" />
    <glyph glyph-name="ygrave" unicode="&#x1ef3;" horiz-adv-x="458" 
d="M509 471l-356 -602c-53 -89 -85 -100 -157 -100c-28 0 -41 2 -50 3l16 68c12 -1 25 -2 37 -2c55 0 72 31 95 71l58 99l-53 463h78l37 -376l208 376h87zM344 531h-53l-95 152h101z" />
    <glyph glyph-name="Zacute" unicode="&#x179;" horiz-adv-x="583" 
d="M646 706l-18 -79l-512 -550h450l-18 -77h-549l21 90l502 537h-383l18 79h489zM563 895l-145 -127h-67l87 127h125z" />
    <glyph glyph-name="zacute" unicode="&#x17a;" horiz-adv-x="458" 
d="M479 471l-17 -74l-345 -329h299l-16 -68h-401l15 63l356 340h-266l15 68h360zM456 683l-143 -150h-61l87 150h117z" />
    <glyph glyph-name="Zdotaccent" unicode="&#x17b;" horiz-adv-x="583" 
d="M646 706l-18 -79l-512 -550h450l-18 -77h-549l21 90l502 537h-383l18 79h489zM469 880l-23 -103h-92l23 103h92z" />
    <glyph glyph-name="zdotaccent" unicode="&#x17c;" horiz-adv-x="458" 
d="M479 471l-17 -74l-345 -329h299l-16 -68h-401l15 63l356 340h-266l15 68h360zM370 653l-24 -102h-92l24 102h92z" />
    <glyph glyph-name="longs" unicode="&#x17f;" horiz-adv-x="248" 
d="M366 704l-14 -60c-16 3 -32 4 -37 4c-31 0 -39 -18 -49 -62l-136 -586h-76l95 411h-75l14 60h74l30 130c24 105 83 114 115 114c26 0 53 -8 59 -11z" />
    <glyph glyph-name="Aringacute" unicode="&#x1fa;" horiz-adv-x="667" 
d="M607 0h-91l-25 222h-268l-128 -222h-95l409 706h108zM483 295l-35 353l-183 -353h218zM620 998l-137 -100h-60l94 100h103zM542 809c0 -43 -32 -71 -70 -71c-39 0 -70 29 -70 71c0 39 31 70 70 70c41 0 70 -31 70 -70zM505 809c0 22 -15 35 -33 35c-20 0 -33 -15 -33 -35
c0 -23 13 -35 33 -35c18 0 33 14 33 35z" />
    <glyph glyph-name="aringacute" unicode="&#x1fb;" horiz-adv-x="500" 
d="M470 69l-15 -65c-24 -6 -34 -7 -47 -7c-24 0 -69 10 -69 59c0 4 0 9 1 13c-16 -30 -64 -79 -164 -79c-110 0 -140 70 -140 117c0 78 56 135 148 153c61 12 133 18 195 31c4 19 10 43 10 62c0 34 -21 67 -91 67c-101 0 -112 -77 -115 -95l-89 8c22 62 61 147 215 147
c66 0 161 -30 161 -113c0 -23 -4 -45 -9 -67l-43 -185c-2 -9 -4 -19 -4 -29c0 -20 13 -24 25 -24c8 0 15 1 31 7zM365 230l-17 -2c-93 -11 -225 -26 -225 -114c0 -28 18 -65 80 -65c31 0 77 15 101 34c38 30 44 75 48 91zM486 861l-146 -138h-43l100 138h89zM411 601
c0 -49 -39 -88 -88 -88s-87 40 -87 88s39 88 87 88c56 0 88 -47 88 -88zM368 602c0 25 -20 45 -45 45s-44 -20 -44 -45s19 -46 44 -46s45 21 45 46z" />
    <glyph glyph-name="AEacute" unicode="&#x1fc;" horiz-adv-x="1062" 
d="M1069 706l-17 -74h-346l-46 -233h347l-16 -70h-348l-58 -254h423l-17 -75h-507l51 225h-240l-203 -225h-110l649 706h438zM631 615l-272 -320h193zM965 895l-145 -127h-67l87 127h125z" />
    <glyph glyph-name="aeacute" unicode="&#x1fd;" horiz-adv-x="833" 
d="M806 226h-363c-1 -12 -2 -22 -2 -33c0 -60 33 -145 140 -145c64 0 115 35 137 96l77 -10c-19 -57 -79 -146 -219 -146c-99 0 -164 41 -198 102c-46 -63 -113 -102 -199 -102c-77 0 -145 44 -145 121c0 35 15 100 97 134c61 26 175 37 238 46c3 18 8 43 8 61
c0 51 -34 74 -83 74c-67 0 -105 -46 -112 -91l-87 13c20 51 72 137 199 137c95 0 137 -51 151 -83c27 37 88 83 177 83c135 0 188 -94 188 -199c0 -20 -2 -39 -4 -58zM454 283h279s1 14 1 21c0 93 -70 118 -116 118c-79 0 -146 -62 -164 -139zM360 233l-40 -6
c-139 -21 -201 -50 -201 -107c0 -45 33 -75 88 -75c44 0 86 26 110 63c14 21 32 63 43 125zM598 683l-143 -150h-61l87 150h117z" />
    <glyph glyph-name="Oslashacute" unicode="&#x1fe;" horiz-adv-x="792" 
d="M725 721l48 -44l-54 -61c30 -36 72 -102 72 -216c0 -235 -157 -413 -378 -413c-42 0 -118 4 -203 61l-57 -63l-49 41l60 67c-11 11 -70 73 -70 213c0 227 146 414 388 414c98 0 158 -37 190 -60zM220 156l397 444c-14 12 -58 52 -141 52c-183 0 -292 -173 -292 -352
c0 -75 21 -115 36 -144zM660 551l-399 -446c45 -34 89 -48 146 -48c179 0 293 153 293 334c0 85 -20 126 -40 160zM651 895l-145 -127h-67l87 127h125z" />
    <glyph glyph-name="oslashacute" unicode="&#x1ff;" 
d="M493 487l35 -34l-45 -46c24 -32 39 -76 39 -133c0 -116 -80 -286 -261 -286c-80 0 -117 31 -143 55l-50 -48l-34 34l55 54c-14 26 -27 57 -27 112c0 156 109 288 264 288c63 0 102 -26 123 -40zM144 139l258 258c-14 10 -35 25 -77 25c-132 0 -187 -147 -187 -230
c0 -17 0 -27 6 -53zM431 358l-266 -267c19 -21 50 -44 95 -44c118 0 187 132 187 240c0 37 -8 54 -16 71zM498 683l-143 -150h-61l87 150h117z" />
    <glyph glyph-name="Scommaaccent" unicode="&#x218;" horiz-adv-x="667" 
d="M691 530l-87 -21c-13 78 -57 143 -172 143c-105 0 -170 -53 -170 -121c0 -58 52 -80 125 -109l81 -32c89 -35 156 -84 156 -181c0 -82 -52 -222 -282 -222c-116 0 -281 33 -281 241l94 18c0 -4 -1 -10 -1 -18c0 -87 50 -175 185 -175c140 0 194 77 194 143
c0 64 -50 90 -111 114l-86 34c-59 23 -167 62 -167 177c0 166 174 199 267 199c120 0 241 -47 255 -190zM279 -38h80c-20 -85 -34 -108 -66 -150h-39c17 22 33 53 41 80h-32z" />
    <glyph glyph-name="scommaaccent" unicode="&#x219;" horiz-adv-x="479" 
d="M49 162l80 13c-1 -6 -6 -22 -6 -40c0 -66 49 -88 111 -88c71 0 120 32 120 83c0 32 -20 48 -71 68l-83 32c-59 23 -97 58 -97 113c0 58 48 140 189 140c138 0 166 -74 166 -124c0 -6 0 -11 -1 -18l-76 -13c1 3 3 14 3 27c0 39 -37 70 -91 70c-74 0 -107 -40 -107 -72
c0 -34 26 -45 72 -63l77 -30c57 -22 103 -50 103 -116c0 -43 -26 -156 -200 -156c-135 0 -192 58 -192 143c0 8 0 15 3 31zM182 -38h80c-20 -85 -34 -108 -66 -150h-39c17 22 33 53 41 80h-32z" />
    <glyph glyph-name="uni021A" unicode="&#x21a;" 
d="M660 706l-17 -76h-216l-145 -630h-89l150 630h-218l17 76h518zM192 -36h80c-20 -85 -34 -108 -66 -150h-39c17 22 33 53 41 80h-32z" />
    <glyph glyph-name="uni021B" unicode="&#x21b;" horiz-adv-x="271" 
d="M321 471l-13 -61h-84l-59 -258c-6 -28 -11 -49 -11 -60c0 -24 13 -30 35 -30c16 0 31 4 54 8l-14 -59c-13 -6 -42 -14 -76 -14c-44 0 -78 19 -78 67c0 17 3 37 11 73l64 273h-76l14 61h75l35 149h75l-35 -149h83zM76 -38h80c-20 -85 -34 -108 -66 -150h-39
c17 22 33 53 41 80h-32z" />
    <glyph glyph-name="uniF6C1" unicode="&#xf6c1;" horiz-adv-x="667" 
d="M691 530l-87 -21c-13 78 -57 143 -172 143c-105 0 -170 -53 -170 -121c0 -58 52 -80 125 -109l81 -32c89 -35 156 -84 156 -181c0 -82 -52 -222 -280 -222h-5l-21 -30c70 -13 76 -74 76 -86c0 -60 -54 -108 -125 -108c-24 0 -49 5 -56 6l7 29c5 0 22 -1 32 -1
c42 0 54 24 54 41c0 35 -41 49 -75 55l71 96c-110 8 -241 53 -241 239l94 18c0 -4 -1 -10 -1 -18c0 -87 50 -175 185 -175c140 0 194 77 194 143c0 64 -50 90 -111 114l-86 34c-59 23 -167 62 -167 177c0 166 174 199 267 199c120 0 241 -47 255 -190z" />
    <glyph glyph-name="uniF6C2" unicode="&#xf6c2;" horiz-adv-x="479" 
d="M49 162l80 13c-1 -6 -6 -22 -6 -40c0 -66 49 -88 111 -88c71 0 120 32 120 83c0 32 -20 48 -71 68l-83 32c-59 23 -97 58 -97 113c0 58 48 140 189 140c138 0 166 -74 166 -124c0 -6 0 -11 -1 -18l-76 -13c1 3 3 14 3 27c0 39 -37 70 -91 70c-74 0 -107 -40 -107 -72
c0 -35 28 -46 72 -63l77 -30c57 -22 103 -50 103 -116c0 -43 -26 -155 -198 -156l-22 -31c35 -2 60 -21 60 -59c0 -55 -56 -90 -112 -90c-8 0 -20 0 -36 3l6 26h12c22 0 49 4 49 31c0 28 -31 33 -52 37l60 84c-111 9 -159 64 -159 142c0 8 0 15 3 31z" />
    <glyph glyph-name="i.dot" horiz-adv-x="229" 
d="M285 706l-21 -90h-82l21 90h82zM229 471l-108 -471h-80l109 471h79z" />
    <glyph glyph-name="zero.numerator" horiz-adv-x="396" 
d="M444 509c0 -57 -17 -125 -48 -181c-37 -68 -94 -104 -163 -104c-90 0 -143 63 -143 171c0 161 92 286 211 286c87 0 143 -68 143 -172zM382 512c0 76 -30 119 -83 119c-78 0 -147 -113 -147 -241c0 -76 31 -119 85 -119c76 0 145 114 145 241z" />
    <glyph glyph-name="one.numerator" horiz-adv-x="396" 
d="M259 233h-58l79 339c-36 -18 -73 -18 -84 -18c-12 0 -21 1 -34 2l11 49c10 -1 16 -1 25 -1c19 0 90 0 107 78h58z" />
    <glyph glyph-name="two.numerator" horiz-adv-x="396" 
d="M72 233l13 59c38 20 63 36 98 59c73 48 183 124 183 214c0 61 -52 69 -71 69c-61 0 -89 -57 -89 -105c0 -11 1 -19 2 -31l-63 13v12c0 136 103 159 152 159c67 0 131 -34 131 -115c0 -127 -138 -210 -178 -235c-34 -21 -59 -35 -92 -49c0 0 207 3 229 3l-12 -53h-303z
" />
    <glyph glyph-name="three.numerator" horiz-adv-x="396" 
d="M88 366l63 8c0 -26 12 -103 100 -103c74 0 98 51 98 86c0 75 -83 79 -131 79h-15l11 49c9 -1 21 -2 30 -2c89 0 128 37 128 87c0 25 -15 63 -72 63c-59 0 -91 -46 -91 -99l-65 12c8 34 14 52 23 67c34 56 93 68 137 68c61 0 129 -34 129 -112c0 -62 -47 -102 -106 -110
c4 -1 28 -5 45 -18c40 -32 40 -75 40 -86c-2 -94 -95 -131 -162 -131c-52 0 -122 15 -151 88c-9 23 -10 48 -11 54z" />
    <glyph glyph-name="four.numerator" horiz-adv-x="396" 
d="M411 403l-12 -50h-60l-27 -120h-56l28 120h-204l12 50l262 279h57l-60 -279h60zM346 610l-184 -207h133z" />
    <glyph glyph-name="five.numerator" horiz-adv-x="396" 
d="M447 673l-13 -53h-207l-37 -121c32 25 63 36 103 36c78 0 131 -53 131 -131c0 -103 -81 -180 -190 -180c-93 0 -149 45 -163 132l64 10c12 -62 47 -94 104 -94c68 0 122 57 122 129c0 51 -31 84 -78 84c-37 0 -67 -11 -101 -49l-62 10l65 227h262z" />
    <glyph glyph-name="six.numerator" horiz-adv-x="396" 
d="M451 575l-58 -11c-8 46 -33 70 -75 70c-45 0 -83 -24 -108 -70c-17 -30 -30 -64 -33 -87c22 33 66 53 114 53c76 0 128 -54 128 -135c0 -98 -71 -171 -165 -171c-93 0 -146 64 -146 174c0 148 79 284 213 284c61 0 117 -36 130 -107zM357 395c0 55 -28 87 -77 87
c-61 0 -105 -51 -105 -118c0 -56 32 -92 80 -92c57 0 102 54 102 123z" />
    <glyph glyph-name="seven.numerator" horiz-adv-x="396" 
d="M159 673h298c-5 -30 -12 -64 -48 -120l-30 -46c-61 -94 -104 -181 -133 -274h-70c11 35 26 75 44 113c25 53 50 97 109 181c33 46 46 68 57 94h-179l-21 -76h-58z" />
    <glyph glyph-name="eight.numerator" horiz-adv-x="396" 
d="M191 464c-40 22 -55 45 -55 84c0 76 69 133 164 133c85 0 141 -43 141 -108c0 -52 -28 -85 -90 -109c49 -17 74 -50 74 -96c0 -84 -76 -144 -182 -144c-94 0 -155 46 -155 116c0 60 37 104 103 124zM378 568c0 40 -31 65 -82 65c-56 0 -98 -36 -98 -83
c0 -37 32 -62 80 -62c57 0 100 34 100 80zM362 363c0 45 -38 74 -96 74c-68 0 -114 -37 -114 -91c0 -45 38 -75 93 -75c65 0 117 41 117 92z" />
    <glyph glyph-name="nine.numerator" horiz-adv-x="396" 
d="M83 330l59 13c8 -47 36 -72 80 -72c63 0 122 70 133 158c-25 -33 -62 -54 -110 -54c-77 0 -129 56 -129 137c0 98 71 169 168 169c90 0 139 -60 139 -170c0 -97 -37 -287 -203 -287c-74 0 -119 35 -137 106zM177 511c0 -54 29 -87 77 -87c59 0 106 52 106 119
c0 54 -33 91 -80 91c-57 0 -103 -55 -103 -123z" />
    <glyph glyph-name="period.numerator" horiz-adv-x="150" 
d="M156 310l-15 -77h-70l16 77h69z" />
    <glyph glyph-name="comma.numerator" horiz-adv-x="150" 
d="M87 310h69c-8 -67 -28 -125 -62 -176h-36c19 34 33 60 41 99h-28z" />
    <glyph glyph-name="hyphen.numerator" horiz-adv-x="241" 
d="M280 453l-12 -54h-185l12 54h185z" />
    <glyph glyph-name="parenleft.numerator" horiz-adv-x="211" 
d="M313 747l26 -35c-126 -81 -193 -198 -193 -349c0 -84 17 -145 64 -204l-35 -29c-65 68 -95 144 -95 238c0 166 93 301 233 379z" />
    <glyph glyph-name="parenright.numerator" horiz-adv-x="211" 
d="M26 130l-26 35c126 81 193 198 193 349c0 84 -17 145 -64 204l35 29c65 -68 95 -144 95 -238c0 -166 -93 -301 -233 -379z" />
    <glyph glyph-name="dollar.numerator" horiz-adv-x="415" 
d="M477 557l-56 -14c-10 60 -37 77 -75 86l-31 -142c52 -27 124 -42 124 -126c0 -73 -63 -136 -176 -136h-8l-13 -61h-49l15 63c-68 10 -132 54 -132 152l60 11c-1 -7 -1 -16 -1 -18c0 -51 38 -86 84 -96l40 168c-62 24 -116 55 -116 113c0 52 36 123 167 123l12 54h48
l-13 -57c67 -11 115 -54 120 -120zM272 502l28 130c-54 0 -97 -19 -97 -68c0 -32 31 -47 69 -62zM267 272c54 0 111 26 111 83c0 45 -43 55 -76 71z" />
    <glyph glyph-name="cent.numerator" horiz-adv-x="323" 
d="M375 442l-52 -11c-9 38 -23 50 -45 54l-47 -214c48 0 67 43 74 61l57 -6c-7 -22 -22 -43 -28 -51c-38 -43 -85 -48 -105 -48h-7l-14 -60h-50l14 62c-4 2 -24 5 -38 14c-46 31 -55 71 -55 106c0 89 50 147 101 169c26 11 48 14 63 14l13 56h46l-13 -56
c49 -7 81 -47 86 -90zM183 274l49 214c-7 -1 -14 -2 -27 -8c-36 -18 -66 -64 -66 -132c0 -16 3 -48 25 -64c8 -6 15 -9 19 -10z" />
    <glyph glyph-name="sterling.numerator" horiz-adv-x="455" 
d="M537 569l-62 -11c1 6 1 11 1 15c0 39 -34 61 -76 61c-30 0 -62 -13 -79 -45c-16 -31 -21 -74 -33 -131h112l-9 -46h-113c-9 -49 -26 -83 -40 -104c36 -18 59 -30 91 -30c21 0 52 14 60 60l60 -7c-11 -49 -38 -106 -117 -106c-44 0 -87 19 -126 41
c-23 -26 -53 -41 -98 -41c-39 0 -75 15 -75 59c0 42 37 66 89 66c24 0 45 -9 70 -21c8 15 15 33 24 83h-96l9 46h96c15 71 11 140 67 186c30 24 69 39 115 39c101 0 130 -65 130 -114zM165 293c-12 4 -26 12 -52 12c-18 0 -34 -5 -34 -22c0 -12 12 -17 27 -17
c27 0 46 13 59 27z" />
    <glyph glyph-name="yen.numerator" horiz-adv-x="388" 
d="M507 674l-170 -185h86l-9 -42h-118l-21 -24l-1 -6h134l-11 -41h-132l-33 -143h-62l32 143h-120l8 41h121l4 14l-4 16h-113l10 42h87l-64 185h67l59 -199l179 199h71z" />
    <glyph glyph-name="florin.numerator" horiz-adv-x="202" 
d="M299 676l-10 -45c-7 2 -16 4 -26 4c-21 0 -28 -13 -33 -36l-14 -59h53l-10 -45h-52l-68 -294c-12 -53 -36 -82 -99 -82c-12 0 -24 1 -33 3l11 45c6 -1 15 -2 23 -2c25 0 34 6 42 42l67 288h-46l10 45h46l19 79c13 57 50 63 79 63c16 0 33 -3 41 -6z" />
    <glyph glyph-name="Euro.numerator" horiz-adv-x="480" 
d="M546 614l-30 -55c-26 47 -70 73 -125 73c-87 0 -140 -39 -164 -120h262l-23 -42h-247c-2 -9 -4 -22 -4 -30h236l-23 -41h-214c7 -83 60 -125 138 -125c61 0 109 12 154 54l-18 -73c-42 -22 -90 -30 -138 -30c-111 0 -189 61 -197 174h-56l23 41h32c1 10 2 20 4 30h-45
l24 42h29c31 113 114 170 230 170c61 0 113 -21 152 -68z" />
    <glyph glyph-name="zero.denominator" horiz-adv-x="396" 
d="M390 276c0 -57 -17 -125 -48 -181c-37 -68 -94 -104 -163 -104c-90 0 -143 63 -143 171c0 161 92 286 211 286c87 0 143 -68 143 -172zM328 279c0 76 -30 119 -83 119c-78 0 -147 -113 -147 -241c0 -76 31 -119 85 -119c76 0 145 114 145 241z" />
    <glyph glyph-name="one.denominator" horiz-adv-x="396" 
d="M205 0h-58l79 339c-36 -18 -73 -18 -84 -18c-12 0 -21 1 -34 2l11 49c10 -1 16 -1 25 -1c19 0 90 0 107 78h58z" />
    <glyph glyph-name="two.denominator" horiz-adv-x="396" 
d="M18 0l13 59c38 20 63 36 98 59c73 48 183 124 183 214c0 61 -52 69 -71 69c-61 0 -89 -57 -89 -105c0 -11 1 -19 2 -31l-63 13v12c0 136 103 159 152 159c67 0 131 -34 131 -115c0 -127 -138 -210 -178 -235c-34 -21 -59 -35 -92 -49c0 0 207 3 229 3l-12 -53h-303z" />
    <glyph glyph-name="three.denominator" horiz-adv-x="396" 
d="M34 133l63 8c0 -26 12 -103 100 -103c74 0 98 51 98 86c0 75 -83 79 -131 79h-15l11 49c9 -1 21 -2 30 -2c89 0 128 37 128 87c0 25 -15 63 -72 63c-59 0 -91 -46 -91 -99l-65 12c8 34 14 52 23 67c34 56 93 68 137 68c61 0 129 -34 129 -112c0 -62 -47 -102 -106 -110
c4 -1 28 -5 45 -18c40 -32 40 -75 40 -86c-2 -94 -95 -131 -162 -131c-52 0 -122 15 -151 88c-9 23 -10 48 -11 54z" />
    <glyph glyph-name="four.denominator" horiz-adv-x="396" 
d="M363 170l-12 -50h-60l-27 -120h-56l28 120h-204l12 50l262 279h57l-60 -279h60zM298 377l-184 -207h133z" />
    <glyph glyph-name="five.denominator" horiz-adv-x="396" 
d="M393 440l-13 -53h-207l-37 -121c32 25 63 36 103 36c78 0 131 -53 131 -131c0 -103 -81 -180 -190 -180c-93 0 -149 45 -163 132l64 10c12 -62 47 -94 104 -94c68 0 122 57 122 129c0 51 -31 84 -78 84c-37 0 -67 -11 -101 -49l-62 10l65 227h262z" />
    <glyph glyph-name="six.denominator" horiz-adv-x="396" 
d="M397 342l-58 -11c-8 46 -33 70 -75 70c-45 0 -83 -24 -108 -70c-17 -30 -30 -64 -33 -87c22 33 66 53 114 53c76 0 128 -54 128 -135c0 -98 -71 -171 -165 -171c-93 0 -146 64 -146 174c0 148 79 284 213 284c61 0 117 -36 130 -107zM303 162c0 55 -28 87 -77 87
c-61 0 -105 -51 -105 -118c0 -56 32 -92 80 -92c57 0 102 54 102 123z" />
    <glyph glyph-name="seven.denominator" horiz-adv-x="396" 
d="M105 440h298c-5 -30 -12 -64 -48 -120l-30 -46c-61 -94 -104 -181 -133 -274h-70c11 35 26 75 44 113c25 53 50 97 109 181c33 46 46 68 57 94h-179l-21 -76h-58z" />
    <glyph glyph-name="eight.denominator" horiz-adv-x="396" 
d="M132 231c-40 22 -55 45 -55 84c0 76 69 133 164 133c85 0 141 -43 141 -108c0 -52 -28 -85 -90 -109c49 -17 74 -50 74 -96c0 -84 -76 -144 -182 -144c-94 0 -155 46 -155 116c0 60 37 104 103 124zM319 335c0 40 -31 65 -82 65c-56 0 -98 -36 -98 -83
c0 -37 32 -62 80 -62c57 0 100 34 100 80zM303 130c0 45 -38 74 -96 74c-68 0 -114 -37 -114 -91c0 -45 38 -75 93 -75c65 0 117 41 117 92z" />
    <glyph glyph-name="nine.denominator" horiz-adv-x="396" 
d="M24 97l59 13c8 -47 36 -72 80 -72c63 0 122 70 133 158c-25 -33 -62 -54 -110 -54c-77 0 -129 56 -129 137c0 98 71 169 168 169c90 0 139 -60 139 -170c0 -97 -37 -287 -203 -287c-74 0 -119 35 -137 106zM118 278c0 -54 29 -87 77 -87c59 0 106 52 106 119
c0 54 -33 91 -80 91c-57 0 -103 -55 -103 -123z" />
    <glyph glyph-name="period.denominator" horiz-adv-x="150" 
d="M105 77l-15 -77h-70l16 77h69z" />
    <glyph glyph-name="comma.denominator" horiz-adv-x="150" 
d="M41 77h69c-8 -67 -28 -125 -62 -176h-36c19 34 33 60 41 99h-28z" />
    <glyph glyph-name="hyphen.denominator" horiz-adv-x="241" 
d="M231 220l-12 -54h-185l12 54h185z" />
    <glyph glyph-name="parenleft.denominator" horiz-adv-x="211" 
d="M262 514l26 -35c-126 -81 -193 -198 -193 -349c0 -84 17 -145 64 -204l-35 -29c-65 68 -95 144 -95 238c0 166 93 301 233 379z" />
    <glyph glyph-name="parenright.denominator" horiz-adv-x="211" 
d="M-23 -103l-26 35c126 81 193 198 193 349c0 84 -17 145 -64 204l35 29c65 -68 95 -144 95 -238c0 -166 -93 -301 -233 -379z" />
    <glyph glyph-name="dollar.denominator" horiz-adv-x="415" 
d="M425 323l-56 -14c-10 60 -37 77 -75 86l-31 -142c52 -27 124 -42 124 -126c0 -73 -63 -136 -176 -136h-8l-13 -61h-49l15 63c-68 10 -132 54 -132 152l60 11c-1 -7 -1 -16 -1 -18c0 -51 38 -86 84 -96l40 168c-62 24 -116 55 -116 113c0 52 36 123 167 123l12 54h48
l-13 -57c67 -11 115 -54 120 -120zM220 268l28 130c-54 0 -97 -19 -97 -68c0 -32 31 -47 69 -62zM215 38c54 0 111 26 111 83c0 45 -43 55 -76 71z" />
    <glyph glyph-name="cent.denominator" horiz-adv-x="323" 
d="M321 208l-52 -11c-9 38 -23 50 -45 54l-47 -214c48 0 67 43 74 61l57 -6c-7 -22 -22 -43 -28 -51c-38 -43 -85 -48 -105 -48h-7l-14 -60h-50l14 62c-8 2 -24 5 -38 14c-46 31 -55 71 -55 106c0 89 50 147 101 169c26 11 48 14 63 14l13 56h46l-13 -56
c49 -7 81 -47 86 -90zM129 40l49 214c-7 -1 -14 -2 -27 -8c-36 -18 -66 -64 -66 -132c0 -16 3 -48 25 -64c8 -6 15 -9 19 -10z" />
    <glyph glyph-name="sterling.denominator" horiz-adv-x="455" 
d="M484 335l-62 -11c1 6 1 11 1 15c0 39 -34 61 -76 61c-30 0 -62 -13 -79 -45c-16 -31 -21 -74 -33 -131h112l-9 -46h-113c-9 -49 -26 -83 -40 -104c36 -18 59 -30 91 -30c21 0 52 14 60 60l60 -7c-11 -49 -38 -106 -117 -106c-44 0 -87 19 -126 41
c-23 -26 -53 -41 -98 -41c-39 0 -75 15 -75 59c0 42 37 66 89 66c24 0 45 -9 70 -21c8 15 15 33 24 83h-96l9 46h96c15 71 11 140 67 186c30 24 69 39 115 39c101 0 130 -65 130 -114zM112 59c-12 4 -26 12 -52 12c-18 0 -34 -5 -34 -22c0 -12 12 -17 27 -17
c27 0 46 13 59 27z" />
    <glyph glyph-name="yen.denominator" horiz-adv-x="388" 
d="M459 441l-170 -185h86l-9 -42h-118l-21 -24l-1 -6h134l-11 -41h-132l-33 -143h-62l32 143h-120l8 41h121l4 14l-4 16h-113l10 42h87l-64 185h67l59 -199l179 199h71z" />
    <glyph glyph-name="florin.denominator" horiz-adv-x="202" 
d="M244 443l-10 -45c-7 2 -16 4 -26 4c-21 0 -28 -13 -33 -36l-14 -59h53l-10 -45h-52l-68 -294c-12 -53 -36 -82 -99 -82c-12 0 -24 1 -33 3l11 45c6 -1 15 -2 23 -2c25 0 34 6 42 42l67 288h-46l10 45h46l19 79c13 57 50 63 79 63c16 0 33 -3 41 -6z" />
    <glyph glyph-name="Euro.denominator" horiz-adv-x="480" 
d="M491 380l-30 -55c-26 47 -70 73 -125 73c-87 0 -140 -39 -164 -120h262l-23 -42h-247c-2 -9 -4 -22 -4 -30h236l-23 -41h-214c7 -83 60 -125 138 -125c61 0 109 12 154 54l-18 -73c-42 -22 -90 -30 -138 -30c-111 0 -189 61 -197 174h-56l23 41h32c1 10 2 20 4 30h-45
l24 42h29c31 113 114 170 230 170c61 0 113 -21 152 -68z" />
    <glyph glyph-name="zero.superior" unicode="&#x2070;" horiz-adv-x="396" 
d="M484 692c0 -57 -17 -125 -48 -181c-37 -68 -94 -104 -163 -104c-90 0 -143 63 -143 171c0 161 92 286 211 286c87 0 143 -68 143 -172zM422 695c0 76 -30 119 -83 119c-78 0 -147 -113 -147 -241c0 -76 31 -119 85 -119c76 0 145 114 145 241z" />
    <glyph glyph-name="one.superior" horiz-adv-x="396" 
d="M292 415h-58l79 339c-36 -18 -73 -18 -84 -18c-12 0 -21 1 -34 2l11 49c10 -1 16 -1 25 -1c19 0 90 0 107 78h58z" />
    <glyph glyph-name="two.superior" horiz-adv-x="396" 
d="M106 415l13 59c38 20 63 36 98 59c73 48 183 124 183 214c0 61 -52 69 -71 69c-61 0 -89 -57 -89 -105c0 -11 1 -19 2 -31l-63 13v12c0 136 103 159 152 159c67 0 131 -34 131 -115c0 -127 -138 -210 -178 -235c-34 -21 -59 -35 -92 -49c0 0 207 3 229 3l-12 -53h-303z
" />
    <glyph glyph-name="three.superior" horiz-adv-x="396" 
d="M116 549l63 8c0 -26 12 -103 100 -103c74 0 98 51 98 86c0 75 -83 79 -131 79h-15l11 49c9 -1 21 -2 30 -2c89 0 128 37 128 87c0 25 -15 63 -72 63c-59 0 -91 -46 -91 -99l-65 12c8 34 14 52 23 67c34 56 93 68 137 68c61 0 129 -34 129 -112c0 -62 -47 -102 -106 -110
c4 -1 28 -5 45 -18c40 -32 40 -75 40 -86c-2 -94 -95 -131 -162 -131c-52 0 -122 15 -151 88c-9 23 -10 48 -11 54z" />
    <glyph glyph-name="four.superior" unicode="&#x2074;" horiz-adv-x="396" 
d="M453 585l-12 -50h-60l-27 -120h-56l28 120h-204l12 50l262 279h57l-60 -279h60zM388 792l-184 -207h133z" />
    <glyph glyph-name="five.superior" unicode="&#x2075;" horiz-adv-x="396" 
d="M492 856l-13 -53h-207l-37 -121c32 25 63 36 103 36c78 0 131 -53 131 -131c0 -103 -81 -180 -190 -180c-93 0 -149 45 -163 132l64 10c12 -62 47 -94 104 -94c68 0 122 57 122 129c0 51 -31 84 -78 84c-37 0 -67 -11 -101 -49l-62 10l65 227h262z" />
    <glyph glyph-name="six.superior" unicode="&#x2076;" horiz-adv-x="396" 
d="M487 758l-58 -11c-8 46 -33 70 -75 70c-45 0 -83 -24 -108 -70c-17 -30 -30 -64 -33 -87c22 33 66 53 114 53c76 0 128 -54 128 -135c0 -98 -71 -171 -165 -171c-93 0 -146 64 -146 174c0 148 79 284 213 284c61 0 117 -36 130 -107zM393 578c0 55 -28 87 -77 87
c-61 0 -105 -51 -105 -118c0 -56 32 -92 80 -92c57 0 102 54 102 123z" />
    <glyph glyph-name="seven.superior" unicode="&#x2077;" horiz-adv-x="396" 
d="M192 854h298c-5 -30 -12 -64 -48 -120l-30 -46c-61 -94 -104 -181 -133 -274h-70c11 35 26 75 44 113c25 53 50 97 109 181c33 46 46 68 57 94h-179l-21 -76h-58z" />
    <glyph glyph-name="eight.superior" unicode="&#x2078;" horiz-adv-x="396" 
d="M222 647c-40 22 -55 45 -55 84c0 76 69 133 164 133c85 0 141 -43 141 -108c0 -52 -28 -85 -90 -109c49 -17 74 -50 74 -96c0 -84 -76 -144 -182 -144c-94 0 -155 46 -155 116c0 60 37 104 103 124zM409 751c0 40 -31 65 -82 65c-56 0 -98 -36 -98 -83
c0 -37 32 -62 80 -62c57 0 100 34 100 80zM393 546c0 45 -38 74 -96 74c-68 0 -114 -37 -114 -91c0 -45 38 -75 93 -75c65 0 117 41 117 92z" />
    <glyph glyph-name="nine.superior" unicode="&#x2079;" horiz-adv-x="396" 
d="M116 513l59 13c8 -47 36 -72 80 -72c63 0 122 70 133 158c-25 -33 -62 -54 -110 -54c-77 0 -129 56 -129 137c0 98 71 169 168 169c90 0 139 -60 139 -170c0 -97 -37 -287 -203 -287c-74 0 -119 35 -137 106zM210 694c0 -54 29 -87 77 -87c59 0 106 52 106 119
c0 54 -33 91 -80 91c-57 0 -103 -55 -103 -123z" />
    <glyph glyph-name="period.superior" horiz-adv-x="150" 
d="M194 492l-15 -77h-70l16 77h69z" />
    <glyph glyph-name="comma.superior" horiz-adv-x="150" 
d="M125 492h69c-8 -67 -28 -125 -62 -176h-36c19 34 33 60 41 99h-28z" />
    <glyph glyph-name="hyphen.superior" horiz-adv-x="241" 
d="M325 635l-12 -54h-185l12 54h185z" />
    <glyph glyph-name="parenleft.superior" unicode="&#x207d;" horiz-adv-x="211" 
d="M355 929l26 -35c-126 -81 -193 -198 -193 -349c0 -84 17 -145 64 -204l-35 -29c-65 68 -95 144 -95 238c0 166 93 301 233 379z" />
    <glyph glyph-name="parenright.superior" unicode="&#x207e;" horiz-adv-x="211" 
d="M70 312l-26 35c126 81 193 198 193 349c0 84 -17 145 -64 204l35 29c65 -68 95 -144 95 -238c0 -166 -93 -301 -233 -379z" />
    <glyph glyph-name="dollar.superior" horiz-adv-x="415" 
d="M514 739l-56 -14c-10 60 -37 77 -75 86l-31 -142c52 -27 124 -42 124 -126c0 -73 -63 -136 -176 -136h-8l-13 -61h-49l15 63c-68 10 -132 54 -132 152l60 11c-1 -7 -1 -16 -1 -18c0 -51 38 -86 84 -96l40 168c-62 24 -116 55 -116 113c0 52 36 123 167 123l12 54h48
l-13 -57c67 -11 115 -54 120 -120zM309 684l28 130c-54 0 -97 -19 -97 -68c0 -32 31 -47 69 -62zM304 454c54 0 111 26 111 83c0 45 -43 55 -76 71z" />
    <glyph glyph-name="cent.superior" horiz-adv-x="323" 
d="M416 624l-52 -11c-9 38 -23 50 -45 54l-47 -214c48 0 67 43 74 61l57 -6c-7 -22 -22 -43 -28 -51c-38 -43 -85 -48 -105 -48h-7l-14 -60h-50l14 62c-4 2 -24 5 -38 14c-46 31 -55 71 -55 106c0 89 50 147 101 169c26 11 48 14 63 14l13 56h46l-13 -56
c49 -7 81 -47 86 -90zM224 456l49 214c-7 -1 -14 -2 -27 -8c-36 -18 -66 -64 -66 -132c0 -16 3 -48 25 -64c8 -6 15 -9 19 -10z" />
    <glyph glyph-name="sterling.superior" horiz-adv-x="455" 
d="M577 751l-62 -11c1 6 1 11 1 15c0 39 -34 61 -76 61c-30 0 -62 -13 -79 -45c-16 -31 -21 -74 -33 -131h112l-9 -46h-113c-9 -49 -26 -83 -40 -104c36 -18 59 -30 91 -30c21 0 52 14 60 60l60 -7c-11 -49 -38 -106 -117 -106c-44 0 -87 19 -126 41
c-23 -26 -53 -41 -98 -41c-39 0 -75 15 -75 59c0 42 37 66 89 66c24 0 45 -9 70 -21c8 15 15 33 24 83h-96l9 46h96c15 71 11 140 67 186c30 24 69 39 115 39c101 0 130 -65 130 -114zM205 475c-12 4 -26 12 -52 12c-18 0 -34 -5 -34 -22c0 -12 12 -17 27 -17
c27 0 46 13 59 27z" />
    <glyph glyph-name="yen.superior" horiz-adv-x="388" 
d="M552 856l-170 -185h86l-9 -42h-118l-21 -24l-1 -6h134l-11 -41h-132l-33 -143h-62l32 143h-120l8 41h121l4 14l-4 16h-113l10 42h87l-64 185h67l59 -199l179 199h71z" />
    <glyph glyph-name="florin.superior" horiz-adv-x="202" 
d="M337 858l-10 -45c-7 2 -16 4 -26 4c-21 0 -28 -13 -33 -36l-14 -59h53l-10 -45h-52l-68 -294c-12 -53 -36 -82 -99 -82c-12 0 -24 1 -33 3l11 45c6 -1 15 -2 23 -2c25 0 34 6 42 42l67 288h-46l10 45h46l19 79c13 57 50 63 79 63c16 0 33 -3 41 -6z" />
    <glyph glyph-name="Euro.superior" horiz-adv-x="480" 
d="M583 796l-30 -55c-26 47 -70 73 -125 73c-87 0 -140 -39 -164 -120h262l-23 -42h-247c-2 -9 -4 -22 -4 -30h236l-23 -41h-214c7 -83 60 -125 138 -125c61 0 109 12 154 54l-18 -73c-42 -22 -90 -30 -138 -30c-111 0 -189 61 -197 174h-56l23 41h32c1 10 2 20 4 30h-45
l24 42h29c31 113 114 170 230 170c61 0 113 -21 152 -68z" />
    <glyph glyph-name="zero.inferior" unicode="&#x2080;" horiz-adv-x="396" 
d="M355 127c0 -57 -17 -125 -48 -181c-37 -68 -94 -104 -163 -104c-90 0 -143 63 -143 171c0 161 92 286 211 286c87 0 143 -68 143 -172zM293 130c0 76 -30 119 -83 119c-78 0 -147 -113 -147 -241c0 -76 31 -119 85 -119c76 0 145 114 145 241z" />
    <glyph glyph-name="one.inferior" unicode="&#x2081;" horiz-adv-x="396" 
d="M175 -150h-58l79 339c-36 -18 -73 -18 -84 -18c-12 0 -21 1 -34 2l11 49c10 -1 16 -1 25 -1c19 0 90 0 107 78h58z" />
    <glyph glyph-name="two.inferior" unicode="&#x2082;" horiz-adv-x="396" 
d="M-23 -150l13 59c38 20 63 36 98 59c73 48 183 124 183 214c0 61 -52 69 -71 69c-61 0 -89 -57 -89 -105c0 -11 1 -19 2 -31l-63 13v12c0 136 103 159 152 159c67 0 131 -34 131 -115c0 -127 -138 -210 -178 -235c-34 -21 -59 -35 -92 -49c0 0 207 3 229 3l-12 -53h-303z
" />
    <glyph glyph-name="three.inferior" unicode="&#x2083;" horiz-adv-x="396" 
d="M4 -16l63 8c0 -26 12 -103 100 -103c74 0 98 51 98 86c0 75 -83 79 -131 79h-15l11 49c9 -1 21 -2 30 -2c89 0 128 37 128 87c0 25 -15 63 -72 63c-59 0 -91 -46 -91 -99l-65 12c8 34 14 52 23 67c34 56 93 68 137 68c61 0 129 -34 129 -112c0 -62 -47 -102 -106 -110
c4 -1 28 -5 45 -18c40 -32 40 -75 40 -86c-2 -94 -95 -131 -162 -131c-52 0 -122 15 -151 88c-9 23 -10 48 -11 54z" />
    <glyph glyph-name="four.inferior" unicode="&#x2084;" horiz-adv-x="396" 
d="M327 20l-12 -50h-60l-27 -120h-56l28 120h-204l12 50l262 279h57l-60 -279h60zM262 227l-184 -207h133z" />
    <glyph glyph-name="five.inferior" unicode="&#x2085;" horiz-adv-x="396" 
d="M359 291l-13 -53h-207l-37 -121c32 25 63 36 103 36c78 0 131 -53 131 -131c0 -103 -81 -180 -190 -180c-93 0 -149 45 -163 132l64 10c12 -62 47 -94 104 -94c68 0 122 57 122 129c0 51 -31 84 -78 84c-37 0 -67 -11 -101 -49l-62 10l65 227h262z" />
    <glyph glyph-name="six.inferior" unicode="&#x2086;" horiz-adv-x="396" 
d="M367 193l-58 -11c-8 46 -33 70 -75 70c-45 0 -83 -24 -108 -70c-17 -30 -30 -64 -33 -87c22 33 66 53 114 53c76 0 128 -54 128 -135c0 -98 -71 -171 -165 -171c-93 0 -146 64 -146 174c0 148 79 284 213 284c61 0 117 -36 130 -107zM273 13c0 55 -28 87 -77 87
c-61 0 -105 -51 -105 -118c0 -56 32 -92 80 -92c57 0 102 54 102 123z" />
    <glyph glyph-name="seven.inferior" unicode="&#x2087;" horiz-adv-x="396" 
d="M72 290h298c-5 -30 -12 -64 -48 -120l-30 -46c-61 -94 -104 -181 -133 -274h-70c11 35 26 75 44 113c25 53 50 97 109 181c33 46 46 68 57 94h-179l-21 -76h-58z" />
    <glyph glyph-name="eight.inferior" unicode="&#x2088;" horiz-adv-x="396" 
d="M104 82c-40 22 -55 45 -55 84c0 76 69 133 164 133c85 0 141 -43 141 -108c0 -52 -28 -85 -90 -109c49 -17 74 -50 74 -96c0 -84 -76 -144 -182 -144c-94 0 -155 46 -155 116c0 60 37 104 103 124zM291 186c0 40 -31 65 -82 65c-56 0 -98 -36 -98 -83
c0 -37 32 -62 80 -62c57 0 100 34 100 80zM275 -19c0 45 -38 74 -96 74c-68 0 -114 -37 -114 -91c0 -45 38 -75 93 -75c65 0 117 41 117 92z" />
    <glyph glyph-name="nine.inferior" unicode="&#x2089;" horiz-adv-x="396" 
d="M-1 -52l59 13c8 -47 36 -72 80 -72c63 0 122 70 133 158c-25 -33 -62 -54 -110 -54c-77 0 -129 56 -129 137c0 98 71 169 168 169c90 0 139 -60 139 -170c0 -97 -37 -287 -203 -287c-74 0 -119 35 -137 106zM93 129c0 -54 29 -87 77 -87c59 0 106 52 106 119
c0 54 -33 91 -80 91c-57 0 -103 -55 -103 -123z" />
    <glyph glyph-name="period.inferior" horiz-adv-x="150" 
d="M70 -73l-15 -77h-70l16 77h69z" />
    <glyph glyph-name="comma.inferior" horiz-adv-x="150" 
d="M6 -73h69c-8 -67 -28 -125 -62 -176h-36c19 34 33 60 41 99h-28z" />
    <glyph glyph-name="hyphen.inferior" horiz-adv-x="241" 
d="M196 70l-12 -54h-185l12 54h185z" />
    <glyph glyph-name="parenleft.inferior" unicode="&#x208d;" horiz-adv-x="211" 
d="M227 364l26 -35c-126 -81 -193 -198 -193 -349c0 -84 17 -145 64 -204l-35 -29c-65 68 -95 144 -95 238c0 166 93 301 233 379z" />
    <glyph glyph-name="parenright.inferior" unicode="&#x208e;" horiz-adv-x="211" 
d="M-61 -253l-26 35c126 81 193 198 193 349c0 84 -17 145 -64 204l35 29c65 -68 95 -144 95 -238c0 -166 -93 -301 -233 -379z" />
    <glyph glyph-name="dollar.inferior" horiz-adv-x="415" 
d="M390 173l-56 -14c-10 60 -37 77 -75 86l-31 -142c52 -27 124 -42 124 -126c0 -73 -63 -136 -176 -136h-8l-13 -61h-49l15 63c-68 10 -132 54 -132 152l60 11c-1 -7 -1 -16 -1 -18c0 -51 38 -86 84 -96l40 168c-62 24 -116 55 -116 113c0 52 36 123 167 123l12 54h48
l-13 -57c67 -11 115 -54 120 -120zM185 118l28 130c-54 0 -97 -19 -97 -68c0 -32 31 -47 69 -62zM180 -112c54 0 111 26 111 83c0 45 -43 55 -76 71z" />
    <glyph glyph-name="cent.inferior" horiz-adv-x="323" 
d="M286 58l-52 -11c-9 38 -23 50 -45 54l-47 -214c48 0 67 43 74 61l57 -6c-7 -22 -22 -43 -28 -51c-38 -43 -85 -48 -105 -48h-7l-14 -60h-50l14 62c-8 2 -24 5 -38 14c-46 31 -55 71 -55 106c0 89 50 147 101 169c26 11 48 14 63 14l13 56h46l-13 -56c49 -7 81 -47 86 -90
zM94 -110l49 214c-7 -1 -14 -2 -27 -8c-36 -18 -66 -64 -66 -132c0 -16 3 -48 25 -64c8 -6 15 -9 19 -10z" />
    <glyph glyph-name="sterling.inferior" horiz-adv-x="455" 
d="M449 185l-62 -11c1 6 1 11 1 15c0 39 -34 61 -76 61c-30 0 -62 -13 -79 -45c-16 -31 -21 -74 -33 -131h112l-9 -46h-113c-9 -49 -26 -83 -40 -104c36 -18 59 -30 91 -30c21 0 52 14 60 60l60 -7c-11 -49 -38 -106 -117 -106c-44 0 -87 19 -126 41
c-23 -26 -53 -41 -98 -41c-39 0 -75 15 -75 59c0 42 37 66 89 66c24 0 45 -9 70 -21c8 15 15 33 24 83h-96l9 46h96c15 71 11 140 67 186c30 24 69 39 115 39c101 0 130 -65 130 -114zM77 -91c-12 4 -26 12 -52 12c-18 0 -34 -5 -34 -22c0 -12 12 -17 27 -17
c27 0 46 13 59 27z" />
    <glyph glyph-name="yen.inferior" horiz-adv-x="388" 
d="M424 291l-170 -185h86l-9 -42h-118l-21 -24l-1 -6h134l-11 -41h-132l-33 -143h-62l32 143h-120l8 41h121l4 14l-4 16h-113l10 42h87l-64 185h67l59 -199l179 199h71z" />
    <glyph glyph-name="florin.inferior" horiz-adv-x="202" 
d="M209 293l-10 -45c-7 2 -16 4 -26 4c-21 0 -28 -13 -33 -36l-14 -59h53l-10 -45h-52l-68 -294c-12 -53 -36 -82 -99 -82c-12 0 -24 1 -33 3l11 45c6 -1 15 -2 23 -2c25 0 34 6 42 42l67 288h-46l10 45h46l19 79c13 57 50 63 79 63c16 0 33 -3 41 -6z" />
    <glyph glyph-name="Euro.inferior" horiz-adv-x="480" 
d="M456 230l-30 -55c-26 47 -70 73 -125 73c-87 0 -140 -39 -164 -120h262l-23 -42h-247c-2 -9 -4 -22 -4 -30h236l-23 -41h-214c7 -83 60 -125 138 -125c61 0 109 12 154 54l-18 -73c-42 -22 -90 -30 -138 -30c-111 0 -189 61 -197 174h-56l23 41h32c1 10 2 20 4 30h-45
l24 42h29c31 113 114 170 230 170c61 0 113 -21 152 -68z" />
    <glyph glyph-name="zero.fitted" horiz-adv-x="583" 
d="M76 248c0 214 115 429 309 429c150 0 209 -128 209 -265c0 -186 -107 -424 -310 -424c-124 0 -208 94 -208 260zM162 226c0 -113 57 -174 126 -174c142 0 221 224 221 374c0 160 -78 187 -125 187c-128 0 -222 -190 -222 -387z" />
    <glyph glyph-name="one.fitted" horiz-adv-x="325" 
d="M350 677l-156 -677h-83l120 518c-30 -18 -85 -30 -128 -30c-17 0 -34 1 -51 3l16 68c3 0 20 -1 37 -1c130 0 154 87 163 119h82z" />
    <glyph glyph-name="two.fitted" horiz-adv-x="535" 
d="M-2 0l20 86c91 49 185 109 269 174c33 25 157 128 157 243c0 76 -55 106 -108 106c-66 0 -140 -51 -140 -163c0 -20 2 -32 3 -42l-91 19v12c0 139 76 242 229 242c78 0 196 -37 196 -172c0 -48 -13 -123 -87 -208c-36 -42 -132 -135 -334 -227c0 0 334 5 358 5l-17 -75
h-455z" />
    <glyph glyph-name="three.fitted" horiz-adv-x="550" 
d="M215 311l17 68c10 -1 22 -2 44 -2c83 0 196 27 196 133c0 69 -55 100 -112 100c-102 0 -131 -81 -138 -115c-3 -17 -3 -28 -4 -35l-92 17c3 15 12 61 35 100c57 97 169 100 200 100c154 0 198 -102 198 -169c0 -95 -79 -161 -175 -165c89 -10 142 -74 142 -156
c0 -147 -145 -199 -248 -199c-166 0 -238 111 -238 212l90 10c4 -65 36 -155 156 -155c91 0 150 59 150 133c0 44 -24 81 -64 101c-37 19 -75 20 -157 22z" />
    <glyph glyph-name="four.fitted" horiz-adv-x="524" 
d="M521 254l-17 -72h-91l-42 -182h-79l42 182h-308l16 72l397 423h82l-91 -423h91zM431 580l-292 -326h212z" />
    <glyph glyph-name="five.fitted" horiz-adv-x="551" 
d="M575 665l-17 -71h-307l-56 -209c29 29 71 71 157 71c117 0 190 -83 190 -195c0 -76 -33 -153 -88 -205c-65 -61 -135 -68 -183 -68c-43 0 -108 6 -165 54c-62 53 -68 117 -71 145l82 13c18 -126 106 -146 151 -146c101 0 188 86 188 203c0 91 -56 131 -116 131
c-64 0 -120 -42 -145 -80l-89 14l93 343h376z" />
    <glyph glyph-name="six.fitted" horiz-adv-x="560" 
d="M611 517l-86 -17c-4 58 -48 107 -117 107c-151 0 -223 -193 -239 -286c26 42 79 127 198 127c115 0 194 -79 194 -201c0 -112 -74 -259 -253 -259c-150 0 -225 111 -225 269c0 131 58 255 116 319c48 54 123 101 211 101c61 0 103 -22 128 -40c58 -42 68 -95 73 -120z
M181 195c0 -77 48 -140 131 -140c104 0 166 98 166 190c0 90 -53 134 -122 134c-111 0 -175 -99 -175 -184z" />
    <glyph glyph-name="seven.fitted" horiz-adv-x="489" 
d="M159 665h414c-1 -17 -5 -44 -18 -82c-19 -59 -52 -102 -113 -209c-98 -174 -141 -288 -163 -374h-100c27 94 95 243 159 350c20 33 41 65 63 98c27 40 65 101 73 148h-255l-29 -125h-76z" />
    <glyph glyph-name="eight.fitted" horiz-adv-x="536" 
d="M428 351c67 -16 106 -83 106 -146c0 -106 -83 -217 -262 -217c-148 0 -220 82 -220 176c0 90 67 171 147 187c-21 11 -79 41 -79 123c0 94 73 203 235 203c116 0 201 -61 201 -164c0 -89 -61 -143 -128 -162zM204 481c0 -43 26 -101 121 -101c101 0 147 73 147 129
c0 63 -49 102 -122 102c-105 0 -146 -80 -146 -130zM136 168c0 -78 69 -119 141 -119c92 0 173 65 173 153c0 64 -55 117 -134 117c-90 0 -180 -57 -180 -151z" />
    <glyph glyph-name="nine.fitted" horiz-adv-x="564" 
d="M43 151l82 10c16 -76 72 -104 127 -104c150 0 214 159 236 278c-16 -26 -72 -121 -197 -121c-118 0 -193 83 -193 198c0 132 90 265 258 265c153 0 220 -117 220 -258c0 -189 -103 -431 -329 -431c-90 0 -193 47 -204 163zM181 413c0 -89 57 -130 121 -130
c77 0 178 57 178 188c0 85 -49 140 -127 140c-123 0 -172 -120 -172 -198z" />
    <glyph glyph-name="oneeighth" unicode="&#x215b;" horiz-adv-x="917" 
d="M647 669l-361 -698l-44 23l363 697zM239 233h-58l79 339c-36 -18 -73 -18 -84 -18c-12 0 -21 1 -34 2l11 49c10 -1 16 -1 25 -1c19 0 90 0 107 78h58zM629 231c-40 22 -55 45 -55 84c0 76 69 133 164 133c85 0 141 -43 141 -108c0 -52 -28 -85 -90 -109
c49 -17 74 -50 74 -96c0 -84 -76 -144 -182 -144c-94 0 -155 46 -155 116c0 60 37 104 103 124zM816 335c0 40 -31 65 -82 65c-56 0 -98 -36 -98 -83c0 -37 32 -62 80 -62c57 0 100 34 100 80zM800 130c0 45 -38 74 -96 74c-68 0 -114 -37 -114 -91c0 -45 38 -75 93 -75
c65 0 117 41 117 92z" />
    <glyph glyph-name="threeeighths" unicode="&#x215c;" horiz-adv-x="917" 
d="M702 669l-361 -698l-44 23l363 697zM651 231c-40 22 -55 45 -55 84c0 76 69 133 164 133c85 0 141 -43 141 -108c0 -52 -28 -85 -90 -109c49 -17 74 -50 74 -96c0 -84 -76 -144 -182 -144c-94 0 -155 46 -155 116c0 60 37 104 103 124zM838 335c0 40 -31 65 -82 65
c-56 0 -98 -36 -98 -83c0 -37 32 -62 80 -62c57 0 100 34 100 80zM822 130c0 45 -38 74 -96 74c-68 0 -114 -37 -114 -91c0 -45 38 -75 93 -75c65 0 117 41 117 92zM82 366l63 8c0 -26 12 -103 100 -103c74 0 98 51 98 86c0 75 -83 79 -131 79h-15l11 49c9 -1 21 -2 30 -2
c89 0 128 37 128 87c0 25 -15 63 -72 63c-59 0 -91 -46 -91 -99l-65 12c8 34 14 52 23 67c34 56 93 68 137 68c61 0 129 -34 129 -112c0 -62 -47 -102 -106 -110c4 -1 28 -5 45 -18c40 -32 40 -75 40 -86c-2 -94 -95 -131 -162 -131c-52 0 -122 15 -151 88
c-9 23 -10 48 -11 54z" />
    <glyph glyph-name="fiveeighths" unicode="&#x215d;" horiz-adv-x="917" 
d="M703 669l-361 -698l-44 23l363 697zM660 231c-40 22 -55 45 -55 84c0 76 69 133 164 133c85 0 141 -43 141 -108c0 -52 -28 -85 -90 -109c49 -17 74 -50 74 -96c0 -84 -76 -144 -182 -144c-94 0 -155 46 -155 116c0 60 37 104 103 124zM847 335c0 40 -31 65 -82 65
c-56 0 -98 -36 -98 -83c0 -37 32 -62 80 -62c57 0 100 34 100 80zM831 130c0 45 -38 74 -96 74c-68 0 -114 -37 -114 -91c0 -45 38 -75 93 -75c65 0 117 41 117 92zM440 673l-13 -53h-207l-37 -121c32 25 63 36 103 36c78 0 131 -53 131 -131c0 -103 -81 -180 -190 -180
c-93 0 -149 45 -163 132l64 10c12 -62 47 -94 104 -94c68 0 122 57 122 129c0 51 -31 84 -78 84c-37 0 -67 -11 -101 -49l-62 10l65 227h262z" />
    <glyph glyph-name="seveneighths" unicode="&#x215e;" horiz-adv-x="917" 
d="M648 669l-361 -698l-44 23l363 697zM640 231c-40 22 -55 45 -55 84c0 76 69 133 164 133c85 0 141 -43 141 -108c0 -52 -28 -85 -90 -109c49 -17 74 -50 74 -96c0 -84 -76 -144 -182 -144c-94 0 -155 46 -155 116c0 60 37 104 103 124zM827 335c0 40 -31 65 -82 65
c-56 0 -98 -36 -98 -83c0 -37 32 -62 80 -62c57 0 100 34 100 80zM811 130c0 45 -38 74 -96 74c-68 0 -114 -37 -114 -91c0 -45 38 -75 93 -75c65 0 117 41 117 92zM141 673h298c-5 -30 -12 -64 -48 -120l-30 -46c-61 -94 -104 -181 -133 -274h-70c11 35 26 75 44 113
c25 53 50 97 109 181c33 46 46 68 57 94h-179l-21 -76h-58z" />
    <glyph glyph-name="onethird" unicode="&#x2153;" horiz-adv-x="917" 
d="M646 669l-361 -698l-44 23l363 697zM238 233h-58l79 339c-36 -18 -73 -18 -84 -18c-12 0 -21 1 -34 2l11 49c10 -1 16 -1 25 -1c19 0 90 0 107 78h58zM526 133l63 8c0 -26 12 -103 100 -103c74 0 98 51 98 86c0 75 -83 79 -131 79h-15l11 49c9 -1 21 -2 30 -2
c89 0 128 37 128 87c0 25 -15 63 -72 63c-59 0 -91 -46 -91 -99l-65 12c8 34 14 52 23 67c34 56 93 68 137 68c61 0 129 -34 129 -112c0 -62 -47 -102 -106 -110c4 -1 28 -5 45 -18c40 -32 40 -75 40 -86c-2 -94 -95 -131 -162 -131c-52 0 -122 15 -151 88
c-9 23 -10 48 -11 54z" />
    <glyph glyph-name="twothirds" unicode="&#x2154;" horiz-adv-x="917" 
d="M709 669l-361 -698l-44 23l363 697zM560 133l63 8c0 -26 12 -103 100 -103c74 0 98 51 98 86c0 75 -83 79 -131 79h-15l11 49c9 -1 21 -2 30 -2c89 0 128 37 128 87c0 25 -15 63 -72 63c-59 0 -91 -46 -91 -99l-65 12c8 34 14 52 23 67c34 56 93 68 137 68
c61 0 129 -34 129 -112c0 -62 -47 -102 -106 -110c4 -1 28 -5 45 -18c40 -32 40 -75 40 -86c-2 -94 -95 -131 -162 -131c-52 0 -122 15 -151 88c-9 23 -10 48 -11 54zM68 233l13 59c38 20 63 36 98 59c73 48 183 124 183 214c0 61 -52 69 -71 69c-61 0 -89 -57 -89 -105
c0 -11 1 -19 2 -31l-63 13v12c0 136 103 159 152 159c67 0 131 -34 131 -115c0 -127 -138 -210 -178 -235c-34 -21 -59 -35 -92 -49c0 0 207 3 229 3l-12 -53h-303z" />
    <glyph glyph-name="onefifth" horiz-adv-x="917" 
d="M647 669l-361 -698l-44 23l363 697zM239 233h-58l79 339c-36 -18 -73 -18 -84 -18c-12 0 -21 1 -34 2l11 49c10 -1 16 -1 25 -1c19 0 90 0 107 78h58zM880 440l-13 -53h-207l-37 -121c32 25 63 36 103 36c78 0 131 -53 131 -131c0 -103 -81 -180 -190 -180
c-93 0 -149 45 -163 132l64 10c12 -62 47 -94 104 -94c68 0 122 57 122 129c0 51 -31 84 -78 84c-37 0 -67 -11 -101 -49l-62 10l65 227h262z" />
    <glyph glyph-name="twofifths" horiz-adv-x="917" 
d="M705 669l-361 -698l-44 23l363 697zM921 440l-13 -53h-207l-37 -121c32 25 63 36 103 36c78 0 131 -53 131 -131c0 -103 -81 -180 -190 -180c-93 0 -149 45 -163 132l64 10c12 -62 47 -94 104 -94c68 0 122 57 122 129c0 51 -31 84 -78 84c-37 0 -67 -11 -101 -49l-62 10
l65 227h262zM66 233l13 59c38 20 63 36 98 59c73 48 183 124 183 214c0 61 -52 69 -71 69c-61 0 -89 -57 -89 -105c0 -11 1 -19 2 -31l-63 13v12c0 136 103 159 152 159c67 0 131 -34 131 -115c0 -127 -138 -210 -178 -235c-34 -21 -59 -35 -92 -49c0 0 207 3 229 3l-12 -53
h-303z" />
    <glyph glyph-name="threefifths" horiz-adv-x="917" 
d="M704 669l-361 -698l-44 23l363 697zM917 440l-13 -53h-207l-37 -121c32 25 63 36 103 36c78 0 131 -53 131 -131c0 -103 -81 -180 -190 -180c-93 0 -149 45 -163 132l64 10c12 -62 47 -94 104 -94c68 0 122 57 122 129c0 51 -31 84 -78 84c-37 0 -67 -11 -101 -49l-62 10
l65 227h262zM76 366l63 8c0 -26 12 -103 100 -103c74 0 98 51 98 86c0 75 -83 79 -131 79h-15l11 49c9 -1 21 -2 30 -2c89 0 128 37 128 87c0 25 -15 63 -72 63c-59 0 -91 -46 -91 -99l-65 12c8 34 14 52 23 67c34 56 93 68 137 68c61 0 129 -34 129 -112
c0 -62 -47 -102 -106 -110c4 -1 28 -5 45 -18c40 -32 40 -75 40 -86c-2 -94 -95 -131 -162 -131c-52 0 -122 15 -151 88c-9 23 -10 48 -11 54z" />
    <glyph glyph-name="fourfifths" horiz-adv-x="917" 
d="M705 669l-361 -698l-44 23l363 697zM920 440l-13 -53h-207l-37 -121c32 25 63 36 103 36c78 0 131 -53 131 -131c0 -103 -81 -180 -190 -180c-93 0 -149 45 -163 132l64 10c12 -62 47 -94 104 -94c68 0 122 57 122 129c0 51 -31 84 -78 84c-37 0 -67 -11 -101 -49l-62 10
l65 227h262zM420 403l-12 -50h-60l-27 -120h-56l28 120h-204l12 50l262 279h57l-60 -279h60zM353 601l-184 -207h133z" />
    <glyph glyph-name="braceleft.cap" horiz-adv-x="281" 
d="M419 808l-14 -57h-17c-60 0 -73 -23 -90 -95l-42 -181c-20 -88 -47 -121 -112 -135c39 -14 57 -39 57 -80c0 -16 -3 -36 -8 -58l-36 -158c-10 -44 -12 -51 -12 -64c0 -30 18 -44 56 -44h16l-13 -58h-38c-64 0 -101 36 -101 95c0 19 2 34 12 78l37 156c5 20 8 41 8 51
c0 35 -17 49 -68 56l13 60c70 2 89 15 110 106l37 161c31 134 54 167 172 167h33z" />
    <glyph glyph-name="braceright.cap" horiz-adv-x="281" 
d="M315 373l-14 -60c-67 -2 -89 -15 -110 -106l-37 -162c-28 -124 -48 -167 -166 -167h-39l14 58h17c66 0 75 33 89 92l43 183c21 88 48 122 112 136c-39 13 -57 39 -57 79c0 17 3 36 8 58l36 158c10 44 12 51 12 64c0 31 -18 45 -56 45h-16l13 57h38c64 0 101 -35 101 -95
c0 -19 -2 -33 -12 -77l-37 -157c-4 -19 -8 -41 -8 -50c0 -36 17 -50 69 -56z" />
    <glyph glyph-name="bracketleft.cap" horiz-adv-x="277" 
d="M416 805l-14 -59h-104l-186 -805h104l-14 -59h-184l213 923h185z" />
    <glyph glyph-name="bracketright.cap" horiz-adv-x="277" 
d="M344 805l-213 -923h-184l14 60h104l185 805h-104l14 58h184z" />
    <glyph glyph-name="emdash.cap" horiz-adv-x="895" 
d="M902 383l-18 -76h-805l18 76h805z" />
    <glyph glyph-name="endash.cap" horiz-adv-x="600" 
d="M607 383l-18 -76h-510l18 76h510z" />
    <glyph glyph-name="guillemotleft.cap" horiz-adv-x="396" 
d="M429 493l-21 -94l-90 -58l61 -66l-19 -83l-111 121l16 67zM258 495l-22 -95l-89 -58l60 -68l-19 -79l-110 119l15 66z" />
    <glyph glyph-name="guillemotright.cap" horiz-adv-x="396" 
d="M404 374l-15 -67l-164 -114l22 94l88 59l-59 68l18 78zM233 374l-16 -67l-164 -113l22 94l89 58l-61 66l19 81z" />
    <glyph glyph-name="guilsinglleft.cap" horiz-adv-x="229" 
d="M258 495l-23 -96l-88 -58l60 -66l-19 -80l-110 119l15 66z" />
    <glyph glyph-name="guilsinglright.cap" horiz-adv-x="229" 
d="M239 375l-16 -69l-164 -113l22 94l89 60l-60 66l18 80z" />
    <glyph glyph-name="hyphen.cap" horiz-adv-x="370" 
d="M377 383l-17 -76h-281l18 76h280z" />
    <glyph glyph-name="parenleft.cap" horiz-adv-x="315" 
d="M452 826l31 -44c-201 -126 -308 -318 -308 -554c0 -131 30 -228 106 -320l-44 -42c-101 105 -149 224 -149 371c0 258 146 468 364 589z" />
    <glyph glyph-name="parenright.cap" horiz-adv-x="315" 
d="M129 783l44 42c101 -105 148 -224 148 -371c0 -258 -144 -466 -363 -589l-31 44c198 131 308 317 308 554c0 130 -33 232 -106 320z" />
    <glyph glyph-name="periodcentered.cap" horiz-adv-x="200" 
d="M201 402l-27 -124h-102l28 124h101z" />
    <glyph glyph-name="afii10017" unicode="&#x410;" horiz-adv-x="667" 
d="M607 0h-91l-25 222h-268l-128 -222h-95l409 706h108zM483 295l-35 353l-183 -353h218z" />
    <glyph glyph-name="afii10018" unicode="&#x411;" horiz-adv-x="699" 
d="M220 706h503l-17 -74h-414l-53 -225h234c114 0 201 -59 201 -188c0 -56 -37 -219 -262 -219h-355zM222 333l-60 -259h243c144 0 177 86 177 150c0 78 -67 109 -136 109h-224z" />
    <glyph glyph-name="afii10019" unicode="&#x412;" horiz-adv-x="708" 
d="M220 706h274c152 0 212 -76 212 -164c0 -121 -101 -165 -173 -174c72 -1 141 -56 141 -149c0 -56 -37 -219 -262 -219h-355zM291 634l-53 -227h216c115 0 161 65 161 131c0 42 -25 96 -99 96h-225zM161 74h244c144 0 177 86 177 150c0 78 -67 109 -136 109h-225z" />
    <glyph glyph-name="afii10020" unicode="&#x413;" horiz-adv-x="562" 
d="M676 706l-17 -74h-367l-146 -632h-88l163 706h455z" />
    <glyph glyph-name="afii10021" unicode="&#x414;" horiz-adv-x="746" 
d="M281 706h460l-146 -632h90l-52 -224h-84l35 150h-538l-35 -150h-84l51 224c76 4 185 118 258 436zM348 632l-28 -122c-21 -125 -88 -352 -193 -436h380l129 558h-288z" />
    <glyph glyph-name="afii10022" unicode="&#x415;" horiz-adv-x="625" 
d="M678 706l-17 -75h-370l-54 -233h339l-16 -70h-339l-59 -253h420l-17 -75h-509l163 706h459z" />
    <glyph glyph-name="afii10024" unicode="&#x416;" horiz-adv-x="900" 
d="M539 706h88l-68 -296h48c214 0 177 167 289 296h104c-125 -108 -96 -277 -247 -330c134 -32 49 -267 103 -376h-96c-5 13 -12 51 -12 107v75c0 85 -13 154 -135 154h-71l-78 -336h-88l78 336h-94c-188 -10 -145 -218 -265 -336h-112c149 161 113 337 291 376
c-128 54 -34 193 -118 330h98c61 -124 -26 -280 133 -296h84z" />
    <glyph glyph-name="afii10025" unicode="&#x417;" horiz-adv-x="700" 
d="M285 332l18 74h143c115 0 161 67 161 136c0 47 -27 108 -159 108c-111 0 -191 -52 -220 -128l-84 18c49 117 165 180 307 180c195 0 248 -85 248 -168c0 -128 -101 -174 -165 -184c64 -1 133 -56 133 -149c0 -75 -47 -232 -328 -232c-114 0 -277 30 -277 216l90 18
c0 -89 49 -164 198 -164c193 0 225 95 225 166c0 78 -67 109 -136 109h-154z" />
    <glyph glyph-name="afii10026" unicode="&#x418;" horiz-adv-x="754" 
d="M221 706h88l-116 -502l493 436l15 66h88l-163 -706h-88l119 516l-493 -436l-18 -80h-88z" />
    <glyph glyph-name="afii10027" unicode="&#x419;" horiz-adv-x="754" 
d="M221 706h88l-116 -502l493 436l15 66h88l-163 -706h-88l119 516l-493 -436l-18 -80h-88zM626 888l70 -10c-26 -70 -101 -114 -179 -114c-91 0 -143 44 -143 114l74 10c0 -45 40 -56 77 -56s83 11 101 56z" />
    <glyph glyph-name="afii10028" unicode="&#x41a;" horiz-adv-x="654" 
d="M221 706h88l-68 -296h120c214 0 177 167 289 296h104c-125 -108 -96 -277 -247 -330c134 -32 49 -267 103 -376h-96c-11 34 -12 81 -12 118v64c0 85 -13 154 -135 154h-143l-78 -336h-88z" />
    <glyph glyph-name="afii10029" unicode="&#x41b;" horiz-adv-x="684" 
d="M614 632h-288c-125 -558 -172 -632 -346 -632h-10l17 74h10c96 0 133 46 262 632h460l-163 -706h-88z" />
    <glyph glyph-name="afii10030" unicode="&#x41c;" horiz-adv-x="833" 
d="M868 706l-163 -706h-84l153 600l-343 -600h-95l-67 611l-127 -611h-84l163 706h105l72 -632l366 632h104z" />
    <glyph glyph-name="afii10031" unicode="&#x41d;" horiz-adv-x="750" 
d="M785 706l-163 -706h-87l78 337h-390l-78 -337h-87l163 706h87l-68 -295h390l68 295h87z" />
    <glyph glyph-name="afii10032" unicode="&#x41e;" horiz-adv-x="792" 
d="M96 308c0 231 147 412 381 412c211 0 316 -145 316 -322c0 -239 -171 -411 -386 -411c-193 0 -311 135 -311 321zM191 307c0 -137 82 -250 222 -250c188 0 287 176 287 346c0 175 -110 247 -223 247c-214 0 -286 -206 -286 -343z" />
    <glyph glyph-name="afii10033" unicode="&#x41f;" horiz-adv-x="740" 
d="M221 706h554l-163 -706h-88l146 632h-378l-146 -632h-88z" />
    <glyph glyph-name="afii10034" unicode="&#x420;" horiz-adv-x="646" 
d="M56 0l163 706h285c114 0 201 -59 201 -180c0 -130 -96 -225 -281 -225h-211l-69 -301h-88zM230 375h165c69 0 139 1 188 58c32 37 34 74 34 92c0 62 -40 106 -114 106h-213z" />
    <glyph glyph-name="afii10035" unicode="&#x421;" horiz-adv-x="771" 
d="M777 505l-89 -17c-17 67 -69 161 -219 161c-223 0 -287 -219 -287 -339c0 -135 59 -251 226 -251c127 0 212 70 262 186l89 -12c-66 -163 -197 -246 -355 -246c-142 0 -317 72 -317 325c0 220 143 408 383 408c198 0 279 -111 307 -215z" />
    <glyph glyph-name="afii10036" unicode="&#x422;" 
d="M660 706l-17 -76h-216l-145 -630h-89l150 630h-218l17 76h518z" />
    <glyph glyph-name="afii10037" unicode="&#x423;" horiz-adv-x="620" 
d="M226 706l130 -452l278 452h96l-299 -472c-130 -204 -175 -234 -321 -234h-30l17 74h32c71 0 113 25 160 94l-159 538h96z" />
    <glyph glyph-name="afii10038" unicode="&#x424;" horiz-adv-x="810" 
d="M493 720h88l-25 -111h14c84 0 112 -6 147 -25c56 -31 94 -89 94 -184c0 -105 -46 -206 -131 -254c-45 -26 -91 -40 -190 -40h-51l-26 -116h-88l26 116h-14c-84 0 -112 6 -147 25c-56 31 -94 89 -94 184c0 105 46 206 131 254c45 26 91 40 190 40h51zM368 176l83 363h-40
c-39 0 -82 -6 -116 -21c-63 -28 -105 -102 -105 -199c0 -52 11 -84 31 -106c25 -26 54 -37 131 -37h16zM539 539l-83 -363h40c39 0 82 6 116 21c63 28 105 102 105 199c0 52 -11 84 -31 106c-25 26 -54 37 -131 37h-16z" />
    <glyph glyph-name="afii10039" unicode="&#x425;" horiz-adv-x="584" 
d="M686 706l-296 -349l150 -357h-94l-120 294l-241 -294h-104l315 369l-139 337h92l109 -273l224 273h104z" />
    <glyph glyph-name="afii10040" unicode="&#x426;" horiz-adv-x="772" 
d="M221 706h88l-146 -632h370l146 632h88l-146 -632h90l-52 -224h-84l35 150h-552z" />
    <glyph glyph-name="afii10041" unicode="&#x427;" horiz-adv-x="660" 
d="M179 706h88l-40 -172c-11 -44 -17 -73 -17 -109c0 -54 34 -79 142 -79c49 0 107 6 176 18l79 342h88l-163 -706h-88l67 290c-75 -13 -134 -18 -185 -18c-125 0 -208 36 -208 134c0 29 7 56 21 119z" />
    <glyph glyph-name="afii10042" unicode="&#x428;" horiz-adv-x="974" 
d="M221 706h88l-146 -632h262l146 632h88l-146 -632h262l146 632h88l-163 -706h-788z" />
    <glyph glyph-name="afii10043" unicode="&#x429;" horiz-adv-x="1014" 
d="M221 706h88l-146 -632h262l146 632h88l-146 -632h262l146 632h88l-146 -632h90l-52 -224h-84l35 150h-794z" />
    <glyph glyph-name="afii10044" unicode="&#x42a;" horiz-adv-x="796" 
d="M142 706h278l-70 -299h221c114 0 201 -59 201 -188c0 -56 -37 -219 -262 -219h-342l146 632h-189zM333 333l-60 -259h230c144 0 177 86 177 150c0 78 -67 109 -136 109h-211z" />
    <glyph glyph-name="afii10045" unicode="&#x42b;" horiz-adv-x="880" 
d="M221 706h89l-70 -299h191c114 0 201 -59 201 -188c0 -56 -37 -219 -262 -219h-312zM223 333l-60 -259h200c144 0 177 86 177 150c0 78 -67 109 -136 109h-181zM915 706l-163 -706h-86l163 706h86z" />
    <glyph glyph-name="afii10046" unicode="&#x42c;" horiz-adv-x="686" 
d="M221 706h89l-70 -299h221c114 0 201 -59 201 -188c0 -56 -37 -219 -262 -219h-342zM223 333l-60 -259h230c144 0 177 86 177 150c0 78 -67 109 -136 109h-211z" />
    <glyph glyph-name="afii10047" unicode="&#x42d;" horiz-adv-x="780" 
d="M91 201l90 18c16 -67 68 -162 218 -162c216 0 273 207 281 267h-379l18 74h368c0 135 -59 252 -227 252c-112 0 -189 -51 -233 -138l-84 18c59 126 177 190 321 190c142 0 317 -72 317 -325c0 -220 -143 -408 -383 -408c-198 0 -279 111 -307 214z" />
    <glyph glyph-name="afii10048" unicode="&#x42e;" horiz-adv-x="1052" 
d="M221 706h88l-67 -290h153c23 116 119 304 356 304c202 0 302 -145 302 -322c0 -239 -165 -411 -372 -411c-184 0 -297 127 -297 330v25h-159l-79 -342h-88zM478 307c0 -137 77 -250 208 -250c179 0 273 176 273 346c0 175 -103 247 -209 247c-204 0 -272 -206 -272 -343z
" />
    <glyph glyph-name="afii10049" unicode="&#x42f;" horiz-adv-x="680" 
d="M715 706l-163 -706h-88l70 302h-168c-192 0 -171 -216 -270 -302h-114c127 92 106 294 266 338c-35 10 -97 43 -97 149c0 56 37 219 262 219h302zM551 376l59 256h-190c-144 0 -177 -86 -177 -150c0 -76 67 -106 136 -106h172z" />
    <glyph glyph-name="afii10065" unicode="&#x430;" horiz-adv-x="500" 
d="M470 69l-15 -65c-24 -6 -34 -7 -47 -7c-24 0 -69 10 -69 59c0 4 0 9 1 13c-16 -30 -64 -79 -164 -79c-110 0 -140 70 -140 117c0 78 56 135 148 153c61 12 133 18 195 31c4 19 10 43 10 62c0 34 -21 67 -91 67c-101 0 -112 -77 -115 -95l-89 8c22 62 61 147 215 147
c66 0 161 -30 161 -113c0 -23 -4 -45 -9 -67l-43 -185c-2 -9 -4 -19 -4 -29c0 -20 13 -24 25 -24c8 0 15 1 31 7zM365 230l-17 -2c-93 -11 -225 -26 -225 -114c0 -28 18 -65 80 -65c31 0 77 15 101 34c38 30 44 75 48 91z" />
    <glyph glyph-name="afii10066" unicode="&#x431;" horiz-adv-x="546" 
d="M512 706h80c-17 -78 -60 -127 -192 -134c-153 -9 -210 -81 -234 -166l-7 -25c56 64 108 90 191 90c121 0 176 -79 176 -198c0 -137 -94 -285 -262 -285c-140 0 -198 86 -198 203c0 52 13 124 31 188c1 5 3 10 5 16c24 83 72 247 300 255c74 2 102 18 110 56zM146 189
c0 -106 63 -141 118 -141c109 0 182 118 182 235c0 113 -76 128 -105 128c-130 0 -195 -120 -195 -222z" />
    <glyph glyph-name="afii10067" unicode="&#x432;" horiz-adv-x="504" 
d="M150 471h213c101 0 141 -51 141 -109c0 -81 -67 -108 -102 -116c35 -3 81 -33 81 -100c0 -37 -25 -146 -175 -146h-267zM213 405l-30 -126h140c74 0 103 38 103 76c0 22 -15 50 -60 50h-153zM168 213l-34 -147h153c96 0 118 48 118 83c0 46 -33 64 -80 64h-157z" />
    <glyph glyph-name="afii10068" unicode="&#x433;" horiz-adv-x="400" 
d="M150 471h324l-15 -66h-246l-94 -405h-78z" />
    <glyph glyph-name="afii10069" unicode="&#x434;" horiz-adv-x="576" 
d="M556 471l-94 -405h78l-43 -186h-70l28 120h-397l-28 -120h-70l43 186c98 24 158 179 192 331l17 74h344zM463 405h-194l-9 -38c-18 -84 -66 -242 -140 -301h264z" />
    <glyph glyph-name="afii10070" unicode="&#x435;" horiz-adv-x="521" 
d="M494 227h-353c-1 -7 -2 -19 -2 -33c0 -129 98 -145 133 -145c53 0 112 33 134 96l75 -13c-16 -45 -80 -144 -225 -144c-127 0 -194 85 -194 201c0 163 106 294 260 294c110 0 178 -66 178 -193c0 -19 0 -31 -6 -63zM156 285h266c0 4 1 11 1 19c0 71 -44 118 -106 118
c-77 0 -141 -66 -161 -137z" />
    <glyph glyph-name="afii10072" unicode="&#x436;" horiz-adv-x="640" 
d="M362 471h78l-43 -187h45c107 0 94 122 158 187h90c-93 -54 -77 -198 -170 -217c103 -33 30 -167 91 -254h-86c-33 74 22 218 -99 218h-45l-50 -218h-78l50 218h-52c-93 0 -103 -150 -172 -218h-92c92 80 94 230 199 254c-88 34 -14 148 -84 217h78
c51 -67 -18 -187 100 -187h39z" />
    <glyph glyph-name="afii10073" unicode="&#x437;" horiz-adv-x="466" 
d="M208 276h75c74 0 103 40 103 80c0 31 -18 70 -98 70c-65 0 -113 -27 -138 -92l-74 20c25 60 86 132 218 132s172 -53 172 -114c0 -88 -67 -117 -102 -126c35 -3 81 -33 81 -100c0 -41 -34 -161 -240 -161c-92 0 -166 47 -179 143l74 17c4 -34 26 -100 120 -100
c118 0 145 58 145 101c0 46 -33 64 -80 64h-93z" />
    <glyph glyph-name="afii10074" unicode="&#x438;" horiz-adv-x="556" 
d="M150 471h78l-73 -317l311 267l12 50h78l-109 -471h-78l75 325l-312 -267l-13 -58h-78z" />
    <glyph glyph-name="afii10075" unicode="&#x439;" horiz-adv-x="556" 
d="M150 471h78l-73 -317l311 267l12 50h78l-109 -471h-78l75 325l-312 -267l-13 -58h-78zM471 684l62 -10c-28 -74 -98 -120 -173 -120c-82 0 -125 46 -125 120l66 10c0 -53 34 -66 69 -66s80 13 101 66z" />
    <glyph glyph-name="afii10076" unicode="&#x43a;" horiz-adv-x="478" 
d="M150 471h78l-43 -187h95c107 0 94 122 158 187h90c-93 -54 -77 -198 -170 -217c103 -33 30 -167 91 -254h-86c-33 74 22 218 -99 218h-95l-50 -218h-78z" />
    <glyph glyph-name="afii10077" unicode="&#x43b;" horiz-adv-x="520" 
d="M520 471l-109 -471h-78l94 405h-194l-10 -43c-49 -222 -80 -362 -232 -362h-11l15 66h11c65 1 88 49 145 296l25 109h344z" />
    <glyph glyph-name="afii10078" unicode="&#x43c;" horiz-adv-x="658" 
d="M552 471h106l-109 -471h-78l97 387l-235 -387h-78l-53 395l-83 -395h-78l109 471h114l53 -391z" />
    <glyph glyph-name="afii10079" unicode="&#x43d;" horiz-adv-x="548" 
d="M150 471h78l-44 -191h242l44 191h78l-109 -471h-78l49 214h-242l-49 -214h-78z" />
    <glyph glyph-name="afii10080" unicode="&#x43e;" 
d="M62 195c0 131 84 288 264 288c125 0 196 -94 196 -210c0 -137 -94 -285 -262 -285c-127 0 -198 91 -198 207zM142 189c0 -106 63 -141 118 -141c109 0 182 118 182 235c0 124 -83 140 -115 140c-123 0 -185 -127 -185 -234z" />
    <glyph glyph-name="afii10081" unicode="&#x43f;" horiz-adv-x="540" 
d="M150 471h390l-109 -471h-78l93 405h-234l-93 -405h-78z" />
    <glyph glyph-name="afii10082" unicode="&#x440;" horiz-adv-x="546" 
d="M152 471h78l-14 -59c21 26 59 68 140 68c27 0 170 -9 170 -187c0 -117 -67 -302 -248 -302c-25 0 -105 0 -138 90l-69 -296h-77zM446 294c0 95 -63 122 -109 122c-35 0 -101 -16 -138 -98c-19 -42 -32 -105 -32 -151c0 -83 56 -112 108 -112c79 0 171 83 171 239z" />
    <glyph glyph-name="afii10083" unicode="&#x441;" horiz-adv-x="509" 
d="M509 340l-74 -17c-8 32 -25 96 -112 96c-137 0 -180 -161 -180 -228c0 -70 35 -145 124 -145c55 0 114 32 139 107l82 -11c-31 -73 -90 -154 -227 -154c-80 0 -199 37 -199 198c0 168 112 297 262 297c90 0 178 -47 185 -143z" />
    <glyph glyph-name="afii10084" unicode="&#x442;" horiz-adv-x="400" 
d="M78 471h392l-15 -66h-157l-94 -405h-78l94 405h-157z" />
    <glyph glyph-name="afii10085" unicode="&#x443;" horiz-adv-x="458" 
d="M509 471l-356 -602c-53 -89 -85 -100 -157 -100c-28 0 -41 2 -50 3l16 68c12 -1 25 -2 37 -2c55 0 72 31 95 71l58 99l-53 463h78l37 -376l209 376h86z" />
    <glyph glyph-name="afii10086" unicode="&#x444;" horiz-adv-x="660" 
d="M420 706h78l-54 -235c59 0 196 -29 196 -197c0 -178 -108 -274 -305 -274l-50 -215h-78l50 215c-59 0 -195 29 -195 197c0 178 108 274 304 274zM271 60l81 351c-122 0 -210 -68 -210 -214c0 -108 73 -137 129 -137zM430 411l-81 -351c123 0 211 68 211 214
c0 108 -74 137 -130 137z" />
    <glyph glyph-name="afii10087" unicode="&#x445;" horiz-adv-x="437" 
d="M503 471l-218 -237l69 -234h-77l-46 180l-160 -180h-94l227 245l-67 226h76l46 -171l153 171h91z" />
    <glyph glyph-name="afii10088" unicode="&#x446;" horiz-adv-x="560" 
d="M150 471h78l-94 -405h234l94 405h78l-94 -405h78l-43 -186h-70l28 120h-398z" />
    <glyph glyph-name="afii10089" unicode="&#x447;" horiz-adv-x="480" 
d="M119 471h78l-27 -114c-7 -29 -10 -43 -10 -62c0 -36 32 -50 85 -50c32 0 82 9 109 18l48 208h78l-109 -471h-78l46 197c-37 -8 -77 -16 -123 -16c-79 0 -136 26 -136 101c0 15 3 30 10 63z" />
    <glyph glyph-name="afii10090" unicode="&#x448;" horiz-adv-x="752" 
d="M150 471h78l-93 -400h184l93 400h78l-93 -400h184l93 400h78l-109 -471h-602z" />
    <glyph glyph-name="afii10091" unicode="&#x449;" horiz-adv-x="772" 
d="M150 471h78l-93 -400h184l93 400h78l-93 -400h184l93 400h78l-94 -405h78l-43 -186h-70l28 120h-610z" />
    <glyph glyph-name="afii10092" unicode="&#x44a;" horiz-adv-x="554" 
d="M78 471h216l-43 -185h157c74 0 130 -41 130 -129c0 -40 -24 -157 -174 -157h-257l94 405h-138zM236 220l-36 -154h152c88 0 108 50 108 87c0 48 -31 67 -76 67h-148z" />
    <glyph glyph-name="afii10093" unicode="&#x44b;" horiz-adv-x="656" 
d="M228 471l-43 -185h133c74 0 130 -41 130 -129c0 -40 -24 -157 -174 -157h-233l109 471h78zM170 220l-36 -154h128c88 0 108 50 108 87c0 48 -31 67 -76 67h-124zM578 471h78l-109 -471h-78z" />
    <glyph glyph-name="afii10094" unicode="&#x44c;" horiz-adv-x="488" 
d="M228 471l-43 -185h157c74 0 130 -41 130 -129c0 -40 -24 -157 -174 -157h-257l109 471h78zM170 220l-36 -154h152c88 0 108 50 108 87c0 48 -31 67 -76 67h-148z" />
    <glyph glyph-name="afii10095" unicode="&#x44d;" horiz-adv-x="512" 
d="M42 131l74 17c4 -34 28 -100 125 -100c123 0 156 125 162 162h-211l16 66h204v6c0 71 -37 141 -125 141c-55 0 -110 -26 -135 -89l-74 20c25 60 86 129 215 129c80 0 199 -37 199 -198c0 -168 -92 -297 -252 -297c-106 0 -184 47 -198 143z" />
    <glyph glyph-name="afii10096" unicode="&#x44e;" horiz-adv-x="754" 
d="M150 471h78l-44 -191h116c13 59 72 203 245 203c121 0 189 -94 189 -210c0 -137 -91 -285 -255 -285c-123 0 -191 91 -191 207l1 19h-121l-49 -214h-78zM368 189c0 -106 59 -141 111 -141c105 0 175 118 175 235c0 124 -78 140 -108 140c-118 0 -178 -127 -178 -234z" />
    <glyph glyph-name="afii10097" unicode="&#x44f;" horiz-adv-x="500" 
d="M500 471l-109 -471h-78l44 189h-99c-124 0 -117 -141 -166 -189h-92c70 51 61 188 168 217c-21 0 -75 26 -75 97c0 59 25 157 184 157h223zM372 255l35 150h-144c-72 0 -92 -48 -92 -83c0 -48 31 -67 76 -67h125z" />
    <glyph glyph-name="afii10050" unicode="&#x490;" horiz-adv-x="562" 
d="M221 706h374l35 150h80l-51 -224h-367l-146 -632h-88z" />
    <glyph glyph-name="afii10055" unicode="&#x406;" horiz-adv-x="271" 
d="M306 706l-163 -706h-86l163 706h86z" />
    <glyph glyph-name="afii10051" unicode="&#x402;" horiz-adv-x="750" 
d="M660 706l-17 -74h-215l-57 -246c61 29 130 41 174 41c102 0 181 -62 181 -198c0 -59 -37 -229 -275 -229h-34l16 74h24c144 0 177 92 177 160c0 85 -56 119 -108 119c-48 0 -106 -11 -174 -51l-70 -302h-88l146 632h-215l17 74h518z" />
    <glyph glyph-name="afii10099" unicode="&#x452;" horiz-adv-x="538" 
d="M41 0l123 534h-100l16 66h100l24 106h78l-24 -106h190l-16 -66h-190l-42 -183c30 46 80 92 166 92c88 0 134 -48 134 -111c0 -39 -9 -67 -11 -77l-76 -331c-26 -114 -46 -152 -149 -152c-28 0 -41 2 -53 4l15 64c9 -1 15 -2 32 -2c54 0 62 21 77 86l78 340
c5 24 7 34 7 47c0 45 -35 68 -79 68c-62 0 -142 -32 -176 -180l-46 -199h-78z" />
    <glyph glyph-name="afii10052" unicode="&#x403;" horiz-adv-x="562" 
d="M676 706l-17 -74h-367l-146 -632h-88l163 706h455zM622 895l-145 -127h-67l87 127h125z" />
    <glyph glyph-name="afii10100" unicode="&#x453;" horiz-adv-x="400" 
d="M150 471h324l-15 -66h-246l-94 -405h-78zM468 683l-143 -150h-61l87 150h117z" />
    <glyph glyph-name="afii10103" unicode="&#x456;" horiz-adv-x="229" 
d="M279 706l-23 -102h-78l23 102h78zM227 471l-109 -471h-77l108 471h78z" />
    <glyph glyph-name="afii10098" unicode="&#x491;" horiz-adv-x="400" 
d="M150 471h254l28 120h70l-43 -186h-246l-94 -405h-78z" />
    <glyph glyph-name="afii10057" unicode="&#x408;" horiz-adv-x="437" 
d="M477 706l-112 -485c-30 -132 -64 -234 -228 -234c-64 0 -90 9 -120 19l19 85c26 -12 56 -24 101 -24c107 0 127 95 145 175l107 464h88z" />
    <glyph glyph-name="afii10053" unicode="&#x404;" horiz-adv-x="780" 
d="M786 505l-89 -17c-17 67 -69 162 -219 162c-204 0 -264 -181 -278 -252h376l-18 -74h-368v-14c0 -136 59 -253 227 -253c127 0 212 71 262 188l89 -12c-66 -163 -197 -246 -355 -246c-142 0 -317 72 -317 325c0 220 143 408 383 408c198 0 279 -111 307 -215z" />
    <glyph glyph-name="afii10101" unicode="&#x454;" horiz-adv-x="510" 
d="M510 340l-74 -17c-8 42 -25 100 -113 100c-111 0 -156 -95 -169 -147h208l-16 -66h-203l-1 -17c0 -70 35 -145 125 -145c55 0 114 31 139 105l82 -11c-31 -73 -90 -154 -227 -154c-80 0 -199 37 -199 198c0 168 112 297 262 297c115 0 175 -58 186 -143z" />
    <glyph glyph-name="afii10056" unicode="&#x407;" horiz-adv-x="271" 
d="M411 880l-24 -102h-80l24 102h80zM268 880l-23 -102h-80l23 102h80zM306 706l-163 -706h-86l163 706h86z" />
    <glyph glyph-name="afii10104" unicode="&#x457;" horiz-adv-x="240" 
d="M349 706l-23 -102h-74l23 102h74zM223 706l-23 -102h-74l23 102h74zM233 471l-109 -471h-77l108 471h78z" />
    <glyph glyph-name="afii10058" unicode="&#x409;" horiz-adv-x="1040" 
d="M259 706h435l-70 -299h191c114 0 201 -59 201 -188c0 -56 -37 -219 -262 -219h-312l147 632h-263c-125 -558 -172 -632 -346 -632h-10l17 74h10c96 0 133 46 262 632zM607 333l-60 -259h200c144 0 177 86 177 150c0 78 -67 109 -136 109h-181z" />
    <glyph glyph-name="afii10106" unicode="&#x459;" horiz-adv-x="746" 
d="M176 471h334l-43 -185h133c74 0 130 -41 130 -129c0 -40 -24 -157 -174 -157h-233l94 405h-184l-10 -43c-49 -222 -80 -362 -232 -362h-11l15 66h11c65 1 88 49 145 296zM452 220l-36 -154h128c88 0 108 50 108 87c0 48 -31 67 -76 67h-124z" />
    <glyph glyph-name="afii10059" unicode="&#x40a;" horiz-adv-x="1100" 
d="M221 706h88l-69 -299h356l69 299h89l-70 -299h191c114 0 201 -59 201 -188c0 -56 -37 -219 -262 -219h-312l77 333h-356l-77 -333h-88zM667 333l-60 -259h200c144 0 177 86 177 150c0 78 -67 109 -136 109h-181z" />
    <glyph glyph-name="afii10107" unicode="&#x45a;" horiz-adv-x="774" 
d="M150 471h78l-43 -185h232l43 185h78l-43 -185h133c74 0 130 -41 130 -129c0 -40 -24 -157 -174 -157h-233l50 220h-232l-50 -220h-78zM480 220l-36 -154h128c88 0 108 50 108 87c0 48 -31 67 -76 67h-124z" />
    <glyph glyph-name="afii10105" unicode="&#x458;" horiz-adv-x="229" 
d="M286 706l-21 -89h-79l20 89h80zM232 471l-127 -547c-26 -114 -46 -152 -149 -152c-28 0 -41 2 -53 4l15 64c9 -1 15 -2 32 -2c53 0 60 21 75 85l131 548h76z" />
    <glyph glyph-name="afii10054" unicode="&#x405;" horiz-adv-x="667" 
d="M691 530l-87 -21c-13 78 -57 143 -172 143c-105 0 -170 -53 -170 -121c0 -58 52 -80 125 -109l81 -32c89 -35 156 -84 156 -181c0 -82 -52 -222 -282 -222c-116 0 -281 33 -281 241l94 18c0 -4 -1 -10 -1 -18c0 -87 50 -175 185 -175c140 0 194 77 194 143
c0 64 -50 90 -111 114l-86 34c-59 23 -167 62 -167 177c0 166 174 199 267 199c120 0 241 -47 255 -190z" />
    <glyph glyph-name="afii10060" unicode="&#x40b;" horiz-adv-x="760" 
d="M660 706l-17 -74h-215l-52 -226c68 13 121 18 167 18c90 0 194 -22 194 -134c0 -25 -2 -49 -17 -113l-41 -177h-88l41 177c7 31 13 62 13 96c0 52 -32 77 -128 77c-44 0 -96 -6 -158 -18l-77 -332h-88l146 632h-215l17 74h518z" />
    <glyph glyph-name="afii10108" unicode="&#x45b;" horiz-adv-x="538" 
d="M41 0l123 534h-100l16 66h100l24 106h78l-24 -106h190l-16 -66h-190l-42 -183c30 46 80 92 166 92c88 0 134 -48 134 -111c0 -39 -9 -67 -11 -77l-59 -255h-78l61 264c5 24 7 34 7 47c0 45 -35 68 -79 68c-62 0 -142 -32 -176 -180l-46 -199h-78z" />
    <glyph glyph-name="afii10061" unicode="&#x40c;" horiz-adv-x="654" 
d="M221 706h88l-68 -296h120c214 0 177 167 289 296h104c-125 -108 -96 -277 -247 -330c134 -32 49 -267 103 -376h-96c-11 34 -12 81 -12 118v64c0 85 -13 154 -135 154h-143l-78 -336h-88zM631 895l-145 -127h-67l87 127h125z" />
    <glyph glyph-name="afii10109" unicode="&#x45c;" horiz-adv-x="478" 
d="M150 471h78l-43 -187h95c107 0 94 122 158 187h90c-93 -54 -77 -198 -170 -217c103 -33 30 -167 91 -254h-86c-33 74 22 218 -99 218h-95l-50 -218h-78zM478 683l-143 -150h-61l87 150h117z" />
    <glyph glyph-name="afii10102" unicode="&#x455;" horiz-adv-x="479" 
d="M49 162l80 13c-1 -6 -6 -22 -6 -40c0 -66 49 -88 111 -88c71 0 120 32 120 83c0 32 -20 48 -71 68l-83 32c-59 23 -97 58 -97 113c0 58 48 140 189 140c138 0 166 -74 166 -124c0 -6 0 -11 -1 -18l-76 -13c1 3 3 14 3 27c0 39 -37 70 -91 70c-74 0 -107 -40 -107 -72
c0 -34 26 -45 72 -63l77 -30c57 -22 103 -50 103 -116c0 -43 -26 -156 -200 -156c-135 0 -192 58 -192 143c0 8 0 15 3 31z" />
    <glyph glyph-name="afii10062" unicode="&#x40e;" horiz-adv-x="620" 
d="M226 706l130 -452l278 452h96l-299 -472c-130 -204 -175 -234 -321 -234h-30l17 74h32c71 0 113 25 160 94l-159 538h96zM545 888l70 -10c-26 -70 -101 -114 -179 -114c-91 0 -143 44 -143 114l74 10c0 -45 40 -56 77 -56s83 11 101 56z" />
    <glyph glyph-name="afii10110" unicode="&#x45e;" horiz-adv-x="458" 
d="M509 471l-356 -602c-53 -89 -85 -100 -157 -100c-28 0 -41 2 -50 3l16 68c12 -1 25 -2 37 -2c55 0 72 31 95 71l58 99l-53 463h78l37 -376l209 376h86zM419 684l62 -10c-28 -74 -98 -120 -173 -120c-82 0 -125 46 -125 120l66 10c0 -53 34 -66 69 -66s80 13 101 66z" />
    <glyph glyph-name="afii10145" unicode="&#x40f;" horiz-adv-x="732" 
d="M221 706h88l-146 -632h370l146 632h88l-163 -706h-228l-40 -170h-84l40 170h-234z" />
    <glyph glyph-name="afii10193" unicode="&#x45f;" horiz-adv-x="540" 
d="M150 471h78l-94 -405h234l94 405h78l-109 -471h-156l-33 -140h-70l33 140h-164z" />
    <glyph glyph-name="afii61352" unicode="&#x2116;" horiz-adv-x="1120" 
d="M763 706l-163 -706h-91l-234 613l-133 -613h-85l163 706h95l231 -611l133 611h84zM810 444c0 111 62 262 210 262c88 0 134 -58 134 -175c0 -94 -58 -260 -210 -260c-50 0 -134 31 -134 173zM870 436c0 -67 31 -115 82 -115c79 0 142 111 142 218c0 57 -16 117 -80 117
c-91 0 -144 -119 -144 -220zM758 208h350l-16 -70h-350z" />
    <glyph glyph-name="afii10023" unicode="&#x401;" horiz-adv-x="625" 
d="M678 706l-17 -75h-370l-54 -233h339l-16 -70h-339l-59 -253h420l-17 -75h-509l163 706h459zM623 880l-24 -103h-91l24 103h91zM429 880l-23 -103h-92l24 103h91z" />
    <glyph glyph-name="afii10071" unicode="&#x451;" horiz-adv-x="522" 
d="M488 706l-23 -102h-82l23 102h82zM305 706l-23 -102h-82l23 102h82zM494 227h-353c-1 -7 -2 -19 -2 -33c0 -129 98 -145 133 -145c53 0 112 33 134 96l75 -13c-16 -45 -80 -144 -225 -144c-127 0 -194 85 -194 201c0 163 106 294 260 294c110 0 178 -66 178 -193
c0 -19 0 -31 -6 -63zM156 285h266c0 4 1 11 1 19c0 71 -44 118 -106 118c-77 0 -141 -66 -161 -137z" />
    <glyph glyph-name="afii10066.locl" horiz-adv-x="546" 
d="M512 706h80c-16 -74 -58 -124 -132 -124c-31 0 -56 6 -85 13c-20 5 -42 10 -68 10c-31 0 -60 -17 -60 -57c0 -52 40 -71 95 -75l37 -3c110 -16 147 -106 147 -197c0 -137 -94 -285 -262 -285c-127 0 -198 89 -198 203c0 131 88 233 168 250c-37 15 -67 39 -67 98
c0 92 60 146 145 146c19 0 42 -3 84 -14c22 -5 42 -9 66 -9c33 0 45 25 50 44zM146 189c0 -106 63 -141 118 -141c109 0 182 118 182 235c0 113 -83 128 -115 128c-123 0 -185 -120 -185 -222z" />
    <glyph glyph-name="afii10068.locl" horiz-adv-x="230" 
d="M228 471l-109 -471h-78l109 471h78zM330 670l-15 -66h-200l15 66h200z" />
    <glyph glyph-name="afii10069.locl" 
d="M463 471h78l-102 -445c-37 -162 -96 -246 -239 -246c-92 0 -187 43 -187 145c0 8 1 16 3 32l80 9c-5 -19 -6 -25 -6 -36c0 -39 30 -90 113 -90c110 0 135 89 165 208c-27 -24 -64 -57 -137 -57c-126 0 -169 109 -169 195c0 84 50 294 252 294c87 0 120 -48 134 -78z
M143 186c0 -107 63 -135 111 -135c135 0 165 193 165 248c0 49 -16 119 -101 119c-133 0 -175 -151 -175 -232z" />
    <glyph glyph-name="afii10081.locl" horiz-adv-x="546" 
d="M547 471l-109 -471h-78l17 74c-40 -53 -106 -83 -172 -83c-89 0 -130 53 -130 111c0 25 10 65 15 89l65 280h78l-65 -280c-9 -38 -10 -51 -10 -69c0 -40 28 -66 84 -66c19 0 74 4 114 47c38 41 50 94 62 146l51 222h78zM528 670l-15 -66h-288l15 66h288z" />
    <glyph glyph-name="afii10084.locl" horiz-adv-x="794" 
d="M795 471l-109 -471h-78l18 76c-34 -48 -76 -88 -155 -88c-57 0 -105 30 -112 88c-22 -31 -74 -88 -165 -88c-50 0 -119 25 -119 113c0 29 11 77 14 90l64 280h78l-63 -276c-5 -22 -14 -57 -14 -80c0 -44 33 -65 72 -65c59 0 121 35 147 147l63 274h78l-55 -240
c-8 -34 -22 -84 -22 -113c0 -43 23 -68 70 -68c48 0 121 31 153 172l57 249h78zM718 670l-15 -66h-420l15 66h420z" />
    <glyph glyph-name="tonos" unicode="&#x384;" horiz-adv-x="292" 
d="M248 683l-143 -150h-61l87 150h117z" />
    <glyph glyph-name="dieresistonos" unicode="&#x385;" horiz-adv-x="380" 
d="M279 694l-84 -142h-71l50 142h105zM388 653l-23 -101h-91l23 101h91zM106 653l-23 -101h-91l23 101h91z" />
    <glyph glyph-name="Gamma" unicode="&#x393;" horiz-adv-x="527" 
d="M645 706l-17 -76h-337l-146 -630h-88l163 706h425z" />
    <glyph glyph-name="Theta" unicode="&#x398;" horiz-adv-x="792" 
d="M594 328h-312l17 70h312zM96 308c0 231 147 412 381 412c211 0 316 -145 316 -322c0 -239 -171 -411 -386 -411c-193 0 -311 135 -311 321zM191 307c0 -137 82 -250 222 -250c188 0 287 176 287 346c0 175 -110 247 -223 247c-214 0 -286 -206 -286 -343z" />
    <glyph glyph-name="Lambda" unicode="&#x39b;" horiz-adv-x="657" 
d="M443 648l-343 -648h-95l399 706h108l80 -706h-91z" />
    <glyph glyph-name="Xi" unicode="&#x39e;" horiz-adv-x="645" 
d="M32 0l19 85h536l-19 -85h-536zM175 621l19 85h498l-19 -85h-498zM149 323l18 80h415l-18 -80h-415z" />
    <glyph glyph-name="Pi" unicode="&#x3a0;" horiz-adv-x="736" 
d="M771 706l-163 -706h-87l146 632h-376l-146 -632h-87l163 706h550z" />
    <glyph glyph-name="Sigma" unicode="&#x3a3;" horiz-adv-x="612" 
d="M539 0h-540l21 90l297 279l-174 258l17 79h484l-17 -79h-386l177 -264l-303 -286h442z" />
    <glyph glyph-name="Iotadieresis" unicode="&#x3aa;" horiz-adv-x="271" 
d="M306 706l-163 -706h-86l163 706h86zM446 880l-24 -103h-91l24 103h91zM252 880l-23 -103h-92l24 103h91z" />
    <glyph glyph-name="Alpha" unicode="&#x391;" horiz-adv-x="667" 
d="M607 0h-91l-25 222h-268l-128 -222h-95l409 706h108zM483 295l-35 353l-183 -353h218z" />
    <glyph glyph-name="Beta" unicode="&#x392;" horiz-adv-x="708" 
d="M220 706h274c152 0 212 -76 212 -164c0 -121 -101 -165 -173 -174c72 -1 141 -56 141 -149c0 -56 -37 -219 -262 -219h-355zM291 634l-53 -227h216c115 0 161 65 161 131c0 42 -25 96 -99 96h-225zM161 74h244c144 0 177 86 177 150c0 78 -67 109 -136 109h-225z" />
    <glyph glyph-name="Epsilon" unicode="&#x395;" horiz-adv-x="625" 
d="M678 706l-17 -75h-370l-54 -233h339l-16 -70h-339l-59 -253h420l-17 -75h-509l163 706h459z" />
    <glyph glyph-name="Zeta" unicode="&#x396;" horiz-adv-x="583" 
d="M646 706l-18 -79l-512 -550h450l-18 -77h-549l21 90l502 537h-383l18 79h489z" />
    <glyph glyph-name="Eta" unicode="&#x397;" horiz-adv-x="750" 
d="M785 706l-163 -706h-87l78 337h-390l-78 -337h-87l163 706h87l-68 -295h390l68 295h87z" />
    <glyph glyph-name="Iota" unicode="&#x399;" horiz-adv-x="271" 
d="M306 706l-163 -706h-86l163 706h86z" />
    <glyph glyph-name="Kappa" unicode="&#x39a;" horiz-adv-x="646" 
d="M766 706l-335 -267l194 -439h-96l-168 384l-158 -125l-60 -259h-85l163 706h85l-77 -332l419 332h118z" />
    <glyph glyph-name="Mu" unicode="&#x39c;" horiz-adv-x="833" 
d="M868 706l-163 -706h-84l153 600l-343 -600h-95l-67 611l-127 -611h-84l163 706h105l72 -632l366 632h104z" />
    <glyph glyph-name="Phi" unicode="&#x3a6;" horiz-adv-x="817" 
d="M575 706l-15 -65c170 -21 263 -115 263 -243c0 -155 -109 -328 -397 -335l-14 -63h-85l15 67c-202 27 -262 146 -262 247c0 126 84 324 395 330l14 62h86zM730 391c0 73 -35 159 -187 181l-100 -437c225 9 287 152 287 256zM175 319c0 -65 24 -157 184 -180l100 435
c-212 -6 -284 -144 -284 -255z" />
    <glyph glyph-name="Upsilondieresis" unicode="&#x3ab;" horiz-adv-x="583" 
d="M707 706l-359 -399l-70 -307h-89l73 317l-121 389h89l95 -319l276 319h106zM602 880l-24 -103h-91l24 103h91zM408 880l-23 -103h-92l24 103h91z" />
    <glyph glyph-name="Psi" unicode="&#x3a8;" horiz-adv-x="786" 
d="M854 706l-64 -279c-44 -193 -181 -259 -354 -266l-36 -161h-86l37 161c-129 7 -237 63 -237 204c0 24 3 49 9 74l62 267h87l-64 -277c-4 -17 -7 -35 -7 -56c2 -103 78 -133 167 -137l108 470h86l-108 -469c116 7 218 55 248 186l66 283h86z" />
    <glyph glyph-name="Nu" unicode="&#x39d;" horiz-adv-x="729" 
d="M763 706l-163 -706h-91l-234 613l-133 -613h-85l163 706h95l231 -611l133 611h84z" />
    <glyph glyph-name="Omicron" unicode="&#x39f;" horiz-adv-x="792" 
d="M96 308c0 231 147 412 381 412c211 0 316 -145 316 -322c0 -239 -171 -411 -386 -411c-193 0 -311 135 -311 321zM191 307c0 -137 82 -250 222 -250c188 0 287 176 287 346c0 175 -110 247 -223 247c-214 0 -286 -206 -286 -343z" />
    <glyph glyph-name="Rho" unicode="&#x3a1;" horiz-adv-x="646" 
d="M56 0l163 706h285c114 0 201 -59 201 -180c0 -130 -96 -225 -281 -225h-211l-69 -301h-88zM230 375h165c69 0 139 1 188 58c32 37 34 74 34 92c0 62 -40 106 -114 106h-213z" />
    <glyph glyph-name="Tau" unicode="&#x3a4;" 
d="M660 706l-17 -76h-216l-145 -630h-89l150 630h-218l17 76h518z" />
    <glyph glyph-name="Upsilon" unicode="&#x3a5;" horiz-adv-x="583" 
d="M707 706l-359 -399l-70 -307h-89l73 317l-121 389h89l95 -319l276 319h106z" />
    <glyph glyph-name="Chi" unicode="&#x3a7;" horiz-adv-x="583" 
d="M685 706l-296 -349l149 -357h-93l-120 294l-241 -294h-103l314 369l-138 337h91l109 -273l224 273h104z" />
    <glyph glyph-name="Alphatonos" unicode="&#x386;" horiz-adv-x="667" 
d="M607 0h-91l-25 222h-268l-128 -222h-95l409 706h108zM483 295l-35 353l-183 -353h218zM288 706l-143 -150h-61l87 150h117z" />
    <glyph glyph-name="Epsilontonos" unicode="&#x388;" horiz-adv-x="625" 
d="M678 706l-17 -75h-370l-54 -233h339l-16 -70h-339l-59 -253h420l-17 -75h-509l163 706h459zM158 706l-143 -150h-61l87 150h117z" />
    <glyph glyph-name="Etatonos" unicode="&#x389;" horiz-adv-x="750" 
d="M785 706l-163 -706h-87l78 337h-390l-78 -337h-87l163 706h87l-68 -295h390l68 295h87zM158 706l-143 -150h-61l87 150h117z" />
    <glyph glyph-name="Iotatonos" unicode="&#x38a;" horiz-adv-x="271" 
d="M306 706l-163 -706h-86l163 706h86zM158 706l-143 -150h-61l87 150h117z" />
    <glyph glyph-name="Omicrontonos" unicode="&#x38c;" horiz-adv-x="792" 
d="M96 308c0 231 147 412 381 412c211 0 316 -145 316 -322c0 -239 -171 -411 -386 -411c-193 0 -311 135 -311 321zM191 307c0 -137 82 -250 222 -250c188 0 287 176 287 346c0 175 -110 247 -223 247c-214 0 -286 -206 -286 -343zM178 706l-143 -150h-61l87 150h117z" />
    <glyph glyph-name="Upsilontonos" unicode="&#x38e;" horiz-adv-x="583" 
d="M707 706l-359 -399l-70 -307h-89l73 317l-121 389h89l95 -319l276 319h106zM118 706l-143 -150h-61l87 150h117z" />
    <glyph glyph-name="Omegatonos" unicode="&#x38f;" horiz-adv-x="784" 
d="M741 0h-296l16 69c149 79 227 184 227 353c0 140 -83 228 -213 228c-176 0 -296 -148 -296 -330c0 -110 49 -202 152 -251l-16 -69h-277l17 75h151c-69 47 -122 135 -122 253c0 232 180 392 389 392c189 0 308 -116 308 -293c0 -180 -83 -292 -190 -352h167zM178 706
l-143 -150h-61l87 150h117z" />
    <glyph glyph-name="alpha" unicode="&#x3b1;" horiz-adv-x="556" 
d="M144 186c0 -101 59 -131 105 -131c40 0 95 20 130 87c22 41 41 123 41 173c0 62 -42 103 -104 103c-97 0 -172 -101 -172 -232zM540 471l-82 -356c-2 -9 -4 -19 -4 -29c0 -20 13 -24 25 -24c8 0 15 1 31 7l-15 -65c-24 -6 -34 -7 -47 -7c-59 0 -74 32 -75 72
c-25 -35 -64 -78 -143 -78c-81 0 -168 56 -168 196c0 176 117 293 248 293c74 0 125 -32 134 -91l19 82h77z" />
    <glyph glyph-name="beta" unicode="&#x3b2;" horiz-adv-x="544" 
d="M284 355l13 68h9c64 0 163 43 163 148c0 47 -31 84 -99 84c-97 0 -126 -102 -140 -165l-57 -251c-5 -22 -10 -52 -10 -71c0 -51 19 -113 120 -113s160 88 160 184c0 72 -36 116 -136 116h-23zM522 237c0 -113 -75 -247 -237 -247c-87 0 -129 35 -149 91l-69 -296h-77
l162 702c34 147 93 228 220 228c120 0 171 -68 171 -139c0 -84 -61 -161 -151 -183c93 -18 130 -80 130 -156z" />
    <glyph glyph-name="psi" unicode="&#x3c8;" horiz-adv-x="667" 
d="M545 219l59 252h75l-62 -264c-41 -176 -149 -218 -278 -220l-47 -202h-77l47 203c-93 3 -188 44 -188 160c0 22 2 48 9 78l57 245h80l-58 -245c-6 -28 -11 -56 -11 -75c0 -76 64 -99 125 -102l134 583h77l-133 -584c85 4 160 38 191 171z" />
    <glyph glyph-name="delta" unicode="&#x3b4;" horiz-adv-x="539" 
d="M139 184c0 -75 44 -136 123 -136c87 0 177 96 177 229c0 69 -32 128 -118 128c-113 0 -182 -114 -182 -221zM525 582l-68 -14c-5 64 -47 86 -101 86c-56 0 -86 -27 -86 -69c0 -48 46 -78 103 -107c93 -47 146 -110 146 -205c0 -155 -111 -285 -262 -285
c-111 0 -198 74 -198 196c0 120 82 266 242 274c-75 31 -107 81 -107 128c0 95 85 129 162 129c102 0 160 -47 169 -133z" />
    <glyph glyph-name="epsilon" unicode="&#x3b5;" horiz-adv-x="487" 
d="M349 285l-13 -58h-74c-68 0 -141 -30 -141 -100c0 -45 27 -77 117 -77c59 0 124 21 160 91l73 -22c-56 -102 -135 -131 -237 -131c-115 0 -194 34 -194 123c0 79 64 139 144 147c-62 12 -86 50 -86 85c0 106 98 140 198 140c131 0 182 -58 191 -136l-76 -14
c-5 38 -17 89 -117 89c-70 0 -117 -23 -117 -79c0 -40 37 -58 98 -58h74z" />
    <glyph glyph-name="phi" unicode="&#x3c6;" horiz-adv-x="652" 
d="M280 -215h-77l48 209c-118 16 -189 89 -189 207c0 122 103 269 301 280l35 151h77l-36 -154c113 -15 193 -84 193 -207c0 -157 -141 -277 -305 -282zM552 284c0 77 -36 121 -126 138l-86 -374c114 6 212 101 212 236zM143 190c0 -60 29 -123 121 -140l85 372
c-167 -28 -206 -156 -206 -232z" />
    <glyph glyph-name="gamma" unicode="&#x3b3;" horiz-adv-x="463" 
d="M533 471l-295 -473l-48 -213h-77l49 217l-38 342c-6 54 -14 59 -43 59h-14l15 68h26c57 0 79 -10 86 -92l26 -289l227 381h86z" />
    <glyph glyph-name="eta" unicode="&#x3b7;" horiz-adv-x="532" 
d="M217 403c18 19 75 80 162 80c40 0 135 -23 135 -120c0 -24 -7 -56 -12 -79l-115 -499h-77l116 506c4 18 6 36 6 51c0 48 -22 78 -80 78c-108 0 -148 -76 -174 -188l-54 -232h-79l83 360c2 9 4 19 4 29c0 20 -13 24 -25 24c-8 0 -15 -1 -31 -7l15 65c24 6 37 7 50 7
c59 0 75 -33 76 -75z" />
    <glyph glyph-name="iota" unicode="&#x3b9;" horiz-adv-x="239" 
d="M223 471l-81 -356c-2 -9 -4 -19 -4 -29c0 -20 13 -24 25 -24c8 0 15 1 31 7l-15 -65c-21 -7 -42 -9 -55 -9c-50 0 -73 24 -73 63c0 9 1 19 4 30l89 383h79z" />
    <glyph glyph-name="xi" unicode="&#x3be;" horiz-adv-x="486" 
d="M265 380c-61 13 -90 52 -90 100c0 79 71 137 131 149h-106l16 67h350l-15 -67h-80c-114 0 -212 -42 -212 -145c0 -66 65 -73 117 -73h66l-15 -68h-72c-100 0 -219 -54 -219 -177c0 -80 72 -90 139 -100c55 -8 108 -22 108 -97c0 -72 -53 -122 -112 -173l-48 39
c45 36 84 73 84 113c0 34 -15 45 -61 50c-74 8 -190 28 -190 156c0 122 96 200 209 226z" />
    <glyph glyph-name="kappa" unicode="&#x3ba;" horiz-adv-x="502" 
d="M414 361l-104 -85l174 -276h-89l-148 230l-91 -74l-37 -156h-78l109 471h78l-53 -225l240 197c19 16 39 28 64 28h43l-16 -68h-22c-21 0 -30 -10 -70 -42z" />
    <glyph glyph-name="lambda" unicode="&#x3bb;" horiz-adv-x="487" 
d="M472 69l-15 -65c-19 -7 -35 -9 -50 -9c-32 0 -57 16 -64 82l-29 296l-227 -373h-87c99 158 203 317 303 476l-9 94c-5 54 -12 79 -47 79c-17 0 -34 -2 -63 -16l15 64c11 6 36 18 69 18c69 0 83 -45 93 -139l49 -461c4 -33 6 -53 31 -53c8 0 15 1 31 7z" />
    <glyph glyph-name="nu" unicode="&#x3bd;" horiz-adv-x="434" 
d="M423 321l-196 -321h-85l-46 471h74l32 -389s161 273 176 300c19 34 22 51 22 89h74c0 -67 -11 -86 -51 -150z" />
    <glyph glyph-name="omicron" unicode="&#x3bf;" 
d="M62 195c0 131 84 288 264 288c125 0 196 -94 196 -210c0 -137 -94 -285 -262 -285c-127 0 -198 91 -198 207zM142 189c0 -106 63 -141 118 -141c109 0 182 118 182 235c0 123 -83 139 -115 139c-123 0 -185 -126 -185 -233z" />
    <glyph glyph-name="rho" unicode="&#x3c1;" horiz-adv-x="544" 
d="M341 483c123 0 183 -90 183 -199c0 -163 -104 -296 -244 -296c-65 0 -120 31 -141 99c0 0 -48 -204 -70 -302h-78l111 482c28 121 105 216 239 216zM163 181c0 -74 49 -133 111 -133c105 0 171 123 171 239c0 75 -36 135 -114 135c-107 0 -168 -129 -168 -241z" />
    <glyph glyph-name="sigma" unicode="&#x3c3;" horiz-adv-x="572" 
d="M519 269c0 -143 -108 -281 -261 -281c-117 0 -196 79 -196 202c0 145 101 281 264 281h256l-15 -68h-116c47 -27 68 -81 68 -134zM440 277c0 99 -57 128 -121 128c-110 0 -179 -100 -179 -215c0 -84 46 -142 123 -142c99 0 177 108 177 229z" />
    <glyph glyph-name="tau" unicode="&#x3c4;" horiz-adv-x="389" 
d="M147 137c16 73 46 193 63 266h-76c-14 0 -59 -6 -84 -19l17 68c40 19 73 19 114 19h268l-16 -68h-149c-20 -85 -37 -161 -56 -246c-6 -28 -13 -54 -13 -65c0 -24 13 -30 35 -30c16 0 31 4 54 8l-14 -59c-13 -6 -42 -14 -76 -14c-44 0 -78 19 -78 67c0 17 3 37 11 73z" />
    <glyph glyph-name="theta" unicode="&#x3b8;" horiz-adv-x="528" 
d="M254 -12c-125 0 -174 81 -174 212c0 151 46 515 292 515c137 0 174 -108 174 -217c0 -215 -75 -510 -292 -510zM459 399c4 29 8 62 8 103c0 79 -19 152 -103 152c-114 0 -163 -153 -184 -255h279zM450 341h-280c-7 -40 -13 -86 -13 -129c0 -91 25 -164 103 -164
c112 0 166 154 190 293z" />
    <glyph glyph-name="omega" unicode="&#x3c9;" horiz-adv-x="683" 
d="M449 -12c-55 0 -110 30 -112 95c-30 -66 -89 -95 -145 -95c-93 0 -127 60 -127 140c0 110 42 214 81 268c47 66 107 87 176 87l-15 -63c-75 0 -162 -118 -162 -302c0 -42 14 -70 57 -70c116 0 130 183 151 275h77c-15 -68 -40 -149 -40 -207c0 -39 17 -71 59 -71
c113 0 146 227 146 283c0 72 -34 89 -78 92c5 21 9 42 15 63c82 -5 141 -46 141 -159c0 -94 -46 -336 -224 -336z" />
    <glyph glyph-name="sigma1" unicode="&#x3c2;" horiz-adv-x="468" 
d="M62 185c0 158 105 298 255 298c90 0 184 -47 191 -143l-74 -17c-8 32 -31 96 -118 96c-137 0 -174 -159 -174 -226c0 -73 34 -109 130 -132c53 -12 115 -29 115 -92c0 -72 -53 -122 -112 -173l-48 39c45 36 84 73 84 113c0 34 -25 40 -70 51c-111 26 -179 82 -179 186z
" />
    <glyph glyph-name="chi" unicode="&#x3c7;" horiz-adv-x="497" 
d="M75 406l15 65c24 6 37 7 50 7c55 0 64 -27 75 -74l47 -202l193 269h92l-265 -344l67 -228c11 -39 20 -52 44 -52c8 0 15 1 31 7l-15 -65c-19 -7 -38 -9 -53 -9c-48 0 -65 37 -75 75l-52 206l-207 -276h-92l280 350l-62 229c-8 30 -13 49 -36 49c-8 0 -21 -1 -37 -7z" />
    <glyph glyph-name="upsilon" unicode="&#x3c5;" horiz-adv-x="523" 
d="M224 471l-64 -268c-5 -22 -9 -45 -9 -63c0 -59 29 -92 95 -92c76 0 129 55 147 135l67 288h75l-67 -285c-27 -115 -86 -198 -231 -198c-90 0 -163 48 -163 151c0 19 4 45 8 65l62 267h80z" />
    <glyph glyph-name="zeta" unicode="&#x3b6;" horiz-adv-x="436" 
d="M211 -163c45 36 84 73 84 113c0 34 -20 44 -66 50c-84 11 -174 42 -174 150c0 179 188 382 380 478h-257l16 68h352l-17 -76c-170 -86 -394 -259 -394 -460c0 -74 66 -86 123 -95c55 -9 113 -19 113 -94c0 -72 -53 -122 -112 -173z" />
    <glyph glyph-name="alphatonos" unicode="&#x3ac;" horiz-adv-x="556" 
d="M144 186c0 -101 59 -131 105 -131c40 0 95 20 130 87c22 41 41 123 41 173c0 62 -42 103 -104 103c-97 0 -172 -101 -172 -232zM540 471l-82 -356c-2 -9 -4 -19 -4 -29c0 -20 13 -24 25 -24c8 0 15 1 31 7l-15 -65c-24 -6 -34 -7 -47 -7c-59 0 -74 32 -75 72
c-25 -35 -64 -78 -143 -78c-81 0 -168 56 -168 196c0 176 117 293 248 293c74 0 125 -32 134 -91l19 82h77zM523 683l-143 -150h-61l87 150h117z" />
    <glyph glyph-name="upsilontonos" unicode="&#x3cd;" horiz-adv-x="523" 
d="M224 471l-64 -268c-5 -22 -9 -45 -9 -63c0 -59 29 -92 95 -92c76 0 129 55 147 135l67 288h75l-67 -285c-27 -115 -86 -198 -231 -198c-90 0 -163 48 -163 151c0 19 4 45 8 65l62 267h80zM512 683l-143 -150h-61l87 150h117z" />
    <glyph glyph-name="epsilontonos" unicode="&#x3ad;" horiz-adv-x="487" 
d="M349 285l-13 -58h-74c-68 0 -141 -30 -141 -100c0 -45 27 -77 117 -77c59 0 124 21 160 91l73 -22c-56 -102 -135 -131 -237 -131c-115 0 -194 34 -194 123c0 79 64 139 144 147c-62 12 -86 50 -86 85c0 106 98 140 198 140c131 0 182 -58 191 -136l-76 -14
c-5 38 -17 89 -117 89c-70 0 -117 -23 -117 -79c0 -40 37 -58 98 -58h74zM490 683l-143 -150h-61l87 150h117z" />
    <glyph glyph-name="etatonos" unicode="&#x3ae;" horiz-adv-x="532" 
d="M217 403c18 19 75 80 162 80c40 0 135 -23 135 -120c0 -24 -7 -56 -12 -79l-115 -499h-77l116 506c4 18 6 36 6 51c0 48 -22 78 -80 78c-108 0 -148 -76 -174 -188l-54 -232h-79l83 360c2 9 4 19 4 29c0 20 -13 24 -25 24c-8 0 -15 -1 -31 -7l15 65c24 6 37 7 50 7
c59 0 75 -33 76 -75zM533 683l-143 -150h-61l87 150h117z" />
    <glyph glyph-name="iotatonos" unicode="&#x3af;" horiz-adv-x="239" 
d="M223 471l-81 -356c-2 -9 -4 -19 -4 -29c0 -20 13 -24 25 -24c8 0 15 1 31 7l-15 -65c-21 -7 -42 -9 -55 -9c-50 0 -73 24 -73 63c0 9 1 19 4 30l89 383h79zM367 683l-143 -150h-61l87 150h117z" />
    <glyph glyph-name="omicrontonos" unicode="&#x3cc;" 
d="M62 195c0 131 84 288 264 288c125 0 196 -94 196 -210c0 -137 -94 -285 -262 -285c-127 0 -198 91 -198 207zM142 189c0 -106 63 -141 118 -141c109 0 182 118 182 235c0 123 -83 139 -115 139c-123 0 -185 -126 -185 -233zM519 683l-143 -150h-61l87 150h117z" />
    <glyph glyph-name="upsilondieresistonos" unicode="&#x3b0;" horiz-adv-x="523" 
d="M224 471l-64 -268c-5 -22 -9 -45 -9 -63c0 -59 29 -92 95 -92c76 0 129 55 147 135l67 288h75l-67 -285c-27 -115 -86 -198 -231 -198c-90 0 -163 48 -163 151c0 19 4 45 8 65l62 267h80zM454 694l-84 -142h-71l50 142h105zM563 653l-23 -101h-91l23 101h91zM281 653
l-23 -101h-91l23 101h91z" />
    <glyph glyph-name="iotadieresistonos" unicode="&#x390;" horiz-adv-x="239" 
d="M223 471l-81 -356c-2 -9 -4 -19 -4 -29c0 -20 13 -24 25 -24c8 0 15 1 31 7l-15 -65c-21 -7 -42 -9 -55 -9c-50 0 -73 24 -73 63c0 9 1 19 4 30l89 383h79zM308 694l-84 -142h-71l50 142h105zM417 653l-23 -101h-91l23 101h91zM135 653l-23 -101h-91l23 101h91z" />
    <glyph glyph-name="upsilondieresis" unicode="&#x3cb;" horiz-adv-x="523" 
d="M224 471l-64 -268c-5 -22 -9 -45 -9 -63c0 -59 29 -92 95 -92c76 0 129 55 147 135l67 288h75l-67 -285c-27 -115 -86 -198 -231 -198c-90 0 -163 48 -163 151c0 19 4 45 8 65l62 267h80zM520 653l-23 -101h-91l23 101h91zM326 653l-23 -101h-91l23 101h91z" />
    <glyph glyph-name="iotadieresis" unicode="&#x3ca;" horiz-adv-x="239" 
d="M223 471l-81 -356c-2 -9 -4 -19 -4 -29c0 -20 13 -24 25 -24c8 0 15 1 31 7l-15 -65c-21 -7 -42 -9 -55 -9c-50 0 -73 24 -73 63c0 9 1 19 4 30l89 383h79zM378 653l-23 -101h-91l23 101h91zM184 653l-23 -101h-91l23 101h91z" />
    <glyph glyph-name="omegatonos" unicode="&#x3ce;" horiz-adv-x="683" 
d="M449 -12c-55 0 -110 30 -112 95c-30 -66 -89 -95 -145 -95c-93 0 -127 60 -127 140c0 110 42 214 81 268c47 66 107 87 176 87l-15 -63c-75 0 -162 -118 -162 -302c0 -42 14 -70 57 -70c116 0 130 183 151 275h77c-15 -68 -40 -149 -40 -207c0 -39 17 -71 59 -71
c113 0 146 227 146 283c0 72 -34 89 -78 92c5 21 9 42 15 63c82 -5 141 -46 141 -159c0 -94 -46 -336 -224 -336zM600 683l-143 -150h-61l87 150h117z" />
    <glyph glyph-name="Imacron" horiz-adv-x="271" 
d="M306 706l-163 -706h-86l163 706h86zM413 849l-14 -67h-248l14 67h248z" />
    <glyph glyph-name="ibreve" horiz-adv-x="229" 
d="M228 471l-109 -471h-77l108 471h78zM294 668h74c-15 -42 -63 -130 -169 -130c-68 0 -127 34 -127 114v16h72c-1 -8 -2 -14 -2 -22c0 -35 28 -52 58 -52c25 0 68 11 94 74z" />
    <glyph glyph-name="cyrbreve" horiz-adv-x="292" 
d="M339 684l62 -10c-28 -74 -98 -120 -173 -120c-82 0 -125 46 -125 120l66 10c0 -53 34 -66 69 -66s80 13 101 66z" />
    <glyph glyph-name="afii00208" unicode="&#x2015;" horiz-adv-x="895" 
d="M893 338l-18 -76h-805l18 76h805z" />
    <glyph glyph-name="phi.salt" horiz-adv-x="670" 
d="M287 -215h-77l47 204c-158 12 -195 112 -195 200c0 143 83 277 237 293l6 -62c-116 -11 -163 -141 -163 -232c0 -60 21 -137 129 -140l61 265c20 87 62 170 168 170c96 0 150 -67 150 -173c0 -152 -88 -313 -315 -321zM410 311l-61 -263c179 19 222 166 222 265
c0 49 -15 109 -71 109c-60 0 -78 -56 -90 -111z" />
    <glyph glyph-name="xi.salt" horiz-adv-x="496" 
d="M444 428l-15 -68h-72c-100 0 -222 -71 -222 -194c0 -80 72 -90 139 -100c55 -8 108 -22 108 -97c0 -72 -53 -122 -112 -173l-48 39c45 36 84 73 84 113c0 34 -15 45 -61 50c-74 8 -190 28 -190 156c0 127 107 223 226 246c-73 12 -111 71 -111 126c0 139 122 187 213 187
c96 0 165 -41 173 -132l-70 -15c-6 65 -49 86 -102 86c-55 0 -136 -31 -136 -122c0 -77 71 -102 130 -102h66z" />
    <glyph glyph-name="uniF6C3" unicode="&#xf6c3;" horiz-adv-x="292" 
d="M118 -38h80c-20 -85 -34 -108 -66 -150h-39c17 22 33 53 41 80h-32z" />
    <glyph glyph-name="anoteleia" unicode="&#x387;" horiz-adv-x="200" 
d="M191 352l-27 -124h-102l28 124h101z" />
    <glyph glyph-name="beta.salt" horiz-adv-x="563" 
d="M288 355l13 68h9c64 0 163 43 163 148c0 47 -31 84 -99 84c-97 0 -126 -102 -140 -165l-57 -251c-5 -22 -10 -52 -10 -71c0 -51 19 -113 120 -113s160 88 160 184c0 72 -36 116 -136 116h-23zM526 237c0 -113 -75 -247 -237 -247c-87 0 -129 35 -149 91l-19 -81h-77
l112 487c34 147 93 228 220 228c120 0 171 -68 171 -139c0 -84 -61 -161 -151 -183c93 -18 130 -80 130 -156z" />
    <glyph glyph-name="gamma.salt" horiz-adv-x="460" 
d="M518 471l-295 -473l-48 -213h-77l49 217l-51 469h75l34 -381l227 381h86z" />
    <glyph glyph-name="eta.salt" 
d="M150 471h79l-16 -68c18 19 75 80 162 80c40 0 135 -23 135 -120c0 -24 -6 -56 -11 -79l-66 -284h-78l67 291c6 24 7 36 7 54c0 50 -34 75 -81 75c-108 0 -148 -76 -174 -188l-54 -232h-79z" />
    <glyph glyph-name="etatonos.salt" 
d="M150 471h79l-16 -68c18 19 75 80 162 80c40 0 135 -23 135 -120c0 -24 -6 -56 -11 -79l-66 -284h-78l67 291c6 24 7 36 7 54c0 50 -34 75 -81 75c-108 0 -148 -76 -174 -188l-54 -232h-79zM532 683l-143 -150h-61l87 150h117z" />
    <glyph glyph-name="iota.salt" horiz-adv-x="229" 
d="M229 471l-108 -471h-80l109 471h79z" />
    <glyph glyph-name="iotatonos.salt" horiz-adv-x="229" 
d="M229 471l-108 -471h-80l109 471h79zM379 683l-143 -150h-61l87 150h117z" />
    <glyph glyph-name="iotadieresis.salt" horiz-adv-x="229" 
d="M229 471l-108 -471h-80l109 471h79zM374 653l-23 -101h-91l23 101h91zM180 653l-23 -101h-91l23 101h91z" />
    <glyph glyph-name="iotadieresistonos.salt" horiz-adv-x="229" 
d="M229 471l-108 -471h-80l109 471h79zM316 694l-84 -142h-71l50 142h105zM425 653l-23 -101h-91l23 101h91zM143 653l-23 -101h-91l23 101h91z" />
    <glyph glyph-name="kappa.salt" horiz-adv-x="471" 
d="M536 471l-242 -190l180 -281h-96l-145 231l-74 -57l-40 -174h-78l109 471h78l-46 -196l249 196h105z" />
    <glyph glyph-name="lambda.salt" horiz-adv-x="415" 
d="M400 0h-72l-35 373l-228 -373h-87c99 158 203 317 303 476l-9 94c-5 54 -12 79 -47 79c-17 0 -34 -2 -63 -16l15 64c11 6 36 18 69 18c69 0 83 -45 93 -139z" />
    </font>
</defs>
</svg>
