<?xml version="1.0" standalone="no"?>
<!DOCTYPE svg PUBLIC "-//W3C//DTD SVG 1.1//EN" "http://www.w3.org/Graphics/SVG/1.1/DTD/svg11.dtd" >
<svg xmlns="http://www.w3.org/2000/svg" xmlns:xlink="http://www.w3.org/1999/xlink" version="1.1">
<metadata>
Created by FontForge 20141024 at Fri Mar 20 10:10:18 2015
 By System Administrator
Berthold first published Akzidenz-Grotesk in 1896. The design originates from Royal Grotesk light by Ferdinand Theinhardt who also supplied the regular, medium and bold weights. Throughout the years, Berthold has expanded this extremely popular and versatile family. AG Super was developed in 1968 by Guenter Gerhard Lange and is an excellent choice for headlines. In 2001, Guenter Gerhard Lange added more weights for Berthold including Super Italic and Extra Bold italic.
</metadata>
<defs>
<font id="AkzidenzGroteskPro-Md" horiz-adv-x="562" >
  <font-face 
    font-family="Akzidenz-Grotesk Pro Med"
    font-weight="500"
    font-stretch="normal"
    units-per-em="1000"
    panose-1="2 0 6 3 3 0 0 2 0 4"
    ascent="750"
    descent="-250"
    x-height="500"
    cap-height="706"
    bbox="-204 -265 1226 998"
    underline-thickness="50"
    underline-position="-50"
    stemh="108"
    stemv="119"
    unicode-range="U+0020-FB02"
  />
<missing-glyph horiz-adv-x="500" 
d="M0 0v706h500v-706h-500zM250 401l170 255h-340zM280 353l170 -258v516zM80 50h340l-170 258zM50 611v-516l170 258z" />
    <glyph glyph-name="fi" unicode="fi" horiz-adv-x="563" 
d="M497 578h-119v121h119v-121zM497 0h-119v500h119v-500zM308 415h-109v-415h-120v415h-75v85h75v69c0 87 26 138 161 138c23 0 45 -2 68 -5v-102c-3 1 -23 3 -38 3c-69 0 -71 -38 -71 -69v-34h109v-85z" />
    <glyph glyph-name="fl" unicode="fl" horiz-adv-x="563" 
d="M500 0h-122v706h122v-706zM308 415h-109v-415h-120v415h-75v85h75v69c0 87 26 138 161 138c23 0 45 -2 68 -5v-102c-3 1 -23 3 -38 3c-69 0 -71 -38 -71 -69v-34h109v-85z" />
    <glyph glyph-name=".notdef" horiz-adv-x="500" 
d="M0 0v706h500v-706h-500zM250 401l170 255h-340zM280 353l170 -258v516zM80 50h340l-170 258zM50 611v-516l170 258z" />
    <glyph glyph-name="space" unicode=" " horiz-adv-x="288" 
 />
    <glyph glyph-name="exclam" unicode="!" horiz-adv-x="250" 
d="M80 706h131v-270l-38 -260h-56l-37 260v270zM211 0h-131v138h131v-138z" />
    <glyph glyph-name="quotedbl" unicode="&#x22;" horiz-adv-x="332" 
d="M297 743l-31 -299h-34l-32 299h97zM131 743l-30 -299h-35l-31 299h96z" />
    <glyph glyph-name="numbersign" unicode="#" horiz-adv-x="667" 
d="M623 408h-131l-14 -94h123v-100h-135l-31 -214h-101l31 214h-99l-30 -214h-102l30 214h-122v100h135l13 94h-126v100h139l27 198h104l-28 -198h98l27 198h101l-27 -198h118v-100zM391 408h-99l-14 -94h100z" />
    <glyph glyph-name="dollar" unicode="$" horiz-adv-x="625" 
d="M574 588l-95 -75c-44 56 -85 66 -121 75v-160c15 -2 100 -15 156 -57c69 -51 72 -121 72 -152c0 -137 -109 -208 -228 -219v-114h-92v114c-108 20 -155 40 -231 133l101 77c15 -22 70 -84 130 -90v191c-99 11 -154 42 -183 83c-11 17 -29 53 -29 97c0 21 4 77 43 124
c26 31 76 72 169 82v108h92v-108c120 -11 186 -75 216 -109zM266 444v144c-23 -4 -81 -21 -81 -77c0 -32 16 -55 81 -67zM358 297v-179c28 5 96 27 96 94c0 66 -77 81 -96 85z" />
    <glyph glyph-name="percent" unicode="%" horiz-adv-x="875" 
d="M621 646l-314 -683l-69 31l315 684zM25 453c0 171 78 228 166 228c89 0 161 -62 161 -225c0 -115 -36 -231 -165 -231c-75 0 -162 43 -162 228zM116 446c0 -101 24 -143 73 -143c47 0 72 39 72 147c0 88 -14 155 -72 155c-68 0 -73 -92 -73 -159zM524 221
c0 171 78 228 166 228c89 0 161 -62 161 -225c0 -115 -36 -231 -165 -231c-75 0 -162 43 -162 228zM615 214c0 -101 24 -143 73 -143c47 0 72 39 72 147c0 88 -14 155 -72 155c-68 0 -73 -92 -73 -159z" />
    <glyph glyph-name="ampersand" unicode="&#x26;" horiz-adv-x="646" 
d="M488 328h115c-1 -10 -3 -28 -6 -38c-5 -21 -27 -101 -75 -161c22 -23 37 -31 70 -31c4 0 13 0 22 2v-100c-21 -2 -28 -3 -49 -3c-73 0 -100 18 -129 40c-30 -20 -80 -52 -169 -52c-121 0 -224 69 -224 199c0 110 80 161 153 210c-12 19 -30 50 -30 104
c0 81 51 164 163 164c96 0 163 -68 163 -150c0 -47 -27 -124 -133 -161c28 -46 60 -92 92 -134c33 47 34 87 37 111zM309 440c31 9 78 27 78 75c0 32 -24 53 -55 53c-30 0 -53 -21 -53 -51c0 -22 6 -42 30 -77zM371 127l-121 177c-71 -36 -86 -81 -86 -112
c0 -47 37 -103 110 -103c20 0 58 5 97 38z" />
    <glyph glyph-name="quotesingle" unicode="'" horiz-adv-x="166" 
d="M131 743l-30 -299h-35l-31 299h96z" />
    <glyph glyph-name="parenleft" unicode="(" horiz-adv-x="326" 
d="M333 -105l-44 -59c-55 40 -101 86 -138 133c-77 99 -116 218 -116 347c0 123 38 245 106 339c40 54 81 98 144 145l46 -51c-41 -42 -54 -57 -76 -87c-63 -89 -97 -207 -97 -335c0 -179 66 -342 175 -432z" />
    <glyph glyph-name="parenright" unicode=")" horiz-adv-x="328" 
d="M-1 741l44 59c58 -44 100 -85 137 -133c76 -100 116 -217 116 -347c0 -121 -38 -242 -107 -339c-38 -54 -79 -95 -144 -145l-46 51c41 42 55 57 76 87c63 89 98 207 98 336c0 179 -65 340 -174 431z" />
    <glyph glyph-name="asterisk" unicode="*" horiz-adv-x="378" 
d="M358 557l-98 -34l60 -79l-68 -53l-64 83l-58 -83l-70 51l56 80l-96 28l25 83l98 -28v103h87v-104l100 34z" />
    <glyph glyph-name="plus" unicode="+" horiz-adv-x="724" 
d="M631 260h-204v-216h-130v216h-204v107h204v213h130v-213h204v-107z" />
    <glyph glyph-name="comma" unicode="," horiz-adv-x="208" 
d="M170 137v-154c0 -76 -53 -108 -125 -122v58c46 5 54 42 54 81h-62v137h133z" />
    <glyph glyph-name="hyphen" unicode="-" horiz-adv-x="372" 
d="M330 247h-289v113h289v-113z" />
    <glyph glyph-name="period" unicode="." horiz-adv-x="208" 
d="M169 0h-132v137h132v-137z" />
    <glyph glyph-name="slash" unicode="/" horiz-adv-x="479" 
d="M467 706l-335 -706h-119l335 706h119z" />
    <glyph glyph-name="zero" unicode="0" 
d="M529 340c0 -277 -130 -349 -248 -349c-235 0 -245 239 -245 350c0 247 106 345 251 345c127 0 242 -88 242 -346zM165 334c0 -75 0 -232 118 -232c96 0 116 96 116 236c0 97 -4 237 -114 237c-101 0 -120 -115 -120 -241z" />
    <glyph glyph-name="one" unicode="1" 
d="M363 0h-123v415c0 46 -22 54 -49 54h-116v77h13c43 0 80 1 117 28c36 26 48 60 58 101h100v-675z" />
    <glyph glyph-name="two" unicode="2" 
d="M57 0v98c116 83 200 167 236 207c16 18 73 80 73 165c0 55 -29 101 -89 101c-92 0 -95 -92 -95 -144v-13l-125 12v5c0 85 26 140 48 170c22 31 81 85 183 85c80 0 130 -34 153 -55c44 -39 63 -99 63 -157c0 -20 -2 -62 -26 -112c-40 -84 -118 -143 -186 -201
c-24 -20 -47 -40 -72 -57h296v-104h-459z" />
    <glyph glyph-name="three" unicode="3" 
d="M239 305v105h43c30 0 60 3 79 31c14 20 14 41 14 48c0 50 -35 86 -86 86c-18 0 -94 -5 -97 -113l-132 28c5 47 48 196 233 196c59 0 215 -27 215 -179c0 -27 -5 -117 -112 -145c60 -12 128 -58 128 -163c0 -138 -115 -208 -242 -208c-19 0 -117 2 -175 61
c-60 60 -60 148 -60 169h133c-1 -3 -2 -13 -2 -23c0 -14 7 -98 106 -98c75 0 106 56 106 107c0 10 -1 36 -18 60c-22 32 -57 38 -93 38h-40z" />
    <glyph glyph-name="four" unicode="4" 
d="M523 155h-87v-155h-123v155h-296v88l296 432h123v-417h87v-103zM146 258h167c0 15 7 268 7 268z" />
    <glyph glyph-name="five" unicode="5" 
d="M480 677l-10 -113h-262l-23 -149c33 42 109 50 130 50c29 0 94 -4 147 -63c41 -45 57 -101 57 -161c0 -91 -35 -142 -60 -170c-68 -77 -157 -80 -192 -80c-21 0 -96 1 -155 46c-51 40 -71 93 -75 152l139 9c2 -58 38 -99 97 -99c85 0 110 77 110 136
c0 48 -23 127 -112 127c-18 0 -79 -5 -101 -63l-112 7l47 371h375z" />
    <glyph glyph-name="six" unicode="6" 
d="M505 517l-128 -17c0 49 -38 76 -79 76c-27 0 -71 -11 -95 -70c-15 -36 -23 -102 -24 -139c26 38 76 68 142 68c97 0 192 -70 192 -210c0 -124 -82 -234 -227 -234c-155 0 -238 119 -238 327c0 22 0 150 46 242c60 119 168 126 204 126c24 0 90 -3 145 -50
c49 -42 58 -95 62 -119zM387 213c0 63 -36 109 -96 109c-66 0 -101 -50 -101 -110c0 -76 42 -109 98 -109c19 0 99 3 99 110z" />
    <glyph glyph-name="seven" unicode="7" 
d="M64 677h448v-110c-24 -29 -46 -60 -67 -92c-57 -89 -90 -165 -120 -265c-20 -69 -34 -139 -40 -210h-165c38 287 191 474 249 559h-305v118z" />
    <glyph glyph-name="eight" unicode="8" 
d="M427 354c51 -28 104 -72 104 -159c0 -118 -100 -204 -252 -204c-86 0 -250 39 -250 203c0 83 50 134 111 160c-37 16 -87 63 -87 146c0 112 96 186 233 186c139 0 229 -76 229 -191c0 -92 -58 -126 -88 -141zM384 485c0 50 -30 91 -101 91c-47 0 -102 -18 -102 -91
c0 -65 49 -88 103 -88c79 0 100 48 100 88zM397 199c0 69 -55 98 -113 98c-68 0 -114 -37 -114 -99s47 -95 115 -95c60 0 112 30 112 96z" />
    <glyph glyph-name="nine" unicode="9" 
d="M50 162l137 19c6 -39 24 -79 82 -79c89 0 110 125 110 193v5c-30 -42 -85 -59 -135 -59c-123 0 -194 85 -194 212c0 124 79 233 229 233c172 0 238 -144 238 -317c0 -174 -56 -378 -264 -378c-97 0 -186 56 -203 171zM180 465c0 -60 28 -116 95 -116c63 0 94 45 94 117
c0 70 -42 111 -95 111c-65 0 -94 -59 -94 -112z" />
    <glyph glyph-name="colon" unicode=":" horiz-adv-x="250" 
d="M210 371h-132v138h132v-138zM210 0h-132v137h132v-137z" />
    <glyph glyph-name="semicolon" unicode=";" horiz-adv-x="250" 
d="M211 371h-133v138h133v-138zM78 137h133v-146c0 -85 -48 -112 -126 -131v60c41 5 55 32 55 70v10h-62v137z" />
    <glyph glyph-name="less" unicode="&#x3c;" horiz-adv-x="724" 
d="M578 28l-465 229v123l465 228v-124l-346 -162l346 -164v-130z" />
    <glyph glyph-name="equal" unicode="=" horiz-adv-x="724" 
d="M625 351h-526v107h526v-107zM625 148h-526v107h526v-107z" />
    <glyph glyph-name="greater" unicode="&#x3e;" horiz-adv-x="724" 
d="M608 255l-465 -228v124l346 162l-347 164v130l466 -229v-123z" />
    <glyph glyph-name="question" unicode="?" 
d="M357 182h-117v25c0 42 3 113 28 148c41 59 129 68 129 154c0 56 -52 95 -105 95c-77 0 -118 -59 -118 -131l-121 14c3 32 7 63 19 93c38 97 127 138 227 138c124 0 236 -74 236 -209c0 -81 -40 -130 -112 -180c-55 -38 -66 -53 -66 -119v-28zM366 0h-133v137h133v-137z
" />
    <glyph glyph-name="at" unicode="@" horiz-adv-x="896" 
d="M573 499h79l-33 -154c-10 -45 -28 -125 -28 -168c0 -16 5 -37 25 -37c21 0 39 18 52 32c57 61 88 169 88 247c0 145 -95 226 -234 226c-218 0 -384 -199 -384 -409c0 -188 136 -293 316 -293c124 0 242 58 329 146l40 -51c-99 -100 -227 -162 -369 -162
c-53 0 -111 10 -161 30c-148 58 -224 172 -224 329c0 257 197 477 460 477c176 0 298 -111 298 -291c0 -164 -102 -352 -234 -352c-49 0 -81 26 -87 77c-34 -43 -77 -77 -135 -77c-93 0 -135 81 -135 165c0 119 78 286 215 286c52 0 87 -27 110 -72zM532 349
c0 45 -23 95 -75 95c-89 0 -130 -132 -130 -205c0 -38 15 -93 71 -93c88 0 134 129 134 203z" />
    <glyph glyph-name="A" unicode="A" horiz-adv-x="646" 
d="M636 0h-141l-41 138h-265l-41 -138h-142l239 706h150zM419 254l-97 325l-98 -325h195z" />
    <glyph glyph-name="B" unicode="B" horiz-adv-x="688" 
d="M80 706h316c148 0 214 -82 214 -173c0 -58 -32 -134 -117 -146c65 -12 150 -65 150 -187c0 -96 -56 -200 -238 -200h-325v706zM211 598v-176h133c59 0 130 19 130 89c0 72 -73 87 -126 87h-137zM211 323v-209h174c90 0 123 46 123 98c0 99 -95 111 -150 111h-147z" />
    <glyph glyph-name="C" unicode="C" horiz-adv-x="688" 
d="M547 249l125 -52c-23 -60 -102 -215 -305 -215c-167 0 -330 114 -330 378c0 157 89 364 335 364c182 0 257 -117 287 -218l-131 -34c-8 77 -73 131 -151 131c-115 0 -197 -88 -197 -245c0 -96 39 -251 196 -251c91 0 150 70 171 142z" />
    <glyph glyph-name="D" unicode="D" horiz-adv-x="708" 
d="M71 706h275c167 0 323 -106 323 -359c0 -226 -123 -347 -331 -347h-267v706zM203 587v-468h82c153 0 244 29 244 228c0 174 -86 240 -217 240h-109z" />
    <glyph glyph-name="E" unicode="E" horiz-adv-x="625" 
d="M605 0h-527v706h502v-118h-372v-166h341v-114h-341v-189h397v-119z" />
    <glyph glyph-name="F" unicode="F" 
d="M548 588h-336v-176h295v-113h-295v-299h-131v706h467v-118z" />
    <glyph glyph-name="G" unicode="G" horiz-adv-x="750" 
d="M685 0h-114v60c-57 -53 -115 -78 -194 -78c-169 0 -331 124 -331 364c0 166 103 378 342 378c151 0 255 -96 297 -208l-126 -50c-12 34 -49 139 -172 139c-119 0 -197 -99 -197 -255c0 -30 7 -243 200 -243c92 0 160 53 174 163h-176v116h297v-386z" />
    <glyph glyph-name="H" unicode="H" horiz-adv-x="729" 
d="M649 0h-133v321h-303v-321h-133v706h133v-266h303v266h133v-706z" />
    <glyph glyph-name="I" unicode="I" horiz-adv-x="292" 
d="M210 0h-130v706h130v-706z" />
    <glyph glyph-name="J" unicode="J" horiz-adv-x="396" 
d="M202 706h130v-536c0 -53 -21 -185 -224 -185c-17 0 -43 0 -82 9v130c36 -8 50 -10 70 -10c102 0 106 68 106 121v471z" />
    <glyph glyph-name="K" unicode="K" horiz-adv-x="667" 
d="M665 0h-151l-188 332l-115 -132v-200h-131v706h131v-324l283 324h155l-231 -266z" />
    <glyph glyph-name="L" unicode="L" horiz-adv-x="521" 
d="M495 0h-413v706h133v-586h280v-120z" />
    <glyph glyph-name="M" unicode="M" horiz-adv-x="812" 
d="M733 0h-129c0 17 13 580 13 580l-153 -580h-119l-153 580s13 -557 13 -580h-129v706h192l138 -524l136 524h191v-706z" />
    <glyph glyph-name="N" unicode="N" horiz-adv-x="708" 
d="M628 0h-116l-309 495s8 -482 8 -495h-129v706h119l313 -498s-15 482 -16 498h130v-706z" />
    <glyph glyph-name="O" unicode="O" horiz-adv-x="771" 
d="M48 352c0 207 135 372 339 372c215 0 338 -176 338 -367c0 -160 -87 -375 -341 -375c-208 0 -336 172 -336 370zM184 357c0 -110 53 -252 204 -252c105 0 204 81 204 241c0 126 -66 257 -206 257c-116 0 -202 -91 -202 -246z" />
    <glyph glyph-name="P" unicode="P" horiz-adv-x="625" 
d="M82 706h274c146 0 251 -90 251 -235c0 -128 -74 -231 -258 -231h-135v-240h-132v706zM214 593v-245h116c94 0 141 44 141 127c0 114 -92 118 -156 118h-101z" />
    <glyph glyph-name="Q" unicode="Q" horiz-adv-x="771" 
d="M780 99l-37 -127c-24 6 -71 18 -151 87c-83 -72 -189 -77 -223 -77c-201 0 -333 151 -333 371c0 215 132 371 336 371c189 0 338 -138 338 -360c0 -70 -17 -155 -51 -214c9 -24 65 -53 107 -53c7 0 14 2 14 2zM568 354c0 138 -82 244 -199 244
c-109 0 -192 -103 -192 -249c0 -117 72 -241 202 -241c111 0 189 102 189 246z" />
    <glyph glyph-name="R" unicode="R" horiz-adv-x="646" 
d="M81 706h289c139 0 233 -91 233 -224c0 -68 -27 -157 -139 -194l157 -288h-151l-139 262h-119v-262h-131v706zM212 592v-220h102c95 0 155 28 155 111c0 76 -52 109 -137 109h-120z" />
    <glyph glyph-name="S" unicode="S" horiz-adv-x="667" 
d="M625 581l-109 -81c-22 36 -73 105 -184 105c-30 0 -132 -11 -132 -86c0 -55 54 -68 129 -84l74 -16c111 -24 229 -67 229 -209c0 -175 -174 -228 -300 -228c-118 0 -246 42 -309 151l111 77c31 -46 89 -106 219 -106c77 0 136 32 136 93c0 58 -47 71 -136 91l-90 20
c-90 20 -202 58 -202 196c0 125 101 220 279 220c63 0 187 -10 285 -143z" />
    <glyph glyph-name="T" unicode="T" 
d="M541 587h-195v-587h-132v587h-192v119h519v-119z" />
    <glyph glyph-name="U" unicode="U" horiz-adv-x="729" 
d="M649 706v-437c0 -60 -1 -90 -12 -125c-23 -71 -104 -162 -277 -162c-113 0 -232 44 -269 160c-11 36 -11 69 -11 144v420h133v-434c0 -42 0 -57 7 -78c13 -42 51 -84 145 -84c17 0 114 0 143 80c8 23 9 42 9 89v427h132z" />
    <glyph glyph-name="V" unicode="V" horiz-adv-x="604" 
d="M595 706l-201 -706h-178l-208 706h139l158 -557l154 557h136z" />
    <glyph glyph-name="W" unicode="W" horiz-adv-x="833" 
d="M823 706l-155 -706h-154l-99 491l-102 -491h-154l-147 706h135l96 -538l110 538h123l112 -538l99 538h136z" />
    <glyph glyph-name="X" unicode="X" horiz-adv-x="646" 
d="M639 0h-151l-165 261l-161 -261h-153l237 383l-203 323h152l128 -202l123 202h153l-199 -323z" />
    <glyph glyph-name="Y" unicode="Y" horiz-adv-x="625" 
d="M615 706l-238 -427v-279h-131v279l-236 427h150l153 -292l154 292h148z" />
    <glyph glyph-name="Z" unicode="Z" horiz-adv-x="604" 
d="M575 0h-551v108l386 480h-353v118h518v-112l-371 -475h371v-119z" />
    <glyph glyph-name="bracketleft" unicode="[" horiz-adv-x="285" 
d="M264 -144h-205v923h205v-73h-97v-778h97v-72z" />
    <glyph glyph-name="backslash" unicode="\" horiz-adv-x="479" 
d="M467 0h-119l-335 706h119z" />
    <glyph glyph-name="bracketright" unicode="]" horiz-adv-x="285" 
d="M225 -144h-205v73h97v778h-97v72h205v-923z" />
    <glyph glyph-name="asciicircum" unicode="^" horiz-adv-x="724" 
d="M633 284h-131l-136 308l-138 -308h-136l209 422h126z" />
    <glyph glyph-name="underscore" unicode="_" horiz-adv-x="500" 
d="M510 -222h-520v92h520v-92z" />
    <glyph glyph-name="grave" unicode="`" horiz-adv-x="271" 
d="M236 573h-89l-112 133h149z" />
    <glyph glyph-name="a" unicode="a" horiz-adv-x="542" 
d="M500 0h-142l-3 39c-33 -26 -86 -51 -147 -51c-114 0 -182 69 -182 153c0 109 83 152 178 169c75 14 122 26 154 37c0 38 -11 75 -86 75c-91 0 -101 -49 -101 -75l-122 7c2 33 9 161 219 161c147 0 210 -54 210 -142v-292c0 -38 2 -49 22 -81zM358 182v67
c-20 -10 -49 -21 -95 -28c-55 -8 -110 -19 -110 -69c0 -33 22 -61 82 -61c55 0 123 28 123 91z" />
    <glyph glyph-name="b" unicode="b" horiz-adv-x="583" 
d="M64 706h120v-248c51 51 120 57 143 57c116 0 220 -102 220 -262c0 -178 -121 -268 -227 -268c-29 0 -84 6 -137 67v-52h-119v706zM182 262c0 -108 50 -163 122 -163c65 0 120 56 120 163c0 67 -39 144 -125 144c-72 0 -117 -63 -117 -144z" />
    <glyph glyph-name="c" unicode="c" horiz-adv-x="517" 
d="M395 195l102 -54c-35 -99 -126 -156 -226 -156c-147 0 -247 116 -247 265c0 130 88 265 253 265c130 0 196 -95 215 -142l-107 -50c-14 43 -49 85 -114 85c-81 0 -123 -72 -123 -155c0 -87 45 -156 126 -156c85 0 112 74 121 98z" />
    <glyph glyph-name="d" unicode="d" horiz-adv-x="583" 
d="M516 0h-119v48c-10 -12 -50 -63 -139 -63c-105 0 -222 73 -222 255c0 179 109 275 227 275c41 0 101 -15 134 -56v247h119v-706zM161 253c0 -74 31 -159 119 -159c65 0 116 54 116 147c0 76 -22 163 -115 163c-75 0 -120 -67 -120 -151z" />
    <glyph glyph-name="e" unicode="e" 
d="M531 226h-370c2 -25 25 -124 141 -124c85 0 121 52 131 69l102 -59c-40 -54 -113 -127 -244 -127c-149 0 -257 102 -257 268c0 179 121 262 251 262c191 0 246 -153 246 -289zM165 314h234c-2 25 -18 105 -112 105c-99 0 -118 -85 -122 -105z" />
    <glyph glyph-name="f" unicode="f" horiz-adv-x="313" 
d="M308 415h-109v-415h-120v415h-75v85h75v69c0 87 26 138 161 138c23 0 45 -2 68 -5v-102c-3 1 -23 3 -38 3c-69 0 -71 -38 -71 -69v-34h109v-85z" />
    <glyph glyph-name="g" unicode="g" horiz-adv-x="583" 
d="M520 500v-475c0 -145 -99 -192 -241 -192c-186 0 -215 89 -229 156h132c11 -52 72 -62 100 -62c71 0 119 25 119 111v44c-56 -50 -126 -53 -151 -53c-105 0 -216 67 -216 238c0 175 119 248 226 248c64 0 113 -27 141 -68v53h119zM404 266c0 78 -41 142 -124 142
c-61 0 -123 -41 -123 -138c0 -78 44 -132 124 -132c78 0 123 51 123 128z" />
    <glyph glyph-name="h" unicode="h" horiz-adv-x="583" 
d="M520 0h-118v293c0 73 -36 108 -94 108c-65 0 -125 -49 -125 -124v-277h-120v706h120v-257c30 31 84 66 158 66c109 0 179 -62 179 -177v-338z" />
    <glyph glyph-name="i" unicode="i" horiz-adv-x="250" 
d="M184 578h-119v121h119v-121zM184 0h-119v500h119v-500z" />
    <glyph glyph-name="j" unicode="j" horiz-adv-x="250" 
d="M185 579h-118v122h118v-122zM67 500h118v-546c0 -31 -3 -117 -156 -117c-10 0 -19 1 -28 2v109c5 1 29 1 46 12c18 11 20 26 20 52v488z" />
    <glyph glyph-name="k" unicode="k" horiz-adv-x="542" 
d="M550 0h-146l-151 224l-70 -69v-155h-119v706h119v-397l195 191h153l-191 -191z" />
    <glyph glyph-name="l" unicode="l" horiz-adv-x="250" 
d="M187 0h-122v706h122v-706z" />
    <glyph glyph-name="m" unicode="m" horiz-adv-x="875" 
d="M63 500h121v-56c21 28 80 71 157 71c57 0 111 -26 139 -76c32 41 83 76 161 76c101 0 172 -53 172 -173v-342h-119v306c0 19 -4 97 -84 97c-19 0 -62 -7 -89 -51c-23 -36 -24 -77 -24 -117v-235h-119v307c0 39 -17 95 -82 95c-12 0 -38 -3 -63 -24
c-49 -42 -50 -112 -50 -168v-210h-120v500z" />
    <glyph glyph-name="n" unicode="n" 
d="M63 500h121v-59c45 68 134 74 154 74c106 0 162 -69 162 -167v-348h-118v281c0 55 -14 117 -88 117c-13 0 -38 -2 -63 -23c-36 -30 -47 -72 -47 -158v-217h-121v500z" />
    <glyph glyph-name="o" unicode="o" horiz-adv-x="583" 
d="M549 252c0 -134 -84 -267 -254 -267c-182 0 -260 145 -260 267c0 120 79 263 256 263c109 0 257 -73 258 -263zM160 255c0 -88 49 -160 135 -160c88 0 129 75 129 151c0 80 -43 161 -135 161c-70 0 -129 -51 -129 -152z" />
    <glyph glyph-name="p" unicode="p" horiz-adv-x="583" 
d="M64 500h120v-45c20 21 61 60 137 60c32 0 103 -6 160 -73c26 -31 67 -96 67 -196c0 -27 -2 -102 -50 -169c-59 -83 -140 -92 -178 -92c-30 0 -82 6 -136 56v-204h-120v663zM425 252c0 104 -65 148 -123 148c-85 0 -120 -78 -120 -147c0 -85 42 -154 123 -154
c47 0 120 28 120 153z" />
    <glyph glyph-name="q" unicode="q" 
d="M508 -163h-119v210c-23 -24 -63 -62 -143 -62c-32 0 -103 4 -159 70c-28 33 -62 90 -62 190c0 18 1 61 16 107c30 91 110 163 210 163c53 0 108 -23 138 -68v53h119v-663zM148 246c0 -75 34 -151 121 -151c70 0 120 53 120 150c0 66 -28 153 -121 153
c-69 0 -120 -53 -120 -152z" />
    <glyph glyph-name="r" unicode="r" horiz-adv-x="354" 
d="M64 500h116v-71c38 79 125 82 149 82h10v-123c-25 0 -121 0 -150 -92c-9 -28 -9 -53 -9 -82v-214h-116v500z" />
    <glyph glyph-name="s" unicode="s" horiz-adv-x="521" 
d="M474 422l-85 -79c-27 53 -78 76 -136 76c-23 0 -83 -7 -83 -52c0 -33 30 -43 102 -56l81 -15c76 -14 134 -59 134 -140c0 -92 -87 -171 -225 -171s-212 61 -240 90l90 73c24 -32 69 -64 144 -64c72 0 98 37 98 59c0 29 -28 40 -74 48l-62 11c-39 7 -174 32 -174 150
c0 99 95 163 215 163c39 0 140 -6 215 -93z" />
    <glyph glyph-name="t" unicode="t" horiz-adv-x="313" 
d="M4 415v85h73v178h120v-178h107v-85h-107v-248c0 -19 1 -41 12 -53c14 -15 40 -15 45 -15c17 0 35 2 50 6v-101c-16 -2 -45 -8 -86 -8c-107 0 -141 39 -141 121v298h-73z" />
    <glyph glyph-name="u" unicode="u" horiz-adv-x="583" 
d="M517 0h-120v51c-25 -23 -75 -63 -162 -63c-83 0 -124 36 -144 66c-27 40 -29 86 -29 132v314h121v-288c0 -48 12 -111 98 -111c58 0 88 38 97 56c18 35 19 82 19 120v223h120v-500z" />
    <glyph glyph-name="v" unicode="v" horiz-adv-x="479" 
d="M468 500l-165 -500h-128l-162 500h124l104 -344l102 344h125z" />
    <glyph glyph-name="w" unicode="w" horiz-adv-x="750" 
d="M735 500l-150 -500h-119l-90 319l-95 -319h-119l-145 500h125l87 -342l93 342h107l92 -342l89 342h125z" />
    <glyph glyph-name="x" unicode="x" horiz-adv-x="500" 
d="M494 0h-138l-104 158l-100 -158h-143l172 268l-152 232h141l82 -126l79 126h143l-151 -232z" />
    <glyph glyph-name="y" unicode="y" horiz-adv-x="479" 
d="M347 500h123l-133 -456c-18 -63 -43 -152 -85 -186c-31 -25 -63 -30 -102 -30c-38 0 -52 3 -71 7v104c12 -2 23 -2 33 -2c66 0 77 40 81 53l-181 510h129l112 -373z" />
    <glyph glyph-name="z" unicode="z" horiz-adv-x="500" 
d="M459 0h-428v92l270 301h-243v107h401v-93l-264 -301h264v-106z" />
    <glyph glyph-name="braceleft" unicode="{" horiz-adv-x="300" 
d="M288 -148h-62c-90 0 -126 40 -126 139v183c0 88 -19 97 -86 106v75c66 5 86 20 86 106v181c0 103 39 140 132 140h56v-72h-17c-52 0 -62 -22 -62 -89v-169c0 -83 -17 -110 -82 -136c56 -14 82 -48 82 -130v-173c0 -56 6 -89 65 -89h14v-72z" />
    <glyph glyph-name="bar" unicode="|" horiz-adv-x="247" 
d="M177 -143h-109v922h109v-922z" />
    <glyph glyph-name="braceright" unicode="}" horiz-adv-x="300" 
d="M12 782h62c90 0 127 -44 127 -139v-189c0 -85 18 -91 85 -100v-75c-66 -5 -85 -19 -85 -104v-181c0 -102 -38 -142 -131 -142h-58v72h17c52 0 62 22 62 89v169c0 83 17 110 82 136c-56 14 -82 48 -82 130v173c0 56 -6 89 -65 89h-14v72z" />
    <glyph glyph-name="asciitilde" unicode="~" horiz-adv-x="724" 
d="M608 410l45 -100c-60 -74 -109 -99 -165 -99c-32 0 -61 9 -121 38l-35 17c-46 22 -75 30 -104 30c-39 0 -57 -14 -112 -79l-44 101c55 75 94 100 158 100c34 0 61 -8 127 -38l51 -23c46 -21 60 -25 79 -25c39 0 74 20 121 78z" />
    <glyph glyph-name="Adieresis" unicode="&#xc4;" horiz-adv-x="646" 
d="M636 0h-141l-41 138h-265l-41 -138h-142l239 706h150zM419 254l-97 325l-98 -325h195zM485 772h-114v123h114v-123zM283 772h-112v123h112v-123z" />
    <glyph glyph-name="Aring" unicode="&#xc5;" horiz-adv-x="646" 
d="M636 0h-141l-41 138h-265l-41 -138h-142l239 706h150zM419 254l-97 325l-98 -325h195zM428 861c0 -56 -45 -101 -102 -101c-56 0 -101 45 -101 102c0 55 45 101 102 101c56 0 101 -47 101 -102zM368 862c0 23 -19 41 -42 41s-42 -19 -42 -42s21 -42 43 -42
c23 0 41 20 41 43z" />
    <glyph glyph-name="Ccedilla" unicode="&#xc7;" horiz-adv-x="688" 
d="M547 249l125 -52c-23 -59 -98 -207 -290 -214l-22 -29h7c80 0 94 -42 94 -64c0 -33 -21 -76 -155 -76c-14 0 -27 0 -41 1v31s13 -1 18 -1c25 0 63 2 63 26c0 21 -32 24 -66 24c-7 0 -14 -1 -20 -2v15l73 76c-155 14 -296 130 -296 376c0 157 89 364 335 364
c182 0 257 -117 287 -218l-131 -34c-8 77 -73 131 -151 131c-115 0 -197 -88 -197 -245c0 -96 39 -251 196 -251c91 0 150 70 171 142z" />
    <glyph glyph-name="Eacute" unicode="&#xc9;" horiz-adv-x="625" 
d="M605 0h-527v706h502v-118h-372v-166h341v-114h-341v-189h397v-119zM454 895l-108 -120h-89l54 120h143z" />
    <glyph glyph-name="Ntilde" unicode="&#xd1;" horiz-adv-x="708" 
d="M628 0h-116l-309 495s8 -482 8 -495h-129v706h119l313 -498s-15 482 -16 498h130v-706zM447 895h76c-4 -57 -12 -127 -93 -127c-54 0 -93 37 -132 37c-22 0 -27 -19 -29 -36h-75c5 53 22 125 96 125c52 0 97 -35 128 -35c24 0 27 21 29 36z" />
    <glyph glyph-name="Odieresis" unicode="&#xd6;" horiz-adv-x="771" 
d="M48 352c0 207 135 372 339 372c215 0 338 -176 338 -367c0 -160 -87 -375 -341 -375c-208 0 -336 172 -336 370zM184 357c0 -110 53 -252 204 -252c105 0 204 81 204 241c0 126 -66 257 -206 257c-116 0 -202 -91 -202 -246zM545 772h-114v123h114v-123zM343 772h-112
v123h112v-123z" />
    <glyph glyph-name="Udieresis" unicode="&#xdc;" horiz-adv-x="729" 
d="M649 706v-437c0 -60 -1 -90 -12 -125c-23 -71 -104 -162 -277 -162c-113 0 -232 44 -269 160c-11 36 -11 69 -11 144v420h133v-434c0 -42 0 -57 7 -78c13 -42 51 -84 145 -84c17 0 114 0 143 80c8 23 9 42 9 89v427h132zM522 772h-114v123h114v-123zM320 772h-112v123
h112v-123z" />
    <glyph glyph-name="aacute" unicode="&#xe1;" horiz-adv-x="542" 
d="M500 0h-142l-3 39c-33 -26 -86 -51 -147 -51c-114 0 -182 69 -182 153c0 109 83 152 178 169c75 14 122 26 154 37c0 38 -11 75 -86 75c-91 0 -101 -49 -101 -75l-122 7c2 33 9 161 219 161c147 0 210 -54 210 -142v-292c0 -38 2 -49 22 -81zM358 182v67
c-20 -10 -49 -21 -95 -28c-55 -8 -110 -19 -110 -69c0 -33 22 -61 82 -61c55 0 123 28 123 91zM408 706l-108 -133h-91l50 133h149z" />
    <glyph glyph-name="agrave" unicode="&#xe0;" horiz-adv-x="542" 
d="M500 0h-142l-3 39c-33 -26 -86 -51 -147 -51c-114 0 -182 69 -182 153c0 109 83 152 178 169c75 14 122 26 154 37c0 38 -11 75 -86 75c-91 0 -101 -49 -101 -75l-122 7c2 33 9 161 219 161c147 0 210 -54 210 -142v-292c0 -38 2 -49 22 -81zM358 182v67
c-20 -10 -49 -21 -95 -28c-55 -8 -110 -19 -110 -69c0 -33 22 -61 82 -61c55 0 123 28 123 91zM339 573h-89l-112 133h149z" />
    <glyph glyph-name="acircumflex" unicode="&#xe2;" horiz-adv-x="542" 
d="M500 0h-142l-3 39c-33 -26 -86 -51 -147 -51c-114 0 -182 69 -182 153c0 109 83 152 178 169c75 14 122 26 154 37c0 38 -11 75 -86 75c-91 0 -101 -49 -101 -75l-122 7c2 33 9 161 219 161c147 0 210 -54 210 -142v-292c0 -38 2 -49 22 -81zM358 182v67
c-20 -10 -49 -21 -95 -28c-55 -8 -110 -19 -110 -69c0 -33 22 -61 82 -61c55 0 123 28 123 91zM442 572h-123l-47 67l-50 -67h-121l111 134h118z" />
    <glyph glyph-name="adieresis" unicode="&#xe4;" horiz-adv-x="542" 
d="M500 0h-142l-3 39c-33 -26 -86 -51 -147 -51c-114 0 -182 69 -182 153c0 109 83 152 178 169c75 14 122 26 154 37c0 38 -11 75 -86 75c-91 0 -101 -49 -101 -75l-122 7c2 33 9 161 219 161c147 0 210 -54 210 -142v-292c0 -38 2 -49 22 -81zM358 182v67
c-20 -10 -49 -21 -95 -28c-55 -8 -110 -19 -110 -69c0 -33 22 -61 82 -61c55 0 123 28 123 91zM422 587h-115v119h115v-119zM220 587h-113v119h113v-119z" />
    <glyph glyph-name="atilde" unicode="&#xe3;" horiz-adv-x="542" 
d="M500 0h-142l-3 39c-33 -26 -86 -51 -147 -51c-114 0 -182 69 -182 153c0 109 83 152 178 169c75 14 122 26 154 37c0 38 -11 75 -86 75c-91 0 -101 -49 -101 -75l-122 7c2 33 9 161 219 161c147 0 210 -54 210 -142v-292c0 -38 2 -49 22 -81zM358 182v67
c-20 -10 -49 -21 -95 -28c-55 -8 -110 -19 -110 -69c0 -33 22 -61 82 -61c55 0 123 28 123 91zM350 706h76c-2 -57 -21 -123 -90 -123c-46 0 -98 39 -131 39c-21 0 -27 -19 -29 -38h-75c0 55 21 126 94 126c37 0 97 -37 125 -37c20 0 25 14 30 33z" />
    <glyph glyph-name="aring" unicode="&#xe5;" horiz-adv-x="542" 
d="M500 0h-142l-3 39c-33 -26 -86 -51 -147 -51c-114 0 -182 69 -182 153c0 109 83 152 178 169c75 14 122 26 154 37c0 38 -11 75 -86 75c-91 0 -101 -49 -101 -75l-122 7c2 33 9 161 219 161c147 0 210 -54 210 -142v-292c0 -38 2 -49 22 -81zM358 182v67
c-20 -10 -49 -21 -95 -28c-55 -8 -110 -19 -110 -69c0 -33 22 -61 82 -61c55 0 123 28 123 91zM366 662c0 -57 -46 -102 -101 -102c-56 0 -102 45 -102 102c0 56 46 101 102 101c74 0 101 -66 101 -101zM306 661c0 24 -19 42 -42 42c-28 0 -42 -23 -42 -42
c0 -23 19 -42 42 -42c24 0 42 20 42 42z" />
    <glyph glyph-name="ccedilla" unicode="&#xe7;" horiz-adv-x="517" 
d="M395 195l102 -54c-32 -91 -112 -146 -202 -155l-25 -32h7c80 0 94 -42 94 -64c0 -33 -21 -76 -155 -76c-14 0 -27 0 -41 1v31s13 -1 18 -1c25 0 63 2 63 26c0 21 -32 24 -66 24c-7 0 -14 -1 -20 -2v15l75 79c-133 12 -221 123 -221 263c0 130 88 265 253 265
c130 0 196 -95 215 -142l-107 -50c-14 43 -49 85 -114 85c-81 0 -123 -72 -123 -155c0 -87 45 -156 126 -156c85 0 112 74 121 98z" />
    <glyph glyph-name="eacute" unicode="&#xe9;" 
d="M531 226h-370c2 -25 25 -124 141 -124c85 0 121 52 131 69l102 -59c-40 -54 -113 -127 -244 -127c-149 0 -257 102 -257 268c0 179 121 262 251 262c191 0 246 -153 246 -289zM165 314h234c-2 25 -18 105 -112 105c-99 0 -118 -85 -122 -105zM428 706l-108 -133h-91
l50 133h149z" />
    <glyph glyph-name="egrave" unicode="&#xe8;" 
d="M531 226h-370c2 -25 25 -124 141 -124c85 0 121 52 131 69l102 -59c-40 -54 -113 -127 -244 -127c-149 0 -257 102 -257 268c0 179 121 262 251 262c191 0 246 -153 246 -289zM165 314h234c-2 25 -18 105 -112 105c-99 0 -118 -85 -122 -105zM338 573h-89l-112 133h149z
" />
    <glyph glyph-name="ecircumflex" unicode="&#xea;" 
d="M531 226h-370c2 -25 25 -124 141 -124c85 0 121 52 131 69l102 -59c-40 -54 -113 -127 -244 -127c-149 0 -257 102 -257 268c0 179 121 262 251 262c191 0 246 -153 246 -289zM165 314h234c-2 25 -18 105 -112 105c-99 0 -118 -85 -122 -105zM452 572h-123l-47 67
l-50 -67h-121l111 134h118z" />
    <glyph glyph-name="edieresis" unicode="&#xeb;" 
d="M531 226h-370c2 -25 25 -124 141 -124c85 0 121 52 131 69l102 -59c-40 -54 -113 -127 -244 -127c-149 0 -257 102 -257 268c0 179 121 262 251 262c191 0 246 -153 246 -289zM165 314h234c-2 25 -18 105 -112 105c-99 0 -118 -85 -122 -105zM440 587h-115v119h115v-119z
M238 587h-113v119h113v-119z" />
    <glyph glyph-name="iacute" unicode="&#xed;" horiz-adv-x="250" 
d="M184 0h-119v500h119v-500zM272 706l-108 -133h-91l50 133h149z" />
    <glyph glyph-name="igrave" unicode="&#xec;" horiz-adv-x="250" 
d="M184 0h-119v500h119v-500zM181 573h-89l-112 133h149z" />
    <glyph glyph-name="icircumflex" unicode="&#xee;" horiz-adv-x="250" 
d="M184 0h-119v500h119v-500zM296 572h-123l-47 67l-50 -67h-121l111 134h118z" />
    <glyph glyph-name="idieresis" unicode="&#xef;" horiz-adv-x="250" 
d="M184 0h-119v500h119v-500zM284 587h-115v119h115v-119zM82 587h-113v119h113v-119z" />
    <glyph glyph-name="ntilde" unicode="&#xf1;" 
d="M63 500h121v-59c45 68 134 74 154 74c106 0 162 -69 162 -167v-348h-118v281c0 55 -14 117 -88 117c-13 0 -38 -2 -63 -23c-36 -30 -47 -72 -47 -158v-217h-121v500zM373 706h76c-2 -57 -21 -123 -90 -123c-46 0 -98 39 -131 39c-21 0 -27 -19 -29 -38h-75
c0 55 21 126 94 126c37 0 97 -37 125 -37c20 0 25 14 30 33z" />
    <glyph glyph-name="oacute" unicode="&#xf3;" horiz-adv-x="584" 
d="M549 252c0 -134 -84 -267 -254 -267c-182 0 -260 145 -260 267c0 120 79 263 256 263c109 0 257 -73 258 -263zM160 255c0 -88 49 -160 135 -160c88 0 129 75 129 151c0 80 -43 161 -135 161c-70 0 -129 -51 -129 -152zM438 706l-108 -133h-91l50 133h149z" />
    <glyph glyph-name="ograve" unicode="&#xf2;" horiz-adv-x="583" 
d="M549 252c0 -134 -84 -267 -254 -267c-182 0 -260 145 -260 267c0 120 79 263 256 263c109 0 257 -73 258 -263zM160 255c0 -88 49 -160 135 -160c88 0 129 75 129 151c0 80 -43 161 -135 161c-70 0 -129 -51 -129 -152zM348 573h-89l-112 133h149z" />
    <glyph glyph-name="ocircumflex" unicode="&#xf4;" horiz-adv-x="583" 
d="M549 252c0 -134 -84 -267 -254 -267c-182 0 -260 145 -260 267c0 120 79 263 256 263c109 0 257 -73 258 -263zM160 255c0 -88 49 -160 135 -160c88 0 129 75 129 151c0 80 -43 161 -135 161c-70 0 -129 -51 -129 -152zM463 572h-123l-47 67l-50 -67h-121l111 134h118z
" />
    <glyph glyph-name="odieresis" unicode="&#xf6;" horiz-adv-x="583" 
d="M549 252c0 -134 -84 -267 -254 -267c-182 0 -260 145 -260 267c0 120 79 263 256 263c109 0 257 -73 258 -263zM160 255c0 -88 49 -160 135 -160c88 0 129 75 129 151c0 80 -43 161 -135 161c-70 0 -129 -51 -129 -152zM452 587h-115v119h115v-119zM250 587h-113v119h113
v-119z" />
    <glyph glyph-name="otilde" unicode="&#xf5;" horiz-adv-x="583" 
d="M549 252c0 -134 -84 -267 -254 -267c-182 0 -260 145 -260 267c0 120 79 263 256 263c109 0 257 -73 258 -263zM160 255c0 -88 49 -160 135 -160c88 0 129 75 129 151c0 80 -43 161 -135 161c-70 0 -129 -51 -129 -152zM381 706h76c-2 -57 -21 -123 -90 -123
c-46 0 -98 39 -131 39c-21 0 -27 -19 -29 -38h-75c0 55 21 126 94 126c37 0 97 -37 125 -37c20 0 25 14 30 33z" />
    <glyph glyph-name="uacute" unicode="&#xfa;" horiz-adv-x="583" 
d="M517 0h-120v51c-25 -23 -75 -63 -162 -63c-83 0 -124 36 -144 66c-27 40 -29 86 -29 132v314h121v-288c0 -48 12 -111 98 -111c58 0 88 38 97 56c18 35 19 82 19 120v223h120v-500zM439 706l-108 -133h-91l50 133h149z" />
    <glyph glyph-name="ugrave" unicode="&#xf9;" horiz-adv-x="583" 
d="M517 0h-120v51c-25 -23 -75 -63 -162 -63c-83 0 -124 36 -144 66c-27 40 -29 86 -29 132v314h121v-288c0 -48 12 -111 98 -111c58 0 88 38 97 56c18 35 19 82 19 120v223h120v-500zM348 573h-89l-112 133h149z" />
    <glyph glyph-name="ucircumflex" unicode="&#xfb;" horiz-adv-x="583" 
d="M517 0h-120v51c-25 -23 -75 -63 -162 -63c-83 0 -124 36 -144 66c-27 40 -29 86 -29 132v314h121v-288c0 -48 12 -111 98 -111c58 0 88 38 97 56c18 35 19 82 19 120v223h120v-500zM462 572h-123l-47 67l-50 -67h-121l111 134h118z" />
    <glyph glyph-name="udieresis" unicode="&#xfc;" horiz-adv-x="583" 
d="M517 0h-120v51c-25 -23 -75 -63 -162 -63c-83 0 -124 36 -144 66c-27 40 -29 86 -29 132v314h121v-288c0 -48 12 -111 98 -111c58 0 88 38 97 56c18 35 19 82 19 120v223h120v-500zM449 587h-115v119h115v-119zM247 587h-113v119h113v-119z" />
    <glyph glyph-name="dagger" unicode="&#x2020;" horiz-adv-x="542" 
d="M503 366h-168v-410h-126v410h-169v112h169v228h126v-228h168v-112z" />
    <glyph glyph-name="degree" unicode="&#xb0;" horiz-adv-x="354" 
d="M349 582c0 -94 -78 -172 -172 -172s-172 78 -172 172c0 95 76 173 172 173s172 -77 172 -173zM249 582c0 40 -33 71 -72 71c-40 0 -72 -31 -72 -71c0 -39 33 -72 72 -72s72 33 72 72z" />
    <glyph glyph-name="cent" unicode="&#xa2;" horiz-adv-x="500" 
d="M392 198l102 -55c-30 -86 -99 -143 -182 -152v-99h-78v99c-200 28 -212 224 -212 264c0 122 62 236 213 267v99h78v-99c110 -13 150 -89 177 -138l-106 -50c-24 47 -36 70 -73 79v-308c61 17 78 79 81 93zM233 109v305c-65 -28 -88 -86 -88 -154c0 -48 12 -129 88 -151z
" />
    <glyph glyph-name="sterling" unicode="&#xa3;" horiz-adv-x="625" 
d="M465 232h129c0 -73 -11 -240 -153 -240c-54 0 -92 22 -143 47c-42 -23 -79 -47 -129 -47c-70 0 -120 46 -120 114c0 61 43 109 112 109c15 0 40 -3 73 -14c2 7 3 13 3 16c0 9 -3 41 -28 58h-130v106h80c-15 19 -42 58 -42 121c0 123 107 193 229 193
c103 0 221 -57 221 -212c0 -11 0 -39 -1 -49h-130c2 9 5 22 5 42c0 57 -40 107 -99 107c-43 0 -93 -28 -93 -93c0 -54 41 -98 49 -109h123v-106h-78c5 -37 6 -51 6 -72c0 -24 -1 -36 -6 -60c20 -14 43 -29 69 -29c49 0 53 60 53 94v24zM210 106c-17 13 -27 17 -39 17
c-20 0 -27 -15 -27 -23c0 -7 7 -21 26 -21c11 0 29 4 40 27z" />
    <glyph glyph-name="section" unicode="&#xa7;" horiz-adv-x="646" 
d="M540 692l-56 -84c-56 24 -109 51 -168 51c-20 0 -72 -5 -72 -33s36 -40 59 -50l93 -40c92 -40 208 -88 208 -206c0 -72 -44 -130 -107 -160c25 -27 41 -54 41 -92c0 -103 -112 -143 -198 -143c-83 0 -181 29 -249 79l58 82c55 -36 120 -61 187 -61c27 0 68 8 68 42
c0 70 -361 102 -361 299c0 73 48 115 106 149c-25 22 -39 54 -39 88c0 104 105 146 193 146c82 0 169 -24 237 -67zM282 446l-53 21c-31 -11 -59 -35 -59 -71c0 -48 48 -69 85 -86l56 -25c39 -17 77 -36 115 -55c24 18 44 48 44 78c0 59 -59 87 -188 138z" />
    <glyph glyph-name="bullet" unicode="&#x2022;" horiz-adv-x="333" 
d="M286 233h-239v238h239v-238z" />
    <glyph glyph-name="paragraph" unicode="&#xb6;" horiz-adv-x="640" 
d="M537 636h-35v-803h-74v803h-128v-803h-74v478c-96 19 -155 87 -155 191c0 111 60 204 233 204h233v-70z" />
    <glyph glyph-name="germandbls" unicode="&#xdf;" 
d="M186 0h-121v529c0 135 106 189 213 189c158 0 224 -101 224 -175c0 -63 -39 -114 -90 -130c42 -15 115 -62 115 -194c0 -126 -66 -227 -202 -227c-7 0 -60 1 -95 16v116c18 -11 37 -22 68 -22c68 0 103 64 103 126c0 97 -65 138 -154 138c-6 0 -12 0 -17 -1v90
c4 0 15 -2 30 -2c64 0 105 34 105 84c0 12 -7 74 -85 74c-80 0 -94 -57 -94 -111v-500z" />
    <glyph glyph-name="registered" unicode="&#xae;" horiz-adv-x="827" 
d="M770 360c0 -207 -153 -363 -357 -363c-197 0 -355 158 -355 356s158 356 356 356c195 0 356 -157 356 -349zM730 347c0 185 -136 325 -317 325c-174 0 -315 -143 -315 -320s140 -318 315 -318c173 0 317 142 317 313zM263 580h147c36 0 77 -1 108 -20
c37 -23 60 -69 60 -121c0 -57 -22 -92 -76 -120l78 -185h-102l-63 169h-59v-169h-93v446zM356 496v-115h58c49 0 70 18 70 58c0 39 -21 57 -67 57h-61z" />
    <glyph glyph-name="copyright" unicode="&#xa9;" horiz-adv-x="827" 
d="M583 203c-54 -61 -101 -84 -168 -84c-122 0 -206 94 -206 232c0 134 88 233 206 233c71 0 113 -21 168 -83l-63 -65c-39 45 -64 59 -103 59c-65 0 -108 -57 -108 -143c0 -87 42 -142 107 -142c42 0 70 15 104 56zM770 360c0 -207 -153 -363 -357 -363
c-197 0 -355 158 -355 356s158 356 356 356c195 0 356 -157 356 -349zM730 347c0 185 -136 325 -317 325c-174 0 -315 -143 -315 -320s140 -318 315 -318c173 0 317 142 317 313z" />
    <glyph glyph-name="trademark" unicode="&#x2122;" horiz-adv-x="687" 
d="M628 374h-66c1 144 1 263 1 263l-68 -263h-58l-70 267s4 -248 4 -267h-68v332h107l57 -233l55 233h106v-332zM262 648h-88v-274h-72v274h-94v58h254v-58z" />
    <glyph glyph-name="acute" unicode="&#xb4;" horiz-adv-x="271" 
d="M235 706l-108 -133h-91l50 133h149z" />
    <glyph glyph-name="dieresis" unicode="&#xa8;" horiz-adv-x="271" 
d="M293 587h-115v119h115v-119zM91 587h-113v119h113v-119z" />
    <glyph glyph-name="notequal" unicode="&#x2260;" horiz-adv-x="724" 
d="M625 148h-286l-75 -154h-103l75 154h-137v106h190l46 96h-236v107h289l72 145h103l-72 -145h134v-107h-187l-47 -96h234v-106z" />
    <glyph glyph-name="AE" unicode="&#xc6;" horiz-adv-x="1042" 
d="M1018 0h-516v165h-248l-94 -165h-154l418 706h579v-118h-368v-168h320v-116h-320v-184h383v-120zM502 284v323l-181 -323h181z" />
    <glyph glyph-name="Oslash" unicode="&#xd8;" horiz-adv-x="771" 
d="M681 683l59 -67l-66 -59c20 -37 52 -102 52 -205c0 -173 -101 -370 -342 -370c-138 0 -200 64 -240 107l-64 -56l-57 66l70 62c-30 59 -47 95 -47 189c0 249 176 374 344 374c125 0 195 -62 229 -96zM200 255l325 290c-20 20 -60 60 -133 60c-126 0 -214 -115 -214 -241
c0 -56 9 -80 22 -109zM571 466l-327 -289c17 -27 56 -74 139 -74c103 0 211 82 211 243c0 18 -1 69 -23 120z" />
    <glyph glyph-name="infinity" unicode="&#x221e;" horiz-adv-x="724" 
d="M357 221c-68 -88 -103 -111 -165 -111c-96 0 -161 80 -161 199c0 117 72 204 167 204c69 0 114 -33 166 -114c58 81 100 115 167 115c94 0 162 -83 162 -197c0 -120 -70 -206 -167 -206c-75 0 -116 36 -169 110zM427 311c40 -68 69 -94 101 -94c37 0 64 38 64 92
s-26 92 -62 92c-30 0 -60 -26 -103 -90zM298 310c-40 67 -69 94 -101 94c-37 0 -64 -38 -64 -92c0 -55 26 -93 63 -93c30 0 57 25 102 91z" />
    <glyph glyph-name="plusminus" unicode="&#xb1;" horiz-adv-x="724" 
d="M631 365h-204v-203h-130v203h-204v107h204v199h130v-199h204v-107zM631 0h-538v107h538v-107z" />
    <glyph glyph-name="lessequal" unicode="&#x2264;" horiz-adv-x="724" 
d="M591 141l-465 219v123l465 206v-123l-349 -145l349 -148v-132zM591 0h-465v107h465v-107z" />
    <glyph glyph-name="greaterequal" unicode="&#x2265;" horiz-adv-x="724" 
d="M598 346l-465 -205v123l348 144l-348 148v133l465 -219v-124zM598 0h-465v107h465v-107z" />
    <glyph glyph-name="yen" unicode="&#xa5;" horiz-adv-x="604" 
d="M601 686l-145 -256h84v-99h-142l-34 -61h176v-99h-176v-171h-129v171h-177v99h176l-31 61h-145v99h89l-144 256h149l149 -285l153 285h147z" />
    <glyph glyph-name="mu" unicode="&#xb5;" horiz-adv-x="597" 
d="M75 500h123v-232c0 -81 4 -112 20 -136c15 -23 44 -38 74 -38c62 0 98 55 98 149v257h122v-349c0 -47 8 -62 34 -62c9 0 14 2 28 8v-98c-23 -6 -45 -9 -66 -9c-57 0 -88 22 -104 79c-26 -58 -56 -79 -112 -79c-46 0 -74 17 -100 58c0 0 3 -235 3 -264h-120v716z" />
    <glyph glyph-name="partialdiff" unicode="&#x2202;" horiz-adv-x="556" 
d="M375 394v10c0 141 -41 209 -126 209c-25 0 -49 -4 -94 -17l-15 103c43 13 90 21 132 21c157 0 230 -109 230 -345c0 -261 -82 -388 -251 -388c-128 0 -214 87 -214 216c0 138 86 232 213 232c49 0 87 -12 125 -41zM367 286c-31 31 -65 46 -102 46
c-62 0 -101 -49 -101 -127c0 -71 37 -116 95 -116c72 0 105 62 108 197z" />
    <glyph glyph-name="summation" unicode="&#x2211;" horiz-adv-x="605" 
d="M581 -122h-554v106l256 314l-256 300v108h554v-118h-389l255 -286l-263 -305h397v-119z" />
    <glyph glyph-name="product" unicode="&#x220f;" horiz-adv-x="725" 
d="M647 -122h-134v711h-303v-711h-132v828h569v-828z" />
    <glyph glyph-name="pi" unicode="&#x3c0;" horiz-adv-x="627" 
d="M41 390v110h532v-103h-54v-231c0 -55 6 -68 59 -68h11v-98c-21 -1 -46 -1 -59 -1c-101 0 -129 49 -129 128v266h-183v-393h-121v390h-56z" />
    <glyph glyph-name="integral" unicode="&#x222b;" horiz-adv-x="359" 
d="M331 704v-109c-21 15 -35 21 -50 21c-21 0 -41 -5 -41 -70v-567c0 -113 -56 -155 -136 -155c-28 0 -49 4 -78 14v109c22 -15 33 -19 48 -19c28 0 39 9 39 75v559c0 89 30 156 142 156c27 0 48 -4 76 -14z" />
    <glyph glyph-name="ordfeminine" unicode="&#xaa;" horiz-adv-x="333" 
d="M302 426h-69c-3 9 -6 13 -7 22c-39 -26 -75 -28 -89 -28c-50 0 -98 31 -98 90c0 97 119 83 183 108v5c0 22 -11 37 -47 37c-41 0 -53 -16 -53 -41l-70 5c2 42 32 90 119 90c35 0 119 -7 119 -79v-165c0 -19 1 -25 12 -44zM220 530v30c-48 -18 -108 -11 -108 -50
c0 -18 15 -29 41 -29c32 0 67 13 67 49z" />
    <glyph glyph-name="ordmasculine" unicode="&#xba;" horiz-adv-x="333" 
d="M24 564c0 83 56 150 145 150c87 0 140 -67 140 -149c0 -68 -42 -150 -144 -150c-87 0 -141 70 -141 149zM238 567c0 35 -17 85 -69 85c-31 0 -72 -23 -72 -87c0 -33 14 -87 70 -87c33 0 71 25 71 89z" />
    <glyph glyph-name="Omega" unicode="&#x2126;" horiz-adv-x="756" 
d="M711 0h-287v108c96 47 128 153 128 270c0 143 -65 231 -170 231c-113 0 -180 -90 -180 -243c0 -94 22 -218 129 -259v-107h-287v106h170c-101 52 -154 151 -154 284c0 197 131 334 320 334c202 0 311 -132 311 -310c0 -137 -53 -251 -155 -308h175v-106z" />
    <glyph glyph-name="ae" unicode="&#xe6;" horiz-adv-x="875" 
d="M846 227h-365c5 -53 31 -135 134 -135c42 0 85 18 121 68l95 -59c-33 -40 -97 -116 -234 -116c-40 0 -100 2 -186 74c-62 -55 -121 -74 -199 -74c-142 0 -183 86 -183 152c0 21 4 62 41 99c34 34 85 54 182 74c41 8 73 14 112 31c0 59 -38 87 -94 87
c-71 0 -100 -35 -100 -81h-116c3 32 16 168 208 168c83 0 134 -22 172 -65c28 25 72 65 163 65c43 0 239 -1 249 -288zM704 313c-12 59 -49 105 -113 105c-16 0 -50 -2 -79 -33c-25 -27 -29 -59 -30 -72h222zM364 240c-52 -21 -83 -24 -137 -35c-10 -2 -71 -13 -71 -66
c0 -29 21 -66 85 -66c58 0 89 33 101 51c17 25 20 56 22 116z" />
    <glyph glyph-name="oslash" unicode="&#xf8;" horiz-adv-x="583" 
d="M565 432l-56 -45c16 -28 38 -66 38 -139c0 -32 -4 -110 -64 -180c-32 -38 -87 -83 -201 -83c-77 0 -123 22 -176 77l-53 -42l-44 59l56 45c-14 24 -35 63 -35 129c0 19 1 54 17 98c20 54 85 164 244 164c97 0 147 -41 177 -68l51 41zM156 196l224 180
c-19 23 -54 41 -89 41c-22 0 -66 -3 -104 -45c-39 -44 -39 -97 -39 -116c0 -13 1 -31 8 -60zM417 313l-225 -180c13 -16 43 -49 100 -49c51 0 84 29 97 43c39 41 40 92 40 114c0 36 -5 56 -12 72z" />
    <glyph glyph-name="questiondown" unicode="&#xbf;" 
d="M204 524h117v-25c0 -42 -3 -113 -28 -148c-41 -59 -129 -68 -129 -154c0 -56 52 -95 105 -95c77 0 118 59 118 131l121 -14c-3 -32 -7 -63 -19 -93c-38 -97 -127 -138 -227 -138c-124 0 -236 74 -236 209c0 82 40 130 112 180c55 38 66 53 66 119v28zM195 706h133v-137
h-133v137z" />
    <glyph glyph-name="exclamdown" unicode="&#xa1;" horiz-adv-x="250" 
d="M171 568h-131v138h131v-138zM171 0h-131v271l38 260h56l37 -260v-271z" />
    <glyph glyph-name="logicalnot" unicode="&#xac;" horiz-adv-x="724" 
d="M635 16h-130v242h-436v109h566v-351z" />
    <glyph glyph-name="radical" unicode="&#x221a;" horiz-adv-x="724" 
d="M664 706l-257 -891h-124l-125 273l-70 -28l-42 102l182 73l110 -256l195 727h131z" />
    <glyph glyph-name="florin" unicode="&#x192;" horiz-adv-x="437" 
d="M290 474h104l-10 -85h-104l-46 -405c-14 -124 -55 -164 -141 -164c-31 0 -71 8 -78 11l12 106c8 -2 17 -5 35 -5c40 0 44 37 50 91l43 366h-77l10 85h77l3 21c18 129 27 191 168 191c25 0 50 -2 74 -5l8 -1l-12 -101c-14 1 -24 2 -39 2c-66 0 -68 -31 -74 -82z" />
    <glyph glyph-name="approxequal" unicode="&#x2248;" horiz-adv-x="724" 
d="M608 513l45 -95c-60 -71 -110 -96 -165 -96c-31 0 -61 10 -121 37l-35 16c-46 21 -75 30 -104 30c-38 0 -58 -13 -112 -77l-44 97c53 70 94 97 158 97c34 0 61 -8 127 -37l51 -22c46 -20 60 -24 79 -24c44 0 73 18 121 74zM608 296l45 -95c-60 -71 -110 -96 -165 -96
c-31 0 -61 10 -121 37l-35 16c-46 21 -75 30 -104 30c-38 0 -58 -13 -112 -77l-44 97c53 70 94 97 158 97c34 0 61 -8 127 -37l51 -22c46 -20 60 -24 79 -24c44 0 73 18 121 74z" />
    <glyph glyph-name="Delta" unicode="&#x2206;" horiz-adv-x="696" 
d="M698 0h-700l275 706h154zM509 119l-162 442l-158 -442h320z" />
    <glyph glyph-name="guillemotleft" unicode="&#xab;" horiz-adv-x="437" 
d="M383 122l-143 112v141l143 114v-114l-86 -71l86 -70v-112zM201 123l-142 111v141l142 112v-112l-88 -72l88 -69v-111z" />
    <glyph glyph-name="guillemotright" unicode="&#xbb;" horiz-adv-x="437" 
d="M377 232l-142 -111v111l87 73l-87 68v112l142 -112v-141zM195 232l-143 -113v113l86 72l-86 69v113l143 -113v-141z" />
    <glyph glyph-name="ellipsis" unicode="&#x2026;" horiz-adv-x="1000" 
d="M890 0h-113v111h113v-111zM556 0h-112v111h112v-111zM222 0h-112v111h112v-111z" />
    <glyph glyph-name="uni00A0" unicode="&#xa0;" horiz-adv-x="288" 
 />
    <glyph glyph-name="Agrave" unicode="&#xc0;" horiz-adv-x="646" 
d="M636 0h-141l-41 138h-265l-41 -138h-142l239 706h150zM419 254l-97 325l-98 -325h195zM382 774h-90l-107 121h142z" />
    <glyph glyph-name="Atilde" unicode="&#xc3;" horiz-adv-x="646" 
d="M636 0h-141l-41 138h-265l-41 -138h-142l239 706h150zM419 254l-97 325l-98 -325h195zM416 895h76c-4 -57 -12 -127 -93 -127c-54 0 -93 37 -132 37c-22 0 -27 -19 -29 -36h-75c5 53 22 125 96 125c52 0 97 -35 128 -35c24 0 27 21 29 36z" />
    <glyph glyph-name="Otilde" unicode="&#xd5;" horiz-adv-x="771" 
d="M48 352c0 207 135 372 339 372c215 0 338 -176 338 -367c0 -160 -87 -375 -341 -375c-208 0 -336 172 -336 370zM184 357c0 -110 53 -252 204 -252c105 0 204 81 204 241c0 126 -66 257 -206 257c-116 0 -202 -91 -202 -246zM478 895h76c-4 -57 -12 -127 -93 -127
c-54 0 -93 37 -132 37c-22 0 -27 -19 -29 -36h-75c5 53 22 125 96 125c52 0 97 -35 128 -35c24 0 27 21 29 36z" />
    <glyph glyph-name="OE" unicode="&#x152;" horiz-adv-x="1104" 
d="M1077 0h-526l-1 25c-31 -17 -85 -43 -171 -43c-163 0 -332 120 -332 357c0 245 168 385 344 385c80 0 134 -32 160 -48v30h504v-120h-373v-169h325v-114h-325v-184h395v-119zM551 188v313c-18 78 -111 98 -156 98c-37 0 -207 -20 -207 -258c0 -119 60 -242 210 -242
c87 0 142 43 153 89z" />
    <glyph glyph-name="oe" unicode="&#x153;" horiz-adv-x="917" 
d="M885 221h-359c7 -73 56 -129 131 -129c28 0 80 10 120 68l97 -59c-61 -78 -129 -116 -225 -116c-103 0 -141 38 -185 90c-47 -65 -113 -90 -185 -90c-157 0 -245 110 -245 260c0 158 102 270 249 270c97 0 151 -48 177 -74c73 66 130 74 176 74c146 0 249 -110 249 -294z
M526 306h220c-9 40 -32 105 -111 105c-28 0 -92 -11 -109 -105zM411 246c0 75 -42 157 -130 157c-87 0 -126 -78 -126 -154c0 -50 20 -155 128 -155c96 0 128 86 128 152z" />
    <glyph glyph-name="endash" unicode="&#x2013;" horiz-adv-x="610" 
d="M569 247h-528v113h528v-113z" />
    <glyph glyph-name="emdash" unicode="&#x2014;" horiz-adv-x="893" 
d="M852 247h-811v113h811v-113z" />
    <glyph glyph-name="quotedblleft" unicode="&#x201c;" horiz-adv-x="375" 
d="M338 436h-130v152c0 42 8 69 42 95c24 18 52 26 81 28v-53c-49 -19 -55 -29 -55 -84h62v-138zM167 436h-130v145c0 83 41 118 121 134v-56c-51 -21 -51 -33 -51 -85h60v-138z" />
    <glyph glyph-name="quotedblright" unicode="&#x201d;" horiz-adv-x="375" 
d="M338 706v-143c0 -84 -40 -122 -122 -137v56c51 16 52 37 52 85h-60v139h130zM167 706v-143c0 -84 -40 -122 -122 -137v56c51 16 52 37 52 85h-60v139h130z" />
    <glyph glyph-name="quoteleft" unicode="&#x2018;" horiz-adv-x="208" 
d="M169 433h-133v164c0 50 40 100 125 112v-59c-46 -5 -54 -41 -54 -80h62v-137z" />
    <glyph glyph-name="quoteright" unicode="&#x2019;" horiz-adv-x="208" 
d="M39 706h131v-149c0 -76 -53 -118 -124 -128v56c34 15 53 26 53 68v16h-60v137z" />
    <glyph glyph-name="divide" unicode="&#xf7;" horiz-adv-x="724" 
d="M423 429h-122v135h122v-135zM645 257h-566v112h566v-112zM422 62h-121v134h121v-134z" />
    <glyph glyph-name="lozenge" unicode="&#x25ca;" horiz-adv-x="724" 
d="M607 353l-183 -353h-124l-183 353l186 353h124zM485 354l-119 247l-125 -248l119 -246z" />
    <glyph glyph-name="ydieresis" unicode="&#xff;" horiz-adv-x="479" 
d="M347 500h123l-133 -456c-18 -63 -43 -152 -85 -186c-31 -25 -63 -30 -102 -30c-38 0 -52 3 -71 7v104c12 -2 23 -2 33 -2c66 0 77 40 81 53l-181 510h129l112 -373zM398 587h-115v119h115v-119zM196 587h-113v119h113v-119z" />
    <glyph glyph-name="Ydieresis" unicode="&#x178;" horiz-adv-x="625" 
d="M615 706l-238 -427v-279h-131v279l-236 427h150l153 -292l154 292h148zM471 772h-114v123h114v-123zM269 772h-112v123h112v-123z" />
    <glyph glyph-name="fraction" unicode="&#x2044;" horiz-adv-x="125" 
d="M-60 -37l-69 31l315 684l68 -32z" />
    <glyph glyph-name="Euro" unicode="&#x20ac;" horiz-adv-x="698" 
d="M663 621l-46 -133c-47 61 -96 90 -174 90c-94 0 -163 -51 -188 -142h345l-27 -72h-328c-1 -6 -1 -13 -1 -19c0 -7 0 -14 1 -21h316l-27 -72h-280c27 -96 92 -151 193 -151c74 0 146 33 195 88v-149c-63 -43 -135 -61 -210 -61c-179 0 -287 101 -323 273h-78l27 72h43
l2 40h-72l27 72h53c38 164 157 259 325 259c90 0 156 -17 227 -74z" />
    <glyph glyph-name="guilsinglleft" unicode="&#x2039;" horiz-adv-x="250" 
d="M198 122l-142 112v141l142 114v-114l-86 -71l86 -70v-112z" />
    <glyph glyph-name="guilsinglright" unicode="&#x203a;" horiz-adv-x="250" 
d="M192 232l-142 -113v113l86 72l-86 69v113l142 -113v-141z" />
    <glyph glyph-name="daggerdbl" unicode="&#x2021;" horiz-adv-x="500" 
d="M472 427h-162v-197h159v-102h-161v-175h-118v176h-161v101h163v198h-163v102h163v176h119v-176h161v-103z" />
    <glyph glyph-name="periodcentered" unicode="&#xb7;" horiz-adv-x="219" 
d="M176 217h-133v146h133v-146z" />
    <glyph glyph-name="quotesinglbase" unicode="&#x201a;" horiz-adv-x="208" 
d="M37 0v137h133v-155c0 -76 -53 -106 -125 -121v58c46 5 54 42 54 81h-62z" />
    <glyph glyph-name="quotedblbase" unicode="&#x201e;" horiz-adv-x="375" 
d="M338 139v-143c0 -84 -40 -122 -122 -137v56c51 16 52 37 52 85h-60v139h130zM167 139v-143c0 -84 -40 -122 -122 -137v56c51 16 52 37 52 85h-60v139h130z" />
    <glyph glyph-name="perthousand" unicode="&#x2030;" horiz-adv-x="1250" 
d="M621 646l-314 -683l-69 31l315 684zM25 453c0 171 78 228 166 228c89 0 161 -62 161 -225c0 -115 -36 -231 -165 -231c-75 0 -162 43 -162 228zM116 446c0 -101 24 -143 73 -143c47 0 72 39 72 147c0 88 -14 155 -72 155c-68 0 -73 -92 -73 -159zM524 221
c0 171 78 228 166 228c89 0 161 -62 161 -225c0 -115 -36 -231 -165 -231c-75 0 -162 43 -162 228zM615 214c0 -101 24 -143 73 -143c47 0 72 39 72 147c0 88 -14 155 -72 155c-68 0 -73 -92 -73 -159zM899 221c0 171 78 228 166 228c89 0 161 -62 161 -225
c0 -115 -36 -231 -165 -231c-75 0 -162 43 -162 228zM990 214c0 -101 24 -143 73 -143c47 0 72 39 72 147c0 88 -14 155 -72 155c-68 0 -73 -92 -73 -159z" />
    <glyph glyph-name="Acircumflex" unicode="&#xc2;" horiz-adv-x="646" 
d="M636 0h-141l-41 138h-265l-41 -138h-142l239 706h150zM419 254l-97 325l-98 -325h195zM487 773h-121l-43 56l-42 -56h-117l101 122h117z" />
    <glyph glyph-name="Ecircumflex" unicode="&#xca;" horiz-adv-x="625" 
d="M605 0h-527v706h502v-118h-372v-166h341v-114h-341v-189h397v-119zM477 773h-121l-43 56l-42 -56h-117l101 122h117z" />
    <glyph glyph-name="Aacute" unicode="&#xc1;" horiz-adv-x="646" 
d="M636 0h-141l-41 138h-265l-41 -138h-142l239 706h150zM419 254l-97 325l-98 -325h195zM464 895l-108 -120h-89l54 120h143z" />
    <glyph glyph-name="Edieresis" unicode="&#xcb;" horiz-adv-x="625" 
d="M605 0h-527v706h502v-118h-372v-166h341v-114h-341v-189h397v-119zM471 772h-114v123h114v-123zM269 772h-112v123h112v-123z" />
    <glyph glyph-name="Egrave" unicode="&#xc8;" horiz-adv-x="625" 
d="M605 0h-527v706h502v-118h-372v-166h341v-114h-341v-189h397v-119zM371 774h-90l-107 121h142z" />
    <glyph glyph-name="Iacute" unicode="&#xcd;" horiz-adv-x="292" 
d="M210 0h-130v706h130v-706zM287 895l-108 -120h-89l54 120h143z" />
    <glyph glyph-name="Icircumflex" unicode="&#xce;" horiz-adv-x="292" 
d="M210 0h-130v706h130v-706zM310 773h-121l-43 56l-42 -56h-117l101 122h117z" />
    <glyph glyph-name="Idieresis" unicode="&#xcf;" horiz-adv-x="292" 
d="M210 0h-130v706h130v-706zM304 772h-114v123h114v-123zM102 772h-112v123h112v-123z" />
    <glyph glyph-name="Igrave" unicode="&#xcc;" horiz-adv-x="292" 
d="M210 0h-130v706h130v-706zM205 774h-90l-107 121h142z" />
    <glyph glyph-name="Oacute" unicode="&#xd3;" horiz-adv-x="771" 
d="M48 352c0 207 135 372 339 372c215 0 338 -176 338 -367c0 -160 -87 -375 -341 -375c-208 0 -336 172 -336 370zM184 357c0 -110 53 -252 204 -252c105 0 204 81 204 241c0 126 -66 257 -206 257c-116 0 -202 -91 -202 -246zM527 895l-108 -120h-89l54 120h143z" />
    <glyph glyph-name="Ocircumflex" unicode="&#xd4;" horiz-adv-x="771" 
d="M48 352c0 207 135 372 339 372c215 0 338 -176 338 -367c0 -160 -87 -375 -341 -375c-208 0 -336 172 -336 370zM184 357c0 -110 53 -252 204 -252c105 0 204 81 204 241c0 126 -66 257 -206 257c-116 0 -202 -91 -202 -246zM549 773h-121l-43 56l-42 -56h-117l101 122
h117z" />
    <glyph glyph-name="Ograve" unicode="&#xd2;" horiz-adv-x="771" 
d="M48 352c0 207 135 372 339 372c215 0 338 -176 338 -367c0 -160 -87 -375 -341 -375c-208 0 -336 172 -336 370zM184 357c0 -110 53 -252 204 -252c105 0 204 81 204 241c0 126 -66 257 -206 257c-116 0 -202 -91 -202 -246zM444 774h-90l-107 121h142z" />
    <glyph glyph-name="Uacute" unicode="&#xda;" horiz-adv-x="729" 
d="M649 706v-437c0 -60 -1 -90 -12 -125c-23 -71 -104 -162 -277 -162c-113 0 -232 44 -269 160c-11 36 -11 69 -11 144v420h133v-434c0 -42 0 -57 7 -78c13 -42 51 -84 145 -84c17 0 114 0 143 80c8 23 9 42 9 89v427h132zM506 895l-108 -120h-89l54 120h143z" />
    <glyph glyph-name="Ucircumflex" unicode="&#xdb;" horiz-adv-x="729" 
d="M649 706v-437c0 -60 -1 -90 -12 -125c-23 -71 -104 -162 -277 -162c-113 0 -232 44 -269 160c-11 36 -11 69 -11 144v420h133v-434c0 -42 0 -57 7 -78c13 -42 51 -84 145 -84c17 0 114 0 143 80c8 23 9 42 9 89v427h132zM529 773h-121l-43 56l-42 -56h-117l101 122h117z
" />
    <glyph glyph-name="Ugrave" unicode="&#xd9;" horiz-adv-x="729" 
d="M649 706v-437c0 -60 -1 -90 -12 -125c-23 -71 -104 -162 -277 -162c-113 0 -232 44 -269 160c-11 36 -11 69 -11 144v420h133v-434c0 -42 0 -57 7 -78c13 -42 51 -84 145 -84c17 0 114 0 143 80c8 23 9 42 9 89v427h132zM423 774h-90l-107 121h142z" />
    <glyph glyph-name="dotlessi" unicode="&#x131;" horiz-adv-x="250" 
d="M184 0h-119v500h119v-500z" />
    <glyph glyph-name="circumflex" unicode="&#x2c6;" horiz-adv-x="271" 
d="M306 572h-123l-47 67l-50 -67h-121l111 134h118z" />
    <glyph glyph-name="tilde" unicode="&#x2dc;" horiz-adv-x="271" 
d="M222 706h76c-2 -57 -21 -123 -90 -123c-46 0 -98 39 -131 39c-21 0 -27 -19 -29 -38h-75c0 55 21 126 94 126c37 0 97 -37 125 -37c20 0 25 14 30 33z" />
    <glyph glyph-name="macron" unicode="&#xaf;" horiz-adv-x="271" 
d="M306 586h-341v90h341v-90z" />
    <glyph glyph-name="breve" unicode="&#x2d8;" horiz-adv-x="271" 
d="M196 706h87c-11 -42 -37 -131 -151 -131c-110 0 -136 97 -144 131h88c4 -20 13 -53 61 -53c47 0 55 36 59 53z" />
    <glyph glyph-name="dotaccent" unicode="&#x2d9;" horiz-adv-x="271" 
d="M203 586h-135v120h135v-120z" />
    <glyph glyph-name="ring" unicode="&#x2da;" horiz-adv-x="271" 
d="M237 662c0 -57 -46 -102 -101 -102c-56 0 -102 45 -102 102c0 56 46 101 102 101c74 0 101 -66 101 -101zM177 661c0 24 -19 42 -42 42c-28 0 -42 -23 -42 -42c0 -23 19 -42 42 -42c24 0 42 20 42 42z" />
    <glyph glyph-name="cedilla" unicode="&#xb8;" horiz-adv-x="271" 
d="M135 12h45l-45 -58h7c80 0 94 -42 94 -64c0 -33 -21 -76 -155 -76c-14 0 -27 0 -41 1v31s13 -1 18 -1c25 0 63 2 63 26c0 21 -32 24 -66 24c-7 0 -14 -1 -20 -2v15z" />
    <glyph glyph-name="hungarumlaut" unicode="&#x2dd;" horiz-adv-x="271" 
d="M142 706l-96 -132h-83l52 132h127zM308 706l-96 -132h-83l52 132h127z" />
    <glyph glyph-name="ogonek" unicode="&#x2db;" horiz-adv-x="271" 
d="M107 6h84c-37 -43 -48 -56 -48 -79c0 -29 29 -32 46 -32h37v-92h-83c-69 0 -99 42 -99 78c0 33 13 67 63 125z" />
    <glyph glyph-name="caron" unicode="&#x2c7;" horiz-adv-x="271" 
d="M305 706l-112 -134h-115l-112 134h121l48 -64l49 64h121z" />
    <glyph glyph-name="currency" unicode="&#xa4;" horiz-adv-x="666" 
d="M564 640l71 -71l-78 -77c36 -57 48 -97 48 -153c0 -57 -14 -101 -49 -155l78 -78l-71 -70l-78 78c-60 -36 -95 -47 -153 -47c-59 0 -99 12 -153 48l-78 -77l-70 70l78 77c-34 49 -49 95 -49 154s13 101 49 154l-77 76l70 70l77 -76c48 34 96 49 155 49
c57 0 103 -15 152 -49zM497 337c0 95 -71 168 -164 168s-164 -72 -164 -165c0 -94 72 -166 166 -166c90 0 162 72 162 163z" />
    <glyph glyph-name="afii61289" unicode="&#x2113;" horiz-adv-x="533" 
d="M450 165l59 -65c-72 -78 -125 -109 -209 -109c-117 0 -182 61 -188 175c-13 -9 -19 -12 -48 -31l-38 81c45 28 56 36 87 57v177c0 94 9 134 42 175c30 38 80 60 140 60c99 0 163 -59 163 -153c0 -63 -23 -112 -77 -170c-42 -46 -69 -69 -146 -128v-21
c0 -82 30 -122 94 -122c40 0 74 21 121 74zM232 346c75 73 114 130 114 178c0 41 -20 65 -54 65c-36 0 -60 -22 -60 -97v-146z" />
    <glyph glyph-name="estimated" unicode="&#x212e;" horiz-adv-x="798" 
d="M772 293h-596c20 -129 112 -197 234 -197c87 0 158 42 215 130l124 -50c-82 -126 -197 -189 -345 -189c-218 0 -371 146 -371 355c0 204 148 344 363 344c140 0 253 -57 317 -160c42 -67 52 -117 59 -233zM180 410h440c-23 109 -109 172 -223 172
c-112 0 -204 -73 -217 -172z" />
    <glyph glyph-name="acute.cap" horiz-adv-x="271" 
d="M234 895l-108 -120h-89l54 120h143z" />
    <glyph glyph-name="breve.cap" horiz-adv-x="271" 
d="M203 892h87c-7 -33 -44 -121 -158 -121c-110 0 -147 97 -150 121h88c1 -11 22 -43 67 -43s65 35 66 43z" />
    <glyph glyph-name="caron.cap" horiz-adv-x="271" 
d="M297 895l-100 -124h-118l-104 124h119l43 -57l42 57h118z" />
    <glyph glyph-name="cedilla.cap" horiz-adv-x="271" 
d="M135 12h45l-45 -58h7c80 0 94 -42 94 -64c0 -33 -21 -76 -155 -76c-14 0 -27 0 -41 1v31s13 -1 18 -1c25 0 63 2 63 26c0 21 -32 24 -66 24c-7 0 -14 -1 -20 -2v15z" />
    <glyph glyph-name="circumflex.cap" horiz-adv-x="271" 
d="M297 773h-121l-43 56l-42 -56h-117l101 122h117z" />
    <glyph glyph-name="commaaccent" horiz-adv-x="271" 
d="M88 -38h95v-55c0 -77 -67 -82 -90 -84v33c22 2 29 18 29 31h-34v75z" />
    <glyph glyph-name="dieresis.cap" horiz-adv-x="271" 
d="M293 772h-114v123h114v-123zM91 772h-112v123h112v-123z" />
    <glyph glyph-name="dotaccent.cap" horiz-adv-x="271" 
d="M203 772h-135v123h135v-123z" />
    <glyph glyph-name="grave.cap" horiz-adv-x="271" 
d="M234 774h-90l-107 121h142z" />
    <glyph glyph-name="hungarumlaut.cap" horiz-adv-x="271" 
d="M136 895l-95 -120h-81l56 120h120zM311 895l-95 -120h-81l56 120h120z" />
    <glyph glyph-name="macron.cap" horiz-adv-x="271" 
d="M306 772h-341v90h341v-90z" />
    <glyph glyph-name="ring.cap" horiz-adv-x="271" 
d="M237 861c0 -56 -45 -101 -102 -101c-56 0 -101 45 -101 102c0 55 45 101 102 101c56 0 101 -47 101 -102zM177 862c0 23 -19 41 -42 41s-42 -19 -42 -42s21 -42 43 -42c23 0 41 20 41 43z" />
    <glyph glyph-name="tilde.cap" horiz-adv-x="271" 
d="M224 895h76c-4 -57 -12 -127 -93 -127c-54 0 -93 37 -132 37c-22 0 -27 -19 -29 -36h-75c5 53 22 125 96 125c52 0 97 -35 128 -35c24 0 27 21 29 36z" />
    <glyph glyph-name="caron.alt" horiz-adv-x="271" 
d="M88 706h94v-88c0 -90 -69 -102 -94 -103v37c38 11 38 31 38 56h-38v98z" />
    <glyph glyph-name="Eth" unicode="&#xd0;" horiz-adv-x="708" 
d="M71 706h232c75 0 110 -3 147 -14c116 -35 219 -146 219 -343c0 -106 -32 -270 -190 -327c-57 -21 -115 -22 -171 -22h-237v326h-68v90h68v290zM203 587v-171h154v-90h-154v-207h56c72 0 115 2 147 11c83 22 123 88 123 217c0 81 -18 194 -131 229c-30 9 -67 11 -96 11
h-99z" />
    <glyph glyph-name="eth" unicode="&#xf0;" horiz-adv-x="583" 
d="M501 684l20 -53l-76 -21c13 -21 29 -45 50 -89c19 -39 55 -131 55 -239c0 -170 -82 -297 -257 -297c-205 0 -258 172 -258 270c0 168 122 261 240 261c53 0 78 -17 102 -38c-11 47 -37 83 -50 100l-163 -44l-19 53l143 39c-18 16 -33 33 -48 47l112 48
c23 -21 36 -39 57 -62zM160 253c0 -77 43 -158 137 -158c91 0 127 82 127 153c0 105 -68 159 -131 159c-94 0 -133 -77 -133 -154z" />
    <glyph glyph-name="Lslash" unicode="&#x141;" horiz-adv-x="521" 
d="M495 0h-413v145l-54 -60v132l54 62v427h133v-276l138 155v-136l-138 -156v-173h280v-120z" />
    <glyph glyph-name="lslash" unicode="&#x142;" horiz-adv-x="250" 
d="M237 487l-50 -56v-431h-122v295l-53 -57v113l53 60v295h122v-158l50 54v-115z" />
    <glyph glyph-name="Scaron" unicode="&#x160;" horiz-adv-x="667" 
d="M625 581l-109 -81c-22 36 -73 105 -184 105c-30 0 -132 -11 -132 -86c0 -55 54 -68 129 -84l74 -16c111 -24 229 -67 229 -209c0 -175 -174 -228 -300 -228c-118 0 -246 42 -309 151l111 77c31 -46 89 -106 219 -106c77 0 136 32 136 93c0 58 -47 71 -136 91l-90 20
c-90 20 -202 58 -202 196c0 125 101 220 279 220c63 0 187 -10 285 -143zM494 895l-100 -124h-118l-104 124h119l43 -57l42 57h118z" />
    <glyph glyph-name="scaron" unicode="&#x161;" horiz-adv-x="521" 
d="M474 422l-85 -79c-27 53 -78 76 -136 76c-23 0 -83 -7 -83 -52c0 -33 30 -43 102 -56l81 -15c76 -14 134 -59 134 -140c0 -92 -87 -171 -225 -171s-212 61 -240 90l90 73c24 -32 69 -64 144 -64c72 0 98 37 98 59c0 29 -28 40 -74 48l-62 11c-39 7 -174 32 -174 150
c0 99 95 163 215 163c39 0 140 -6 215 -93zM432 706l-112 -134h-115l-112 134h121l48 -64l49 64h121z" />
    <glyph glyph-name="Yacute" unicode="&#xdd;" horiz-adv-x="625" 
d="M615 706l-238 -427v-279h-131v279l-236 427h150l153 -292l154 292h148zM454 895l-108 -120h-89l54 120h143z" />
    <glyph glyph-name="yacute" unicode="&#xfd;" horiz-adv-x="479" 
d="M347 500h123l-133 -456c-18 -63 -43 -152 -85 -186c-31 -25 -63 -30 -102 -30c-38 0 -52 3 -71 7v104c12 -2 23 -2 33 -2c66 0 77 40 81 53l-181 510h129l112 -373zM387 706l-108 -133h-91l50 133h149z" />
    <glyph glyph-name="Thorn" unicode="&#xde;" horiz-adv-x="625" 
d="M82 706h132v-100h106c73 0 168 -1 238 -87c49 -59 49 -129 49 -144c0 -45 -9 -97 -39 -141c-61 -88 -159 -94 -227 -94h-127v-140h-132v706zM214 493v-245h111c104 0 146 46 146 129c0 86 -58 116 -143 116h-114z" />
    <glyph glyph-name="thorn" unicode="&#xfe;" horiz-adv-x="583" 
d="M64 -163v869h120v-251c29 29 67 60 135 60c158 0 229 -145 229 -269c0 -125 -74 -261 -227 -261c-69 0 -108 30 -137 56v-204h-120zM182 246c0 -99 61 -147 122 -147c57 0 121 41 121 150c0 107 -65 151 -122 151c-58 0 -121 -44 -121 -154z" />
    <glyph glyph-name="Zcaron" unicode="&#x17d;" horiz-adv-x="604" 
d="M575 0h-551v108l386 480h-353v118h518v-112l-371 -475h371v-119zM463 895l-100 -124h-118l-104 124h119l43 -57l42 57h118z" />
    <glyph glyph-name="zcaron" unicode="&#x17e;" horiz-adv-x="500" 
d="M459 0h-428v92l270 301h-243v107h401v-93l-264 -301h264v-106zM421 706l-112 -134h-115l-112 134h121l48 -64l49 64h121z" />
    <glyph glyph-name="onehalf" unicode="&#xbd;" horiz-adv-x="875" 
d="M838 0h-302v67c183 123 200 211 200 241c0 49 -33 62 -54 62c-62 0 -55 -62 -61 -100l-86 6c0 30 3 173 150 173c120 0 144 -91 144 -139c0 -79 -40 -129 -179 -239h188v-71zM298 -37l-69 31l315 684l68 -32zM257 233h-85v274c0 18 -4 27 -45 27h-63v61h21
c19 0 93 1 101 85h71v-447z" />
    <glyph glyph-name="onequarter" unicode="&#xbc;" horiz-adv-x="875" 
d="M855 99h-59v-99h-80v101h-194v63l194 278h83v-271h56v-72zM307 -37l-69 31l315 684l68 -32zM611 172h108c0 20 0 73 2 169zM257 233h-85v274c0 18 -4 27 -45 27h-63v61h21c19 0 93 1 101 85h71v-447z" />
    <glyph glyph-name="onesuperior" unicode="&#xb9;" horiz-adv-x="375" 
d="M257 233h-85v274c0 18 -4 27 -45 27h-63v61h21c19 0 93 1 101 85h71v-447z" />
    <glyph glyph-name="threequarters" unicode="&#xbe;" horiz-adv-x="875" 
d="M331 -37l-69 31l315 684l67 -32zM145 431v71h30c14 0 63 1 63 49c0 31 -20 54 -58 54c-48 0 -58 -38 -63 -73l-85 19c14 98 91 130 156 130c99 0 139 -69 139 -121c0 -11 0 -69 -72 -91c34 -12 81 -30 81 -103c0 -94 -75 -141 -157 -141c-64 0 -158 29 -158 144v11h87v-4
c0 -17 5 -78 72 -78c40 0 67 29 67 70c0 62 -66 63 -77 63h-25zM855 99h-59v-99h-80v101h-194v63l194 278h83v-271h56v-72zM611 172h108c0 20 0 73 2 169z" />
    <glyph glyph-name="threesuperior" unicode="&#xb3;" horiz-adv-x="375" 
d="M145 431v71h30c14 0 63 1 63 49c0 31 -20 54 -58 54c-48 0 -58 -38 -63 -73l-85 19c14 98 91 130 156 130c99 0 139 -69 139 -121c0 -11 0 -69 -72 -91c34 -12 81 -30 81 -103c0 -94 -75 -141 -157 -141c-64 0 -158 29 -158 144v11h87v-4c0 -17 5 -78 72 -78
c40 0 67 29 67 70c0 62 -66 63 -77 63h-25z" />
    <glyph glyph-name="twosuperior" unicode="&#xb2;" horiz-adv-x="375" 
d="M338 233h-302v66c190 131 200 212 200 242c0 49 -33 62 -54 62c-63 0 -58 -68 -61 -101l-87 7l1 11c3 39 12 161 150 161c82 0 144 -48 144 -137c0 -102 -82 -164 -178 -240h187v-71z" />
    <glyph glyph-name="brokenbar" unicode="&#xa6;" horiz-adv-x="247" 
d="M178 376h-109v402h109v-402zM178 -144h-109v401h109v-401z" />
    <glyph glyph-name="minus" unicode="&#x2212;" horiz-adv-x="724" 
d="M645 256h-565v113h565v-113z" />
    <glyph glyph-name="multiply" unicode="&#xd7;" horiz-adv-x="724" 
d="M604 174l-91 -93l-155 150l-142 -147l-76 74l142 147l-153 149l90 93l154 -149l142 147l76 -74l-142 -147z" />
    <glyph glyph-name="uni00AD" unicode="&#xad;" horiz-adv-x="372" 
d="M330 247h-289v113h289v-113z" />
    <glyph glyph-name="uni03BC" unicode="&#x3bc;" horiz-adv-x="597" 
d="M75 500h123v-232c0 -81 4 -112 20 -136c15 -23 44 -38 74 -38c62 0 98 55 98 149v257h122v-349c0 -47 8 -62 34 -62c9 0 14 2 28 8v-98c-23 -6 -45 -9 -66 -9c-57 0 -88 22 -104 79c-26 -58 -56 -79 -112 -79c-46 0 -74 17 -100 58c0 0 3 -235 3 -264h-120v716z" />
    <glyph glyph-name="uni03A9" unicode="&#x3a9;" horiz-adv-x="756" 
d="M711 0h-287v108c96 47 128 153 128 270c0 143 -65 231 -170 231c-113 0 -180 -90 -180 -243c0 -94 22 -218 129 -259v-107h-287v106h170c-101 52 -154 151 -154 284c0 197 131 334 320 334c202 0 311 -132 311 -310c0 -137 -53 -251 -155 -308h175v-106z" />
    <glyph glyph-name="uni0394" unicode="&#x394;" horiz-adv-x="696" 
d="M698 0h-700l275 706h154zM509 119l-162 442l-158 -442h320z" />
    <glyph glyph-name="uni2215" unicode="&#x2215;" horiz-adv-x="125" 
d="M-60 -37l-69 31l315 684l68 -32z" />
    <glyph glyph-name="uni2219" unicode="&#x2219;" horiz-adv-x="219" 
d="M176 217h-133v146h133v-146z" />
    <glyph glyph-name="uni02C9" unicode="&#x2c9;" horiz-adv-x="271" 
d="M306 586h-341v90h341v-90z" />
    <glyph glyph-name="uni037E" unicode="&#x37e;" horiz-adv-x="250" 
d="M211 371h-133v138h133v-138zM78 137h133v-146c0 -85 -48 -112 -126 -131v60c41 5 55 32 55 70v10h-62v137z" />
    <glyph glyph-name="zero.tab" 
d="M529 340c0 -277 -130 -349 -248 -349c-235 0 -245 239 -245 350c0 247 106 345 251 345c127 0 242 -88 242 -346zM165 334c0 -75 0 -232 118 -232c96 0 116 96 116 236c0 97 -4 237 -114 237c-101 0 -120 -115 -120 -241z" />
    <glyph glyph-name="one.tab" 
d="M363 0h-123v415c0 46 -22 54 -49 54h-116v77h13c43 0 80 1 117 28c36 26 48 60 58 101h100v-675z" />
    <glyph glyph-name="two.tab" 
d="M57 0v98c116 83 200 167 236 207c16 18 73 80 73 165c0 55 -29 101 -89 101c-92 0 -95 -92 -95 -144v-13l-125 12v5c0 85 26 140 48 170c22 31 81 85 183 85c80 0 130 -34 153 -55c44 -39 63 -99 63 -157c0 -20 -2 -62 -26 -112c-40 -84 -118 -143 -186 -201
c-24 -20 -47 -40 -72 -57h296v-104h-459z" />
    <glyph glyph-name="three.tab" 
d="M239 305v105h43c30 0 60 3 79 31c14 20 14 41 14 48c0 50 -35 86 -86 86c-18 0 -94 -5 -97 -113l-132 28c5 47 48 196 233 196c59 0 215 -27 215 -179c0 -27 -5 -117 -112 -145c60 -12 128 -58 128 -163c0 -138 -115 -208 -242 -208c-19 0 -117 2 -175 61
c-60 60 -60 148 -60 169h133c-1 -3 -2 -13 -2 -23c0 -14 7 -98 106 -98c75 0 106 56 106 107c0 10 -1 36 -18 60c-22 32 -57 38 -93 38h-40z" />
    <glyph glyph-name="four.tab" 
d="M523 155h-87v-155h-123v155h-296v88l296 432h123v-417h87v-103zM146 258h167c0 15 7 268 7 268z" />
    <glyph glyph-name="five.tab" 
d="M480 677l-10 -113h-262l-23 -149c33 42 109 50 130 50c29 0 94 -4 147 -63c41 -45 57 -101 57 -161c0 -91 -35 -142 -60 -170c-68 -77 -157 -80 -192 -80c-21 0 -96 1 -155 46c-51 40 -71 93 -75 152l139 9c2 -58 38 -99 97 -99c85 0 110 77 110 136
c0 48 -23 127 -112 127c-18 0 -79 -5 -101 -63l-112 7l47 371h375z" />
    <glyph glyph-name="six.tab" 
d="M505 517l-128 -17c0 49 -38 76 -79 76c-27 0 -71 -11 -95 -70c-15 -36 -23 -102 -24 -139c26 38 76 68 142 68c97 0 192 -70 192 -210c0 -124 -82 -234 -227 -234c-155 0 -238 119 -238 327c0 22 0 150 46 242c60 119 168 126 204 126c24 0 90 -3 145 -50
c49 -42 58 -95 62 -119zM387 213c0 63 -36 109 -96 109c-66 0 -101 -50 -101 -110c0 -76 42 -109 98 -109c19 0 99 3 99 110z" />
    <glyph glyph-name="seven.tab" 
d="M64 677h448v-110c-24 -29 -46 -60 -67 -92c-57 -89 -90 -165 -120 -265c-20 -69 -34 -139 -40 -210h-165c38 287 191 474 249 559h-305v118z" />
    <glyph glyph-name="eight.tab" 
d="M427 354c51 -28 104 -72 104 -159c0 -118 -100 -204 -252 -204c-86 0 -250 39 -250 203c0 83 50 134 111 160c-37 16 -87 63 -87 146c0 112 96 186 233 186c139 0 229 -76 229 -191c0 -92 -58 -126 -88 -141zM384 485c0 50 -30 91 -101 91c-47 0 -102 -18 -102 -91
c0 -65 49 -88 103 -88c79 0 100 48 100 88zM397 199c0 69 -55 98 -113 98c-68 0 -114 -37 -114 -99s47 -95 115 -95c60 0 112 30 112 96z" />
    <glyph glyph-name="nine.tab" 
d="M50 162l137 19c6 -39 24 -79 82 -79c89 0 110 125 110 193v5c-30 -42 -85 -59 -135 -59c-123 0 -194 85 -194 212c0 124 79 233 229 233c172 0 238 -144 238 -317c0 -174 -56 -378 -264 -378c-97 0 -186 56 -203 171zM180 465c0 -60 28 -116 95 -116c63 0 94 45 94 117
c0 70 -42 111 -95 111c-65 0 -94 -59 -94 -112z" />
    <glyph glyph-name="Amacron" unicode="&#x100;" horiz-adv-x="646" 
d="M636 0h-141l-41 138h-265l-41 -138h-142l239 706h150zM419 254l-97 325l-98 -325h195zM491 772h-341v90h341v-90z" />
    <glyph glyph-name="amacron" unicode="&#x101;" horiz-adv-x="542" 
d="M500 0h-142l-3 39c-33 -26 -86 -51 -147 -51c-114 0 -182 69 -182 153c0 109 83 152 178 169c75 14 122 26 154 37c0 38 -11 75 -86 75c-91 0 -101 -49 -101 -75l-122 7c2 33 9 161 219 161c147 0 210 -54 210 -142v-292c0 -38 2 -49 22 -81zM358 182v67
c-20 -10 -49 -21 -95 -28c-55 -8 -110 -19 -110 -69c0 -33 22 -61 82 -61c55 0 123 28 123 91zM443 586h-341v90h341v-90z" />
    <glyph glyph-name="Abreve" unicode="&#x102;" horiz-adv-x="646" 
d="M636 0h-141l-41 138h-265l-41 -138h-142l239 706h150zM419 254l-97 325l-98 -325h195zM388 892h87c-7 -33 -44 -121 -158 -121c-110 0 -147 97 -150 121h88c1 -11 22 -43 67 -43s65 35 66 43z" />
    <glyph glyph-name="abreve" unicode="&#x103;" horiz-adv-x="542" 
d="M500 0h-142l-3 39c-33 -26 -86 -51 -147 -51c-114 0 -182 69 -182 153c0 109 83 152 178 169c75 14 122 26 154 37c0 38 -11 75 -86 75c-91 0 -101 -49 -101 -75l-122 7c2 33 9 161 219 161c147 0 210 -54 210 -142v-292c0 -38 2 -49 22 -81zM358 182v67
c-20 -10 -49 -21 -95 -28c-55 -8 -110 -19 -110 -69c0 -33 22 -61 82 -61c55 0 123 28 123 91zM329 706h87c-11 -42 -37 -131 -151 -131c-110 0 -136 97 -144 131h88c4 -20 13 -53 61 -53c47 0 55 36 59 53z" />
    <glyph glyph-name="Aogonek" unicode="&#x104;" horiz-adv-x="646" 
d="M636 0h-43c-30 -11 -55 -49 -55 -73c0 -29 29 -32 46 -32h37v-92h-83c-69 0 -99 42 -99 78c0 32 13 65 56 119l-41 138h-265l-41 -138h-142l239 706h150zM419 254l-97 325l-98 -325h195z" />
    <glyph glyph-name="aogonek" unicode="&#x105;" horiz-adv-x="542" 
d="M500 0h-44c-36 -18 -54 -51 -54 -73c0 -29 29 -32 46 -32h37v-92h-83c-69 0 -99 42 -99 78c0 32 14 65 56 119l-4 39c-33 -26 -86 -51 -147 -51c-114 0 -182 69 -182 153c0 109 83 152 178 169c75 14 122 26 154 37c0 38 -11 75 -86 75c-91 0 -101 -49 -101 -75l-122 7
c2 33 9 161 219 161c147 0 210 -54 210 -142v-292c0 -38 2 -49 22 -81zM358 182v67c-20 -10 -49 -21 -95 -28c-55 -8 -110 -19 -110 -69c0 -33 22 -61 82 -61c55 0 123 28 123 91z" />
    <glyph glyph-name="Cacute" unicode="&#x106;" horiz-adv-x="688" 
d="M547 249l125 -52c-23 -60 -102 -215 -305 -215c-167 0 -330 114 -330 378c0 157 89 364 335 364c182 0 257 -117 287 -218l-131 -34c-8 77 -73 131 -151 131c-115 0 -197 -88 -197 -245c0 -96 39 -251 196 -251c91 0 150 70 171 142zM498 895l-108 -120h-89l54 120h143z
" />
    <glyph glyph-name="cacute" unicode="&#x107;" horiz-adv-x="517" 
d="M395 195l102 -54c-35 -99 -126 -156 -226 -156c-147 0 -247 116 -247 265c0 130 88 265 253 265c130 0 196 -95 215 -142l-107 -50c-14 43 -49 85 -114 85c-81 0 -123 -72 -123 -155c0 -87 45 -156 126 -156c85 0 112 74 121 98zM401 706l-108 -133h-91l50 133h149z" />
    <glyph glyph-name="Ccircumflex" unicode="&#x108;" horiz-adv-x="688" 
d="M547 249l125 -52c-23 -60 -102 -215 -305 -215c-167 0 -330 114 -330 378c0 157 89 364 335 364c182 0 257 -117 287 -218l-131 -34c-8 77 -73 131 -151 131c-115 0 -197 -88 -197 -245c0 -96 39 -251 196 -251c91 0 150 70 171 142zM536 773h-121l-43 56l-42 -56h-117
l101 122h117z" />
    <glyph glyph-name="ccircumflex" unicode="&#x109;" horiz-adv-x="517" 
d="M395 195l102 -54c-35 -99 -126 -156 -226 -156c-147 0 -247 116 -247 265c0 130 88 265 253 265c130 0 196 -95 215 -142l-107 -50c-14 43 -49 85 -114 85c-81 0 -123 -72 -123 -155c0 -87 45 -156 126 -156c85 0 112 74 121 98zM444 572h-123l-47 67l-50 -67h-121
l111 134h118z" />
    <glyph glyph-name="Cdotaccent" unicode="&#x10a;" horiz-adv-x="688" 
d="M547 249l125 -52c-23 -60 -102 -215 -305 -215c-167 0 -330 114 -330 378c0 157 89 364 335 364c182 0 257 -117 287 -218l-131 -34c-8 77 -73 131 -151 131c-115 0 -197 -88 -197 -245c0 -96 39 -251 196 -251c91 0 150 70 171 142zM442 772h-135v123h135v-123z" />
    <glyph glyph-name="cdotaccent" unicode="&#x10b;" horiz-adv-x="517" 
d="M395 195l102 -54c-35 -99 -126 -156 -226 -156c-147 0 -247 116 -247 265c0 130 88 265 253 265c130 0 196 -95 215 -142l-107 -50c-14 43 -49 85 -114 85c-81 0 -123 -72 -123 -155c0 -87 45 -156 126 -156c85 0 112 74 121 98zM343 586h-135v120h135v-120z" />
    <glyph glyph-name="Ccaron" unicode="&#x10c;" horiz-adv-x="688" 
d="M547 249l125 -52c-23 -60 -102 -215 -305 -215c-167 0 -330 114 -330 378c0 157 89 364 335 364c182 0 257 -117 287 -218l-131 -34c-8 77 -73 131 -151 131c-115 0 -197 -88 -197 -245c0 -96 39 -251 196 -251c91 0 150 70 171 142zM527 895l-100 -124h-118l-104 124
h119l43 -57l42 57h118z" />
    <glyph glyph-name="ccaron" unicode="&#x10d;" horiz-adv-x="517" 
d="M395 195l102 -54c-35 -99 -126 -156 -226 -156c-147 0 -247 116 -247 265c0 130 88 265 253 265c130 0 196 -95 215 -142l-107 -50c-14 43 -49 85 -114 85c-81 0 -123 -72 -123 -155c0 -87 45 -156 126 -156c85 0 112 74 121 98zM438 706l-112 -134h-115l-112 134h121
l48 -64l49 64h121z" />
    <glyph glyph-name="Dcaron" unicode="&#x10e;" horiz-adv-x="708" 
d="M71 706h275c167 0 323 -106 323 -359c0 -226 -123 -347 -331 -347h-267v706zM203 587v-468h82c153 0 244 29 244 228c0 174 -86 240 -217 240h-109zM455 895l-100 -124h-118l-104 124h119l43 -57l42 57h118z" />
    <glyph glyph-name="dcaron" unicode="&#x10f;" horiz-adv-x="583" 
d="M516 0h-119v48c-10 -12 -50 -63 -139 -63c-105 0 -222 73 -222 255c0 179 109 275 227 275c41 0 101 -15 134 -56v247h119v-706zM161 253c0 -74 31 -159 119 -159c65 0 116 54 116 147c0 76 -22 163 -115 163c-75 0 -120 -67 -120 -151zM549 706h94v-88
c0 -90 -69 -102 -94 -103v37c38 11 38 31 38 56h-38v98z" />
    <glyph glyph-name="Dcroat" unicode="&#x110;" horiz-adv-x="708" 
d="M71 706h232c75 0 110 -3 147 -14c116 -35 219 -146 219 -343c0 -106 -32 -270 -190 -327c-57 -21 -115 -22 -171 -22h-237v326h-68v90h68v290zM203 587v-171h154v-90h-154v-207h56c72 0 115 2 147 11c83 22 123 88 123 217c0 81 -18 194 -131 229c-30 9 -67 11 -96 11
h-99z" />
    <glyph glyph-name="dcroat" unicode="&#x111;" horiz-adv-x="583" 
d="M516 0h-119v48c-10 -12 -50 -63 -139 -63c-105 0 -222 73 -222 255c0 179 109 275 227 275c41 0 101 -15 134 -56v94h-152v81h152v72h119v-72h67v-81h-67v-553zM161 253c0 -74 31 -159 119 -159c65 0 116 54 116 147c0 76 -22 163 -115 163c-75 0 -120 -67 -120 -151z
" />
    <glyph glyph-name="Emacron" unicode="&#x112;" horiz-adv-x="625" 
d="M605 0h-527v706h502v-118h-372v-166h341v-114h-341v-189h397v-119zM502 772h-341v90h341v-90z" />
    <glyph glyph-name="emacron" unicode="&#x113;" 
d="M531 226h-370c2 -25 25 -124 141 -124c85 0 121 52 131 69l102 -59c-40 -54 -113 -127 -244 -127c-149 0 -257 102 -257 268c0 179 121 262 251 262c191 0 246 -153 246 -289zM165 314h234c-2 25 -18 105 -112 105c-99 0 -118 -85 -122 -105zM453 586h-341v90h341v-90z
" />
    <glyph glyph-name="Ebreve" unicode="&#x114;" horiz-adv-x="625" 
d="M605 0h-527v706h502v-118h-372v-166h341v-114h-341v-189h397v-119zM398 892h87c-7 -33 -44 -121 -158 -121c-110 0 -147 97 -150 121h88c1 -11 22 -43 67 -43s65 35 66 43z" />
    <glyph glyph-name="ebreve" unicode="&#x115;" 
d="M531 226h-370c2 -25 25 -124 141 -124c85 0 121 52 131 69l102 -59c-40 -54 -113 -127 -244 -127c-149 0 -257 102 -257 268c0 179 121 262 251 262c191 0 246 -153 246 -289zM165 314h234c-2 25 -18 105 -112 105c-99 0 -118 -85 -122 -105zM350 706h87
c-11 -42 -37 -131 -151 -131c-110 0 -136 97 -144 131h88c4 -20 13 -53 61 -53c47 0 55 36 59 53z" />
    <glyph glyph-name="Edotaccent" unicode="&#x116;" horiz-adv-x="625" 
d="M605 0h-527v706h502v-118h-372v-166h341v-114h-341v-189h397v-119zM401 772h-135v123h135v-123z" />
    <glyph glyph-name="edotaccent" unicode="&#x117;" 
d="M531 226h-370c2 -25 25 -124 141 -124c85 0 121 52 131 69l102 -59c-40 -54 -113 -127 -244 -127c-149 0 -257 102 -257 268c0 179 121 262 251 262c191 0 246 -153 246 -289zM165 314h234c-2 25 -18 105 -112 105c-99 0 -118 -85 -122 -105zM351 586h-135v120h135v-120z
" />
    <glyph glyph-name="Eogonek" unicode="&#x118;" horiz-adv-x="625" 
d="M605 0h-44c-35 -15 -55 -51 -55 -73c0 -29 29 -32 46 -32h37v-92h-83c-69 0 -99 42 -99 78c0 32 12 65 58 119h-387v706h502v-118h-372v-166h341v-114h-341v-189h397v-119z" />
    <glyph glyph-name="eogonek" unicode="&#x119;" 
d="M531 226h-370c2 -25 25 -124 141 -124c85 0 121 52 131 69l102 -59c-30 -39 -49 -64 -115 -99c-51 -27 -70 -64 -70 -86c0 -29 29 -32 46 -32h37v-92h-83c-69 0 -99 42 -99 78c0 29 10 59 45 104h-5c-149 0 -257 102 -257 268c0 179 121 262 251 262
c191 0 246 -153 246 -289zM165 314h234c-2 25 -18 105 -112 105c-99 0 -118 -85 -122 -105z" />
    <glyph glyph-name="Ecaron" unicode="&#x11a;" horiz-adv-x="625" 
d="M605 0h-527v706h502v-118h-372v-166h341v-114h-341v-189h397v-119zM497 895l-100 -124h-118l-104 124h119l43 -57l42 57h118z" />
    <glyph glyph-name="ecaron" unicode="&#x11b;" 
d="M531 226h-370c2 -25 25 -124 141 -124c85 0 121 52 131 69l102 -59c-40 -54 -113 -127 -244 -127c-149 0 -257 102 -257 268c0 179 121 262 251 262c191 0 246 -153 246 -289zM165 314h234c-2 25 -18 105 -112 105c-99 0 -118 -85 -122 -105zM451 706l-112 -134h-115
l-112 134h121l48 -64l49 64h121z" />
    <glyph glyph-name="Gcircumflex" unicode="&#x11c;" horiz-adv-x="750" 
d="M685 0h-114v60c-57 -53 -115 -78 -194 -78c-169 0 -331 124 -331 364c0 166 103 378 342 378c151 0 255 -96 297 -208l-126 -50c-12 34 -49 139 -172 139c-119 0 -197 -99 -197 -255c0 -30 7 -243 200 -243c92 0 160 53 174 163h-176v116h297v-386zM551 773h-121l-43 56
l-42 -56h-117l101 122h117z" />
    <glyph glyph-name="gcircumflex" unicode="&#x11d;" horiz-adv-x="583" 
d="M520 500v-475c0 -145 -99 -192 -241 -192c-186 0 -215 89 -229 156h132c11 -52 72 -62 100 -62c71 0 119 25 119 111v44c-56 -50 -126 -53 -151 -53c-105 0 -216 67 -216 238c0 175 119 248 226 248c64 0 113 -27 141 -68v53h119zM404 266c0 78 -41 142 -124 142
c-61 0 -123 -41 -123 -138c0 -78 44 -132 124 -132c78 0 123 51 123 128zM452 572h-123l-47 67l-50 -67h-121l111 134h118z" />
    <glyph glyph-name="Gbreve" unicode="&#x11e;" horiz-adv-x="750" 
d="M685 0h-114v60c-57 -53 -115 -78 -194 -78c-169 0 -331 124 -331 364c0 166 103 378 342 378c151 0 255 -96 297 -208l-126 -50c-12 34 -49 139 -172 139c-119 0 -197 -99 -197 -255c0 -30 7 -243 200 -243c92 0 160 53 174 163h-176v116h297v-386zM455 892h87
c-7 -33 -44 -121 -158 -121c-110 0 -147 97 -150 121h88c1 -11 22 -43 67 -43s65 35 66 43z" />
    <glyph glyph-name="gbreve" unicode="&#x11f;" horiz-adv-x="583" 
d="M520 500v-475c0 -145 -99 -192 -241 -192c-186 0 -215 89 -229 156h132c11 -52 72 -62 100 -62c71 0 119 25 119 111v44c-56 -50 -126 -53 -151 -53c-105 0 -216 67 -216 238c0 175 119 248 226 248c64 0 113 -27 141 -68v53h119zM404 266c0 78 -41 142 -124 142
c-61 0 -123 -41 -123 -138c0 -78 44 -132 124 -132c78 0 123 51 123 128zM337 706h87c-11 -42 -37 -131 -151 -131c-110 0 -136 97 -144 131h88c4 -20 13 -53 61 -53c47 0 55 36 59 53z" />
    <glyph glyph-name="Gdotaccent" unicode="&#x120;" horiz-adv-x="750" 
d="M685 0h-114v60c-57 -53 -115 -78 -194 -78c-169 0 -331 124 -331 364c0 166 103 378 342 378c151 0 255 -96 297 -208l-126 -50c-12 34 -49 139 -172 139c-119 0 -197 -99 -197 -255c0 -30 7 -243 200 -243c92 0 160 53 174 163h-176v116h297v-386zM456 772h-135v123h135
v-123z" />
    <glyph glyph-name="gdotaccent" unicode="&#x121;" horiz-adv-x="583" 
d="M520 500v-475c0 -145 -99 -192 -241 -192c-186 0 -215 89 -229 156h132c11 -52 72 -62 100 -62c71 0 119 25 119 111v44c-56 -50 -126 -53 -151 -53c-105 0 -216 67 -216 238c0 175 119 248 226 248c64 0 113 -27 141 -68v53h119zM404 266c0 78 -41 142 -124 142
c-61 0 -123 -41 -123 -138c0 -78 44 -132 124 -132c78 0 123 51 123 128zM339 586h-135v120h135v-120z" />
    <glyph glyph-name="Gcommaaccent" unicode="&#x122;" horiz-adv-x="750" 
d="M685 0h-114v60c-57 -53 -115 -78 -194 -78c-169 0 -331 124 -331 364c0 166 103 378 342 378c151 0 255 -96 297 -208l-126 -50c-12 34 -49 139 -172 139c-119 0 -197 -99 -197 -255c0 -30 7 -243 200 -243c92 0 160 53 174 163h-176v116h297v-386zM336 -38h95v-55
c0 -77 -67 -82 -90 -84v33c22 2 29 18 29 31h-34v75z" />
    <glyph glyph-name="gcommaaccent" unicode="&#x123;" horiz-adv-x="583" 
d="M520 500v-475c0 -145 -99 -192 -241 -192c-186 0 -215 89 -229 156h132c11 -52 72 -62 100 -62c71 0 119 25 119 111v44c-56 -50 -126 -53 -151 -53c-105 0 -216 67 -216 238c0 175 119 248 226 248c64 0 113 -27 141 -68v53h119zM404 266c0 78 -41 142 -124 142
c-61 0 -123 -41 -123 -138c0 -78 44 -132 124 -132c78 0 123 51 123 128zM321 573h-95v55c0 77 67 82 90 84v-33c-22 -2 -29 -18 -29 -31h34v-75z" />
    <glyph glyph-name="Hbar" unicode="&#x126;" horiz-adv-x="729" 
d="M14 507v104h66v95h133v-95h303v95h133v-95h64v-104h-64v-507h-133v321h-303v-321h-133v507h-66zM213 440h303v67h-303v-67z" />
    <glyph glyph-name="hbar" unicode="&#x127;" horiz-adv-x="583" 
d="M0 634h63v72h120v-72h161v-81h-161v-104c30 31 84 66 158 66c109 0 179 -62 179 -177v-338h-118v293c0 73 -36 108 -94 108c-65 0 -125 -49 -125 -124v-277h-120v553h-63v81z" />
    <glyph glyph-name="Hcircumflex" unicode="&#x124;" horiz-adv-x="729" 
d="M649 0h-133v321h-303v-321h-133v706h133v-266h303v266h133v-706zM526 773h-121l-43 56l-42 -56h-117l101 122h117z" />
    <glyph glyph-name="hcircumflex" unicode="&#x125;" horiz-adv-x="583" 
d="M520 0h-118v293c0 73 -36 108 -94 108c-65 0 -125 -49 -125 -124v-277h-120v706h120v-257c30 31 84 66 158 66c109 0 179 -62 179 -177v-338zM286 773h-121l-43 56l-42 -56h-117l101 122h117z" />
    <glyph glyph-name="Itilde" unicode="&#x128;" horiz-adv-x="292" 
d="M210 0h-130v706h130v-706zM234 895h76c-4 -57 -12 -127 -93 -127c-54 0 -93 37 -132 37c-22 0 -27 -19 -29 -36h-75c5 53 22 125 96 125c52 0 97 -35 128 -35c24 0 27 21 29 36z" />
    <glyph glyph-name="itilde" unicode="&#x129;" horiz-adv-x="250" 
d="M184 0h-119v500h119v-500zM211 706h76c-2 -57 -21 -123 -90 -123c-46 0 -98 39 -131 39c-21 0 -27 -19 -29 -38h-75c0 55 21 126 94 126c37 0 97 -37 125 -37c20 0 25 14 30 33z" />
    <glyph glyph-name="uni012A" unicode="&#x12a;" horiz-adv-x="292" 
d="M210 0h-130v706h130v-706zM284 772h-279v90h279v-90z" />
    <glyph glyph-name="imacron" unicode="&#x12b;" horiz-adv-x="250" 
d="M184 0h-119v500h119v-500zM254 586h-259v90h259v-90z" />
    <glyph glyph-name="Ibreve" unicode="&#x12c;" horiz-adv-x="292" 
d="M210 0h-130v706h130v-706zM213 892h87c-7 -33 -44 -121 -158 -121c-110 0 -147 97 -150 121h88c1 -11 22 -43 67 -43s65 35 66 43z" />
    <glyph glyph-name="uni012D" unicode="&#x12d;" horiz-adv-x="250" 
d="M184 0h-119v500h119v-500zM186 706h87c-11 -42 -37 -131 -151 -131c-110 0 -136 97 -144 131h88c4 -20 13 -53 61 -53c47 0 55 36 59 53z" />
    <glyph glyph-name="Iogonek" unicode="&#x12e;" horiz-adv-x="292" 
d="M80 706h130v-706h-9c-30 -8 -56 -51 -56 -73c0 -29 29 -32 46 -32h37v-92h-83c-69 0 -99 42 -99 78c0 32 12 65 58 119h-24v706z" />
    <glyph glyph-name="iogonek" unicode="&#x12f;" horiz-adv-x="250" 
d="M65 500h119v-500h-4c-14 0 -55 -41 -55 -73c0 -29 29 -32 46 -32h37v-92h-83c-69 0 -99 42 -99 78c0 32 12 65 58 119h-19v500zM184 578h-119v121h119v-121z" />
    <glyph glyph-name="Idotaccent" unicode="&#x130;" horiz-adv-x="292" 
d="M210 0h-130v706h130v-706zM213 772h-135v123h135v-123z" />
    <glyph glyph-name="IJ" unicode="&#x132;" horiz-adv-x="688" 
d="M210 0h-130v706h130v-706zM494 706h130v-536c0 -53 -21 -185 -224 -185c-17 0 -43 0 -82 9v130c36 -8 50 -10 70 -10c102 0 106 68 106 121v471z" />
    <glyph glyph-name="ij" unicode="&#x133;" horiz-adv-x="500" 
d="M184 578h-119v121h119v-121zM184 0h-119v500h119v-500zM435 579h-118v122h118v-122zM317 500h118v-546c0 -31 -3 -117 -156 -117c-10 0 -19 1 -28 2v109c5 1 29 1 46 12c18 11 20 26 20 52v488z" />
    <glyph glyph-name="Jcircumflex" unicode="&#x134;" horiz-adv-x="396" 
d="M202 706h130v-536c0 -53 -21 -185 -224 -185c-17 0 -43 0 -82 9v130c36 -8 50 -10 70 -10c102 0 106 68 106 121v471zM432 773h-121l-43 56l-42 -56h-117l101 122h117z" />
    <glyph glyph-name="jcircumflex" unicode="&#x135;" horiz-adv-x="250" 
d="M67 500h118v-546c0 -31 -3 -117 -156 -117c-10 0 -19 1 -28 2v109c5 1 29 1 46 12c18 11 20 26 20 52v488zM296 572h-123l-47 67l-50 -67h-121l111 134h118z" />
    <glyph glyph-name="Kcommaaccent" unicode="&#x136;" horiz-adv-x="667" 
d="M665 0h-151l-188 332l-115 -132v-200h-131v706h131v-324l283 324h155l-231 -266zM307 -38h95v-55c0 -77 -67 -82 -90 -84v33c22 2 29 18 29 31h-34v75z" />
    <glyph glyph-name="kcommaaccent" unicode="&#x137;" horiz-adv-x="542" 
d="M550 0h-146l-151 224l-70 -69v-155h-119v706h119v-397l195 191h153l-191 -191zM246 -38h95v-55c0 -77 -67 -82 -90 -84v33c22 2 29 18 29 31h-34v75z" />
    <glyph glyph-name="kgreenlandic" unicode="&#x138;" horiz-adv-x="542" 
d="M550 0h-146l-151 224l-70 -69v-155h-119v500h119v-191l195 191h153l-191 -191z" />
    <glyph glyph-name="Lacute" unicode="&#x139;" horiz-adv-x="521" 
d="M495 0h-413v706h133v-586h280v-120zM290 895l-108 -120h-89l54 120h143z" />
    <glyph glyph-name="lacute" unicode="&#x13a;" horiz-adv-x="250" 
d="M187 0h-122v706h122v-706zM270 895l-108 -120h-89l54 120h143z" />
    <glyph glyph-name="Lcommaaccent" unicode="&#x13b;" horiz-adv-x="521" 
d="M495 0h-413v706h133v-586h280v-120zM246 -38h95v-55c0 -77 -67 -82 -90 -84v33c22 2 29 18 29 31h-34v75z" />
    <glyph glyph-name="lcommaaccent" unicode="&#x13c;" horiz-adv-x="250" 
d="M187 0h-122v706h122v-706zM80 -38h95v-55c0 -77 -67 -82 -90 -84v33c22 2 29 18 29 31h-34v75z" />
    <glyph glyph-name="Lcaron" unicode="&#x13d;" horiz-adv-x="521" 
d="M495 0h-413v706h133v-586h280v-120zM253 706h94v-88c0 -90 -69 -102 -94 -103v37c38 11 38 31 38 56h-38v98z" />
    <glyph glyph-name="lcaron" unicode="&#x13e;" horiz-adv-x="250" 
d="M187 0h-122v706h122v-706zM218 706h94v-88c0 -90 -69 -102 -94 -103v37c38 11 38 31 38 56h-38v98z" />
    <glyph glyph-name="Ldot" unicode="&#x13f;" horiz-adv-x="521" 
d="M495 0h-413v706h133v-586h280v-120zM462 310h-132v131h132v-131z" />
    <glyph glyph-name="ldot" unicode="&#x140;" horiz-adv-x="335" 
d="M187 0h-122v706h122v-706zM356 305h-125v124h125v-124z" />
    <glyph glyph-name="Nacute" unicode="&#x143;" horiz-adv-x="708" 
d="M628 0h-116l-309 495s8 -482 8 -495h-129v706h119l313 -498s-15 482 -16 498h130v-706zM486 895l-108 -120h-89l54 120h143z" />
    <glyph glyph-name="nacute" unicode="&#x144;" 
d="M63 500h121v-59c45 68 134 74 154 74c106 0 162 -69 162 -167v-348h-118v281c0 55 -14 117 -88 117c-13 0 -38 -2 -63 -23c-36 -30 -47 -72 -47 -158v-217h-121v500zM420 706l-108 -133h-91l50 133h149z" />
    <glyph glyph-name="Ncommaaccent" unicode="&#x145;" horiz-adv-x="708" 
d="M628 0h-116l-309 495s8 -482 8 -495h-129v706h119l313 -498s-15 482 -16 498h130v-706zM306 -38h95v-55c0 -77 -67 -82 -90 -84v33c22 2 29 18 29 31h-34v75z" />
    <glyph glyph-name="ncommaaccent" unicode="&#x146;" 
d="M63 500h121v-59c45 68 134 74 154 74c106 0 162 -69 162 -167v-348h-118v281c0 55 -14 117 -88 117c-13 0 -38 -2 -63 -23c-36 -30 -47 -72 -47 -158v-217h-121v500zM235 -38h95v-55c0 -77 -67 -82 -90 -84v33c22 2 29 18 29 31h-34v75z" />
    <glyph glyph-name="Ncaron" unicode="&#x147;" horiz-adv-x="708" 
d="M628 0h-116l-309 495s8 -482 8 -495h-129v706h119l313 -498s-15 482 -16 498h130v-706zM512 895l-100 -124h-118l-104 124h119l43 -57l42 57h118z" />
    <glyph glyph-name="ncaron" unicode="&#x148;" 
d="M63 500h121v-59c45 68 134 74 154 74c106 0 162 -69 162 -167v-348h-118v281c0 55 -14 117 -88 117c-13 0 -38 -2 -63 -23c-36 -30 -47 -72 -47 -158v-217h-121v500zM454 706l-112 -134h-115l-112 134h121l48 -64l49 64h121z" />
    <glyph glyph-name="napostrophe" unicode="&#x149;" 
d="M63 500h121v-59c45 68 134 74 154 74c106 0 162 -69 162 -167v-348h-118v281c0 55 -14 117 -88 117c-13 0 -38 -2 -63 -23c-36 -30 -47 -72 -47 -158v-217h-121v500zM7 706h94v-88c0 -90 -69 -102 -94 -103v37c38 11 38 31 38 56h-38v98z" />
    <glyph glyph-name="Eng" unicode="&#x14a;" horiz-adv-x="708" 
d="M514 208c0 0 -15 482 -16 498h130v-731c0 -116 -33 -159 -156 -159c-10 0 -19 1 -28 2v109c5 -1 17 -3 26 -3c34 0 40 24 40 57v22l-307 492s8 -482 8 -495h-129v706h119z" />
    <glyph glyph-name="eng" unicode="&#x14b;" 
d="M382 281c0 55 -14 117 -88 117c-13 0 -38 -2 -63 -23c-36 -30 -47 -72 -47 -158v-217h-121v500h121v-59c45 68 134 74 154 74c106 0 162 -69 162 -167v-375c0 -83 -23 -139 -136 -139c-10 0 -39 3 -48 4v107c5 -2 16 -3 25 -3c33 0 41 20 41 58v281z" />
    <glyph glyph-name="Omacron" unicode="&#x14c;" horiz-adv-x="771" 
d="M48 352c0 207 135 372 339 372c215 0 338 -176 338 -367c0 -160 -87 -375 -341 -375c-208 0 -336 172 -336 370zM184 357c0 -110 53 -252 204 -252c105 0 204 81 204 241c0 126 -66 257 -206 257c-116 0 -202 -91 -202 -246zM559 772h-341v90h341v-90z" />
    <glyph glyph-name="omacron" unicode="&#x14d;" horiz-adv-x="583" 
d="M549 252c0 -134 -84 -267 -254 -267c-182 0 -260 145 -260 267c0 120 79 263 256 263c109 0 257 -73 258 -263zM160 255c0 -88 49 -160 135 -160c88 0 129 75 129 151c0 80 -43 161 -135 161c-70 0 -129 -51 -129 -152zM464 586h-341v90h341v-90z" />
    <glyph glyph-name="Obreve" unicode="&#x14e;" horiz-adv-x="771" 
d="M48 352c0 207 135 372 339 372c215 0 338 -176 338 -367c0 -160 -87 -375 -341 -375c-208 0 -336 172 -336 370zM184 357c0 -110 53 -252 204 -252c105 0 204 81 204 241c0 126 -66 257 -206 257c-116 0 -202 -91 -202 -246zM452 892h87c-7 -33 -44 -121 -158 -121
c-110 0 -147 97 -150 121h88c1 -11 22 -43 67 -43s65 35 66 43z" />
    <glyph glyph-name="obreve" unicode="&#x14f;" horiz-adv-x="583" 
d="M549 252c0 -134 -84 -267 -254 -267c-182 0 -260 145 -260 267c0 120 79 263 256 263c109 0 257 -73 258 -263zM160 255c0 -88 49 -160 135 -160c88 0 129 75 129 151c0 80 -43 161 -135 161c-70 0 -129 -51 -129 -152zM352 706h87c-11 -42 -37 -131 -151 -131
c-110 0 -136 97 -144 131h88c4 -20 13 -53 61 -53c47 0 55 36 59 53z" />
    <glyph glyph-name="Ohungarumlaut" unicode="&#x150;" horiz-adv-x="771" 
d="M48 352c0 207 135 372 339 372c215 0 338 -176 338 -367c0 -160 -87 -375 -341 -375c-208 0 -336 172 -336 370zM184 357c0 -110 53 -252 204 -252c105 0 204 81 204 241c0 126 -66 257 -206 257c-116 0 -202 -91 -202 -246zM422 895l-95 -120h-81l56 120h120zM597 895
l-95 -120h-81l56 120h120z" />
    <glyph glyph-name="ohungarumlaut" unicode="&#x151;" horiz-adv-x="583" 
d="M549 252c0 -134 -84 -267 -254 -267c-182 0 -260 145 -260 267c0 120 79 263 256 263c109 0 257 -73 258 -263zM160 255c0 -88 49 -160 135 -160c88 0 129 75 129 151c0 80 -43 161 -135 161c-70 0 -129 -51 -129 -152zM333 706l-96 -132h-83l52 132h127zM499 706
l-96 -132h-83l52 132h127z" />
    <glyph glyph-name="Racute" unicode="&#x154;" horiz-adv-x="646" 
d="M81 706h289c139 0 233 -91 233 -224c0 -68 -27 -157 -139 -194l157 -288h-151l-139 262h-119v-262h-131v706zM212 592v-220h102c95 0 155 28 155 111c0 76 -52 109 -137 109h-120zM435 895l-108 -120h-89l54 120h143z" />
    <glyph glyph-name="racute" unicode="&#x155;" horiz-adv-x="354" 
d="M64 500h116v-71c38 79 125 82 149 82h10v-123c-25 0 -121 0 -150 -92c-9 -28 -9 -53 -9 -82v-214h-116v500zM328 706l-108 -133h-91l50 133h149z" />
    <glyph glyph-name="Rcommaaccent" unicode="&#x156;" horiz-adv-x="646" 
d="M81 706h289c139 0 233 -91 233 -224c0 -68 -27 -157 -139 -194l157 -288h-151l-139 262h-119v-262h-131v706zM212 592v-220h102c95 0 155 28 155 111c0 76 -52 109 -137 109h-120zM295 -38h95v-55c0 -77 -67 -82 -90 -84v33c22 2 29 18 29 31h-34v75z" />
    <glyph glyph-name="rcommaaccent" unicode="&#x157;" horiz-adv-x="354" 
d="M64 500h116v-71c38 79 125 82 149 82h10v-123c-25 0 -121 0 -150 -92c-9 -28 -9 -53 -9 -82v-214h-116v500zM73 -38h95v-55c0 -77 -67 -82 -90 -84v33c22 2 29 18 29 31h-34v75z" />
    <glyph glyph-name="Rcaron" unicode="&#x158;" horiz-adv-x="646" 
d="M81 706h289c139 0 233 -91 233 -224c0 -68 -27 -157 -139 -194l157 -288h-151l-139 262h-119v-262h-131v706zM212 592v-220h102c95 0 155 28 155 111c0 76 -52 109 -137 109h-120zM443 895l-100 -124h-118l-104 124h119l43 -57l42 57h118z" />
    <glyph glyph-name="rcaron" unicode="&#x159;" horiz-adv-x="354" 
d="M64 500h116v-71c38 79 125 82 149 82h10v-123c-25 0 -121 0 -150 -92c-9 -28 -9 -53 -9 -82v-214h-116v500zM365 706l-112 -134h-115l-112 134h121l48 -64l49 64h121z" />
    <glyph glyph-name="Sacute" unicode="&#x15a;" horiz-adv-x="667" 
d="M625 581l-109 -81c-22 36 -73 105 -184 105c-30 0 -132 -11 -132 -86c0 -55 54 -68 129 -84l74 -16c111 -24 229 -67 229 -209c0 -175 -174 -228 -300 -228c-118 0 -246 42 -309 151l111 77c31 -46 89 -106 219 -106c77 0 136 32 136 93c0 58 -47 71 -136 91l-90 20
c-90 20 -202 58 -202 196c0 125 101 220 279 220c63 0 187 -10 285 -143zM465 895l-108 -120h-89l54 120h143z" />
    <glyph glyph-name="sacute" unicode="&#x15b;" horiz-adv-x="521" 
d="M474 422l-85 -79c-27 53 -78 76 -136 76c-23 0 -83 -7 -83 -52c0 -33 30 -43 102 -56l81 -15c76 -14 134 -59 134 -140c0 -92 -87 -171 -225 -171s-212 61 -240 90l90 73c24 -32 69 -64 144 -64c72 0 98 37 98 59c0 29 -28 40 -74 48l-62 11c-39 7 -174 32 -174 150
c0 99 95 163 215 163c39 0 140 -6 215 -93zM385 706l-108 -133h-91l50 133h149z" />
    <glyph glyph-name="Scircumflex" unicode="&#x15c;" horiz-adv-x="667" 
d="M625 581l-109 -81c-22 36 -73 105 -184 105c-30 0 -132 -11 -132 -86c0 -55 54 -68 129 -84l74 -16c111 -24 229 -67 229 -209c0 -175 -174 -228 -300 -228c-118 0 -246 42 -309 151l111 77c31 -46 89 -106 219 -106c77 0 136 32 136 93c0 58 -47 71 -136 91l-90 20
c-90 20 -202 58 -202 196c0 125 101 220 279 220c63 0 187 -10 285 -143zM508 773h-121l-43 56l-42 -56h-117l101 122h117z" />
    <glyph glyph-name="scircumflex" unicode="&#x15d;" horiz-adv-x="521" 
d="M474 422l-85 -79c-27 53 -78 76 -136 76c-23 0 -83 -7 -83 -52c0 -33 30 -43 102 -56l81 -15c76 -14 134 -59 134 -140c0 -92 -87 -171 -225 -171s-212 61 -240 90l90 73c24 -32 69 -64 144 -64c72 0 98 37 98 59c0 29 -28 40 -74 48l-62 11c-39 7 -174 32 -174 150
c0 99 95 163 215 163c39 0 140 -6 215 -93zM431 572h-123l-47 67l-50 -67h-121l111 134h118z" />
    <glyph glyph-name="Scedilla" unicode="&#x15e;" horiz-adv-x="667" 
d="M625 581l-109 -81c-22 36 -73 105 -184 105c-30 0 -132 -11 -132 -86c0 -55 54 -68 129 -84l74 -16c111 -24 229 -67 229 -209c0 -163 -150 -219 -273 -227l-22 -29h7c80 0 94 -42 94 -64c0 -33 -21 -76 -155 -76c-14 0 -27 0 -41 1v31s13 -1 18 -1c25 0 63 2 63 26
c0 21 -32 24 -66 24c-7 0 -14 -1 -20 -2v15l71 75c-111 5 -226 48 -285 150l111 77c31 -46 89 -106 219 -106c77 0 136 32 136 93c0 58 -47 71 -136 91l-90 20c-90 20 -202 58 -202 196c0 125 101 220 279 220c63 0 187 -10 285 -143z" />
    <glyph glyph-name="scedilla" unicode="&#x15f;" horiz-adv-x="521" 
d="M474 422l-85 -79c-27 53 -78 76 -136 76c-23 0 -83 -7 -83 -52c0 -33 30 -43 102 -56l81 -15c76 -14 134 -59 134 -140c0 -87 -77 -161 -202 -170l-24 -32h7c80 0 94 -42 94 -64c0 -33 -21 -76 -155 -76c-14 0 -27 0 -41 1v31s13 -1 18 -1c25 0 63 2 63 26
c0 21 -32 24 -66 24c-7 0 -14 -1 -20 -2v15l75 78c-122 7 -188 62 -214 89l90 73c24 -32 69 -64 144 -64c72 0 98 37 98 59c0 29 -28 40 -74 48l-62 11c-39 7 -174 32 -174 150c0 99 95 163 215 163c39 0 140 -6 215 -93z" />
    <glyph glyph-name="Tcommaaccent" unicode="&#x162;" 
d="M541 587h-195v-587h-132v587h-192v119h519v-119zM233 -38h95v-55c0 -77 -67 -82 -90 -84v33c22 2 29 18 29 31h-34v75z" />
    <glyph glyph-name="tcommaaccent" unicode="&#x163;" horiz-adv-x="313" 
d="M4 415v85h73v178h120v-178h107v-85h-107v-248c0 -19 1 -41 12 -53c14 -15 40 -15 45 -15c17 0 35 2 50 6v-101c-16 -2 -45 -8 -86 -8c-107 0 -141 39 -141 121v298h-73zM137 -38h95v-55c0 -77 -67 -82 -90 -84v33c22 2 29 18 29 31h-34v75z" />
    <glyph glyph-name="Tcaron" unicode="&#x164;" 
d="M541 587h-195v-587h-132v587h-192v119h519v-119zM442 895l-100 -124h-118l-104 124h119l43 -57l42 57h118z" />
    <glyph glyph-name="tcaron" unicode="&#x165;" horiz-adv-x="313" 
d="M4 415v85h73v178h120v-178h107v-85h-107v-248c0 -19 1 -41 12 -53c14 -15 40 -15 45 -15c17 0 35 2 50 6v-101c-16 -2 -45 -8 -86 -8c-107 0 -141 39 -141 121v298h-73zM230 706h94v-88c0 -90 -69 -102 -94 -103v37c38 11 38 31 38 56h-38v98z" />
    <glyph glyph-name="Tbar" unicode="&#x166;" 
d="M83 392v104h131v91h-192v119h519v-119h-195v-91h131v-104h-131v-392h-132v392h-131z" />
    <glyph glyph-name="tbar" unicode="&#x167;" horiz-adv-x="313" 
d="M280 258h-83v-91c0 -19 1 -41 12 -53c14 -15 40 -15 45 -15c17 0 35 2 50 6v-101c-16 -2 -45 -8 -86 -8c-107 0 -141 39 -141 121v141h-63v81h63v76h-73v85h73v178h120v-178h107v-85h-107v-76h83v-81z" />
    <glyph glyph-name="Utilde" unicode="&#x168;" horiz-adv-x="729" 
d="M649 706v-437c0 -60 -1 -90 -12 -125c-23 -71 -104 -162 -277 -162c-113 0 -232 44 -269 160c-11 36 -11 69 -11 144v420h133v-434c0 -42 0 -57 7 -78c13 -42 51 -84 145 -84c17 0 114 0 143 80c8 23 9 42 9 89v427h132zM452 895h76c-4 -57 -12 -127 -93 -127
c-54 0 -93 37 -132 37c-22 0 -27 -19 -29 -36h-75c5 53 22 125 96 125c52 0 97 -35 128 -35c24 0 27 21 29 36z" />
    <glyph glyph-name="utilde" unicode="&#x169;" horiz-adv-x="583" 
d="M517 0h-120v51c-25 -23 -75 -63 -162 -63c-83 0 -124 36 -144 66c-27 40 -29 86 -29 132v314h121v-288c0 -48 12 -111 98 -111c58 0 88 38 97 56c18 35 19 82 19 120v223h120v-500zM377 706h76c-2 -57 -21 -123 -90 -123c-46 0 -98 39 -131 39c-21 0 -27 -19 -29 -38h-75
c0 55 21 126 94 126c37 0 97 -37 125 -37c20 0 25 14 30 33z" />
    <glyph glyph-name="Umacron" unicode="&#x16a;" horiz-adv-x="729" 
d="M649 706v-437c0 -60 -1 -90 -12 -125c-23 -71 -104 -162 -277 -162c-113 0 -232 44 -269 160c-11 36 -11 69 -11 144v420h133v-434c0 -42 0 -57 7 -78c13 -42 51 -84 145 -84c17 0 114 0 143 80c8 23 9 42 9 89v427h132zM535 772h-341v90h341v-90z" />
    <glyph glyph-name="umacron" unicode="&#x16b;" horiz-adv-x="583" 
d="M517 0h-120v51c-25 -23 -75 -63 -162 -63c-83 0 -124 36 -144 66c-27 40 -29 86 -29 132v314h121v-288c0 -48 12 -111 98 -111c58 0 88 38 97 56c18 35 19 82 19 120v223h120v-500zM461 586h-341v90h341v-90z" />
    <glyph glyph-name="Ubreve" unicode="&#x16c;" horiz-adv-x="729" 
d="M649 706v-437c0 -60 -1 -90 -12 -125c-23 -71 -104 -162 -277 -162c-113 0 -232 44 -269 160c-11 36 -11 69 -11 144v420h133v-434c0 -42 0 -57 7 -78c13 -42 51 -84 145 -84c17 0 114 0 143 80c8 23 9 42 9 89v427h132zM431 892h87c-7 -33 -44 -121 -158 -121
c-110 0 -147 97 -150 121h88c1 -11 22 -43 67 -43s65 35 66 43z" />
    <glyph glyph-name="ubreve" unicode="&#x16d;" horiz-adv-x="583" 
d="M517 0h-120v51c-25 -23 -75 -63 -162 -63c-83 0 -124 36 -144 66c-27 40 -29 86 -29 132v314h121v-288c0 -48 12 -111 98 -111c58 0 88 38 97 56c18 35 19 82 19 120v223h120v-500zM352 706h87c-11 -42 -37 -131 -151 -131c-110 0 -136 97 -144 131h88
c4 -20 13 -53 61 -53c47 0 55 36 59 53z" />
    <glyph glyph-name="Uring" unicode="&#x16e;" horiz-adv-x="729" 
d="M649 706v-437c0 -60 -1 -90 -12 -125c-23 -71 -104 -162 -277 -162c-113 0 -232 44 -269 160c-11 36 -11 69 -11 144v420h133v-434c0 -42 0 -57 7 -78c13 -42 51 -84 145 -84c17 0 114 0 143 80c8 23 9 42 9 89v427h132zM466 861c0 -56 -45 -101 -102 -101
c-56 0 -101 45 -101 102c0 55 45 101 102 101c56 0 101 -47 101 -102zM406 862c0 23 -19 41 -42 41s-42 -19 -42 -42s21 -42 43 -42c23 0 41 20 41 43z" />
    <glyph glyph-name="uring" unicode="&#x16f;" horiz-adv-x="583" 
d="M517 0h-120v51c-25 -23 -75 -63 -162 -63c-83 0 -124 36 -144 66c-27 40 -29 86 -29 132v314h121v-288c0 -48 12 -111 98 -111c58 0 88 38 97 56c18 35 19 82 19 120v223h120v-500zM391 662c0 -57 -46 -102 -101 -102c-56 0 -102 45 -102 102c0 56 46 101 102 101
c74 0 101 -66 101 -101zM331 661c0 24 -19 42 -42 42c-28 0 -42 -23 -42 -42c0 -23 19 -42 42 -42c24 0 42 20 42 42z" />
    <glyph glyph-name="Uhungarumlaut" unicode="&#x170;" horiz-adv-x="729" 
d="M649 706v-437c0 -60 -1 -90 -12 -125c-23 -71 -104 -162 -277 -162c-113 0 -232 44 -269 160c-11 36 -11 69 -11 144v420h133v-434c0 -42 0 -57 7 -78c13 -42 51 -84 145 -84c17 0 114 0 143 80c8 23 9 42 9 89v427h132zM401 895l-95 -120h-81l56 120h120zM576 895
l-95 -120h-81l56 120h120z" />
    <glyph glyph-name="uhungarumlaut" unicode="&#x171;" horiz-adv-x="583" 
d="M517 0h-120v51c-25 -23 -75 -63 -162 -63c-83 0 -124 36 -144 66c-27 40 -29 86 -29 132v314h121v-288c0 -48 12 -111 98 -111c58 0 88 38 97 56c18 35 19 82 19 120v223h120v-500zM338 706l-96 -132h-83l52 132h127zM504 706l-96 -132h-83l52 132h127z" />
    <glyph glyph-name="Uogonek" unicode="&#x172;" horiz-adv-x="729" 
d="M649 706v-437c0 -60 -1 -90 -12 -125c-21 -64 -87 -136 -203 -156c-40 -7 -55 -42 -55 -61c0 -29 29 -32 46 -32h37v-92h-83c-69 0 -99 42 -99 78c0 29 10 58 44 103c-101 8 -200 54 -233 158c-11 36 -11 69 -11 144v420h133v-434c0 -42 0 -57 7 -78
c13 -42 51 -84 145 -84c17 0 114 0 143 80c8 23 9 42 9 89v427h132z" />
    <glyph glyph-name="uogonek" unicode="&#x173;" horiz-adv-x="583" 
d="M517 0h-22c-32 -13 -56 -51 -56 -73c0 -29 29 -32 46 -32h37v-92h-83c-69 0 -99 42 -99 78c0 29 12 65 57 119v51c-25 -23 -75 -63 -162 -63c-83 0 -124 36 -144 66c-27 40 -29 86 -29 132v314h121v-288c0 -48 12 -111 98 -111c58 0 88 38 97 56c18 35 19 82 19 120v223
h120v-500z" />
    <glyph glyph-name="Wacute" unicode="&#x1e82;" horiz-adv-x="833" 
d="M823 706l-155 -706h-154l-99 491l-102 -491h-154l-147 706h135l96 -538l110 538h123l112 -538l99 538h136zM523 895l-108 -120h-89l54 120h143z" />
    <glyph glyph-name="wacute" unicode="&#x1e83;" horiz-adv-x="750" 
d="M735 500l-150 -500h-119l-90 319l-95 -319h-119l-145 500h125l87 -342l93 342h107l92 -342l89 342h125zM493 706l-108 -133h-91l50 133h149z" />
    <glyph glyph-name="Wcircumflex" unicode="&#x174;" horiz-adv-x="833" 
d="M823 706l-155 -706h-154l-99 491l-102 -491h-154l-147 706h135l96 -538l110 538h123l112 -538l99 538h136zM578 773h-121l-43 56l-42 -56h-117l101 122h117z" />
    <glyph glyph-name="wcircumflex" unicode="&#x175;" horiz-adv-x="750" 
d="M735 500l-150 -500h-119l-90 319l-95 -319h-119l-145 500h125l87 -342l93 342h107l92 -342l89 342h125zM545 572h-123l-47 67l-50 -67h-121l111 134h118z" />
    <glyph glyph-name="Wdieresis" unicode="&#x1e84;" horiz-adv-x="833" 
d="M823 706l-155 -706h-154l-99 491l-102 -491h-154l-147 706h135l96 -538l110 538h123l112 -538l99 538h136zM573 772h-114v123h114v-123zM371 772h-112v123h112v-123z" />
    <glyph glyph-name="wdieresis" unicode="&#x1e85;" horiz-adv-x="750" 
d="M735 500l-150 -500h-119l-90 319l-95 -319h-119l-145 500h125l87 -342l93 342h107l92 -342l89 342h125zM532 587h-115v119h115v-119zM330 587h-113v119h113v-119z" />
    <glyph glyph-name="Wgrave" unicode="&#x1e80;" horiz-adv-x="833" 
d="M823 706l-155 -706h-154l-99 491l-102 -491h-154l-147 706h135l96 -538l110 538h123l112 -538l99 538h136zM502 774h-90l-107 121h142z" />
    <glyph glyph-name="wgrave" unicode="&#x1e81;" horiz-adv-x="750" 
d="M735 500l-150 -500h-119l-90 319l-95 -319h-119l-145 500h125l87 -342l93 342h107l92 -342l89 342h125zM456 573h-89l-112 133h149z" />
    <glyph glyph-name="Ycircumflex" unicode="&#x176;" horiz-adv-x="625" 
d="M615 706l-238 -427v-279h-131v279l-236 427h150l153 -292l154 292h148zM474 773h-121l-43 56l-42 -56h-117l101 122h117z" />
    <glyph glyph-name="ycircumflex" unicode="&#x177;" horiz-adv-x="479" 
d="M347 500h123l-133 -456c-18 -63 -43 -152 -85 -186c-31 -25 -63 -30 -102 -30c-38 0 -52 3 -71 7v104c12 -2 23 -2 33 -2c66 0 77 40 81 53l-181 510h129l112 -373zM410 572h-123l-47 67l-50 -67h-121l111 134h118z" />
    <glyph glyph-name="Ygrave" unicode="&#x1ef2;" horiz-adv-x="625" 
d="M615 706l-238 -427v-279h-131v279l-236 427h150l153 -292l154 292h148zM399 774h-90l-107 121h142z" />
    <glyph glyph-name="ygrave" unicode="&#x1ef3;" horiz-adv-x="479" 
d="M347 500h123l-133 -456c-18 -63 -43 -152 -85 -186c-31 -25 -63 -30 -102 -30c-38 0 -52 3 -71 7v104c12 -2 23 -2 33 -2c66 0 77 40 81 53l-181 510h129l112 -373zM320 573h-89l-112 133h149z" />
    <glyph glyph-name="Zacute" unicode="&#x179;" horiz-adv-x="604" 
d="M575 0h-551v108l386 480h-353v118h518v-112l-371 -475h371v-119zM452 895l-108 -120h-89l54 120h143z" />
    <glyph glyph-name="zacute" unicode="&#x17a;" horiz-adv-x="500" 
d="M459 0h-428v92l270 301h-243v107h401v-93l-264 -301h264v-106zM389 706l-108 -133h-91l50 133h149z" />
    <glyph glyph-name="Zdotaccent" unicode="&#x17b;" horiz-adv-x="604" 
d="M575 0h-551v108l386 480h-353v118h518v-112l-371 -475h371v-119zM384 772h-135v123h135v-123z" />
    <glyph glyph-name="zdotaccent" unicode="&#x17c;" horiz-adv-x="500" 
d="M459 0h-428v92l270 301h-243v107h401v-93l-264 -301h264v-106zM322 586h-135v120h135v-120z" />
    <glyph glyph-name="longs" unicode="&#x17f;" horiz-adv-x="278" 
d="M199 534v-534h-120v415h-75v85h75v69c0 87 26 138 161 138c23 0 45 -2 68 -5v-102c-3 1 -23 3 -38 3c-69 0 -71 -38 -71 -69z" />
    <glyph glyph-name="Aringacute" unicode="&#x1fa;" horiz-adv-x="646" 
d="M481 998l-148 -100h-89l94 100h143zM636 0h-141l-41 138h-265l-41 -138h-142l239 706h150zM419 254l-97 325l-98 -325h195zM402 806c0 -42 -32 -74 -75 -74c-42 0 -75 32 -75 75c0 41 33 74 76 74s74 -34 74 -75zM355 807c0 16 -12 27 -28 27s-28 -12 -28 -28
s13 -28 29 -28c15 0 27 12 27 29z" />
    <glyph glyph-name="aringacute" unicode="&#x1fb;" horiz-adv-x="542" 
d="M404 899l-118 -123h-82l60 123h140zM500 0h-142l-3 39c-33 -26 -86 -51 -147 -51c-114 0 -182 69 -182 153c0 109 83 152 178 169c75 14 122 26 154 37c0 38 -11 75 -86 75c-91 0 -101 -49 -101 -75l-122 7c2 33 9 161 219 161c147 0 210 -54 210 -142v-292
c0 -38 2 -49 22 -81zM358 182v67c-20 -10 -49 -21 -95 -28c-55 -8 -110 -19 -110 -69c0 -33 22 -61 82 -61c55 0 123 28 123 91zM359 653c0 -55 -42 -96 -94 -96c-53 0 -95 41 -95 96c0 52 41 94 95 94c69 0 94 -61 94 -94zM302 652c0 21 -17 37 -38 37
c-25 0 -39 -19 -39 -37c0 -21 18 -39 39 -39c22 0 38 19 38 39z" />
    <glyph glyph-name="AEacute" unicode="&#x1fc;" horiz-adv-x="1042" 
d="M1018 0h-516v165h-248l-94 -165h-154l418 706h579v-118h-368v-168h320v-116h-320v-184h383v-120zM502 284v323l-181 -323h181zM826 895l-108 -120h-89l54 120h143z" />
    <glyph glyph-name="aeacute" unicode="&#x1fd;" horiz-adv-x="875" 
d="M846 227h-365c5 -53 31 -135 134 -135c42 0 85 18 121 68l95 -59c-33 -40 -97 -116 -234 -116c-40 0 -100 2 -186 74c-62 -55 -121 -74 -199 -74c-142 0 -183 86 -183 152c0 21 4 62 41 99c34 34 85 54 182 74c41 8 73 14 112 31c0 59 -38 87 -94 87
c-71 0 -100 -35 -100 -81h-116c3 32 16 168 208 168c83 0 134 -22 172 -65c28 25 72 65 163 65c43 0 239 -1 249 -288zM704 313c-12 59 -49 105 -113 105c-16 0 -50 -2 -79 -33c-25 -27 -29 -59 -30 -72h222zM364 240c-52 -21 -83 -24 -137 -35c-10 -2 -71 -13 -71 -66
c0 -29 21 -66 85 -66c58 0 89 33 101 51c17 25 20 56 22 116zM581 706l-108 -133h-91l50 133h149z" />
    <glyph glyph-name="Oslashacute" unicode="&#x1fe;" horiz-adv-x="771" 
d="M681 683l59 -67l-66 -59c20 -37 52 -102 52 -205c0 -173 -101 -370 -342 -370c-138 0 -200 64 -240 107l-64 -56l-57 66l70 62c-30 59 -47 95 -47 189c0 249 176 374 344 374c125 0 195 -62 229 -96zM200 255l325 290c-20 20 -60 60 -133 60c-126 0 -214 -115 -214 -241
c0 -56 9 -80 22 -109zM571 466l-327 -289c17 -27 56 -74 139 -74c103 0 211 82 211 243c0 18 -1 69 -23 120zM535 895l-108 -120h-89l54 120h143z" />
    <glyph glyph-name="oslashacute" unicode="&#x1ff;" horiz-adv-x="583" 
d="M565 432l-56 -45c16 -28 38 -66 38 -139c0 -32 -4 -110 -64 -180c-32 -38 -87 -83 -201 -83c-77 0 -123 22 -176 77l-53 -42l-44 59l56 45c-14 24 -35 63 -35 129c0 19 1 54 17 98c20 54 85 164 244 164c97 0 147 -41 177 -68l51 41zM156 196l224 180
c-19 23 -54 41 -89 41c-22 0 -66 -3 -104 -45c-39 -44 -39 -97 -39 -116c0 -13 1 -31 8 -60zM417 313l-225 -180c13 -16 43 -49 100 -49c51 0 84 29 97 43c39 41 40 92 40 114c0 36 -5 56 -12 72zM422 706l-108 -133h-91l50 133h149z" />
    <glyph glyph-name="Scommaaccent" unicode="&#x218;" horiz-adv-x="667" 
d="M625 581l-109 -81c-22 36 -73 105 -184 105c-30 0 -132 -11 -132 -86c0 -55 54 -68 129 -84l74 -16c111 -24 229 -67 229 -209c0 -175 -174 -228 -300 -228c-118 0 -246 42 -309 151l111 77c31 -46 89 -106 219 -106c77 0 136 32 136 93c0 58 -47 71 -136 91l-90 20
c-90 20 -202 58 -202 196c0 125 101 220 279 220c63 0 187 -10 285 -143zM293 -38h95v-55c0 -77 -67 -82 -90 -84v33c22 2 29 18 29 31h-34v75z" />
    <glyph glyph-name="scommaaccent" unicode="&#x219;" horiz-adv-x="521" 
d="M474 422l-85 -79c-27 53 -78 76 -136 76c-23 0 -83 -7 -83 -52c0 -33 30 -43 102 -56l81 -15c76 -14 134 -59 134 -140c0 -92 -87 -171 -225 -171s-212 61 -240 90l90 73c24 -32 69 -64 144 -64c72 0 98 37 98 59c0 29 -28 40 -74 48l-62 11c-39 7 -174 32 -174 150
c0 99 95 163 215 163c39 0 140 -6 215 -93zM217 -38h95v-55c0 -77 -67 -82 -90 -84v33c22 2 29 18 29 31h-34v75z" />
    <glyph glyph-name="uni021A" unicode="&#x21a;" 
d="M541 587h-195v-587h-132v587h-192v119h519v-119zM233 -38h95v-55c0 -77 -67 -82 -90 -84v33c22 2 29 18 29 31h-34v75z" />
    <glyph glyph-name="uni021B" unicode="&#x21b;" horiz-adv-x="313" 
d="M4 415v85h73v178h120v-178h107v-85h-107v-248c0 -19 1 -41 12 -53c14 -15 40 -15 45 -15c17 0 35 2 50 6v-101c-16 -2 -45 -8 -86 -8c-107 0 -141 39 -141 121v298h-73zM137 -38h95v-55c0 -77 -67 -82 -90 -84v33c22 2 29 18 29 31h-34v75z" />
    <glyph glyph-name="uniF6C1" unicode="&#xf6c1;" horiz-adv-x="667" 
d="M625 581l-109 -81c-22 36 -73 105 -184 105c-30 0 -132 -11 -132 -86c0 -55 54 -68 129 -84l74 -16c111 -24 229 -67 229 -209c0 -163 -150 -219 -273 -227l-22 -29h7c80 0 94 -42 94 -64c0 -33 -21 -76 -155 -76c-14 0 -27 0 -41 1v31s13 -1 18 -1c25 0 63 2 63 26
c0 21 -32 24 -66 24c-7 0 -14 -1 -20 -2v15l71 75c-111 5 -226 48 -285 150l111 77c31 -46 89 -106 219 -106c77 0 136 32 136 93c0 58 -47 71 -136 91l-90 20c-90 20 -202 58 -202 196c0 125 101 220 279 220c63 0 187 -10 285 -143z" />
    <glyph glyph-name="uniF6C2" unicode="&#xf6c2;" horiz-adv-x="521" 
d="M474 422l-85 -79c-27 53 -78 76 -136 76c-23 0 -83 -7 -83 -52c0 -33 30 -43 102 -56l81 -15c76 -14 134 -59 134 -140c0 -87 -77 -161 -202 -170l-24 -32h7c80 0 94 -42 94 -64c0 -33 -21 -76 -155 -76c-14 0 -27 0 -41 1v31s13 -1 18 -1c25 0 63 2 63 26
c0 21 -32 24 -66 24c-7 0 -14 -1 -20 -2v15l75 78c-122 7 -188 62 -214 89l90 73c24 -32 69 -64 144 -64c72 0 98 37 98 59c0 29 -28 40 -74 48l-62 11c-39 7 -174 32 -174 150c0 99 95 163 215 163c39 0 140 -6 215 -93z" />
    <glyph glyph-name="i.dot" horiz-adv-x="250" 
d="M184 578h-119v121h119v-121zM184 0h-119v500h119v-500z" />
    <glyph glyph-name="zero.numerator" horiz-adv-x="375" 
d="M349 458c0 -155 -55 -233 -163 -233c-101 0 -161 73 -161 223c0 162 65 232 166 232s158 -79 158 -222zM261 450c0 110 -21 156 -72 156c-52 0 -75 -47 -75 -151c0 -118 22 -155 74 -155c51 0 73 43 73 150z" />
    <glyph glyph-name="one.numerator" horiz-adv-x="375" 
d="M257 233h-85v274c0 18 -4 27 -45 27h-63v61h21c19 0 93 1 101 85h71v-447z" />
    <glyph glyph-name="two.numerator" horiz-adv-x="375" 
d="M338 233h-302v66c190 131 200 212 200 242c0 49 -33 62 -54 62c-63 0 -58 -68 -61 -101l-87 7l1 11c3 39 12 161 150 161c82 0 144 -48 144 -137c0 -102 -82 -164 -178 -240h187v-71z" />
    <glyph glyph-name="three.numerator" horiz-adv-x="375" 
d="M145 431v71h30c14 0 63 1 63 49c0 31 -20 54 -58 54c-48 0 -58 -38 -63 -73l-85 19c14 98 91 130 156 130c99 0 139 -69 139 -121c0 -11 0 -69 -72 -91c34 -12 81 -30 81 -103c0 -94 -75 -141 -157 -141c-64 0 -158 29 -158 144v11h87v-4c0 -17 5 -78 72 -78
c40 0 67 29 67 70c0 62 -66 63 -77 63h-25z" />
    <glyph glyph-name="four.numerator" horiz-adv-x="375" 
d="M346 332h-59v-99h-80v101h-194v63l194 278h83v-271h56v-72zM102 405h108c0 20 0 73 2 169z" />
    <glyph glyph-name="five.numerator" horiz-adv-x="375" 
d="M325 677l-7 -71h-182l-16 -101c29 23 51 31 89 31c85 0 142 -59 142 -147c0 -98 -70 -164 -173 -164c-92 0 -150 48 -159 132l94 5c3 -39 28 -62 70 -62c47 0 80 35 80 85c0 51 -33 85 -83 85c-34 0 -54 -12 -71 -42l-76 5l33 244h259z" />
    <glyph glyph-name="six.numerator" horiz-adv-x="375" 
d="M113 471c27 30 62 45 107 45c79 0 135 -57 135 -137c0 -89 -68 -154 -163 -154c-108 0 -167 75 -167 214c0 155 65 242 179 242c81 0 139 -45 148 -113l-91 -11c-4 33 -22 49 -58 49c-57 0 -83 -38 -90 -135zM270 372c0 45 -28 74 -72 74c-47 0 -78 -30 -78 -75
s29 -74 74 -74s76 30 76 75z" />
    <glyph glyph-name="seven.numerator" horiz-adv-x="375" 
d="M39 680h297v-68c-95 -127 -131 -216 -153 -379h-97c19 150 71 276 164 377h-211v70z" />
    <glyph glyph-name="eight.numerator" horiz-adv-x="375" 
d="M282 463c46 -24 68 -58 68 -103c0 -81 -66 -135 -163 -135c-96 0 -162 54 -162 132c0 48 23 82 72 106c-36 17 -56 51 -56 94c0 73 61 123 150 123s148 -50 148 -125c0 -44 -16 -71 -57 -92zM255 549c0 36 -25 58 -66 58s-65 -22 -65 -58c0 -37 25 -59 66 -59
s65 22 65 59zM263 359c0 41 -28 65 -73 65s-74 -24 -74 -63s29 -63 74 -63c44 0 73 24 73 61z" />
    <glyph glyph-name="nine.numerator" horiz-adv-x="375" 
d="M266 434c-28 -31 -61 -45 -105 -45c-82 0 -138 56 -138 138c0 89 68 154 162 154c109 0 167 -75 167 -215c0 -154 -63 -241 -179 -241c-80 0 -138 44 -147 113l93 11c4 -33 23 -50 58 -50c57 0 82 38 89 135zM108 534c0 -45 29 -75 73 -75c47 0 77 30 77 76
c0 45 -29 73 -73 73c-46 0 -77 -30 -77 -74z" />
    <glyph glyph-name="period.numerator" horiz-adv-x="142" 
d="M116 233h-90v96h90v-96z" />
    <glyph glyph-name="comma.numerator" horiz-adv-x="141" 
d="M116 329v-96c0 -47 -29 -84 -85 -89v42c27 4 34 23 34 47h-39v96h90z" />
    <glyph glyph-name="hyphen.numerator" horiz-adv-x="238" 
d="M209 395h-180v80h180v-80z" />
    <glyph glyph-name="parenleft.numerator" horiz-adv-x="221" 
d="M218 172l-34 -41c-99 70 -158 176 -158 299c0 125 57 230 156 302l35 -37c-72 -69 -104 -151 -104 -258c0 -110 39 -208 105 -265z" />
    <glyph glyph-name="parenright.numerator" horiz-adv-x="221" 
d="M3 691l34 41c99 -70 158 -176 158 -299c0 -125 -57 -230 -156 -302l-35 37c72 69 104 151 104 258c0 110 -39 208 -105 265z" />
    <glyph glyph-name="dollar.numerator" horiz-adv-x="406" 
d="M373 595l-62 -49c-18 27 -50 46 -72 49v-98c117 -25 144 -70 144 -135c0 -78 -65 -122 -144 -129v-71h-63v71c-61 7 -115 31 -151 83l65 52c9 -14 49 -52 86 -56v103c-96 22 -139 59 -139 130c0 62 45 118 139 123v67h63v-67c75 -6 115 -48 134 -73zM176 507v88
c-31 -1 -54 -14 -54 -43c0 -21 13 -41 54 -45zM239 406v-95c40 3 55 24 55 47c0 28 -16 42 -55 48z" />
    <glyph glyph-name="cent.numerator" horiz-adv-x="351" 
d="M270 370l69 -35c-18 -53 -68 -96 -119 -102v-68h-63v68c-103 18 -135 93 -135 165c0 76 37 150 136 167v67h62v-67c65 -7 97 -47 115 -92l-70 -32c-9 27 -24 44 -46 50v-179c27 8 44 30 51 58zM156 314v177c-34 -13 -50 -42 -50 -90s17 -78 50 -87z" />
    <glyph glyph-name="sterling.numerator" horiz-adv-x="411" 
d="M308 378h87c0 -47 -7 -153 -104 -153c-36 0 -65 16 -100 32c-26 -19 -49 -32 -84 -32c-52 0 -81 30 -81 72c0 39 27 71 76 71c12 0 30 -3 49 -10c2 5 3 12 3 19c0 8 -5 24 -17 37h-88v67h50c-9 12 -26 38 -26 76c0 81 69 123 155 123c69 0 149 -37 149 -136
c0 -6 -1 -24 -2 -30h-89c2 9 3 18 3 30c0 41 -25 63 -65 63c-28 0 -60 -15 -60 -56c0 -23 12 -46 32 -70h93v-67h-63c6 -16 9 -33 9 -49s-4 -35 -9 -44c13 -9 29 -19 47 -19c33 0 35 39 35 76zM136 297c-12 9 -19 12 -28 12c-11 0 -17 -6 -17 -15c0 -8 7 -14 18 -14
c10 0 18 4 27 17z" />
    <glyph glyph-name="yen.numerator" horiz-adv-x="423" 
d="M417 677l-103 -170h62v-59h-97l-25 -41h122v-59h-122v-115h-91v115h-120v59h119l-20 41h-99v59h64l-101 170h107l98 -188l103 188h103z" />
    <glyph glyph-name="florin.numerator" horiz-adv-x="292" 
d="M191 549h65l-7 -67h-65l-28 -240c-9 -77 -42 -102 -96 -102c-19 0 -44 5 -49 7l9 73c5 -2 10 -3 22 -3c25 0 27 23 31 56l25 209h-48l7 67h48l2 12c11 80 25 119 113 119c15 0 35 -1 51 -4l-10 -74c-8 1 -16 2 -25 2c-29 0 -39 -11 -43 -41z" />
    <glyph glyph-name="Euro.numerator" horiz-adv-x="467" 
d="M445 633l-30 -84c-31 39 -70 57 -117 57c-58 0 -97 -15 -116 -70h227l-23 -59h-213c-1 -8 -1 -33 -1 -41h211l-23 -59h-180c14 -45 51 -75 118 -75c51 0 101 22 133 56v-94c-41 -28 -88 -39 -137 -39c-118 0 -186 62 -211 152h-58l21 59h30c0 9 0 31 1 41h-52l21 59h41
c26 95 104 144 209 144c59 0 109 -16 149 -47z" />
    <glyph glyph-name="zero.denominator" horiz-adv-x="375" 
d="M349 225c0 -155 -55 -233 -163 -233c-101 0 -161 73 -161 223c0 162 65 232 166 232s158 -79 158 -222zM261 217c0 110 -21 156 -72 156c-52 0 -75 -47 -75 -151c0 -118 22 -155 74 -155c51 0 73 43 73 150z" />
    <glyph glyph-name="one.denominator" horiz-adv-x="375" 
d="M257 0h-85v274c0 18 -4 27 -45 27h-63v61h21c19 0 93 1 101 85h71v-447z" />
    <glyph glyph-name="two.denominator" horiz-adv-x="375" 
d="M338 0h-302v66c190 131 200 212 200 242c0 49 -33 62 -54 62c-63 0 -58 -68 -61 -101l-87 7l1 11c3 39 12 161 150 161c82 0 144 -48 144 -137c0 -102 -82 -164 -178 -240h187v-71z" />
    <glyph glyph-name="three.denominator" horiz-adv-x="375" 
d="M145 198v71h30c14 0 63 1 63 49c0 31 -20 54 -58 54c-48 0 -58 -38 -63 -73l-85 19c14 98 91 130 156 130c99 0 139 -69 139 -121c0 -11 0 -69 -72 -91c34 -12 81 -30 81 -103c0 -94 -75 -141 -157 -141c-64 0 -158 29 -158 144v11h87v-4c0 -17 5 -78 72 -78
c40 0 67 29 67 70c0 62 -66 63 -77 63h-25z" />
    <glyph glyph-name="four.denominator" horiz-adv-x="375" 
d="M346 99h-59v-99h-80v101h-194v63l194 278h83v-271h56v-72zM102 172h108c0 20 0 73 2 169z" />
    <glyph glyph-name="five.denominator" horiz-adv-x="375" 
d="M325 444l-7 -71h-182l-16 -101c29 23 51 31 89 31c85 0 142 -59 142 -147c0 -98 -70 -164 -173 -164c-92 0 -150 48 -159 132l94 5c3 -39 28 -62 70 -62c47 0 80 35 80 85c0 51 -33 85 -83 85c-34 0 -54 -12 -71 -42l-76 5l33 244h259z" />
    <glyph glyph-name="six.denominator" horiz-adv-x="375" 
d="M113 238c27 30 62 45 107 45c79 0 135 -57 135 -137c0 -89 -68 -154 -163 -154c-108 0 -167 75 -167 214c0 155 65 242 179 242c81 0 139 -45 148 -113l-91 -11c-4 33 -22 49 -58 49c-57 0 -83 -38 -90 -135zM270 139c0 45 -28 74 -72 74c-47 0 -78 -30 -78 -75
s29 -74 74 -74s76 30 76 75z" />
    <glyph glyph-name="seven.denominator" horiz-adv-x="375" 
d="M39 447h297v-68c-95 -127 -131 -216 -153 -379h-97c19 150 71 276 164 377h-211v70z" />
    <glyph glyph-name="eight.denominator" horiz-adv-x="375" 
d="M282 230c46 -24 68 -58 68 -103c0 -81 -66 -135 -163 -135c-96 0 -162 54 -162 132c0 48 23 82 72 106c-36 17 -56 51 -56 94c0 73 61 123 150 123s148 -50 148 -125c0 -44 -16 -71 -57 -92zM255 316c0 36 -25 58 -66 58s-65 -22 -65 -58c0 -37 25 -59 66 -59
s65 22 65 59zM263 126c0 41 -28 65 -73 65s-74 -24 -74 -63s29 -63 74 -63c44 0 73 24 73 61z" />
    <glyph glyph-name="nine.denominator" horiz-adv-x="375" 
d="M266 201c-28 -31 -61 -45 -105 -45c-82 0 -138 56 -138 138c0 89 68 154 162 154c109 0 167 -75 167 -215c0 -154 -63 -241 -179 -241c-80 0 -138 44 -147 113l93 11c4 -33 23 -50 58 -50c57 0 82 38 89 135zM108 301c0 -45 29 -75 73 -75c47 0 77 30 77 76
c0 45 -29 73 -73 73c-46 0 -77 -30 -77 -74z" />
    <glyph glyph-name="period.denominator" horiz-adv-x="142" 
d="M116 0h-90v96h90v-96z" />
    <glyph glyph-name="comma.denominator" horiz-adv-x="141" 
d="M116 96v-96c0 -47 -29 -84 -85 -89v42c27 4 34 23 34 47h-39v96h90z" />
    <glyph glyph-name="hyphen.denominator" horiz-adv-x="238" 
d="M209 162h-180v80h180v-80z" />
    <glyph glyph-name="parenleft.denominator" horiz-adv-x="221" 
d="M218 -61l-34 -41c-99 70 -158 176 -158 299c0 125 57 230 156 302l35 -37c-72 -69 -104 -151 -104 -258c0 -110 39 -208 105 -265z" />
    <glyph glyph-name="parenright.denominator" horiz-adv-x="221" 
d="M3 458l34 41c99 -70 158 -176 158 -299c0 -125 -57 -230 -156 -302l-35 37c72 69 104 151 104 258c0 110 -39 208 -105 265z" />
    <glyph glyph-name="dollar.denominator" horiz-adv-x="406" 
d="M373 362l-62 -49c-18 27 -50 46 -72 49v-98c117 -25 144 -70 144 -135c0 -78 -65 -122 -144 -129v-71h-63v71c-61 7 -115 31 -151 83l65 52c9 -14 49 -52 86 -56v103c-96 22 -139 59 -139 130c0 62 45 118 139 123v67h63v-67c75 -6 115 -48 134 -73zM176 274v88
c-31 -1 -54 -14 -54 -43c0 -21 13 -41 54 -45zM239 173v-95c40 3 55 24 55 47c0 28 -16 42 -55 48z" />
    <glyph glyph-name="cent.denominator" horiz-adv-x="351" 
d="M270 137l69 -35c-18 -53 -68 -96 -119 -102v-68h-63v68c-103 18 -135 93 -135 165c0 76 37 150 136 167v67h62v-67c65 -7 97 -47 115 -92l-70 -32c-9 27 -24 44 -46 50v-179c27 8 44 30 51 58zM156 81v177c-34 -13 -50 -42 -50 -90s17 -78 50 -87z" />
    <glyph glyph-name="sterling.denominator" horiz-adv-x="411" 
d="M308 145h87c0 -47 -7 -153 -104 -153c-36 0 -65 16 -100 32c-26 -19 -49 -32 -84 -32c-52 0 -81 30 -81 72c0 39 27 71 76 71c12 0 30 -3 49 -10c2 5 3 12 3 19c0 8 -5 24 -17 37h-88v67h50c-9 12 -26 38 -26 76c0 81 69 123 155 123c69 0 149 -37 149 -136
c0 -6 -1 -24 -2 -30h-89c2 9 3 18 3 30c0 41 -25 63 -65 63c-28 0 -60 -15 -60 -56c0 -23 12 -46 32 -70h93v-67h-63c6 -16 9 -33 9 -49s-4 -35 -9 -44c13 -9 29 -19 47 -19c33 0 35 39 35 76zM136 64c-12 9 -19 12 -28 12c-11 0 -17 -6 -17 -15c0 -8 7 -14 18 -14
c10 0 18 4 27 17z" />
    <glyph glyph-name="yen.denominator" horiz-adv-x="423" 
d="M417 444l-103 -170h62v-59h-97l-25 -41h122v-59h-122v-115h-91v115h-120v59h119l-20 41h-99v59h64l-101 170h107l98 -188l103 188h103z" />
    <glyph glyph-name="florin.denominator" horiz-adv-x="292" 
d="M191 316h65l-7 -67h-65l-28 -240c-9 -77 -42 -102 -96 -102c-19 0 -44 5 -49 7l9 73c5 -2 10 -3 22 -3c25 0 27 23 31 56l25 209h-48l7 67h48l2 12c11 80 25 119 113 119c15 0 35 -1 51 -4l-10 -74c-8 1 -16 2 -25 2c-29 0 -39 -11 -43 -41z" />
    <glyph glyph-name="Euro.denominator" horiz-adv-x="467" 
d="M445 400l-30 -84c-31 39 -70 57 -117 57c-58 0 -97 -15 -116 -70h227l-23 -59h-213c-1 -8 -1 -33 -1 -41h211l-23 -59h-180c14 -45 51 -75 118 -75c51 0 101 22 133 56v-94c-41 -28 -88 -39 -137 -39c-118 0 -186 62 -211 152h-58l21 59h30c0 9 0 31 1 41h-52l21 59h41
c26 95 104 144 209 144c59 0 109 -16 149 -47z" />
    <glyph glyph-name="zero.superior" unicode="&#x2070;" horiz-adv-x="375" 
d="M349 654c0 -155 -55 -233 -163 -233c-101 0 -161 73 -161 223c0 162 65 232 166 232s158 -79 158 -222zM261 646c0 110 -21 156 -72 156c-52 0 -75 -47 -75 -151c0 -118 22 -155 74 -155c51 0 73 43 73 150z" />
    <glyph glyph-name="one.superior" horiz-adv-x="375" 
d="M257 429h-85v274c0 18 -4 27 -45 27h-63v61h21c19 0 93 1 101 85h71v-447z" />
    <glyph glyph-name="two.superior" horiz-adv-x="375" 
d="M338 429h-302v66c190 131 200 212 200 242c0 49 -33 62 -54 62c-63 0 -58 -68 -61 -101l-87 7l1 11c3 39 12 161 150 161c82 0 144 -48 144 -137c0 -102 -82 -164 -178 -240h187v-71z" />
    <glyph glyph-name="three.superior" horiz-adv-x="375" 
d="M145 627v71h30c14 0 63 1 63 49c0 31 -20 54 -58 54c-48 0 -58 -38 -63 -73l-85 19c14 98 91 130 156 130c99 0 139 -69 139 -121c0 -11 0 -69 -72 -91c34 -12 81 -30 81 -103c0 -94 -75 -141 -157 -141c-64 0 -158 29 -158 144v11h87v-4c0 -17 5 -78 72 -78
c40 0 67 29 67 70c0 62 -66 63 -77 63h-25z" />
    <glyph glyph-name="four.superior" unicode="&#x2074;" horiz-adv-x="375" 
d="M346 528h-59v-99h-80v101h-194v63l194 278h83v-271h56v-72zM102 601h108c0 20 0 73 2 169z" />
    <glyph glyph-name="five.superior" unicode="&#x2075;" horiz-adv-x="375" 
d="M325 873l-7 -71h-182l-16 -101c29 23 51 31 89 31c85 0 142 -59 142 -147c0 -98 -70 -164 -173 -164c-92 0 -150 48 -159 132l94 5c3 -39 28 -62 70 -62c47 0 80 35 80 85c0 51 -33 85 -83 85c-34 0 -54 -12 -71 -42l-76 5l33 244h259z" />
    <glyph glyph-name="six.superior" unicode="&#x2076;" horiz-adv-x="375" 
d="M113 667c27 30 62 45 107 45c79 0 135 -57 135 -137c0 -89 -68 -154 -163 -154c-108 0 -167 75 -167 214c0 155 65 242 179 242c81 0 139 -45 148 -113l-91 -11c-4 33 -22 49 -58 49c-57 0 -83 -38 -90 -135zM270 568c0 45 -28 74 -72 74c-47 0 -78 -30 -78 -75
s29 -74 74 -74s76 30 76 75z" />
    <glyph glyph-name="seven.superior" unicode="&#x2077;" horiz-adv-x="375" 
d="M39 876h297v-68c-95 -127 -131 -216 -153 -379h-97c19 150 71 276 164 377h-211v70z" />
    <glyph glyph-name="eight.superior" unicode="&#x2078;" horiz-adv-x="375" 
d="M282 659c46 -24 68 -58 68 -103c0 -81 -66 -135 -163 -135c-96 0 -162 54 -162 132c0 48 23 82 72 106c-36 17 -56 51 -56 94c0 73 61 123 150 123s148 -50 148 -125c0 -44 -16 -71 -57 -92zM255 745c0 36 -25 58 -66 58s-65 -22 -65 -58c0 -37 25 -59 66 -59
s65 22 65 59zM263 555c0 41 -28 65 -73 65s-74 -24 -74 -63s29 -63 74 -63c44 0 73 24 73 61z" />
    <glyph glyph-name="nine.superior" unicode="&#x2079;" horiz-adv-x="375" 
d="M266 630c-28 -31 -61 -45 -105 -45c-82 0 -138 56 -138 138c0 89 68 154 162 154c109 0 167 -75 167 -215c0 -154 -63 -241 -179 -241c-80 0 -138 44 -147 113l93 11c4 -33 23 -50 58 -50c57 0 82 38 89 135zM108 730c0 -45 29 -75 73 -75c47 0 77 30 77 76
c0 45 -29 73 -73 73c-46 0 -77 -30 -77 -74z" />
    <glyph glyph-name="period.superior" horiz-adv-x="142" 
d="M116 429h-90v96h90v-96z" />
    <glyph glyph-name="comma.superior" horiz-adv-x="141" 
d="M116 525v-96c0 -47 -29 -84 -85 -89v42c27 4 34 23 34 47h-39v96h90z" />
    <glyph glyph-name="hyphen.superior" horiz-adv-x="238" 
d="M209 591h-180v80h180v-80z" />
    <glyph glyph-name="parenleft.superior" unicode="&#x207d;" horiz-adv-x="221" 
d="M218 368l-34 -41c-99 70 -158 176 -158 299c0 125 57 230 156 302l35 -37c-72 -69 -104 -151 -104 -258c0 -110 39 -208 105 -265z" />
    <glyph glyph-name="parenright.superior" unicode="&#x207e;" horiz-adv-x="221" 
d="M3 887l34 41c99 -70 158 -176 158 -299c0 -125 -57 -230 -156 -302l-35 37c72 69 104 151 104 258c0 110 -39 208 -105 265z" />
    <glyph glyph-name="dollar.superior" horiz-adv-x="406" 
d="M373 791l-62 -49c-18 27 -50 46 -72 49v-98c117 -25 144 -70 144 -135c0 -78 -65 -122 -144 -129v-71h-63v71c-61 7 -115 31 -151 83l65 52c9 -14 49 -52 86 -56v103c-96 22 -139 59 -139 130c0 62 45 118 139 123v67h63v-67c75 -6 115 -48 134 -73zM176 703v88
c-31 -1 -54 -14 -54 -43c0 -21 13 -41 54 -45zM239 602v-95c40 3 55 24 55 47c0 28 -16 42 -55 48z" />
    <glyph glyph-name="cent.superior" horiz-adv-x="351" 
d="M270 566l69 -35c-18 -53 -68 -96 -119 -102v-68h-63v68c-103 18 -135 93 -135 165c0 76 37 150 136 167v67h62v-67c65 -7 97 -47 115 -92l-70 -32c-9 27 -24 44 -46 50v-179c27 8 44 30 51 58zM156 510v177c-34 -13 -50 -42 -50 -90s17 -78 50 -87z" />
    <glyph glyph-name="sterling.superior" horiz-adv-x="411" 
d="M308 574h87c0 -47 -7 -153 -104 -153c-36 0 -65 16 -100 32c-26 -19 -49 -32 -84 -32c-52 0 -81 30 -81 72c0 39 27 71 76 71c12 0 30 -3 49 -10c2 5 3 12 3 19c0 8 -5 24 -17 37h-88v67h50c-9 12 -26 38 -26 76c0 81 69 123 155 123c69 0 149 -37 149 -136
c0 -6 -1 -24 -2 -30h-89c2 9 3 18 3 30c0 41 -25 63 -65 63c-28 0 -60 -15 -60 -56c0 -23 12 -46 32 -70h93v-67h-63c6 -16 9 -33 9 -49s-4 -35 -9 -44c13 -9 29 -19 47 -19c33 0 35 39 35 76zM136 493c-12 9 -19 12 -28 12c-11 0 -17 -6 -17 -15c0 -8 7 -14 18 -14
c10 0 18 4 27 17z" />
    <glyph glyph-name="yen.superior" horiz-adv-x="423" 
d="M417 873l-103 -170h62v-59h-97l-25 -41h122v-59h-122v-115h-91v115h-120v59h119l-20 41h-99v59h64l-101 170h107l98 -188l103 188h103z" />
    <glyph glyph-name="florin.superior" horiz-adv-x="292" 
d="M191 745h65l-7 -67h-65l-28 -240c-9 -77 -42 -102 -96 -102c-19 0 -44 5 -49 7l9 73c5 -2 10 -3 22 -3c25 0 27 23 31 56l25 209h-48l7 67h48l2 12c11 80 25 119 113 119c15 0 35 -1 51 -4l-10 -74c-8 1 -16 2 -25 2c-29 0 -39 -11 -43 -41z" />
    <glyph glyph-name="Euro.superior" horiz-adv-x="467" 
d="M445 829l-30 -84c-31 39 -70 57 -117 57c-58 0 -97 -15 -116 -70h227l-23 -59h-213c-1 -8 -1 -33 -1 -41h211l-23 -59h-180c14 -45 51 -75 118 -75c51 0 101 22 133 56v-94c-41 -28 -88 -39 -137 -39c-118 0 -186 62 -211 152h-58l21 59h30c0 9 0 31 1 41h-52l21 59h41
c26 95 104 144 209 144c59 0 109 -16 149 -47z" />
    <glyph glyph-name="zero.inferior" unicode="&#x2080;" horiz-adv-x="375" 
d="M349 62c0 -155 -55 -233 -163 -233c-101 0 -161 73 -161 223c0 162 65 232 166 232s158 -79 158 -222zM261 54c0 110 -21 156 -72 156c-52 0 -75 -47 -75 -151c0 -118 22 -155 74 -155c51 0 73 43 73 150z" />
    <glyph glyph-name="one.inferior" unicode="&#x2081;" horiz-adv-x="375" 
d="M257 -163h-85v274c0 18 -4 27 -45 27h-63v61h21c19 0 93 1 101 85h71v-447z" />
    <glyph glyph-name="two.inferior" unicode="&#x2082;" horiz-adv-x="375" 
d="M338 -163h-302v66c190 131 200 212 200 242c0 49 -33 62 -54 62c-63 0 -58 -68 -61 -101l-87 7l1 11c3 39 12 161 150 161c82 0 144 -48 144 -137c0 -102 -82 -164 -178 -240h187v-71z" />
    <glyph glyph-name="three.inferior" unicode="&#x2083;" horiz-adv-x="375" 
d="M145 35v71h30c14 0 63 1 63 49c0 31 -20 54 -58 54c-48 0 -58 -38 -63 -73l-85 19c14 98 91 130 156 130c99 0 139 -69 139 -121c0 -11 0 -69 -72 -91c34 -12 81 -30 81 -103c0 -94 -75 -141 -157 -141c-64 0 -158 29 -158 144v11h87v-4c0 -17 5 -78 72 -78
c40 0 67 29 67 70c0 62 -66 63 -77 63h-25z" />
    <glyph glyph-name="four.inferior" unicode="&#x2084;" horiz-adv-x="375" 
d="M346 -64h-59v-99h-80v101h-194v63l194 278h83v-271h56v-72zM102 9h108c0 20 0 73 2 169z" />
    <glyph glyph-name="five.inferior" unicode="&#x2085;" horiz-adv-x="375" 
d="M325 281l-7 -71h-182l-16 -101c29 23 51 31 89 31c85 0 142 -59 142 -147c0 -98 -70 -164 -173 -164c-92 0 -150 48 -159 132l94 5c3 -39 28 -62 70 -62c47 0 80 35 80 85c0 51 -33 85 -83 85c-34 0 -54 -12 -71 -42l-76 5l33 244h259z" />
    <glyph glyph-name="six.inferior" unicode="&#x2086;" horiz-adv-x="375" 
d="M113 75c27 30 62 45 107 45c79 0 135 -57 135 -137c0 -89 -68 -154 -163 -154c-108 0 -167 75 -167 214c0 155 65 242 179 242c81 0 139 -45 148 -113l-91 -11c-4 33 -22 49 -58 49c-57 0 -83 -38 -90 -135zM270 -24c0 45 -28 74 -72 74c-47 0 -78 -30 -78 -75
s29 -74 74 -74s76 30 76 75z" />
    <glyph glyph-name="seven.inferior" unicode="&#x2087;" horiz-adv-x="375" 
d="M39 284h297v-68c-95 -127 -131 -216 -153 -379h-97c19 150 71 276 164 377h-211v70z" />
    <glyph glyph-name="eight.inferior" unicode="&#x2088;" horiz-adv-x="375" 
d="M282 67c46 -24 68 -58 68 -103c0 -81 -66 -135 -163 -135c-96 0 -162 54 -162 132c0 48 23 82 72 106c-36 17 -56 51 -56 94c0 73 61 123 150 123s148 -50 148 -125c0 -44 -16 -71 -57 -92zM255 153c0 36 -25 58 -66 58s-65 -22 -65 -58c0 -37 25 -59 66 -59s65 22 65 59
zM263 -37c0 41 -28 65 -73 65s-74 -24 -74 -63s29 -63 74 -63c44 0 73 24 73 61z" />
    <glyph glyph-name="nine.inferior" unicode="&#x2089;" horiz-adv-x="375" 
d="M266 38c-28 -31 -61 -45 -105 -45c-82 0 -138 56 -138 138c0 89 68 154 162 154c109 0 167 -75 167 -215c0 -154 -63 -241 -179 -241c-80 0 -138 44 -147 113l93 11c4 -33 23 -50 58 -50c57 0 82 38 89 135zM108 138c0 -45 29 -75 73 -75c47 0 77 30 77 76
c0 45 -29 73 -73 73c-46 0 -77 -30 -77 -74z" />
    <glyph glyph-name="period.inferior" horiz-adv-x="142" 
d="M116 -163h-90v96h90v-96z" />
    <glyph glyph-name="comma.inferior" horiz-adv-x="141" 
d="M116 -67v-96c0 -47 -29 -84 -85 -89v42c27 4 34 23 34 47h-39v96h90z" />
    <glyph glyph-name="hyphen.inferior" horiz-adv-x="238" 
d="M209 -1h-180v80h180v-80z" />
    <glyph glyph-name="parenleft.inferior" unicode="&#x208d;" horiz-adv-x="221" 
d="M218 -224l-34 -41c-99 70 -158 176 -158 299c0 125 57 230 156 302l35 -37c-72 -69 -104 -151 -104 -258c0 -110 39 -208 105 -265z" />
    <glyph glyph-name="parenright.inferior" unicode="&#x208e;" horiz-adv-x="221" 
d="M3 295l34 41c99 -70 158 -176 158 -299c0 -125 -57 -230 -156 -302l-35 37c72 69 104 151 104 258c0 110 -39 208 -105 265z" />
    <glyph glyph-name="dollar.inferior" horiz-adv-x="406" 
d="M373 199l-62 -49c-18 27 -50 46 -72 49v-98c117 -25 144 -70 144 -135c0 -78 -65 -122 -144 -129v-71h-63v71c-61 7 -115 31 -151 83l65 52c9 -14 49 -52 86 -56v103c-96 22 -139 59 -139 130c0 62 45 118 139 123v67h63v-67c75 -6 115 -48 134 -73zM176 111v88
c-31 -1 -54 -14 -54 -43c0 -21 13 -41 54 -45zM239 10v-95c40 3 55 24 55 47c0 28 -16 42 -55 48z" />
    <glyph glyph-name="cent.inferior" horiz-adv-x="351" 
d="M270 -26l69 -35c-18 -53 -68 -96 -119 -102v-68h-63v68c-103 18 -135 93 -135 165c0 76 37 150 136 167v67h62v-67c65 -7 97 -47 115 -92l-70 -32c-9 27 -24 44 -46 50v-179c27 8 44 30 51 58zM156 -82v177c-34 -13 -50 -42 -50 -90s17 -78 50 -87z" />
    <glyph glyph-name="sterling.inferior" horiz-adv-x="411" 
d="M308 -18h87c0 -47 -7 -153 -104 -153c-36 0 -65 16 -100 32c-26 -19 -49 -32 -84 -32c-52 0 -81 30 -81 72c0 39 27 71 76 71c12 0 30 -3 49 -10c2 5 3 12 3 19c0 8 -5 24 -17 37h-88v67h50c-9 12 -26 38 -26 76c0 81 69 123 155 123c69 0 149 -37 149 -136
c0 -6 -1 -24 -2 -30h-89c2 9 3 18 3 30c0 41 -25 63 -65 63c-28 0 -60 -15 -60 -56c0 -23 12 -46 32 -70h93v-67h-63c6 -16 9 -33 9 -49s-4 -35 -9 -44c13 -9 29 -19 47 -19c33 0 35 39 35 76zM136 -99c-12 9 -19 12 -28 12c-11 0 -17 -6 -17 -15c0 -8 7 -14 18 -14
c10 0 18 4 27 17z" />
    <glyph glyph-name="yen.inferior" horiz-adv-x="423" 
d="M417 281l-103 -170h62v-59h-97l-25 -41h122v-59h-122v-115h-91v115h-120v59h119l-20 41h-99v59h64l-101 170h107l98 -188l103 188h103z" />
    <glyph glyph-name="florin.inferior" horiz-adv-x="292" 
d="M191 153h65l-7 -67h-65l-28 -240c-9 -77 -42 -102 -96 -102c-19 0 -44 5 -49 7l9 73c5 -2 10 -3 22 -3c25 0 27 23 31 56l25 209h-48l7 67h48l2 12c11 80 25 119 113 119c15 0 35 -1 51 -4l-10 -74c-8 1 -16 2 -25 2c-29 0 -39 -11 -43 -41z" />
    <glyph glyph-name="Euro.inferior" horiz-adv-x="467" 
d="M445 237l-30 -84c-31 39 -70 57 -117 57c-58 0 -97 -15 -116 -70h227l-23 -59h-213c-1 -8 -1 -33 -1 -41h211l-23 -59h-180c14 -45 51 -75 118 -75c51 0 101 22 133 56v-94c-41 -28 -88 -39 -137 -39c-118 0 -186 62 -211 152h-58l21 59h30c0 9 0 31 1 41h-52l21 59h41
c26 95 104 144 209 144c59 0 109 -16 149 -47z" />
    <glyph glyph-name="zero.fitted" 
d="M529 340c0 -277 -130 -349 -248 -349c-235 0 -245 239 -245 350c0 247 106 345 251 345c127 0 242 -88 242 -346zM165 334c0 -75 0 -232 118 -232c96 0 116 96 116 236c0 97 -4 237 -114 237c-101 0 -120 -115 -120 -241z" />
    <glyph glyph-name="one.fitted" horiz-adv-x="384" 
d="M303 0h-123v415c0 46 -22 54 -49 54h-116v77h13c43 0 80 1 117 28c36 26 48 60 58 101h100v-675z" />
    <glyph glyph-name="two.fitted" horiz-adv-x="489" 
d="M15 0v98c116 83 200 167 236 207c16 18 73 80 73 165c0 55 -29 101 -89 101c-92 0 -95 -92 -95 -144v-13l-125 12v5c0 85 26 140 48 170c22 31 81 85 183 85c80 0 130 -34 153 -55c44 -39 63 -99 63 -157c0 -20 -2 -62 -26 -112c-40 -84 -118 -143 -186 -201
c-24 -20 -47 -40 -72 -57h296v-104h-459z" />
    <glyph glyph-name="three.fitted" horiz-adv-x="507" 
d="M207 305v105h43c30 0 60 3 79 31c14 20 14 41 14 48c0 50 -35 86 -86 86c-18 0 -94 -5 -97 -113l-132 28c5 47 48 196 233 196c59 0 215 -27 215 -179c0 -27 -5 -117 -112 -145c60 -12 128 -58 128 -163c0 -138 -115 -208 -242 -208c-19 0 -117 2 -175 61
c-60 60 -60 148 -60 169h133c-1 -3 -2 -13 -2 -23c0 -14 7 -98 106 -98c75 0 106 56 106 107c0 10 -1 36 -18 60c-22 32 -57 38 -93 38h-40z" />
    <glyph glyph-name="four.fitted" horiz-adv-x="534" 
d="M519 155h-87v-155h-123v155h-296v88l296 432h123v-417h87v-103zM142 258h167c0 15 7 268 7 268z" />
    <glyph glyph-name="five.fitted" horiz-adv-x="512" 
d="M458 677l-10 -113h-262l-23 -149c33 42 109 50 130 50c29 0 94 -4 147 -63c41 -45 57 -101 57 -161c0 -91 -35 -142 -60 -170c-68 -77 -157 -80 -192 -80c-21 0 -96 1 -155 46c-51 40 -71 93 -75 152l139 9c2 -58 38 -99 97 -99c85 0 110 77 110 136
c0 48 -23 127 -112 127c-18 0 -79 -5 -101 -63l-112 7l47 371h375z" />
    <glyph glyph-name="six.fitted" horiz-adv-x="495" 
d="M476 517l-128 -17c0 49 -38 76 -79 76c-27 0 -71 -11 -95 -70c-15 -36 -23 -102 -24 -139c26 38 76 68 142 68c97 0 192 -70 192 -210c0 -124 -82 -234 -227 -234c-155 0 -238 119 -238 327c0 22 0 150 46 242c60 119 168 126 204 126c24 0 90 -3 145 -50
c49 -42 58 -95 62 -119zM358 213c0 63 -36 109 -96 109c-66 0 -101 -50 -101 -110c0 -76 42 -109 98 -109c19 0 99 3 99 110z" />
    <glyph glyph-name="seven.fitted" horiz-adv-x="478" 
d="M15 677h448v-110c-24 -29 -46 -60 -67 -92c-57 -89 -90 -165 -120 -265c-20 -69 -34 -139 -40 -210h-165c38 287 191 474 249 559h-305v118z" />
    <glyph glyph-name="eight.fitted" horiz-adv-x="532" 
d="M413 354c51 -28 104 -72 104 -159c0 -118 -100 -204 -252 -204c-86 0 -250 39 -250 203c0 83 50 134 111 160c-37 16 -87 63 -87 146c0 112 96 186 233 186c139 0 229 -76 229 -191c0 -92 -58 -126 -88 -141zM370 485c0 50 -30 91 -101 91c-47 0 -102 -18 -102 -91
c0 -65 49 -88 103 -88c79 0 100 48 100 88zM383 199c0 69 -55 98 -113 98c-68 0 -114 -37 -114 -99s47 -95 115 -95c60 0 112 30 112 96z" />
    <glyph glyph-name="nine.fitted" horiz-adv-x="497" 
d="M8 162l137 19c6 -39 24 -79 82 -79c89 0 110 125 110 193v5c-30 -42 -85 -59 -135 -59c-123 0 -194 85 -194 212c0 124 79 233 229 233c172 0 238 -144 238 -317c0 -174 -56 -378 -264 -378c-97 0 -186 56 -203 171zM138 465c0 -60 28 -116 95 -116c63 0 94 45 94 117
c0 70 -42 111 -95 111c-65 0 -94 -59 -94 -112z" />
    <glyph glyph-name="oneeighth" unicode="&#x215b;" horiz-adv-x="875" 
d="M276 -37l-69 31l315 684l68 -32zM245 233h-85v274c0 18 -4 27 -45 27h-63v61h21c19 0 93 1 101 85h71v-447zM758 230c46 -24 68 -58 68 -103c0 -81 -66 -135 -163 -135c-96 0 -162 54 -162 132c0 48 23 82 72 106c-36 17 -56 51 -56 94c0 73 61 123 150 123
s148 -50 148 -125c0 -44 -16 -71 -57 -92zM731 316c0 36 -25 58 -66 58s-65 -22 -65 -58c0 -37 25 -59 66 -59s65 22 65 59zM739 126c0 41 -28 65 -73 65s-74 -24 -74 -63s29 -63 74 -63c44 0 73 24 73 61z" />
    <glyph glyph-name="threeeighths" unicode="&#x215c;" horiz-adv-x="875" 
d="M296 -37l-69 31l315 684l68 -32zM142 431v71h30c14 0 63 1 63 49c0 31 -20 54 -58 54c-48 0 -58 -38 -63 -73l-85 19c14 98 91 130 156 130c99 0 139 -69 139 -121c0 -11 0 -69 -72 -91c34 -12 81 -30 81 -103c0 -94 -75 -141 -157 -141c-64 0 -158 29 -158 144v11h87v-4
c0 -17 5 -78 72 -78c40 0 67 29 67 70c0 62 -66 63 -77 63h-25zM767 230c46 -24 68 -58 68 -103c0 -81 -66 -135 -163 -135c-96 0 -162 54 -162 132c0 48 23 82 72 106c-36 17 -56 51 -56 94c0 73 61 123 150 123s148 -50 148 -125c0 -44 -16 -71 -57 -92zM740 316
c0 36 -25 58 -66 58s-65 -22 -65 -58c0 -37 25 -59 66 -59s65 22 65 59zM748 126c0 41 -28 65 -73 65s-74 -24 -74 -63s29 -63 74 -63c44 0 73 24 73 61z" />
    <glyph glyph-name="fiveeighths" unicode="&#x215d;" horiz-adv-x="875" 
d="M302 -37l-69 31l315 684l68 -32zM325 677l-7 -71h-182l-16 -101c29 23 51 31 89 31c85 0 142 -59 142 -147c0 -98 -70 -164 -173 -164c-92 0 -150 48 -159 132l94 5c3 -39 28 -62 70 -62c47 0 80 35 80 85c0 51 -33 85 -83 85c-34 0 -54 -12 -71 -42l-76 5l33 244h259z
M770 230c46 -24 68 -58 68 -103c0 -81 -66 -135 -163 -135c-96 0 -162 54 -162 132c0 48 23 82 72 106c-36 17 -56 51 -56 94c0 73 61 123 150 123s148 -50 148 -125c0 -44 -16 -71 -57 -92zM743 316c0 36 -25 58 -66 58s-65 -22 -65 -58c0 -37 25 -59 66 -59s65 22 65 59z
M751 126c0 41 -28 65 -73 65s-74 -24 -74 -63s29 -63 74 -63c44 0 73 24 73 61z" />
    <glyph glyph-name="seveneighths" unicode="&#x215e;" horiz-adv-x="875" 
d="M261 -37l-69 31l315 684l68 -32zM770 230c46 -24 68 -58 68 -103c0 -81 -66 -135 -163 -135c-96 0 -162 54 -162 132c0 48 23 82 72 106c-36 17 -56 51 -56 94c0 73 61 123 150 123s148 -50 148 -125c0 -44 -16 -71 -57 -92zM743 316c0 36 -25 58 -66 58s-65 -22 -65 -58
c0 -37 25 -59 66 -59s65 22 65 59zM751 126c0 41 -28 65 -73 65s-74 -24 -74 -63s29 -63 74 -63c44 0 73 24 73 61zM39 680h297v-68c-95 -127 -131 -216 -153 -379h-97c19 150 71 276 164 377h-211v70z" />
    <glyph glyph-name="onethird" unicode="&#x2153;" horiz-adv-x="875" 
d="M273 -37l-69 31l315 684l68 -32zM232 233h-85v274c0 18 -4 27 -45 27h-63v61h21c19 0 93 1 101 85h71v-447zM622 198v71h30c14 0 63 1 63 49c0 31 -20 54 -58 54c-48 0 -58 -38 -63 -73l-85 19c14 98 91 130 156 130c99 0 139 -69 139 -121c0 -11 0 -69 -72 -91
c34 -12 81 -30 81 -103c0 -94 -75 -141 -157 -141c-64 0 -158 29 -158 144v11h87v-4c0 -17 5 -78 72 -78c40 0 67 29 67 70c0 62 -66 63 -77 63h-25z" />
    <glyph glyph-name="twothirds" unicode="&#x2154;" horiz-adv-x="875" 
d="M323 -37l-69 31l315 684l68 -32zM647 198v71h30c14 0 63 1 63 49c0 31 -20 54 -58 54c-48 0 -58 -38 -63 -73l-85 19c14 98 91 130 156 130c99 0 139 -69 139 -121c0 -11 0 -69 -72 -91c34 -12 81 -30 81 -103c0 -94 -75 -141 -157 -141c-64 0 -158 29 -158 144v11h87v-4
c0 -17 5 -78 72 -78c40 0 67 29 67 70c0 62 -66 63 -77 63h-25zM338 233h-302v66c190 131 200 212 200 242c0 49 -33 62 -54 62c-63 0 -58 -68 -61 -101l-87 7l1 11c3 39 12 161 150 161c82 0 144 -48 144 -137c0 -102 -82 -164 -178 -240h187v-71z" />
    <glyph glyph-name="onefifth" horiz-adv-x="875" 
d="M270 -37l-69 31l315 684l68 -32zM247 233h-85v274c0 18 -4 27 -45 27h-63v61h21c19 0 93 1 101 85h71v-447zM802 444l-7 -71h-182l-16 -101c29 23 51 31 89 31c85 0 142 -59 142 -147c0 -98 -70 -164 -173 -164c-92 0 -150 48 -159 132l94 5c3 -39 28 -62 70 -62
c47 0 80 35 80 85c0 51 -33 85 -83 85c-34 0 -54 -12 -71 -42l-76 5l33 244h259z" />
    <glyph glyph-name="twofifths" horiz-adv-x="875" 
d="M314 -37l-69 31l315 684l68 -32zM336 233h-302v66c190 131 200 212 200 242c0 49 -33 62 -54 62c-63 0 -58 -68 -61 -101l-87 7l1 11c3 39 12 161 150 161c82 0 144 -48 144 -137c0 -102 -82 -164 -178 -240h187v-71zM826 444l-7 -71h-182l-16 -101c29 23 51 31 89 31
c85 0 142 -59 142 -147c0 -98 -70 -164 -173 -164c-92 0 -150 48 -159 132l94 5c3 -39 28 -62 70 -62c47 0 80 35 80 85c0 51 -33 85 -83 85c-34 0 -54 -12 -71 -42l-76 5l33 244h259z" />
    <glyph glyph-name="threefifths" horiz-adv-x="875" 
d="M295 -37l-69 31l315 684l68 -32zM145 431v71h30c14 0 63 1 63 49c0 31 -20 54 -58 54c-48 0 -58 -38 -63 -73l-85 19c14 98 91 130 156 130c99 0 139 -69 139 -121c0 -11 0 -69 -72 -91c34 -12 81 -30 81 -103c0 -94 -75 -141 -157 -141c-64 0 -158 29 -158 144v11h87v-4
c0 -17 5 -78 72 -78c40 0 67 29 67 70c0 62 -66 63 -77 63h-25zM812 444l-7 -71h-182l-16 -101c29 23 51 31 89 31c85 0 142 -59 142 -147c0 -98 -70 -164 -173 -164c-92 0 -150 48 -159 132l94 5c3 -39 28 -62 70 -62c47 0 80 35 80 85c0 51 -33 85 -83 85
c-34 0 -54 -12 -71 -42l-76 5l33 244h259z" />
    <glyph glyph-name="fourfifths" horiz-adv-x="875" 
d="M300 -37l-69 31l315 684l68 -32zM346 332h-59v-99h-80v101h-194v63l194 278h83v-271h56v-72zM102 405h108c0 20 0 73 2 169zM812 444l-7 -71h-182l-16 -101c29 23 51 31 89 31c85 0 142 -59 142 -147c0 -98 -70 -164 -173 -164c-92 0 -150 48 -159 132l94 5
c3 -39 28 -62 70 -62c47 0 80 35 80 85c0 51 -33 85 -83 85c-34 0 -54 -12 -71 -42l-76 5l33 244h259z" />
    <glyph glyph-name="braceleft.cap" horiz-adv-x="300" 
d="M288 -122h-62c-90 0 -126 40 -126 139v183c0 88 -19 97 -86 106v75c66 5 86 20 86 106v181c0 103 39 140 132 140h56v-72h-17c-52 0 -62 -22 -62 -89v-169c0 -83 -17 -110 -82 -136c56 -14 82 -48 82 -130v-173c0 -56 6 -89 65 -89h14v-72z" />
    <glyph glyph-name="braceright.cap" horiz-adv-x="300" 
d="M12 808h62c90 0 127 -44 127 -139v-189c0 -85 18 -91 85 -100v-75c-66 -5 -85 -19 -85 -104v-181c0 -102 -38 -142 -131 -142h-58v72h17c52 0 62 22 62 89v169c0 83 17 110 82 136c-56 14 -82 48 -82 130v173c0 56 -6 89 -65 89h-14v72z" />
    <glyph glyph-name="bracketleft.cap" horiz-adv-x="285" 
d="M264 -118h-205v923h205v-73h-97v-778h97v-72z" />
    <glyph glyph-name="bracketright.cap" horiz-adv-x="285" 
d="M225 -118h-205v73h97v778h-97v72h205v-923z" />
    <glyph glyph-name="emdash.cap" horiz-adv-x="893" 
d="M852 287h-811v113h811v-113z" />
    <glyph glyph-name="endash.cap" horiz-adv-x="610" 
d="M569 287h-528v113h528v-113z" />
    <glyph glyph-name="guillemotleft.cap" horiz-adv-x="437" 
d="M383 157l-143 112v141l143 114v-114l-86 -71l86 -70v-112zM201 158l-142 111v141l142 112v-112l-88 -72l88 -69v-111z" />
    <glyph glyph-name="guillemotright.cap" horiz-adv-x="437" 
d="M377 267l-142 -111v111l87 73l-87 68v112l142 -112v-141zM195 267l-143 -113v113l86 72l-86 69v113l143 -113v-141z" />
    <glyph glyph-name="guilsinglleft.cap" horiz-adv-x="250" 
d="M198 157l-142 112v141l142 114v-114l-86 -71l86 -70v-112z" />
    <glyph glyph-name="guilsinglright.cap" horiz-adv-x="250" 
d="M192 267l-142 -113v113l86 72l-86 69v113l142 -113v-141z" />
    <glyph glyph-name="hyphen.cap" horiz-adv-x="371" 
d="M330 287h-289v113h289v-113z" />
    <glyph glyph-name="parenleft.cap" horiz-adv-x="326" 
d="M333 -79l-44 -59c-55 40 -101 86 -138 133c-77 99 -116 218 -116 347c0 123 38 245 106 339c40 54 81 98 144 145l46 -51c-41 -42 -54 -57 -76 -87c-63 -89 -97 -207 -97 -335c0 -179 66 -342 175 -432z" />
    <glyph glyph-name="parenright.cap" horiz-adv-x="328" 
d="M-1 767l44 59c58 -44 100 -85 137 -133c76 -100 116 -217 116 -347c0 -121 -38 -242 -107 -339c-38 -54 -79 -95 -144 -145l-46 51c41 42 55 57 76 87c63 89 98 207 98 336c0 179 -65 340 -174 431z" />
    <glyph glyph-name="periodcentered.cap" horiz-adv-x="219" 
d="M176 272h-133v146h133v-146z" />
    <glyph glyph-name="afii10017" unicode="&#x410;" horiz-adv-x="646" 
d="M636 0h-141l-41 138h-265l-41 -138h-142l239 706h150zM419 254l-97 325l-98 -325h195z" />
    <glyph glyph-name="afii10018" unicode="&#x411;" horiz-adv-x="688" 
d="M80 706h508v-120h-376v-159h179c176 0 251 -77 251 -209c0 -146 -79 -218 -236 -218h-326v706zM212 323v-209h156c101 0 140 40 140 108c0 63 -50 101 -129 101h-167z" />
    <glyph glyph-name="afii10019" unicode="&#x412;" horiz-adv-x="688" 
d="M80 706h316c148 0 214 -82 214 -173c0 -58 -32 -134 -117 -146c65 -12 150 -65 150 -187c0 -96 -56 -200 -238 -200h-325v706zM211 598v-176h133c59 0 130 19 130 89c0 72 -73 87 -126 87h-137zM211 323v-209h174c90 0 123 46 123 98c0 99 -95 111 -150 111h-147z" />
    <glyph glyph-name="afii10020" unicode="&#x413;" horiz-adv-x="522" 
d="M80 706h422v-120h-290v-586h-132v706z" />
    <glyph glyph-name="afii10021" unicode="&#x414;" horiz-adv-x="808" 
d="M688 706v-586h90v-270h-122v150h-514v-150h-122v270c104 0 156 131 156 446v140h512zM556 586h-254v-51c0 -261 -41 -368 -85 -415h339v466z" />
    <glyph glyph-name="afii10022" unicode="&#x415;" horiz-adv-x="625" 
d="M605 0h-527v706h502v-118h-372v-166h341v-114h-341v-189h397v-119z" />
    <glyph glyph-name="afii10024" unicode="&#x416;" horiz-adv-x="912" 
d="M522 706v-272h54c92 0 107 31 118 112c12 89 23 129 51 160h137c-48 -42 -60 -110 -68 -169c-16 -121 -70 -140 -100 -150c58 -13 109 -36 122 -161c11 -111 28 -161 66 -226h-144c-23 50 -29 96 -38 182c-9 91 -38 142 -144 142h-54v-324h-132v324h-54
c-106 0 -135 -51 -144 -142c-9 -86 -15 -132 -38 -182h-144c38 65 55 115 66 226c13 125 64 148 122 161c-30 10 -84 29 -100 150c-8 59 -20 127 -68 169h137c28 -31 41 -71 52 -160c10 -81 25 -112 117 -112h54v272h132z" />
    <glyph glyph-name="afii10025" unicode="&#x417;" horiz-adv-x="680" 
d="M272 322v100h84c69 0 122 33 122 94c0 54 -37 90 -139 90c-56 0 -144 -9 -167 -107l-120 34c18 66 70 191 288 191c175 0 276 -68 276 -194c0 -48 -14 -114 -132 -143c95 -18 150 -62 150 -179c0 -106 -97 -226 -302 -226c-203 0 -279 114 -300 215l124 52
c18 -76 74 -149 173 -149c105 0 163 32 163 117c0 101 -89 105 -139 105h-81z" />
    <glyph glyph-name="afii10026" unicode="&#x418;" horiz-adv-x="740" 
d="M660 706v-706h-132v462l-316 -378v-84h-132v706h132v-458l316 378v80h132z" />
    <glyph glyph-name="afii10027" unicode="&#x419;" horiz-adv-x="740" 
d="M660 706v-706h-132v462l-316 -378v-84h-132v706h132v-458l316 378v80h132zM444 894l96 -20c-12 -37 -40 -115 -170 -115s-158 78 -170 115l96 20c6 -20 20 -53 76 -53c57 0 66 33 72 53z" />
    <glyph glyph-name="afii10028" unicode="&#x41a;" horiz-adv-x="646" 
d="M212 0h-132v706h132v-272h70c108 0 118 32 133 120c13 81 28 121 60 152h137c-48 -42 -59 -110 -67 -169c-16 -121 -71 -140 -104 -150c61 -13 112 -36 125 -161c11 -111 28 -161 66 -226h-144c-29 50 -35 96 -45 182c-10 91 -39 142 -157 142h-74v-324z" />
    <glyph glyph-name="afii10029" unicode="&#x41b;" horiz-adv-x="740" 
d="M660 706v-706h-132v586h-256v-78c0 -404 -47 -507 -242 -508h-20v120h20c99 11 116 50 116 396v190h514z" />
    <glyph glyph-name="afii10030" unicode="&#x41c;" horiz-adv-x="812" 
d="M733 0h-129c0 17 13 580 13 580l-153 -580h-119l-153 580s13 -557 13 -580h-129v706h192l138 -524l136 524h191v-706z" />
    <glyph glyph-name="afii10031" unicode="&#x41d;" horiz-adv-x="729" 
d="M649 0h-133v321h-303v-321h-133v706h133v-266h303v266h133v-706z" />
    <glyph glyph-name="afii10032" unicode="&#x41e;" horiz-adv-x="771" 
d="M48 352c0 207 135 372 339 372c215 0 338 -176 338 -367c0 -160 -87 -375 -341 -375c-208 0 -336 172 -336 370zM184 357c0 -110 53 -252 204 -252c105 0 204 81 204 241c0 126 -66 257 -206 257c-116 0 -202 -91 -202 -246z" />
    <glyph glyph-name="afii10033" unicode="&#x41f;" horiz-adv-x="720" 
d="M80 706h560v-706h-132v586h-296v-586h-132v706z" />
    <glyph glyph-name="afii10034" unicode="&#x420;" horiz-adv-x="625" 
d="M82 706h274c146 0 251 -90 251 -235c0 -128 -74 -231 -258 -231h-135v-240h-132v706zM214 593v-245h116c94 0 141 44 141 127c0 114 -92 118 -156 118h-101z" />
    <glyph glyph-name="afii10035" unicode="&#x421;" horiz-adv-x="688" 
d="M547 249l125 -52c-23 -60 -102 -215 -305 -215c-167 0 -330 114 -330 378c0 157 89 364 335 364c182 0 257 -117 287 -218l-131 -34c-8 77 -73 131 -151 131c-115 0 -197 -88 -197 -245c0 -96 39 -251 196 -251c91 0 150 70 171 142z" />
    <glyph glyph-name="afii10036" unicode="&#x422;" 
d="M541 587h-195v-587h-132v587h-192v119h519v-119z" />
    <glyph glyph-name="afii10037" unicode="&#x423;" horiz-adv-x="620" 
d="M474 706h136l-234 -509c-88 -192 -132 -197 -279 -197h-20v120h20c74 0 109 3 144 86l-231 500h146l160 -358z" />
    <glyph glyph-name="afii10038" unicode="&#x424;" horiz-adv-x="848" 
d="M490 720v-100h45c180 0 273 -100 273 -260s-93 -266 -273 -266h-45v-104h-132v104h-45c-180 0 -273 106 -273 266s93 260 273 260h45v100h132zM362 204v306h-42c-111 0 -146 -60 -146 -150s35 -156 146 -156h42zM486 510v-306h42c111 0 146 66 146 156s-35 150 -146 150
h-42z" />
    <glyph glyph-name="afii10039" unicode="&#x425;" horiz-adv-x="646" 
d="M639 0h-151l-165 261l-161 -261h-153l237 383l-203 323h152l128 -202l123 202h153l-199 -323z" />
    <glyph glyph-name="afii10040" unicode="&#x426;" horiz-adv-x="760" 
d="M80 706h132v-586h296v586h132v-586h90v-270h-122v150h-528v706z" />
    <glyph glyph-name="afii10041" unicode="&#x427;" horiz-adv-x="674" 
d="M52 706h132v-221c0 -98 49 -117 130 -117c45 0 118 12 148 24v314h132v-706h-132v274c-40 -12 -102 -24 -161 -24c-172 0 -249 58 -249 201v255z" />
    <glyph glyph-name="afii10042" unicode="&#x428;" horiz-adv-x="1000" 
d="M80 706h132v-586h222v586h132v-586h222v586h132v-706h-840v706z" />
    <glyph glyph-name="afii10043" unicode="&#x429;" horiz-adv-x="1040" 
d="M80 706h132v-586h222v586h132v-586h222v586h132v-586h90v-270h-122v150h-808v706z" />
    <glyph glyph-name="afii10044" unicode="&#x42a;" horiz-adv-x="800" 
d="M20 706h312v-258h169c176 0 251 -80 251 -220c0 -153 -79 -228 -236 -228h-316v586h-180v120zM332 328v-208h146c101 0 140 40 140 107c0 63 -50 101 -129 101h-157z" />
    <glyph glyph-name="afii10045" unicode="&#x42b;" horiz-adv-x="916" 
d="M212 706v-258h159c176 0 251 -80 251 -220c0 -153 -79 -228 -236 -228h-306v706h132zM212 328v-208h136c101 0 140 40 140 107c0 63 -50 101 -129 101h-147zM836 0h-132v706h132v-706z" />
    <glyph glyph-name="afii10046" unicode="&#x42c;" horiz-adv-x="680" 
d="M80 706h132v-258h169c176 0 251 -80 251 -220c0 -153 -79 -228 -236 -228h-316v706zM212 328v-208h146c101 0 140 40 140 107c0 63 -50 101 -129 101h-157z" />
    <glyph glyph-name="afii10047" unicode="&#x42d;" horiz-adv-x="712" 
d="M31 197l125 52c12 -74 84 -145 179 -145c119 1 185 101 191 206h-287v110h287c-13 102 -79 182 -190 182c-83 0 -152 -54 -161 -120l-131 34c31 96 109 208 297 208c252 0 325 -207 325 -364c0 -264 -163 -378 -330 -378c-203 0 -281 117 -305 215z" />
    <glyph glyph-name="afii10048" unicode="&#x42e;" horiz-adv-x="1040" 
d="M212 706v-266h137c30 164 150 284 324 284c182 0 321 -161 321 -367c0 -196 -132 -375 -327 -375c-196 0 -316 147 -325 338h-130v-320h-132v706h132zM480 356c0 -124 42 -252 192 -252c101 0 182 82 182 245c0 139 -57 253 -182 253c-103 0 -192 -84 -192 -246z" />
    <glyph glyph-name="afii10049" unicode="&#x42f;" horiz-adv-x="654" 
d="M442 262h-110c-138 0 -110 -201 -160 -262h-152c80 73 24 270 176 307c-110 20 -128 109 -128 175c0 159 98 224 237 224h269v-706h-132v262zM442 592h-125c-72 0 -115 -33 -115 -109c0 -83 42 -111 119 -111h121v220z" />
    <glyph glyph-name="afii10065" unicode="&#x430;" horiz-adv-x="542" 
d="M500 0h-142l-3 39c-33 -26 -86 -51 -147 -51c-114 0 -182 69 -182 153c0 109 83 152 178 169c75 14 122 26 154 37c0 38 -11 75 -86 75c-91 0 -101 -49 -101 -75l-122 7c2 33 9 161 219 161c147 0 210 -54 210 -142v-292c0 -38 2 -49 22 -81zM358 182v67
c-20 -10 -49 -21 -95 -28c-55 -8 -110 -19 -110 -69c0 -33 22 -61 82 -61c55 0 123 28 123 91z" />
    <glyph glyph-name="afii10066" unicode="&#x431;" horiz-adv-x="586" 
d="M414 728h118c-10 -101 -57 -147 -167 -152c-139 -7 -193 -51 -206 -145c42 51 115 69 159 69c119 0 234 -73 234 -254c0 -150 -102 -261 -256 -261c-159 0 -258 106 -258 298c0 263 84 382 297 400c45 4 79 10 79 45zM164 250c0 -101 58 -157 131 -157
c88 0 131 75 131 152c0 80 -44 151 -126 151c-97 0 -136 -76 -136 -146z" />
    <glyph glyph-name="afii10067" unicode="&#x432;" horiz-adv-x="540" 
d="M64 500h243c92 0 176 -20 176 -126c0 -23 -7 -81 -75 -107c66 -20 96 -63 96 -128c0 -76 -42 -139 -174 -139h-266v500zM184 410v-106h95c77 0 84 29 84 56c0 28 -12 50 -77 50h-102zM184 218v-128h99c66 0 100 9 100 64c0 59 -49 64 -99 64h-100z" />
    <glyph glyph-name="afii10068" unicode="&#x433;" horiz-adv-x="440" 
d="M64 500h364v-106h-244v-394h-120v500z" />
    <glyph glyph-name="afii10069" unicode="&#x434;" horiz-adv-x="620" 
d="M139 500h385v-394h76v-226h-106v120h-368v-120h-106v226c109 34 119 176 119 342v52zM404 394h-153v-41c0 -69 -13 -200 -77 -247h230v288z" />
    <glyph glyph-name="afii10070" unicode="&#x435;" 
d="M531 226h-370c2 -25 25 -124 141 -124c85 0 121 52 131 69l102 -59c-40 -54 -113 -127 -244 -127c-149 0 -257 102 -257 268c0 179 121 262 251 262c191 0 246 -153 246 -289zM165 314h234c-2 25 -18 105 -112 105c-99 0 -118 -85 -122 -105z" />
    <glyph glyph-name="afii10072" unicode="&#x436;" horiz-adv-x="740" 
d="M148 0h-128c73 77 0 253 154 275c-125 18 -53 125 -142 225h128c62 -82 1 -184 110 -184h44v184h113v-184h43c109 0 48 102 110 184h128c-89 -100 -17 -207 -142 -225c154 -22 81 -198 154 -275h-128c-57 65 13 219 -124 220h-42v-220h-112v220h-42
c-137 -1 -67 -155 -124 -220z" />
    <glyph glyph-name="afii10073" unicode="&#x437;" horiz-adv-x="520" 
d="M24 120l105 54c18 -48 51 -93 130 -93c74 0 105 25 105 71c0 63 -67 63 -120 63h-40v88h40c57 0 115 0 115 61c0 37 -30 55 -93 55c-39 0 -100 -13 -115 -64l-109 46c25 53 77 114 229 114c119 0 206 -42 206 -142c0 -52 -23 -90 -95 -112c34 -10 102 -31 102 -118
c0 -89 -62 -158 -222 -158c-155 0 -211 68 -238 135z" />
    <glyph glyph-name="afii10074" unicode="&#x438;" horiz-adv-x="590" 
d="M526 500v-500h-120v300l-222 -220v-80h-120v500h120v-290l222 220v70h120z" />
    <glyph glyph-name="afii10075" unicode="&#x439;" horiz-adv-x="590" 
d="M526 500v-500h-120v300l-222 -220v-80h-120v500h120v-290l222 220v70h120zM359 706l94 -20c-10 -36 -36 -111 -154 -111s-144 75 -154 111l94 20c4 -20 16 -53 62 -53s54 33 58 53z" />
    <glyph glyph-name="afii10076" unicode="&#x43a;" horiz-adv-x="552" 
d="M64 500h120v-184h78c119 0 63 102 130 184h128c-89 -100 -31 -207 -142 -225c144 -18 81 -198 154 -275h-128c-57 65 3 219 -134 220h-86v-220h-120v500z" />
    <glyph glyph-name="afii10077" unicode="&#x43b;" horiz-adv-x="560" 
d="M496 0h-120v394h-163v-77c0 -304 -49 -317 -183 -317h-20v106h20c56 0 71 16 71 226v168h395v-500z" />
    <glyph glyph-name="afii10078" unicode="&#x43c;" horiz-adv-x="686" 
d="M64 500h184l92 -361l96 361h186v-500h-113v395l-109 -395h-118l-105 381v-381h-113v500z" />
    <glyph glyph-name="afii10079" unicode="&#x43d;" horiz-adv-x="580" 
d="M64 500h120v-182h212v182h120v-500h-120v212h-212v-212h-120v500z" />
    <glyph glyph-name="afii10080" unicode="&#x43e;" horiz-adv-x="583" 
d="M549 252c0 -134 -84 -267 -254 -267c-182 0 -260 145 -260 267c0 120 79 263 256 263c109 0 257 -73 258 -263zM160 255c0 -88 49 -160 135 -160c88 0 129 75 129 151c0 80 -43 161 -135 161c-70 0 -129 -51 -129 -152z" />
    <glyph glyph-name="afii10081" unicode="&#x43f;" horiz-adv-x="568" 
d="M504 500v-500h-120v394h-200v-394h-120v500h440z" />
    <glyph glyph-name="afii10082" unicode="&#x440;" horiz-adv-x="584" 
d="M64 500h120v-45c20 21 62 60 139 60c32 0 103 -6 160 -73c26 -31 67 -96 67 -196c0 -27 -2 -102 -50 -169c-59 -83 -140 -92 -178 -92c-30 0 -83 6 -138 56v-204h-120v663zM424 252c0 106 -64 151 -122 151c-85 0 -120 -80 -120 -150c0 -86 42 -156 123 -156
c47 0 119 28 119 155z" />
    <glyph glyph-name="afii10083" unicode="&#x441;" horiz-adv-x="517" 
d="M395 195l102 -54c-35 -99 -126 -156 -226 -156c-147 0 -247 116 -247 265c0 130 88 265 253 265c130 0 196 -95 215 -142l-107 -50c-14 43 -49 85 -114 85c-81 0 -123 -72 -123 -155c0 -87 45 -156 126 -156c85 0 112 74 121 98z" />
    <glyph glyph-name="afii10084" unicode="&#x442;" horiz-adv-x="500" 
d="M14 500h472v-106h-176v-394h-120v394h-176v106z" />
    <glyph glyph-name="afii10085" unicode="&#x443;" horiz-adv-x="479" 
d="M347 500h123l-133 -456c-18 -63 -43 -152 -85 -186c-31 -25 -63 -30 -102 -30c-38 0 -52 3 -71 7v104c12 -2 23 -2 33 -2c66 0 77 40 81 53l-181 510h129l112 -373z" />
    <glyph glyph-name="afii10086" unicode="&#x444;" horiz-adv-x="734" 
d="M427 706v-206c232 -1 273 -146 273 -246c0 -136 -76 -254 -273 -254v-163h-120v163c-206 0 -273 117 -273 247c0 166 111 251 273 253v206h120zM311 106v288c-134 -1 -151 -85 -151 -143c0 -90 48 -145 151 -145zM423 394v-288c98 0 151 55 151 145
c0 58 -25 142 -151 143z" />
    <glyph glyph-name="afii10087" unicode="&#x445;" horiz-adv-x="500" 
d="M494 0h-138l-104 158l-100 -158h-143l172 268l-152 232h141l82 -126l79 126h143l-151 -232z" />
    <glyph glyph-name="afii10088" unicode="&#x446;" horiz-adv-x="600" 
d="M64 500h120v-394h200v394h120v-394h76v-226h-106v120h-410v500z" />
    <glyph glyph-name="afii10089" unicode="&#x447;" horiz-adv-x="540" 
d="M356 500h120v-500h-120v188c-34 -11 -84 -20 -123 -20c-114 0 -187 34 -187 156v176h120v-146c0 -66 23 -80 87 -80c26 0 68 7 103 20v206z" />
    <glyph glyph-name="afii10090" unicode="&#x448;" horiz-adv-x="820" 
d="M470 500v-394h166v394h120v-500h-692v500h120v-394h166v394h120z" />
    <glyph glyph-name="afii10091" unicode="&#x449;" horiz-adv-x="852" 
d="M64 500h120v-394h166v394h120v-394h166v394h120v-394h76v-226h-106v120h-662v500z" />
    <glyph glyph-name="afii10092" unicode="&#x44a;" horiz-adv-x="620" 
d="M14 394v106h262v-181h106c100 0 202 -21 202 -161c0 -116 -68 -158 -197 -158h-231v394h-142zM276 223v-127h98c63 0 88 21 88 62s-20 65 -93 65h-93z" />
    <glyph glyph-name="afii10093" unicode="&#x44b;" horiz-adv-x="728" 
d="M184 500v-181h93c100 0 202 -21 202 -161c0 -116 -68 -158 -197 -158h-218v500h120zM184 223v-127h85c63 0 88 21 88 62s-20 65 -93 65h-80zM544 500h120v-500h-120v500z" />
    <glyph glyph-name="afii10094" unicode="&#x44c;" horiz-adv-x="528" 
d="M183 500v-181h107c100 0 202 -21 202 -161c0 -116 -68 -158 -197 -158h-231v500h119zM183 223v-127h99c63 0 88 21 88 62s-20 65 -93 65h-94z" />
    <glyph glyph-name="afii10095" unicode="&#x44d;" horiz-adv-x="532" 
d="M24 124l99 54c15 -43 57 -85 132 -85c61 0 107 45 115 117h-178v90h178c0 33 -34 111 -123 111c-42 0 -90 -20 -111 -83l-104 50c27 72 95 137 213 137c178 0 253 -135 253 -265c0 -149 -93 -265 -247 -265c-102 0 -186 36 -227 139z" />
    <glyph glyph-name="afii10096" unicode="&#x44e;" horiz-adv-x="800" 
d="M184 308h89c20 105 96 207 240 207c156 0 252 -116 253 -265c0 -133 -85 -265 -250 -265c-106 0 -231 66 -247 227h-85v-212h-120v500h120v-192zM389 253c0 -89 45 -160 127 -160c84 0 124 79 124 157c0 79 -40 157 -129 157c-67 0 -122 -55 -122 -154z" />
    <glyph glyph-name="afii10097" unicode="&#x44f;" horiz-adv-x="540" 
d="M476 500v-500h-120v182h-79c-112 0 -76 -107 -127 -182h-126c75 90 28 199 137 217c-78 12 -101 66 -101 126c0 86 39 157 184 157h232zM356 278v126h-106c-36 0 -68 -15 -68 -67c0 -35 16 -59 63 -59h111z" />
    <glyph glyph-name="afii10050" unicode="&#x490;" horiz-adv-x="521" 
d="M79 706h305v140h116v-260h-289v-586h-132v706z" />
    <glyph glyph-name="afii10055" unicode="&#x406;" horiz-adv-x="292" 
d="M212 0h-132v706h132v-706z" />
    <glyph glyph-name="afii10051" unicode="&#x402;" horiz-adv-x="812" 
d="M542 586h-196v-174c41 17 104 34 165 34c139 0 253 -39 253 -225c0 -204 -148 -221 -255 -221h-53v118h63c86 0 111 45 111 105c0 59 -29 105 -132 105c-47 0 -121 -17 -152 -34v-294h-132v586h-192v120h520v-120z" />
    <glyph glyph-name="afii10099" unicode="&#x452;" horiz-adv-x="602" 
d="M80 0v534h-56v100h56v72h120v-72h178v-100h-178v-145c30 31 84 66 158 66c110 0 178 -62 178 -177v-324c0 -31 -3 -117 -156 -117c-10 0 -19 1 -28 2v109c5 1 29 1 46 12c15 9 20 21 20 40v233c0 73 -36 108 -93 108c-65 0 -125 -49 -125 -124v-217h-120z" />
    <glyph glyph-name="afii10052" unicode="&#x403;" horiz-adv-x="522" 
d="M79 706h422v-120h-290v-586h-132v706zM444 895l-108 -120h-89l54 120h143z" />
    <glyph glyph-name="afii10100" unicode="&#x453;" horiz-adv-x="440" 
d="M64 500h364v-106h-244v-394h-120v500zM385 706l-108 -133h-91l50 133h149z" />
    <glyph glyph-name="afii10103" unicode="&#x456;" horiz-adv-x="250" 
d="M184 578h-119v121h119v-121zM184 0h-119v500h119v-500z" />
    <glyph glyph-name="afii10098" unicode="&#x491;" horiz-adv-x="440" 
d="M184 394v-394h-120v500h264v120h100v-226h-244z" />
    <glyph glyph-name="afii10057" unicode="&#x408;" horiz-adv-x="396" 
d="M202 706h130v-536c0 -53 -21 -185 -224 -185c-17 0 -43 0 -82 9v130c36 -8 50 -10 70 -10c102 0 106 68 106 121v471z" />
    <glyph glyph-name="afii10053" unicode="&#x404;" horiz-adv-x="712" 
d="M553 249l125 -52c-25 -98 -104 -215 -312 -215c-173 0 -320 114 -320 378c0 157 75 364 335 364c182 0 257 -112 287 -208l-131 -34c-9 66 -78 120 -161 120c-111 0 -177 -80 -190 -182h287v-110h-287c6 -105 72 -205 191 -206c101 0 164 71 176 145z" />
    <glyph glyph-name="afii10101" unicode="&#x454;" horiz-adv-x="532" 
d="M409 178l99 -54c-41 -103 -125 -139 -227 -139c-147 0 -247 116 -247 265c0 130 88 265 253 265c120 0 189 -65 217 -137l-104 -50c-22 63 -72 83 -115 83c-89 0 -123 -78 -123 -111h178v-90h-178c8 -72 54 -117 115 -117c75 0 117 42 132 85z" />
    <glyph glyph-name="afii10056" unicode="&#x407;" horiz-adv-x="312" 
d="M287 772h-106v123h106v-123zM131 772h-106v123h106v-123zM222 0h-132v706h132v-706z" />
    <glyph glyph-name="afii10104" unicode="&#x457;" horiz-adv-x="290" 
d="M270 578h-100v122h100v-122zM120 578h-100v122h100v-122zM204 0h-119v500h119v-500z" />
    <glyph glyph-name="afii10058" unicode="&#x409;" horiz-adv-x="1100" 
d="M642 706v-258h159c176 0 251 -80 251 -220c0 -153 -79 -228 -236 -228h-306v586h-238v-78c0 -404 -47 -507 -241 -508h-20v120h20c98 11 115 50 115 396v190h496zM642 328v-208h136c101 0 140 40 140 107c0 63 -50 101 -129 101h-147z" />
    <glyph glyph-name="afii10106" unicode="&#x459;" horiz-adv-x="820" 
d="M486 500v-181h96c100 0 202 -21 202 -161c0 -116 -68 -158 -197 -158h-221v394h-153v-77c0 -304 -49 -317 -183 -317h-20v106h20c56 0 71 16 71 226v168h385zM486 223v-127h88c63 0 88 21 88 62s-20 65 -93 65h-83z" />
    <glyph glyph-name="afii10059" unicode="&#x40a;" horiz-adv-x="1100" 
d="M642 706v-258h159c176 0 251 -80 251 -220c0 -153 -79 -228 -236 -228h-306v328h-298v-328h-132v706h132v-258h298v258h132zM642 328v-208h136c101 0 140 40 140 107c0 63 -50 101 -129 101h-147z" />
    <glyph glyph-name="afii10107" unicode="&#x45a;" horiz-adv-x="840" 
d="M506 500v-181h96c100 0 202 -21 202 -161c0 -116 -68 -158 -197 -158h-221v213h-204v-213h-120v500h120v-181h204v181h120zM506 223v-127h88c63 0 88 21 88 62s-20 65 -93 65h-83z" />
    <glyph glyph-name="afii10105" unicode="&#x458;" horiz-adv-x="250" 
d="M185 579h-118v122h118v-122zM67 500h118v-546c0 -31 -3 -117 -156 -117c-10 0 -19 1 -28 2v109c5 1 29 1 46 12c18 11 20 26 20 52v488z" />
    <glyph glyph-name="afii10054" unicode="&#x405;" horiz-adv-x="667" 
d="M625 581l-109 -81c-22 36 -73 105 -184 105c-30 0 -132 -11 -132 -86c0 -55 54 -68 129 -84l74 -16c111 -24 229 -67 229 -209c0 -175 -174 -228 -300 -228c-118 0 -246 42 -309 151l111 77c31 -46 89 -106 219 -106c77 0 136 32 136 93c0 58 -47 71 -136 91l-90 20
c-90 20 -202 58 -202 196c0 125 101 220 279 220c63 0 187 -10 285 -143z" />
    <glyph glyph-name="afii10060" unicode="&#x40b;" horiz-adv-x="838" 
d="M542 586h-196v-164c41 12 104 24 165 24c172 0 249 -58 249 -201v-245h-132v211c0 98 -49 117 -130 117c-47 0 -121 -12 -152 -24v-304h-132v586h-192v120h520v-120z" />
    <glyph glyph-name="afii10108" unicode="&#x45b;" horiz-adv-x="602" 
d="M80 0v534h-56v100h56v72h120v-72h178v-100h-178v-145c30 31 84 66 158 66c110 0 180 -62 180 -177v-278h-120v233c0 73 -36 108 -93 108c-65 0 -125 -49 -125 -124v-217h-120z" />
    <glyph glyph-name="afii10061" unicode="&#x40c;" horiz-adv-x="647" 
d="M213 0h-132v706h132v-272h70c108 0 118 32 133 120c13 81 28 121 60 152h137c-48 -42 -59 -110 -67 -169c-16 -121 -71 -140 -104 -150c61 -13 112 -36 125 -161c11 -111 28 -161 66 -226h-144c-29 50 -35 96 -45 182c-10 91 -39 142 -157 142h-74v-324zM474 895
l-108 -120h-89l54 120h143z" />
    <glyph glyph-name="afii10109" unicode="&#x45c;" horiz-adv-x="552" 
d="M64 500h120v-184h78c119 0 63 102 130 184h128c-89 -100 -31 -207 -142 -225c144 -18 81 -198 154 -275h-128c-57 65 3 219 -134 220h-86v-220h-120v500zM435 706l-108 -133h-91l50 133h149z" />
    <glyph glyph-name="afii10102" unicode="&#x455;" horiz-adv-x="521" 
d="M474 422l-85 -79c-27 53 -78 76 -136 76c-23 0 -83 -7 -83 -52c0 -33 30 -43 102 -56l81 -15c76 -14 134 -59 134 -140c0 -92 -87 -171 -225 -171s-212 61 -240 90l90 73c24 -32 69 -64 144 -64c72 0 98 37 98 59c0 29 -28 40 -74 48l-62 11c-39 7 -174 32 -174 150
c0 99 95 163 215 163c39 0 140 -6 215 -93z" />
    <glyph glyph-name="afii10062" unicode="&#x40e;" horiz-adv-x="620" 
d="M474 706h136l-234 -509c-88 -192 -132 -197 -279 -197h-20v120h20c74 0 109 3 144 86l-231 500h146l160 -358zM390 894l96 -20c-12 -37 -40 -115 -170 -115s-159 78 -171 115l97 20c6 -20 20 -53 76 -53c57 0 66 33 72 53z" />
    <glyph glyph-name="afii10110" unicode="&#x45e;" horiz-adv-x="479" 
d="M347 500h123l-133 -456c-18 -63 -43 -152 -85 -186c-31 -25 -63 -30 -102 -30c-38 0 -52 3 -71 7v104c12 -2 23 -2 33 -2c66 0 77 40 81 53l-181 510h129l112 -373zM316 706l87 -20c-10 -36 -35 -111 -147 -111s-137 75 -147 111l87 20c4 -20 16 -53 62 -53s54 33 58 53z
" />
    <glyph glyph-name="afii10145" unicode="&#x40f;" horiz-adv-x="720" 
d="M80 706h132v-586h296v586h132v-706h-219v-160h-122v160h-219v706z" />
    <glyph glyph-name="afii10193" unicode="&#x45f;" horiz-adv-x="568" 
d="M64 500h120v-394h200v394h120v-500h-167v-160h-106v160h-167v500z" />
    <glyph glyph-name="afii61352" unicode="&#x2116;" horiz-adv-x="1104" 
d="M714 202h335v-85h-335v85zM615 0h-116l-309 495s8 -482 8 -495h-129v706h119l313 -498s-15 482 -16 498h130v-706zM1065 487c0 -138 -90 -220 -188 -220c-89 0 -187 67 -187 220c0 100 64 219 193 219c79 0 181 -60 182 -219zM784 489c0 -72 32 -142 94 -142
c72 0 92 84 92 147c0 77 -29 132 -90 132c-51 0 -96 -56 -96 -137z" />
    <glyph glyph-name="afii10023" unicode="&#x401;" horiz-adv-x="625" 
d="M605 0h-527v706h502v-118h-372v-166h341v-114h-341v-189h397v-119zM471 772h-114v123h114v-123zM269 772h-112v123h112v-123z" />
    <glyph glyph-name="afii10071" unicode="&#x451;" 
d="M531 226h-370c2 -25 25 -124 141 -124c85 0 121 52 131 69l102 -59c-40 -54 -113 -127 -244 -127c-149 0 -257 102 -257 268c0 179 121 262 251 262c191 0 246 -153 246 -289zM165 314h234c-2 25 -18 105 -112 105c-99 0 -118 -85 -122 -105zM440 587h-115v119h115v-119z
M238 587h-113v119h113v-119z" />
    <glyph glyph-name="afii10066.locl" horiz-adv-x="586" 
d="M414 728h118c-12 -90 -46 -152 -127 -152c-38 0 -68 8 -87 12c-31 6 -46 11 -74 11c-32 0 -46 -21 -46 -49c0 -47 50 -50 112 -54c176 -11 242 -119 242 -250c0 -132 -84 -261 -255 -261c-193 0 -259 126 -259 247s59 187 128 213c-42 12 -94 36 -94 121
c0 81 48 141 140 141c19 0 43 -4 87 -14c23 -5 43 -9 66 -9c38 0 47 25 49 44zM164 240c0 -81 48 -147 133 -147c88 0 129 76 129 153c0 75 -42 150 -133 150c-70 0 -129 -52 -129 -156z" />
    <glyph glyph-name="tonos" unicode="&#x384;" horiz-adv-x="271" 
d="M235 706l-108 -133h-91l50 133h149z" />
    <glyph glyph-name="dieresistonos" unicode="&#x385;" horiz-adv-x="514" 
d="M465 593h-109v102h109v-102zM335 740l-60 -147h-77l24 147h113zM158 593h-109v102h109v-102z" />
    <glyph glyph-name="Gamma" unicode="&#x393;" horiz-adv-x="554" 
d="M500 587h-294v-587h-133v706h427v-119z" />
    <glyph glyph-name="Theta" unicode="&#x398;" horiz-adv-x="771" 
d="M512 314h-247v105h247v-105zM48 352c0 207 135 372 339 372c215 0 338 -176 338 -367c0 -160 -87 -375 -341 -375c-208 0 -336 172 -336 370zM184 357c0 -110 53 -252 204 -252c105 0 204 81 204 241c0 126 -66 257 -206 257c-116 0 -202 -91 -202 -246z" />
    <glyph glyph-name="Lambda" unicode="&#x39b;" horiz-adv-x="626" 
d="M316 577l-164 -577h-141l226 706h150l228 -706h-140z" />
    <glyph glyph-name="Xi" unicode="&#x39e;" horiz-adv-x="626" 
d="M589 581h-544v125h544v-125zM558 305h-482v125h482v-125zM608 0h-582v127h582v-127z" />
    <glyph glyph-name="Pi" unicode="&#x3a0;" horiz-adv-x="715" 
d="M635 0h-133v585h-289v-585h-133v706h555v-706z" />
    <glyph glyph-name="Sigma" unicode="&#x3a3;" horiz-adv-x="625" 
d="M580 0h-554v105l214 263l-204 239v99h542v-118h-359l188 -218l-199 -248h372v-122z" />
    <glyph glyph-name="Iotadieresis" unicode="&#x3aa;" horiz-adv-x="292" 
d="M210 0h-130v706h130v-706zM304 772h-114v123h114v-123zM102 772h-112v123h112v-123z" />
    <glyph glyph-name="Alpha" unicode="&#x391;" horiz-adv-x="646" 
d="M636 0h-141l-41 138h-265l-41 -138h-142l239 706h150zM419 254l-97 325l-98 -325h195z" />
    <glyph glyph-name="Beta" unicode="&#x392;" horiz-adv-x="688" 
d="M80 706h316c148 0 214 -82 214 -173c0 -58 -32 -134 -117 -146c65 -12 150 -65 150 -187c0 -96 -56 -200 -238 -200h-325v706zM211 598v-176h133c59 0 130 19 130 89c0 72 -73 87 -126 87h-137zM211 323v-209h174c90 0 123 46 123 98c0 99 -95 111 -150 111h-147z" />
    <glyph glyph-name="Epsilon" unicode="&#x395;" horiz-adv-x="625" 
d="M605 0h-527v706h502v-118h-372v-166h341v-114h-341v-189h397v-119z" />
    <glyph glyph-name="Zeta" unicode="&#x396;" horiz-adv-x="604" 
d="M575 0h-551v108l386 480h-353v118h518v-112l-371 -475h371v-119z" />
    <glyph glyph-name="Eta" unicode="&#x397;" horiz-adv-x="729" 
d="M649 0h-133v321h-303v-321h-133v706h133v-266h303v266h133v-706z" />
    <glyph glyph-name="Iota" unicode="&#x399;" horiz-adv-x="292" 
d="M210 0h-130v706h130v-706z" />
    <glyph glyph-name="Kappa" unicode="&#x39a;" horiz-adv-x="667" 
d="M665 0h-151l-188 332l-115 -132v-200h-131v706h131v-324l283 324h155l-231 -266z" />
    <glyph glyph-name="Mu" unicode="&#x39c;" horiz-adv-x="812" 
d="M733 0h-129c0 17 13 580 13 580l-153 -580h-119l-153 580s13 -557 13 -580h-129v706h192l138 -524l136 524h191v-706z" />
    <glyph glyph-name="Phi" unicode="&#x3a6;" horiz-adv-x="811" 
d="M777 357c0 -155 -104 -282 -307 -298v-59h-130v59c-216 17 -306 152 -306 295c0 136 83 279 306 297v55h130v-55c189 -14 307 -121 307 -294zM641 358c0 76 -39 163 -171 178v-360c135 16 171 101 171 182zM340 176v359c-126 -15 -170 -94 -170 -181
c0 -65 26 -162 170 -178z" />
    <glyph glyph-name="Upsilondieresis" unicode="&#x3ab;" horiz-adv-x="625" 
d="M615 706l-238 -427v-279h-131v279l-236 427h150l153 -292l154 292h148zM471 772h-114v123h114v-123zM269 772h-112v123h112v-123z" />
    <glyph glyph-name="Psi" unicode="&#x3a8;" horiz-adv-x="808" 
d="M755 433c0 -230 -157 -272 -286 -277v-156h-130v156c-129 5 -286 47 -286 277v273h130v-277c0 -118 81 -153 156 -155v432h130v-432c75 2 156 37 156 155v277h130v-273z" />
    <glyph glyph-name="Nu" unicode="&#x39d;" horiz-adv-x="708" 
d="M628 0h-116l-309 495s8 -482 8 -495h-129v706h119l313 -498s-15 482 -16 498h130v-706z" />
    <glyph glyph-name="Omicron" unicode="&#x39f;" horiz-adv-x="771" 
d="M48 352c0 207 135 372 339 372c215 0 338 -176 338 -367c0 -160 -87 -375 -341 -375c-208 0 -336 172 -336 370zM184 357c0 -110 53 -252 204 -252c105 0 204 81 204 241c0 126 -66 257 -206 257c-116 0 -202 -91 -202 -246z" />
    <glyph glyph-name="Rho" unicode="&#x3a1;" horiz-adv-x="625" 
d="M82 706h274c146 0 251 -90 251 -235c0 -128 -74 -231 -258 -231h-135v-240h-132v706zM214 593v-245h116c94 0 141 44 141 127c0 114 -92 118 -156 118h-101z" />
    <glyph glyph-name="Tau" unicode="&#x3a4;" 
d="M541 587h-195v-587h-132v587h-192v119h519v-119z" />
    <glyph glyph-name="Upsilon" unicode="&#x3a5;" horiz-adv-x="625" 
d="M615 706l-238 -427v-279h-131v279l-236 427h150l153 -292l154 292h148z" />
    <glyph glyph-name="Chi" unicode="&#x3a7;" horiz-adv-x="646" 
d="M639 0h-151l-165 261l-161 -261h-153l237 383l-203 323h152l128 -202l123 202h153l-199 -323z" />
    <glyph glyph-name="Alphatonos" unicode="&#x386;" horiz-adv-x="646" 
d="M636 0h-141l-41 138h-265l-41 -138h-142l239 706h150zM419 254l-97 325l-98 -325h195zM139 706l-108 -133h-91l50 133h149z" />
    <glyph glyph-name="Epsilontonos" unicode="&#x388;" horiz-adv-x="625" 
d="M605 0h-527v706h502v-118h-372v-166h341v-114h-341v-189h397v-119zM44 706l-108 -133h-91l50 133h149z" />
    <glyph glyph-name="Etatonos" unicode="&#x389;" horiz-adv-x="729" 
d="M649 0h-133v321h-303v-321h-133v706h133v-266h303v266h133v-706zM42 706l-108 -133h-91l50 133h149z" />
    <glyph glyph-name="Iotatonos" unicode="&#x38a;" horiz-adv-x="292" 
d="M210 0h-130v706h130v-706zM35 706l-108 -133h-91l50 133h149z" />
    <glyph glyph-name="Omicrontonos" unicode="&#x38c;" horiz-adv-x="771" 
d="M48 352c0 207 135 372 339 372c215 0 338 -176 338 -367c0 -160 -87 -375 -341 -375c-208 0 -336 172 -336 370zM184 357c0 -110 53 -252 204 -252c105 0 204 81 204 241c0 126 -66 257 -206 257c-116 0 -202 -91 -202 -246zM95 706l-108 -133h-91l50 133h149z" />
    <glyph glyph-name="Upsilontonos" unicode="&#x38e;" horiz-adv-x="625" 
d="M615 706l-238 -427v-279h-131v279l-236 427h150l153 -292l154 292h148zM-5 706l-108 -133h-91l50 133h149z" />
    <glyph glyph-name="Omegatonos" unicode="&#x38f;" horiz-adv-x="792" 
d="M737 0h-282v113c99 51 144 122 144 251c0 148 -99 239 -205 239c-115 0 -199 -90 -199 -235c0 -124 49 -208 143 -255v-113h-283v119h127c-81 64 -123 148 -123 264c0 177 124 341 335 341c210 0 339 -164 339 -335c0 -113 -38 -210 -124 -270h128v-119zM104 706
l-108 -133h-91l50 133h149z" />
    <glyph glyph-name="alpha" unicode="&#x3b1;" horiz-adv-x="588" 
d="M574 0c-23 -6 -40 -10 -66 -10c-52 0 -86 22 -99 71c-26 -37 -73 -76 -153 -76c-32 0 -103 4 -159 70c-28 33 -62 90 -62 190c0 18 1 61 16 107c30 91 110 163 210 163c53 0 108 -23 138 -68v53h119v-354c0 -43 10 -50 29 -50c6 0 16 1 27 5v-101zM399 246
c0 65 -28 152 -121 152c-69 0 -120 -53 -120 -152c0 -75 34 -151 121 -151c70 0 120 53 120 151z" />
    <glyph glyph-name="beta" unicode="&#x3b2;" horiz-adv-x="573" 
d="M181 -163h-120v620c0 166 84 250 226 250c137 0 212 -71 212 -173c0 -65 -32 -128 -114 -150c114 -20 160 -89 160 -186c0 -103 -68 -213 -222 -213c-23 0 -92 0 -142 67v-215zM422 206c0 87 -39 125 -146 125h-15v85h9c35 0 115 14 115 109c0 55 -35 88 -98 88
c-87 0 -106 -77 -106 -137v-230c0 -68 27 -150 125 -150c62 0 116 41 116 110z" />
    <glyph glyph-name="psi" unicode="&#x3c8;" horiz-adv-x="713" 
d="M673 239c0 -177 -102 -245 -257 -249v-153h-119v153c-155 4 -257 72 -257 249v261h119v-254c0 -119 49 -147 138 -153v571h119v-571c89 6 138 34 138 153v254h119v-261z" />
    <glyph glyph-name="delta" unicode="&#x3b4;" horiz-adv-x="587" 
d="M427 231c0 68 -38 143 -135 143c-81 0 -129 -55 -129 -140c0 -91 67 -139 135 -139c78 0 129 54 129 136zM231 451c-103 26 -128 81 -128 124c0 91 80 132 192 132c116 0 173 -45 205 -108l-100 -47c-17 40 -49 64 -100 64c-52 0 -80 -21 -80 -50c0 -44 74 -62 134 -87
c127 -52 198 -133 198 -239c0 -173 -119 -255 -253 -255c-149 0 -259 93 -259 239c0 106 61 206 191 227z" />
    <glyph glyph-name="epsilon" unicode="&#x3b5;" horiz-adv-x="551" 
d="M278 -15c-143 0 -233 38 -233 150c0 79 58 119 124 129c-78 18 -101 62 -101 112c0 100 97 139 220 139c133 0 207 -53 226 -153l-121 -16c-11 38 -25 72 -107 72c-67 0 -96 -29 -96 -63c0 -39 34 -50 93 -50h76v-86h-82c-77 0 -107 -23 -107 -61c0 -42 22 -65 109 -65
c71 0 121 21 131 81l121 -21c-34 -124 -115 -168 -253 -168z" />
    <glyph glyph-name="phi" unicode="&#x3c6;" horiz-adv-x="737" 
d="M428 664v-151c133 -11 273 -86 274 -262c0 -127 -75 -253 -274 -264v-150h-119v151c-207 14 -274 149 -274 264c0 114 69 248 274 261v151h119zM578 246c0 75 -40 154 -152 164v-317c112 6 152 80 152 153zM160 254c0 -81 46 -151 151 -160v316
c-92 -5 -151 -60 -151 -156z" />
    <glyph glyph-name="gamma" unicode="&#x3b3;" horiz-adv-x="521" 
d="M497 500l-178 -500v-163h-120v163l-110 341c-15 46 -18 52 -54 52h-20v107h51c82 0 106 -25 130 -112l67 -240l109 352h125z" />
    <glyph glyph-name="eta" unicode="&#x3b7;" horiz-adv-x="572" 
d="M86 0v354c0 43 -10 50 -29 50c-6 0 -16 -1 -27 -5v101c17 6 40 13 66 13c52 0 98 -23 104 -91c15 51 79 93 161 93c111 0 162 -75 162 -167v-511h-118v450c0 66 -26 111 -91 111c-76 0 -107 -77 -107 -149v-249h-121z" />
    <glyph glyph-name="iota" unicode="&#x3b9;" horiz-adv-x="235" 
d="M159 500v-354c0 -43 10 -50 29 -50c6 0 16 1 27 5v-101c-23 -6 -44 -10 -73 -10c-54 0 -102 23 -102 122v388h119z" />
    <glyph glyph-name="xi" unicode="&#x3be;" horiz-adv-x="467" 
d="M396 328h-103c-66 0 -136 -33 -136 -115c0 -75 36 -103 151 -103c97 0 159 -18 159 -118c0 -63 -45 -118 -100 -158l-79 60c42 23 72 45 72 77c0 29 -22 29 -86 29c-129 0 -242 40 -242 188c0 102 64 169 169 192c-73 10 -128 58 -128 123c0 61 45 91 90 102h-96v101h388
v-103h-106c-85 0 -159 -12 -159 -90s68 -89 125 -89h81v-96z" />
    <glyph glyph-name="kappa" unicode="&#x3ba;" horiz-adv-x="552" 
d="M554 0h-143l-154 230l-77 -70v-160h-119v500h119v-201l183 164c40 35 59 37 126 37h32v-103c-73 0 -82 0 -111 -26l-69 -63z" />
    <glyph glyph-name="lambda" unicode="&#x3bb;" horiz-adv-x="517" 
d="M509 0c-24 -7 -41 -10 -64 -10c-57 0 -85 16 -119 122l-70 217c1 0 -119 -329 -119 -329h-129l200 480l-13 41c-20 62 -29 82 -70 82c-19 0 -38 -3 -61 -11v99c8 4 37 16 71 16c101 0 120 -38 157 -146l139 -406c18 -52 30 -59 51 -59c8 0 14 1 27 5v-101z" />
    <glyph glyph-name="nu" unicode="&#x3bd;" horiz-adv-x="501" 
d="M466 448c0 -32 -17 -76 -28 -104l-135 -344h-121l-169 500h124l107 -357l80 225c11 32 21 61 21 82c0 17 0 24 -6 50h122c5 -23 5 -37 5 -52z" />
    <glyph glyph-name="omicron" unicode="&#x3bf;" horiz-adv-x="583" 
d="M549 252c0 -134 -84 -267 -254 -267c-182 0 -260 145 -260 267c0 120 79 263 256 263c109 0 257 -73 258 -263zM160 255c0 -88 49 -160 135 -160c88 0 129 75 129 151c0 80 -43 161 -135 161c-70 0 -129 -51 -129 -152z" />
    <glyph glyph-name="rho" unicode="&#x3c1;" horiz-adv-x="567" 
d="M168 -163h-120v415c0 141 79 263 244 263c132 0 240 -97 240 -263c0 -142 -88 -267 -222 -267c-30 0 -92 0 -142 67v-215zM285 92c88 0 121 78 121 168c0 75 -30 147 -117 147c-70 0 -121 -51 -121 -166c0 -81 35 -149 117 -149z" />
    <glyph glyph-name="sigma" unicode="&#x3c3;" horiz-adv-x="606" 
d="M575 393h-109c63 -30 83 -93 83 -149c0 -159 -115 -259 -254 -259c-134 0 -260 93 -260 264c0 132 89 251 261 251h279v-107zM424 245c0 108 -64 148 -134 148c-64 0 -130 -36 -130 -142c0 -96 53 -156 135 -156c78 0 129 57 129 150z" />
    <glyph glyph-name="tau" unicode="&#x3c4;" horiz-adv-x="446" 
d="M431 393h-156v-250c0 -27 8 -53 48 -53c19 0 31 7 51 16v-101c-15 -5 -50 -15 -98 -15c-82 0 -120 30 -120 134v269h-72c-24 0 -56 -9 -84 -19v103c35 21 74 23 113 23h318v-107z" />
    <glyph glyph-name="theta" unicode="&#x3b8;" horiz-adv-x="583" 
d="M537 361c0 -178 -44 -376 -250 -376c-182 0 -243 163 -243 368c0 126 37 354 248 354c187 0 245 -190 245 -346zM413 402c-2 101 -26 209 -121 209c-97 0 -122 -116 -124 -209h245zM414 316h-247c0 -112 24 -235 124 -235c94 0 123 116 123 235z" />
    <glyph glyph-name="omega" unicode="&#x3c9;" horiz-adv-x="736" 
d="M701 234c0 -140 -50 -249 -183 -249c-60 0 -124 25 -150 101c-26 -76 -89 -101 -150 -101c-132 0 -183 109 -183 249c0 197 82 255 227 274v-108c-72 -13 -102 -41 -102 -165c0 -71 11 -140 77 -140c62 0 71 66 71 121v108h120v-106c0 -55 9 -123 72 -123
c67 0 76 69 76 140c0 124 -29 152 -101 165v108c145 -19 226 -77 226 -274z" />
    <glyph glyph-name="sigma1" unicode="&#x3c2;" horiz-adv-x="512" 
d="M391 323c-11 32 -35 85 -110 85c-94 0 -126 -81 -126 -147c0 -85 45 -120 109 -139c75 -22 156 -25 156 -130c0 -63 -45 -119 -100 -158l-79 60c42 23 72 45 72 77c0 29 -18 35 -83 47c-122 23 -200 101 -200 237c0 139 92 260 249 260c138 0 197 -80 219 -143z" />
    <glyph glyph-name="chi" unicode="&#x3c7;" horiz-adv-x="524" 
d="M524 -56v-101c-24 -7 -44 -10 -67 -10c-59 0 -79 25 -110 88l-74 148l-123 -232h-123l186 334l-104 192c-21 39 -26 43 -51 43c-9 0 -28 -4 -36 -7v101c17 6 39 11 65 11c55 0 74 -19 112 -91l77 -146l124 226h123l-187 -328l91 -175c27 -52 47 -58 67 -58c8 0 17 1 30 5
z" />
    <glyph glyph-name="upsilon" unicode="&#x3c5;" horiz-adv-x="535" 
d="M495 207c0 -139 -81 -222 -228 -222c-110 0 -227 59 -227 219v296h121v-294c0 -81 46 -111 107 -111c72 0 107 36 107 115v290h120v-293z" />
    <glyph glyph-name="zeta" unicode="&#x3b6;" horiz-adv-x="459" 
d="M38 193c0 150 105 303 247 406h-216v107h388v-91c-142 -97 -294 -230 -294 -397c0 -63 11 -106 145 -106c88 0 151 -24 151 -117c0 -64 -45 -121 -101 -161l-79 60c42 23 71 44 71 76c0 23 -6 30 -80 30c-132 0 -232 50 -232 193z" />
    <glyph glyph-name="alphatonos" unicode="&#x3ac;" horiz-adv-x="588" 
d="M574 0c-23 -6 -40 -10 -66 -10c-52 0 -86 22 -99 71c-26 -37 -73 -76 -153 -76c-32 0 -103 4 -159 70c-28 33 -62 90 -62 190c0 18 1 61 16 107c30 91 110 163 210 163c53 0 108 -23 138 -68v53h119v-354c0 -43 10 -50 29 -50c6 0 16 1 27 5v-101zM399 246
c0 65 -28 152 -121 152c-69 0 -120 -53 -120 -152c0 -75 34 -151 121 -151c70 0 120 53 120 151zM425 706l-108 -133h-91l50 133h149z" />
    <glyph glyph-name="upsilontonos" unicode="&#x3cd;" horiz-adv-x="535" 
d="M495 207c0 -139 -81 -222 -228 -222c-110 0 -227 59 -227 219v296h121v-294c0 -81 46 -111 107 -111c72 0 107 36 107 115v290h120v-293zM410 706l-108 -133h-91l50 133h149z" />
    <glyph glyph-name="epsilontonos" unicode="&#x3ad;" horiz-adv-x="551" 
d="M278 -15c-143 0 -233 38 -233 150c0 79 58 119 124 129c-78 18 -101 62 -101 112c0 100 97 139 220 139c133 0 207 -53 226 -153l-121 -16c-11 38 -25 72 -107 72c-67 0 -96 -29 -96 -63c0 -39 34 -50 93 -50h76v-86h-82c-77 0 -107 -23 -107 -61c0 -42 22 -65 109 -65
c71 0 121 21 131 81l121 -21c-34 -124 -115 -168 -253 -168zM437 706l-108 -133h-91l50 133h149z" />
    <glyph glyph-name="etatonos" unicode="&#x3ae;" horiz-adv-x="572" 
d="M86 0v354c0 43 -10 50 -29 50c-6 0 -16 -1 -27 -5v101c17 6 40 13 66 13c52 0 98 -23 104 -91c15 51 79 93 161 93c111 0 162 -75 162 -167v-511h-118v450c0 66 -26 111 -91 111c-76 0 -107 -77 -107 -149v-249h-121zM445 706l-108 -133h-91l50 133h149z" />
    <glyph glyph-name="iotatonos" unicode="&#x3af;" horiz-adv-x="235" 
d="M159 500v-354c0 -43 10 -50 29 -50c6 0 16 1 27 5v-101c-23 -6 -44 -10 -73 -10c-54 0 -102 23 -102 122v388h119zM257 706l-108 -133h-91l50 133h149z" />
    <glyph glyph-name="omicrontonos" unicode="&#x3cc;" horiz-adv-x="584" 
d="M549 252c0 -134 -84 -267 -254 -267c-182 0 -260 145 -260 267c0 120 79 263 256 263c109 0 257 -73 258 -263zM160 255c0 -88 49 -160 135 -160c88 0 129 75 129 151c0 80 -43 161 -135 161c-70 0 -129 -51 -129 -152zM439 706l-108 -133h-91l50 133h149z" />
    <glyph glyph-name="upsilondieresistonos" unicode="&#x3b0;" horiz-adv-x="535" 
d="M495 207c0 -139 -81 -222 -228 -222c-110 0 -227 59 -227 219v296h121v-294c0 -81 46 -111 107 -111c72 0 107 36 107 115v290h120v-293zM471 593h-109v102h109v-102zM341 740l-60 -147h-77l24 147h113zM164 593h-109v102h109v-102z" />
    <glyph glyph-name="iotadieresistonos" unicode="&#x390;" horiz-adv-x="235" 
d="M159 500v-354c0 -43 10 -50 29 -50c6 0 16 1 27 5v-101c-23 -6 -44 -10 -73 -10c-54 0 -102 23 -102 122v388h119zM338 593h-109v102h109v-102zM208 740l-60 -147h-77l24 147h113zM31 593h-109v102h109v-102z" />
    <glyph glyph-name="upsilondieresis" unicode="&#x3cb;" horiz-adv-x="535" 
d="M495 207c0 -139 -81 -222 -228 -222c-110 0 -227 59 -227 219v296h121v-294c0 -81 46 -111 107 -111c72 0 107 36 107 115v290h120v-293zM415 587h-115v119h115v-119zM213 587h-113v119h113v-119z" />
    <glyph glyph-name="iotadieresis" unicode="&#x3ca;" horiz-adv-x="235" 
d="M159 500v-354c0 -43 10 -50 29 -50c6 0 16 1 27 5v-101c-23 -6 -44 -10 -73 -10c-54 0 -102 23 -102 122v388h119zM274 587h-115v119h115v-119zM72 587h-113v119h113v-119z" />
    <glyph glyph-name="omegatonos" unicode="&#x3ce;" horiz-adv-x="736" 
d="M701 234c0 -140 -50 -249 -183 -249c-60 0 -124 25 -150 101c-26 -76 -89 -101 -150 -101c-132 0 -183 109 -183 249c0 197 82 255 227 274v-108c-72 -13 -102 -41 -102 -165c0 -71 11 -140 77 -140c62 0 71 66 71 121v108h120v-106c0 -55 9 -123 72 -123
c67 0 76 69 76 140c0 124 -29 152 -101 165v108c145 -19 226 -77 226 -274zM515 706l-108 -133h-91l50 133h149z" />
    <glyph glyph-name="Imacron" horiz-adv-x="292" 
d="M210 0h-130v706h130v-706zM284 772h-279v90h279v-90z" />
    <glyph glyph-name="ibreve" horiz-adv-x="250" 
d="M184 0h-119v500h119v-500zM186 706h87c-11 -42 -37 -131 -151 -131c-110 0 -136 97 -144 131h88c4 -20 13 -53 61 -53c47 0 55 36 59 53z" />
    <glyph glyph-name="cyrbreve" horiz-adv-x="271" 
d="M196 706l87 -20c-10 -36 -35 -111 -147 -111s-137 75 -147 111l87 20c4 -20 16 -53 62 -53s54 33 58 53z" />
    <glyph glyph-name="onefitted" horiz-adv-x="384" 
d="M303 0h-123v415c0 46 -22 54 -49 54h-116v77h13c43 0 80 1 117 28c36 26 48 60 58 101h100v-675z" />
    <glyph glyph-name="anoteleia" unicode="&#x387;" horiz-adv-x="219" 
d="M176 217h-133v146h133v-146z" />
    <glyph glyph-name="phi.salt" horiz-adv-x="734" 
d="M700 256c0 -154 -87 -257 -270 -268v-151h-123v151c-202 6 -272 124 -272 268c0 127 81 248 215 257c4 -31 11 -80 14 -109c-72 -7 -104 -85 -104 -143c0 -67 27 -164 147 -168v184c0 83 6 238 179 238c128 0 214 -87 214 -259zM576 255c0 88 -22 153 -80 153
c-55 0 -66 -52 -66 -91v-224c115 9 146 96 146 162z" />
    <glyph glyph-name="xi.salt" horiz-adv-x="477" 
d="M292 707c75 0 163 -18 213 -113c1 -1 -103 -47 -103 -47c-18 40 -53 63 -105 63c-49 0 -107 -13 -107 -85c0 -79 69 -90 115 -90h91v-103h-103c-66 0 -136 -37 -136 -119c0 -75 36 -103 151 -103c98 0 159 -17 159 -118c0 -63 -45 -119 -100 -158l-79 60
c42 23 72 45 72 77c0 29 -22 29 -86 29c-129 0 -242 40 -242 188c0 102 64 173 169 196c-73 14 -131 63 -131 149c0 121 110 174 222 174z" />
    <glyph glyph-name="beta.salt" horiz-adv-x="580" 
d="M180 0h-119v457c0 166 84 250 226 250c137 0 212 -71 212 -173c0 -65 -32 -128 -114 -150c114 -20 160 -89 160 -186c0 -103 -68 -212 -222 -212c-23 0 -95 1 -143 68v-54zM422 206c0 87 -39 125 -146 125h-15v85h9c35 0 115 14 115 109c0 55 -35 88 -98 88
c-87 0 -106 -77 -106 -137v-230c0 -68 27 -150 125 -150c62 0 116 41 116 110z" />
    <glyph glyph-name="gamma.salt" horiz-adv-x="473" 
d="M175 0l-162 500h124l100 -356l98 356h125l-165 -500v-163h-120v163z" />
    <glyph glyph-name="zeta.salt" horiz-adv-x="500" 
d="M459 0h-428v92l270 301h-243v107h401v-93l-264 -301h264v-106z" />
    <glyph glyph-name="kappa.salt" horiz-adv-x="536" 
d="M544 0h-146l-148 216l-70 -69v-147h-119v500h119v-199l200 198h153l-196 -198z" />
    <glyph glyph-name="lambda.salt" horiz-adv-x="486" 
d="M482 0h-122l-112 329c1 0 -113 -329 -113 -329h-129l191 480l-14 41c-21 62 -30 82 -71 82c-19 0 -38 -3 -63 -11v102c8 4 46 13 71 13c101 0 121 -38 160 -146z" />
    <glyph glyph-name="mu.salt" horiz-adv-x="577" 
d="M399 0v59c-25 -45 -67 -69 -112 -69c-36 0 -80 16 -105 58v-211h-121v663h121v-290c0 -79 43 -116 105 -116s109 55 109 149v257h120v-500h-117z" />
    <glyph glyph-name="nu.salt" horiz-adv-x="479" 
d="M468 500l-165 -500h-128l-162 500h124l104 -344l102 344h125z" />
    <glyph glyph-name="pi.salt1" horiz-adv-x="560" 
d="M550 393h-68v-393h-118v393h-165v-393h-121v393h-68v107h540v-107z" />
    <glyph glyph-name="tau.salt" horiz-adv-x="412" 
d="M402 393h-141v-250c0 -27 8 -53 48 -53c19 0 31 7 51 16v-101c-15 -5 -50 -15 -98 -15c-82 0 -120 30 -120 134v269h-132v107h392v-107z" />
    <glyph glyph-name="chi.salt" horiz-adv-x="503" 
d="M494 0h-138l-104 158l-100 -158h-143l172 268l-152 232h141l82 -126l79 126h143l-151 -232z" />
    <glyph glyph-name="alphatonos.salt" horiz-adv-x="579" 
d="M399 246c0 65 -28 152 -121 152c-69 0 -120 -53 -120 -152c0 -75 34 -151 121 -151c70 0 120 53 120 151zM402 0l-4 46c-27 -32 -76 -61 -142 -61c-32 0 -103 4 -159 70c-28 33 -62 90 -62 190c0 18 1 61 16 107c30 91 110 163 210 163c53 0 108 -23 138 -68v53h119v-419
c0 -38 2 -49 22 -81h-138zM435 706l-108 -133h-91l50 133h149z" />
    <glyph glyph-name="etatonos.salt" horiz-adv-x="547" 
d="M61 500h121v-59c45 68 134 74 154 74c106 0 162 -69 162 -167v-348h-118v281c0 55 -14 117 -88 117c-13 0 -38 -2 -63 -23c-36 -30 -47 -72 -47 -158v-217h-121v500zM438 706l-108 -133h-91l50 133h149z" />
    <glyph glyph-name="eta.salt" horiz-adv-x="547" 
d="M61 500h121v-59c45 68 134 74 154 74c106 0 162 -69 162 -167v-348h-118v281c0 55 -14 117 -88 117c-13 0 -38 -2 -63 -23c-36 -30 -47 -72 -47 -158v-217h-121v500z" />
    <glyph glyph-name="alpha.salt" horiz-adv-x="579" 
d="M399 246c0 65 -28 152 -121 152c-69 0 -120 -53 -120 -152c0 -75 34 -151 121 -151c70 0 120 53 120 151zM402 0l-4 46c-27 -32 -76 -61 -142 -61c-32 0 -103 4 -159 70c-28 33 -62 90 -62 190c0 18 1 61 16 107c30 91 110 163 210 163c53 0 108 -23 138 -68v53h119v-419
c0 -38 2 -49 22 -81h-138z" />
    <glyph glyph-name="iotatonos.salt" horiz-adv-x="250" 
d="M184 0h-119v500h119v-500zM276 706l-108 -133h-91l50 133h149z" />
    <glyph glyph-name="iotadieresis.salt" horiz-adv-x="250" 
d="M184 0h-119v500h119v-500zM293 587h-115v119h115v-119zM91 587h-113v119h113v-119z" />
    <glyph glyph-name="iotadieresistonos.salt" horiz-adv-x="250" 
d="M184 0h-119v500h119v-500zM357 593h-109v102h109v-102zM227 740l-60 -147h-77l24 147h113zM50 593h-109v102h109v-102z" />
    <glyph glyph-name="iota.salt" horiz-adv-x="250" 
d="M184 0h-119v500h119v-500z" />
    <glyph glyph-name="cyrBreve" horiz-adv-x="271" 
d="M210 894l96 -20c-12 -37 -40 -115 -170 -115s-159 78 -171 115l97 20c6 -20 20 -53 76 -53c57 0 66 33 72 53z" />
    <glyph glyph-name="pi.salt" horiz-adv-x="560" 
d="M550 393h-68v-393h-118v393h-165v-393h-121v393h-68v107h540v-107z" />
    <glyph glyph-name="uni03A9.salt" horiz-adv-x="792" 
d="M737 0h-282v113c99 51 144 122 144 251c0 148 -99 239 -205 239c-115 0 -199 -90 -199 -235c0 -124 49 -208 143 -255v-113h-283v119h127c-81 64 -123 148 -123 264c0 177 124 341 335 341c210 0 339 -164 339 -335c0 -113 -38 -210 -124 -270h128v-119z" />
    <glyph glyph-name="uni03BC.salt" horiz-adv-x="577" 
d="M399 0v59c-25 -45 -67 -69 -112 -69c-36 0 -80 16 -105 58v-211h-121v663h121v-290c0 -79 43 -116 105 -116s109 55 109 149v257h120v-500h-117z" />
    <glyph glyph-name="psi.salt" horiz-adv-x="713" 
d="M673 239c0 -177 -102 -245 -257 -249v-153h-119v153c-155 4 -257 72 -257 249v261h119v-254c0 -119 49 -147 138 -153v407h119v-407c89 6 138 34 138 153v254h119v-261z" />
    </font>
</defs>
</svg>
