<?xml version="1.0" encoding="utf-8"?>
<!-- Generator: Adobe Illustrator 13.0.0, SVG Export Plug-In  -->
<!DOCTYPE svg PUBLIC "-//W3C//DTD SVG 1.1 Tiny//EN" "http://www.w3.org/Graphics/SVG/1.1/DTD/svg11-tiny.dtd" [
	<!ENTITY ns_flows "http://ns.adobe.com/Flows/1.0/">
]>
<svg version="1.1" baseProfile="tiny"
	 xmlns="http://www.w3.org/2000/svg" xmlns:xlink="http://www.w3.org/1999/xlink" xmlns:a="http://ns.adobe.com/AdobeSVGViewerExtensions/3.0/"
	 x="0px" y="0px" width="128px" height="99px" viewBox="0 0 128 99" xml:space="preserve">
<defs>
</defs>
<path fill-rule="evenodd" fill="#B1E2EA" d="M2.23,81.64c1.5,3.82,3.47,7.01,5.93,9.58c2.47,2.56,5.33,4.49,8.59,5.81
	C20.01,98.34,23.48,99,27.14,99c6.52,0,11.96-1.77,16.31-5.3c4.36-3.53,6.52-8.66,6.52-15.38c0-3.55-0.63-6.49-1.89-8.82
	c-1.26-2.34-2.86-4.31-4.82-5.9c-1.94-1.59-4.01-2.96-6.19-4.09c-2.18-1.15-4.25-2.32-6.21-3.52c-1.94-1.21-3.56-2.57-4.82-4.11
	c-1.26-1.53-1.89-3.45-1.89-5.72c0-6.84,2.74-12.88,8.22-18.12c5.48-5.25,13.97-9.7,25.49-13.34V0C47.3,3.07,38.37,6.97,31.08,11.7
	c-7.29,4.74-13.24,10.07-17.9,15.99c-4.65,5.93-8,12.38-10.07,19.33C1.04,53.98,0,61.15,0,68.57C0,73.47,0.75,77.82,2.23,81.64z
	 M72.29,81.64c1.42,3.82,3.39,7.01,5.92,9.58c2.52,2.56,5.38,4.49,8.58,5.81C90,98.34,93.44,99,97.1,99c6.53,0,12-1.77,16.41-5.3
	c4.41-3.53,6.6-8.66,6.6-15.38c0-3.55-0.63-6.49-1.89-8.82c-1.26-2.34-2.86-4.31-4.82-5.9c-1.95-1.59-4.02-2.96-6.19-4.09
	c-2.18-1.15-4.25-2.32-6.21-3.52c-1.95-1.21-3.56-2.57-4.82-4.11c-1.26-1.53-1.89-3.45-1.89-5.72c0-6.84,2.71-12.88,8.12-18.12
	c5.43-5.25,13.95-9.7,25.59-13.34V0c-10.56,3.07-19.49,6.97-26.78,11.7c-7.29,4.74-13.25,10.07-17.9,15.99
	c-4.65,5.93-8,12.38-10.07,19.33c-2.07,6.96-3.11,14.13-3.11,21.55C70.14,73.47,70.86,77.82,72.29,81.64z"/>
</svg>
