<?xml version="1.0" encoding="utf-8"?>
<!-- Generator: Adobe Illustrator 13.0.0, SVG Export Plug-In  -->
<!DOCTYPE svg PUBLIC "-//W3C//DTD SVG 1.1//EN" "http://www.w3.org/Graphics/SVG/1.1/DTD/svg11.dtd" [
	<!ENTITY ns_flows "http://ns.adobe.com/Flows/1.0/">
]>
<svg version="1.1"
	 xmlns="http://www.w3.org/2000/svg" xmlns:xlink="http://www.w3.org/1999/xlink" xmlns:a="http://ns.adobe.com/AdobeSVGViewerExtensions/3.0/"
	 x="0px" y="0px" width="134px" height="105px" viewBox="0 0 134 105" enable-background="new 0 0 134 105" xml:space="preserve">
<defs>
</defs>
<path fill="none" stroke="#F3FAFC" stroke-width="6" stroke-linecap="round" stroke-linejoin="round" d="M128.77,20.36
	c-1.5-3.82-3.47-7.01-5.93-9.58c-2.47-2.561-5.33-4.49-8.59-5.811C110.99,3.66,107.52,3,103.859,3C97.34,3,91.9,4.77,87.55,8.3
	c-4.36,3.53-6.521,8.66-6.521,15.38c0,3.55,0.631,6.49,1.891,8.82c1.26,2.34,2.859,4.31,4.82,5.9c1.939,1.59,4.01,2.96,6.189,4.09
	c2.18,1.15,4.25,2.32,6.211,3.52c1.939,1.21,3.56,2.57,4.819,4.11c1.261,1.53,1.89,3.45,1.89,5.72c0,6.84-2.74,12.88-8.22,18.12
	c-5.479,5.25-13.97,9.7-25.489,13.34V102C83.7,98.93,92.63,95.03,99.92,90.3c7.29-4.739,13.24-10.069,17.9-15.989
	c4.65-5.931,8-12.381,10.07-19.33C129.96,48.02,131,40.85,131,33.43C131,28.53,130.25,24.18,128.77,20.36z"/>
<path fill="none" stroke="#F3FAFC" stroke-width="6" stroke-linecap="round" stroke-linejoin="round" d="M58.71,20.36
	c-1.42-3.82-3.39-7.01-5.92-9.58c-2.52-2.561-5.38-4.49-8.58-5.811C41,3.66,37.56,3,33.9,3c-6.53,0-12,1.77-16.41,5.3
	c-4.41,3.53-6.6,8.66-6.6,15.38c0,3.55,0.63,6.49,1.89,8.82c1.26,2.34,2.86,4.31,4.82,5.9c1.95,1.59,4.02,2.96,6.19,4.09
	c2.18,1.15,4.25,2.32,6.21,3.52c1.95,1.21,3.56,2.57,4.82,4.11c1.26,1.53,1.89,3.45,1.89,5.72c0,6.84-2.71,12.88-8.12,18.12
	C23.16,79.21,14.64,83.66,3,87.3V102c10.56-3.07,19.49-6.97,26.78-11.7c7.29-4.739,13.25-10.069,17.9-15.989
	c4.65-5.931,8-12.381,10.07-19.33c2.07-6.96,3.11-14.13,3.11-21.55C60.86,28.53,60.14,24.18,58.71,20.36z"/>
</svg>
