<?xml version="1.0" encoding="utf-8"?>
<!-- Generator: Adobe Illustrator 13.0.0, SVG Export Plug-In  -->
<!DOCTYPE svg PUBLIC "-//W3C//DTD SVG 1.1 Tiny//EN" "http://www.w3.org/Graphics/SVG/1.1/DTD/svg11-tiny.dtd" [
	<!ENTITY ns_flows "http://ns.adobe.com/Flows/1.0/">
]>
<svg version="1.1" baseProfile="tiny"
	 xmlns="http://www.w3.org/2000/svg" xmlns:xlink="http://www.w3.org/1999/xlink" xmlns:a="http://ns.adobe.com/AdobeSVGViewerExtensions/3.0/"
	 x="0px" y="0px" width="227px" height="371px" viewBox="-0.001 -0.995 227 371" xml:space="preserve">
<defs>
</defs>
<path fill-rule="evenodd" fill="#FF97A2" d="M184.909,101.755l-7.76,1.29c0,0-1.81,7.63,3.09,7.32
	C185.159,110.055,184.989,109.745,184.909,101.755z"/>
<path fill-rule="evenodd" fill="#059E9B" d="M138.858,98.685l-5.17,13.85l-1.81,84.8h4.93c0,0,12.57-68.04,11.34-78.94
	c-0.38-3.35,3.89-1.63,3.69,0c-1.85,15.42,15.25,52.05,18.21,81.41c1.62-0.26,6.16,0,6.16,0s-11.97-82.49-11.87-85.2
	c0.18-5.1-2.39-7.56-2.49-15.1C161.778,94.565,138.858,98.685,138.858,98.685z"/>
<path fill-rule="evenodd" fill="#111111" d="M138.188,83.495l-15.18,45.49c0,0,30.49,12.77,53.89-3.06
	c-6.98-22.81-13.49-43.48-13.49-43.48L138.188,83.495z"/>
<path fill-rule="evenodd" fill="#070707" d="M162.979,76.975c0-5.55,3.38-23.47,3.38-23.47l11.08,50.11l8.01,0.61
	c0,0-13.21-66.17-15.67-67.4c-2.47-1.24-13.13-3.7-13.13-3.7l-23.54,1.43l-54.84,6.28c0,0-1.05,3.39-1.05,5.24
	c0,1.85,26.34-3.3,26.34-3.3l17.02,2.87l11.69,1.25l6.23,30.62C138.499,77.515,162.979,82.525,162.979,76.975z"/>
<polygon fill-rule="evenodd" fill="#FBFBFB" points="138.039,83.275 163.528,83.845 162.979,76.795 138.059,76.755 "/>
<path fill-rule="evenodd" fill="#FF97A2" d="M138.858,8.845l-0.79,5.03c0,0-3.62,8.88-2.76,9.93c0.86,1.06,1.77-1.11,2.61,0.44
	c1.12,2.09-2.01,1.91,4.83,6.69c3.77,2.64,1.11,5.95,0.63,6.95c3.39,4.68,10.2,1.82,10.34-0.05c0.27-3.44-0.57-6.66,0.26-8.79
	c2.38-6.16,7.5-5.9,7.5-5.9s-3.17-16.82-4.51-17.26C155.628,5.445,138.858,8.845,138.858,8.845z"/>
<path fill-rule="evenodd" fill="#00698C" d="M19.278,262.125l0.13,18.48l-4.32,82.96h4.32c0,0,14.89-79.15,18.33-79.73
	c3.43-0.58,2.15,0,2.15,0s12.14,50.49,15.1,79.73c1.41-0.22,5.39,0,5.39,0s-4.4-79.52-4.31-81.88c0.15-4.46,0.07-13.67-0.02-20.27"
	/>
<path fill-rule="evenodd" fill="#111111" d="M51.699,89.865l-5.14,16.63l1.59,90.84h4.93c0,0,12.08-88.12,16-88.79
	c3.93-0.67-1.23,0-1.23,0s21.25,57.79,24.63,91.26c1.61-0.26,6.16,0,6.16,0s-9.62-88.04-9.52-90.74c0.18-5.1-2.34-12.54-6.46-18.87
	C80.508,86.885,51.699,89.865,51.699,89.865z"/>
<path fill-rule="evenodd" fill="#FCBC7C" d="M226.958,268.755l-7.76,1.29c0,0-1.81,7.63,3.09,7.32
	C227.208,277.055,227.039,276.745,226.958,268.755z"/>
<path fill-rule="evenodd" fill="#FCBC7C" d="M43.668,106.065l-6.69,1.29c0,0-1.81,7.63,3.1,7.32
	C44.999,114.365,43.749,114.055,43.668,106.065z"/>
<path fill-rule="evenodd" fill="#87C830" d="M41.019,48.125c0,0,12.94-6.44,15.32-5.72c2.39,0.72,14.08-0.13,14.08-0.13l9.12-2.07
	l21.56-8.12l36.6-1.31c0,0,5.06,0.98,4.85,2.96c-7.37,2.23-28.01,2.28-34.88,4.11c-13.73,3.66-22.35,11.67-22.35,11.67l1,4.77
	l3.71,9.47l-5.19,8.48l-3.22,18.37l-29.85,0.68l-2.82-30.84l-5.39,47.42l-6.9,0.27L41.019,48.125z"/>
<path fill-rule="evenodd" fill="#663300" d="M0.028,265.525l7.76,1.28c0,0,1.81,7.63-3.1,7.33
	C-0.231,273.825-0.062,273.515,0.028,265.525z"/>
<path fill-rule="evenodd" fill="#32364C" d="M87.329,211.655l3.24,68.95h6.47l-4.32,82.96h4.32c0,0,14.89-79.15,18.32-79.73
	c3.44-0.58,2.16,0,2.16,0s12.13,50.49,15.1,79.73c1.41-0.22,5.39,0,5.39,0s-2.18-80.87-4.32-81.88c-2.14-1.01,4.32-2.16,4.32-2.16
	l2.15-66.8l16.18-8.62c0,0,33.48,0.41,38.81,0c5.33-0.4,0-6.46,0-6.46l-50.67-4.31l-17.35,6.68l-30.09,1.94l-17.26-7.54l-21.73-0.32
	l-31.1,1.4v7.54l33.43-1.08l22.64,6.46L87.329,211.655z"/>
<path fill-rule="evenodd" fill="#FFD400" d="M56.048,261.415c0.75-4.24-0.11-7.49-0.11-7.49l2.55-42.86l17.98-8.89
	c0,0,44.34-0.89,49.68-1.3c5.33-0.4,0-6.46,0-6.46l-59.3-1.08l-17.34,6.68l-30.1,1.94l-11.95,3.31l-3.19,9.31l-3.57,50.29l7.26,2.28
	l6.17-47.1l1.87,0.21l3.25,37.59c0,0-1.18,4.12,0.03,4.28C20.489,262.285,56.048,261.415,56.048,261.415z"/>
<path fill-rule="evenodd" fill="#C51162" d="M217.789,314.545l-8.08-105.05l9.3,61.37l7.99-1.3l-5.5-31.37
	c0,0-6.01-34.71-6.16-36.19c-0.15-1.48-10.58-1.99-10.58-1.99l-30.1,1.94l-17.25-6.46l-23.72-4.31l-28.03,2.15v7.54l33.42-1.07
	l21.57,8.61l11.86,9.7l-9.71,97.51L217.789,314.545z"/>
<path fill-rule="evenodd" fill="#FCBC7C" d="M198.749,314.895c1.72,4.2,8.89,23,11.49,48.67c1.42-0.22,5.4,0,5.4,0
	s-2.51-43.73-4.61-48.16C210.949,315.235,198.749,314.895,198.749,314.895z"/>
<path fill-rule="evenodd" fill="#C51162" d="M184.688,314.245c0.27-0.47,0.52-0.74,0.76-0.78c3.43-0.58,12.93,0.54,12.93,0.54
	s0.14,0.3,0.37,0.89"/>
<path fill-rule="evenodd" fill="#FCBC7C" d="M171.938,315.945l-1.59,47.62h4.31c0,0,6.38-41.87,10.03-48.24
	C184.958,314.855,171.938,315.945,171.938,315.945z"/>
<path fill-rule="evenodd" d="M92.719,364.645l11.86,1.07l2.16,2.16c0,0-2.48,0.96-3.24,1.08c-0.75,0.12-10.78,0-10.78,0V364.645z"/>
<path fill-rule="evenodd" d="M60.378,364.645l-11.86,1.07l-2.16,2.16c0,0,2.49,0.96,3.24,1.08c0.75,0.12,10.78,0,10.78,0V364.645z"
	/>
<path fill-rule="evenodd" d="M170.349,364.645l11.86,1.07l2.16,2.16c0,0-2.49,0.96-3.24,1.08c-0.75,0.12-10.78,0-10.78,0V364.645z"
	/>
<path fill-rule="evenodd" d="M131.539,364.645l12.27,1.07l2.82,1.08c0,0-3.15,2.04-3.9,2.16c-0.75,0.12-11.19,0-11.19,0V364.645z"/>
<path fill-rule="evenodd" d="M19.409,364.645l-12.27,1.07l-2.83,1.08c0,0,3.15,2.04,3.9,2.16c0.76,0.12,11.2,0,11.2,0V364.645z"/>
<path fill-rule="evenodd" d="M209.168,364.645l12.27,1.07l2.82,1.08c0,0-3.15,2.04-3.9,2.16c-0.75,0.12-11.19,0-11.19,0V364.645z"/>
<polygon fill-rule="evenodd" fill="#FFFFFF" points="122.909,199.805 101.528,201.235 110.219,232.125 111.458,232.125 
	113.148,211.935 109.429,208.095 113.769,202.995 117.489,208.095 115.628,212.565 118.729,231.725 121.048,231.725 "/>
<path fill-rule="evenodd" fill="#123F00" d="M101.479,176.055l11.84,3.7c0,0,5,7.16,5.61,7.25c0.6,0.1,1.84-0.27,1.72-0.75
	c-0.13-0.48-1.44-11.18-1.84-11.17c-0.41,0-1.19-1.5-3.77-1.45c-2.58,0.04-11.78-0.72-12.63-0.05
	C101.559,174.255,101.479,176.055,101.479,176.055z"/>
<path fill-rule="evenodd" d="M23.858,176.055l11.83,3.7c0,0,3.7,9.46,4.31,9.55c0.6,0.09,4.54,2.5,5.01,2.66
	c4.08,1.44,2.09-17.68,1.69-17.68c-0.4,0.01-0.49-6.42-3.07-6.38c-2.58,0.05-18.96-7.15-21.49,3.72
	C21.329,175.095,23.858,176.055,23.858,176.055z"/>
<path fill-rule="evenodd" fill="#B28500" d="M98.769,189.435c0.13-0.44,2.71-13.38,2.71-13.38l11.77,3.11l4.42,7.36
	c0,0,3.58-2.03,4.39,0.57c1.28,3.17,0.65,3.95-1.47,4.45c0.2,0.9,2.52,9.5,2.3,9.43c-0.23-0.07-22.22,0.23-22.22,0.23
	s1.87-12.19,1.67-12.09C102.128,189.215,98.628,189.875,98.769,189.435z"/>
<path fill-rule="evenodd" fill="#663300" d="M21.139,189.435c0.09-0.3-1.7-1.52,0.26-3.92c1.95-2.39,2.46-9.46,2.46-9.46l11.76,3.11
	l4.43,7.36c0,0,3.58-2.03,4.38,0.57c1.28,3.17,0.65,3.95-1.47,4.45c0.11,0.48,0.21,2.49,0.82,4.87c0.52,2.07,0.35,4.78,0.24,4.75
	c-0.23-0.07-15.56,0.72-15.56,0.72s-2.11-1.71-1.76-4.25c0.52-3.81-1.87-8.58-1.99-8.52
	C24.499,189.215,20.999,189.875,21.139,189.435z"/>
<path fill-rule="evenodd" fill="#123F00" d="M104.588,182.655c-0.07-0.59,0.36-1.11,0.95-1.17c0.59-0.05,1.13,0.39,1.19,0.98
	c0.07,0.59-0.36,1.12-0.95,1.17C105.188,183.685,104.648,183.255,104.588,182.655z"/>
<path fill-rule="evenodd" d="M26.958,182.655c-0.06-0.59,0.36-1.11,0.95-1.17c0.6-0.05,1.13,0.39,1.19,0.98
	c0.07,0.59-0.36,1.12-0.95,1.17C27.559,183.685,27.028,183.255,26.958,182.655z"/>
<path fill-rule="evenodd" fill="#FCBC7C" d="M201.039,173.445c0.26,3.14,2.43,8.27,2.89,10.08c0.34,1.34-2.1,1.25-2.11,1.27
	c-0.01,0.02,0.76,5.21,0.43,6.4c-0.47,1.67-6.38,0.61-6.38,0.61l0.5,7.2c0,0,1.49,0.01,6.32,1.54c0.89,0.79-8.11,15.31-9.31,14.3
	c-1.2-1.01-17.18-13.12-17.18-13.12l10.36-28.75C186.559,172.975,200.778,170.305,201.039,173.445z"/>
<path fill-rule="evenodd" fill="#FCBC7C" d="M79.499,10.555c0.3,3.6,4.51,12.17,2.4,12.52c-1.5,0.25-1.5,0.45-1.51,0.47
	c-0.01,0.02-0.61,5.67-0.99,7.03c-0.53,1.91-5.8,0.99-5.8,0.99l-0.66,8.24c0,0-1.06,0.64,3.23,2.21c1.02,0.89,2.55,5.33-8.46,6.4
	c-11.01,1.06-11.65-5.49-11.65-5.49l5.23-7.32l1.68-25.58C62.969,10.025,79.199,6.955,79.499,10.555z"/>
<path fill-rule="evenodd" fill="#070707" d="M69.418,2.985c9.54-2.41,23.22,12.02-1.41,11.74c0.48,2.57,0.6,4.75-0.79,5.53
	c-3.69,2.06-1.16,2.51-0.84,2.93c0.44,0.58,1.52,9.34-8.02,11.17c-9.55,1.82-13.59-9.95-8.98-12.53c5.9-3.28,5-2.45,6.14-3.16
	c-7.59-8.34,2.36-18.45,7.8-14.37c1.57,1.18,1.76,1.71,1.63,1.81C64.679,6.315,62.949,4.615,69.418,2.985z"/>
<path fill-rule="evenodd" fill="#8D010C" d="M198.708,178.635c-0.03-0.41-0.38-0.72-0.79-0.69c-0.41,0.04-0.72,0.4-0.69,0.81
	c0.02,0.41,0.38,0.72,0.79,0.69C198.429,179.405,198.739,179.045,198.708,178.635z"/>
<path fill-rule="evenodd" fill="#111111" d="M78.068,17.725c-0.03-0.47-0.43-0.82-0.9-0.78c-0.47,0.04-0.82,0.45-0.79,0.92
	c0.03,0.47,0.44,0.82,0.91,0.79C77.749,18.615,78.108,18.205,78.068,17.725z"/>
<path fill-rule="evenodd" fill="#111111" d="M142.719,15.875c-0.04-0.47-0.44-0.82-0.91-0.79c-0.47,0.04-0.82,0.45-0.79,0.92
	c0.04,0.48,0.44,0.83,0.91,0.79C142.398,16.755,142.749,16.345,142.719,15.875z"/>
<path fill-rule="evenodd" fill="#DE0110" d="M200.929,173.135c-1.07,1.08-4.68,0.69-4.68,0.69s-4.47,9.09-4.24,8.5
	c0.24-0.59-2.8-4.18-3.3-1.37c-0.86,4.74,1.93,4.74,1.93,4.74s2.08,10.24-2.31,13.25c-4.4,3-4.22,3.81-6.18,3.76
	c-2.12-0.06-5.08,0.04-7.89-0.59c-3.25-0.72-6.05-1.85-5.78-2.34c0.47-0.81,8.99-22.7,12.46-27.49c1.15-1.58,13.27-4.81,13.27-4.81
	S204.639,169.405,200.929,173.135z"/>
<path fill-rule="evenodd" fill="#DE0110" d="M138.489,9.255c1.01,1.42,8.61,0.66,8.61,0.66s5.11,10.4,4.84,9.72
	c-0.27-0.67,3.2-4.77,3.78-1.56c0.97,5.42-2.21,5.42-2.21,5.42s-0.23,10.7,5.83,10.26c22.11-1.63,9.21-20.13,5.24-25.6
	c-1.31-1.81-7.82-8-13.62-8.15C145.168-0.135,133.858,2.745,138.489,9.255z"/>
</svg>
