<?xml version="1.0" encoding="utf-8"?>
<!-- Generator: Adobe Illustrator 13.0.0, SVG Export Plug-In  -->
<!DOCTYPE svg PUBLIC "-//W3C//DTD SVG 1.1 Tiny//EN" "http://www.w3.org/Graphics/SVG/1.1/DTD/svg11-tiny.dtd" [
	<!ENTITY ns_flows "http://ns.adobe.com/Flows/1.0/">
]>
<svg version="1.1" baseProfile="tiny"
	 xmlns="http://www.w3.org/2000/svg" xmlns:xlink="http://www.w3.org/1999/xlink" xmlns:a="http://ns.adobe.com/AdobeSVGViewerExtensions/3.0/"
	 x="0px" y="0px" width="234px" height="276px" viewBox="0 0 234 276" xml:space="preserve">
<defs>
</defs>
<polygon fill-rule="evenodd" fill="#FFFFFF" points="151,0 4.64,40.96 0,45 1.25,86.04 2.25,88.84 12.71,103.09 4.21,107.44 
	1,113.11 2.67,183.25 5,189 96,275 104.27,275.24 231.22,204.13 234,199.39 233.47,113.85 233.44,110.33 226.75,104.2 226.75,81.38 
	223.97,76.93 156.76,1.86 "/>
<path fill-rule="evenodd" stroke="#000000" stroke-linecap="round" stroke-linejoin="round" d="M28.83,106.33
	c-1,0.5-11.51,6.73-11.51,6.73s-2.47,2.4-1.97,5.9c0.26,1.81-0.41,10.8-0.21,26.79c0.02,1.39,1.81,4.1,1.81,4.1l-1.38,1.7
	c0,0,0.3,22.25,0.58,25.27c0.21,2.32,1.88,3.62,1.88,3.62l19.89,19.91l3.77,0.66l1.27,4.18l23.08,22.2l3.27,0.19l2.26,5.13
	l25.7,23.92c0,0,3,4.5,8,2S141,239,141,239l2-5h4l35-19l2-3h4l29.78-15.82c0,0,3-3,3-7s0.18-27.35,0.18-27.35l-2.93-2.46l1.7-5.6
	l-0.03-35.16l-3.67-4.99C216.03,113.62,29.83,105.83,28.83,106.33z"/>
<path fill-rule="evenodd" fill="#CA0638" stroke="#8C0426" stroke-linecap="round" stroke-linejoin="round" d="M104.31,188.57
	c-0.12-2.83,0.19-5.52,3.59-7.33l23.21-12.2c3.45-1.84,6.57-1.29,6.7,1.56l0.18,22.29c0.13,2.87-2.01,5.88-5.48,7.7l-23.34,12.03
	c-3.42,1.79-4.75-0.31-4.86-3.16V188.57z"/>
<path fill-rule="evenodd" fill="#FFEC00" d="M104.72,226.09c-0.11-2.87,2.03-5.79,5.48-7.47L132.75,207
	c3.24-1.58,5.27-0.12,5.45,2.6l0.2,21.92c0.18,2.81-1.8,5.72-5.09,7.46l-22.82,12c-3.52,1.85-5.87,1.15-5.99-1.82L104.72,226.09z"/>
<path fill-rule="evenodd" fill="#F2912D" d="M144.35,166.14c-0.18-2.89,0.53-4.68,3.96-6.39l23.66-11.77
	c3.27-1.63,5.97,0.17,6.15,2.97l-0.09,20.27c0.18,2.81-1.45,5.11-4.72,6.84l-23.32,12.22c-3.43,1.81-5.46,0.34-5.64-2.56V166.14z"/>
<path fill-rule="evenodd" fill="#009663" d="M144.25,204.78c-0.17-2.8,1.88-6.13,5.23-7.79l23.27-11.74
	c3.19-1.58,5.34-0.85,5.52,1.86l0.05,21.06c0.17,2.72-1.75,5.53-4.94,7.21l-21.68,11.73c-3.35,1.76-7,1.13-7.18-1.68L144.25,204.78z
	"/>
<path fill-rule="evenodd" fill="#F2912D" d="M184,148.14c-0.17-2.75,1.04-6.71,4.33-8.34l22.58-10.42c3.14-1.56,5.29,1.54,5.46,4.2
	l-0.1,18.65c0.18,2.67-1.71,5.43-4.85,7.08l-21.37,9.74c-3.29,1.72-5.88-0.2-6.05-2.96V148.14z"/>
<path fill-rule="evenodd" fill="#FFEC00" d="M184.75,184.38c-0.17-2.66-1.03-4.66,3.5-7.61l23-11.77c3.06-1.51,6.58-0.33,6.75,2.25
	l-0.34,20.34c0.17,2.59-1.67,5.26-4.73,6.86l-21.56,11.31c-3.22,1.68-6.33,0.67-6.5-2L184.75,184.38z"/>
<path fill-rule="evenodd" fill="#0060AD" d="M99,190.36c0.13-2.71-1.39-5.9-3.9-8.14l-19.53-15.8c-2.39-2.14-3.94-1.75-3.98,0.97
	L72,189.34c-0.04,2.55,1.41,5.54,3.71,7.68l19.23,15.81c2.4,2.22,4.02,2.04,4.14-0.51L99,190.36z"/>
<path fill-rule="evenodd" fill="#0060AD" d="M99,226.76c0.13-2.58-1.43-5.69-3.98-7.92L76.4,203.57c-2.44-2.14-4.02-1.83-4.06,0.75
	L72,222.57c-0.04,2.44,1.44,5.35,3.79,7.48l19.31,19.32c2.45,2.22,4.1,2.11,4.22-0.32L99,226.76z"/>
<path fill-rule="evenodd" fill="#FFEC00" d="M68.43,164.61c0.01-2.93-1.68-6.32-4.31-8.64l-16.8-15.04
	c-2.52-2.23-4.07-1.75-3.99,1.18l-0.18,21.34c0.07,2.75,1.67,5.93,4.09,8.15l16.5,13.83c2.53,2.32,4.16,2.06,4.17-0.69L68.43,164.61
	z"/>
<path fill-rule="evenodd" fill="#009663" d="M68.68,200.4c0.01-2.58-1.61-5.63-4.14-7.78l-16.69-14.29
	c-2.42-2.05-3.92-1.71-3.85,0.88l0.7,18.47c0.07,2.43,1.6,5.3,3.94,7.36l15.91,15.28c2.44,2.15,4.01,1.98,4.03-0.45L68.68,200.4z"/>
<path fill-rule="evenodd" fill="#CA0638" d="M39.25,139.81c-0.1-2.79-2.74-5.97-5.19-8.12L21.4,120.84
	c-2.34-2.06-3.73-1.57-3.54,1.21l0.54,22.13c0.17,2.62,1.5,3.47,3.76,5.53l13.1,11.86c2.37,2.15,3.83,1.86,3.74-0.76L39.25,139.81z"
	/>
<path fill-rule="evenodd" fill="#F2912D" d="M40.38,175.7c-0.08-2.44-1.59-5.28-3.85-7.25L22,155.8c-2.16-1.89-3.45-1.52-3.29,0.91
	l0.49,16.46c0.15,2.3-0.07,3.68,2.02,5.57l15.7,15.05c2.19,1.97,3.55,1.78,3.47-0.53L40.38,175.7z"/>
<path fill-rule="evenodd" stroke="#000000" stroke-linecap="round" stroke-linejoin="round" d="M13,56l0.5,29.72
	c0,0,31.06,51.27,31.1,50.89c0.04-0.38,3.34,2.16,3.34,2.16l-0.29,2.91l16.38,27.27c0,0,2.36,8.24,13.33,5.58
	c12.97-3.14,122.82-37.28,130.25-39.86c7.43-2.57,7.43-1.71,7.49-9.16c0.04-4.8-0.08-30.56-0.08-30.56s1.43-3.43-2-7.72
	c-0.45-0.56-7.41-9.11-17.65-21.29c-0.66-0.79-2.62-0.97-3.3-1.78c-0.77-0.92-0.27-2.47-1.06-3.41
	c-5.86-6.97-13.4-15.67-18.95-22.28c-0.67-0.79-2.43-1.2-3.08-1.97c-0.71-0.84-0.29-2.04-0.97-2.85L154,17c0,0-4.96-3.95-9-2
	c-1.33,0.64-15.54,4.55-34.02,9.49c-1.02,0.28-1.09,1.84-2.14,2.12c-1.48,0.39-3.94-0.49-5.47-0.08
	c-12.24,3.26-25.71,6.82-38.26,10.12c-1.14,0.3-1.07,1.84-2.2,2.14c-1.2,0.31-3.59-0.61-4.77-0.3C35.83,44.35,18,49,18,49
	S13.8,51.16,13,56z"/>
<path fill-rule="evenodd" fill="#F2912D" d="M51,115c0.8,1.23,13.21,21.34,13.21,21.34s1.18,1.29,1.29,4.18
	c0.08,2.35,0.22,22.3,0.22,22.3s0.21,4.7-2.57-0.75c-0.35-0.68-12.16-20.75-12.16-20.75s-1.08-0.67-1-3
	c0.08-2.33,0.21-22.41,0.21-22.41S50.2,113.77,51,115z"/>
<path fill-rule="evenodd" fill="#02885B" d="M45.22,106.95c0,0,1.66,1.6,1.66,4.07c0,2.46-0.26,21.69-0.26,21.69
	s-0.11,2.46-0.86,1.81c-0.75-0.64-10.92-21.38-10.92-21.38s-1.26,0.25-1-4c0.26-4.25,0.27-16.5,0.27-19.17
	c0-2.68,1.04-0.46,1.04-0.46L45.22,106.95z"/>
<path fill-rule="evenodd" fill="#F2912D" d="M29,106.25c0,0,1.28,1.82,1.39-0.32c0.11-2.14-0.73-25.63-0.73-23.38
	c0,2.18-1.39-3.75-1.39-3.75L16.74,59.48c0,0-1.11-1-1,1c0.11,1.99,0.08,21.78,0.08,21.78s-0.1,3.02,0.31,3.73
	C17.22,87.85,29,106.25,29,106.25z"/>
<path fill-rule="evenodd" fill="#FFEC00" d="M55.53,110.41c-0.03-3.01,0.74-5.25,4.63-6.47L89.57,95c3.85-1.21,4.51-0.19,6.68,2.81
	l11,15.35c1.17,3.16,2.77,5.01-3.91,7.85L72.9,129.5c-4.09,1.3-5.45-0.18-6.77-3.26L55.53,110.41z"/>
<path fill-rule="evenodd" fill="#FFEC00" d="M37.02,81.68c-0.03-3.01,0.74-5.25,4.62-6.48l28.7-7.86c3.86-1.22,4.51-0.2,6.68,2.81
	l10.53,14.77c0.23,3.2,0.34,4.2-3.73,5.5l-30.1,9.03c-2.93,0.6-5.46-0.17-6.78-3.25L37.02,81.68z"/>
<path fill-rule="evenodd" fill="#FFFFFF" d="M21.7,56.27c-1.65-4.15,0.74-5.25,4.62-6.47l27.22-6.41c3.29-0.9,4.06-0.58,6.23,2.42
	l7.6,10.83c0.24,3.2,2.37,5.28-1.7,6.58l-29.38,8.35c-2.92,0.6-5.45-0.17-6.77-3.25L21.7,56.27z"/>
<path fill-rule="evenodd" fill="#CA0638" d="M211.3,124.12c0.03,3.01-0.93,5.68-4.81,6.9l-29.46,8.94c-3.86,1.22-6.39-0.06-6.6-2.99
	l-0.17-22.15c-0.24-3.19,2.22-6.09,6.29-7.38l27.98-8.58c4.1-1.3,6.74-0.02,6.77,3.25V124.12z"/>
<path fill-rule="evenodd" fill="#FFEC00" d="M105.91,94.91c-0.02-3.01,0.43-4.58,4.32-5.8l27.42-6.95c3.85-1.22,4.3-0.23,6.68,2.81
	l11.21,14.45c0.89,2.87,2.38,4.77-1.69,6.07l-26.93,8.61c-4.1,1.31-6.58,1.1-9.08-2.11L105.91,94.91z"/>
<path fill-rule="evenodd" fill="#0061AD" d="M86.83,68.17c-1.83-3,1.42-4.84,5.3-6.06l26.35-6.51c3.86-1.22,5.13,0.63,7.5,3.67
	l8.94,12.12c1.83,3.17,1.17,4.18-2.9,5.48l-26.75,7.41c-4.1,1.3-6.58,1.1-9.08-2.11L86.83,68.17z"/>
<path fill-rule="evenodd" fill="#0061AD" d="M68.7,43.71c-1.83-3,1.41-4.84,5.29-6.06l27.02-6.89c3.86-1.22,5.13,0.63,7.5,3.67
	l7.39,10.53c1.84,3.17,1.38,4.74-2.69,6.03l-26.99,6.34c-4.1,1.31-6.59,1.1-9.08-2.11L68.7,43.71z"/>
<path fill-rule="evenodd" fill="#F2912D" d="M163.17,140.11c0.03,3.01-2.44,5.7-6.32,6.92l-26.73,7.34
	c-3.86,1.22-7.93,0.13-8.14-2.8l-0.15-22.75c-0.23-3.19,2.22-6.09,6.29-7.38l28.06-8.94c4.09-1.3,6.74-0.02,6.77,3.25L163.17,140.11
	z"/>
<path fill-rule="evenodd" fill="#009361" d="M151.93,81.63c-0.03-3.1,0.42-2.64,4.29-3.94l28.7-8.47c3.83-1.29,4.09-1.44,7.76,2.22
	l12.39,13.7c2.2,3.66,1.56,4.7-2.25,6l-31.27,10.19c-3.84,1.31-5.01-0.14-6.99-3.19L151.93,81.63z"/>
<path fill-rule="evenodd" fill="#FFFFFF" d="M133.31,54.31c-0.03-3.09,0.41-2.64,4.28-3.94l25.99-7.59
	c3.83-1.29,4.42-0.61,8.09,3.05l9.65,11.38c2.19,3.66,2.88,5.18-0.93,6.48l-29.92,8.73c-3.84,1.31-4.37,0.19-6.34-2.87L133.31,54.31
	z"/>
<path fill-rule="evenodd" fill="#CA0638" d="M115.56,29.45c-0.03-3.1,0.42-2.64,4.28-3.94l23.47-6.52c3.83-1.3,4.49-1.5,8.16,2.16
	l10.19,11.25c3.23,4.19,0.48,5.03-3.33,6.33l-26.05,7c-3.83,1.31-4.5,0.64-6.47-2.42L115.56,29.45z"/>
<path fill-rule="evenodd" fill="#0061AD" d="M114.29,154.07c0.03,3.09-2.43,5.9-6.29,7.2l-29.59,8.11c-3.84,1.29-6.29,0.13-6.3-2.95
	l-0.02-23.82c0-3.05,2.44-5.83,6.25-7.13l29.4-8.15c3.84-1.31,6.31-0.19,6.34,2.86L114.29,154.07z"/>
</svg>
