<?xml version="1.0" encoding="utf-8"?>
<!-- Generator: Adobe Illustrator 13.0.0, SVG Export Plug-In  -->
<!DOCTYPE svg PUBLIC "-//W3C//DTD SVG 1.1 Tiny//EN" "http://www.w3.org/Graphics/SVG/1.1/DTD/svg11-tiny.dtd" [
	<!ENTITY ns_flows "http://ns.adobe.com/Flows/1.0/">
]>
<svg version="1.1" baseProfile="tiny"
	 xmlns="http://www.w3.org/2000/svg" xmlns:xlink="http://www.w3.org/1999/xlink" xmlns:a="http://ns.adobe.com/AdobeSVGViewerExtensions/3.0/"
	 x="0px" y="0px" width="425px" height="254px" viewBox="-0.999 -1 425 254" xml:space="preserve">
<defs>
</defs>
<path fill-rule="evenodd" fill="#63295C" d="M168.26,10.03c10.75-10.91,16.84-12.41,28.32-6.96c0,0,103.2,34.31,109.96,36.53
	c7.23,2.38-10.49,36.04-10.49,36.04s35.69-26.24,38.98-25.35c3.28,0.89,80.8,25.62,80.8,25.62c9.78,4.64,9.6,8.57-0.8,18.35
	l-79.89,81.24l-21.55,3.46c0,0,6.56,10.28,3.43,13.81c-3.12,3.54-50.9,50.47-50.9,50.47c-9.81,9.22-15.19,10.65-25.2,6.67
	c0,0-104.83-50.72-106.74-51.78c-1.92-1.06-1.41-14.95-1.41-14.95s-22.76,11.87-26.22,10.06c-29.54-18.05-96.78-54.46-96.78-54.46
	c-11.69-4.65-13.52-10.54-2.05-18.95L168.26,10.03z"/>
<path fill-rule="evenodd" fill="#FFE7D0" d="M169.991,23.166c9.92-10,16.72-11.68,27.29-6.72l188.97,65.72
	c8.99,4.28,8.79,8.74-0.76,17.74l-125.33,116.72c-9.01,8.49-15.13,10.1-24.34,6.44l-190.34-89.4c-10.69-4.31-10.46-9.69-1.96-18.33
	L169.991,23.166z"/>
<path fill-rule="evenodd" fill="none" stroke="#63295C" stroke-width="5" stroke-linecap="round" stroke-linejoin="round" stroke-dasharray="1,10" d="
	M223.635,95.42c0,0-100.34-33.97-196.66,15.97"/>
<path fill-rule="evenodd" fill="none" stroke="#63295C" stroke-width="5" stroke-linecap="round" stroke-linejoin="round" stroke-dasharray="1,10" d="
	M169.149,153.261c0,0,77.73,35.9,117.44,56.17"/>
<path fill-rule="evenodd" fill="none" stroke="#63295C" stroke-width="5" stroke-linecap="round" stroke-linejoin="round" stroke-dasharray="1,10" d="
	M360.061,65.78c0,0-7.89,25.8-73.18,43.71"/>
<polygon fill-rule="evenodd" fill="#63295C" points="222.444,86.14 230.094,96.36 218.774,102.94 "/>
<polygon fill-rule="evenodd" fill="#63295C" points="177.841,147.447 165.041,149.827 168.251,162.647 "/>
<polygon fill-rule="evenodd" fill="#63295C" points="286.271,101.05 276.041,107.8 284.01,118.991 "/>
<polygon fill-rule="evenodd" fill="#63295C" points="158.469,121.222 148.164,128.55 140.734,117.78 "/>
<path fill-rule="evenodd" fill="none" stroke="#63295C" stroke-width="5" stroke-linecap="round" stroke-linejoin="round" stroke-dasharray="1,10" d="
	M200.167,17.76c-10.14,26.19-17.317,68.933,21.943,58.09c33.105-9.143-27.12-65.72-76.13,51.68"/>
<path fill-rule="evenodd" fill="#63295C" d="M131.436,137.019l3.06,3.37l-8.02,1.87c0,0-1.44,0.62-0.77,1.49s5.35,4.87,5.35,4.87
	l8.4-1.87l4.96,4.86c0,0,0.22,0.87,1.53,0.37c1.31-0.49,7.33-2.38,7.26-2.62c-0.07-0.23-3.82-4.86-3.82-4.86l6.49-1.49
	c0,0,1.37-1.55,0.76-1.88c-0.6-0.32-4.96-4.49-4.96-4.49s-1.6-0.41-1.91,0c-0.31,0.42-6.3,1.94-6.49,1.88
	c-0.19-0.07-4.2-4.12-4.2-4.12l-7.26,1.12C131.816,135.519,130.866,136.929,131.436,137.019z"/>
<path fill-rule="evenodd" fill="#63295C" d="M242.601,97.11l3.06,3.37l-8.02,1.87c0,0-1.43,0.63-0.76,1.5
	c0.66,0.87,5.34,4.86,5.34,4.86l8.4-1.87l4.97,4.86c0,0,0.21,0.88,1.52,0.38s7.33-2.38,7.26-2.62c-0.07-0.24-3.82-4.86-3.82-4.86
	l6.49-1.5c0,0,1.37-1.54,0.77-1.87c-0.61-0.33-4.97-4.49-4.97-4.49s-1.59-0.42-1.91,0c-0.31,0.42-6.3,1.94-6.49,1.87
	c-0.19-0.07-4.2-4.12-4.2-4.12l-7.25,1.13C242.991,95.621,242.031,97.03,242.601,97.11z"/>
</svg>
