<?xml version="1.0" encoding="utf-8"?>
<!-- Generator: Adobe Illustrator 13.0.0, SVG Export Plug-In  -->
<!DOCTYPE svg PUBLIC "-//W3C//DTD SVG 1.1 Tiny//EN" "http://www.w3.org/Graphics/SVG/1.1/DTD/svg11-tiny.dtd" [
	<!ENTITY ns_flows "http://ns.adobe.com/Flows/1.0/">
]>
<svg version="1.1" baseProfile="tiny"
	 xmlns="http://www.w3.org/2000/svg" xmlns:xlink="http://www.w3.org/1999/xlink" xmlns:a="http://ns.adobe.com/AdobeSVGViewerExtensions/3.0/"
	 x="0px" y="0px" width="300px" height="259px" viewBox="-0.998 0 300 259" xml:space="preserve">
<defs>
</defs>
<path fill-rule="evenodd" fill="#63295C" d="M21.002,136c0-75.11,60.89-136,136-136s136,60.89,136,136
	c0,44.18-21.06,83.44-53.7,108.28c-45.22-0.42-133.83-0.72-164.21,0.3C42.232,219.75,21.002,180.35,21.002,136z"/>
<path fill-rule="evenodd" fill="#FFFFFF" stroke="#ECE8F0" stroke-width="4" stroke-linecap="round" stroke-linejoin="round" d="
	M35.972,136c0-67.53,54.75-122.28,122.28-122.28S280.522,68.47,280.522,136c0,48.67-28.43,90.7-69.6,110.38
	c-37.92-0.99-70.61-1.3-106.8-0.7C63.742,225.71,35.972,184.1,35.972,136z"/>
<path fill-rule="evenodd" fill="#ECE8F0" d="M230.332,95.58c-1.49-2.87-5.01-4.01-7.84-2.55l-66.07,35.62
	c-2.83,1.45-2.3,7.77-2.3,7.77c1.55,2.82,5.09,3.94,7.91,2.48l65.88-35.49C230.742,101.95,231.822,98.45,230.332,95.58z"/>
<path fill-rule="evenodd" fill="#AAAAAA" d="M144.712,130.05c0-11.57,9.36-20.95,20.9-20.95c11.53,0,20.89,9.38,20.89,20.95
	c0,11.57-9.36,20.95-20.89,20.95C154.072,151,144.712,141.62,144.712,130.05z"/>
<path fill-rule="evenodd" fill="#AAAAAA" d="M119.952,53.81c2.81-1.63,6.41-0.73,8.04,2.02l43.65,73.77
	c1.63,2.75,0.66,6.3-2.16,7.93c-2.82,1.64-6.42,0.74-8.04-2.01l-43.65-73.77C116.162,59,117.132,55.45,119.952,53.81z"/>
<path fill-rule="evenodd" fill="#444444" d="M103.902,127.48c1.79-2.17,3.77-2.69,6-1.54l23.33,12.45c2.75,1.41,2.99,3.27,0.72,5.58
	l-32.17,33.27c-1.74,1.77-3.62,1.86-5.66,0.29l-18.03-13.86c-1.71-1.31-1.85-2.79-0.43-4.5L103.902,127.48z"/>
<path fill-rule="evenodd" fill="#EEEEEE" d="M104.852,130.15c1.43-1.71,3.06-2.07,4.93-1.07l19.81,10.55
	c2.24,1.19,2.48,2.68,0.74,4.48l-28.57,29.5c-1.4,1.44-2.95,1.5-4.69,0.2l-15.56-11.66c-1.49-1.12-1.65-2.35-0.48-3.74
	L104.852,130.15z"/>
<path fill-rule="evenodd" fill="#FCBC7C" d="M231.912,249.07c0,0,20.26-0.46,28.46-0.62c1.26,0.43,1.23-16.24-0.14-16.34
	c-13.53-0.97-30.38,0.59-30.38,0.59L231.912,249.07z"/>
<path fill-rule="evenodd" fill="#FF0151" d="M59.772,216.29c6.96,0,174.08,15.61,174.08,15.61l1.16,16.88
	c0,0-188.46,8.15-188.46,6.99C46.552,254.6,52.822,216.29,59.772,216.29z"/>
<path fill-rule="evenodd" fill="none" stroke="#C50141" stroke-width="2" stroke-linecap="square" stroke-linejoin="round" d="
	M63.302,257.07c8.6,1.36,34.55-11.68,45.66-36.13"/>
<path fill-rule="evenodd" fill="#FCBC7C" d="M56.402,172.53c0,0,23.46-5.24,23.77-6.11s2.32-7.86,2.32-7.86s2.36-2.2,3.48-2.91
	c1.11-0.7,5.76,0.2,2.28,3.68c-3.69,3.7-0.83,12.91-0.83,12.91s-36.92,20.2-36.83,20.64C50.672,193.31,56.402,172.53,56.402,172.53z
	"/>
<path fill-rule="evenodd" fill="#FCBC7C" d="M22.782,235.4c0,2.91,4.63,10.47,4.63,10.47s20.1-33.56,19.14-33.76
	c-0.97-0.19-8.7-8.73-10.44-8.73c-1.74,0-12.75,23.28-12.75,23.28S22.782,232.48,22.782,235.4z"/>
<path fill-rule="evenodd" fill="#FCBC7C" d="M10.022,117.82c0.27-0.02,17.63-22.93,19.13-22.7s17.97,13.85,18.37,12.93
	c0.41-0.91,14.1,25.49,14.1,25.49s-1.13,6.94-3.78,7.19c-2.65,0.25-15.41,1.12-15.35-0.21c0.05-1.33-5.18-19.43-5.8-20.95
	c-0.62-1.53-9.3-8.39-10.44-8.15c-1.13,0.24-17.07,10.21-16.81,9.89C9.702,120.99,9.752,117.84,10.022,117.82z"/>
<path fill-rule="evenodd" fill="#111111" d="M25.242,243.54l9.86,9.39c0,0,19.6-30.68,12.61-37.91c-1.9-1.96-6.47-1.23-6.47-1.23
	S37.272,233.52,25.242,243.54z"/>
<path fill-rule="evenodd" fill="#00E0D5" d="M181.942,230.42c-7.31,1.4-3.3,5.59-17.71,3.23c-0.75,6.2-0.58,18.04-0.58,18.04
	s60.72,6.02,61.46-0.58c0.61-5.5-7-12.07-10.72-12c-5.4,0.1-10.03,0.39-13.24-0.44C199.892,238.35,187.532,236.18,181.942,230.42z"
	/>
<path fill-rule="evenodd" fill="#00E0D5" d="M259.012,231.98c-1.62,7.26,3.82,5.22-4.05,17.52c5.39,3.12,16.33,7.6,16.33,7.6
	s29.56-52.22,23.79-55.48c-4.8-2.72-12.68,2.28-14.09,5.72c-2.05,5-4.78,7.62-6.81,10.24
	C273.392,218.6,266.512,229.1,259.012,231.98z"/>
<path fill-rule="evenodd" fill="none" stroke="#000000" stroke-width="3" stroke-linecap="square" stroke-linejoin="round" d="
	M163.922,253.14c0,0,49.61,5.53,60.62,0.29"/>
<path fill-rule="evenodd" fill="none" stroke="#000000" stroke-width="3" stroke-linecap="square" stroke-linejoin="round" d="
	M272.722,256.83c0,0,24.72-41.62,24.27-53.78"/>
<path fill-rule="evenodd" fill="#FCBC7C" d="M153.222,212.11c0,0,10.43,13.39,11.01,22.12c0.03,0.4,0,0.51,0.03,0.54
	c0.08,0.07,0.53-0.31,2.92,1.51c3.43,2.61,14.88-3.65,14.45-4.96c-4.3-12.93-12.18-27.94-12.18-27.94L153.222,212.11z"/>
<path fill-rule="evenodd" fill="#00E0D5" d="M24.522,239.85c-1.38-2.87-43.16-81.4-14.5-120.28c21.45-29.11,36.53,15.13,36.53,15.13
	s9.95,6.55,14.75-2.12c1.92,4.06,11.92,20.57,2.64,32.39c-9.29,11.81-10.21,24.32-11.6,25.03c-1.38,0.7-12.72,24.58-12.57,22.02
	C39.912,209.46,25.902,242.73,24.522,239.85z"/>
<path fill-rule="evenodd" fill="#FF007F" d="M98.142,114.33c-6.26-34.59,12.18-36.67,9.86-61.7c-3.48-12.8-19.52-35.7-51.99-28.13
	c-30.61,7.13-32.65,33.37-36.13,39.77c-6.1,11.22-11.6,27.94-11.6,27.94s41.16,25.61,40.58,22.7c-0.58-2.91,1.74-45.98,1.74-45.98
	s10.44,1.16,12.76,1.74c7.31,1.84,31.3-5.23,31.3-5.23l-0.58,2.32c0,0-53.33,18.63-32.46,37.26
	C81.332,118.98,91.192,117.24,98.142,114.33z"/>
<path fill-rule="evenodd" fill="#FCBC7C" d="M32.052,119.57c-1.34-2.18-11.23-5.59-14.93-0.97c-3.7,4.62-5.32,8.84-6.27,13.34
	c-0.95,4.5,8.35,36.11,8.63,35.85c0.28-0.26,13.04,38.63,15.02,42.44c1.99,3.82,10.06,5.82,14.94,4.21
	c4.89-1.61,48.12-37.83,48.12-37.83s-0.66-0.8-0.58-2.48c0.09-1.68-1.74-4.65,3.19-12.22c5.04-7.74-2.32-4.66-2.32-4.66l-10.8,15.52
	c0,0-37.64,18.54-38.77,20.14c-1.12,1.59-8.23-54.16-8.69-58.79S33.402,121.75,32.052,119.57z"/>
<polygon fill-rule="evenodd" fill="#FCAB5A" points="53.702,187.56 52.462,190.06 86.842,172.82 "/>
<path fill-rule="evenodd" fill="#FF0151" d="M47.132,214.44c14.49-6.4,73.09-65.27,91.6-70.43c10.43-2.91,31.04,60.1,31.04,60.1
	s-15.31,9.91-15.95,9.01c-2.99-4.2-24.37-13.81-20.31-41.75c-16.24,44.82-44.09,95.01-88.12,86.72c-6.56-1.23-13.01-6.04-14.21-8.73
	C33.522,244.51,47.272,228.56,47.132,214.44z"/>
<path fill-rule="evenodd" fill="#FCBC7C" d="M91.092,87.32c-2.11,1.81-1.63,11.58-3.25,15.83c-0.81,2.12-5.53-2.12-5.53-2.12
	s-13.47,17.49-20.43,9.92c-3.58-3.9-3.86-4.98-6.05-13.68c-0.39-1.52-6.84,11.2-6.89,9.23c-0.26-8.58,0.71-33.63,0.71-35
	c0-3.5,3.58-11.43,3.58-11.43s7.82-2.81,6.5,7.84c-0.17,1.3,26.5-3.42,27.66-3.52c12.2-1.1,12.52,5.75,12.52,5.75
	S97.752,81.61,91.092,87.32z"/>
<path fill-rule="evenodd" fill="#444444" d="M135.252,142.85l-1.74,3.49c0,0-3.79,1.95-4.06,1.75
	C129.172,147.89,135.252,142.85,135.252,142.85z"/>
</svg>
