<?xml version="1.0" encoding="utf-8"?>
<!-- Generator: Adobe Illustrator 13.0.0, SVG Export Plug-In  -->
<!DOCTYPE svg PUBLIC "-//W3C//DTD SVG 1.1 Tiny//EN" "http://www.w3.org/Graphics/SVG/1.1/DTD/svg11-tiny.dtd" [
	<!ENTITY ns_flows "http://ns.adobe.com/Flows/1.0/">
]>
<svg version="1.1" baseProfile="tiny"
	 xmlns="http://www.w3.org/2000/svg" xmlns:xlink="http://www.w3.org/1999/xlink" xmlns:a="http://ns.adobe.com/AdobeSVGViewerExtensions/3.0/"
	 x="0px" y="0px" width="71px" height="19px" viewBox="0 -0.002 71 19" xml:space="preserve">
<defs>
</defs>
<path fill="#D5D0CC" d="M70.44,8.158l-7.48-7.58c-0.77-0.77-2-0.77-2.76,0c-0.76,0.77-0.76,2.02,0,2.8l4.02,4.08H1.96
	C0.88,7.458,0,8.348,0,9.438c0,1.1,0.88,1.99,1.96,1.99h62.57l-4.13,4.18c-0.76,0.78-0.76,2.03,0,2.81
	c0.35,0.36,0.83,0.57,1.34,0.58c0.5-0.01,0.98-0.22,1.34-0.58l7.29-7.4c0.79-0.74,0.84-2,0.11-2.81L70.44,8.158z"/>
</svg>
