<?xml version="1.0" encoding="utf-8"?>
<!-- Generator: Adobe Illustrator 13.0.0, SVG Export Plug-In  -->
<!DOCTYPE svg PUBLIC "-//W3C//DTD SVG 1.1 Tiny//EN" "http://www.w3.org/Graphics/SVG/1.1/DTD/svg11-tiny.dtd" [
	<!ENTITY ns_flows "http://ns.adobe.com/Flows/1.0/">
]>
<svg version="1.1" baseProfile="tiny"
	 xmlns="http://www.w3.org/2000/svg" xmlns:xlink="http://www.w3.org/1999/xlink" xmlns:a="http://ns.adobe.com/AdobeSVGViewerExtensions/3.0/"
	 x="0px" y="0px" width="71px" height="19px" viewBox="0 0 71 19" xml:space="preserve">
<defs>
</defs>
<path fill="#D5D0CC" d="M0.516,8.207c-0.729,0.81-0.68,2.069,0.11,2.81l7.29,7.4c0.359,0.359,0.84,0.57,1.34,0.58
	c0.51-0.01,0.99-0.221,1.34-0.58c0.76-0.779,0.76-2.029,0-2.811l-4.129-4.18h62.57c1.08,0,1.96-0.89,1.96-1.99
	c0-1.09-0.88-1.98-1.96-1.98H6.776l4.021-4.08c0.761-0.78,0.761-2.03,0-2.8c-0.76-0.77-1.989-0.77-2.76,0l-7.479,7.58L0.516,8.207z"
	/>
</svg>
