<?xml version="1.0" standalone="no"?>
<!DOCTYPE svg PUBLIC "-//W3C//DTD SVG 1.1//EN" "http://www.w3.org/Graphics/SVG/1.1/DTD/svg11.dtd" >
<svg>
<metadata>
Created by FontForge 20090622 at Tue Feb 20 16:40:20 2018
 By deploy user
Copyright (c) 2016 by Artimasa. All rights reserved.
</metadata>
<defs>
<font id="Playlist-Script" horiz-adv-x="436" >
  <font-face 
    font-family="Playlist"
    font-weight="400"
    font-stretch="normal"
    units-per-em="1000"
    panose-1="0 0 0 0 0 0 0 0 0 0"
    ascent="800"
    descent="-200"
    x-height="319"
    cap-height="730"
    bbox="-272 -469.522 919.286 1020.13"
    underline-thickness="50"
    underline-position="-50"
    unicode-range="U+0020-U+20AC"
  />
<missing-glyph horiz-adv-x="280" 
 />
    <glyph glyph-name="t_t" unicode="tt" horiz-adv-x="547" 
d="M392 263q-25 -66 -79 -244q-26 -92 -26 -123q0 -21 7 -28q17 4 46 35q-2 -2 -9.5 -8t-8.5 -5q0 3 4.5 8.5t10.5 11.5l7 7l27 33l50 65l109 151l46 63q1 1 5 6.5t6 6.5q12 5 15 -6.5t-1 -21.5q-3 -8 -36 -52q-4 -6 -10.5 -18.5t-10.5 -18.5q-18 -29 -80 -122
q-75 -107 -91 -128q-1 -2 -9.5 -13.5l-12 -16.5t-12 -15t-14.5 -15.5t-14 -11.5t-15 -9q-28 -11 -59 14q-22 16 -32 45q-7 34 -4 37l1 -18v23v17q0 7 2 19q3 18 11 54q11 44 25 115q-68 -110 -108 -160q-2 -2 -7 -8.5t-8.5 -10t-8.5 -9t-10 -9t-10 -5.5q-19 -8 -43 4t-38 30
q-17 23 -11 60q1 3 1.5 16.5t2 25.5t4.5 15q0 -5 -1 -8l2 11v14q0 7 4 21q3 17 13 51q18 60 25 91q6 31 28 91l7 18q7 19 14 35.5t10 16.5v-3q-1 -3 -2 -7v-3l18 48l-7 -11q0 5 2.5 11.5t7 14t5.5 10.5l14 36q-6 0 -19 -3t-20 -4q-14 -1 -39.5 -1h-39.5q-1 0 -16.5 -0.5
t-31 -0.5t-32.5 0.5t-28 3t-11 7.5q-1 5 53 16q45 11 147 13q4 0 20 -1t20 1q4 1 6 0q1 0 2 2l4 6l5 13q12 32 27 60q56 120 60 128q4 7 9 14t11.5 14.5t9.5 11.5q5 8 13 25.5t13 25.5q24 38 31 45q20 21 62 19q49 0 50 -26q0 -5 -2.5 -9t-8.5 -9t-7 -6q6 4 6 3
q0 -5 -19 -32t-22 -26l3 6q4 6 8 13t4 8q-60 -90 -116 -207q54 111 63 116q-4 -3 -25 -45.5l-43.5 -89.5l-24.5 -51q36 0 108 2q18 0 21 2t10 19l21 47q20 37 26 45q1 2 7 8t8 11q15 36 31 60q24 39 37 45q17 9 42.5 10t42.5 -8q6 -4 9 -8t4 -7t-1.5 -8t-4 -7t-6.5 -8t-6 -7
q3 3 5 4.5t2 0.5q0 -4 -20 -33t-22 -28l3 6q3 7 7 14l5 8q-36 -54 -89 -160q2 0 7 6l-2 -6l96 4q12 0 17 1v1q-1 4 2 3q9 0 10 -5q5 -18 -19.5 -26.5t-44.5 -8.5q-5 0 -21 2t-22 1q-2 0 -3 -1.5t-2 -2.5t-3 -2q-3 -1 -11.5 -1t-11.5 -2q-6 -2 -12 -11.5t-12 -24.5t-7 -18
q-18 -40 -26 -60q-32 -73 -49 -120zM299 263l7 23l-6 -11q0 10 10 32.5t11 25.5q12 36 19 54q13 37 43 107q-41 2 -65 -4q-9 -2 -40 -2h-20q-1 0 -4 -1q-5 -1 -6.5 -3t-4.5 -9v-1q-41 -89 -71 -171l-58 -168q-17 -49 -26 -88q-14 -58 -9 -65q2 -9 8 -11q-1 1 -1.5 4t-1.5 4
q13 -1 32 20q22 25 65 87l63.5 94.5zM106 183q-17 -56 -26 -100q13 54 50 151l82 209q85 198 111 247q-21 -39 -41.5 -84l-46 -101l-38.5 -84q-55 -120 -91 -238zM353 255q-19 -57 -36 -114q16 53 42 114q16 40 36 101q-2 -4 -18.5 -42.5t-23.5 -58.5zM491 497
q-11 0 -43 -89v1l1 1l2 5v-1l2 5q24 52 38 78zM74 60q0 -2 -2.5 -11.5t-3.5 -15t-3 -15.5t-2 -17.5t0.5 -15t3 -13t7.5 -8.5q-4 3 -6 7.5t-3 8.5t-1 11t0.5 11l1.5 11.5t1 8.5q1 4 1 8zM424 352q-17 -38 -37 -91l24 58v2q1 0 1 1zM543 599q-3 0 -19 -35q2 4 4.5 10.5t4 10
t3.5 7.5t4 5.5t3 1.5zM286 575l6 13zM278 558l8 17zM453 419q-1 0 -1 -1zM524 563q-1 -1 -1 -3q0 2 1 3zM521 557q0 1 2 3q-2 -2 -2 -3zM452 418q-1 -1 -1 -3z" />
    <glyph glyph-name="l_l" unicode="ll" horiz-adv-x="677" 
d="M739 261q20 -14 -22 -86q-7 -13 -18 -37t-16 -34q-45 -89 -112 -197q-6 -9 -23 -36.5t-27 -42l-26 -36t-32.5 -37t-33.5 -27.5q-24 -15 -48 -12q-38 5 -57.5 37t-23.5 75q-2 17 -2 35.5t1 32t4 36t4.5 32t6.5 35t6 32.5v4v7l1 3q-87 -131 -149 -186q-55 -49 -101 -31
q-75 28 -65 176q4 65 41 208q0 26 5 33q0 -1 -0.5 -4t-1 -6.5t-0.5 -6.5q5 19 7 25h-2q-1 9 1.5 20t8.5 28.5t7 19.5q11 38 27 79q5 16 21.5 60t24.5 68q13 44 53 128q31 60 37 69l7 15q8 14 15 25t9 11q-1 -1 -1.5 -3t-2.5 -6t-3 -7l-1 -3q11 22 33 57q0 1 1 1v1q3 3 7 9
l2 4q2 4 6 10.5l7 11t6 8.5q29 37 47 49q22 12 44 4.5t36 -27.5q6 -8 10 -18t6.5 -18t2 -20t-0.5 -19t-3.5 -20.5l-5 -19.5t-7 -20.5t-6.5 -18t-7.5 -19.5t-7.5 -17q-20 -51 -57 -118q-29 -51 -35 -58q-2 -3 -5.5 -6.5l-6 -6t-5 -6t-4.5 -7.5q-36 -71 -116 -191l-20.5 -27
t-23.5 -34t-13 -31q-9 -29 -19 -68l-8 -30l-4 -9v1q-3 -8 -5 -24q4 17 7 17q1 0 -3.5 -21t-8.5 -51.5t-6 -61t4.5 -53t22.5 -24.5q6 -1 12.5 1t13 6.5l11.5 8t12.5 11.5t10 11l10 11.5t7.5 9.5q42 50 94 130q39 59 45 71q5 10 9 22.5t8 27.5t7 23l45 144q14 51 53 141
l9 20.5l11 24.5l10 21q1 1 7.5 15.5t13 26.5t8.5 12l-7 -20l11 22.5l13 26.5l12 23q-1 -1 -2.5 -3.5t-2.5 -4.5t-2 -3.5t-2 -2.5h-1q-1 0 24.5 44.5l29.5 51.5q39 65 68 86q28 17 56.5 2t38.5 -45q7 -19 8.5 -39t-5.5 -45t-10.5 -39t-18.5 -44l-18 -36t-20 -37
q-7 -12 -25 -34.5t-24 -35.5q-19 -38 -59 -99l-75 -108q-3 -4 -18 -21t-20 -27q-4 -7 -6.5 -16t-5 -20t-4.5 -16q-26 -92 -37 -138q-6 -22 -16 -66l-6 -31q0 -1 -0.5 -3.5t-2 -7t-2.5 -6.5l-1 -3q-4 -21 -5 -36l8 29q3 -8 1.5 -31t-5 -48t2.5 -44t25 -18q14 1 44 34
q30 32 70 97q48 76 117 204q2 3 11 23t19.5 40.5t22.5 41.5t22.5 32.5t16.5 7.5zM183 347v-2l-2 -4q157 256 216 414q-20 -53 -72 -153l-42 -81q-3 -5 -11 -16.5t-14 -21.5t-10 -18q4 11 17.5 32t14.5 24l35 64q38 76 61 128q2 5 8.5 18.5t10 21.5t9.5 23t7 23t4 22.5
t-1 20.5q-6 32 -30 2q-26 -31 -63 -115q-25 -54 -53 -134q-7 -18 -14 -38.5l-15 -45.5t-13 -39q-16 -44 -23 -66l-9 -27l-6 -17q-4 -8 -3 -8q1 -1 3 3q-1 -4 -5 -10zM506 351l21 34l1 1l-1 -1l1 1l1 1l19 31q55 93 98 174l17 33l20 39.5t16 36.5t13 41q-3 -16 -11 -35.5
t-14.5 -32.5l-17.5 -33.5l-16 -30.5l-44 -82l-20 -36q0 -1 -7 -10t-9 -13q3 9 28 48q11 19 31 57q42 83 57 117q40 100 12 104q-9 1 -20 -15q-22 -26 -58 -106q-24 -52 -44 -108q-23 -58 -73 -215zM428 191q-28 -106 -43 -182q10 50 26 107l36.5 124.5l31.5 106.5
q-38 -102 -51 -156zM57 155q1 1 0 8t-2 7q-6 0 -12 -43q-10 -54 -13 -94l3 16q0 -3 -0.5 -8t-0.5 -7q0 4 3 11t4 13q2 10 4 30t4.5 36t7.5 28q1 0 2 3zM215 621l-2 -4l1 1q9 17 32.5 55.5t34.5 60.5q-5 -9 -18 -25t-18 -25q-17 -32 -30 -63zM372 834q-14 -20 -31 -55
q40 77 63 82l-1 1h-2q-10 0 -29 -28zM369 -95q0 2 0.5 6t0.5 5q-2 -8 -2 -16v3zM43 122l-4 -21q2 14 4 21zM322 41l2 8q-3 -5 -2 -8zM293 817l6 8l2 4zM534 396l-3 -5q0 1 1 2t2 3zM35 72q0 2 0.5 5t0.5 4q0 -2 -0.5 -5t-0.5 -4zM38 92v5v-5zM39 101l-1 -4v1q1 2 1 3zM37 84
l-1 -1v-2v1zM530 390q0 1 1 1z" />
    <glyph glyph-name=".notdef" horiz-adv-x="280" 
 />
    <glyph glyph-name=".null" horiz-adv-x="0" 
 />
    <glyph glyph-name="nonmarkingreturn" horiz-adv-x="333" 
 />
    <glyph glyph-name="space" unicode=" " horiz-adv-x="280" 
 />
    <glyph glyph-name="exclam" unicode="!" horiz-adv-x="220" 
d="M339 679q-1 -14 -6 -30l-30 -78q-11 -29 -52 -152q-12 -36 -37 -121.5t-41 -130.5q-1 -2 -3.5 -10t-5.5 -15.5l-7 -17.5t-8 -16.5t-9.5 -12.5t-10 -5t-10.5 5q-6 6 -6.5 18.5t1.5 22.5t6.5 26.5t4.5 18.5q3 12 10.5 37t10.5 37q38 157 69 325q1 8 7 38.5t7 46.5
q0 31 13 42q22 20 57.5 11.5t39.5 -38.5v-1zM152 10q4 0 4.5 -3.5t-2 -9.5t-5.5 -11.5l-6 -11.5l-3 -5q-2 -6 -6 -10.5t-7 -7.5t-8.5 -8t-9.5 -8l-4 -4l-4.5 -4.5t-4.5 -3.5t-5 -3t-5 -2t-5.5 -0.5t-6 1t-6.5 2.5q-5 2 -15.5 11.5t-13.5 15.5q-10 20 7.5 46t38.5 37
q32 16 57 6q2 0 3.5 0.5t3 0t3.5 -3.5q3 -4 3 -8t-1.5 -9t-1.5 -7zM226 470q-6 -31 -15 -59q-12 -36 -15 -61q0 -3 -11 -46q3 10 14 36t14 41q11 54 13 88v1zM184 300q0 2 1 4q-1 -2 -1 -4z" />
    <glyph glyph-name="quotedbl" unicode="&#x22;" horiz-adv-x="235" 
d="M154 525q-7 -15 -19 -45t-23 -52.5t-24 -42.5q-20 -27 -24 -4q-1 9 6.5 26t8.5 19l4.5 18.5t6.5 22.5q-5 0 -7.5 5.5t-1.5 16t3 21t5 23l4.5 18.5t3.5 11q1 4 2.5 12.5t3 15.5t4.5 10q8 8 28.5 9t28.5 -6q5 -5 6 -11t1 -8.5t-3 -12t-3 -10.5l-3 -11.5l-3.5 -13.5
t-4.5 -11zM264 567q1 -22 -24 -70l-17 -35t-26 -47q-33 -44 -43 -39q-10 4 6 37q21 51 24 56q-6 0 -8 7t1 20t6 24.5t9 27l8 20.5l5 13q0 1 -1.5 4.5t1.5 6.5q7 10 25 5q32 -12 34 -30z" />
    <glyph glyph-name="numbersign" unicode="#" horiz-adv-x="537" 
d="M78 327q1 3 2 5.5t3.5 3.5t4.5 2t5 1h5h5.5h5.5q-25 3 -31 -5q3 6 17 8q14 1 41.5 1.5t36.5 0.5q15 1 22 2t14.5 6.5t12.5 17.5q13 32 38 69q24 32 50 46q24 12 31 -10q4 -4 0.5 -13t-6 -13.5t-8 -13t-7.5 -10.5q-7 -11 -21.5 -38t-23.5 -41q4 0 6 -1q2 4 9 4q3 1 22 1
l39 -3q14 -1 20 1.5t13 13.5q3 5 15.5 30t20.5 38q23 37 45 50q11 8 25.5 6t15.5 -17q1 -9 -3.5 -19t-16.5 -26l-11 -17q-4 -6 -18.5 -32t-23.5 -39q2 0 22 -1t35 -3.5t20 -9.5t-19 -13q-12 -3 -16 -3q-11 -2 -30 -2h-7h-14q-7 -1 -11.5 -6t-10 -15.5t-6.5 -11.5l-31 -47
q83 -7 111 -16q8 -2 8.5 -3t-5.5 -9q-7 -6 -38 -6q-9 0 -26.5 -3t-26.5 -4q-6 -1 -17.5 0t-17.5 0q-8 0 -14 -2.5t-11.5 -8t-7.5 -8.5t-8 -13t-7 -12q-12 -19 -60 -79q-1 -1 -5 -7q-28 -35 -29 -11q0 8 4.5 16.5t12 19t9.5 14.5q9 15 22 43t20 40q-52 -2 -78 -2
q-33 2 -46 -13q-15 -17 -39.5 -51.5t-37.5 -49.5q-22 -33 -25 -32q-18 4 2 38l14 22.5t15 27.5q11 30 26 54q-39 2 -53 20q-10 13 -5.5 23.5t19.5 13.5q8 1 23.5 -0.5t29 -1t20.5 7.5q3 2 4.5 5.5t3 8t2.5 6.5q3 7 10 18.5t9 14.5q-23 -1 -51 4l-6 -2h-1q-10 5 -12 7h1
q-14 8 -20 15v-2l-1 1l-2 4q-3 9 -3 10q-1 2 -1 5v4q0 -1 0.5 -2t0.5 -2zM317 249q10 21 26 42q-10 0 -19 3h-4l-1 1q-3 -1 -13 -1q-12 -3 -18 -3q-4 0 -11 -0.5t-13 -1t-11 -1.5q-12 -3 -20.5 -11.5t-18.5 -27t-12 -21.5q10 0 29 0.5t28 0.5q4 0 14 -1t18.5 -1t13.5 2
q7 4 12 20zM126 339q1 0 4.5 0.5t5.5 0.5h1h-3l-10 -1h2zM153 341q-2 0 -6 -0.5t-6 -0.5q8 0 12 1zM77 331q0 1 0.5 1t0.5 1q-1 -1 -1 -2z" />
    <glyph glyph-name="dollar" unicode="$" horiz-adv-x="304" 
d="M322 389q3 -20 -17.5 -47t-42.5 -44q-20 -12 -25 -7q-2 4 6 12q-1 0 -1 -0.5t-1 -0.5l3 6q4 6 8.5 13.5l8 13.5t4.5 6t-5 -12l-3 -6q25 43 27 65q2 16 -6 23q-3 3 -9.5 4.5t-8.5 -1.5h3q-1 -1 -3 -1q-2 -1 -4.5 -9.5t-4.5 -18t-3 -11.5q-4 -15 -11 -35q-2 -5 -9 -24
t-10 -30q-2 -6 -5 -18t-5 -18q-4 -14 -4 -15.5t6 -15.5q70 -101 -1 -181q9 9 9 7q3 -10 -22 -28t-40 -25q-7 -3 -20 -5t-18 -4q-1 -1 -4 0h-3q-1 -1 -3 -5t-3.5 -9t-2.5 -6q0 -1 -4 -10t-7 -15t-6 -6q-10 3 6 52q-37 6 -55.5 29.5t-10.5 61.5q3 11 11 29t22.5 34.5
t26.5 13.5q6 -2 7 -3.5t-0.5 -6t-1.5 -5.5q-1 -9 -8.5 -27.5t-9.5 -28.5q-6 -33 4 -52q6 -10 14 -13q6 -2 8.5 -1.5t3.5 1.5t4 8q3 4 1 6.5t-2 5.5q5 22 10 38q2 8 8 26.5t9 28.5q1 4 5.5 16.5t5 17.5t-0.5 16q-3 10 -16.5 28t-16.5 24q-15 28 -13 61q0 7 2.5 24.5t6.5 17.5
l-1 -8q1 4 5 17q-14 -76 19 -115q-19 26 -17 53q0 7 1.5 20.5t1.5 20.5q-2 27 0 32l-1 -1l2 3l-1 -1l2 3l5 9q14 20 23 30q25 27 57 42q3 1 8 3t7 3t5 3t5 6t4.5 12.5t3.5 11.5q16 28 34 28q6 0 9.5 -2t3.5 -5.5v-6t-2 -8.5t-2 -8q-5 -17 -5 -27v-2q0 -8 5 -10q6 -2 11 -5
q12 -6 22.5 -18t11.5 -24zM184 88v1q0 3 -2.5 11.5l-4.5 15t-1 8.5l5 -11l-6 16q2 -6 -2 -0.5t-5 7.5q-4 -10 -19.5 -54.5t-24.5 -67.5q23 5 36 21q8 7 15 23q1 2 3 14t6 16zM209 399l2 5q-42 -16 -49.5 -54.5t13.5 -74.5q30 112 33 121v-1v1q1 1 1 2l-1 -2q0 2 1 3z
M282 385q0 18 -8 26q4 -1 7 -6q1 -2 2 -10.5t-1 -9.5zM263 414q8 2 11 -3q-4 3 -11 3zM114 354l-2 -4zM112 350l-1 -2z" />
    <glyph glyph-name="percent" unicode="%" horiz-adv-x="523" 
d="M411 364l-47.5 -57t-55.5 -73q-12 -19 -28 -38.5t-38 -44t-31 -35.5q-12 -14 -32.5 -41t-32.5 -41q-1 -1 -7.5 -9.5t-13.5 -16.5l-16.5 -19l-18 -20t-16.5 -16.5t-14 -10.5t-9 -1q-1 3 -0.5 8.5t5.5 15.5t10 19t12 20.5l11.5 19t9.5 14.5t5 8q102 146 202 261
q84 99 119 134q9 11 37 35t31 13q2 -5 -0.5 -12.5t-8 -16t-10.5 -14.5l-12 -14t-8 -9l-12 -12.5t-12 -14.5q0 -1 -7 -13t-12 -19zM399 167q69 -6 72 -41q4 -36 -8 -73t-37 -60q-11 -10 -45 -22l-11 -4q-8 1 -10 -0.5t-8 1.5t-7.5 4l-7.5 5t-8 5t-7.5 3.5t-8.5 5.5t-6 9
q-6 11 -8 32q-2 35 9 63q7 19 11.5 28.5t15.5 21t26 17.5q-4 -7 -18.5 -27.5t-19.5 -34.5q3 8 16 25t16 22q0 1 1.5 4.5t3 6.5t2.5 4q9 8 37 5zM75 352q-8 2 3 29t20 43q13 28 44 37q30 9 66 -3t37 -43q2 -53 -22 -95q-25 -42 -76 -52q-1 0 -5 -3t-9 -2q-8 0 -15 5
q-5 2 -13 8q-2 1 -5.5 1.5t-5.5 2.5q-14 10 -11 27q11 44 11 50q-1 -9 -7.5 -29.5t-6.5 -28.5q-9 19 -5 53zM448 90v1q1 16 -5.5 31.5t-21.5 12.5l-3 -2q-2 -2 -5 -4t-4 -3q-7 -6 -11 -11q-15 -22 -21 -46q0 -1 -1.5 -8.5t-2.5 -11.5q-4 -14 -4 -23v-3v-10.5t1 -10t2.5 -10
t4.5 -6.5t8 -2t12 5q8 6 19.5 21.5t16.5 25.5q11 24 15 54zM143 322q0 -35 7 -40q8 -4 23 8q22 17 37 50.5t12 60.5q-2 13 -9.5 23.5t-19.5 7.5l-18 -14v0q-3 -3 -2.5 -4.5t-0.5 -4.5q-12 -17 -19 -45q-9 -41 -10 -42z" />
    <glyph glyph-name="ampersand" unicode="&#x26;" horiz-adv-x="482" 
d="M499 261q3 -7 -8 -15t-27 -14l-16 -7q-20 -12 -38 -20q-8 -3 -10 -5t-2 -9.5t-1 -12.5q-6 -37 -35 -88q-2 -4 -9 -15.5t-10 -16l-9.5 -14t-11 -15t-11.5 -13t-15 -13.5q-37 -31 -81 -44q-35 -10 -108 2q-38 7 -43 11q-29 13 -29 56t12 76.5t28 64.5q56 113 137 159
q-28 17 -40 39q-10 19 -11.5 38.5t2.5 33t13 36.5q3 7 8 14.5t9 12t13 12t11.5 10t14.5 10.5l12 9q46 35 86 46q48 13 85 -26.5t22 -86.5q-6 -19 -22.5 -42.5t-31.5 -30.5q-7 -3 -15.5 -4t-15.5 3t-7 13q-1 4 12 19q7 7 14.5 17.5t17.5 27.5t9.5 27.5t-11.5 17.5
q-28 10 -107 -57q-69 -65 -51 -93q7 -18 54 -8.5t60 1.5q14 -9 15.5 -29.5t-11.5 -29.5q-9 -6 -28 -5.5t-29 -3.5q-21 -9 -51 -30q-13 -10 -18 -18q-2 -2 -5 -8.5t-6 -9.5l-41 -59q-34 -53 -49 -111q-5 -12 -3.5 -34.5t14.5 -28.5q23 -11 85 30q65 45 143 162
q-9 -5 -21.5 -7.5t-28 -4t-23.5 -3.5q-3 -1 -7.5 -2t-6.5 -1.5t-5 0t-4.5 2t-3 5t-1.5 8.5q-2 15 17 37v9q2 2 6.5 3t5.5 2q5 1 14 0t12 -1q2 0 7 4t10 5q7 2 21 3t18 2q6 1 22.5 3t28.5 3q30 2 41 4q1 0 7.5 2t12 3t11 -0.5t7.5 -6.5zM57 83q15 44 50 103q2 3 15 25t21 33
q-12 -11 -26 -28q-28 -40 -44 -80q-36 -87 -22 -137q-7 38 6 84z" />
    <glyph glyph-name="quotesingle" unicode="'" horiz-adv-x="143" 
d="M172 592q1 -7 -0.5 -17t-6 -24t-5.5 -16q-2 -8 -10 -23.5t-11 -23.5q-13 -41 -42 -88q-1 -1 -4 -6.5t-5.5 -9t-7 -8.5t-7.5 -4.5t-7 2.5q-3 7 -1.5 13.5t7 18.5t5.5 14q3 7 7 22.5t8 24.5q-21 -2 8 97q6 20 6 21t-1 3t-1 4t3 6q5 8 21 10q39 3 44 -15v-1z" />
    <glyph glyph-name="parenleft" unicode="(" horiz-adv-x="339" 
d="M368 637q0 -4 0.5 -7.5t-3 -5t-5 -2.5t-6.5 -0.5t-7 0.5t-6.5 0.5t-5.5 0.5q1 -1 2 -1l-38 -17q-1 1 9 8q2 1 3 2q-18 -10 -33.5 -26t-30 -40.5t-21.5 -38.5l-20 -42q29 58 49 88q-11 -18 -29.5 -55l-34 -69.5t-16.5 -35.5l10 27q-8 -19 -33 -72.5t-41 -91.5t-28 -75
q-45 -141 -25 -208q-12 42 14 137t50 152.5l45 103.5q-4 -10 -40 -133q-29 -100 -34 -127l3 9q-1 -5 -2 -23t-1 -20q-3 -27 -3 -53q0 -78 36 -90q2 -1 8 -2.5t9 -2.5t6 -3.5t2 -6.5t-5 -9q-17 -12 -38.5 -11t-39.5 10q-21 9 -35 27t-20.5 44t-9 45t-3.5 47q-2 51 9 99
q1 6 8 26q0 32 6 35v-3q0 1 0.5 3t0.5 3l2 19q2 14 10 37q12 38 16 57q1 6 9 27t18.5 42.5t14.5 20.5l-2 -8q8 18 13 26l-4 -4q-1 1 22 40t28 46q38 54 72 79q14 10 45 23.5t62.5 18t37.5 -19.5zM73 -50q10 -7 21 -8q-11 1 -21 8zM261 564q4 6 7 8q-5 -6 -7 -8zM257 560l4 4
zM70 -47l3 -3zM255 556l2 4z" />
    <glyph glyph-name="parenright" unicode=")" horiz-adv-x="442" 
d="M367 487q3 -53 -7 -102q-1 -5 -2.5 -10t-3.5 -11l-3 -9q0 -1 -1 -9.5l-2 -16.5t-3 -9v3l-2 -6l-1 -18v-1l-10 -37q-12 -38 -17 -57q-1 -6 -9 -27t-18 -42.5t-14 -20.5l1 3q2 4 1 5q-8 -18 -13 -26l4 4q3 -1 -28.5 -50.5t-38.5 -57.5q-45 -54 -84 -71q-3 -1 -14.5 -6.5
t-14.5 -6.5t-15 -5.5t-15 -4t-15.5 -2t-16.5 0.5q-13 2 -21.5 9.5t0.5 18.5q4 4 8 5t11 -1t9 -2l-1 1q3 0 12 4.5l17 8.5l9 4q1 -1 -3.5 -4t-9.5 -6q23 13 44 40t32.5 48t27.5 55q-52 -100 -61 -100q5 1 30.5 48t31.5 60q31 63 49 122q51 150 62 225v-1l-1 -2q2 27 2 31
q3 18 3 38q4 54 -5 84q-4 15 -12 23t-23 13q-18 5 -19 12q0 4 3 9q7 11 31.5 12t35.5 -4q25 -7 40 -23q34 -36 40 -132v-3q0 -6 1 -9q-1 5 -1 6zM198 166l-10 -26zM177 116l8 19zM185 135l1 1q0 2 2 4l-2 -3zM187 138q1 1 1 2q-1 -1 -1 -2z" />
    <glyph glyph-name="asterisk" unicode="*" horiz-adv-x="275" 
d="M311 401q1 -1 4.5 -0.5t3.5 -1.5q1 -6 -3 -10q-9 -2 -14 0t-15.5 9t-11.5 8l-6 -2q-8 2 -22 10l-28 14q-20 -41 -44 -71q-21 -28 -24 -29q-6 -1 -8.5 3t-1.5 10.5t2.5 12.5t4 13t2.5 8q-2 9 -2 11q0 4 1 7.5t2.5 8l2.5 7.5l9 30q-35 -11 -88 -18l-2 -2q-6 -6 -9 1
q0 2 -0.5 3.5t1 3.5t2.5 3t3.5 2.5t4 2.5t4 2.5t4 2t3.5 1.5l3 1q22 8 53 25q-4 2 -20 8t-25.5 13t-13.5 17q-6 11 -1.5 22.5t17.5 10.5q3 -1 8 -4.5t6 -3.5q6 -3 30 -17t37 -19l12 45q11 32 25 39q8 6 28.5 5t26.5 -11q3 -5 0 -15t-8 -22.5t-6 -14.5q47 14 59 3q5 -5 6 -16
q3 -1 0 -4.5t-6 -6.5q-4 -3 -30 -12q-3 -1 -15 -4.5t-22 -7.5t-12 -7q-3 -4 6 -11.5t23.5 -17t16.5 -11.5q4 -3 8.5 -7l10 -9t8.5 -8z" />
    <glyph glyph-name="plus" unicode="+" horiz-adv-x="401" 
d="M390 234q1 -10 -9.5 -14.5t-27 -5.5t-18.5 -1q-1 0 -6.5 -3.5t-8.5 -4.5q-12 -3 -25 -3q-14 -1 -35 -5h-8.5t-7.5 -0.5t-5.5 -1.5t-5.5 -4t-4 -8l-18 -39q-23 -43 -46 -72l-3 3q2 -7 -5 -14q-9 -8 -13.5 -2t-4.5 21q1 5 3 14t2 13q0 3 -0.5 8.5t-0.5 9.5q0 19 12 62
q-4 0 -25.5 -2t-29.5 -2t-24.5 2t-23.5 8.5t-13 19t-5 30.5q0 11 4.5 16t8 6t14.5 0.5t16 -0.5q9 1 19.5 1.5t22.5 1t19 0.5q31 0 36 4t9 35q7 34 10 42q20 55 72 42q15 -4 19 -9.5t1 -17.5q-3 -11 -14 -45t-14 -52q50 -6 76 -12q56 -14 57 -21zM167 145q10 56 16 84
q2 10 8.5 49.5t12.5 60.5q-5 -16 -11 -46.5t-10 -43.5q-30 -99 -24 -154q0 18 8 50z" />
    <glyph glyph-name="comma" unicode="," horiz-adv-x="216" 
d="M157 21q2 -8 -1 -17.5t-8.5 -20.5t-7.5 -16q-10 -27 -58 -82q-37 -41 -44 -44q-13 -5 -18 0t-3 17q4 23 34 56t34 40q-44 -12 -51 -9q-10 4 -10 16.5t6 21.5q13 26 59 48q-8 5 14 14q14 6 19 5q30 -6 35 -29z" />
    <glyph glyph-name="hyphen" unicode="-" horiz-adv-x="373" 
d="M374 234q2 -16 -39 -20q-8 -1 -18.5 -5t-17.5 -5l-44 -5.5t-55 -8.5q-13 -2 -40.5 -2t-40.5 -2q-48 -7 -66 -2q-19 6 -29 27t-6 41q1 6 4.5 9.5t6.5 3.5h10h10q7 0 85 4t86 0q50 -3 92 -13q61 -14 62 -22zM144 247q49 -2 74 4q-22 -4 -69.5 0t-69.5 -2q5 2 32.5 0
t32.5 -2z" />
    <glyph glyph-name="period" unicode="." horiz-adv-x="219" 
d="M156 10q4 0 4.5 -3.5t-2 -9.5t-5.5 -11.5l-6 -11.5l-3 -5q-2 -6 -6 -10.5t-7 -7.5t-8.5 -8t-9.5 -8l-4 -4l-4.5 -4.5t-4.5 -3.5t-5 -3t-5 -2t-5.5 -0.5t-6 1t-6.5 2.5q-5 2 -15.5 11.5t-13.5 15.5q-10 20 7.5 46t38.5 37q32 16 57 6q2 0 3.5 0.5t3 0t3.5 -3.5q3 -4 3 -8
t-1.5 -9t-1.5 -7z" />
    <glyph glyph-name="slash" unicode="/" horiz-adv-x="522" 
d="M576 585q4 0 -6 -21.5t-14 -26.5q-17 -28 -59 -78q1 0 1 1q-9 -11 -24.5 -35t-23.5 -34l-113 -140l-73.5 -93.5t-86.5 -106.5l-1 -2l-12 -14q-17 -20 -54.5 -67.5t-57.5 -70.5q-52 -61 -55 -64q-1 -1 -6 -7l-8.5 -10t-9 -9t-10 -7.5t-8.5 -1.5q-5 1 -6.5 5t0 9.5t3.5 9.5
t5.5 10t3.5 7l1 2v-1v1v-2l-2 -4l3 7l4 8q-2 4 2.5 14.5t10.5 19l14 19.5t9 13q26 40 89 129q54 74 144 186q84 108 201 235q47 52 82 85q33 31 57 34zM-33 -150l14 25q-15 -20 -14 -25zM496 457q1 1 1 2zM-37 -158l-1 -1q1 0 1 1zM165 36l-1 -1z" />
    <glyph glyph-name="zero" unicode="0" horiz-adv-x="378" 
d="M353 496q32 -40 32 -103q0 -8 -11 -82q-2 -12 -3.5 -34t-2.5 -31q-5 -27 -23 -84q-55 -162 -130 -221q-20 -16 -83 -34q-3 -1 -8 -3t-9.5 -3t-10.5 -1q-31 3 -55 27q-19 18 -29 49q-16 -1 -19.5 58.5t0.5 70.5q0 23 5 51l6 28q1 5 0.5 15t0.5 16q4 34 39 122q10 25 19 43
l7.5 22t10.5 25q30 57 84 91q39 26 94.5 21t85.5 -43zM339 388q0 3 0.5 6t0.5 4v2.5v1.5q-2 79 -44 92q-8 1 -9 1.5t-5 -3t-7 -5.5q-40 -21 -61 -44q-5 -5 -9 -13.5t-8.5 -20t-7.5 -17.5q-22 -44 -27 -59q-20 -60 -21 -68q-1 -13 -8.5 -35t-8.5 -28q-15 -54 -13 -111
q0 -11 -1.5 -35.5t-0.5 -37.5q3 -60 21 -67q21 -8 48 14q31 28 74 112q2 4 15.5 28t18.5 38q3 9 10.5 36.5t12.5 42.5q26 83 30 155v11zM21 139q23 147 78 253q-54 -103 -73 -186q-27 -114 -14 -194q-6 51 9 127z" />
    <glyph glyph-name="one" unicode="1" horiz-adv-x="257" 
d="M285 500q4 -9 3 -16q-2 -18 -26 -82q-2 -6 -8 -19l-9 -20q-4 -10 -7 -27.5t-6 -25.5q-5 -15 -17.5 -47t-18.5 -49l-9.5 -26l-11 -31.5t-6.5 -26.5q-6 -38 -23.5 -107.5t-21.5 -88.5q-9 -42 -40 -43q-20 -1 -42.5 9t-24.5 28q0 2 0.5 5.5t0.5 4.5q3 17 8.5 36.5t13.5 43
l12 35.5q4 14 16.5 43t16.5 45q19 75 34 114l36 102l17 48q1 3 6.5 15t9.5 22.5t3 14.5q-8 9 -25.5 6.5l-44 -6t-35.5 -0.5q-19 7 -9 25q1 2 11 12q5 2 11 4q3 0 2 4q22 11 66 14.5t57 6.5q5 1 11 5t9 4t14 -2q21 -10 27 -30zM193 324q-8 -26 -26 -76q24 31 34 96zM128 132
q11 18 11 20l-1 3q-3 -3 -4 -6v5q-1 -1 -7 -11.5t-6 -12.5t2 -8l-1 1q-1 1 -2 0t1 -2t3 0q2 2 2 7q1 1 1 2v1zM161 233q1 0 1 2l27 81l-4 -10q-8 -21 -20.5 -60t-17.5 -52q10 26 14 39zM220 403q0 1 1 3v6q-5 -6 -13 -39zM133 149q1 0 0 -2t-3 -7.5t-3 -8.5q2 14 6 18z
M142 183q-1 -1 -1 -5l1 2v3z" />
    <glyph glyph-name="two" unicode="2" horiz-adv-x="384" 
d="M172 83q-30 -39 -47 -69l-13.5 -22t-16.5 -29t-9 -23q11 2 46.5 10t59.5 12t48 4q8 0 20 -1.5t27.5 -5t23.5 -11.5t2 -19q-2 -5 -32 -13q-30 -7 -64 -12q-70 -11 -137 -15q-22 -1 -47.5 -1.5t-44 14t-14.5 42.5q1 7 6 19t6 18l-2 6q1 7 7 19q21 42 75 104q35 38 37 41
t6 13.5t8 16.5q46 62 80 102q13 15 34.5 44.5l29.5 40.5q2 3 14.5 19.5l17.5 23.5t12 20t9 25q4 13 1 17t-20 1q-42 -7 -98 -53q-3 -2 -13 -13q-41 -47 -52 -34q-2 3 -3 7q-5 19 26 55q31 41 87 71t108 31q26 1 48.5 -8.5t27.5 -32.5q7 -12 0 -34t-13 -33t-19 -31t-18 -29
q-23 -41 -87 -126zM123 68q2 1 4 5.5l4.5 10.5t3.5 8l21 24q3 3 9 8.5l10.5 9.5t8.5 10t6 11q5 3 2 5l-34 -35l-24 -27q-1 -1 -4 -8.5t-5.5 -14.5t-1.5 -7z" />
    <glyph glyph-name="three" unicode="3" horiz-adv-x="353" 
d="M364 484q2 -47 -42 -125q-37 -66 -80 -110q23 5 46 -11.5t29 -38.5q10 -37 -2 -76q-23 -70 -34 -89q-85 -146 -197 -150q-43 -2 -81 20.5t-25 64.5q13 44 29 64q11 15 31 23q18 6 19 -11q1 -2 -2.5 -9t-3.5 -8q-5 -16 -7 -36q-2 -50 26 -56q11 -2 22 3t21.5 16t17.5 20.5
t16 23.5t12 18q66 90 81 155q8 32 -9.5 33t-40.5 -15q-3 -1 -18.5 -11t-27 -13.5t-20.5 -1.5q-13 3 -17.5 15t-0.5 25q2 7 9 15t17.5 18l13.5 13l23 24q1 1 4.5 3.5t5.5 5.5l-1 2v3.5v2.5q6 15 25.5 39t24.5 32q28 46 36 62q3 6 8 24t4 21q-2 3 -15 6q-46 3 -108 -64
q-2 -2 -14.5 -13t-17.5 -18q-2 -2 -5.5 -7t-7 -8t-7.5 -3q-14 -2 -17 13.5t2 25.5q6 16 18 28t30 25t26 21q15 14 46.5 29.5t67 26t62.5 0t28 -46.5zM197 -27l16.5 16t28 29.5t28 43.5t22.5 63q-3 -13 -10.5 -27.5t-18 -31.5t-15.5 -26q-4 -8 -10.5 -17.5t-12 -16l-15 -17
t-13.5 -16.5z" />
    <glyph glyph-name="four" unicode="4" horiz-adv-x="384" 
d="M376 354q-5 -11 -10 -33t-9 -34q-17 -41 -27 -74q7 1 16 2.5t23 2.5t21.5 -2.5t4.5 -12.5q-5 -14 -38 -19t-38 -9q-4 -2 -5.5 -6.5t-2.5 -11.5t-1 -9q-2 -14 -12 -49q-12 -36 -37 -145q-5 -23 -10.5 -37.5t-21 -24t-37.5 -2.5q-41 14 -40 46q1 10 4.5 23t7 21.5t10 23
t8.5 20.5q7 20 18.5 61.5t18.5 61.5q-11 -2 -49.5 -13t-59.5 -14q-31 0 -58 10q-9 4 -9 8h3q-3 2 -4 3q0 -2 -2 0q-5 5 -7 9q-3 4 -3 21q1 10 8 27.5t9 24.5q1 4 3.5 12l6.5 21t8.5 24t9 19t7.5 7q1 0 0 -3t0 -4l9 22l-4 -4l9 23l18 50l11 28l9 27.5t10 27.5q3 7 9.5 18
t8.5 14q8 18 23.5 25t35.5 -2q15 -10 18 -26q1 -8 0.5 -11t-3 -7.5t-3.5 -8.5q0 3 3 4q1 -1 1 -4.5t-1.5 -8.5l-3 -10t-3.5 -8.5t-3 -3.5v4q1 3 2 7l1 4q-16 -48 -38 -101l9 20q-15 -34 -49 -117.5t-37 -89.5q20 4 58.5 8.5t53.5 7.5q-7 0 -11 1q-1 2 4 4l9 2q9 7 11 9
q3 4 5 11l4.5 15.5t3.5 12.5q5 13 10 28l11 33.5t9 28.5l26 74l6 14.5t6.5 18t3.5 15.5q1 4 -1 8t-2 9q0 14 12 33q12 21 27 25q13 3 25 -2q3 -1 6 -4.5t6 -4.5q2 -1 4.5 -1h3.5q15 -10 17 -31q1 -10 -3 -22t-10.5 -26.5t-8.5 -21.5q-4 -12 -13 -34.5zM270 77q5 12 17 54
q-13 -30 -15 -38q-5 -15 -13 -45q4 13 11 29zM121 356v-1l-1 -2l1 1q2 5 8.5 15.5t10.5 19.5t5 18q-2 -4 -8 -13.5t-7 -12.5q-6 -12 -9 -25zM200 378l14 31zM158 284l-2 -3q-4 -8 -5 -12l5 11z" />
    <glyph glyph-name="five" unicode="5" horiz-adv-x="359" 
d="M398 469q7 -1 -5 -14q-8 -10 -11 -6v3l1 1q-16 -12 -50 -21l26 6q0 -1 -32.5 -8.5t-71.5 -15t-41 -8.5q-13 -3 -14 -6q-2 -5 -3 -8q0 -1 -10 -36q-2 -6 -10 -24t-10 -27q1 4 5 5q5 -3 -17 -62q10 2 30 3.5t28 2.5q3 1 15 4.5t21 3.5q25 2 48 -6q22 -8 33 -28.5t9 -44.5
q-1 -11 -8 -30.5t-8 -29.5q-5 -30 -15 -54q-36 -75 -81 -115t-82 -49q-86 -19 -129 19q-12 10 -14.5 26t-0.5 26t8 30q5 14 12 27t20.5 26t27.5 9q9 -2 9.5 -10t-4.5 -21t-5 -15q-13 -74 34 -74q6 0 11 1.5t10.5 5t9.5 6.5t9.5 9t8.5 9t8 10.5t7 10t6.5 10.5t5.5 9
q28 44 53 113q31 88 -8 84q-20 -2 -53 -17.5t-43 -18.5q-27 -8 -39 11q-3 6 1 27l20 115q1 5 20 51q0 1 1 6l4 12v-4q1 3 0 9.5t1 13.5q2 6 7 17.5t6 17.5q6 31 16 41l2 2q2 3 4 4q2 2 6.5 3t5.5 2q4 0 3 -1t-1 -2l14 4l-2 2q-1 3 28.5 5.5t57.5 2.5t38 -2q3 -1 4.5 -2.5
l3 -3t4.5 -2.5t12.5 -1t13.5 -2q14 -3 30.5 -13t9.5 -22l-3 -2q0 -1 -1 -3zM282 89q-6 -12 -15.5 -34t-11.5 -27q40 63 53 110q-2 -8 -6.5 -16l-10.5 -18zM260 418l-19 -4q14 2 19 4zM260 418q4 0 10 2zM300 425q-1 0 -3 -1h-2q2 0 5 1z" />
    <glyph glyph-name="six" unicode="6" horiz-adv-x="355" 
d="M350 189q2 -26 3 -40.5t-6.5 -38t-13 -36l-16 -35.5t-15.5 -36q-17 -43 -67.5 -70.5t-97.5 -22.5q-41 4 -72.5 33t-42.5 70q-13 49 25 136q21 49 48 125l-18 -41q-7 -15 -15.5 -31t-15 -29.5t-13.5 -31.5q6 28 15 56.5t15 44.5t20.5 50.5t20.5 50.5q6 17 20.5 47.5
t20.5 45.5q2 5 7.5 21t11 26.5t13.5 17.5q18 17 46 12t35 -30q3 -11 -6 -34q-6 -15 -30.5 -70t-39 -90.5t-26.5 -70.5q7 6 22 15.5t21 14.5q17 18 28 21q21 8 41 5q66 -10 82 -85zM255 153v-2l3 10q0 2 1 3q0 1 1 2v1q17 48 3 62t-55 -13q-34 -23 -67 -69q-14 -19 -30 -89
q-17 -80 3 -99q10 -10 31 4q29 21 65 88q26 48 44 98q0 1 1 4zM255 153l3 8q0 2 1 3zM259 164q0 1 1 2v1q-1 -1 -1 -3z" />
    <glyph glyph-name="seven" unicode="7" horiz-adv-x="348" 
d="M398 456q1 -15 -17 -57q-6 -13 -46 -71q-9 -14 -25.5 -42t-18.5 -32q-28 -44 -32 -52q-12 -28 -29.5 -60.5t-31 -54.5l-37 -60l-33.5 -55q-41 -69 -85 -41q-14 9 -23 24.5t-7 30.5q1 5 6.5 14t6.5 11l35 67q10 18 34.5 57.5t35.5 62.5q19 39 45 78.5l62.5 90.5l52.5 74
q-92 -5 -166 -1q-52 2 -64 7q-15 7 -10.5 17t19.5 17q28 12 94 12q34 0 37 1q32 5 40 5q17 1 52 -1t52 -1q47 2 53 -41zM142 177l68 107q-25 -39 -59 -87q-52 -72 -75 -111q-39 -68 -48 -89q2 5 48 79z" />
    <glyph glyph-name="eight" unicode="8" horiz-adv-x="416" 
d="M474 431v-1q1 -39 -49 -89q-5 -5 -11 -16t-10 -16q-14 -16 -53 -47q-29 -24 -57 -45q-13 -10 -13.5 -13.5t6.5 -17.5l10 -17q35 -66 38 -96q5 -51 -20 -90.5t-66.5 -56t-90 -20.5t-90.5 14q-55 21 -66 74t21 100q22 36 73 84q16 14 50 40q12 8 18 13q3 2 8 5t4.5 3t1.5 4
t-1 8q-2 11 -22.5 55.5t-15.5 71.5q7 41 59.5 63.5t104.5 26.5q40 4 36 -10q-4 -13 -37 -31q-55 -30 -71 -55q-8 -13 -8 -29.5t3 -26.5t11 -30q75 61 111 113q19 25 24 40q5 12 -0.5 31.5t-2.5 29.5q6 21 24.5 18.5t38 -16t28.5 -27.5q14 -23 14 -44zM158 -52
q42 -2 75.5 26.5t34.5 70.5q1 12 -1 24t-8 27t-9.5 22.5t-12.5 25.5t-11 21l-25.5 -21.5l-27.5 -23l-23.5 -21t-23.5 -24.5q-33 -38 -29 -62q-4 -25 15.5 -44.5t45.5 -20.5zM62 93q4 3 2 5q-23 -28 -28 -35q-17 -24 -15 -40q0 -8 4 -18l2 -2q6 -5 6 -3q1 2 -3.5 10.5
t-4.5 10.5q0 15 11 33l9 11.5t10.5 14.5t6.5 13z" />
    <glyph glyph-name="nine" unicode="9" horiz-adv-x="352" 
d="M372 386q1 -22 -9 -64q-15 -66 -36 -133q-15 -46 -49.5 -128t-43.5 -105q-22 -57 -62 -51q-16 3 -29 14q-7 7 -7 11.5t3 12.5q2 9 6 18.5l9.5 21.5t8.5 18q9 24 35 77.5t37 84.5q-6 -16 -23 -47.5t-23 -45.5q-34 -76 -57 -134q-4 12 1 27.5t15.5 36l12.5 24.5l34 80
t40 98q-6 -5 -21.5 -16.5t-22.5 -18.5q-19 -18 -47 -21q-12 -2 -24 0q-46 8 -67 48.5t-15 90.5q5 39 37 102q4 6 10.5 22t12.5 25q31 43 82.5 64.5t99.5 5.5q37 -12 62.5 -45.5t29.5 -72.5zM283 383q15 71 -11 80q-19 7 -47 -27q-68 -78 -97 -193q0 -1 -2 -8t-2.5 -9.5
t-1.5 -9.5t0 -10t2 -8t4 -7.5t8 -3.5q20 -5 59 26q49 41 64 74q13 30 24 96zM244 185q6 8 1 8q-5 -7 -1 -8z" />
    <glyph glyph-name="colon" unicode=":" horiz-adv-x="309" 
d="M193 96q11 0 -11 -40q-1 -1 -1 -2q-2 -6 -6 -10.5t-6.5 -7t-9 -7.5t-9.5 -8l-3.5 -3.5l-3.5 -3.5l-3.5 -3.5t-3.5 -3t-3.5 -2t-4.5 -2l-4 -1t-4.5 0t-5 1.5t-5.5 2q-6 3 -16 12.5t-13 15.5q-10 20 7.5 45.5t38.5 36.5q30 17 57 7q1 -1 5 -0.5t5 -3.5q3 -3 3 -7t-1.5 -9
t-1.5 -7zM281 378q11 0 -11 -40q-1 -1 -1 -2q-2 -6 -6 -10.5t-6.5 -7t-9 -7.5t-9.5 -8l-3.5 -3.5l-3.5 -3.5l-3.5 -3.5t-3.5 -3t-3.5 -2t-4.5 -2l-4 -1t-4.5 0t-5 1.5t-5.5 2q-6 3 -16 12.5t-13 15.5q-10 20 7.5 45.5t38.5 36.5q30 17 57 7q1 -1 5 -0.5t5 -3.5q3 -3 3 -7
t-1.5 -9t-1.5 -7z" />
    <glyph glyph-name="semicolon" unicode=";" horiz-adv-x="350" 
d="M201 128q21 -19 -1 -66q-17 -39 -31 -56q-4 -5 -13.5 -15.5t-13.5 -15.5q-2 -2 -10 -9t-12 -12q-3 -3 -11 -13t-13 -13q-10 -6 -17.5 -3t-7.5 14q1 23 34.5 60t35.5 40q-43 -12 -51 -9q-10 5 -10 17t6 22q14 27 59 48q-6 4 5 10.5t18 8.5q5 1 17 -2t16 -6zM289 378
q12 0 -13 -42q-2 -6 -6 -10.5t-6.5 -7t-9 -7.5t-9.5 -8l-3.5 -3.5l-3.5 -3.5l-3.5 -3.5t-3.5 -3t-3.5 -2t-4.5 -2l-4 -1t-4.5 0t-5 1.5t-5.5 2q-6 3 -16 12.5t-13 15.5q-10 20 7.5 45.5t38.5 36.5q30 17 57 7q1 -1 5 -0.5t5 -3.5q4 -1 2.5 -11.5t-1.5 -11.5z" />
    <glyph glyph-name="less" unicode="&#x3c;" horiz-adv-x="399" 
d="M389 392q0 -7 2 -12t-1.5 -11t-5 -10t-7.5 -9t-9 -8t-10 -7.5t-10.5 -7t-10 -6.5t-8.5 -5q-10 -6 -33 -22t-37 -23l-78 -39q82 -46 110 -79q17 -23 8 -29q-11 -10 -61 25q-7 5 -19.5 12l-19.5 11q-10 7 -27 20.5l-22 17.5q-7 6 -20.5 18.5t-20.5 18.5q-2 2 -5 3
q-5 3 -3 10q1 6 6 11t15 11l9 7q34 27 45 34t32 23.5t32 23.5l60 40q24 16 31 17q18 4 35 -6q10 -6 16 -15q6 -8 6 -11t-7 -10q-1 -1 -1 -2q3 5 8 8zM306 316l44 40l-29.5 -22.5l-23.5 -17.5q-14 -10 -36.5 -29t-30.5 -25q4 3 33 22.5t43 31.5z" />
    <glyph glyph-name="equal" unicode="=" horiz-adv-x="401" 
d="M377 310q2 -6 1.5 -9.5t-7.5 -6.5t-12 -4.5t-12 -3t-8 -1.5q-5 -1 -19.5 -5.5t-23.5 -5.5q-83 -11 -113 -13q-8 0 -32.5 -3.5t-38 -3.5t-31 3.5t-26.5 16.5t-10 35q-1 9 -0.5 15t3.5 9t11 4q21 3 62.5 4.5t52.5 2.5q36 2 105 -8q38 -5 72 -18q2 -1 8 -2.5l11.5 -3
t6.5 -2.5zM358 185q20 -8 -16 -23q-8 -3 -12 -4q-8 -1 -20 -5t-21 -5q-73 -12 -112 -14q-10 -1 -33 -4.5t-38.5 -4t-33.5 2t-28.5 14.5t-13.5 34q-4 29 12 33q6 2 16 2.5t21.5 0.5h16.5q55 3 56 3q38 4 110 -6q44 -8 65 -16zM137 159q-58 0 -79 -4q22 5 74 0t74 3
q-8 -2 -69 1z" />
    <glyph glyph-name="greater" unicode="&#x3e;" horiz-adv-x="409" 
d="M387 301q1 -5 -4 -12t-10 -11l-14 -11t-11 -8l-29 -22t-30 -24q-11 -9 -24.5 -18.5t-31 -20t-26.5 -16.5q-5 -3 -15 -10l-16 -11t-15 -7t-17 -2q-35 2 -44.5 30t15.5 50q12 11 36.5 27t32.5 22q24 18 97 53q-20 -15 -78.5 -66t-93.5 -73q16 9 31.5 20.5l37.5 29l30 23.5
q11 8 43 37t54 41q-65 37 -99 69q-24 24 -21 34q2 14 33 0q8 -4 22.5 -15t21.5 -15q1 -1 8 -3t10 -4l23 -16q68 -53 84 -71z" />
    <glyph glyph-name="question" unicode="?" horiz-adv-x="340" 
d="M446 675v-1q0 -12 -5 -39t-11 -30v3l-3 -6l-5 -17q-5 -13 -19 -35l-30 -51q-7 -13 -31.5 -47t-28.5 -32q1 0 3 7q-1 -2 -17 -23l4 3q-4 -4 -65 -95t-68 -98q-9 -10 -16.5 -23.5l-17.5 -33t-14 -26.5q-15 -26 -24 -25q-5 0 -10 6q-4 5 1 28l-2 -5q-1 0 0 11t3 22t5 11
l-1 -5q0 -4 -1 -9l-1 -5q7 36 23 74l-6 -11l7 16l20.5 40.5t18.5 37.5t12 24l71 118l70 112q1 2 9 13t13.5 19.5t13 22t7.5 19.5t-2 13q1 -1 1 -10q-3 2 -5 5.5t-3.5 4.5t-5.5 1t-13 -3q-41 -9 -94 -62q-3 -3 -9 -11.5t-11.5 -15t-13 -13.5t-13 -6t-12.5 8q-12 18 8 50
q28 41 75.5 71t97.5 41q33 6 61.5 -3t33.5 -40zM130 10q4 0 4.5 -3.5t-2 -9.5t-5.5 -11.5l-6 -11.5l-3 -5q-2 -6 -6 -10.5t-7 -7.5t-8.5 -8t-9.5 -8l-4 -4l-4.5 -4.5t-4.5 -3.5t-5 -3t-5 -2t-5.5 -0.5t-6 1t-6.5 2.5q-5 2 -15.5 11.5t-13.5 15.5q-10 20 7.5 46t38.5 37
q32 16 57 6q2 0 3.5 0.5t3 0t3.5 -3.5q3 -4 3 -8t-1.5 -9t-1.5 -7zM214 372q-5 -8 -20.5 -37t-25.5 -43q9 12 23.5 36.5t22.5 36.5q16 24 36 66q-5 -9 -18 -29t-18 -30zM212 413l-16 -26zM252 433l-2 -2zM190 376v-1l-1 -1l1 1v1z" />
    <glyph glyph-name="at" unicode="@" horiz-adv-x="686" 
d="M320 456q69 5 133 -13.5t111.5 -66.5t52.5 -119q3 -85 -65 -176q-63 -86 -132 -82q0 -1 -7 -1t-9 1q-22 6 -33 27q-6 10 -11.5 34.5t-0.5 34.5q-2 -6 5 -33q-11 63 41 174l-13 -20l12 22l-28.5 -43.5l-34 -51.5t-30.5 -43q-4 -5 -14 -19.5t-16.5 -22.5t-17 -18.5
t-20.5 -17.5l-1 -1l1 1q-18 -11 -34 -12.5t-31 9t-23 34.5q-21 61 15 162q41 119 113 162q46 27 76 -2.5t45 -84.5q37 49 67 47q20 -2 32 -16.5t9 -34.5q-1 -7 -22 -46q-23 -46 -27 -55q-27 -60 -39 -108q-12 -43 0 -49q4 -2 9 -1q7 1 14 7.5t11.5 11.5t11.5 16t8 12
q60 89 70 165t-34.5 132t-120.5 59q-81 2 -151.5 -46.5t-113.5 -124.5q-57 -102 -47 -184q5 -40 27 -71.5t59 -39.5q3 -1 6 -0.5t9 1t9 0.5q-2 0 -8 -1.5t-9 -0.5q24 -3 45 1h1q60 21 78 37q34 34 32 8q-1 -4 -2 -9q-11 -43 -114 -64q-53 -10 -102.5 12t-79.5 67
q-43 63 -29 150v1q2 17 10 46q-2 0 11 27t29 57t21 36q89 114 246 124zM347 213q0 1 0.5 1t0.5 1l1 1q21 29 21 45q0 9 -5 36q-9 41 -25 41q-5 0 -10.5 -3t-11 -9t-9.5 -11.5t-8.5 -14l-7.5 -14t-6.5 -13t-4.5 -9.5q-33 -67 -49 -132q-8 -33 -6 -44q3 -10 7 -11q1 0 2 -1
q5 1 13 6l9 10q7 7 14 17l14 19.5t8 11.5l52 73h1zM368 180q-39 -58 -44 -65q4 5 19.5 29t24.5 36zM313 98l1 2q6 10 10 15q0 -2 -11 -17zM404 235q4 5 7 13q-1 -1 -3.5 -5.5t-3.5 -7.5zM261 35l-14 -11q7 5 14 11zM285 61l2 2q4 4 7 10zM157 160q1 4 0.5 4t-1.5 -6q1 1 1 2
zM282 56l5 7q0 -2 -5 -7zM298 77l-4 -4zM216 -36q-2 0 -3 1q1 0 3 -1zM15 217q-1 -1 -1 -3q0 2 1 3z" />
    <glyph glyph-name="A" unicode="A" horiz-adv-x="522" 
d="M553 551q3 -5 4 -8.5t0 -7t-2.5 -5t-4.5 -5.5t-4 -5q2 2 4 2q1 0 -4 -9t-11.5 -17.5t-8.5 -7.5l4 8q-38 -56 -69 -142q33 88 44 95q-5 -5 -24.5 -54.5t-22.5 -60.5q-23 -65 -31 -122q-3 -17 -16 -125q-1 -8 -3.5 -25.5t-3.5 -26.5t-2.5 -25.5t0.5 -23.5q0 8 2 12l2 -11
l6 -23t6 -14q1 -2 4.5 -0.5t4.5 1.5q14 2 48 43l8 11.5t11.5 15.5t9.5 9q21 9 11 -34q-12 -48 -28 -72q-29 -38 -60 -38q-36 0 -65 24q-44 40 -48 115q0 16 6 50q0 35 1 35l1 -1v-2v5q-3 0 -3 19q0 6 1 12t2.5 13.5l2.5 12.5q4 20 8 56q0 9 11 50.5t17 40.5q1 0 0.5 -1.5
t-0.5 -4.5v-2l8 28q-102 -166 -167 -257q-1 -2 -12.5 -17.5t-17.5 -22.5t-17 -18.5t-21.5 -17t-20.5 -6.5q-40 -2 -79 58q-12 12 -13 17l10 -12l-12 21q2 -6 -2 1l-4 6q-5 9 -7 22q-6 20 -6 52q0 17 18 105q8 45 32 103q1 1 4.5 10t8 19l9.5 20.5t9 17t6 6.5l-4 -14
q6 16 22 48l-7 -9q0 7 5 16.5t12 20t9 14.5l30 59q28 48 80 113q50 62 95 78q21 7 62 -1q47 -10 103 -58q1 -1 7.5 -6.5t9 -8.5t7.5 -8t6.5 -10t1.5 -10q0 -17 -28 -35q-19 -11 -26.5 -7t-12.5 23l1 -3q0 -3 0.5 -5.5t-0.5 -3.5t-5.5 13.5t-6.5 21.5q-5 15 -7 19q3 -5 8 -10
q-6 17 -16 24q-13 5 -38 -4q-30 -11 -59 -38q-59 -53 -114 -157q26 48 65 100q19 26 40 45q3 3 15 11.5t16 12.5q-6 -7 -21.5 -19.5t-19.5 -16.5q-13 -14 -35 -44q-33 -46 -64 -104q-62 -118 -93 -240q-18 -68 -24 -116q-5 -45 2 -49q14 -8 65 50q46 48 66 72q-9 -9 -10 -8
q-1 0 19 29t23 33l48 68l100 149q3 4 21 38q2 4 19 24q4 4 8 14t7 14q21 21 45 13.5t39 -30.5zM106 222q-10 -78 -11 -99v-4l2 18q2 39 17 99q26 106 60 195q39 99 82 170q30 52 65 82q-38 -30 -72 -91q-55 -94 -84 -163q-44 -102 -59 -207zM330 69q-1 -26 2 -58q-1 11 1 33
q1 9 4 28t4 28q0 5 0.5 22t1.5 26l-7 -20q-6 -24 -6 -59zM181 420v2l-2 -5zM338 696q-2 -1 -4 -2.5l-4.5 -3.5t-3.5 -3zM434 702q0 -2 4 -8zM441 691q-2 1 -3 3zM458 346l3 8z" />
    <glyph glyph-name="B" unicode="B" horiz-adv-x="643" 
d="M430 352q53 5 96 -20t54 -76q9 -46 -11 -109q-27 -83 -96.5 -146t-160.5 -104q-76 -35 -148 -49q-51 -10 -91 -2q-60 8 -69 20q-4 8 -3 9.5t11 2.5q3 1 5 1q62 11 84 18q90 27 181 82q90 54 144 115q34 39 49 72q6 12 11 33.5t1 25.5q-6 3 -6 31q1 -4 3.5 -10.5t2.5 -8.5
q-2 19 -8 33v-3q-2 4 -8.5 11.5t-7.5 7.5q-12 12 -32 15q-11 1 -21 -1.5t-22.5 -7.5t-19.5 -7q-21 -6 -54 19q-35 27 -16 44q7 5 25 12.5t24 11.5q43 31 71 59q30 29 65 76q1 1 11.5 18t19.5 30t11 13q-8 -18 -8 -19q22 42 30 64v1l1 1l1 3q7 17 11.5 37.5t2 39t-14.5 21.5
q-5 1 -10.5 0t-12 -6t-10 -8t-10 -10t-7.5 -8q-73 -72 -149 -190q-31 -47 -71 -115q-4 -7 -20.5 -29.5t-22.5 -36.5l-23 -53l-24.5 -57t-20.5 -51t-20 -58q-15 -48 -27 -118l-3 6q-22 -21 -46.5 -12t-35.5 35q-5 12 -7 28t-2 28t1.5 32.5t1.5 27.5q4 85 14 126q3 14 16 48
q0 1 1.5 10.5t3 17.5t2.5 8q0 -2 1 -3q0 1 0.5 3t0.5 4q-2 -5 -2 2q0 13 2 15q1 5 9 32q11 35 14 58q27 96 37 94q1 -1 0 -4l-1 -4l7 22q-1 0 1.5 6l6.5 16l8.5 21t10.5 24l10 22l8 17.5t4 9.5q3 5 12.5 23.5t14 26t14 20t19.5 20.5q4 3 18 19.5t27 23.5t28 2
q11 -4 20.5 -18t10.5 -26q0 -4 -1 -7.5t-2.5 -5t-4.5 -4t-4 -4.5q2 2 5 2q1 0 -5 -9t-13.5 -17t-8.5 -8t1 3.5l5 8.5q-48 -65 -88 -159q50 106 58 109q-2 -1 -15 -27.5l-26.5 -55t-15.5 -31.5q-28 -66 -44 -122q-6 -20 -15 -60t-15 -60q-26 -91 -27 -100q2 4 4 6l-1 -12
q-1 -11 -2 -24t-1 -14l-4 -38q60 203 200 409q-46 -67 -90 -143q-26 -50 -38 -75q-2 -5 -10.5 -19.5t-14 -26t-6.5 -19.5q1 8 5 17t10 20t8 15q11 26 27 55q27 53 54 98q68 109 138 194q36 45 77 86l11 10.5l13 12.5t12.5 11t14.5 10.5t14 7.5t15 5q39 6 65.5 -25t30.5 -72
q13 -103 -59.5 -203t-173.5 -144zM474 102q18 40 20 60l-5 -12q-23 -46 -61 -91l-34 -36l19 11.5t22 15.5q29 25 39 52zM598 528q-13 -24 -38 -56q1 1 11 12.5t15 16.5q31 34 47 88q-3 -7 -35 -61zM72 218q12 25 13 35q1 6 1 17l-15 -30q-10 -36 -7 -73q-2 28 8 51zM213 513
l2 6q-2 -4 -2 -6zM405 642l-7 -7zM229 553l2 4q-2 -2 -2 -4z" />
    <glyph glyph-name="C" unicode="C" horiz-adv-x="499" 
d="M94 80v-1l-1 -1v-1q-7 -41 -5 -89l3 -6q2 -6 2 -13q3 -2 8.5 -12.5t7.5 -12.5q11 -11 32 -13q14 0 26 3q70 16 151 105q59 64 104 137q1 1 5 10t8.5 14t9.5 5q12 -1 6 -43q-18 -138 -158 -256q-62 -50 -95 -52q-34 -2 -86 30q-81 47 -105 120q-3 9 -4.5 19.5l-2.5 17.5
t0 21t1.5 18t3 20.5t2.5 18.5v11q0 12 2 15l-1 -19q0 1 1 10t2 13v13v2q1 7 5 26q3 16 16 56q6 18 20 56t20 58q14 44 45 101q1 1 7 12.5l12.5 23.5l13.5 25t13 21t9 7l-6 -15q26 45 31 52l-9 -10q1 4 28 41q2 4 23 35q28 41 59 76q21 22 34 34t37 26.5t45 15.5
q57 3 92.5 -44.5t36.5 -104.5v-1q0 -67 -33 -104q-18 -20 -47 -37.5t-53 -20.5q-6 -2 -13.5 -1t-6.5 9q0 2 7 7h-1q3 1 22 38.5t23 36.5l-15 -34q30 57 46 98q20 57 12 76q-12 26 -64 -3l-14 -8l5 2q-7 -4 -12 -9q9 7 17 10q42 29 60 16q14 -12 4 -39q8 36 -14 40
q-11 2 -27.5 -6.5l-18.5 -9.5q-52 -34 -112 -124q-49 -70 -90 -156q-26 -52 -71 -176q-42 -113 -53 -174v-5q0 -1 -1 -2zM270 569q32 54 59 87q-83 -91 -141 -214q-45 -96 -76 -195q16 47 53 124q61 126 105 198zM373 679q2 2 7 7.5t9.5 9.5t8.5 8q-28 -22 -64 -70
q24 30 39 45zM475 671q0 -2 -1 -4q0 4 3 13.5t3 11.5q-1 -10 -5 -21z" />
    <glyph glyph-name="D" unicode="D" horiz-adv-x="608" 
d="M664 705q5 -36 3 -73q0 -11 -4.5 -36t-3.5 -38l2 -7q2 -7 2 -10q-1 -14 -5 -32q-7 -34 -20 -76q-20 -69 -56 -151q-2 -5 -13 -24.5t-14 -30.5q0 -2 -3 -15t-6 -20q-34 -73 -81 -139q-97 -137 -182 -123q-54 9 -86 55t-32 103q11 -23 18 -36t21.5 -35t32 -31t36.5 -4
q11 3 22.5 10.5t19 15t18 22t15 21.5t14 24t11.5 20q43 76 73 143q22 48 88 238q25 73 42 149q0 1 2 9l3.5 14t3 16t2 17.5t0.5 15t-2.5 12.5t-6.5 6q-14 5 -59 -46q-36 -39 -102 -123q-19 -23 -39 -53l-33 -51l-35.5 -57l-32.5 -53q-85 -140 -141 -278q-30 -75 -38 -138
q-1 -3 -1 -10.5t-1.5 -14t-5.5 -10.5q-16 -17 -42.5 -10t-38.5 24q-7 10 -8.5 27t0.5 29.5t6 34.5t5 27q15 107 27 149q2 7 20 51q0 1 2 10.5t4 18t3 8.5q0 -3 1 -4v5q-1 1 -0.5 5t1.5 10l1 6q3 14 13 40q10 29 16 60q1 5 8.5 28t17 46t13.5 22q1 -1 0 -5l-1 -4q2 5 5 14.5
t5 13.5l-3 -4q-2 1 24 64t32 74q18 46 31 67q4 7 13 17t12 16q25 48 56 43q13 -2 25.5 -14t18.5 -26q5 -13 -5 -28l4 3q1 0 -3.5 -10.5t-10.5 -20.5t-8 -10q-1 0 1.5 5.5t4.5 10.5q-44 -85 -83 -172q48 99 54 109q-10 -17 -45.5 -99t-36.5 -87q-20 -51 -52 -150l-37 -115
q87 193 237 396q76 103 137 166q2 2 13.5 15t18.5 19.5l18.5 16.5t21.5 14.5t19 4.5q48 0 59 -87zM122 349l1 -13q1 1 12 38l18 48q15 37 39 86l30 66q2 5 7 14.5l7 13.5q2 3 3.5 11t2.5 10q-13 -21 -59 -114q-18 -34 -37 -87q-22 -56 -24 -73zM437 162v1q3 4 20.5 42
t17.5 39q-1 0 -10 -18v-1q-2 -3 -7 -16l1 5l-6 -14q-6 -16 -10 -24l8 19q-17 -37 -44 -84q-35 -62 -64 -100q-23 -27 -36 -34l-5 -1q-6 -2 -11 -4t-5 -3q3 -7 14.5 0t25.5 22.5l23 25.5t12 15q29 42 62 103q0 2 1 2l5 10q2 5 8 15zM510 269v1q-6 -14 -23.5 -49.5
t-24.5 -55.5q3 9 14 25.5t13 20.5q13 26 21 58zM137 327l3 3q-5 -2 -9 -15t-5 -14q-10 -17 -11 -22q-3 -15 -3 -19q1 5 8 14.5t8 11.5q1 4 2.5 19t6.5 22zM362 29q20 27 41 67q-16 -29 -41 -67zM256 648q-6 -6 -2 -9q7 7 2 9zM232 443q5 10 10 25l-26 -64l16 38v1zM412 114
l-2 -5q2 4 2 5zM454 202v-1l-1 -1q1 1 1 2z" />
    <glyph glyph-name="E" unicode="E" horiz-adv-x="465" 
d="M696 730q1 -5 -2.5 -9.5t-11 -7.5l-12.5 -5t-13.5 -4t-9.5 -2q-4 -1 -13 -1.5t-13 -2.5q-4 3 -10 0q1 -3 -1 -5q-23 -11 -56 -16q-7 -1 -28 -6t-32 -7q-22 -3 -25 -4q-5 -2 -8.5 -4t-6.5 -3q-10 -4 -55 -9q-13 -3 -31 -8l-18 -3q0 -4 -4 -8q0 5 2 8q-4 -1 -19 -47
l-21 -53l-29 -77q21 57 37 95q-23 -56 -82 -223l65 6t66 7q47 6 68 7h13q1 0 4 3t4 2q17 -6 1 -20q-8 -7 -27.5 -8.5t-21.5 -2.5q-4 -1 -6.5 -3.5t-6.5 -4.5q-4 -3 -35 -9q-8 -1 -17.5 -2.5t-20.5 -3.5t-18 -3q-6 -1 -17.5 -6t-20.5 -6q-4 -1 -15 -1t-20 -1.5t-14 -5.5
q-3 -2 -5.5 -10t-5 -18t-3.5 -12l-12 -37q-13 -42 -49 -144q-10 -26 -28 -78q-16 -47 -16 -52q0 -1 1 3q4 12 6 13q2 -1 1 -9.5t-1 -9.5q15 3 34.5 10.5t31 13.5t34.5 19t29 16q19 10 56.5 31.5t56.5 31.5q14 7 20 3t0 -19q-8 -21 -41 -52q-51 -46 -67 -59
q-17 -13 -26.5 -19.5l-27.5 -18.5t-31.5 -17.5t-30.5 -10.5t-33.5 -4t-31.5 7q-33 13 -56 40t-20 59q1 11 22 48q0 1 3.5 13t7 22.5t5.5 10.5q-3 -10 -4 -13l5 15l1 4q0 4 1 8.5t1 5.5l11 28q2 4 9.5 23t11.5 30q6 16 17 52t19 54q-23 0 -41 21t8 33q2 0 2 1q3 1 43 4l9 3
t8 2l1 3l1.5 3t1.5 1q-2 -8 -3 -9q4 1 15 38q-1 -3 -5 -9q4 0 88 264q-18 -1 -38 0t-35.5 13.5t-12.5 33.5q1 15 18 21q8 3 49.5 4.5t50.5 15.5q4 6 8 25.5t18 24.5q23 8 54 -14q5 -3 11 -10.5t8 -9.5q3 -4 3 -10l19 3q15 2 63.5 6.5t74.5 7.5q107 12 131 13q12 0 16 1
q2 0 5 2l3 2q11 0 12 -8zM185 374q9 22 22 67t15 51q-1 -4 -13 -33t-17 -44l-47 -129l19.5 42t20.5 46zM234 336l9 24l-13 -32q6 0 4 8zM322 564v-1q-1 -1 -1 -2q1 2 1 3zM322 564l2 2zM319 558l-3 -7z" />
    <glyph glyph-name="F" unicode="F" 
d="M678 733q11 -6 -19.5 -25.5t-42.5 -22.5q-6 -2 -21 -14q-10 -9 -47 -17q-108 -28 -155 -32q-31 -3 -41 -5q-1 0 -3 -1q-8 -4 -10 -10l-2 -6l-8 -22q-5 -16 -13.5 -46t-12.5 -43q-18 -58 -33 -86q-2 -2 -6 -13.5l-7.5 -21.5t-4.5 -10v3l-3 -8q4 7 2 -7q0 -2 -1 -4v-2
q70 6 101 8q15 2 48 0.5t48 -0.5l2 1q3 1 4.5 2t4 1t2.5 -3v-8q-2 -8 -11 -12t-24.5 -5.5t-17.5 -1.5q-5 -1 -15.5 -6t-19.5 -7q-8 -2 -23.5 -5t-23.5 -5q-5 -1 -18.5 -2t-20.5 -4q-18 -9 -30 -10q-1 0 -5.5 -0.5t-5.5 -0.5t-4.5 -0.5t-5 -1.5t-3.5 -2t-4 -3t-3 -5
q-4 -8 -6.5 -26t-4.5 -24q0 -1 -3 -9.5t-7 -18.5l-8 -21t-7.5 -17.5t-5.5 -6.5q-1 0 -0.5 1.5t1.5 3.5v3l-6 -15.5t-4 -11.5l4 4l-9 -30l-19.5 -63t-11.5 -36q-3 -9 -9.5 -35t-13.5 -43t-18 -29q-3 -4 -2 -5t0 -2.5t-8 -3.5q-19 -6 -57 20q-26 17 -30 43q-1 8 0.5 13t5 10.5
t5.5 9.5l-4 -4q-1 0 2 10.5t7.5 21t6.5 10.5l-1 -2v-3l32 81q-2 -4 -3.5 -8t-3 -7.5t-3 -6.5l-2.5 -5t-1.5 -3.5t-0.5 -2.5h-1q3 0 75 192q-22 -1 -43 14.5t-4 34.5q6 6 22 8l30 5q8 2 11.5 3t6.5 5t4 6.5t4 11.5q14 43 26 71q7 16 27 57t28 62l-6 -8q-1 0 1.5 9t6 19.5
t3.5 11.5l8.5 24.5t6.5 18.5q-12 -2 -30.5 0t-35.5 6t-26.5 16t-3.5 31q1 4 3.5 6.5t4 4.5t5.5 3.5t5.5 2.5t6.5 1.5t6 0.5t7 0.5t7 0.5q40 3 41 3q20 0 28 3q2 0 4 1q8 2 11 13q12 37 13 38q17 26 46 4.5t28 -47.5q32 5 94 9.5t88 7.5q63 8 92 14q37 6 38 7zM203 263l-1 -2
l1 3v1l-38.5 -99t-46.5 -125q6 18 21.5 50.5t21.5 47.5q20 55 42 124zM118 255q-3 -1 -13 -31zM204 268q-1 -1 -1 -3q0 1 1 2v1zM204 268l1 2v1q-1 -1 -1 -3z" />
    <glyph glyph-name="G" unicode="G" horiz-adv-x="557" 
d="M576 438q1 -12 -8 -30q-12 -24 -38 -72q-4 -8 -6 -20.5t-5 -19.5q-5 -14 -16 -41.5l-16 -40.5l-60 -147q-4 -10 -25.5 -59.5t-29.5 -76.5q-10 -37 -63 -136q-54 -104 -77 -133q-39 -52 -67 -65q-34 -15 -88 8q-41 17 -60.5 50t-16.5 71t24 76q36 63 99 115q9 6 23.5 20
t18.5 17l8.5 8.5t11.5 11t11.5 8.5t11.5 4q27 2 -16 -43q-6 -6 -6 -7q-50 -62 -82 -131q-54 -108 -27 -138q29 -33 81 35q9 12 18 26.5l16.5 26t16 28.5l14 27.5t14.5 30t12.5 28l13 31l12 28.5t12 30.5t11.5 28.5q18 46 109 304q-56 -93 -119 -166q-20 -22 -32 -34t-34 -26
t-42 -16q-53 -6 -95 46t-40 106l-1 3q0 4 -0.5 8t0 8.5t1.5 5.5v-18l3 23q-2 -3 -1 12q0 13 1 19q8 33 19 60q6 16 19.5 48t19.5 48q15 39 48 90q0 1 3.5 6l7.5 11l9 13.5l10 14.5t9.5 12.5t8 9t4.5 2.5l-6 -12q3 4 13.5 19t17.5 24l-8 -8q2 7 8 15t15.5 17.5l12.5 12.5
q37 42 45 50q60 58 109 64q35 5 66.5 -12.5t51.5 -48.5q7 -11 11 -38q0 -6 4 -17.5t4 -19.5q1 -41 -54 -94q-57 -55 -94 -65q-10 -3 -13 -1.5t-2 3.5t4 7q-6 -4 -6 -3q1 4 21 34.5t23 29.5q-15 -28 -16 -30q36 55 51 108q13 47 5 65q-4 8 -11.5 9.5t-18 -4.5t-20 -13
t-22.5 -20l-19.5 -20l-16.5 -18q26 28 41 42q38 32 50 32q16 0 18 -19.5t-3.5 -38.5t-6.5 -19t2 15q15 61 -8 60q-2 -1 -4 -1q-8 -2 -17 -7t-15.5 -9.5t-16 -14.5l-13.5 -14.5l-14 -15.5t-11 -13q-86 -97 -154 -227q-25 -48 -58 -126q-1 -1 -6 -12.5t-7 -17.5t-6.5 -18
t-6 -20t-2.5 -18t1 -17.5t7 -12.5q26 -30 109 42l-4 -4q-5 -4 -9 -6.5t-6 -1.5q47 47 50 51l53 58q38 43 108 133q36 46 41 55q2 3 3 6.5t2 6.5t1 4q13 19 34 15t41.5 -23.5t21.5 -36.5zM137 434q-52 -90 -69 -175q8 34 50 128q21 47 79 136q33 47 37 52q1 2 9.5 15.5
t13.5 18.5q-15 -12 -58 -77q-18 -25 -62 -98zM522 351l10 25q-66 -140 -107 -262q7 21 24.5 58.5l22.5 48.5q18 42 50 130zM393 40q3 4 7 12.5l5 10.5q-8 -8 -10 -12l-10 -23q2 4 8 12zM384 25q0 2 1 3zM313 551q0 -2 -2 -2q2 0 2 2z" />
    <glyph glyph-name="H" unicode="H" horiz-adv-x="528" 
d="M627 679q5 -10 4.5 -19t-2.5 -14t-7.5 -13.5t-7.5 -13.5q-1 -4 -4.5 -16.5t-6.5 -19.5l-24 -46l-48 -95q-33 -66 -37 -83q6 0 29.5 -1.5t34.5 -0.5q2 1 6 0t6 0q2 0 5 5q12 -4 10 -12q-3 -10 -28 -14q-8 -2 -24 -3t-24 -3q-12 -3 -25 -9q-5 -3 -9.5 -8t-9 -13t-7 -13.5
l-6.5 -15t-5 -12.5l-33 -80q-8 -18 -18.5 -51t-12.5 -38q-68 -180 -72 -190l-8 -21.5t-8.5 -17t-12.5 -14t-16 -2.5t-23 8q-30 19 -24 52q3 16 32 105q18 53 47 122q11 26 32 84.5t34 87.5q-6 -1 -24 -6t-29 -6q-21 -2 -63 -8q-59 -6 -70 -19q-4 -5 -7.5 -13.5t-7 -20.5
t-4.5 -16l-7 -28q-4 -18 -15.5 -52.5t-12.5 -38.5q-22 -68 -31 -102q-1 -3 -4.5 -24t-9.5 -33t-17 -14q-18 -4 -38.5 15.5t-22.5 37.5q-2 5 -0.5 16t2.5 16t4.5 16t4.5 15q12 43 37.5 121l34.5 106q-15 4 -28 14.5t-7 23.5q3 8 28 14q5 1 11 2t9 2t6 3.5t6 8.5l16 37
l16.5 42l14.5 37q77 189 111 254q7 10 11 20l2 11q13 18 45 5q18 -6 29 -18.5t6 -28.5q-3 -7 -12 -18.5t-12 -16.5q-3 -6 -7.5 -22t-8.5 -25q-22 -50 -28 -61q-11 -20 -27 -58.5t-20 -46.5q-5 -11 -10 -31.5t-9 -30.5q-12 -32 -20 -47q15 0 41.5 5.5t36.5 6.5l46 3
q8 1 16.5 0.5t18 0t15.5 2.5q8 4 16 19.5t17 40.5t10 28l41 96l73 164l3 9t3 8t4 5.5t7 3t12 -0.5q18 -2 35 -16t26 -32zM191 365l69 157q-7 -15 -31 -59t-34 -70q-14 -37 -46 -133q19 52 42 105zM310 -38q8 13 18 49l-10 -14.5t-10 -18.5l-6 -33q1 3 8 17zM264 531
q-2 -4 -2 -5z" />
    <glyph glyph-name="I" unicode="I" horiz-adv-x="448" 
d="M644 696q3 -18 -49 -23q-8 -1 -19 -6t-20 -7q-36 -8 -54 -11q-1 0 -9.5 -0.5t-10.5 -1.5q-5 -2 -3 -7t2 -7q-2 -7 -31 -65l-54 -109q-9 -17 -22 -51t-21 -51q-19 -38 -51 -116q-7 -16 -16.5 -47t-14.5 -45q-26 -62 -49 -142q88 9 142 6q1 0 8.5 -1t10.5 0q2 0 3.5 3
t3.5 2q8 -2 8 -10q0 -10 -16 -15t-30 -5q-15 -2 -18 -3q-15 -9 -19 -10l-52 -11q-10 -2 -25 -6t-28 -6.5t-26 -4.5q-8 -1 -24 -4t-24 -4q-6 -1 -14.5 -5t-11.5 -5q-63 -20 -93 -3q-14 9 -16.5 23.5t12.5 23.5q6 4 21.5 5.5t18.5 2.5q11 2 31 5t36 6t30 7q-6 13 -7.5 26
t2 29.5t6 25t10 29t9.5 24.5q12 33 32 76q6 14 14.5 41.5t11.5 34.5q8 22 74 170q6 12 33.5 74.5t43.5 95.5q-2 0 -26 -10q-15 -7 -55 -9q-21 -1 -40 10.5t-11 31.5q3 8 13 12q4 2 43 8q45 9 56 10q13 1 38 8q13 4 21 14q6 6 10 16q-3 3 0 7q5 6 18 8q25 3 49 -19l4.5 -4.5
l4 -4t4 -2.5t6.5 -2q3 -1 11 0t10 1q44 3 75 1q1 0 9 -1t10 0q2 0 3 3t3 2q8 -2 9 -7v-1zM390 508q7 13 20 49q-2 -4 -12 -15.5t-12 -17.5q-3 -7 -4.5 -21t-2.5 -18zM349 452q3 5 5.5 14.5t4.5 13.5q-8 -10 -10 -14q-3 -7 -7.5 -19.5t-6.5 -16.5z" />
    <glyph glyph-name="J" unicode="J" horiz-adv-x="465" 
d="M622 697q1 -10 -10 -25l-54 -66q-7 -9 -13 -26t-10 -24l-42 -85q-24 -52 -66 -156l-11.5 -25.5t-13 -30.5t-8.5 -26q-16 -57 -24 -76q-3 -8 -15.5 -39t-17.5 -42l-16.5 -37.5t-19 -41.5t-19 -36t-23 -38.5t-24.5 -34.5q-25 -34 -55 -34q-37 0 -74 20q-64 35 -88 132
q-20 78 -15 168q0 3 -2 28t-1 45.5t7 22.5q3 0 5 0.5t4 -2t3.5 -3.5t2.5 -4.5t2 -5.5t2 -6l1.5 -6t1 -5t0.5 -4q14 -117 28 -167q15 -51 28 -84q17 -47 37 -57q6 -3 12.5 -3.5t12.5 2.5t11 6.5t10.5 11l9 12.5t8.5 14.5t7 14l6 13t5 9.5q43 85 133 330q3 9 14 39l15.5 42
l15 39l16.5 41.5l16.5 38.5t19 40.5l19.5 36.5t22 38q-17 -6 -47.5 -14t-35.5 -9q-13 -3 -37.5 -13.5t-36.5 -13.5l-22 -5q-21 -6 -30 -9.5l-25.5 -10t-25 -15.5t-11.5 -19q-5 -20 22 -55q1 -2 11 -11.5t15.5 -17.5t1.5 -13q-1 -1 -9.5 -4.5t-9.5 -3.5q-21 -1 -53 28l-21 19
q-19 15 -23 23q-9 16 -9 27q1 10 4 17.5t11 14t12 9.5t16.5 9l14.5 7q21 11 126 40q7 2 17.5 7.5l14.5 7.5q1 0 63 19q28 9 84 25q13 4 18 9q3 3 7.5 9.5t5.5 7.5q15 19 55 14t44 -33zM415 362q8 18 20 58t19 56q-25 -51 -33 -72l-63 -165q10 25 30 66.5z" />
    <glyph glyph-name="K" unicode="K" horiz-adv-x="573" 
d="M637 -34q13 16 17 13q3 -2 5 -14q1 -15 -8 -30q-61 -96 -124 -107q-30 -6 -60 11q-57 43 -57 46q2 0 4 -1q-3 3 -5 3l-9 4q-2 2 -3 2q-10 8 -19 20q-14 17 -34 35q-7 6 -28.5 33.5t-16.5 32.5l3 -2q2 -2 3 -1l-13 16v-2l-2 3q-3 2 -6.5 7.5t-8.5 12.5t-10 15l-10 16
l-10 15.5l-9 14l-7 11t-4 5.5q-26 42 -29 53q-2 5 3 7q-1 6 -8 9l-18 35q-4 -14 -9.5 -43t-10.5 -44q-13 -43 -33 -127l-12 -52q0 -2 -2.5 -20.5t-6.5 -25.5q-6 -8 -13 -8.5t-16.5 7t-15.5 14.5t-11 14q-7 10 -11 21.5t-5 20t1 23t3.5 21t6 23.5l5.5 21q13 55 33 112
q4 10 22 88q12 43 39 121.5t35 105.5q53 153 73 202q6 18 17 41l7 17q-2 2 -2 4q12 15 32.5 13t35.5 -14q12 -8 15 -18t-0.5 -17t-11 -19.5t-10.5 -19.5q-2 -5 -3 -14.5t-2 -14.5q-3 -12 -12 -33t-12 -29q-14 -35 -31 -85l-18 -45q-9 -20 -12 -47q-3 -17 -15.5 -47
t-16.5 -44q81 63 137 120q15 17 61.5 63t69.5 74q4 6 19 24.5l21.5 27l19 25.5t19.5 29t14.5 27.5t11.5 29.5q1 2 1.5 7t1.5 7.5t4 4t8 0.5q14 -3 26 -24.5t16 -39.5v-2q8 -48 -43 -108l-60 -69q-6 -6 -13.5 -18.5t-10.5 -15.5q-5 -7 -34 -33l-33.5 -31.5l-33.5 -31.5
q-9 -7 -22.5 -22t-19.5 -21q-68 -62 -148 -101q42 -68 71 -104q-2 3 -9.5 13.5l-14 20t-10.5 17.5q14 -19 40 -50.5l48.5 -58.5t23.5 -29q65 -60 77 -72q44 -44 56 -52l-5 6q0 1 17.5 -6.5t23.5 -10.5q20 -6 30 -5q40 5 71 44zM135 296l5 22q-62 -218 -68 -244
q5 17 16.5 48.5t15.5 45.5q7 25 17.5 71.5t12.5 53.5q0 2 1 3zM322 109l-7 7q3 -5 24 -28zM244 213q-5 8 -5 9zM249 206l-4 5z" />
    <glyph glyph-name="L" unicode="L" horiz-adv-x="499" 
d="M475 132q31 -3 -2 -28q-10 -7 -18 -11q-33 -17 -99.5 -31.5t-89.5 -22.5q-36 -13 -84 -39q-30 -15 -40 -29l-21 -22q-11 -11 -21 -18q2 1 7 4t9.5 5t4.5 1q1 -8 -13 -15.5t-26 -9.5q-46 -6 -56 27q-12 41 38 91q16 16 34 23q4 2 14.5 5t16.5 7t9 11q0 22 6 26l-1 -5
q-1 -5 -2 -11l-1 -5q2 4 4 12.5l3 12.5q-1 -2 -3 0q-2 6 0.5 18t7.5 26.5l6 17.5t7 24t8 32q11 43 18 101q4 34 25 111q0 1 5.5 19t11 34t7.5 16v-3l-2 -8v-4q3 8 8.5 28.5t8.5 30.5l-3 -6l-5 -8q-1 5 1 12t6.5 16t5.5 12l14 42q19 53 38 82q39 57 93 60q38 3 80 -21
q56 -31 61 -97q2 -39 -20.5 -87.5t-54.5 -72.5q-30 -23 -58 -20q-12 1 -19 7t-2 16q2 1 3 3h-1q0 2 18 38t21 35l-3 -8l-6 -16.5t-3 -9.5q23 48 38 97q18 61 8 76q-15 22 -54 -14q-29 -29 -60 -104q14 32 21.5 47.5t26.5 40t39 31.5q14 5 21 0t6 -18t-2.5 -20.5t-4.5 -17.5
q14 51 -5 57q-20 5 -50 -34q-40 -52 -85 -186q-16 -49 -53 -185t-65 -207q119 36 204 41q32 1 69 -2zM264 567q-23 -74 -31 -104q11 35 27 74q6 12 18.5 43.5t21.5 51t24 43.5t33.5 39t41.5 21q-45 -10 -77 -54q-35 -48 -58 -114zM317 489v1l-23 -71l23 69v2v-1zM99 -70l1 1
z" />
    <glyph glyph-name="M" unicode="M" horiz-adv-x="833" 
d="M743 -169q2 1 8.5 4l13 6t13.5 5t11.5 1.5t5.5 -5.5q4 -15 -37 -52q-26 -21 -58 -29q-61 -17 -105 40q-69 90 -24 248q1 20 5 23q0 -6 -2 -14l5 18q0 -1 -2 -1q-2 7 13 47l22 50q17 38 35 87q4 13 44 95q1 1 7.5 15t12.5 25.5t8 11.5l-3 -13q9 21 19 52l-7 -14
q0 4 2.5 12.5t5.5 16t1.5 14t-8.5 8.5q-14 3 -53 -32q-49 -45 -115 -139q-39 -55 -53 -69q-8 -7 -18.5 -26.5t-13.5 -23.5l-51 -86q-4 -7 -12.5 -19.5t-14.5 -23.5t-10 -21q-5 -13 -8.5 -20t-9.5 -13t-14.5 -3.5t-19.5 12.5q-37 35 -22 105q25 126 140 321q37 63 64 135
q9 24 3 26q-8 3 -41 -20q-21 -16 -44 -39.5t-35 -38.5l-37 -47q-40 -52 -99 -143q-34 -51 -98 -155q-36 -60 -42 -76q-3 -7 -30 -77q-2 -5 -5.5 -17.5t-7.5 -22t-8 -15.5q-9 -13 -26.5 -13.5t-29.5 10.5q-20 16 -18 50q3 57 48 164l62 149q12 33 59 141.5t64 170.5v-10l6 37
q4 22 -1.5 34t-25.5 7q-27 -7 -55 -39q-51 -54 -81 -136q-5 -11 -8 -32q-2 -19 -5 -22q-16 -14 -33 9q-22 32 -7 89q4 14 17 34.5t17 28.5q1 2 3 10t5 13l10 14q16 18 34 34q35 29 77 42q61 19 92 -15q19 -20 30 -70q8 -35 -12 -99q-21 -68 -28 -88q-5 -16 -16.5 -46.5
t-13.5 -36.5q-4 -12 -10 -34t-9 -31q102 158 175 236q3 3 23.5 27.5t34.5 37.5t35 27.5t39.5 12.5t34.5 -21q19 -24 24.5 -55.5t-5.5 -59.5q-7 -18 -27 -50t-27 -47q-9 -21 -37.5 -81.5t-45.5 -103.5t-30 -85q68 116 115 183q-1 -2 -13.5 -18t-17.5 -25q31 48 38 57
q64 88 117 135q52 48 91 48q29 1 48.5 -21t25.5 -52q6 -31 -1.5 -66.5t-17 -57t-31.5 -63t-28 -54.5q3 7 7 7q1 0 -12.5 -33l-15.5 -38l-16 -39t-19 -44q-42 -103 -54 -159q-16 -70 12 -86q24 -10 51 -9t51 9zM610 131q-11 -22 -34 -99q11 34 36 89q37 78 43 110q4 9 0 10
q-6 -7 -12.5 -29.5t-7.5 -24.5q-16 -38 -25 -56zM167 430q-21 -48 -50 -124q29 73 58 132q28 58 49 139q-5 -15 -18 -46q-7 -16 -19.5 -50t-19.5 -51zM487 282q-50 -86 -54 -85zM639 473q-17 -16 -37 -39zM568 0q3 6 0 7q-4 -6 0 -7zM592 422l3 3l1 2l1 1l-1 -1l1 1l2 2l1 1
l2 3l-2 -2q-4 -4 -6 -8v1zM489 285l4 5v1zM487 282q2 2 2 3zM599 431l1 1z" />
    <glyph glyph-name="N" unicode="N" horiz-adv-x="574" 
d="M186 238l86 130l-26 -36l-36 -49q116 176 216 287q162 176 208 52v-2q2 -4 2 -5q6 -20 6.5 -41.5t-4 -43t-11.5 -41t-18.5 -42l-21 -39.5l-22 -39t-19.5 -36q5 7 7 7l-31 -72l-15 -33.5l-19 -41.5q-54 -118 -78 -179q-1 -3 -9 -22.5l-10.5 -26t-8.5 -23.5t-8 -27
t-4.5 -24.5t-2.5 -26.5q1 -48 86 -41q7 1 42 11q3 1 11 5t15 6.5t11 2.5q19 -2 -19 -47q-24 -24 -58 -37.5t-63 -3.5q-55 18 -85 104q-26 70 -8 153q5 20 12.5 40t21 48.5t17.5 38.5q0 16 8 24l-5 -18l10 25q-1 -1 -2 0q0 6 3 15t9 20t7 14l27 54q36 72 48 102t48 102
q2 3 12 25l19.5 41t12.5 19l-4 -16q1 4 5.5 14.5t6.5 16.5t4.5 17t-0.5 15q0 -18 -3 -18v5q0 5 -1 10.5t-5 6.5t-16 -7q-23 -12 -65 -61q-71 -78 -127 -158l-61 -84q-4 -6 -23 -22q-5 -5 -11.5 -17.5l-8.5 -16.5l-53.5 -85t-57.5 -93q-17 -27 -36 -74q-2 -5 -5 -16.5
t-6.5 -20t-9.5 -13.5q-23 -20 -45.5 -3t-24.5 45q-2 37 34 135q9 25 32 75t32 77q16 51 67 166.5t68 180.5q15 57 3 67q-13 10 -45 -9q-44 -26 -88 -108q-16 -28 -27 -59q-9 -20 -10 -30l1 -3q1 -4 1.5 -6.5t-1.5 -7.5q-9 -16 -27 -6q-24 13 -21 64q0 36 21 73q2 3 7 9.5
t7 10.5q1 2 4 12t7 16q46 67 121 90q54 17 85 -8q6 -5 11 -11t8 -14t4.5 -13t4.5 -16t4 -14q4 -14 5 -28.5t-1.5 -31t-5.5 -27.5t-9 -30.5t-8 -28.5q-7 -25 -26 -74.5t-26 -75.5q-14 -51 -38 -109l5 8q-8 -13 -13 -28zM518 458l-76 -155q12 23 36.5 64t35.5 61q47 88 65 168
l-1 -1q1 2 1 3v2q-3 -13 -22 -61zM114 283l4 12q-10 -26 -33.5 -75.5l-28.5 -60.5q-20 -48 -33 -94q-6 -21 -9 -44q-1 -4 0 -14.5t1 -13.5q2 6 2.5 19t1.5 17q2 15 10 40q16 52 32 86q42 91 53 127v1zM125 310q7 7 2 9q-6 -7 -2 -9zM426 565q-16 -16 -34 -39q22 26 34 39z
M206 276q-2 -2 -4 -6zM371 500q-1 -1 -1 -2l4 6zM579 600l1 2v2v-2q-1 -1 -1 -2zM386 518l6 8zM636 615l-1 3q0 -2 1 -3zM125 310l1 1zM371 500l-1 -1zM202 270l-3 -4z" />
    <glyph glyph-name="O" unicode="O" horiz-adv-x="539" 
d="M453 446q6 33 45 1q18 -15 24 -27q11 -21 11.5 -50t-3 -44.5l-11.5 -49.5q-19 -78 -74 -178q-123 -225 -254 -238q-50 -5 -91 27t-69 82l-4 5l-7.5 11.5t-3.5 9.5q1 -3 6 -11l4 -7q-4 7 -11 27v-2q-14 44 -14 49q-2 20 2 60q3 21 8 43t13 51t11 42q13 55 51 129
q18 36 29 53q3 7 14.5 26t14.5 18l-6 -11l28 45l-2 -2q2 3 6 11t6 10l21 30l19 26t25 33q59 75 120 110q64 37 103 20q31 -14 57.5 -43t29.5 -59q3 -32 -25 -74q-41 -64 -112 -118q-52 -42 -79 -37q-12 1 -24.5 9.5t-5.5 19.5q0 1 7 4h-1q2 1 21 14t20 14q35 35 39 33
q-28 -29 -30 -32q49 42 84 105q31 59 25 86q-7 35 -56 7q-45 -28 -101 -106q54 74 97 101q-18 -13 -54 -52q-89 -101 -171 -282q-83 -184 -93 -309q-7 -88 49 -93q23 -1 53 10q17 7 27 13q-1 -1 16 7q10 7 28 23q-1 0 -7 -4.5t-12 -7.5l-6 -4q0 4 7 10.5t16 14t10 8.5
q19 19 32 36q30 40 58 92q54 98 79 204q14 58 13 91q0 2 -1.5 9.5t-0.5 10.5zM57 249q28 83 99 200q78 127 121 175l41 43l-38 -38q-65 -72 -132 -177q-62 -98 -97 -205q-28 -83 -35 -141q7 47 41 143zM450 682q-9 0 -13 -1q18 6 25 -2t5 -25q2 25 -17 28zM456 613
q9 25 11 38q-1 -16 -11 -38zM244 458q-2 -2 -2 -3q0 1 1 2l-22 -38l20 33l4 7l-1 -1l-1 -1zM453 604q-3 -8 -5 -10zM246 461l5 10l-7 -12l1 1zM422 676q-2 -2 -4 -2zM218 412l-3 -4z" />
    <glyph glyph-name="P" unicode="P" horiz-adv-x="505" 
d="M533 754q37 11 67 -20t33 -70v-4q0 -20 -1 -20q1 1 -2 11q1 -22 -4 -51l5 12q1 -4 -0.5 -9.5t-3.5 -12t-3 -9.5q-12 -42 -25 -70q-23 -55 -74 -117q-50 -62 -99 -99q-8 -6 -23.5 -13.5t-18.5 -9.5q-7 -4 -18.5 -13.5t-18.5 -13.5q-82 -50 -123 -57q-11 -2 -21 0
q-7 0 -19 2q-12 8 -14 -8q-7 -8 -12.5 -21t-12 -34t-7.5 -24q-39 -104 -47 -166q-2 2 -2 4q-15 -16 -43.5 -17.5t-37.5 21.5q-1 2 -1 5q-1 -1 -1 -4q-5 7 -6 19t1 21l5.5 24t4.5 17l21 102q13 58 28 89q2 5 7 14.5t7 14.5l4 14q3 14 4 15q1 -1 1 -4q2 6 2 8q-3 -7 0 11l1 6
q4 12 14 36q11 26 17 55q1 6 9 27t18.5 42t14.5 20l-1 -3q-2 -4 -1 -5q8 18 11 27q-2 -4 -4 -5q-1 0 12 30l29 64.5t17 37.5q20 49 31 66q3 4 9 9t8 8q2 2 4 8.5t3 8.5q17 34 29 39q25 11 42 -35q6 -16 -3 -33l3 2q1 0 -0.5 -4.5t-4.5 -10l-6 -11.5t-6 -9.5t-4 -3.5t0 3t3 6
q-39 -71 -77 -164l14 31l27 57.5t14 26.5q-1 1 -25.5 -56l-36.5 -85q-31 -76 -49 -141q39 79 76 133q15 22 46.5 60t38.5 47q9 19 14 20q-1 -1 -2 -2.5l-3.5 -5t-3.5 -5.5l-1 -2l14 18q-1 0 -2 1q1 5 5.5 11.5t9 11.5l11 12t8.5 9q17 20 41 42l17 17.5t22.5 22.5t20.5 16.5
t24 12.5zM532 632v1q5 88 -105 -46q-5 -5 -6 -7q-109 -131 -156 -207q1 4 5 4q-32 -61 -36 -67l-40 -78q43 21 46 18l-5 -3q-5 -3 -12.5 -7t-10.5 -6q144 60 246 212q-26 -37 -67 -82q-31 -31 -47 -45q-1 -1 -15 -10t-19 -14q5 6 19 16t18 14q18 15 35 32q41 45 67 82
q77 109 83 192l-1 -2zM40 115l-13 -63q9 31 29 89.5t28 84.5q-5 -15 -21.5 -51t-22.5 -60zM20 -13q1 6 0.5 17t0.5 17q-5 -21 -10 -48q1 3 5 7.5t4 6.5zM240 469l-1 -1l-20 -51zM241 473q-1 -2 -1 -3v1q1 1 1 2zM243 477v1l-1 -2zM256 359q1 1 1 2q0 -1 -0.5 -1t-0.5 -1z
" />
    <glyph glyph-name="Q" unicode="Q" horiz-adv-x="557" 
d="M404 99l-5 -11q-5 -12 -18 -27q-4 -4 -22 -20t-23 -25q-3 -7 3 -16.5t21 -23.5l14 -13q11 -12 27.5 -34.5l23.5 -31.5q1 -2 9 -9.5t10 -11.5t0 -10q-4 -6 -11.5 -3t-12 7t-11 10.5t-8.5 7.5q-50 33 -58 40q-4 4 -26 19t-28 26l-32 -24.5t-33.5 -22t-39 -19t-37.5 -5.5
t-39 9q-41 21 -71 75q-1 1 -4 6t-5.5 10l-5.5 11.5t-4 10t0 5.5q8 -16 10 -16q-14 23 -22 52v-1q-5 -2 -5.5 61t1.5 73q19 120 101 269q37 69 76 108q16 17 43.5 55.5t43.5 55.5q60 67 102 68q25 1 51 -23q24 -24 17 -28q2 1 2 -1q0 -6 -4 -8q-2 -2 -10 -2q-3 0 -5 -1
q6 1 -4 -2q-1 -1 -2 -1q-2 -1 -3 -1q-4 -2 -11.5 -7.5t-8.5 -6.5l-41 -33q46 44 72 56q-18 -6 -61 -40l12 11q-153 -127 -246 -346q78 158 189 286q-99 -126 -178 -309q27 64 70 138q17 32 39 67q3 5 16 21.5t16 25.5q-2 -7 -6.5 -14t-11 -16l-9.5 -13q-6 -9 -16.5 -27
t-15.5 -25q-29 -51 -54 -105q-52 -109 -78 -209l-12 -50t-3.5 -46.5t12.5 -48.5q16 -27 46 -26t53 14t47 32q-30 30 -36 44q-7 13 -1 27.5t22 16.5q8 1 16 -4t18 -16t13 -13q12 -9 15 -8.5t14 11.5q30 30 98 133q55 89 67 113q-1 -2 -5.5 -7.5t-7 -9.5t-2.5 -5q-2 7 4 20
t15.5 28.5t10.5 18.5q26 60 41 107q20 62 21 90q1 22 -11.5 27.5t-32.5 -2.5q-65 -24 -130 -100q-3 -4 -10.5 -15.5t-14 -19.5t-13.5 -10q-14 -3 -17 10.5t1 24.5q5 25 22 50t27.5 35l40.5 38q25 23 38.5 34t40.5 21.5t49 3.5q56 -20 78 -101q17 -62 -20 -160
q-31 -82 -85 -167l-60 -86q-26 -42 -30 -45q2 2 4.5 7l3.5 7z" />
    <glyph glyph-name="R" unicode="R" horiz-adv-x="539" 
d="M533 754q37 11 67 -20t33 -70v-5q0 -19 -1 -19q1 1 -2 11q1 -22 -4 -51l5 12q3 -14 -23 -79q-20 -56 -58 -108q-39 -53 -68 -80q-1 -1 -9.5 -10l-12 -12.5l-11.5 -11t-13 -11.5t-12.5 -9.5t-14 -8.5t-13.5 -5q168 145 198 316q-21 -118 -141 -243l-29 -33.5t-36 -40
t-32 -26.5q-102 -65 -151 -62q29 -54 50 -87l-32 57q19 -32 56 -85t45 -62l69 -79l15.5 -18.5l19 -22.5t16.5 -16q-1 1 -4 7l9 -5l19 -10.5t11 -6.5q20 -8 30 -7q39 0 75 38q15 16 18 9q2 -4 3 -13q1 -14 -11 -29q-70 -89 -133 -95q-28 -3 -59 16q-5 4 -28.5 26.5
t-22.5 24.5l2 -1l-4 4q1 -3 -5 2q-5 3 -6 4q-4 4 -18 22q-10 14 -30 38q-6 5 -25 35t-14 34q1 1 3 -2l2 -2q-10 17 -11 20v-5q-3 -1 -51 95q-3 6 -9.5 17t-11 20t-6.5 18q-2 5 -3 14t-4 15q-57 -134 -69 -221q-2 2 -2 4q-16 -18 -45 -17t-39 23q-7 8 -5.5 28t4 31.5t8 31.5
t7.5 28q25 108 32 129q2 5 21 46q1 2 3 10.5l4 16.5t3 8q1 -1 1 -4q2 6 2 8q-3 -7 0 11l1 6q4 12 14 36q11 26 17 55q1 6 9 27t18 42t14 20q1 0 0.5 -1.5t-0.5 -3.5l-1 -3q8 18 11 27q-2 -4 -4 -5q-1 0 12 30l29 64.5t17 37.5q20 49 31 66q3 4 9 9t8 8q2 2 4 8.5t3 8.5
q17 34 29 39q25 11 42 -35q6 -16 -3 -33l3 2q1 0 -0.5 -4.5t-4.5 -10l-6 -11.5t-6 -9.5t-4 -3.5l1 2q0 2 1.5 5.5t2.5 6.5q-116 -191 -184 -421q28 94 81 191l-10 -23l24 51q-34 -88 -46 -134q39 79 76 133q15 22 46.5 60t38.5 47q8 18 13 20l-9 -15l14 18q-1 0 -2 1
q1 5 5.5 11.5t9 11.5l11 12t8.5 9q17 20 41 42l17 17.5t22.5 22.5t20.5 16.5t24 12.5zM532 632v1q5 88 -105 -46q-5 -5 -6 -7q-109 -131 -156 -207q1 4 5 4q-32 -61 -36 -67l-40 -78q43 21 46 18l-5 -3q-5 -3 -12.5 -7t-10.5 -6q144 60 246 212q-26 -37 -67 -82
q-31 -31 -47 -45q-1 -1 -15 -10t-19 -14q5 6 19 16t18 14q18 15 35 32q41 45 67 82q77 109 83 192l-1 -2zM297 592q-5 -12 -17 -34l26 57l-9 -22v-1zM211 183l1 -1q0 -1 1 -3.5t2.5 -5.5t3.5 -7.5t4 -7.5q-14 24 -12 25zM282 61l1 -2v1zM282 61l-2 2zM256 359q1 1 1 2
q0 -1 -0.5 -1t-0.5 -1z" />
    <glyph glyph-name="S" unicode="S" horiz-adv-x="499" 
d="M600 738q13 -11 30 -51q11 -20 -22 -69q-25 -37 -62 -76q-42 -42 -57 -51q-20 -12 -31 -5q-9 6 6 21q2 1 21.5 37.5t27.5 35.5q-1 -1 -3.5 -6l-6 -12t-5.5 -10q14 19 26.5 39.5t26 49.5t12 51.5t-21.5 31.5q-25 11 -80 -8q-38 -13 -73 -40q48 36 106 46q40 7 54 -5
q5 -5 7 -11.5t1.5 -11t-2.5 -12.5t-2 -11q0 3 0.5 14t0 14.5t-3 10.5t-9 9.5t-17.5 3.5q-40 1 -90 -23q-78 -38 -114 -109q-15 -30 -18 -62t7.5 -67.5t20.5 -60.5t30 -64.5t27 -56.5q-8 16 -30 54t-32 59q5 -12 15.5 -42.5t20.5 -47.5q50 -80 60 -113q39 -129 -70 -223
l20 14q0 -14 -25 -31.5t-46.5 -27.5t-39.5 -17q-48 -19 -99.5 -19.5t-99.5 20.5q-40 21 -53 62.5t-3.5 82.5t32.5 78q18 29 55 64.5t51 10.5q4 -7 -1.5 -21.5t-15.5 -31.5t-12 -22q-10 -21 -17 -53q-15 -67 1 -101q21 -49 94 -28q75 23 117 93q21 36 24 73q0 14 -3 29
q-7 18 -6 21q0 -1 6 -16q-4 15 -5 21l-2 2q-2 5 -3 5q-5 12 -8 22l-18 45q-12 31 -37.5 89t-28.5 66q-26 62 -29 121q-8 70 10 70l-1 -4q-1 -4 -1 -8l-1 -4q6 28 21 56l-7 -10q5 33 71 94q54 50 125 68q63 16 136 -15q32 -12 49 -27zM41 -72q-28 39 -20.5 104t39.5 111
q-25 -34 -38 -69.5t-9.5 -75t28.5 -70.5zM299 510v-14v14z" />
    <glyph glyph-name="T" unicode="T" horiz-adv-x="442" 
d="M818 732q2 -15 -45 -23q-7 -2 -28.5 -3.5t-30.5 -4.5l-2 -3q-3 -3 -5 -4q-3 -2 -13 -4t-38 -7l-72 -12q-4 0 -14 -0.5t-16.5 -1t-14 -4t-10.5 -9.5q-1 -2 -1.5 -7.5t-0.5 -7.5q-1 -3 -18 -34l-38 -76l-16.5 -34t-17 -40.5t-14.5 -34.5q-26 -61 -27 -64q-10 -41 -14 -52
q-9 -23 -47 -108.5t-55 -132.5q-13 -36 -22 -55t-28.5 -53.5t-44 -50.5t-52.5 -14q-67 6 -103 75q-28 53 -30 110q0 20 4 24q13 14 36 -20l17.5 -26l19 -28t19 -25t23.5 -23t17.5 -9t14.5 12q31 39 54 111q31 93 103 277q78 206 112 274q-17 -3 -51 -7q-7 -1 -18.5 -5
t-16.5 -5q-9 -3 -20 -4.5t-25 -2.5t-21 -2q-50 -6 -75 1q-23 7 -36.5 25.5t8.5 33.5q12 6 38 9q106 18 143 20q34 3 56 8q15 5 30 6h10.5t13.5 1t10 3q8 5 13 17.5t7 14.5q18 20 60 8q6 -2 11 -5t8 -5.5t7.5 -7l7.5 -7.5t2 -5l4 -2q5 -1 19 2q12 0 36 2q86 4 144 0
q10 -2 16 -2l3 3q2 4 5 3q7 -1 9 -9zM437 500q10 20 32 69.5t36 74.5q-57 -85 -70 -117q-8 -18 -23.5 -58l-33 -86.5l-24.5 -64.5q70 159 83 182z" />
    <glyph glyph-name="U" unicode="U" horiz-adv-x="562" 
d="M614 540q1 -7 -10 -18q1 1 3 1q1 0 -4.5 -9.5t-12.5 -18.5t-8 -8q-1 0 1.5 4.5t4.5 8.5l2 4q-48 -71 -87 -164q49 102 55 106q-9 -12 -56 -117q-29 -69 -45 -124q-4 -14 -14.5 -57t-17.5 -66q-26 -91 -28 -108q2 8 5 12q-1 -1 -1 -25.5t1 -29.5q2 -12 3.5 -12.5t6.5 -0.5
q6 1 13.5 6.5t12.5 10.5t12.5 14t8.5 10q1 2 8 12t12.5 16.5t10.5 8.5q9 5 14 -6q6 -14 -9 -55q-6 -16 -25 -45q-26 -38 -60 -37q-43 3 -67 36q-34 46 -24 127q0 2 12 43q0 2 0.5 11t1.5 17t2 8q1 -1 1 -3q1 2 1 7l1 21q0 4 1 6q3 13 11 39q3 11 8 35t9 37q-60 -96 -87 -133
q-25 -33 -96 -110q-11 -15 -16 -17l12 13l-19 -18q4 3 4 2q-3 -6 -13 -13q-7 -7 -19 -9q-8 -1 -22 3q-62 20 -100 86q-13 24 -11 65q3 32 9 64q0 1 3.5 14.5l6.5 24.5t5 11v-2t-0.5 -4.5t-0.5 -4.5v-2q8 36 13 53l-6 -13q-1 7 2 17t8 22t6 16q8 28 13 42q17 57 40 105
l48 111q25 48 29 52q14 16 17 23q29 63 52 92q8 10 14 14q20 10 43 -4.5t33 -36.5q4 -19 2.5 -24.5t-11.5 -17.5q6 4 6 3q0 -5 -20.5 -33t-23.5 -27l14 23q-32 -44 -62 -100q6 8 8 9q-4 -4 -16.5 -31t-23.5 -54l-23.5 -56.5t-12.5 -30.5q-38 -92 -57 -174l3 30l-1 -6
q0 1 0.5 4t0.5 5l-6 -25l4 10q-2 -17 -9 -52t-9 -52.5t0 -52.5q3 -20 11 -24q22 -10 101 90q69 80 95 116l-3 -4q-4 -5 -7 -8t-5 -3q38 59 42 66q16 22 46 68l98 148l15.5 26t22.5 34t20 20q20 14 48.5 0.5t31.5 -37.5zM353 65q4 17 9.5 55t11.5 60q-23 -61 -30 -108
q-14 -82 -2 -144q-9 46 11 137zM186 445q-32 -80 -44 -121q-5 -14 -11 -42q17 61 59 157q50 113 106 192q-76 -105 -110 -186zM163 348q31 80 63 146q-35 -71 -63 -146zM480 282l7 20l-18 -46q7 14 11 26zM240 523v1v-1zM315 655q0 -2 -2 -2q2 0 2 2z" />
    <glyph glyph-name="V" unicode="V" horiz-adv-x="362" 
d="M171 479l6 -114q2 -30 -1 -60.5t-10 -73.5t-9 -57q2 6 4 8q3 -1 1 -20q13 25 43.5 72.5t43.5 72.5q14 26 34 56l31.5 46l41.5 55.5t36 46.5q83 106 136 158q13 13 38.5 33t32.5 26q2 2 4.5 5.5t7.5 5.5q11 3 24 -7.5t17 -21.5q6 -16 -7.5 -28t-36.5 -21.5t-28 -13.5
q-4 -4 -8.5 -11.5t-8.5 -11.5q-4 -5 -14 -13t-14 -12q-52 -50 -62 -61q-87 -100 -180 -238q-4 -6 -12.5 -17t-14.5 -20.5t-10 -18.5q-2 -4 -7 -16.5t-8 -18.5q-85 -147 -90 -157q-7 -13 -21.5 -56t-28.5 -62q-8 -10 -32.5 -17.5t-46.5 -2.5t-22 24q0 8 9.5 26.5t9.5 19.5
q10 30 20 92q9 69 15 88q7 22 7 26q-1 23 1 24v-1q1 -1 1 -2q0 1 0.5 3t0.5 4q-2 -5 -3 2q-1 6 -1 11q-1 5 0 14.5t1 12.5q4 41 2 62q-9 103 2 105q1 1 1.5 -3t1.5 -4q-1 9 -1 28q0 -1 -0.5 -2.5t-1.5 -2.5q3 8 -11 118q-1 11 -8 58q-4 19 -5 31q-1 5 0.5 12.5t1.5 9.5t-2 9
t-1 12q3 15 34 38q35 24 56 25q10 1 13 -2t5 -12q1 -2 1 -3q0 1 2 5q1 0 4 -10.5t4 -20t-1 -11.5q-1 -1 -2 1t-2 6q8 -56 11 -103l-2 52q2 -34 4 -78v-11v1v-2v1v-2v1q0 -1 0.5 -2t0.5 -2v1q-1 1 -1 2q0 -3 1 -5q0 -12 1 -18q-1 0 -1 1l3 -64q0 1 -1 4v-2q1 -1 1 -2zM90 251
v3q3 43 1 133q1 -120 -18 -260q-5 -35 -19 -105q0 -2 -7 -25q11 28 18 58q12 51 25 196z" />
    <glyph glyph-name="W" unicode="W" horiz-adv-x="677" 
d="M918 710q3 -9 -1 -17.5t-9.5 -13t-16 -11.5t-13.5 -10q-16 -12 -23 -19q-4 -4 -5.5 -6.5t-2.5 -5.5t-3 -7q-6 -10 -15 -21l-20.5 -24t-16.5 -20l-51 -72q-2 -3 -21 -28t-26 -39q-14 -33 -29 -57q-18 -27 -73 -124q-9 -16 -23.5 -48.5t-22.5 -48.5q-25 -45 -78 -158
q-14 -31 -17 -43q-3 -13 -8.5 -19t-18.5 -7q-26 -2 -47.5 16t-24.5 44q-3 19 0 135q2 47 11 73q7 23 7 25q0 1 1 8l1 6q0 29 1 33q1 5 5 22t5 26q0 6 2.5 26t7.5 41.5t11 20.5q1 0 0.5 -3t0.5 -3q2 14 4 19q-1 0 -1 -0.5t-1 -0.5l3 14q4 14 7.5 29t4.5 17l-38 -49
q-6 -8 -24.5 -30t-26.5 -35q-4 -7 -95 -146q-37 -54 -86 -139q-4 -7 -15 -24.5t-18 -30.5t-11 -26q-2 -10 -4 -15q-9 -22 -38 -27.5t-48 6.5q-27 16 -11 63q9 26 19 64q6 26 23.5 74.5t23.5 71.5q26 96 38 144q34 134 41 243q-2 -23 -6.5 -51.5t-8.5 -49t-11 -53t-10 -48.5
q-23 -112 -67 -244q4 17 12.5 58t14.5 63q2 8 8 24t9 25q1 0 4 16.5t3 17.5q0 -2 1 -3q0 1 0.5 2.5t0.5 2.5q-1 -3 -2 2q-1 14 1 16q1 9 5 27q9 35 10 58q0 15 6 56.5t12 41.5q1 0 1 -2t-0.5 -3.5t0.5 -2.5q2 10 4 28q-2 -5 -3 -5q4 12 4 56q-33 -22 -33 17q1 25 11 45
q17 39 47 40q3 0 6 -2t5 -2q3 -1 5.5 0t4.5 1q20 -3 34 -34q11 -24 13 -60q0 -7 -2.5 -16t-2.5 -13q0 1 2 3q2 0 2 -10t-1.5 -20.5t-3.5 -10.5v17q-5 -52 -29 -177l7 34.5t11 56.5l6 26l-36 -199q-31 -159 -42 -200l53 76q9 13 27 42.5t30 45.5q13 15 35.5 45.5l29.5 39.5
q6 8 15 25t15 25q16 24 37 50l46.5 56.5t37.5 46.5q1 1 2.5 4.5t4 6t7.5 3.5q17 4 35 -14q17 -14 19 -36q0 -7 -1.5 -11t-5 -7.5t-4.5 -6.5l4 3q2 -1 -3.5 -17t-7.5 -16q-3 0 -1 8q-18 -52 -35 -140q1 2 3.5 13l6.5 28t7 28q-5 -24 -12 -64l-13 -74.5t-6 -35.5
q-6 -70 -12 -105q-1 -8 -7 -34t-7 -39q0 1 3 4q3 -1 1 -46q39 90 57 126q6 12 23 42t25 47q41 90 116 209q89 141 136 200q10 13 31.5 35.5t30.5 33.5q2 2 3 6q2 6 10 7q11 2 22.5 -8.5t15.5 -21.5v-1zM474 323q-2 -7 -2 -23q1 5 2 11t3 13.5t3 12.5v-1l-1 -2zM510 458
q-3 -6 -5 -15q3 15 5 15z" />
    <glyph glyph-name="X" unicode="X" horiz-adv-x="637" 
d="M665 726q8 -4 19.5 -21.5t4.5 -22.5q1 -6 -2.5 -12.5t-10.5 -14.5t-9 -11q-18 -25 -58 -71l-41 -48l-47.5 -56.5t-41.5 -46.5l-30 -32q-17 -20 -17 -34q-1 -19 7 -54.5t9 -44.5q2 -21 5.5 -61t7 -72t8.5 -58q0 11 3 11q4 -1 8.5 -17t9 -35.5t5.5 -22.5q17 -46 31 -64
q23 -30 51 -29q17 0 38 9.5t33 22.5q1 1 5 7t7.5 9.5t7.5 1.5q8 -4 5 -27q-2 -10 -9.5 -20t-21.5 -23.5l-16 -15.5q-38 -44 -86 -49.5t-90 34.5q-42 43 -63 123q-2 9 -3.5 19t-3 22t-2.5 19q0 1 -3 8.5t-5.5 15t-1.5 9.5q0 -1 3 -7l-2 16q1 -9 -4 1l-2 5q-1 2 -4 21
q-3 16 -7 48q-2 16 -8.5 47t-8.5 46l-94 -106l-118.5 -130.5t-100.5 -100.5q-36 -33 -50 -43q-2 -1 -6.5 -4.5t-7 -4.5t-5.5 -2t-5.5 1.5t-3.5 7.5q-2 7 0.5 16t9 19.5t12 18.5t13.5 18t10 13q5 8 25 29t26 33q2 3 4 10.5t5 11.5q5 8 17.5 23.5t13.5 16.5q11 15 33 40.5
t30 35.5l33 40.5l39.5 48.5t30.5 42q14 22 67 77q15 17 12 45q0 4 -6 44q-1 11 -4.5 46.5t-6.5 54.5q-1 8 -8 46t-8 58q0 5 1 14t0 14l-10 27q-10 35 -36 57q-18 15 15 25q37 13 59 -7q-2 4 -2 6q1 2 11 -8t18.5 -22t4.5 -15q-12 18 -14 19q24 -35 38 -84l-2 11q1 0 12 -48
t12 -56q6 -35 16 -107q36 50 118 144q65 77 89 97q21 18 43 3zM471 14q-13 45 -28 156v6q-1 8 -4.5 23.5t-4.5 19.5q1 -7 4 -69t10 -91q11 -54 36.5 -102.5t67.5 -55.5q-53 13 -81 113zM412 479q2 2 -1 7q1 -3 1 -7z" />
    <glyph glyph-name="Y" unicode="Y" horiz-adv-x="551" 
d="M40 306l3 7v-1q4 8 6 28t3 23q16 64 27 95q40 114 68 170q4 7 13 18.5l12 15.5l18 39q1 1 5 10.5t6 13.5l6 12t7.5 12.5t9 9t10.5 6.5q31 13 64 -30q17 -29 1 -54q5 5 5 3q0 -4 -8.5 -18.5t-18 -27t-11.5 -11.5q12 24 13 27q-34 -56 -52 -95q3 4 5 5q-9 -6 -42 -106
q-50 -130 -66 -258q-5 -14 -1.5 -37.5t24.5 -17.5q6 2 11.5 5.5t10 7t10.5 10l9 10l9 11t8 9.5q119 139 152 187l-14 -14q-1 4 1 9.5t5.5 10l8 10.5t5.5 7q13 16 35 50l91 143q33 50 41 64q0 1 3 5.5t3.5 5.5t3 5t3.5 5t4 3t5 3t5.5 1.5t7.5 0.5q18 0 39.5 -16t29.5 -35
q0 -1 1 -2q0 -2 1 -2h-1l1 -2l1 -1q5 -26 -22 -76.5t-29 -56.5q-1 -4 -10 -36t-16 -49l-38 -95l-76 -189q-8 -19 -31 -80.5t-38 -94.5q-77 -169 -120 -236q-22 -34 -45 -62q-26 -33 -68.5 -33t-79.5 24.5t-53 59.5q-47 107 111 251l7 7q69 67 72 45q1 -4 -3 -10.5
t-10.5 -14.5t-7.5 -9q-18 -23 -33 -48q-37 -58 -59 -122q-22 -67 -12 -93q6 -16 19 -19.5t26.5 2t24.5 15.5q22 21 64 101q49 96 98 216.5t76.5 200l76.5 224.5q-91 -152 -129 -207q-36 -50 -68 -83q-17 -15 -27 -29q-1 -1 -4 -7t-6.5 -10t-6.5 -4l5 8l-10 -10q2 0 3 -1
q-4 -21 -30 -32.5t-46 -6.5q-52 13 -95 63q-26 32 -23 83l1 16q1 17 3.5 30t6.5 13v-3v-6v-4q4 25 7 41l-1 -2q0 -1 -1 -1zM104 471q2 5 7 16t7 17q2 4 5.5 10l11 19.5t11.5 22.5l5 9q10 27 19.5 49t14.5 32t19.5 36.5l21.5 39.5q-6 -11 -32.5 -54.5t-36.5 -66.5
q-34 -76 -53 -130zM347 -41q24 53 56 131q-2 -4 -8.5 -14.5t-11.5 -19.5t-7 -14q-6 -15 -13.5 -40.5t-15.5 -42.5zM637 636v1h-1z" />
    <glyph glyph-name="Z" unicode="Z" horiz-adv-x="545" 
d="M677 726h1q2 2 4 2q1 0 1 1v-1q17 6 22 -13t-4 -33q-5 -7 -24.5 -24.5t-23.5 -13.5q-1 0 8 9q-9 -5 -19.5 -12.5t-16.5 -13.5l-17 -17l-16 -16q-1 -1 -4 -3.5t-5 -5t-4 -4.5q-26 -22 -178 -169q-33 -32 -66.5 -72t-71.5 -90t-61 -77l73 86q36 42 149 153l-75 -91
q-8 -10 -34.5 -37.5t-39.5 -44.5l7 5q-4 -3 -21 -30l-17 -26q-64 -87 -87 -125q7 -2 22 -3.5t22 -3.5q10 -2 40 -18q50 -23 77 -27q82 -14 168 41l12 9q13 9 22.5 13.5t13.5 0.5q6 -8 -13 -32q-31 -46 -111 -84q-89 -45 -156 -15q-14 7 -38.5 25.5t-46.5 29.5t-45 9
q-28 -1 -61 -30q-3 -3 -9.5 -12t-12.5 -12.5t-14 -0.5q-15 5 -23 23.5t-1 32.5q5 10 20 26.5t20 24.5l26.5 45l32 53t29.5 43q8 11 26.5 28.5t25.5 27.5q3 3 6 9t6 8l7 7q0 -1 -1 -3q1 1 7 15q5 7 18 23l55 66q58 74 68 66l-1 -2q-1 -1 -2 -3l-1 -2l21 22q-5 -4 -3 -1
q6 9 17 20l49 50q6 6 25.5 27t34 34t28.5 23q-29 -3 -120.5 6.5t-119.5 -5.5q-28 -8 -46 -26q-2 -2 -4.5 -7t-5 -7.5t-6.5 -2.5q-10 2 -10.5 12t5.5 22t12 21.5t9 13.5q2 4 6 10.5l6.5 10.5t6.5 9.5t9 8.5q15 11 52 15q18 2 55 0q5 0 29 1.5t29 -0.5q61 -10 129 -5t124 33z
M283 245l-1 -1z" />
    <glyph glyph-name="bracketleft" unicode="[" horiz-adv-x="355" 
d="M282 581l3 11q-1 -5 -2.5 -14t-1.5 -11l-48 -166l-32.5 -105.5l-39 -123l-33.5 -104.5q2 6 6 10q-5 -10 -9.5 -32t-5.5 -25q-12 -41 -29 -94q50 -3 104 -20q42 -13 32 -25q-3 -4 -25 -7l-54 -10q-65 -9 -91 -6q-51 2 -55 36q-2 13 0 26t7.5 33t6.5 26q15 63 30 104
q1 3 3 15t4.5 22t5.5 13q-1 -2 -1 -12q1 3 2 9t2 9q2 13 2 16q2 9 11 38q18 63 23 87q4 18 16.5 62.5t18.5 44.5q-2 -9 -2 -10l7 21q1 2 3 7t1 4.5t-4 -4.5q53 174 58 188q11 31 14 35q4 6 9.5 10t12.5 5.5t12.5 2.5t15 1.5t13.5 0.5q63 5 116 -2q2 0 12 -1t16.5 -2t13 -4.5
t8.5 -8.5q1 -2 -1 -3.5t-6 -1.5l-4 -1l-13 -4q-6 -1 -7 -1q-28 -7 -30 -3q8 2 15 3q-28 -4 -64 -4q-30 0 -35 -3l-1 -1q2 2 16 2t15 -1h-7.5t-14 -0.5t-8.5 -1.5q-2 -1 -4 -5q2 4 2 5q-5 -8 -9 -30zM218 568q2 8 4 12q-34 -74 -44 -113l-23 -82q2 6 11 29q34 81 52 154z
M240 433v2q-1 -5 -3.5 -13.5t-3.5 -11.5q5 18 7 23zM123 276l7 26zM246 453l-4 -11zM289 606q-3 -5 -4 -14q1 4 4 14zM239 617l-5 -11q1 1 1.5 3t1.5 4zM234 606l-3 -5zM230 401l3 9zM128 66v2v-2z" />
    <glyph glyph-name="backslash" unicode="\" horiz-adv-x="470" 
d="M417 -206q2 -13 -0.5 -16.5t-12.5 2.5q-4 3 -23 38q-5 8 -31 55q-46 87 -58 115q-4 8 -9 23t-8 21q0 1 -9 17t-8 18q2 -2 2 -3l-3 6l-10 16l-15 32q-19 43 -25 53q-1 1 -5 9l-8 16l-10 20l-10.5 21.5t-8.5 20t-5 15t0 7.5l1 -2l3 -3l1 -2l-13 28q0 -1 0.5 -2.5t1.5 -2.5
q-1 0 -25 53l-48.5 111t-27.5 68q-1 5 -36 89q-7 16 -14.5 43.5t1.5 28.5l-3 1l13 -2q1 0 2 -1q4 -2 13.5 -13.5t7.5 -13.5l-2.5 2.5t-4 5t-4.5 5.5l-2 2q24 -29 41 -57v1q1 -1 2 -4q16 -27 34 -61q6 -10 14 -25l12.5 -23t5.5 -10l67 -135q16 -32 32 -69.5l34.5 -83.5
l28.5 -70q0 1 -0.5 2.5t-0.5 2.5q2 -4 10 -19t9 -18q5 -10 22 -52l16.5 -40.5t19.5 -51.5q40 -112 46 -167v-1zM157 441l5 -10zM156 445l-2 1l1 -1h1zM156 445q0 -2 1 -3q-1 1 -1 3z" />
    <glyph glyph-name="bracketright" unicode="]" horiz-adv-x="417" 
d="M407 624q2 -42 -25 -136q-9 -33 -21 -67q-1 -2 -5 -22.5t-7 -22.5l2 13l-5 -17l-2 -21q-4 -16 -11 -38q-15 -53 -17 -63q-9 -37 -21 -76q-17 -51 -19 -51l2 10q-5 -14 -10 -32l2 3q-2 -3 -18 -62t-35 -112.5t-33 -60.5q-8 -4 -16.5 -5.5t-22.5 -2.5t-18 -1q-28 -3 -83 1
q-58 4 -68 14q-6 6 -5 7.5t7 2.5q3 1 5 1h-4q49 14 52 8q-1 0 -3.5 -0.5l-7.5 -1.5t-8 -2h-3q21 3 63 5q1 0 21.5 -0.5t20.5 2.5l2 2l-2 -2q0 1 -7.5 1t-13.5 -0.5t-8 0.5h7h14l8 1q3 2 5 10.5t3.5 18.5t2.5 12l24 80l43 149q14 51 45 144.5t41 126.5q-2 -4 -4 -7q1 3 3 10
t3.5 15t1.5 9l11 36l25 81q-87 7 -126 27q-32 17 25 27q7 1 19 2q9 2 11 2q1 0 11.5 2t18.5 3t22 3t25 2.5t24 1t23 -1.5t18.5 -5t13 -9t4.5 -14zM183 -47l32 94q3 10 24 91q-18 -62 -32 -91q-18 -41 -29 -86q-2 -9 -5 -25t-4 -19q10 24 14 36zM126 -70q-8 -26 -9 -28
q4 6 9 28zM168 78l-6 -20q1 3 3.5 11.5t3.5 13.5q0 -1 -1 -3v-2zM173 97q0 -1 -0.5 -2.5t-0.5 -2.5q0 1 0.5 2.5t0.5 2.5zM271 105l-1 -1z" />
    <glyph glyph-name="asciicircum" unicode="^" horiz-adv-x="234" 
d="M279 435q4 -21 -5 -39t-31 -17q-10 1 -21 12q-28 33 -26 127q-51 -51 -78 -75q-2 -1 -10 -8.5t-14.5 -13t-15.5 -12t-16.5 -8.5t-12.5 0q-16 6 29 50q5 6 6 7q22 32 29 39l30 30q48 46 57 52q2 1 10.5 7t12.5 8t11 5t13 1.5t11 -6.5q18 -15 20 -71q1 -13 0 -44.5t1 -43.5
z" />
    <glyph glyph-name="underscore" unicode="_" horiz-adv-x="762" 
d="M773 -97l-1 -1l-1 -1q0 -1 -1 -1l-2 -1l-2 -1q-2 0 -4 -1q-4 0 -6 -1q-3 0 -7 -0.5t-6 -0.5q-9 -1 -26 -1q-6 0 -16 -0.5t-14 -0.5q-9 1 -28 1l-4 1h-9q0 -5 -15 -5l-58 -2q-7 0 -21.5 0.5t-22.5 0.5q-26 -2 -46 -2h-25q-1 0 -5 0.5t-6 0.5q-4 0 -13.5 -0.5t-14.5 -0.5
q0 -1 -9 -3q-14 -1 -42 -1h-22q-12 2 -17 2q-32 -2 -46 -2h-78q-2 -3 -33 -4h-75q-27 0 -41 1q-22 0 -41 3q-14 2 -19 4q-11 2 -20 6q-3 1 -9 5t-8 7q0 1 -1 3v3l3 5l9 3q3 0 3 -1q2 1 8 1h1q13 0 19 1q4 0 16 2h33q11 0 35 0.5t36 0.5q46 2 69 1q5 0 15.5 -0.5t16.5 -0.5
q4 0 11.5 -0.5t10.5 -0.5h16q48 3 49 3h55l54 -2q32 0 48 -1q3 0 9.5 -0.5t9.5 -0.5q161 -4 255 -12q7 0 10 -1h7q0 2 2 2q1 1 4 1h4q1 0 2 -1h2q0 -1 1 -1l1 -1v-5z" />
    <glyph glyph-name="grave" unicode="`" horiz-adv-x="162" 
d="M141 412q5 -33 -48 13q-8 7 -27.5 28t-31.5 29l-5 2.5t-4 2.5l-2.5 2.5t-1.5 3.5t0.5 5t2.5 7q1 2 4 3l3 1q1 1 0 3.5t1 3.5q10 11 26 13q24 1 35 -19q3 -6 11.5 -18.5t11.5 -19.5q5 -10 14 -37q0 -1 5 -8.5t6 -13.5v-1z" />
    <glyph glyph-name="a" unicode="a" 
d="M509 241q1 -10 -4 -21.5t-13 -24.5t-11 -19q-16 -36 -44 -84q-35 -56 -60 -85q-40 -52 -73 -57q-24 -4 -43.5 11.5t-28.5 40.5q-11 28 -11 61t5.5 57t16.5 60q0 9 1 16l-16.5 -23.5l-16.5 -23.5q-4 -6 -15.5 -26t-18.5 -30q-12 -18 -52 -60t-47 -31l11 7q-19 -13 -42 -6
q1 -1 2 -1l2 -2q-15 -2 -28 15t-18 34q-10 36 -1 87q18 96 69 171q21 28 31 35q4 4 12.5 8t11.5 6q28 24 50 24q54 0 79 -94q61 79 104 27q4 -5 6.5 -9.5t3 -10t1 -8.5t-2 -9.5t-3 -8t-5 -9.5t-4.5 -9q-28 -52 -42 -114q6 19 8 19t-5 -34q-22 -101 -2 -102q14 0 46 39
q31 39 85 121q32 51 37 58q17 23 23 13q2 -3 2 -8zM222 234q5 8 5 16q0 3 -5 19.5t-8.5 31t-1.5 16.5l2 -7l6 -14.5t3 -8.5q0 2 -1.5 9.5t-3.5 13l-4.5 12.5t-6.5 10.5t-9 3.5q-6 0 -12 -3t-11 -7t-10.5 -11t-9 -12t-8.5 -14.5l-7 -13.5t-6 -13t-5 -10q-36 -81 -46 -142
q5 23 36 109.5t43 85.5q-9 -2 -37.5 -77t-32.5 -94q-15 -61 -3 -65q12 -3 39 35q28 34 54 72l26 37q4 7 14 21zM245 185l9 24l-5 -7zM230 247q4 4 0 10v-10z" />
    <glyph glyph-name="b" unicode="b" horiz-adv-x="437" 
d="M508 245q2 -4 2 -7t-0.5 -4.5t-3.5 -5t-4 -4.5l-6 -3q-4 2 -5 -1q4 -4 1 -8q-6 -8 -23.5 -17t-23.5 -15q-3 -3 -7.5 -9t-8.5 -10q-2 -2 -6 -3t-5 -2q-15 -9 -25 -21q-45 -53 -53 -65q-11 -16 -23.5 -31.5t-32 -33.5t-37.5 -28t-38 -8t-35 21q-9 11 -10 19t4 14.5t11.5 11
l15.5 10.5t14 11q7 7 22 24.5t24 26.5q11 8 26 33l3 5q-5 -5 -1 6l1 4q1 4 3 8t5.5 9t4.5 8q14 26 16 42q3 31 -10 34l-40 -13l2 2q3 3 2 4q-11 -7 -18 -15q1 1 3 1q-5 -3 -38.5 -46t-39.5 -52q-4 -7 -10.5 -19.5t-12.5 -22.5t-13 -18q-5 -3 -7 -2q-6 -4 -4 -12
q-8 -16 -11 -24q-4 -8 -11 -30t-12 -31q-16 -27 -52 -2q-12 8 -21 24q0 1 -1 2.5t-2 5t-1 5.5l-1 2q-4 9 -5 12q0 -2 0.5 -4t0.5 -3.5v-1.5q-15 6 -8 91q5 70 27 157q27 117 84 259q62 150 99 216q35 66 73 114q55 67 100 66q37 -2 56.5 -34.5t18 -70.5t-5.5 -70
q1 -21 -4 -25l3 20l-6 -24q2 1 3 0q2 -8 -16 -51q-14 -30 -26 -49q-8 -16 -25.5 -44t-23.5 -39q-22 -39 -65 -83q-9 -11 -36.5 -37t-31.5 -23q10 10 10 11q-2 -1 -17 -14l-23 -20l7 4q-5 -9 -26 -19t-26 -19q-6 -10 -9.5 -23.5t-7 -35.5t-4.5 -25q-18 -79 -30 -161l2 5
l-4 -16q20 41 59 90q-23 -25 -33 -38q31 45 66 83q65 70 100 86q25 11 43 5q26 -8 35 -30.5t11 -54.5q0 6 2 9q1 1 2 -12.5t1 -27.5t-1 -17q57 37 81 56q3 2 8 7t9 8.5t8.5 6.5t9 2.5t7.5 -5.5h1v-1zM396 876q-7 0 -11 -4q9 6 11 2q-1 2 -20 -18.5l-31 -34.5l13 24
q-28 -36 -61 -107q3 4 6 6q-4 -3 -20 -42l-33.5 -84t-18.5 -47q-36 -92 -62 -179q80 64 124 119l83 108q8 11 28 70q16 44 19 85q6 102 -27 102zM199 693q-48 -90 -89 -204q45 119 94 203q51 88 78 125q43 59 80 72q-43 -14 -85 -71q-39 -50 -78 -125zM265 98q52 80 59 126
q-10 -45 -38 -84l-52 -70q-29 -34 -36 -38q31 17 67 66zM164 388q3 2 11 35l5 18l-13 -41v-1q-1 -1 -1 -3v-2l-1 -2l-1 -2v-2zM209 523l49 125q-17 -41 -49 -125zM104 95q6 14 21 35zM164 388v1q1 1 1 2l-1 -1v-2zM187 204l-1 -1q1 0 1 1z" />
    <glyph glyph-name="c" unicode="c" horiz-adv-x="322" 
d="M362 185q-38 -49 -49 -66q-54 -80 -136 -148q-58 -48 -107 -42q-22 4 -32 15q-7 7 -19 27t-9 24q4 -10 5 -11l-5 17q0 -3 -2 2q-6 12 -6 17q-2 13 -2 40q1 13 3.5 37t2.5 36q1 29 13 64q2 8 11.5 34t13.5 25v-2v-4l-1 -3l5 14.5t7 17.5l-4 -5q-1 1 17 37.5t22 43.5
q26 43 60 67q30 23 59 19q30 -4 46 -38q16 -35 14 -61q-2 -33 -10 -50q-6 -12 -24.5 -21t-29.5 -1q-5 3 -6 6.5t0 5l4 6t4 5.5l-5 -4q14 51 16 51v-6q-1 -5 -2 -11l-1 -6q9 29 5 61q-3 29 -22 14q-6 -5 -10.5 -11.5t-11.5 -19.5l-6 -13q-16 -33 -31 -75q21 56 44 93
q12 23 24 29l7 -2v-1l-3 1q-3 1 -4 0q-23 -22 -49 -80q-45 -105 -60 -196q-10 -67 -3 -100q5 -18 11 -21q15 -11 58 20q49 37 61 50q-6 -4 -9 -5q-1 0 8 12t11 14q10 10 28 32q3 3 21.5 26l27.5 35q1 1 9.5 13.5t16.5 22.5t19.5 23t19 15t15.5 -1q3 -7 3.5 -12.5t-5 -15
t-9.5 -15.5t-11 -14.5t-8 -10.5zM69 258l1 2v3q-3 -7 -9 -17.5t-9.5 -19t-4.5 -16.5q1 3 6.5 9t6.5 9q5 12 9 30zM32 141l-1 6q-5 -15 -3 -37q0 24 4 31zM104 165l14 48q-10 -32 -14 -48zM34 160l2 3q-5 -2 -5 -12zM122 225v4q-1 -2 -1 -6q0 1 1 2z" />
    <glyph glyph-name="d" unicode="d" horiz-adv-x="518" 
d="M591 244q1 -9 -4 -18.5t-11 -15l-16.5 -15t-13.5 -12.5q-21 -22 -61 -70q-21 -26 -58 -80.5t-56 -79.5q-43 -54 -66 -68q-40 -24 -72 9q-19 18 -26 50.5t-6.5 55t4.5 59.5q1 7 1 10q-51 -51 -96 -84q-41 -28 -65 -23q-28 6 -43 27t-17 48.5t2.5 54.5t13.5 48q4 10 15 44
t21 52q41 74 88 93q22 9 47 -3.5t36.5 -24.5t33.5 -37q32 117 95 255q1 1 3.5 9.5t6 17t7.5 11.5q-5 -4 -11 -27q4 11 16 33h-1q2 2 10 20t9 20q12 20 29 42q35 40 69 53q27 12 61.5 3t45.5 -38q21 -58 -44 -168q-32 -53 -54 -84l-26 -34l-9 -10q2 4 1 5l-8 -11h1h-1l-3 -4
l-43 -58q13 16 15 15l-74 -95q-7 -9 -12.5 -20t-9 -26t-5 -24.5t-4 -28t-3.5 -23.5q-30 -163 4 -163q7 0 26 23q18 19 41 51l78 108q47 64 82 102q1 1 5 6q47 49 52 21v-1zM223 178v4q9 39 1 51q-24 35 -30 39q-11 9 -19 7q-2 0 -3 -1l5 3q-19 -2 -45 -52q-2 -3 -3 -5
q-36 -69 -54 -132q0 -2 -3 -11t-4.5 -15.5t-3 -17t-1.5 -17.5t3 -13.5t8 -8.5q14 -7 44 20q-23 -20 -37 -18q-33 2 6 107q-37 -103 -7 -106q7 -1 15 3t17 11t15.5 13.5l15.5 15l11 10.5q32 30 47 46q5 5 8.5 10.5t5.5 12.5t3 11.5t2 14t2 13.5q0 2 1 5zM384 409q-1 -1 -1 -3
l-3 -5q0 -1 -1 -3v-2q-23 -64 -42 -129q1 2 5 6q-10 -14 -11 -19l4 4l7 9l51 66l-20 -25l-22 -23q62 77 115 162q1 2 9 15t10.5 16.5t10 16.5t10.5 19t9.5 18t9 19l6.5 18.5t5.5 20t3 18t0.5 18.5q0 21 -11 27q-22 12 -58 -48q-41 -66 -84 -186v-1q-1 -1 -2 -4v-1
q-1 -1 -1 -4zM300 327q8 13 8 27q-1 -4 -7 -13t-7 -12q-1 -4 -1.5 -16.5t-5.5 -18.5q2 0 2 2q1 1 3.5 7.5t4.5 14t3 9.5zM141 50l-16 -14h1q25 20 43 38q1 1 14.5 12t21 19t8.5 14q-35 -36 -72 -69zM318 418q2 7 8.5 23t9.5 25q-7 -17 -18 -38q-1 -2 -15 -44q9 17 15 34z
M383 406l-3 -5v-3l-1 -2zM167 274q-7 -7 -8 -7l1 1q2 1 3.5 3t3.5 3zM195 276l6 -4q-2 2 -6 4zM393 294q1 1 2 3q-2 -2 -2 -3zM395 297q1 1 1 2z" />
    <glyph glyph-name="e" unicode="e" horiz-adv-x="311" 
d="M383 247q4 -9 -4 -19l-31 -41l-54 -70q-7 -9 -22.5 -26.5t-22.5 -26.5l-13.5 -19.5t-16 -22.5t-15.5 -18q-35 -37 -63 -52q-24 -13 -51 -5q-38 10 -66 43q-10 12 -11 19q-2 12 -2 20q0 2 5 33q1 7 5 19.5t5 18.5q1 7 4 20.5t4 19.5v16.5t2 20.5q1 4 5.5 12.5t5.5 12.5
q-1 -1 -4.5 -7.5t-4.5 -9.5l-3.5 -11t-4.5 -12q-1 -4 -3.5 -11.5t-3.5 -11.5q-8 -18 -9 -27v-13t-1 -14q-4 -18 -4 -25q0 -2 1 -6t1 -5q0 -2 -1 -6.5t-1 -7.5q0 -5 1.5 -15.5t1.5 -12.5q-17 30 -8 86q12 70 16 88q20 93 78 164q57 75 126 62q38 -8 55 -30q19 -25 6 -65
q-15 -44 -77 -96q-24 -20 -42 -31q-10 -6 -32 -14l-17 -6q-9 -3 -11 -7q-3 -6 -3 -16.5t-1 -13.5q-2 -10 -8 -38q-12 -58 -7 -80q3 -12 11 -16t19.5 1t22.5 11t24.5 17.5l19.5 16.5t13 12q4 4 9 8.5t10.5 10.5t8.5 9q2 2 7.5 8t7.5 9q2 5 2 7q9 14 43 55q16 19 51 66
q1 1 3.5 5l4 6.5t4.5 6.5t5.5 6l5.5 4.5t6 3.5t6 0.5t5.5 -3t5.5 -6.5v-1q1 -1 1 0zM135 236q-3 -5 -7 -16t-6 -16q49 26 84 67l17 22q1 2 5 6.5t5 7.5q0 2 -0.5 7t0.5 8l4 21q1 11 -3.5 23t-14.5 10q-7 -2 -18 -16l-18 -24q-9 -14 -17 -30t-17 -37l-13 -30q0 -1 -1 -3z" />
    <glyph glyph-name="f" unicode="f" horiz-adv-x="341" 
d="M413 246q4 -16 -5.5 -33t-27.5 -36t-22 -26q-20 -34 -57 -62t-76 -39q-1 0 -15.5 -1.5t-17.5 -4.5q-3 -2 -8 -46q-6 -28 -10 -42q-2 -7 -11 -41t-14 -48.5t-15 -39t-21 -41.5q-15 -23 -34.5 -36.5t-43 -15.5t-46.5 16q-45 34 -38 145q3 51 14.5 101t35 122.5l30.5 95.5
q31 110 122 284q45 89 88 151l13 19l16 23t16.5 21t20.5 21t20.5 13.5t22.5 7.5q32 3 47.5 -16t15 -50t-6 -59t-13.5 -48q-52 -121 -148 -246q-44 -57 -110 -133q-36 -39 -37 -40q-11 -12 -18 -30q-12 -36 -14 -43q-31 -90 -50 -167q-22 -94 -14 -128l-4 3l1 -1
q31 -58 88 46q15 27 25 52q28 66 41 130q6 30 5 35q-1 6 -7 18t-7 18q-8 35 0 71q5 20 17 26t25 -12q6 -12 10 -39q0 -3 -1 -20.5t2 -19.5q7 -17 42 0q49 19 119 100q1 1 4 6q44 61 51 40v-1zM142 293l-21 -51q102 115 169 228q25 40 60.5 129t11.5 96q-4 1 -7.5 0t-7.5 -5
l-6 -6t-6.5 -7.5t-4.5 -6.5q-22 -28 -68 -114q-47 -88 -113 -245l-6 -16v1l-1 -1v-2zM10 -39q-28 -83 -23 -128q0 16 3.5 35t9 40.5t6.5 24.5q6 34 17 69q-5 -13 -13 -41zM146 303q0 1 2 4q1 3 1 4z" />
    <glyph glyph-name="g" unicode="g" horiz-adv-x="437" 
d="M510 240q-1 -7 0 -10t-4 -8.5t-6 -7t-7.5 -6t-8.5 -5.5l-81 -62q-61 -49 -87 -72q-33 -26 -41 -34q-9 -10 -20 -47l-16.5 -56.5l-18 -60.5l-17.5 -55t-21 -60t-23 -52.5t-28 -54.5q-1 -2 -7 -12.5l-7.5 -13l-7 -11.5t-8.5 -12.5l-9 -10t-11.5 -9.5l-12.5 -6.5t-15 -5.5
q-35 -8 -64.5 13.5t-44.5 57.5q-24 59 29 136q42 61 81 105q20 23 64 63q4 4 30.5 26.5t37.5 36.5q8 10 13.5 26t10.5 38.5t8 30.5l22 78q-14 -26 -74 -107q-3 -4 -13.5 -19t-15.5 -21.5l-14 -17.5t-18 -18.5t-18 -13.5q-25 -15 -44 -6q-7 3 -25.5 21t-15.5 23q2 -2 3 -2
l-3 7q1 -7 -6 6q-3 5 -5 9q-5 16 -5 41q0 39 5 65q4 26 21 53q1 2 6 10.5t11 16.5t8 7l-1 -3q-3 -4 -2 -5l17 25q-3 -3 -5 -3q-5 3 40.5 53.5t58.5 62.5q27 27 53 40q5 3 9.5 4t9.5 1t8 1q4 1 9.5 3.5t8.5 3.5q19 5 41.5 -1.5t33.5 -20.5q10 -9 9.5 -30.5t-17.5 -22.5
q-2 0 -14 7l3 -3q-27 1 -39 -1l13 5q-21 -4 -42 -17t-41 -35.5t-31.5 -37.5l-28.5 -39q66 80 81 93q-12 -11 -42 -48.5t-35 -44.5q-48 -69 -67 -127q-14 -38 -10 -64q2 -20 20 -6q34 25 75 80q-2 -2 -3 -2q-2 0 6.5 13l12.5 19l27 41l56 83q25 35 33 38q32 14 58.5 -7.5
t8.5 -52.5q-54 -94 -71 -147q2 -1 17 10.5t32.5 27t19.5 17.5q44 36 67 52q8 7 25.5 19l26.5 18q32 29 40 16q1 -3 2 -8zM156 -100q9 25 14 44q-63 -58 -122 -135q-1 -1 -11 -14t-12.5 -17t-11.5 -16.5t-12 -18.5t-9.5 -18t-8.5 -20t-5 -18.5t-2.5 -20t3.5 -18.5
q20 -72 77 14q15 23 27 47q25 51 69 180q4 8 4 11zM152 -170v3q-7 -18 -52 -116q4 7 14.5 23t15.5 25q12 27 22 65zM102 200l19 31q-3 -5 -11 -13q-17 -18 -31 -50q22 31 23 32zM101 174l12 20q-12 -16 -21 -33z" />
    <glyph glyph-name="h" unicode="h" horiz-adv-x="431" 
d="M496 246q4 -2 7 -6q2 0 -4 -13.5t-13.5 -28.5t-9.5 -18q-21 -34 -47 -71l-21 -33.5l-23 -36t-23 -31.5t-27 -31q-22 -20 -43 -19q-28 1 -53 26q-29 29 -27 33l6 -9q-4 6 -7 16v-4q-1 -1 -4 6q-7 21 -7 31q-1 15 5 45q14 48 20 72q6 20 32 73q21 43 25 43l-1 -3
q-3 -7 -2 -8l15 34l-3 -3l29 70q-13 -11 -27.5 -26t-22 -24l-24.5 -30.5l-21 -26.5l-13 -17t-16 -20.5t-15 -14.5q-3 -2 -6.5 -3.5t-6.5 -4.5t-10 -18q-13 -21 -39.5 -57t-36.5 -52l-18 -32q-4 -11 -6 -13q-10 -10 -24 -8t-23 13q-10 11 -10 36q-4 39 14 134q27 150 71 279
q20 61 107 230q0 2 3.5 12.5t6.5 12.5l-7 -19l12 23q-1 0 -2 1q0 6 4 15.5t8 15.5l11.5 16.5t8.5 12.5q19 31 45 67q3 5 16 23l18.5 25.5t16.5 21t21 23.5t21 18q39 29 70 27q21 0 35 -14q4 -4 12 -20t4 -19q-5 15 -6 15q8 -21 6 -50q1 3 2 3q3 0 -5 -39t-14 -61
q-12 -44 -39 -102q-64 -132 -126 -205q-6 -6 -17 -15t-15 -13q-5 -6 -13.5 -19t-13.5 -18q-37 -43 -83 -84q-21 -20 -31 -47l-9.5 -30t-10.5 -32q-20 -62 -36 -121q23 35 54 76l-22 -26q-1 1 62.5 79t74.5 90q1 1 10.5 11.5t13 14l13 12.5t15 12.5l15 9.5t16.5 6.5t15.5 0
t16 -5.5t14.5 -14q12 -14 11.5 -33.5t-5 -31.5t-15.5 -33q-61 -128 -74 -175l1 2l2 4l2 4t2 3.5t2 0.5q3 -3 0 -16t-8.5 -28.5t-5.5 -17.5q-6 -40 0 -44q5 -1 8.5 -1.5t10 4.5l10.5 8t9.5 8.5l6.5 6.5q30 30 102 112q28 35 38 45q13 13 15 13zM409 919l-1 -1
q-30 -48 -98 -179q-71 -139 -83 -167q6 10 8 11q-21 -59 -24 -65l-30 -79q106 112 185 251q-35 -58 -63 -96l-40 -56l-18 -18l8 9q10 12 28 36l50 74q55 87 87 161q23 56 32 90q16 58 3 69q-4 1 -6.5 2.5t-6.5 -2t-6.5 -5.5t-7 -8l-6.5 -8.5t-5 -8t-4 -6.5q1 1 -1 -3v1
l-1 -1v-1zM158 429l-1 -3q0 -1 -1 -4t-1.5 -5.5t-1 -5.5t0 -4t0.5 -2q-2 1 15.5 49t25.5 67q3 9 13 29t14 32q9 26 29 64l39 77l64.5 130t24.5 61q-1 1 -50.5 -92t-56.5 -110q-4 -9 -28.5 -54.5t-33.5 -71.5q-5 -15 -18 -48.5t-21.5 -59t-12.5 -49.5zM227 499q4 6 7 9
q-2 -2 -4 -5t-3 -4zM409 919l1 1h-1v-1zM158 428v-1l-1 -1q1 1 1 2z" />
    <glyph glyph-name="i" unicode="i" horiz-adv-x="189" 
d="M262 246q4 -18 -24 -54q-35 -52 -52 -73q-2 -3 -12 -17t-15.5 -20.5l-14.5 -16.5t-18.5 -16t-19.5 -8q-7 -1 -26.5 5t-18.5 10h2q-3 2 -4.5 0.5t-7.5 3.5q-9 6 -21 24l-8.5 11t-9 11t-7 11t-4.5 13q-2 4 -1 22.5t6 18.5q1 0 1 -3v-2l3 18q-2 -3 -3 -4q-3 1 5.5 34.5
t11.5 43.5l5 15t6.5 17.5t8 13t12.5 11.5q21 14 53 0q31 -12 31 -23q0 -3 -1 -4.5t-3.5 -3t-3.5 -2.5q1 1 4 1q1 -1 -2 -6.5t-7 -10.5t-5 -5t2 8q-28 -46 -47 -101q5 13 18 41t15 27l-14 -32q-15 -33 -24 -63t6 -43q14 -7 54 26q49 38 59 51q-2 -2 -7 -2q-3 3 22 37.5
t33 39.5q20 14 23 -4zM87 372q-6 9 -6 10q-4 12 0 25q2 6 7 4l7 10l-1 -5q13 17 24 41l-12 -18q21 42 24 62v12q-21 8 3 27q-3 0 -4 2q-4 4 10 8h1q21 9 45 -4q17 -11 25 -34q5 -18 -15 -36q-2 -2 -8 -5.5t-8 -5.5q-3 -4 -5.5 -12t-4.5 -11q-1 -3 -6 -6.5t-6 -5.5
q-6 -4 -1 -9q-6 -3 -10 -7q-15 -24 -28 -34q16 10 28 26q12 15 29 22q-4 -4 -10.5 -15.5t-13.5 -16.5q-5 -3 -7 0q-1 1 -7 -5q-1 -1 3 -1q-3 -2 -8.5 -8.5t-11 -11t-10.5 -6.5q-13 -4 -17 -3q-4 2 -5 7zM68 134v1l-2 -8l2 6v1zM101 431l4 6zM91 412q-1 -1 -2 -1l1 -1
q1 1 1 2z" />
    <glyph glyph-name="j" unicode="j" horiz-adv-x="256" 
d="M324 220l-3 3q-3 3 -4 -1q1 -3 4 -3q-26 -15 -101 -73q-62 -46 -120 -96q-16 -13 -26.5 -37t-20 -58.5t-13.5 -45.5q-41 -116 -49 -135q-16 -45 -49 -102q-3 -5 -11 -20l-12.5 -23.5t-12.5 -19.5t-16 -18q-46 -41 -103 -20q-29 11 -44 30.5t-15 44t7 48t20 47.5
q11 19 35.5 52l27.5 37q32 45 58 71q36 38 96 90q3 3 12 11t13 12q9 9 16 32l19 59l34 106q3 7 8.5 24.5l8.5 26.5q1 3 3 12t4 12q15 16 38 15t39.5 -20t5.5 -41q-6 -12 -35 -62.5t-39 -80.5q83 66 138 103l23 15t25 17q1 1 7.5 6.5t10 8t9.5 5.5t10 1t6 -8q5 -14 -4 -25z
M-66 -176q1 2 2 5v0l44 119q-57 -49 -116 -121q-2 -2 -13 -16t-14.5 -18t-13.5 -17t-14 -19.5l-11 -18t-10.5 -20.5t-7 -20t-5.5 -21q-3 -19 3 -38t22 -23q22 -5 52 40q36 55 77 158l1 2l2 6t2 5v-3zM141 363q-2 -1 -8 -3.5t-10 -4.5t-8.5 0t-5.5 10q-1 4 0.5 7.5t4.5 2.5
q0 3 6 10h1q-1 -2 -2 -5q10 16 23 45l-9 -16q6 16 13 44t7 33q-1 6 0 8t-1 5t-3 4t-6 4q3 -3 1 -4q-4 -6 -8 7q-1 4 -1 6q1 7 12 12q4 2 17 5q14 5 36.5 1.5t32.5 -13.5q3 -3 7 -11q7 -20 0 -35q-3 -5 -8.5 -10t-6.5 -11h-2q0 -1 -4 -15.5t-8 -19.5q-5 -7 -13 -10.5
t-11 -6.5l3 1v-2q-5 -5 -14.5 -16t-13.5 -15q-9 -7 -17 -10q-1 0 -2 2t-2 1zM-5 -101q-2 -2 -5 -6.5t-5 -6.5q-3 -2 -5 -9t-4 -15t-3 -11q1 2 11 20.5t11 27.5zM-19 -184q4 9 5 17q-1 -1 -1 -3l-4 -12v5q-11 -23 -12 -26l-3 -15l3 9l3 8l3 5l3 7v-1zM-10 -157q-1 -1 -1 -2h1
v-1q5 12 11 29l3 6l-2 -2q-5 -5 -12 -30zM125 396q3 4 6 9q-3 -11 -6 -9zM-6 -148q0 2 2 6zM-3 -138l-1 -4q0 3 1 4zM-11 -161v1l-1 -1h1zM116 375l-1 -1h1v1z" />
    <glyph glyph-name="k" unicode="k" horiz-adv-x="456" 
d="M529 242v-1q1 -9 -2.5 -18t-7 -13.5t-12.5 -14l-11 -11.5q-31 -40 -45 -54q-51 -54 -61 -61q-1 -1 -24.5 -15t-25.5 -16v2q-2 -2 -2 -4q1 -1 -5 -6q-7 -6 -32 -17l-16.5 -8t-22.5 -8q-4 0 -15.5 4t-21.5 10t-7 10q1 1 3 0l2 -1q-7 4 -13 12v-2l1 -2q-1 -1 -4 3l-7.5 10
t-9.5 12t-8 11.5t-4 6.5q-15 27 -22 63l-48 -80q-4 -5 -10 -20t-13 -24t-17 -11l-6 -1q-5 -1 -10.5 -1.5t-11.5 1t-8 4.5q3 -4 18 -4q-15 2 -23 8l1 -2q0 -1 -8.5 6t-10.5 9q-9 13 -9 35q0 6 11 66l15.5 64.5t18.5 86.5q13 71 36 138q14 43 25 73q18 54 23 54l-5 -20
q18 52 21 59q1 1 1 2q2 4 5 14t4 14l20 42q14 33 35 69q41 71 85 91q32 15 61.5 -3.5t47.5 -53.5q17 -35 6 -65q-23 -68 -66 -119q-13 -14 -32.5 -49.5t-25.5 -44.5q-54 -82 -84 -120q-13 -17 -41 -51q-19 -22 -29 -57q-23 -78 -38 -141l27 47q1 1 3 4l4.5 6.5l5 7t4.5 5.5
l1 2q8 16 20 32l-20 -24q-1 4 2.5 11t7.5 13t10 13.5t7 9.5q6 10 19 29t17 24q48 64 90 101q97 86 146 44q56 -49 -19 -124q-41 -40 -110 -77q-36 -20 -64 -32q-2 -1 -11 -4t-10 -4v-3q1 -4 1.5 -8t0.5 -7.5t-1 -3.5q-2 0 -4 6q11 -67 41 -100q-28 47 -30 65
q3 -12 22.5 -43.5t28.5 -32.5h10q14 1 27.5 9t31.5 24.5t22 19.5l23 16t28.5 20.5t20.5 17.5q-2 -2 -7 -2q-2 3 28 38t39 44q22 19 23 -5zM312 730q-6 -8 -12 -17t-12 -19.5t-10 -18.5l-10 -21l-9 -19.5t-8.5 -21l-7.5 -19.5l-8.5 -21.5t-7.5 -19.5q-28 -74 -61 -194
q90 118 150 227q22 40 32 61q-22 -39 -25 -44q-21 -39 -48 -82l-22 -35q-14 -17 -17 -22q0 1 29 44l27 44q36 61 53 99q40 83 24 104q-20 27 -57 -25zM212 215q62 24 133 101q65 74 49 86q-16 11 -76 -55q-46 -48 -106 -132zM218 574q-29 -70 -54 -190v-1l-1 -1l1 1l-2 -8
q10 39 45 148l42 125q1 2 10 18t12 23q-2 -4 -6 -9.5l-7 -10t-3 -6.5q-2 -3 -37 -89zM146 577q0 -1 -1 -1zM145 575v1v-1z" />
    <glyph glyph-name="l" unicode="l" horiz-adv-x="354" 
d="M400 255q20 21 22 -8q1 -11 -1 -21q-5 -19 -31 -62q-10 -16 -40 -67.5t-49 -79.5q-68 -98 -121 -150q-81 -77 -140 -23q-46 42 -39 162q3 44 32 164q0 1 0.5 7.5t1.5 14.5t3 11q0 -1 -0.5 -3.5t-1 -6t-0.5 -5.5q4 14 7 21h-3q-2 11 17 70q9 31 23 70q3 9 20 56t25 72
q14 46 53 124q14 29 30 57q1 1 4 7l6.5 12.5t7.5 13t7.5 10.5t4.5 4l-8 -17l32 55l-1 -1q1 2 7.5 14t9.5 15l23 31q1 1 7 8.5l8 10t8 9t10 9l9.5 6t11.5 5.5q31 10 56 -14t30 -57l1 -1v-5q6 -63 -57 -185q-38 -76 -58 -97q-7 -8 -40 -62q-66 -105 -124 -178q-18 -23 -23 -41
q-7 -23 -16 -58q-6 -20 -16 -60q-1 -3 -3.5 -13l-4.5 -17.5t-2 -8.5q-4 -17 -6 -37l8 30q2 -8 1.5 -14t-3 -18.5t-2.5 -14.5q-3 -22 -3 -47q0 -62 25 -66q7 -1 14.5 1t15 7.5l13.5 10t13.5 13t11.5 12.5t11 13.5t8 10.5q38 46 109 158l52 85q2 3 14 26t20 32zM275 613
q-24 -58 -95 -273q5 9 36 58l40.5 65l34.5 58.5t37 67.5l28 61t27 68q-15 -42 -65 -138q-5 -8 -13 -23.5l-15 -28t-14 -23.5q-3 -5 -10.5 -16t-13.5 -21t-9 -17q4 12 11.5 25.5t19 30.5t15.5 24l42 78q3 7 15 29t17.5 34l13.5 31t11.5 36t4.5 33v1q2 44 -36 1
q-9 -11 -14 -19q-27 -43 -68 -142zM243 683q-19 -37 -30 -63q-1 -1 -1 -4q8 15 32.5 55.5t36.5 64.5q-5 -9 -19 -26t-19 -27zM54 166q0 2 -1 3q-6 0 -12 -44v1q-10 -48 -13 -108l3 32v-3q0 4 1.5 11.5t1.5 8.5q2 10 4.5 30.5t6 37t8.5 28.5q0 1 1 3z" />
    <glyph glyph-name="m" unicode="m" horiz-adv-x="535" 
d="M608 240q4 -3 0.5 -13t-4 -14.5t-6.5 -14.5l-8 -13.5t-8.5 -12t-7.5 -10.5q-54 -78 -78 -107q-55 -72 -89 -73q-3 0 -11 2t-16 5t-14.5 7t-5.5 7l1 -1q-1 0 -3 5q0 -1 -3.5 2t-7.5 8t-5 7q-7 13 -11 36q-3 20 -3 58q0 31 10 60q2 9 11.5 34.5t13.5 24.5l-1 -2
q0 -2 -0.5 -4t0.5 -3q1 4 11 31q-2 -4 -4 -6q-3 3 32 80q-17 -16 -42 -53t-41 -53q-9 -9 -18.5 -24.5t-19.5 -35.5t-16 -29q-2 -3 -6 -11t-6.5 -11t-6.5 -9t-8 -7.5t-9 -2.5t-10.5 2.5t-12.5 9.5q-13 11 -16 31q-1 8 7 38q2 4 1.5 13.5t-0.5 13.5q2 16 8.5 33.5t17 39
t14.5 32.5q1 3 5 12l8 18t7.5 20t3 16.5t-4.5 6.5q-1 0 -5 -5l-9 -11t-6 -7q-21 -24 -34 -44q-15 -23 -28.5 -48.5l-29 -57l-24.5 -49.5l-16 -33l-14 -29l-7 -14t-7 -15q0 -9 -2 -13q-10 -10 -29.5 -1t-29.5 21q-7 9 -10.5 19t-4 17t0 20t0.5 20q-2 33 24 108q7 23 20 51
q2 3 8.5 12t8.5 15q0 1 1.5 6.5t6.5 7.5q9 4 23 -8q5 -4 11 -14t7 -12q0 -1 5.5 -7t5.5 -7.5v-11.5l-3 -6q-3 -6 -11 -15.5t-11 -13.5q-8 -11 -9 -15q-1 -3 -1 -8t-1 -9q-2 -7 -7 -20t-7 -20q-6 -27 -6 -29q0 -3 1.5 -13t0.5 -16q8 13 19 41t17 39q37 75 51 97q7 11 24.5 36
t26.5 39q31 51 61 54q26 4 44 -21t12 -50q-4 -14 -16 -39.5t-15 -34.5q-10 -30 -32 -106q13 27 43 74l-20 -27q-1 5 41 60.5t51 64.5q11 11 25 18.5t29 11t27.5 -4t17.5 -26.5q2 -8 3 -16t0.5 -17.5t-1 -16t-4 -18t-4 -16t-5.5 -17.5l-6 -15.5t-7 -16.5l-5 -14
q-2 -6 -15.5 -36t-20.5 -49t-11 -36q2 4 4 6q-7 -48 2 -50q7 -1 18 7t19.5 17.5t19 22.5t12.5 15q15 16 79 93q32 38 40 44q13 10 16 0v-1zM249 306l1 1v-1q24 61 18 76q3 -10 -7.5 -42t-16.5 -44q-29 -66 -30 -70q-14 -40 -14 -70q2 21 20 66q3 8 12 37.5t16 43.5q1 2 2 3
h-1z" />
    <glyph glyph-name="n" unicode="n" horiz-adv-x="341" 
d="M414 238q2 -11 -6 -24.5t-23.5 -30.5t-16.5 -19l-20 -26.5l-24 -31.5t-22 -26q-48 -51 -76 -42q-6 2 -24.5 13t-17.5 14l3 -2l-6 6q3 -5 -2 -1l-5 3q-5 5 -12 19q-6 13 -6 33l3 33q4 46 10 65q24 61 30 59q1 0 0 -1.5t-1 -4.5l-1 -2l14 28l-5 -5q-2 1 15 29
q-5 -6 -54 -71q-5 -7 -19 -21t-19 -23t-29.5 -46.5t-34.5 -59.5l-4 8q-16 -13 -30.5 -4.5t-24.5 25.5q-8 14 -4 46q1 5 1.5 15t1.5 18t3 16q5 17 22 62q14 42 22 63q1 3 8.5 19t9.5 24q1 3 1.5 7.5t1 7t3 5.5t7.5 6q13 8 38 4q16 -3 27.5 -15.5t0.5 -29.5q-3 -5 -13 -14.5
t-14 -14.5q-5 -6 -12 -29q-1 -5 -7 -12.5t-7 -10.5q-5 -10 -14 -38q-1 -5 -1.5 -12t-0.5 -10q-1 -11 -5.5 -32t-5.5 -31q3 6 9 10l-2 -4q-3 -5 -5 -10l-2 -4l59 86l-23 -29q-2 1 58.5 79t71.5 88q21 22 45.5 17.5t34.5 -38.5q7 -22 -1.5 -42t-30.5 -44.5t-28 -32.5
q-11 -18 -34 -65q-22 -41 -24 -64q1 7 4 15t7.5 16.5t5.5 11.5q12 31 35 53q-3 -6 -10.5 -18t-10.5 -19l5 6q1 0 -4 -17t-6 -19q-8 -24 -9 -38v-17l1 -1h2l4 2t3 1q12 4 42 29l70 60q2 2 23.5 20.5t29.5 28.5q19 29 25 1z" />
    <glyph glyph-name="o" unicode="o" horiz-adv-x="391" 
d="M460 249q26 -33 -90 -46q-8 -1 -9 -1t-4.5 -1t-6.5 -1l-3 -1q-8 -3 -15 -12l-22 -37q-1 -1 -12 -16t-21.5 -27t-13.5 -11l7 11l-29 -34q5 5 5 3q-2 -6 -9.5 -13.5t-13.5 -12l-17.5 -13t-13.5 -9.5q-29 -22 -57 -26q-31 -3 -61 11q-45 22 -65 73t3 97q6 11 15 31.5
t18 37.5t20 31q27 33 48 46q12 9 27 15q3 2 13.5 4.5t13.5 4.5t6 9.5t6 16.5l4 12q6 11 14 23q26 37 52 52q44 24 93 -25q2 -1 4.5 -3t7 -6.5t4.5 -7.5l-4 4l4 -8l1 -1q-2 5 3 0l6 -7q7 -10 10 -26q4 -17 0 -43q-4 -40 -26 -111l89 18q16 5 19 0v-1zM114 47q85 16 153 152
q-95 13 -109 75q-12 -13 -36 -62l6 9q0 -2 -7 -15q-74 -160 -15 -160q3 0 7 1h1zM311 324q0 1 3.5 16.5t4.5 22.5t2.5 20.5t-0.5 23.5t-6 17q-22 33 -72 -34l-1 -1l-1 -2v1l-1 -3q-17 -23 -17 -24l3 5l7 8.5t3 2.5q2 -3 -19 -44q-11 -28 -13 -49q-4 -36 10 -48q9 -8 32 -10
q19 -3 25 -1q2 0 5 1q3 0 5 4q1 3 2 4q5 9 10 21.5t7 21.5t6 25.5t5 21.5zM242 389q1 0 1 1z" />
    <glyph glyph-name="p" unicode="p" horiz-adv-x="504" 
d="M566 248l12 3q-4 -12 -11.5 -20.5t-21 -18t-18.5 -13.5q-15 -14 -50 -38q-6 -4 -19 -7.5t-18 -8.5l-1 1q-11 -11 -13 -12q-5 -3 -11.5 -9t-9.5 -9q-8 -6 -19.5 -7.5t-14.5 -3.5h1q-5 -2 -29 -29.5t-28 -34.5q-8 -9 -24 -25.5t-24 -25.5l-7 -8q-7 -8 -10 -11t-10.5 -9.5
t-12 -9.5t-11 -6t-11.5 -3q-16 0 -31 21.5t-21 41.5q-3 8 -3 12.5t2 6t4.5 2t8 0.5t9.5 1q8 2 17.5 9t15.5 13t15.5 17t12.5 14q12 13 32 37.5t29 34.5q16 16 22 26q7 20 10 20q-1 -4 -3 -7l6 9l3 12q2 5 3 6q2 5 17 32q25 45 29 65q2 6 3 13.5t1 16.5t-3.5 14.5t-11.5 4.5
q-3 0 -17 -9.5l-26 -18t-13 -8.5q0 1 3 4t2 4q-17 -17 -25 -27q2 2 6 4q-12 -11 -95 -129q-2 -2 -44 -70q-1 -1 -10 -16t-15 -22q-2 -1 -7 -4.5t-7 -5.5q-6 -9 -17 -30.5l-13 -25.5q-4 -8 -17.5 -31.5l-21.5 -36.5q-8 -14 -26 -69q-2 -7 -8.5 -23t-9.5 -25q1 4 5 8q1 0 0 -9
t-3 -18.5t-3 -10.5l-9 -46l-6 -31.5l-6.5 -36.5l-5.5 -32q-3 -37 -11 -45q-14 -14 -31.5 -0.5t-27.5 31.5q-9 17 -10.5 42.5t0.5 43.5t8.5 50.5t7.5 41.5q9 62 25 101q13 25 14 29q0 21 5 23q0 -1 1 -3q0 1 2 7q-4 -7 -1 12l1 4l5.5 16.5t4.5 14.5q10 27 16 56q2 8 8 27.5
t15.5 41.5t13.5 21q1 0 0.5 -1.5l-1.5 -4.5v-2q4 9 10 27q-2 -4 -4 -5l41 115q5 12 12 34.5t8 26.5q0 1 3 8t3 10q0 2 -2.5 5t-2.5 5q-2 22 11 36t36 8q23 -5 36 -33q3 -5 4 -9t1 -8t-0.5 -6.5l-1.5 -7.5t-2 -8l3 5q1 0 1 -4t-1 -10.5t-2.5 -12.5t-3.5 -10t-4 -4l1 4
q0 4 1 8.5t1 5.5q-8 -28 -26 -82v1l-6 -17q-3 -8 -4 -10q-52 -152 -66 -204q11 22 26 47l-16 -23q100 162 110 177q81 121 113 162q51 63 82 61q36 -3 51.5 -35t14.5 -70q3 13 4 13q16 -9 -12 -94q-14 -42 -46 -97q15 8 57 37q10 6 30.5 11.5t25.5 7.5q-3 0 -3 2q-2 5 22 14
t33 11zM54 146q0 1 -1 2q1 -3 -19 -53l-21.5 -52t-27.5 -72q-42 -136 -43 -143q13 50 34 102q25 59 44 118q12 38 19 57q15 35 15 40v1zM98 116q-1 -2 -10 -33q5 12 10 33zM235 280l-19 -28zM398 159l9 6q-1 -1 -3 -2q-5 -2 -6 -4zM159 276l-3 -8q2 7 3 8zM152 259l4 9z
M204 234q2 4 1 3q0 -1 -1 -2v-1zM152 259l-2 -4q2 2 2 4zM-60 -181q1 1 1 2q-1 -1 -1 -2zM104 128l-1 -1q1 0 1 1z" />
    <glyph glyph-name="q" unicode="q" horiz-adv-x="414" 
d="M487 245q0 -3 -1.5 -5.5t-3.5 -4t-5.5 -3.5t-4.5 -3l-8 -11q-22 -22 -35 -25q-4 -1 -9.5 0.5t-7.5 -2.5q-2 2 1 2q-1 0 -8.5 -6.5t-11.5 -8.5q-7 -3 -15 -3t-12 -2q1 0 2.5 -0.5t0.5 -1.5q-11 -3 -23 -11t-13 -15q-2 -3 -1.5 -17t0.5 -17q-2 -30 -4 -44q-3 -28 -11 -82
q-17 -120 -32 -167q-11 -31 -30 -63q-17 -42 -21 -42q6 11 6 12q-4 -8 -10 -13q4 1 -3 -11q-2 -3 -3 -4q-6 -9 -17 -12q-6 -3 -12 -3q-26 -2 -45 18q-35 32 -33 93q0 15 5.5 52.5t11.5 36.5q1 0 0.5 -2t-0.5 -5v-3q1 3 2 13.5t3 16.5q-4 1 26 87t45 124q-67 -96 -124 -102
q-34 -3 -60 23q-16 16 -19 43l-5 32q1 -4 2 -7v8q-1 0 -2 3.5t-1.5 7t-0.5 4.5q0 5 5 25q2 6 17 42q12 35 25 53l5 7q6 6 11.5 13t11 12.5t7.5 4.5l-2 -3q-2 -3 -1 -4l15 19q-1 -1 -4 -1q-4 3 39 44t54 49q40 30 73 30q62 0 77 -30q6 -9 4.5 -24.5t-12.5 -19.5
q-6 -1 -7.5 -1t-5 3t-5.5 4l2 -3l-17 1q-18 2 -20 1q4 4 16 4q-19 -1 -38.5 -10.5t-38.5 -28t-29.5 -31t-26.5 -33.5q16 19 48 51.5t35 28.5q-3 3 -42 -40t-47 -54q-49 -67 -61 -125q-14 -52 2 -57h1q19 -7 72 43q-6 -3 -7 -3q33 39 37 43q51 57 53 59q2 3 9 9t10 9
q7 9 17 30.5t17 30.5q12 17 28 17q13 0 31 -9.5t21 -22.5q3 -10 -8 -21l4 2l-31 -43q-2 -3 -3 -3l1 3q2 4 4.5 8.5t3.5 7.5l-13 -22q3 1 3.5 -0.5t-2.5 -3.5l26 10q-10 -2 -15 -2q35 13 51 25q14 9 21 10q3 1 11 1t10 1q-10 2 12 12l3 2q19 7 22 7q7 -2 8 -7zM298 85v1l5 36
q-44 -86 -78 -179q-42 -112 -43 -177q0 -10 1 -17t3.5 -12.5t7.5 -5t13 7.5q15 15 39 78l9.5 28.5t10.5 34.5l-3 -7q-2 6 -0.5 13.5t5 20.5t3.5 15l9 49zM196 -102q-5 -12 -12 -36.5t-14.5 -57t-5 -56.5t18.5 -25q-13 2 -14.5 26.5t6.5 56t15 55t11 33.5l41 113
q-43 -101 -46 -109zM267 63q-8 -6 -3 -8l3 3l-27 -66q25 60 64 135v6q-20 -36 -36 -72q0 1 -0.5 1t-0.5 1zM224 -48v1l-1 -2q1 0 1 1zM268 60l-1 -2q1 1 1 2zM368 234q1 1 1 2l-1 -1v-1z" />
    <glyph glyph-name="r" unicode="r" horiz-adv-x="337" 
d="M410 243q3 -12 -13 -43q-10 -22 -29 -49l-72 -102q-45 -62 -82 -93q-2 -1 -15.5 -12t-26 -19.5t-13.5 -8.5q0 1 2 3l-7 -3l-1 -2q-10 -9 -18 -12q-21 -4 -41 9q-16 10 -26 34q-13 29 -7 67q13 63 22 62q1 0 0.5 -2t-1.5 -4v-3l7 25q-2 1 24.5 57.5t30.5 62.5
q-62 -12 -89 21q-4 5 -5 12.5t-1 8.5q-1 4 -4.5 9.5t-4.5 9.5q-8 39 26.5 73.5t68.5 10.5l-2 3q1 7 11 -8q3 -4 3 -6t-1.5 -7t-3.5 -10.5t-4 -9.5t-4 -3l2 4l2 10l2 5q-3 -7 -16 -28t-14 -32q-1 -9 2 -12t13 -5q3 -1 4 -1q8 -2 34 -3.5t39 -5.5q-4 1 -48 8q-1 0 -1 1
q5 -1 21 -2t23 -3q24 -6 33.5 -16.5t1.5 -32.5q-7 -17 -21.5 -47t-18.5 -40l-10.5 -26.5l-12 -32.5t-10.5 -28q0 -2 -7 -17t-10.5 -28t0.5 -17q7 -8 34.5 13.5t45.5 40.5q-2 -2 -4.5 -3t-3.5 -2q-1 0 1 3t5.5 7.5l6.5 8.5t6.5 8t3.5 5l29 37l54 71l55 74l3 4l5 6.5t5.5 6
t6.5 5.5t6 2.5t5.5 -2t3.5 -7.5zM111 123q-23 -55 -31 -87q6 22 28 75l19 44q2 3 9 18.5t13.5 28.5t8.5 14q-3 -1 -8 -10.5l-10 -19.5t-5 -11q-14 -27 -24 -52zM87 -69v-1q-2 2 -2 3l1 -1q-10 22 -12 28l3 -13l-4 21v1l-1 3q0 -1 1 -2v5q-1 18 2 40v1q-3 -13 -3 -27
q-2 -19 3 -38q5 -14 15 -28q0 2 -1 2q9 -9 23 -14q-14 5 -25 20zM115 261q-4 2 -4 8l7 -7q7 -5 20 -7q-18 2 -23 6zM220 183v1l-21 -45zM76 19q0 -1 -0.5 -1t-0.5 -1v-1l1 1v2zM221 186l-1 -1h1v1zM221 186l-1 -1h1v1zM77 32l1 2v2v-2zM81 -60l1 -1v-1zM112 271l-1 -1
q0 1 1 1z" />
    <glyph glyph-name="s" unicode="s" horiz-adv-x="324" 
d="M397 235v-1q1 -9 -3 -18t-13 -17.5t-16.5 -14t-19.5 -13.5l-15 -10q-53 -38 -90 -58l-28 -14q-8 -6 -8.5 -9t1.5 -15q5 -30 5 -55q2 -46 -12 -83q-40 -103 -141 -100q-51 1 -86.5 27t-26.5 72q0 -1 -1.5 -5.5t-2.5 -8.5l-1 -4q-8 5 2 31q14 43 74 89q34 26 51 37
q3 2 12 6.5t15 8t11.5 9t6.5 10.5q1 6 -1 16.5t-7 24.5t-6 18q-1 3 -6.5 25t-6.5 34q0 5 1 17t-1 16q-10 32 -11 48q-2 32 5 50q8 23 39 47t49 7q0 4 8 -7q5 -9 6 -13q0 -7 -3 -24t-7 -16q2 9 3 16q-14 -39 -14 -42q-2 -11 3 -40q0 4 2 5q-1 0 4.5 -27t14.5 -67
q-19 73 -20 78q8 -44 28 -130q2 2 1 8q0 -1 1 -3t1 -3q81 41 126 69q6 4 25.5 20t30.5 21q17 7 21 -12zM-7 -109q15 -5 44 1l28 11q1 -1 -5 -5l-3 -3q17 10 31 27l-5 -4q5 5 16 26.5t12 25.5q8 27 6 72q-1 -1 -7 -4l7 6l-12 -7q3 1 -3 -5q-8 -7 -13 -10l-30 -20
q-43 -30 -57 -49q-37 -53 -9 -62zM119 -138q33 15 51 51q-21 -30 -56 -48t-73 -20q41 2 78 17zM192 146q-2 6 -6 28q4 -15 6 -28zM205 42l-1 2v3q0 -4 1 -5z" />
    <glyph glyph-name="t" unicode="t" horiz-adv-x="307" 
d="M406 520v-1q1 -10 -8 -17.5t-20 -10.5q-7 -2 -21 0.5t-19 1.5q-4 -1 -6 -3.5t-5 -3.5q-6 -2 -29 -2q-4 0 -16 1.5t-21.5 1.5t-14.5 -3q-3 -2 -6 -6l3 6q-5 -1 -23 -46l11 22l-14 -38q-6 -12 -28 -64q-24 -55 -50 -126q-52 -149 -72 -241q0 -2 -2 -8.5t-3 -12l-2.5 -14
t-2 -15t0 -13t2.5 -11t6 -6.5q1 -1 7 1.5t11 5.5l5 2l5 5t6 5.5t5 5.5q-1 -1 -3 -2.5l-4 -3l-4 -3t-2.5 -1.5h-1.5q0 3 5.5 9.5t13.5 13.5t9 8t28 31l58 71l106 136l10 15.5t15.5 22t13.5 10.5q11 2 15 -7t-1 -19q-5 -15 -25 -40t-25 -33q-17 -29 -84 -121q-64 -86 -99 -127
q-39 -49 -62 -60q-25 -12 -60 14q-25 17 -32 50q-6 39 -1 45v-15l2 20q-1 6 -2 11q0 9 4 25q2 14 10 47q20 88 21 94q4 26 26 92q0 1 3 8.5t6 17t6.5 18.5t7 15.5t4.5 6.5l-1 -3v-6l-1 -4l15 45l-5 -8q0 5 3 13.5t8 17.5t6 13l12 35q22 64 36 94q-5 0 -35.5 -1t-45.5 -4
q-45 -8 -124 2q-1 0 -5 0.5t-7 1t-7 2t-4.5 4t0.5 5.5q2 2 28 9q16 6 59 8q18 2 56.5 3t59.5 4h18.5t17.5 2q3 1 5 3t3 4t2.5 6t2.5 6q9 24 23 53q21 45 29 56q3 4 11 11.5t11 14.5q22 49 45 77q27 35 86 24q38 -8 29 -32q-1 -4 -4.5 -7t-8 -6.5t-6.5 -5.5l2 2q7 6 7 3
q-1 -5 -20 -31.5t-21 -25.5l3 6q4 6 8 13t4 8q-45 -67 -100 -178q4 0 10 11q-5 -10 -5 -11q20 1 59.5 2t59.5 2q2 0 9 2.5t11 1.5t4 -7zM216 462l28 61l33 70.5t30 56t39 62.5q-28 -40 -56.5 -92t-44 -85.5l-45.5 -103l-40 -91.5q-50 -111 -83 -226q-14 -48 -25 -106l5 19
q14 59 44 139q83 229 115 296zM282 561q20 45 24 46zM179 343q0 2 1 4q-5 -11 -13 -31.5t-11 -27.5q16 36 23 55zM269 532q7 14 10 22zM51 -98l-3 2q2 -2 3 -2z" />
    <glyph glyph-name="u" unicode="u" horiz-adv-x="400" 
d="M473 244q1 -8 -21 -44q-16 -27 -52 -67q-2 -2 -11 -12t-13 -14l-13.5 -13.5t-15 -14t-15 -11.5t-16.5 -10.5t-16 -6t-18 -3.5q-38 -3 -57 29q-4 7 -6 15t-2.5 14.5t0.5 16.5t2 15.5t4.5 16t5 14.5t5.5 15.5t5 13.5l-76 -94q-11 -14 -49 -47.5t-44 -25.5l2 1l4 4l2 1
q-18 -11 -32 -11q1 -1 5 -1q2 -8 -28 5q-1 1 -2 1q-13 12 -19 40q-6 40 8 95q15 62 30 94q4 9 13.5 20.5t12.5 17.5q25 57 47 75q14 12 34 11t34 -12q5 -4 7.5 -7.5t2 -7t-1 -5.5t-4 -7.5t-4.5 -7.5q3 5 6 6q1 0 -4.5 -12t-13 -24t-9.5 -12q3 10 6 16q-18 -32 -36 -71
q3 4 6 4q-1 1 -17.5 -40.5l-23.5 -59.5q0 -1 -3.5 -11t-4.5 -16t-1.5 -13.5t3 -10t11.5 0.5q10 3 22.5 12.5t18.5 16t19.5 23t14.5 17.5q23 25 65 86q3 4 8.5 13l9 14.5t10 14.5t11 13t12.5 10.5t14 7.5t16 3.5t18 -2.5q9 -3 14.5 -7.5t7 -11t1 -13t-4.5 -15t-6.5 -14.5
t-7.5 -15t-7 -13q4 4 5 4q3 -3 -0.5 -14t-9.5 -24.5t-7 -16.5q-14 -45 -15 -62q-1 -15 3.5 -16t15.5 9q2 1 3 2q12 9 25 22l21.5 22l23 25t21.5 23l2 2q46 51 49 34zM321 224q4 11 12.5 32l12.5 31q-3 -8 -14 -25.5t-16.5 -31.5t-1.5 -25q0 -2 -1 -3q2 2 2 3q2 3 4 10.5
t2 8.5zM83 95q-3 15 26 96q-2 -4 -7.5 -17.5l-8 -19.5t-7 -20.5t-4 -20t0.5 -18.5zM239 193q2 6 4 9q-4 -3 -4 -9z" />
    <glyph glyph-name="v" unicode="v" horiz-adv-x="415" 
d="M488 239q1 -5 -9 -18q-15 -20 -38 -40q-3 -3 -9 -11t-10 -12q-23 -26 -62.5 -40.5t-72 -1.5t-31.5 59q-13 -19 -50.5 -61.5t-54.5 -69.5q-27 -42 -34 -80q-2 -22 -9 -34q-11 -16 -29 -16.5t-32 11.5q-28 20 -23 95q0 7 4 18.5t4 15.5l-1 16q-3 9 -3 16v31q-2 29 -1 35
l5 14q0 -3 1 -3q0 7 -1 11l-1 -1q1 2 -6.5 35t-5.5 39q1 5 4 9t5 5.5t7.5 4.5t7.5 4q17 13 21 14q24 9 35 -6q3 -4 3 -8t1 -7q-1 3 3 3q1 0 2 -2q0 -1 0.5 -5.5t0.5 -7.5v-3l-3 7q5 -16 9 -52v-1l2 -30q0 1 -0.5 5t-0.5 10.5v11.5q12 -119 11 -125q22 32 34 47q3 5 18 20
q3 4 5.5 11t4.5 9q6 11 22.5 27.5l18.5 18.5l33 34l15.5 18.5l16.5 20t16.5 17t21.5 15.5q14 12 38.5 7t21.5 -27q-2 -9 -12 -17q-8 -7 -28.5 -19.5t-29.5 -22.5l-18 -19l-6 -4q-1 -4 1 -5v-2q-1 -2 -4 -9.5t-5 -13t-3.5 -12.5t0 -11.5t6.5 -7.5q13 -7 36 -1q8 1 22 10.5
t19 11.5q15 7 37 26q1 0 5 6q72 80 75 37zM109 194q1 21 -4 47q-2 13 -5 18l-2 3q-7 8 -8 8q0 -2 3.5 -7t3.5 -7q3 -7 5 -23q3 -22 1 -49q-1 -10 0 -31t1 -30q3 23 5 71zM103 107q1 4 -1 4q-1 -4 1 -4zM118 132q2 8 0 15v-15zM115 212v15v-15zM116 200v2q-1 1 -1 2v-1v-1
q0 -1 1 -2z" />
    <glyph glyph-name="w" unicode="w" horiz-adv-x="610" 
d="M683 235q1 -5 -1.5 -10t-7 -11t-8.5 -10t-9.5 -9t-6.5 -6l-14 -14.5t-15.5 -16.5t-14.5 -13.5t-18 -14.5t-17.5 -10.5t-20.5 -8.5q-11 -4 -30 -3t-30 -1q-1 0 -3.5 0.5t-3.5 0.5q-4 -10 -7 -15l-8 -20l-17 -37q-21 -43 -45 -64q-2 -1 -10.5 -10t-16.5 -16l-8 -8q0 2 1 3
l-5 -3q4 1 -11 -15q-14 -12 -35 -15q-35 -6 -58 6q-20 10 -29 42q-2 8 -3.5 25t1.5 22q1 0 1.5 -3.5t1.5 -3.5q-1 8 -1 26l-2 -4q-1 2 -1 7t1.5 18t3.5 25t5 27.5l5 26.5l4 21t2 11q-72 -95 -86 -110q-29 -29 -55 -40q-2 0 -10 -4t-15 -7l-8 -3l6 3l-10 -3q5 0 -2.5 -3
t-9.5 -3q-12 -2 -23 3q-14 5 -26 24q-14 27 -13 56q0 5 5 29t9 23q1 0 0.5 -3t0.5 -3q2 16 4 21l-2 -2q-3 1 12 45.5t22 62.5q17 49 24 60q2 4 7.5 8t6.5 5q3 3 4.5 8.5t2.5 7.5q9 18 30 24.5t38 -4.5q19 -13 15 -29q-1 -3 -4.5 -6.5t-4.5 -5.5l3 3q2 0 -1 -8.5t-8 -16.5
t-6 -8l1 4l2 8l1 3q-44 -96 -61 -146q1 1 5.5 12.5l10 25l11.5 27.5l10 23t5 9l-9 -21q-9 -21 -20.5 -51t-21 -60.5t-9.5 -52.5t14 -25q6 -1 13.5 3.5t13.5 10l13.5 13l9.5 9.5q50 48 72 77q-2 -2 -6 -4q-1 0 10.5 18t14.5 23q3 4 29 41q3 5 14.5 23t18.5 27q13 14 31 18
t34 -6q18 -12 15 -27q-1 -4 -5.5 -8.5l-5.5 -5.5l5 3q1 0 0 -4t-3 -9.5t-4.5 -11.5t-4.5 -9.5t-3 -3.5t2 13q-30 -85 -43 -168q4 20 15.5 67.5t14.5 46.5l-9 -34q-9 -33 -18 -72.5t-8 -73.5t19 -36q8 -1 18.5 10t18 23.5t16 30t10.5 20.5q12 20 34 60q1 2 8.5 12t12 18
t4.5 11l-4 -3v13l2 27t1 16q8 33 25 61q17 25 49 56l3 3t4 3q9 4 17 -1.5t11 -14.5q5 -18 -17 -46q-10 -15 -17.5 -32.5t-16.5 -42.5t-13 -35q33 0 40 5q3 1 12 8t15 9q32 16 55 42q3 3 11 15.5t15 17.5q7 4 14.5 6.5t14.5 0.5t8 -12zM243 22q-7 -87 37 -107q-36 17 -31 99
q1 32 10 81q-14 -48 -16 -73zM294 198q1 3 9 16q-15 -18 -27 -58q10 28 17 41zM90 113l-8 -32q1 1 1 0z" />
    <glyph glyph-name="x" unicode="x" horiz-adv-x="370" 
d="M443 238q0 -12 -6 -24.5t-17 -27t-14 -19.5q-22 -38 -61 -87q-53 -67 -71 -84q-20 -17 -44 -29q-3 -3 -14 -11.5t-12 -7.5l2 2l-5 -2q4 0 -12 -12q-10 -4 -16 -4q0 -1 -4 -0.5t-5 0.5q-20 2 -41.5 16t-31.5 33q-42 -60 -77 -73q-15 -6 -30 2.5t-4 23.5q2 3 5.5 5t8 3.5
t6.5 2.5q12 6 32 24q6 7 16 20.5t15 18.5q12 14 13 19q0 1 -0.5 5t-1.5 8v3q1 0 2 -3t2 -3l-6 25q0 -4 -1 -6q-3 -1 -9 50t-6 61q-2 52 -2 62q1 13 11 42q11 26 22 34q3 2 7 4q20 13 39 10q21 -2 26 -17q2 -6 -1.5 -12.5t-3.5 -8.5q0 3 3 4q1 -1 0.5 -9.5t-2 -18.5t-3.5 -10
v17q-8 -77 -8 -144q2 3 2.5 25t0.5 42t3 20q-3 -75 -3 -82l4 5q4 5 8.5 10t9 9.5t5.5 3.5t0 -2q-1 -2 -1 -3l10 14q-2 -2 -4 -2q-1 1 27.5 39.5t35.5 45.5q5 6 9.5 8.5t10.5 4.5t10 4t9.5 7t11.5 8.5t14 3.5l5 1q4 0 4 -1q9 -1 16 -9t0 -16q-2 -4 -8 -2.5t-8 0.5q2 0 4 -1
q0 -2 -5.5 -4.5t-11 -4t-6.5 -0.5l9 7q-6 -3 -12 -6.5t-10.5 -6.5t-11 -9.5t-9.5 -9t-10 -10.5t-8.5 -9.5t-9.5 -11.5l-8 -9q1 1 9 9.5l18 18.5l16 16q-16 -16 -49.5 -60.5t-38.5 -52.5q-16 -28 -18 -32q-16 -20 -14 -37q7 -52 21 -58q8 0 11 -1.5t11.5 4.5t11 8t9.5 9l8 7
q67 53 96 87l-2 -1q-3 -2 -5 -3q31 45 35 50l47 63q1 1 8.5 14t14 21.5t10.5 9.5q6 2 11 -2.5t6 -10.5zM146 56q-4 -4 4 -34q-2 9 -4 27v7z" />
    <glyph glyph-name="y" unicode="y" horiz-adv-x="510" 
d="M583 239q1 -5 -0.5 -10t-5.5 -9l-6.5 -6.5t-8.5 -7t-8 -5.5l-87 -69q-51 -41 -92 -78q-1 -1 -18.5 -15t-23.5 -22t-12.5 -33.5t-7.5 -27.5q-2 -5 -15.5 -48.5l-17 -54.5t-16 -47.5t-19.5 -53.5l-19 -46t-24 -51.5t-25 -44.5q-1 -1 -9.5 -15t-10.5 -17t-10 -13.5
t-13.5 -14l-14.5 -9t-19 -7.5q-33 -9 -67 5t-55 43q-14 18 -16 39t8 43.5t19 37t25 36.5q66 87 97 120q25 26 79 76q6 6 21 18.5t26.5 24t17.5 22.5q9 18 20 58.5t13 45.5q8 28 26 84q-9 -7 -23.5 -25.5t-20.5 -24.5l-66 -66q-41 -43 -75 -57q-2 -1 -13 -5.5l-20 -8.5
l-10 -3l2 2l-6 -2q5 0 -4 -4t-12 -4q-17 -3 -32 5q-30 16 -34 55q-1 9 3 40t10 30q1 0 0.5 -3t0.5 -4q2 16 4 22l-2 -2q-1 0 0 5.5t4 15t6 20t7 22.5l7 21t6 17t3 9q23 58 25 61t6 7t6 7q1 1 4 6t4 7q8 18 26.5 26t36.5 1q9 -3 17 -12.5t6 -18.5q-1 -4 -5 -7.5t-5 -4.5h1
q1 1 2 1t-2 -8.5t-7.5 -16.5t-5.5 -8t2 12q-39 -81 -59 -143q38 97 42 96q1 0 -8 -20.5l-21 -49t-22 -59t-10.5 -52t13.5 -27.5q5 -2 11.5 0t14 7.5l13 9.5t13 10.5t8.5 7.5q70 55 83 68q-6 -3 -7 -3l13 15l25.5 30.5t16.5 19.5l18.5 18t23 25.5t12.5 22.5q3 9 4.5 13t7 8.5
t15.5 6.5q20 3 41 -6t24 -28q2 -13 -9 -31q-51 -84 -77 -157q92 78 141 115l26 20l26 20q34 30 41 18q2 -4 3 -10zM153 -280q28 64 78 207q-60 -56 -114 -125q-2 -3 -11.5 -14.5t-12 -15t-11 -14.5t-12 -16.5l-10 -15.5t-10.5 -17t-8.5 -16t-8 -17.5t-5.5 -17.5
q-2 -13 -2 -32t10.5 -33.5t28.5 -8.5t47 54q21 35 35 68q1 2 1 3t1 1v1l4 8v1zM211 -266q-4 -7 -13 -33l9 16q9 14 22 54q-13 -23 -18 -37zM245 -157q2 6 0 17q2 -10 -10 -36q-4 -6 -8 -25zM213 -242q2 2 4 6z" />
    <glyph glyph-name="z" unicode="z" horiz-adv-x="407" 
d="M328 156v-1q1 -1 1 -2l87 65q1 1 8.5 7.5l14 12t16.5 11.5t15 5.5t10 -5.5q4 -13 -17 -34q-16 -17 -79 -68q-2 -1 -17 -12.5t-21 -18.5q-7 -8 -7 -22q0 -18 -1 -26q-4 -39 -24 -82q-40 -85 -103 -154.5t-141 -101.5q94 54 134 103q41 50 57 92l16 37.5t17 43.5
q-8 -24 -44 -86q-12 -21 -63 -88q-34 -46 -112 -96q-57 -37 -152 -26q-26 3 -48 12q-29 13 -40 31q-3 5 -4.5 12.5t-2 14.5t-0.5 8q0 11 1 16q-4 -11 -5 -11q-13 13 27 74q25 32 103 78q47 28 142 75t140 74q2 1 5.5 3.5t5 3t4.5 2.5t4 3t3 3.5t2 3.5t1.5 4t0.5 5.5t0 6.5
q-4 32 -19 47q-24 23 -83 -5q-5 -2 -27.5 -17.5t-34.5 -18.5q-12 -2 -21 4.5t-12 18.5q-4 12 8 26v1q-3 1 12 11q17 11 19 11q21 10 38 24q8 7 45 30q4 0 20 16q0 1 3 5l7 9q5 5 15.5 13t14.5 12q8 8 23 26.5t22 26.5l-12 -5h3q1 -2 -21.5 -8.5t-46 -12.5l-27.5 -7
q-37 -8 -49 -3q-5 2 -9.5 6.5t-6.5 5.5q-1 1 -8 3.5t-11 7.5q-8 15 3 34q13 21 27 24q3 1 7.5 0t5.5 -1v1q0 2 7.5 4t14 2t7.5 -1q0 -2 -7 -4q42 6 62 7q-25 0 -25 1t57.5 3.5t70.5 2.5h6t7 -0.5t7.5 -1t8 -1t7 -1.5t6 -2.5t5.5 -3.5t4 -5t2 -6.5t0 -7.5q-2 -12 -23 -33
q-14 -15 -44.5 -36.5t-39.5 -29.5q4 3 8 3q-74 -70 -81 -76q91 5 119 -77q2 2 2 5zM229 21q2 3 3.5 9t2.5 7q-18 -12 -53 -31.5t-48 -27.5q-16 -16 -22 -15l16 11l-22 -12q2 0 2 -2q-4 -6 -42 -27l-45 -26q-59 -34 -81 -54q-72 -64 -41 -99q6 -8 18 -11q3 -1 11.5 0l17 2
l16.5 2l7 1q-4 -2 -7 -4q20 8 39 18h-1q6 3 18 11.5t14 9.5q20 13 35 27q35 30 74 72q58 64 88 139zM279 219q28 -16 42 -48q-16 25 -40 45l-11 4l-22.5 8t-11.5 3q0 3 43 -12zM335 71q2 25 1 37q-2 -2 -3 -14.5t-1.5 -28t-1.5 -20.5q4 15 5 26zM327 426h-3l-2 -1h12
q-1 0 -4 1h-2h-1zM328 156q-4 10 -7 15q7 -11 7 -15zM117 208l-1 -1q1 0 2 1h-1zM264 -95l2 2z" />
    <glyph glyph-name="braceleft" unicode="{" horiz-adv-x="352" 
d="M424 660q1 -6 1.5 -9.5t-5.5 -6t-9 -3.5t-9 -2h3q-5 -2 -19.5 -12.5t-16.5 -12.5q1 3 14 16q-17 -13 -30 -37t-18 -43t-12.5 -53t-10.5 -45q32 121 36 120q-1 0 -12.5 -40l-24 -84t-14.5 -50q-40 -107 -119 -115q19 -16 25 -42.5t4 -43.5t-9 -49l5 10q3 -1 1 -10.5
t-4 -17.5t-5.5 -18t-3.5 -12l-17 -62q-1 -3 -5 -17t-5.5 -22t-3.5 -20t-1 -21.5t4 -17.5q5 -11 22 -18q21 -9 14.5 -20.5t-27.5 -14.5q-60 -9 -83 19q-25 29 -14 104q7 59 31 123q2 6 7 17.5t7 17.5q0 1 2 10l4 17.5t3 9.5v-3q2 4 2 8q-2 -3 -2 6q3 16 1 21q-3 7 -14.5 10
t-15.5 7q-13 14 0 30.5t31 23.5q5 2 14 4t13 3q13 4 25 17q1 1 5 7t8 11l5 6l-3 -8l12 26l-2 -2q3 6 18.5 56t16.5 52q1 4 9 27.5t12 33t12 26t17 27.5q36 45 60 58q7 5 20.5 10t29.5 6.5t21 -8.5zM149 179v1q3 9 4 28t-4 31q4 -4 1.5 -19t-5.5 -26.5t-8.5 -25.5t-5.5 -16
l-28 -98q6 22 45 123q0 1 1 2zM289 383l-1 -1q-8 -18 -13 -27q8 13 15 31q-1 -1 -1 -3zM294 396l-4 -9h1zM310 444l2 8zM149 179l-1 -1q0 1 1 2v-1zM208 372l-1 -1q1 0 1 1zM102 49q-1 -1 -1 -5q0 3 1 5z" />
    <glyph glyph-name="bar" unicode="|" horiz-adv-x="372" 
d="M346 849q0 -42 -3 -43q-1 5 -1 10q-1 -26 -7 -74l1 1q-1 -2 -1 -4q-6 -49 -15 -99q-4 -37 -10 -71l-30 -175q-9 -49 -21 -104l-27 -121.5l-23 -101.5l5 12q3 -5 0 -20t-8 -32.5t-6 -20.5l-17 -72q-18 -75 -39 -150q-13 -43 -43 -127q-1 -3 -4.5 -18.5t-8 -26.5t-10.5 -14
t-1 30q1 4 2 12q1 6 1 7q17 97 25 152q16 90 26 134l6 20.5t5 19.5q0 1 2 22.5t6 25.5q-1 -2 -1 -13q0 1 1 7t2 9l-1 9v2l3 18l9 44q12 59 14 73q6 47 16 85q0 1 1.5 8t3 16t3.5 18t4.5 15t3.5 6l-1 -11q2 6 4 18.5l3 18.5q-2 -2 -2 -4l13 69l29 144.5t18 86.5q1 5 6 17.5
t6 21.5q2 11 17 80q12 54 20 80q3 17 13 26q3 3 5 -1q-1 2 -1 4l4 -11l3 -7v-1zM295 495l-9 -49l8 45v1q1 2 1 3zM295 494v3v-2v-1zM301 526q-2 -8 -2 -10zM337 744l-1 -1q0 1 1 1z" />
    <glyph glyph-name="braceright" unicode="}" horiz-adv-x="394" 
d="M296 313q3 -7 14 -10t15 -7q14 -14 1 -30.5t-32 -23.5q-5 -2 -14 -4t-12 -3q-13 -4 -25 -17q-1 -1 -5 -7t-8 -11l-5 -6l3 8q-8 -15 -12 -26q0 1 2 3q-41 -123 -45 -134q-20 -53 -26 -64q-7 -14 -32 -43q-46 -57 -95 -55q-19 2 -20 11q0 3 1 6t2.5 4.5t4.5 2.5t5 1.5
l6 1.5t5 1h-4q6 2 20 12t16 13q-2 -4 -13 -16q17 13 29.5 37t18 42t13 54t9.5 44q-33 -120 -35 -119q1 0 12.5 40l24 84t14.5 50q40 107 119 115q-20 15 -25.5 42t-3.5 42.5t9 49.5q-2 -8 -5 -9q-5 5 18 83q20 68 23 95q7 44 -20 57q-2 1 -7 2t-8.5 2.5t-4.5 5.5
q-6 15 11 20.5t35 5.5q80 6 84 -70q4 -60 -25 -150q-5 -15 -23 -60q-1 -1 -4 -18.5t-5 -19.5q-1 0 -1 2q0 -1 -0.5 -3t-0.5 -3q1 -4 1 -7v-21zM271 621q26 -24 -4 -124q22 62 24 88q2 18 -20 36zM116 106l-3 -9zM140 175l-4 -8zM145 184l-3 -5zM151 195l-4 -6z" />
    <glyph glyph-name="asciitilde" unicode="~" 
d="M393 212q3 -19 -35 -42q-21 -14 -37 -14q-9 -1 -25 1l-12 2h2h3q-15 2 -76 21l1 1l-9 3q-8 2 -20 2q-7 0 -44 -5q-4 0 -16 -4.5t-17 -3.5q-11 0 -14 5.5t0.5 12t10.5 11.5q0 1 3.5 5t6.5 4v-2q15 11 37 23l-23 -11q-1 1 12 7l26 11.5t17 6.5q14 3 25.5 3.5t24 -3.5
t18 -6.5t21 -11.5l20.5 -12q-4 3 9 0q3 0 7 -1l3 -1q1 0 12.5 -3.5t16.5 -3.5q2 0 16 4t22.5 5.5t13.5 -3.5v-1zM186 244l5 1h-2q-1 0 -2 -0.5zM196 246q-2 -1 -5 -1z" />
    <glyph glyph-name="cent" unicode="&#xa2;" horiz-adv-x="316" 
d="M329 377v-3q3 -21 -5 -47.5t-21 -43.5q-8 -11 -16.5 -10.5t-5.5 16.5q1 4 4.5 20t4.5 26.5t0 21.5q-2 10 -11 16t-20 -1q-4 -3 -7 -11.5t-5.5 -19.5t-3.5 -14q-14 -36 -15 -40q-3 -9 -11.5 -39t-14.5 -47q-5 -15 -28.5 -80l-36.5 -99q8 -2 14 -1h-1q4 1 11.5 4.5
l13.5 6.5l6 3q15 12 43 57q3 5 10 20.5t12 22.5q8 11 16 7.5t9 -18.5q0 -7 -2.5 -14t-7.5 -16t-7 -12q-13 -34 -27 -51q-19 -25 -42 -34q-3 -1 -28 -4q1 0 3 -1q0 -2 -22 -5h-6t-4 -0.5t-3.5 -1t-2 -1t-1.5 -2.5t-1.5 -3.5t-2 -4.5l-2.5 -5t-4 -10l-5.5 -15t-4.5 -8
q-10 -9 -7 14q2 16 10 42q-28 5 -44 21q4 -4 7.5 -8t6 -6t2.5 -1q-1 -3 -16 13t-18 21q-12 23 -14 60q-1 57 19 123q39 130 143 175h-5l32 14q3 3 6 9t4.5 11t3.5 13.5t3 11.5q12 36 23 45q7 7 17.5 10t17.5 -6q1 -1 -2 -15q-11 -44 -20 -71q52 2 59 -34v-1zM202 333
q2 3 4 13q-7 -3 -13 -8.5t-13 -15l-10.5 -14.5t-11.5 -18l-7 -13q-2 -4 -6.5 -10.5l-8 -12l-6.5 -10.5l-2 -8q-3 -9 -6 -16.5t-4 -7.5v3l-3 -7q2 5 2 0q-1 -2 -1 -5l-1 -3q-1 -5 -3.5 -13l-3.5 -11q-9 -29 -9 -49q-2 -58 17 -87q5 22 22.5 74.5t22.5 80.5q3 14 11.5 41
t9.5 30q2 6 5 21t6.5 26.5t8.5 19.5zM85 274q-5 -9 -11 -32q5 8 12 18l1 1v1q1 2 8.5 12.5t9 13t8 12t9.5 12.5t9 10.5t10 11.5l10 10t12 10.5t12 8.5q-28 -18 -66 -56q-17 -19 -24 -33zM41 37l11 -14q-20 27 -22 70q0 -33 11 -56zM124 -11h2q1 1 4 1q-6 0 -6 -1zM155 22
q-1 0 -2 -0.5t-2 -0.5q2 0 4 1zM73 240q0 1 1 2q-1 -1 -1 -2z" />
    <glyph glyph-name="yen" unicode="&#xa5;" horiz-adv-x="298" 
d="M326 382q5 -6 4.5 -13.5t-8.5 -21.5t-14.5 -23.5t-14.5 -20t-9 -11.5q-24 -34 -61 -93q2 -1 14 -2t21 -3t10 -5q4 -8 -3.5 -11t-19.5 -3t-14 -1v2q-33 -7 -43 -32q30 -2 51 -8l18 -2v1q6 -8 -0.5 -11t-17.5 -4h-2q-3 -1 -5.5 0.5t-4.5 1.5q-12 -6 -14 -6q-4 0 -18 0.5
t-17 -1.5q-7 -1 -11.5 -6t-10.5 -15.5t-7 -12.5q-8 -14 -27 -41t-27 -41q6 17 14.5 33.5l19.5 37l17 32.5q6 11 14.5 32l11.5 28l1 2q-29 -38 -41 -68l-22 -54q-1 -2 -7.5 -21.5t-11.5 -27.5q-12 -17 -24.5 -14.5t-20.5 18t-4 30.5q5 16 24 42.5t25 38.5q-9 0 -18.5 7
t-11 15.5t8.5 14.5h5q5 1 16.5 0.5t15.5 1.5q8 2 19 18q-4 -3 -9 -3.5t-8 0.5t-8 3t-7 2q2 -1 0 -3q-5 0 -8 4v1q-2 1 -7 9q0 -2 -1 -2q-8 17 1 23q3 2 15 2h14q25 3 27.5 7.5t-1.5 12.5l1 1q-1 4 -7 15.5t-8 17.5q-2 7 -1 15.5t0 12.5q-1 -3 -3 4q-3 7 -5 17q-2 6 -7 36
q-6 24 -6 26q0 3 3 15q-2 0 -3 1q-1 3 -0.5 4t2.5 2.5t2 2.5v-3q1 5 11 15q-3 -1 -4 0q1 -1 6 2.5t10.5 4.5t10.5 -5q3 -4 4.5 -17t2.5 -16q9 -33 10 -41q1 -5 0.5 -14t-0.5 -13q0 3 2 4q3 0 5 -9t2 -22v-25.5v-23.5l-1 -12l45 66q4 6 22.5 29t26.5 36q1 3 5.5 11.5l7 13
t8.5 10.5t13 9q16 3 20.5 1.5t16.5 -10.5zM83 197q-8 -1 -8 -6q2 5 8 6zM104 198q-2 0 -5.5 -0.5t-4.5 -0.5q6 0 10 1zM129 408q5 -3 6 -11q-1 9 -6 11zM139 376q-1 2 -1 6q0 -4 1 -6z" />
    <glyph glyph-name="dieresis" unicode="&#xa8;" horiz-adv-x="281" 
d="M259 502q4 -19 1 -26h-1q-3 -18 -21 -36q8 6 9 6q3 -1 -13 -13.5t-23 -17.5q-11 -7 -20 -6q-3 1 -12 7t-7 7t3 0l-8 6q3 -4 4 -5l-8 8q-5 13 -4 21q1 21 21 39q7 7 18.5 13.5t24 10.5t22.5 -0.5t12 -18.5q-1 15 -13 19.5t-26 1.5q29 10 41 -16zM119 513q3 0 3.5 -3
t-1 -8.5t-3 -10t-3.5 -9.5l-2 -5q-9 -24 -29 -38q-22 -15 -25 -15q-8 -1 -19 8t-16 18q-13 24 19 59q3 3 10 7.5t9 6.5v4t4 5q3 2 6.5 2t7.5 -1t6 -1l2 2q2 2 4 2q7 0 13 -3q11 -4 14 -20zM194 410q1 2 -0.5 2.5t-4 1t-4.5 1.5q2 -3 8 -5h1zM199 510q-1 2 0.5 3t5.5 2
q-5 -5 -6 -5zM254 468v1q0 3 1 5q-1 -7 -5 -14zM258 485q0 8 -1 -1q-1 -3 -1 -5q0 2 2 6zM210 418q1 0 10 7zM235 437q1 0 3 2zM233 435q1 1 2 1zM218 518h-2l-2 -1l2 1h2z" />
    <glyph glyph-name="acute" unicode="&#xb4;" horiz-adv-x="157" 
d="M136 493q2 -1 -0.5 -5t-8 -9.5l-10.5 -10.5l-10 -10l-5 -4q-13 -14 -54 -46q-19 -14 -25 -9q-12 8 15 56l37 64q1 2 1 5.5t2 5t7 1.5q2 0 6.5 -0.5t8.5 -0.5l3 -1q20 -6 28 -18q1 -2 3 -9.5t2 -8.5z" />
    <glyph glyph-name="cedilla" unicode="&#xb8;" horiz-adv-x="156" 
d="M135 -56q2 -33 -24.5 -52.5t-60.5 -21.5q-17 0 -23 9t-6 28t6 26q5 3 6 3.5t4.5 -2t6.5 -2.5q10 -1 32 1t23 7q1 3 -0.5 6t-4.5 4l-6 2t-7.5 1h-7.5h-6.5h-4.5q-6 0 -10 1.5t-5 4.5t-0.5 6t3 8t4.5 8.5t5.5 9t4.5 8.5q14 28 16 29t10 -2.5t9 -4.5q3 -5 -11 -28
q14 4 29 -14t18 -33l-1 1q0 -1 1 -2v-1z" />
    <glyph glyph-name="Agrave" unicode="&#xc0;" horiz-adv-x="522" 
d="M553 551q3 -5 4 -8.5t0 -7t-2.5 -5t-4.5 -5.5t-4 -5q2 2 4 2q1 0 -4 -9t-11.5 -17.5t-8.5 -7.5l4 8q-38 -56 -69 -142q33 88 44 95q-5 -5 -24.5 -54.5t-22.5 -60.5q-23 -65 -31 -122q-3 -17 -16 -125q-1 -8 -3.5 -25.5t-3.5 -26.5t-2.5 -25.5t0.5 -23.5q0 8 2 12l2 -11
l6 -23t6 -14q1 -2 4.5 -0.5t4.5 1.5q14 2 48 43l8 11.5t11.5 15.5t9.5 9q21 9 11 -34q-12 -48 -28 -72q-29 -38 -60 -38q-36 0 -65 24q-44 40 -48 115q0 16 6 50q0 35 1 35l1 -1v-2v5q-3 0 -3 19q0 6 1 12t2.5 13.5l2.5 12.5q4 20 8 56q0 9 11 50.5t17 40.5q1 0 0.5 -1.5
t-0.5 -4.5v-2l8 28q-102 -166 -167 -257q-1 -2 -12.5 -17.5t-17.5 -22.5t-17 -18.5t-21.5 -17t-20.5 -6.5q-40 -2 -79 58q-12 12 -13 17l10 -12l-12 21q2 -6 -2 1l-4 6q-5 9 -7 22q-6 20 -6 52q0 17 18 105q8 45 32 103q1 1 4.5 10t8 19l9.5 20.5t9 17t6 6.5l-4 -14
q6 16 22 48l-7 -9q0 7 5 16.5t12 20t9 14.5l30 59q28 48 80 113q50 62 95 78q21 7 62 -1q47 -10 103 -58q1 -1 7.5 -6.5t9 -8.5t7.5 -8t6.5 -10t1.5 -10q0 -17 -28 -35q-19 -11 -26.5 -7t-12.5 23l1 -3q0 -3 0.5 -5.5t-0.5 -3.5t-5.5 13.5t-6.5 21.5q-5 15 -7 19q3 -5 8 -10
q-6 17 -16 24q-13 5 -38 -4q-30 -11 -59 -38q-59 -53 -114 -157q26 48 65 100q19 26 40 45q3 3 15 11.5t16 12.5q-6 -7 -21.5 -19.5t-19.5 -16.5q-13 -14 -35 -44q-33 -46 -64 -104q-62 -118 -93 -240q-18 -68 -24 -116q-5 -45 2 -49q14 -8 65 50q46 48 66 72q-9 -9 -10 -8
q-1 0 19 29t23 33l48 68l100 149q3 4 21 38q2 4 19 24q4 4 8 14t7 14q21 21 45 13.5t39 -30.5zM106 222q-10 -78 -11 -99v-4l2 18q2 39 17 99q26 106 60 195q39 99 82 170q30 52 65 82q-38 -30 -72 -91q-55 -94 -84 -163q-44 -102 -59 -207zM330 69q-1 -26 2 -58q-1 11 1 33
q1 9 4 28t4 28q0 5 0.5 22t1.5 26l-7 -20q-6 -24 -6 -59zM181 420v2l-2 -5zM338 696q-2 -1 -4 -2.5l-4.5 -3.5t-3.5 -3zM434 702q0 -2 4 -8zM441 691q-2 1 -3 3zM458 346l3 8zM465 813q5 -33 -48 13q-8 7 -27.5 28t-31.5 29l-5 2.5t-4 2.5l-2.5 2.5t-1.5 3.5t0.5 5t2.5 7
q1 2 4 3l3 1q1 1 0 3.5t1 3.5q10 11 26 13q24 1 35 -19q3 -6 11.5 -18.5t11.5 -19.5q5 -10 14 -37q1 -2 3 -5t3.5 -5t2.5 -5.5t2 -6.5v-1z" />
    <glyph glyph-name="Aacute" unicode="&#xc1;" horiz-adv-x="522" 
d="M553 551q3 -5 4 -8.5t0 -7t-2.5 -5t-4.5 -5.5t-4 -5q2 2 4 2q1 0 -4 -9t-11.5 -17.5t-8.5 -7.5l4 8q-38 -56 -69 -142q33 88 44 95q-5 -5 -24.5 -54.5t-22.5 -60.5q-23 -65 -31 -122q-3 -17 -16 -125q-1 -8 -3.5 -25.5t-3.5 -26.5t-2.5 -25.5t0.5 -23.5q0 8 2 12l2 -11
l6 -23t6 -14q1 -2 4.5 -0.5t4.5 1.5q14 2 48 43l8 11.5t11.5 15.5t9.5 9q21 9 11 -34q-12 -48 -28 -72q-29 -38 -60 -38q-36 0 -65 24q-44 40 -48 115q0 16 6 50q0 35 1 35l1 -1v-2v5q-3 0 -3 19q0 6 1 12t2.5 13.5l2.5 12.5q4 20 8 56q0 9 11 50.5t17 40.5q1 0 0.5 -1.5
t-0.5 -4.5v-2l8 28q-102 -166 -167 -257q-1 -2 -12.5 -17.5t-17.5 -22.5t-17 -18.5t-21.5 -17t-20.5 -6.5q-40 -2 -79 58q-12 12 -13 17l10 -12l-12 21q2 -6 -2 1l-4 6q-5 9 -7 22q-6 20 -6 52q0 17 18 105q8 45 32 103q1 1 4.5 10t8 19l9.5 20.5t9 17t6 6.5l-4 -14
q6 16 22 48l-7 -9q0 7 5 16.5t12 20t9 14.5l30 59q28 48 80 113q50 62 95 78q21 7 62 -1q47 -10 103 -58q1 -1 7.5 -6.5t9 -8.5t7.5 -8t6.5 -10t1.5 -10q0 -17 -28 -35q-19 -11 -26.5 -7t-12.5 23l1 -3q0 -3 0.5 -5.5t-0.5 -3.5t-5.5 13.5t-6.5 21.5q-5 15 -7 19q3 -5 8 -10
q-6 17 -16 24q-13 5 -38 -4q-30 -11 -59 -38q-59 -53 -114 -157q26 48 65 100q19 26 40 45q3 3 15 11.5t16 12.5q-6 -7 -21.5 -19.5t-19.5 -16.5q-13 -14 -35 -44q-33 -46 -64 -104q-62 -118 -93 -240q-18 -68 -24 -116q-5 -45 2 -49q14 -8 65 50q46 48 66 72q-9 -9 -10 -8
q-1 0 19 29t23 33l48 68l100 149q3 4 21 38q2 4 19 24q4 4 8 14t7 14q21 21 45 13.5t39 -30.5zM106 222q-10 -78 -11 -99v-4l2 18q2 39 17 99q26 106 60 195q39 99 82 170q30 52 65 82q-38 -30 -72 -91q-55 -94 -84 -163q-44 -102 -59 -207zM330 69q-1 -26 2 -58q-1 11 1 33
q1 9 4 28t4 28q0 5 0.5 22t1.5 26l-7 -20q-6 -24 -6 -59zM181 420v2l-2 -5zM338 696q-2 -1 -4 -2.5l-4.5 -3.5t-3.5 -3zM434 702q0 -2 4 -8zM441 691q-2 1 -3 3zM458 346l3 8zM531 914q2 -1 -0.5 -5t-8 -9.5l-10.5 -10.5t-10 -9l-5 -5q-13 -14 -54 -46q-19 -14 -25 -9
q-12 8 15 56l37 64q1 2 1 5.5t2 5t7 1.5q2 0 6.5 -0.5t7.5 -1.5h4q20 -6 28 -18q1 -2 3 -9.5t2 -8.5z" />
    <glyph glyph-name="Acircumflex" unicode="&#xc2;" horiz-adv-x="522" 
d="M553 551q3 -5 4 -8.5t0 -7t-2.5 -5t-4.5 -5.5t-4 -5q2 2 4 2q1 0 -4 -9t-11.5 -17.5t-8.5 -7.5l4 8q-38 -56 -69 -142q33 88 44 95q-5 -5 -24.5 -54.5t-22.5 -60.5q-23 -65 -31 -122q-3 -17 -16 -125q-1 -8 -3.5 -25.5t-3.5 -26.5t-2.5 -25.5t0.5 -23.5q0 8 2 12l2 -11
l6 -23t6 -14q1 -2 4.5 -0.5t4.5 1.5q14 2 48 43l8 11.5t11.5 15.5t9.5 9q21 9 11 -34q-12 -48 -28 -72q-29 -38 -60 -38q-36 0 -65 24q-44 40 -48 115q0 16 6 50q0 35 1 35l1 -1v-2v5q-3 0 -3 19q0 6 1 12t2.5 13.5l2.5 12.5q4 20 8 56q0 9 11 50.5t17 40.5q1 0 0.5 -1.5
t-0.5 -4.5v-2l8 28q-102 -166 -167 -257q-1 -2 -12.5 -17.5t-17.5 -22.5t-17 -18.5t-21.5 -17t-20.5 -6.5q-40 -2 -79 58q-12 12 -13 17l10 -12l-12 21q2 -6 -2 1l-4 6q-5 9 -7 22q-6 20 -6 52q0 17 18 105q8 45 32 103q1 1 4.5 10t8 19l9.5 20.5t9 17t6 6.5l-4 -14
q6 16 22 48l-7 -9q0 7 5 16.5t12 20t9 14.5l30 59q28 48 80 113q50 62 95 78q21 7 62 -1q47 -10 103 -58q1 -1 7.5 -6.5t9 -8.5t7.5 -8t6.5 -10t1.5 -10q0 -17 -28 -35q-19 -11 -26.5 -7t-12.5 23l1 -3q0 -3 0.5 -5.5t-0.5 -3.5t-5.5 13.5t-6.5 21.5q-5 15 -7 19q3 -5 8 -10
q-6 17 -16 24q-13 5 -38 -4q-30 -11 -59 -38q-59 -53 -114 -157q26 48 65 100q19 26 40 45q3 3 15 11.5t16 12.5q-6 -7 -21.5 -19.5t-19.5 -16.5q-13 -14 -35 -44q-33 -46 -64 -104q-62 -118 -93 -240q-18 -68 -24 -116q-5 -45 2 -49q14 -8 65 50q46 48 66 72q-9 -9 -10 -8
q-1 0 19 29t23 33l48 68l100 149q3 4 21 38q2 4 19 24q4 4 8 14t7 14q21 21 45 13.5t39 -30.5zM106 222q-10 -78 -11 -99v-4l2 18q2 39 17 99q26 106 60 195q39 99 82 170q30 52 65 82q-38 -30 -72 -91q-55 -94 -84 -163q-44 -102 -59 -207zM330 69q-1 -26 2 -58q-1 11 1 33
q1 9 4 28t4 28q0 5 0.5 22t1.5 26l-7 -20q-6 -24 -6 -59zM181 420v2l-2 -5zM338 696q-2 -1 -4 -2.5l-4.5 -3.5t-3.5 -3zM434 702q0 -2 4 -8zM441 691q-2 1 -3 3zM458 346l3 8zM532 916q3 -34 -1 -82q-1 -14 -9.5 -23.5t-22.5 -4.5q-33 12 -33 99l-13 -12.5l-14.5 -14
t-12.5 -13.5q-30 -35 -57 -44q-16 -5 -12 7q6 20 31 46q3 4 23 25.5l29.5 31.5t27.5 23t33 18q17 7 25 -11q1 -4 1.5 -8.5t1 -10t0.5 -8.5q0 -1 -1 -4.5t0 -5.5q0 -1 2 -3t2 -5z" />
    <glyph glyph-name="Atilde" unicode="&#xc3;" horiz-adv-x="522" 
d="M553 551q3 -5 4 -8.5t0 -7t-2.5 -5t-4.5 -5.5t-4 -5q2 2 4 2q1 0 -4 -9t-11.5 -17.5t-8.5 -7.5l4 8q-38 -56 -69 -142q33 88 44 95q-5 -5 -24.5 -54.5t-22.5 -60.5q-23 -65 -31 -122q-3 -17 -16 -125q-1 -8 -3.5 -25.5t-3.5 -26.5t-2.5 -25.5t0.5 -23.5q0 8 2 12l2 -11
l6 -23t6 -14q1 -2 4.5 -0.5t4.5 1.5q14 2 48 43l8 11.5t11.5 15.5t9.5 9q21 9 11 -34q-12 -48 -28 -72q-29 -38 -60 -38q-36 0 -65 24q-44 40 -48 115q0 16 6 50q0 35 1 35l1 -1v-2v5q-3 0 -3 19q0 6 1 12t2.5 13.5l2.5 12.5q4 20 8 56q0 9 11 50.5t17 40.5q1 0 0.5 -1.5
t-0.5 -4.5v-2l8 28q-102 -166 -167 -257q-1 -2 -12.5 -17.5t-17.5 -22.5t-17 -18.5t-21.5 -17t-20.5 -6.5q-40 -2 -79 58q-12 12 -13 17l10 -12l-12 21q2 -6 -2 1l-4 6q-5 9 -7 22q-6 20 -6 52q0 17 18 105q8 45 32 103q1 1 4.5 10t8 19l9.5 20.5t9 17t6 6.5l-4 -14
q6 16 22 48l-7 -9q0 7 5 16.5t12 20t9 14.5l30 59q28 48 80 113q50 62 95 78q21 7 62 -1q47 -10 103 -58q1 -1 7.5 -6.5t9 -8.5t7.5 -8t6.5 -10t1.5 -10q0 -17 -28 -35q-19 -11 -26.5 -7t-12.5 23l1 -3q0 -3 0.5 -5.5t-0.5 -3.5t-5.5 13.5t-6.5 21.5q-5 15 -7 19q3 -5 8 -10
q-6 17 -16 24q-13 5 -38 -4q-30 -11 -59 -38q-59 -53 -114 -157q26 48 65 100q19 26 40 45q3 3 15 11.5t16 12.5q-6 -7 -21.5 -19.5t-19.5 -16.5q-13 -14 -35 -44q-33 -46 -64 -104q-62 -118 -93 -240q-18 -68 -24 -116q-5 -45 2 -49q14 -8 65 50q46 48 66 72q-9 -9 -10 -8
q-1 0 19 29t23 33l48 68l100 149q3 4 21 38q2 4 19 24q4 4 8 14t7 14q21 21 45 13.5t39 -30.5zM106 222q-10 -78 -11 -99v-4l2 18q2 39 17 99q26 106 60 195q39 99 82 170q30 52 65 82q-38 -30 -72 -91q-55 -94 -84 -163q-44 -102 -59 -207zM330 69q-1 -26 2 -58q-1 11 1 33
q1 9 4 28t4 28q0 5 0.5 22t1.5 26l-7 -20q-6 -24 -6 -59zM181 420v2l-2 -5zM338 696q-2 -1 -4 -2.5l-4.5 -3.5t-3.5 -3zM434 702q0 -2 4 -8zM441 691q-2 1 -3 3zM458 346l3 8zM559 876q1 1 3 4.5t4 5.5t5.5 2t6.5 -5q2 -9 1 -12.5t-8 -10.5t-7 -8q-11 -15 -21 -21
q-26 -15 -57 -8q-9 3 -29 13t-31 12q-25 6 -39 2q-3 -1 -12 -5.5t-13 -5.5t-12 2q-21 15 8.5 37.5t51.5 29.5q15 8 31 4.5t25 -9.5l24 -16.5t27 -15.5q24 -10 42 5z" />
    <glyph glyph-name="Adieresis" unicode="&#xc4;" horiz-adv-x="522" 
d="M553 551q3 -5 4 -8.5t0 -7t-2.5 -5t-4.5 -5.5t-4 -5q2 2 4 2q1 0 -4 -9t-11.5 -17.5t-8.5 -7.5l4 8q-38 -56 -69 -142q33 88 44 95q-5 -5 -24.5 -54.5t-22.5 -60.5q-23 -65 -31 -122q-3 -17 -16 -125q-1 -8 -3.5 -25.5t-3.5 -26.5t-2.5 -25.5t0.5 -23.5q0 8 2 12l2 -11
l6 -23t6 -14q1 -2 4.5 -0.5t4.5 1.5q14 2 48 43l8 11.5t11.5 15.5t9.5 9q21 9 11 -34q-12 -48 -28 -72q-29 -38 -60 -38q-36 0 -65 24q-44 40 -48 115q0 16 6 50q0 35 1 35l1 -1v-2v5q-3 0 -3 19q0 6 1 12t2.5 13.5l2.5 12.5q4 20 8 56q0 9 11 50.5t17 40.5q1 0 0.5 -1.5
t-0.5 -4.5v-2l8 28q-102 -166 -167 -257q-1 -2 -12.5 -17.5t-17.5 -22.5t-17 -18.5t-21.5 -17t-20.5 -6.5q-40 -2 -79 58q-12 12 -13 17l10 -12l-12 21q2 -6 -2 1l-4 6q-5 9 -7 22q-6 20 -6 52q0 17 18 105q8 45 32 103q1 1 4.5 10t8 19l9.5 20.5t9 17t6 6.5l-4 -14
q6 16 22 48l-7 -9q0 7 5 16.5t12 20t9 14.5l30 59q28 48 80 113q50 62 95 78q21 7 62 -1q47 -10 103 -58q1 -1 7.5 -6.5t9 -8.5t7.5 -8t6.5 -10t1.5 -10q0 -17 -28 -35q-19 -11 -26.5 -7t-12.5 23l1 -3q0 -3 0.5 -5.5t-0.5 -3.5t-5.5 13.5t-6.5 21.5q-5 15 -7 19q3 -5 8 -10
q-6 17 -16 24q-13 5 -38 -4q-30 -11 -59 -38q-59 -53 -114 -157q26 48 65 100q19 26 40 45q3 3 15 11.5t16 12.5q-6 -7 -21.5 -19.5t-19.5 -16.5q-13 -14 -35 -44q-33 -46 -64 -104q-62 -118 -93 -240q-18 -68 -24 -116q-5 -45 2 -49q14 -8 65 50q46 48 66 72q-9 -9 -10 -8
q-1 0 19 29t23 33l48 68l100 149q3 4 21 38q2 4 19 24q4 4 8 14t7 14q21 21 45 13.5t39 -30.5zM106 222q-10 -78 -11 -99v-4l2 18q2 39 17 99q26 106 60 195q39 99 82 170q30 52 65 82q-38 -30 -72 -91q-55 -94 -84 -163q-44 -102 -59 -207zM330 69q-1 -26 2 -58q-1 11 1 33
q1 9 4 28t4 28q0 5 0.5 22t1.5 26l-7 -20q-6 -24 -6 -59zM181 420v2l-2 -5zM338 696q-2 -1 -4 -2.5l-4.5 -3.5t-3.5 -3zM434 702q0 -2 4 -8zM441 691q-2 1 -3 3zM458 346l3 8zM579 894q4 -19 1 -26h-1q-3 -18 -21 -36q8 6 9 6q3 -1 -13 -13.5t-23 -17.5q-11 -7 -20 -6
q-3 1 -12 7t-7 7t3 0l-8 6q3 -4 4 -5l-8 8q-5 13 -4 21q1 21 21 39q7 7 18.5 13.5t24 10.5t22.5 -0.5t12 -18.5q-1 15 -13 19.5t-26 1.5q29 10 41 -16zM439 905q3 0 3.5 -3t-1 -8.5t-3 -10t-3.5 -9.5l-2 -5q-9 -24 -29 -38q-22 -15 -25 -15q-8 -1 -19 8t-16 18q-13 24 19 59
q3 3 10 7.5t9 6.5v4t4 5q3 2 6.5 2t7.5 -1t6 -1l2 2q2 2 4 2q7 0 13 -3q11 -4 14 -20zM514 802q1 2 -0.5 2.5t-4 1t-4.5 1.5q2 -3 8 -5h1zM519 902q-1 2 0.5 3t5.5 2q-5 -5 -6 -5zM574 860v1q0 3 1 5q-1 -7 -5 -14zM578 877q0 8 -1 -1q-1 -3 -1 -5q0 2 2 6zM530 810
q1 0 10 7zM555 829q1 0 3 2zM553 827q1 1 2 1zM538 910h-2l-2 -1l2 1h2z" />
    <glyph glyph-name="Aring" unicode="&#xc5;" horiz-adv-x="522" 
d="M553 551q3 -5 4 -8.5t0 -7t-2.5 -5t-4.5 -5.5t-4 -5q2 2 4 2q1 0 -4 -9t-11.5 -17.5t-8.5 -7.5l4 8q-38 -56 -69 -142q33 88 44 95q-5 -5 -24.5 -54.5t-22.5 -60.5q-23 -65 -31 -122q-3 -17 -16 -125q-1 -8 -3.5 -25.5t-3.5 -26.5t-2.5 -25.5t0.5 -23.5q0 8 2 12l2 -11
l6 -23t6 -14q1 -2 4.5 -0.5t4.5 1.5q14 2 48 43l8 11.5t11.5 15.5t9.5 9q21 9 11 -34q-12 -48 -28 -72q-29 -38 -60 -38q-36 0 -65 24q-44 40 -48 115q0 16 6 50q0 35 1 35l1 -1v-2v5q-3 0 -3 19q0 6 1 12t2.5 13.5l2.5 12.5q4 20 8 56q0 9 11 50.5t17 40.5q1 0 0.5 -1.5
t-0.5 -4.5v-2l8 28q-102 -166 -167 -257q-1 -2 -12.5 -17.5t-17.5 -22.5t-17 -18.5t-21.5 -17t-20.5 -6.5q-40 -2 -79 58q-12 12 -13 17l10 -12l-12 21q2 -6 -2 1l-4 6q-5 9 -7 22q-6 20 -6 52q0 17 18 105q8 45 32 103q1 1 4.5 10t8 19l9.5 20.5t9 17t6 6.5l-4 -14
q6 16 22 48l-7 -9q0 7 5 16.5t12 20t9 14.5l30 59q28 48 80 113q50 62 95 78q21 7 62 -1q47 -10 103 -58q1 -1 7.5 -6.5t9 -8.5t7.5 -8t6.5 -10t1.5 -10q0 -17 -28 -35q-19 -11 -26.5 -7t-12.5 23l1 -3q0 -3 0.5 -5.5t-0.5 -3.5t-5.5 13.5t-6.5 21.5q-5 15 -7 19q3 -5 8 -10
q-6 17 -16 24q-13 5 -38 -4q-30 -11 -59 -38q-59 -53 -114 -157q26 48 65 100q19 26 40 45q3 3 15 11.5t16 12.5q-6 -7 -21.5 -19.5t-19.5 -16.5q-13 -14 -35 -44q-33 -46 -64 -104q-62 -118 -93 -240q-18 -68 -24 -116q-5 -45 2 -49q14 -8 65 50q46 48 66 72q-9 -9 -10 -8
q-1 0 19 29t23 33l48 68l100 149q3 4 21 38q2 4 19 24q4 4 8 14t7 14q21 21 45 13.5t39 -30.5zM106 222q-10 -78 -11 -99v-4l2 18q2 39 17 99q26 106 60 195q39 99 82 170q30 52 65 82q-38 -30 -72 -91q-55 -94 -84 -163q-44 -102 -59 -207zM330 69q-1 -26 2 -58q-1 11 1 33
q1 9 4 28t4 28q0 5 0.5 22t1.5 26l-7 -20q-6 -24 -6 -59zM181 420v2l-2 -5zM338 696q-2 -1 -4 -2.5l-4.5 -3.5t-3.5 -3zM434 702q0 -2 4 -8zM441 691q-2 1 -3 3zM458 346l3 8zM526 893q3 -1 2.5 -5.5t-2.5 -11.5l-2 -6q-9 -21 -21 -32q-21 -19 -42 -22q-35 -3 -54 16.5
t-9 53.5q12 35 27 45q4 2 10.5 2t8.5 1q2 0 2.5 2t2.5 3q3 1 20 1q62 -4 57 -47zM505 883q3 5 -0.5 17.5t-9.5 15.5h-7q-4 -1 -7.5 -2.5t-5.5 -3t-4.5 -4.5t-3 -4.5t-2.5 -5.5t-3 -5q-2 -3 -5.5 -12t-6.5 -19t-2 -18t7 -8q0 5 3.5 6t8.5 -0.5t6 -0.5q-1 3 2.5 6t9 6.5
t6.5 5.5l4.5 7t5 10t4.5 9z" />
    <glyph glyph-name="Ccedilla" unicode="&#xc7;" horiz-adv-x="499" 
d="M94 80v-1l-1 -1v-1q-7 -41 -5 -89l3 -6q2 -6 2 -13q3 -2 8.5 -12.5t7.5 -12.5q11 -11 32 -13q14 0 26 3q70 16 151 105q59 64 104 137q1 1 5 10t8.5 14t9.5 5q12 -1 6 -43q-18 -138 -158 -256q-62 -50 -95 -52q-34 -2 -86 30q-81 47 -105 120q-3 9 -4.5 19.5l-2.5 17.5
t0 21t1.5 18t3 20.5t2.5 18.5v11q0 12 2 15l-1 -19q0 1 1 10t2 13v13v2q1 7 5 26q3 16 16 56q6 18 20 56t20 58q14 44 45 101q1 1 7 12.5l12.5 23.5l13.5 25t13 21t9 7l-6 -15q26 45 31 52l-9 -10q1 4 28 41q2 4 23 35q28 41 59 76q21 22 34 34t37 26.5t45 15.5
q57 3 92.5 -44.5t36.5 -104.5v-1q0 -67 -33 -104q-18 -20 -47 -37.5t-53 -20.5q-6 -2 -13.5 -1t-6.5 9q0 2 7 7h-1q3 1 22 38.5t23 36.5l-15 -34q30 57 46 98q20 57 12 76q-12 26 -64 -3l-14 -8l5 2q-7 -4 -12 -9q9 7 17 10q42 29 60 16q14 -12 4 -39q8 36 -14 40
q-11 2 -27.5 -6.5l-18.5 -9.5q-52 -34 -112 -124q-49 -70 -90 -156q-26 -52 -71 -176q-42 -113 -53 -174v-5q0 -1 -1 -2zM270 569q32 54 59 87q-83 -91 -141 -214q-45 -96 -76 -195q16 47 53 124q61 126 105 198zM373 679q2 2 7 7.5t9.5 9.5t8.5 8q-28 -22 -64 -70
q24 30 39 45zM475 671q0 -2 -1 -4q0 4 3 13.5t3 11.5q-1 -10 -5 -21zM167 -191q2 -33 -24.5 -52.5t-60.5 -21.5q-17 0 -23 9t-6 28t6 26q5 3 6 3.5t4.5 -2t6.5 -2.5q10 -1 32 1t23 7q1 3 -0.5 6t-4.5 4l-6 2t-7.5 1h-7.5h-6.5h-4.5q-6 0 -10 1.5t-5 4.5t-0.5 6t3 8t4.5 8.5
t5.5 9t4.5 8.5q14 28 16 29t10 -2.5t9 -4.5q3 -5 -11 -28q14 4 29 -14t18 -33l-1 1q0 -1 1 -2v-1z" />
    <glyph glyph-name="Egrave" unicode="&#xc8;" horiz-adv-x="465" 
d="M696 730q1 -5 -2.5 -9.5t-11 -7.5l-12.5 -5t-13.5 -4t-9.5 -2q-4 -1 -13 -1.5t-13 -2.5q-4 3 -10 0q1 -3 -1 -5q-23 -11 -56 -16q-7 -1 -28 -6t-32 -7q-22 -3 -25 -4q-5 -2 -8.5 -4t-6.5 -3q-10 -4 -55 -9q-13 -3 -31 -8l-18 -3q0 -4 -4 -8q0 5 2 8q-4 -1 -19 -47
l-21 -53l-29 -77q21 57 37 95q-23 -56 -82 -223l65 6t66 7q47 6 68 7h13q1 0 4 3t4 2q17 -6 1 -20q-8 -7 -27.5 -8.5t-21.5 -2.5q-4 -1 -6.5 -3.5t-6.5 -4.5q-4 -3 -35 -9q-8 -1 -17.5 -2.5t-20.5 -3.5t-18 -3q-6 -1 -17.5 -6t-20.5 -6q-4 -1 -15 -1t-20 -1.5t-14 -5.5
q-3 -2 -5.5 -10t-5 -18t-3.5 -12l-12 -37q-13 -42 -49 -144q-10 -26 -28 -78q-16 -47 -16 -52q0 -1 1 3q4 12 6 13q2 -1 1 -9.5t-1 -9.5q15 3 34.5 10.5t31 13.5t34.5 19t29 16q19 10 56.5 31.5t56.5 31.5q14 7 20 3t0 -19q-8 -21 -41 -52q-51 -46 -67 -59
q-17 -13 -26.5 -19.5l-27.5 -18.5t-31.5 -17.5t-30.5 -10.5t-33.5 -4t-31.5 7q-33 13 -56 40t-20 59q1 11 22 48q0 1 3.5 13t7 22.5t5.5 10.5q-3 -10 -4 -13l5 15l1 4q0 4 1 8.5t1 5.5l11 28q2 4 9.5 23t11.5 30q6 16 17 52t19 54q-23 0 -41 21t8 33q2 0 2 1q3 1 43 4l9 3
t8 2l1 3l1.5 3t1.5 1q-2 -8 -3 -9q4 1 15 38q-1 -3 -5 -9q4 0 88 264q-18 -1 -38 0t-35.5 13.5t-12.5 33.5q1 15 18 21q8 3 49.5 4.5t50.5 15.5q4 6 8 25.5t18 24.5q23 8 54 -14q5 -3 11 -10.5t8 -9.5q3 -4 3 -10l19 3q15 2 63.5 6.5t74.5 7.5q107 12 131 13q12 0 16 1
q2 0 5 2l3 2q11 0 12 -8zM185 374q9 22 22 67t15 51q-1 -4 -13 -33t-17 -44l-47 -129l19.5 42t20.5 46zM234 336l9 24l-13 -32q6 0 4 8zM322 564v-1q-1 -1 -1 -2q1 2 1 3zM322 564l2 2zM319 558l-3 -7zM451 791q5 -33 -48 13q-8 7 -27.5 28t-31.5 29l-5 2.5t-4 2.5l-2.5 2.5
t-1.5 3.5t0.5 5t2.5 7q1 2 4 3l3 1q1 1 0 3.5t1 3.5q10 11 26 13q24 1 35 -19q3 -6 11.5 -18.5t11.5 -19.5q5 -10 14 -37q1 -2 3 -5t3.5 -5t2.5 -5.5t2 -6.5v-1z" />
    <glyph glyph-name="Eacute" unicode="&#xc9;" horiz-adv-x="465" 
d="M696 730q1 -5 -2.5 -9.5t-11 -7.5l-12.5 -5t-13.5 -4t-9.5 -2q-4 -1 -13 -1.5t-13 -2.5q-4 3 -10 0q1 -3 -1 -5q-23 -11 -56 -16q-7 -1 -28 -6t-32 -7q-22 -3 -25 -4q-5 -2 -8.5 -4t-6.5 -3q-10 -4 -55 -9q-13 -3 -31 -8l-18 -3q0 -4 -4 -8q0 5 2 8q-4 -1 -19 -47
l-21 -53l-29 -77q21 57 37 95q-23 -56 -82 -223l65 6t66 7q47 6 68 7h13q1 0 4 3t4 2q17 -6 1 -20q-8 -7 -27.5 -8.5t-21.5 -2.5q-4 -1 -6.5 -3.5t-6.5 -4.5q-4 -3 -35 -9q-8 -1 -17.5 -2.5t-20.5 -3.5t-18 -3q-6 -1 -17.5 -6t-20.5 -6q-4 -1 -15 -1t-20 -1.5t-14 -5.5
q-3 -2 -5.5 -10t-5 -18t-3.5 -12l-12 -37q-13 -42 -49 -144q-10 -26 -28 -78q-16 -47 -16 -52q0 -1 1 3q4 12 6 13q2 -1 1 -9.5t-1 -9.5q15 3 34.5 10.5t31 13.5t34.5 19t29 16q19 10 56.5 31.5t56.5 31.5q14 7 20 3t0 -19q-8 -21 -41 -52q-51 -46 -67 -59
q-17 -13 -26.5 -19.5l-27.5 -18.5t-31.5 -17.5t-30.5 -10.5t-33.5 -4t-31.5 7q-33 13 -56 40t-20 59q1 11 22 48q0 1 3.5 13t7 22.5t5.5 10.5q-3 -10 -4 -13l5 15l1 4q0 4 1 8.5t1 5.5l11 28q2 4 9.5 23t11.5 30q6 16 17 52t19 54q-23 0 -41 21t8 33q2 0 2 1q3 1 43 4l9 3
t8 2l1 3l1.5 3t1.5 1q-2 -8 -3 -9q4 1 15 38q-1 -3 -5 -9q4 0 88 264q-18 -1 -38 0t-35.5 13.5t-12.5 33.5q1 15 18 21q8 3 49.5 4.5t50.5 15.5q4 6 8 25.5t18 24.5q23 8 54 -14q5 -3 11 -10.5t8 -9.5q3 -4 3 -10l19 3q15 2 63.5 6.5t74.5 7.5q107 12 131 13q12 0 16 1
q2 0 5 2l3 2q11 0 12 -8zM185 374q9 22 22 67t15 51q-1 -4 -13 -33t-17 -44l-47 -129l19.5 42t20.5 46zM234 336l9 24l-13 -32q6 0 4 8zM322 564v-1q-1 -1 -1 -2q1 2 1 3zM322 564l2 2zM319 558l-3 -7zM517 869q2 -1 -0.5 -5t-8 -9.5l-10.5 -10.5l-10 -10l-5 -4
q-13 -14 -54 -46q-19 -14 -25 -9q-12 8 15 56l37 64q1 2 1 5.5t2 5t7 1.5q2 0 6.5 -0.5t7.5 -0.5l4 -1q20 -6 28 -18q1 -2 3 -9.5t2 -8.5z" />
    <glyph glyph-name="Ecircumflex" unicode="&#xca;" horiz-adv-x="465" 
d="M696 730q1 -5 -2.5 -9.5t-11 -7.5l-12.5 -5t-13.5 -4t-9.5 -2q-4 -1 -13 -1.5t-13 -2.5q-4 3 -10 0q1 -3 -1 -5q-23 -11 -56 -16q-7 -1 -28 -6t-32 -7q-22 -3 -25 -4q-5 -2 -8.5 -4t-6.5 -3q-10 -4 -55 -9q-13 -3 -31 -8l-18 -3q0 -4 -4 -8q0 5 2 8q-4 -1 -19 -47
l-21 -53l-29 -77q21 57 37 95q-23 -56 -82 -223l65 6t66 7q47 6 68 7h13q1 0 4 3t4 2q17 -6 1 -20q-8 -7 -27.5 -8.5t-21.5 -2.5q-4 -1 -6.5 -3.5t-6.5 -4.5q-4 -3 -35 -9q-8 -1 -17.5 -2.5t-20.5 -3.5t-18 -3q-6 -1 -17.5 -6t-20.5 -6q-4 -1 -15 -1t-20 -1.5t-14 -5.5
q-3 -2 -5.5 -10t-5 -18t-3.5 -12l-12 -37q-13 -42 -49 -144q-10 -26 -28 -78q-16 -47 -16 -52q0 -1 1 3q4 12 6 13q2 -1 1 -9.5t-1 -9.5q15 3 34.5 10.5t31 13.5t34.5 19t29 16q19 10 56.5 31.5t56.5 31.5q14 7 20 3t0 -19q-8 -21 -41 -52q-51 -46 -67 -59
q-17 -13 -26.5 -19.5l-27.5 -18.5t-31.5 -17.5t-30.5 -10.5t-33.5 -4t-31.5 7q-33 13 -56 40t-20 59q1 11 22 48q0 1 3.5 13t7 22.5t5.5 10.5q-3 -10 -4 -13l5 15l1 4q0 4 1 8.5t1 5.5l11 28q2 4 9.5 23t11.5 30q6 16 17 52t19 54q-23 0 -41 21t8 33q2 0 2 1q3 1 43 4l9 3
t8 2l1 3l1.5 3t1.5 1q-2 -8 -3 -9q4 1 15 38q-1 -3 -5 -9q4 0 88 264q-18 -1 -38 0t-35.5 13.5t-12.5 33.5q1 15 18 21q8 3 49.5 4.5t50.5 15.5q4 6 8 25.5t18 24.5q23 8 54 -14q5 -3 11 -10.5t8 -9.5q3 -4 3 -10l19 3q15 2 63.5 6.5t74.5 7.5q107 12 131 13q12 0 16 1
q2 0 5 2l3 2q11 0 12 -8zM185 374q9 22 22 67t15 51q-1 -4 -13 -33t-17 -44l-47 -129l19.5 42t20.5 46zM234 336l9 24l-13 -32q6 0 4 8zM322 564v-1q-1 -1 -1 -2q1 2 1 3zM322 564l2 2zM319 558l-3 -7zM498 901q3 -34 -1 -82q-1 -14 -9.5 -23.5t-22.5 -4.5q-33 12 -33 99
l-13 -12.5l-14.5 -14t-12.5 -13.5q-30 -35 -57 -44q-16 -5 -12 7q6 20 31 46q3 4 23 25.5l29.5 31.5t27.5 23t33 18q17 7 25 -11q1 -4 1.5 -8.5t1 -10t0.5 -8.5q0 -1 -1 -4.5t0 -5.5q0 -1 2 -3t2 -5z" />
    <glyph glyph-name="Edieresis" unicode="&#xcb;" horiz-adv-x="465" 
d="M696 730q1 -5 -2.5 -9.5t-11 -7.5l-12.5 -5t-13.5 -4t-9.5 -2q-4 -1 -13 -1.5t-13 -2.5q-4 3 -10 0q1 -3 -1 -5q-23 -11 -56 -16q-7 -1 -28 -6t-32 -7q-22 -3 -25 -4q-5 -2 -8.5 -4t-6.5 -3q-10 -4 -55 -9q-13 -3 -31 -8l-18 -3q0 -4 -4 -8q0 5 2 8q-4 -1 -19 -47
l-21 -53l-29 -77q21 57 37 95q-23 -56 -82 -223l65 6t66 7q47 6 68 7h13q1 0 4 3t4 2q17 -6 1 -20q-8 -7 -27.5 -8.5t-21.5 -2.5q-4 -1 -6.5 -3.5t-6.5 -4.5q-4 -3 -35 -9q-8 -1 -17.5 -2.5t-20.5 -3.5t-18 -3q-6 -1 -17.5 -6t-20.5 -6q-4 -1 -15 -1t-20 -1.5t-14 -5.5
q-3 -2 -5.5 -10t-5 -18t-3.5 -12l-12 -37q-13 -42 -49 -144q-10 -26 -28 -78q-16 -47 -16 -52q0 -1 1 3q4 12 6 13q2 -1 1 -9.5t-1 -9.5q15 3 34.5 10.5t31 13.5t34.5 19t29 16q19 10 56.5 31.5t56.5 31.5q14 7 20 3t0 -19q-8 -21 -41 -52q-51 -46 -67 -59
q-17 -13 -26.5 -19.5l-27.5 -18.5t-31.5 -17.5t-30.5 -10.5t-33.5 -4t-31.5 7q-33 13 -56 40t-20 59q1 11 22 48q0 1 3.5 13t7 22.5t5.5 10.5q-3 -10 -4 -13l5 15l1 4q0 4 1 8.5t1 5.5l11 28q2 4 9.5 23t11.5 30q6 16 17 52t19 54q-23 0 -41 21t8 33q2 0 2 1q3 1 43 4l9 3
t8 2l1 3l1.5 3t1.5 1q-2 -8 -3 -9q4 1 15 38q-1 -3 -5 -9q4 0 88 264q-18 -1 -38 0t-35.5 13.5t-12.5 33.5q1 15 18 21q8 3 49.5 4.5t50.5 15.5q4 6 8 25.5t18 24.5q23 8 54 -14q5 -3 11 -10.5t8 -9.5q3 -4 3 -10l19 3q15 2 63.5 6.5t74.5 7.5q107 12 131 13q12 0 16 1
q2 0 5 2l3 2q11 0 12 -8zM185 374q9 22 22 67t15 51q-1 -4 -13 -33t-17 -44l-47 -129l19.5 42t20.5 46zM234 336l9 24l-13 -32q6 0 4 8zM322 564v-1q-1 -1 -1 -2q1 2 1 3zM322 564l2 2zM319 558l-3 -7zM577 881q4 -19 1 -26h-1q-3 -17 -21 -36q8 6 9 6q3 -1 -13 -13.5
t-23 -17.5q-11 -7 -20 -6q-3 1 -12 7t-7 7q2 2 3 0l-8 6q3 -4 4 -5l-8 8q-5 13 -4 21q1 21 21 39q7 7 18.5 13.5t24 10.5t22.5 -0.5t12 -18.5q-1 15 -13 19.5t-26 1.5q29 10 41 -16zM437 892q3 0 3.5 -3t-1 -8.5t-3 -10t-3.5 -9.5l-2 -5q-9 -24 -29 -38q-22 -15 -25 -15
q-8 -1 -19 8t-16 18q-13 24 19 59q3 3 10 7.5t9 6.5v4q0 3 4 5q3 2 6.5 2t7.5 -1t6 -1l2 2q2 2 4 2q7 0 13 -3q11 -4 14 -20zM512 789q1 2 -0.5 2.5t-4 1t-4.5 1.5q2 -3 8 -5h1zM517 889q-1 2 0.5 3t5.5 2q-5 -5 -6 -5zM572 847v1q0 3 1 5q-1 -7 -5 -14zM576 864q0 8 -1 -1
q-1 -3 -1 -5q0 2 2 6zM528 797q1 0 10 7zM553 816q1 0 3 2zM551 814q1 1 2 1zM536 897q-1 0 -2 -1h-2h2q1 1 2 1z" />
    <glyph glyph-name="Igrave" unicode="&#xcc;" horiz-adv-x="448" 
d="M644 696q3 -18 -49 -23q-8 -1 -19 -6t-20 -7q-36 -8 -54 -11q-1 0 -9.5 -0.5t-10.5 -1.5q-5 -2 -3 -7t2 -7q-2 -7 -31 -65l-54 -109q-9 -17 -22 -51t-21 -51q-19 -38 -51 -116q-7 -16 -16.5 -47t-14.5 -45q-26 -62 -49 -142q88 9 142 6q1 0 8.5 -1t10.5 0q2 0 3.5 3
t3.5 2q8 -2 8 -10q0 -10 -16 -15t-30 -5q-15 -2 -18 -3q-15 -9 -19 -10l-52 -11q-10 -2 -25 -6t-28 -6.5t-26 -4.5q-8 -1 -24 -4t-24 -4q-6 -1 -14.5 -5t-11.5 -5q-63 -20 -93 -3q-14 9 -16.5 23.5t12.5 23.5q6 4 21.5 5.5t18.5 2.5q11 2 31 5t36 6t30 7q-6 13 -7.5 26
t2 29.5t6 25t10 29t9.5 24.5q12 33 32 76q6 14 14.5 41.5t11.5 34.5q8 22 74 170q6 12 33.5 74.5t43.5 95.5q-2 0 -26 -10q-15 -7 -55 -9q-21 -1 -40 10.5t-11 31.5q3 8 13 12q4 2 43 8q45 9 56 10q13 1 38 8q13 4 21 14q6 6 10 16q-3 3 0 7q5 6 18 8q25 3 49 -19l4.5 -4.5
l4 -4t4 -2.5t6.5 -2q3 -1 11 0t10 1q44 3 75 1q1 0 9 -1t10 0q2 0 3 3t3 2q8 -2 9 -7v-1zM390 508q7 13 20 49q-2 -4 -12 -15.5t-12 -17.5q-3 -7 -4.5 -21t-2.5 -18zM349 452q3 5 5.5 14.5t4.5 13.5q-8 -10 -10 -14q-3 -7 -7.5 -19.5t-6.5 -16.5zM505 800q5 -33 -48 13
q-8 7 -27.5 28t-31.5 29l-5 2.5t-4 2.5l-2.5 2.5t-1.5 3.5t0.5 5t2.5 7q1 2 4 3l3 1q1 1 0 3.5t1 3.5q10 11 26 13q24 1 35 -19q3 -6 11.5 -18.5t11.5 -19.5q5 -10 14 -37q1 -2 3 -5t3.5 -5t2.5 -5.5t2 -6.5v-1z" />
    <glyph glyph-name="Iacute" unicode="&#xcd;" horiz-adv-x="448" 
d="M644 696q3 -18 -49 -23q-8 -1 -19 -6t-20 -7q-36 -8 -54 -11q-1 0 -9.5 -0.5t-10.5 -1.5q-5 -2 -3 -7t2 -7q-2 -7 -31 -65l-54 -109q-9 -17 -22 -51t-21 -51q-19 -38 -51 -116q-7 -16 -16.5 -47t-14.5 -45q-26 -62 -49 -142q88 9 142 6q1 0 8.5 -1t10.5 0q2 0 3.5 3
t3.5 2q8 -2 8 -10q0 -10 -16 -15t-30 -5q-15 -2 -18 -3q-15 -9 -19 -10l-52 -11q-10 -2 -25 -6t-28 -6.5t-26 -4.5q-8 -1 -24 -4t-24 -4q-6 -1 -14.5 -5t-11.5 -5q-63 -20 -93 -3q-14 9 -16.5 23.5t12.5 23.5q6 4 21.5 5.5t18.5 2.5q11 2 31 5t36 6t30 7q-6 13 -7.5 26
t2 29.5t6 25t10 29t9.5 24.5q12 33 32 76q6 14 14.5 41.5t11.5 34.5q8 22 74 170q6 12 33.5 74.5t43.5 95.5q-2 0 -26 -10q-15 -7 -55 -9q-21 -1 -40 10.5t-11 31.5q3 8 13 12q4 2 43 8q45 9 56 10q13 1 38 8q13 4 21 14q6 6 10 16q-3 3 0 7q5 6 18 8q25 3 49 -19l4.5 -4.5
l4 -4t4 -2.5t6.5 -2q3 -1 11 0t10 1q44 3 75 1q1 0 9 -1t10 0q2 0 3 3t3 2q8 -2 9 -7v-1zM390 508q7 13 20 49q-2 -4 -12 -15.5t-12 -17.5q-3 -7 -4.5 -21t-2.5 -18zM349 452q3 5 5.5 14.5t4.5 13.5q-8 -10 -10 -14q-3 -7 -7.5 -19.5t-6.5 -16.5zM553 885q2 -1 -0.5 -5
t-8 -9.5l-10.5 -10.5l-10 -10l-5 -4q-13 -14 -54 -46q-19 -14 -25 -9q-12 8 15 56l37 64q1 2 1 5.5t2 5t7 1.5q2 0 6.5 -0.5t7.5 -0.5l4 -1q20 -6 28 -18q1 -2 3 -9.5t2 -8.5z" />
    <glyph glyph-name="Icircumflex" unicode="&#xce;" horiz-adv-x="448" 
d="M644 696q3 -18 -49 -23q-8 -1 -19 -6t-20 -7q-36 -8 -54 -11q-1 0 -9.5 -0.5t-10.5 -1.5q-5 -2 -3 -7t2 -7q-2 -7 -31 -65l-54 -109q-9 -17 -22 -51t-21 -51q-19 -38 -51 -116q-7 -16 -16.5 -47t-14.5 -45q-26 -62 -49 -142q88 9 142 6q1 0 8.5 -1t10.5 0q2 0 3.5 3
t3.5 2q8 -2 8 -10q0 -10 -16 -15t-30 -5q-15 -2 -18 -3q-15 -9 -19 -10l-52 -11q-10 -2 -25 -6t-28 -6.5t-26 -4.5q-8 -1 -24 -4t-24 -4q-6 -1 -14.5 -5t-11.5 -5q-63 -20 -93 -3q-14 9 -16.5 23.5t12.5 23.5q6 4 21.5 5.5t18.5 2.5q11 2 31 5t36 6t30 7q-6 13 -7.5 26
t2 29.5t6 25t10 29t9.5 24.5q12 33 32 76q6 14 14.5 41.5t11.5 34.5q8 22 74 170q6 12 33.5 74.5t43.5 95.5q-2 0 -26 -10q-15 -7 -55 -9q-21 -1 -40 10.5t-11 31.5q3 8 13 12q4 2 43 8q45 9 56 10q13 1 38 8q13 4 21 14q6 6 10 16q-3 3 0 7q5 6 18 8q25 3 49 -19l4.5 -4.5
l4 -4t4 -2.5t6.5 -2q3 -1 11 0t10 1q44 3 75 1q1 0 9 -1t10 0q2 0 3 3t3 2q8 -2 9 -7v-1zM390 508q7 13 20 49q-2 -4 -12 -15.5t-12 -17.5q-3 -7 -4.5 -21t-2.5 -18zM349 452q3 5 5.5 14.5t4.5 13.5q-8 -10 -10 -14q-3 -7 -7.5 -19.5t-6.5 -16.5zM575 886q3 -34 -1 -82
q-1 -14 -9.5 -23.5t-22.5 -4.5q-33 12 -33 99l-40 -40q-30 -35 -57 -44q-16 -5 -12 7q6 20 31 46q3 4 23 25.5l29.5 31.5t27.5 23t33 18q17 7 25 -11q1 -4 1.5 -8.5t1 -10t0.5 -8.5q0 -1 -1 -4.5t0 -5.5q0 -1 2 -3t2 -5z" />
    <glyph glyph-name="Idieresis" unicode="&#xcf;" horiz-adv-x="448" 
d="M644 696q3 -18 -49 -23q-8 -1 -19 -6t-20 -7q-36 -8 -54 -11q-1 0 -9.5 -0.5t-10.5 -1.5q-5 -2 -3 -7t2 -7q-2 -7 -31 -65l-54 -109q-9 -17 -22 -51t-21 -51q-19 -38 -51 -116q-7 -16 -16.5 -47t-14.5 -45q-26 -62 -49 -142q88 9 142 6q1 0 8.5 -1t10.5 0q2 0 3.5 3
t3.5 2q8 -2 8 -10q0 -10 -16 -15t-30 -5q-15 -2 -18 -3q-15 -9 -19 -10l-52 -11q-10 -2 -25 -6t-28 -6.5t-26 -4.5q-8 -1 -24 -4t-24 -4q-6 -1 -14.5 -5t-11.5 -5q-63 -20 -93 -3q-14 9 -16.5 23.5t12.5 23.5q6 4 21.5 5.5t18.5 2.5q11 2 31 5t36 6t30 7q-6 13 -7.5 26
t2 29.5t6 25t10 29t9.5 24.5q12 33 32 76q6 14 14.5 41.5t11.5 34.5q8 22 74 170q6 12 33.5 74.5t43.5 95.5q-2 0 -26 -10q-15 -7 -55 -9q-21 -1 -40 10.5t-11 31.5q3 8 13 12q4 2 43 8q45 9 56 10q13 1 38 8q13 4 21 14q6 6 10 16q-3 3 0 7q5 6 18 8q25 3 49 -19l4.5 -4.5
l4 -4t4 -2.5t6.5 -2q3 -1 11 0t10 1q44 3 75 1q1 0 9 -1t10 0q2 0 3 3t3 2q8 -2 9 -7v-1zM390 508q7 13 20 49q-2 -4 -12 -15.5t-12 -17.5q-3 -7 -4.5 -21t-2.5 -18zM349 452q3 5 5.5 14.5t4.5 13.5q-8 -10 -10 -14q-3 -7 -7.5 -19.5t-6.5 -16.5zM606 861q4 -19 1 -26h-1
q-2 -17 -21 -36q8 6 9 6q3 -1 -13 -13.5t-23 -17.5q-11 -7 -20 -6q-3 1 -12 7t-7 7q1 2 3 0l-8 6q3 -4 4 -5l-8 8q-5 13 -4 21q1 21 21 39q7 7 18.5 13.5t24 10.5t22.5 -0.5t12 -18.5q-1 15 -13 19.5t-26 1.5q29 10 41 -16zM466 872q3 0 3.5 -3t-1 -8.5t-3 -10t-3.5 -9.5
l-2 -5q-9 -24 -29 -38q-23 -15 -25 -15q-8 -1 -19 8t-16 18q-13 24 19 59q3 3 10 7.5t9 6.5q1 0 1 3.5t3 5.5t6.5 2t7.5 -1t6 -1l2 2q2 2 4 2q7 0 13 -3q11 -4 14 -20zM541 769q1 2 -0.5 2.5t-4 1t-4.5 1.5q2 -3 8 -5h1zM546 869q-1 2 0.5 3t5.5 2q-5 -5 -6 -5zM601 827v1
q0 3 1 5q-1 -7 -5 -14zM605 844q0 8 -1 -1q-1 -3 -1 -5q0 2 2 6zM557 777q1 0 10 7zM582 796q1 0 3 2zM580 794q1 1 2 1zM565 877q-1 0 -3 -1h-1h1q2 1 3 1z" />
    <glyph glyph-name="Ntilde" unicode="&#xd1;" horiz-adv-x="574" 
d="M186 238l86 130l-26 -36l-36 -49q116 176 216 287q162 176 208 52v-2q2 -4 2 -5q6 -20 6.5 -41.5t-4 -43t-11.5 -41t-18.5 -42l-21 -39.5l-22 -39t-19.5 -36q5 7 7 7l-31 -72l-15 -33.5l-19 -41.5q-54 -118 -78 -179q-1 -3 -9 -22.5l-10.5 -26t-8.5 -23.5t-8 -27
t-4.5 -24.5t-2.5 -26.5q1 -48 86 -41q7 1 42 11q3 1 11 5t15 6.5t11 2.5q19 -2 -19 -47q-24 -24 -58 -37.5t-63 -3.5q-55 18 -85 104q-26 70 -8 153q5 20 12.5 40t21 48.5t17.5 38.5q0 16 8 24l-5 -18l10 25q-1 -1 -2 0q0 6 3 15t9 20t7 14l27 54q36 72 48 102t48 102
q2 3 12 25l19.5 41t12.5 19l-4 -16q1 4 5.5 14.5t6.5 16.5t4.5 17t-0.5 15q0 -18 -3 -18v5q0 5 -1 10.5t-5 6.5t-16 -7q-23 -12 -65 -61q-71 -78 -127 -158l-61 -84q-4 -6 -23 -22q-5 -5 -11.5 -17.5l-8.5 -16.5l-53.5 -85t-57.5 -93q-17 -27 -36 -74q-2 -5 -5 -16.5
t-6.5 -20t-9.5 -13.5q-23 -20 -45.5 -3t-24.5 45q-2 37 34 135q9 25 32 75t32 77q16 51 67 166.5t68 180.5q15 57 3 67q-13 10 -45 -9q-44 -26 -88 -108q-16 -28 -27 -59q-9 -20 -10 -30l1 -3q1 -4 1.5 -6.5t-1.5 -7.5q-9 -16 -27 -6q-24 13 -21 64q0 36 21 73q2 3 7 9.5
t7 10.5q1 2 4 12t7 16q46 67 121 90q54 17 85 -8q6 -5 11 -11t8 -14t4.5 -13t4.5 -16t4 -14q4 -14 5 -28.5t-1.5 -31t-5.5 -27.5t-9 -30.5t-8 -28.5q-7 -25 -26 -74.5t-26 -75.5q-14 -51 -38 -109l5 8q-8 -13 -13 -28zM518 458l-76 -155q12 23 36.5 64t35.5 61q47 88 65 168
l-1 -1q1 2 1 3v2q-3 -13 -22 -61zM114 283l4 12q-10 -26 -33.5 -75.5l-28.5 -60.5q-20 -48 -33 -94q-6 -21 -9 -44q-1 -4 0 -14.5t1 -13.5q2 6 2.5 19t1.5 17q2 15 10 40q16 52 32 86q42 91 53 127v1zM125 310q7 7 2 9q-6 -7 -2 -9zM426 565q-16 -16 -34 -39q22 26 34 39z
M206 276q-2 -2 -4 -6zM371 500q-1 -1 -1 -2l4 6zM579 600l1 2v2v-2q-1 -1 -1 -2zM386 518l6 8zM636 615l-1 3q0 -2 1 -3zM125 310l1 1zM371 500l-1 -1zM202 270l-3 -4zM585 800q1 1 3 4.5t4 5.5t5.5 2t6.5 -5q2 -9 1 -12.5t-8 -10.5t-7 -8q-11 -15 -21 -21q-26 -15 -57 -8
q-9 3 -29 13t-31 12q-25 6 -39 2q-3 -1 -12 -5.5t-13 -5.5t-12 2q-21 15 8.5 37.5t51.5 29.5q15 8 31 4.5t25 -9.5l24 -16.5t27 -15.5q24 -10 42 5z" />
    <glyph glyph-name="Ograve" unicode="&#xd2;" horiz-adv-x="539" 
d="M453 446q6 33 45 1q18 -15 24 -27q11 -21 11.5 -50t-3 -44.5l-11.5 -49.5q-19 -78 -74 -178q-123 -225 -254 -238q-50 -5 -91 27t-69 82l-4 5l-7.5 11.5t-3.5 9.5q1 -3 6 -11l4 -7q-4 7 -11 27v-2q-14 44 -14 49q-2 20 2 60q3 21 8 43t13 51t11 42q13 55 51 129
q18 36 29 53q3 7 14.5 26t14.5 18l-6 -11l28 45l-2 -2q2 3 6 11t6 10l21 30l19 26t25 33q59 75 120 110q64 37 103 20q31 -14 57.5 -43t29.5 -59q3 -32 -25 -74q-41 -64 -112 -118q-52 -42 -79 -37q-12 1 -24.5 9.5t-5.5 19.5q0 1 7 4h-1q2 1 21 14t20 14q35 35 39 33
q-28 -29 -30 -32q49 42 84 105q31 59 25 86q-7 35 -56 7q-45 -28 -101 -106q54 74 97 101q-18 -13 -54 -52q-89 -101 -171 -282q-83 -184 -93 -309q-7 -88 49 -93q23 -1 53 10q17 7 27 13q-1 -1 16 7q10 7 28 23q-1 0 -7 -4.5t-12 -7.5l-6 -4q0 4 7 10.5t16 14t10 8.5
q19 19 32 36q30 40 58 92q54 98 79 204q14 58 13 91q0 2 -1.5 9.5t-0.5 10.5zM57 249q28 83 99 200q78 127 121 175l41 43l-38 -38q-65 -72 -132 -177q-62 -98 -97 -205q-28 -83 -35 -141q7 47 41 143zM450 682q-9 0 -13 -1q18 6 25 -2t5 -25q2 25 -17 28zM456 613
q9 25 11 38q-1 -16 -11 -38zM244 458q-2 -2 -2 -3q0 1 1 2l-22 -38l20 33l4 7l-1 -1l-1 -1zM453 604q-3 -8 -5 -10zM246 461l5 10l-7 -12l1 1zM422 676q-2 -2 -4 -2zM218 412l-3 -4zM500 809q5 -33 -48 13q-8 7 -27.5 28t-31.5 29l-5 2.5t-4 2.5l-2.5 2.5t-1.5 3.5t0.5 5
t2.5 7q1 2 4 3l3 1q1 1 0 3.5t1 3.5q10 11 26 13q24 1 35 -19q3 -6 11.5 -18.5t11.5 -19.5q5 -10 14 -37q0 -1 5 -8.5t6 -13.5v-1z" />
    <glyph glyph-name="Oacute" unicode="&#xd3;" horiz-adv-x="539" 
d="M453 446q6 33 45 1q18 -15 24 -27q11 -21 11.5 -50t-3 -44.5l-11.5 -49.5q-19 -78 -74 -178q-123 -225 -254 -238q-50 -5 -91 27t-69 82l-4 5l-7.5 11.5t-3.5 9.5q1 -3 6 -11l4 -7q-4 7 -11 27v-2q-14 44 -14 49q-2 20 2 60q3 21 8 43t13 51t11 42q13 55 51 129
q18 36 29 53q3 7 14.5 26t14.5 18l-6 -11l28 45l-2 -2q2 3 6 11t6 10l21 30l19 26t25 33q59 75 120 110q64 37 103 20q31 -14 57.5 -43t29.5 -59q3 -32 -25 -74q-41 -64 -112 -118q-52 -42 -79 -37q-12 1 -24.5 9.5t-5.5 19.5q0 1 7 4h-1q2 1 21 14t20 14q35 35 39 33
q-28 -29 -30 -32q49 42 84 105q31 59 25 86q-7 35 -56 7q-45 -28 -101 -106q54 74 97 101q-18 -13 -54 -52q-89 -101 -171 -282q-83 -184 -93 -309q-7 -88 49 -93q23 -1 53 10q17 7 27 13q-1 -1 16 7q10 7 28 23q-1 0 -7 -4.5t-12 -7.5l-6 -4q0 4 7 10.5t16 14t10 8.5
q19 19 32 36q30 40 58 92q54 98 79 204q14 58 13 91q0 2 -1.5 9.5t-0.5 10.5zM57 249q28 83 99 200q78 127 121 175l41 43l-38 -38q-65 -72 -132 -177q-62 -98 -97 -205q-28 -83 -35 -141q7 47 41 143zM450 682q-9 0 -13 -1q18 6 25 -2t5 -25q2 25 -17 28zM456 613
q9 25 11 38q-1 -16 -11 -38zM244 458q-2 -2 -2 -3q0 1 1 2l-22 -38l20 33l4 7l-1 -1l-1 -1zM453 604q-3 -8 -5 -10zM246 461l5 10l-7 -12l1 1zM422 676q-2 -2 -4 -2zM218 412l-3 -4zM543 896q2 -1 -0.5 -5t-8 -9.5l-10.5 -10.5t-10 -9l-5 -5q-13 -14 -54 -46q-19 -14 -25 -9
q-12 8 15 56l37 64q1 2 1 5.5t2 5t7 1.5q2 0 6.5 -0.5t7.5 -1.5h4q20 -6 28 -18q1 -2 3 -9.5t2 -8.5z" />
    <glyph glyph-name="Ocircumflex" unicode="&#xd4;" horiz-adv-x="539" 
d="M453 446q6 33 45 1q18 -15 24 -27q11 -21 11.5 -50t-3 -44.5l-11.5 -49.5q-19 -78 -74 -178q-123 -225 -254 -238q-50 -5 -91 27t-69 82l-4 5l-7.5 11.5t-3.5 9.5q1 -3 6 -11l4 -7q-4 7 -11 27v-2q-14 44 -14 49q-2 20 2 60q3 21 8 43t13 51t11 42q13 55 51 129
q18 36 29 53q3 7 14.5 26t14.5 18l-6 -11l28 45l-2 -2q2 3 6 11t6 10l21 30l19 26t25 33q59 75 120 110q64 37 103 20q31 -14 57.5 -43t29.5 -59q3 -32 -25 -74q-41 -64 -112 -118q-52 -42 -79 -37q-12 1 -24.5 9.5t-5.5 19.5q0 1 7 4h-1q2 1 21 14t20 14q35 35 39 33
q-28 -29 -30 -32q49 42 84 105q31 59 25 86q-7 35 -56 7q-45 -28 -101 -106q54 74 97 101q-18 -13 -54 -52q-89 -101 -171 -282q-83 -184 -93 -309q-7 -88 49 -93q23 -1 53 10q17 7 27 13q-1 -1 16 7q10 7 28 23q-1 0 -7 -4.5t-12 -7.5l-6 -4q0 4 7 10.5t16 14t10 8.5
q19 19 32 36q30 40 58 92q54 98 79 204q14 58 13 91q0 2 -1.5 9.5t-0.5 10.5zM57 249q28 83 99 200q78 127 121 175l41 43l-38 -38q-65 -72 -132 -177q-62 -98 -97 -205q-28 -83 -35 -141q7 47 41 143zM450 682q-9 0 -13 -1q18 6 25 -2t5 -25q2 25 -17 28zM456 613
q9 25 11 38q-1 -16 -11 -38zM244 458q-2 -2 -2 -3q0 1 1 2l-22 -38l20 33l4 7l-1 -1l-1 -1zM453 604q-3 -8 -5 -10zM246 461l5 10l-7 -12l1 1zM422 676q-2 -2 -4 -2zM218 412l-3 -4zM553 902q3 -34 -1 -82q-1 -14 -9.5 -23.5t-22.5 -4.5q-33 12 -33 99l-40 -40
q-30 -35 -57 -44q-16 -5 -12 7q6 20 31 46q3 4 23 25.5l29.5 31.5t27.5 23t33 18q17 7 25 -11l3 -27q0 -1 -1 -4.5t0 -5.5q0 -1 2 -3t2 -5z" />
    <glyph glyph-name="Otilde" unicode="&#xd5;" horiz-adv-x="539" 
d="M453 446q6 33 45 1q18 -15 24 -27q11 -21 11.5 -50t-3 -44.5l-11.5 -49.5q-19 -78 -74 -178q-123 -225 -254 -238q-50 -5 -91 27t-69 82l-4 5l-7.5 11.5t-3.5 9.5q1 -3 6 -11l4 -7q-4 7 -11 27v-2q-14 44 -14 49q-2 20 2 60q3 21 8 43t13 51t11 42q13 55 51 129
q18 36 29 53q3 7 14.5 26t14.5 18l-6 -11l28 45l-2 -2q2 3 6 11t6 10l21 30l19 26t25 33q59 75 120 110q64 37 103 20q31 -14 57.5 -43t29.5 -59q3 -32 -25 -74q-41 -64 -112 -118q-52 -42 -79 -37q-12 1 -24.5 9.5t-5.5 19.5q0 1 7 4h-1q2 1 21 14t20 14q35 35 39 33
q-28 -29 -30 -32q49 42 84 105q31 59 25 86q-7 35 -56 7q-45 -28 -101 -106q54 74 97 101q-18 -13 -54 -52q-89 -101 -171 -282q-83 -184 -93 -309q-7 -88 49 -93q23 -1 53 10q17 7 27 13q-1 -1 16 7q10 7 28 23q-1 0 -7 -4.5t-12 -7.5l-6 -4q0 4 7 10.5t16 14t10 8.5
q19 19 32 36q30 40 58 92q54 98 79 204q14 58 13 91q0 2 -1.5 9.5t-0.5 10.5zM57 249q28 83 99 200q78 127 121 175l41 43l-38 -38q-65 -72 -132 -177q-62 -98 -97 -205q-28 -83 -35 -141q7 47 41 143zM450 682q-9 0 -13 -1q18 6 25 -2t5 -25q2 25 -17 28zM456 613
q9 25 11 38q-1 -16 -11 -38zM244 458q-2 -2 -2 -3q0 1 1 2l-22 -38l20 33l4 7l-1 -1l-1 -1zM453 604q-3 -8 -5 -10zM246 461l5 10l-7 -12l1 1zM422 676q-2 -2 -4 -2zM218 412l-3 -4zM579 847q1 1 3 4.5t4 5.5t5.5 2t6.5 -5q2 -9 1 -12.5t-8 -10.5t-7 -8q-11 -15 -21 -21
q-26 -15 -57 -8q-9 3 -29 13t-31 12q-25 6 -39 2q-3 -1 -12 -5.5t-13 -5.5t-12 2q-21 15 8.5 37.5t51.5 29.5q15 8 31 4.5t25 -9.5l24 -16.5t27 -15.5q24 -10 42 5z" />
    <glyph glyph-name="Odieresis" unicode="&#xd6;" horiz-adv-x="539" 
d="M453 446q6 33 45 1q18 -15 24 -27q11 -21 11.5 -50t-3 -44.5l-11.5 -49.5q-19 -78 -74 -178q-123 -225 -254 -238q-50 -5 -91 27t-69 82l-4 5l-7.5 11.5t-3.5 9.5q1 -3 6 -11l4 -7q-4 7 -11 27v-2q-14 44 -14 49q-2 20 2 60q3 21 8 43t13 51t11 42q13 55 51 129
q18 36 29 53q3 7 14.5 26t14.5 18l-6 -11l28 45l-2 -2q2 3 6 11t6 10l21 30l19 26t25 33q59 75 120 110q64 37 103 20q31 -14 57.5 -43t29.5 -59q3 -32 -25 -74q-41 -64 -112 -118q-52 -42 -79 -37q-12 1 -24.5 9.5t-5.5 19.5q0 1 7 4h-1q2 1 21 14t20 14q35 35 39 33
q-28 -29 -30 -32q49 42 84 105q31 59 25 86q-7 35 -56 7q-45 -28 -101 -106q54 74 97 101q-18 -13 -54 -52q-89 -101 -171 -282q-83 -184 -93 -309q-7 -88 49 -93q23 -1 53 10q17 7 27 13q-1 -1 16 7q10 7 28 23q-1 0 -7 -4.5t-12 -7.5l-6 -4q0 4 7 10.5t16 14t10 8.5
q19 19 32 36q30 40 58 92q54 98 79 204q14 58 13 91q0 2 -1.5 9.5t-0.5 10.5zM57 249q28 83 99 200q78 127 121 175l41 43l-38 -38q-65 -72 -132 -177q-62 -98 -97 -205q-28 -83 -35 -141q7 47 41 143zM450 682q-9 0 -13 -1q18 6 25 -2t5 -25q2 25 -17 28zM456 613
q9 25 11 38q-1 -16 -11 -38zM244 458q-2 -2 -2 -3q0 1 1 2l-22 -38l20 33l4 7l-1 -1l-1 -1zM453 604q-3 -8 -5 -10zM246 461l5 10l-7 -12l1 1zM422 676q-2 -2 -4 -2zM218 412l-3 -4zM599 864q4 -19 1 -26h-1q-3 -18 -21 -36q8 6 9 6q3 -1 -13 -13.5t-23 -17.5q-11 -7 -20 -6
q-3 1 -12 7t-7 7t3 0l-8 6q3 -4 4 -5l-8 8q-5 13 -4 21q1 21 21 39q7 7 18.5 13.5t24 10.5t22.5 -0.5t12 -18.5q-1 15 -13 19.5t-26 1.5q29 10 41 -16zM459 875q3 0 3.5 -3t-1 -8.5t-3 -10t-3.5 -9.5l-2 -5q-9 -24 -29 -38q-22 -15 -25 -15q-8 -1 -19 8t-16 18q-13 24 19 59
q3 3 10 7.5t9 6.5v4t4 5q3 2 6.5 2t7.5 -1t6 -1l2 2q2 2 4 2q7 0 13 -3q11 -4 14 -20zM534 772q1 2 -0.5 2.5t-4 1t-4.5 1.5q2 -3 8 -5h1zM539 872q-1 2 0.5 3t5.5 2q-5 -5 -6 -5zM594 830v1q0 3 1 5q-1 -7 -5 -14zM598 847q0 8 -1 -1q-1 -3 -1 -5q0 2 2 6zM550 780
q1 0 10 7zM575 799q1 0 3 2zM573 797q1 1 2 1zM558 880h-2l-2 -1l2 1h2z" />
    <glyph glyph-name="Oslash" unicode="&#xd8;" horiz-adv-x="539" 
d="M453 446q6 33 45 1q18 -15 24 -27q11 -21 11.5 -50t-3 -44.5l-11.5 -49.5q-19 -78 -74 -178q-123 -225 -254 -238q-50 -5 -91 27t-69 82l-4 5l-7.5 11.5t-3.5 9.5q1 -3 6 -11l4 -7q-4 7 -11 27v-2q-14 44 -14 49q-2 20 2 60q3 21 8 43t13 51t11 42q13 55 51 129
q18 36 29 53q3 7 14.5 26t14.5 18l-6 -11l28 45l-2 -2q2 3 6 11t6 10l21 30l19 26t25 33q59 75 120 110q64 37 103 20q31 -14 57.5 -43t29.5 -59q3 -32 -25 -74q-41 -64 -112 -118q-52 -42 -79 -37q-12 1 -24.5 9.5t-5.5 19.5q0 1 7 4h-1q2 1 21 14t20 14q35 35 39 33
q-28 -29 -30 -32q49 42 84 105q31 59 25 86q-7 35 -56 7q-45 -28 -101 -106q54 74 97 101q-18 -13 -54 -52q-89 -101 -171 -282q-83 -184 -93 -309q-7 -88 49 -93q23 -1 53 10q17 7 27 13q-1 -1 16 7q10 7 28 23q-1 0 -7 -4.5t-12 -7.5l-6 -4q0 4 7 10.5t16 14t10 8.5
q19 19 32 36q30 40 58 92q54 98 79 204q14 58 13 91q0 2 -1.5 9.5t-0.5 10.5zM57 249q28 83 99 200q78 127 121 175l41 43l-38 -38q-65 -72 -132 -177q-62 -98 -97 -205q-28 -83 -35 -141q7 47 41 143zM450 682q-9 0 -13 -1q18 6 25 -2t5 -25q2 25 -17 28zM456 613
q9 25 11 38q-1 -16 -11 -38zM244 458q-2 -2 -2 -3q0 1 1 2l-22 -38l20 33l4 7l-1 -1l-1 -1zM453 604q-3 -8 -5 -10zM246 461l5 10l-7 -12l1 1zM422 676q-2 -2 -4 -2zM218 412l-3 -4zM606 706q5 0 -17 -56q-19 -39 -53 -91q1 0 1 1q-8 -13 -22 -40.5t-21 -39.5
q-40 -68 -101 -163l-66 -110t-76 -124l-1 -2l-11 -16q-15 -22 -48.5 -78t-51.5 -83l-49 -75l-5 -7l-8 -12.5t-8 -10.5t-9 -8.5t-7 -1.5q-4 1 -5.5 5.5t0 11t3 11.5t4.5 11.5t3 7.5q1 2 1 3v-2v2q0 -1 -1 -3t-1 -4l3 8l4 9q-2 4 0 12t7 18l9 18t9.5 17.5t6.5 11.5
q29 60 79 150q37 66 128 217q72 122 179 274q48 68 74 99q29 37 50 40zM64 -151l12 29q-14 -18 -12 -29zM535 557q1 1 1 2zM60 -160l-1 -1q1 0 1 1zM240 66l-1 -1z" />
    <glyph glyph-name="Ugrave" unicode="&#xd9;" horiz-adv-x="562" 
d="M614 540q1 -7 -10 -18q1 1 3 1q1 0 -4.5 -9.5t-12.5 -18.5t-8 -8q-1 0 1.5 4.5t4.5 8.5l2 4q-48 -71 -87 -164q49 102 55 106q-9 -12 -56 -117q-29 -69 -45 -124q-4 -14 -14.5 -57t-17.5 -66q-26 -91 -28 -108q2 8 5 12q-1 -1 -1 -25.5t1 -29.5q2 -12 3.5 -12.5t6.5 -0.5
q6 1 13.5 6.5t12.5 10.5t12.5 14t8.5 10q1 2 8 12t12.5 16.5t10.5 8.5q9 5 14 -6q6 -14 -9 -55q-6 -16 -25 -45q-26 -38 -60 -37q-43 3 -67 36q-34 46 -24 127q0 2 12 43q0 2 0.5 11t1.5 17t2 8q1 -1 1 -3q1 2 1 7l1 21q0 4 1 6q3 13 11 39q3 11 8 35t9 37q-60 -96 -87 -133
q-25 -33 -96 -110q-11 -15 -16 -17l12 13l-19 -18q4 3 4 2q-3 -6 -13 -13q-7 -7 -19 -9q-8 -1 -22 3q-62 20 -100 86q-13 24 -11 65q3 32 9 64q0 1 3.5 14.5l6.5 24.5t5 11v-2t-0.5 -4.5t-0.5 -4.5v-2q8 36 13 53l-6 -13q-1 7 2 17t8 22t6 16q8 28 13 42q17 57 40 105
l48 111q25 48 29 52q14 16 17 23q29 63 52 92q8 10 14 14q20 10 43 -4.5t33 -36.5q4 -19 2.5 -24.5t-11.5 -17.5q6 4 6 3q0 -5 -20.5 -33t-23.5 -27l14 23q-32 -44 -62 -100q6 8 8 9q-4 -4 -16.5 -31t-23.5 -54l-23.5 -56.5t-12.5 -30.5q-38 -92 -57 -174l3 30l-1 -6
q0 1 0.5 4t0.5 5l-6 -25l4 10q-2 -17 -9 -52t-9 -52.5t0 -52.5q3 -20 11 -24q22 -10 101 90q69 80 95 116l-3 -4q-4 -5 -7 -8t-5 -3q38 59 42 66q16 22 46 68l98 148l15.5 26t22.5 34t20 20q20 14 48.5 0.5t31.5 -37.5zM353 65q4 17 9.5 55t11.5 60q-23 -61 -30 -108
q-14 -82 -2 -144q-9 46 11 137zM186 445q-32 -80 -44 -121q-5 -14 -11 -42q17 61 59 157q50 113 106 192q-76 -105 -110 -186zM163 348q31 80 63 146q-35 -71 -63 -146zM480 282l7 20l-18 -46q7 14 11 26zM240 523v1v-1zM315 655q0 -2 -2 -2q2 0 2 2zM506 709q5 -33 -48 13
q-8 7 -27.5 28t-31.5 29l-5 2.5t-4 2.5l-2.5 2.5t-1.5 3.5t0.5 5t2.5 7q1 2 4 3l3 1q1 1 0 3.5t1 3.5q10 11 26 13q24 1 35 -19q3 -6 11.5 -18.5t11.5 -19.5q5 -10 14 -37q1 -2 3 -5t3.5 -5t2.5 -5.5t2 -6.5v-1z" />
    <glyph glyph-name="Uacute" unicode="&#xda;" horiz-adv-x="562" 
d="M614 540q1 -7 -10 -18q1 1 3 1q1 0 -4.5 -9.5t-12.5 -18.5t-8 -8q-1 0 1.5 4.5t4.5 8.5l2 4q-48 -71 -87 -164q49 102 55 106q-9 -12 -56 -117q-29 -69 -45 -124q-4 -14 -14.5 -57t-17.5 -66q-26 -91 -28 -108q2 8 5 12q-1 -1 -1 -25.5t1 -29.5q2 -12 3.5 -12.5t6.5 -0.5
q6 1 13.5 6.5t12.5 10.5t12.5 14t8.5 10q1 2 8 12t12.5 16.5t10.5 8.5q9 5 14 -6q6 -14 -9 -55q-6 -16 -25 -45q-26 -38 -60 -37q-43 3 -67 36q-34 46 -24 127q0 2 12 43q0 2 0.5 11t1.5 17t2 8q1 -1 1 -3q1 2 1 7l1 21q0 4 1 6q3 13 11 39q3 11 8 35t9 37q-60 -96 -87 -133
q-25 -33 -96 -110q-11 -15 -16 -17l12 13l-19 -18q4 3 4 2q-3 -6 -13 -13q-7 -7 -19 -9q-8 -1 -22 3q-62 20 -100 86q-13 24 -11 65q3 32 9 64q0 1 3.5 14.5l6.5 24.5t5 11v-2t-0.5 -4.5t-0.5 -4.5v-2q8 36 13 53l-6 -13q-1 7 2 17t8 22t6 16q8 28 13 42q17 57 40 105
l48 111q25 48 29 52q14 16 17 23q29 63 52 92q8 10 14 14q20 10 43 -4.5t33 -36.5q4 -19 2.5 -24.5t-11.5 -17.5q6 4 6 3q0 -5 -20.5 -33t-23.5 -27l14 23q-32 -44 -62 -100q6 8 8 9q-4 -4 -16.5 -31t-23.5 -54l-23.5 -56.5t-12.5 -30.5q-38 -92 -57 -174l3 30l-1 -6
q0 1 0.5 4t0.5 5l-6 -25l4 10q-2 -17 -9 -52t-9 -52.5t0 -52.5q3 -20 11 -24q22 -10 101 90q69 80 95 116l-3 -4q-4 -5 -7 -8t-5 -3q38 59 42 66q16 22 46 68l98 148l15.5 26t22.5 34t20 20q20 14 48.5 0.5t31.5 -37.5zM353 65q4 17 9.5 55t11.5 60q-23 -61 -30 -108
q-14 -82 -2 -144q-9 46 11 137zM186 445q-32 -80 -44 -121q-5 -14 -11 -42q17 61 59 157q50 113 106 192q-76 -105 -110 -186zM163 348q31 80 63 146q-35 -71 -63 -146zM480 282l7 20l-18 -46q7 14 11 26zM240 523v1v-1zM315 655q0 -2 -2 -2q2 0 2 2zM554 746q2 -1 -0.5 -5
t-8 -9.5l-10.5 -10.5t-10 -9l-5 -5q-13 -14 -54 -46q-19 -14 -25 -9q-12 8 15 56l37 64q1 2 1 5.5t2 5t7 1.5q2 0 6.5 -0.5t8.5 -1.5h3q20 -6 28 -18q1 -2 3 -9.5t2 -8.5z" />
    <glyph glyph-name="Ucircumflex" unicode="&#xdb;" horiz-adv-x="562" 
d="M614 540q1 -7 -10 -18q1 1 3 1q1 0 -4.5 -9.5t-12.5 -18.5t-8 -8q-1 0 1.5 4.5t4.5 8.5l2 4q-48 -71 -87 -164q49 102 55 106q-9 -12 -56 -117q-29 -69 -45 -124q-4 -14 -14.5 -57t-17.5 -66q-26 -91 -28 -108q2 8 5 12q-1 -1 -1 -25.5t1 -29.5q2 -12 3.5 -12.5t6.5 -0.5
q6 1 13.5 6.5t12.5 10.5t12.5 14t8.5 10q1 2 8 12t12.5 16.5t10.5 8.5q9 5 14 -6q6 -14 -9 -55q-6 -16 -25 -45q-26 -38 -60 -37q-43 3 -67 36q-34 46 -24 127q0 2 12 43q0 2 0.5 11t1.5 17t2 8q1 -1 1 -3q1 2 1 7l1 21q0 4 1 6q3 13 11 39q3 11 8 35t9 37q-60 -96 -87 -133
q-25 -33 -96 -110q-11 -15 -16 -17l12 13l-19 -18q4 3 4 2q-3 -6 -13 -13q-7 -7 -19 -9q-8 -1 -22 3q-62 20 -100 86q-13 24 -11 65q3 32 9 64q0 1 3.5 14.5l6.5 24.5t5 11v-2t-0.5 -4.5t-0.5 -4.5v-2q8 36 13 53l-6 -13q-1 7 2 17t8 22t6 16q8 28 13 42q17 57 40 105
l48 111q25 48 29 52q14 16 17 23q29 63 52 92q8 10 14 14q20 10 43 -4.5t33 -36.5q4 -19 2.5 -24.5t-11.5 -17.5q6 4 6 3q0 -5 -20.5 -33t-23.5 -27l14 23q-32 -44 -62 -100q6 8 8 9q-4 -4 -16.5 -31t-23.5 -54l-23.5 -56.5t-12.5 -30.5q-38 -92 -57 -174l3 30l-1 -6
q0 1 0.5 4t0.5 5l-6 -25l4 10q-2 -17 -9 -52t-9 -52.5t0 -52.5q3 -20 11 -24q22 -10 101 90q69 80 95 116l-3 -4q-4 -5 -7 -8t-5 -3q38 59 42 66q16 22 46 68l98 148l15.5 26t22.5 34t20 20q20 14 48.5 0.5t31.5 -37.5zM353 65q4 17 9.5 55t11.5 60q-23 -61 -30 -108
q-14 -82 -2 -144q-9 46 11 137zM186 445q-32 -80 -44 -121q-5 -14 -11 -42q17 61 59 157q50 113 106 192q-76 -105 -110 -186zM163 348q31 80 63 146q-35 -71 -63 -146zM480 282l7 20l-18 -46q7 14 11 26zM240 523v1v-1zM315 655q0 -2 -2 -2q2 0 2 2zM570 766q3 -34 -1 -82
q-1 -14 -9.5 -23.5t-22.5 -4.5q-33 12 -33 99l-13 -12.5l-14.5 -14t-12.5 -13.5q-30 -35 -57 -44q-16 -5 -12 7q6 20 31 46q3 4 23 25.5l29.5 31.5t27.5 23t33 18q17 7 25 -11q1 -4 1.5 -8.5t1 -10t0.5 -8.5q0 -1 -1 -4.5t0 -5.5q0 -1 2 -3t2 -5z" />
    <glyph glyph-name="Udieresis" unicode="&#xdc;" horiz-adv-x="562" 
d="M614 540q1 -7 -10 -18q1 1 3 1q1 0 -4.5 -9.5t-12.5 -18.5t-8 -8q-1 0 1.5 4.5t4.5 8.5l2 4q-48 -71 -87 -164q49 102 55 106q-9 -12 -56 -117q-29 -69 -45 -124q-4 -14 -14.5 -57t-17.5 -66q-26 -91 -28 -108q2 8 5 12q-1 -1 -1 -25.5t1 -29.5q2 -12 3.5 -12.5t6.5 -0.5
q6 1 13.5 6.5t12.5 10.5t12.5 14t8.5 10q1 2 8 12t12.5 16.5t10.5 8.5q9 5 14 -6q6 -14 -9 -55q-6 -16 -25 -45q-26 -38 -60 -37q-43 3 -67 36q-34 46 -24 127q0 2 12 43q0 2 0.5 11t1.5 17t2 8q1 -1 1 -3q1 2 1 7l1 21q0 4 1 6q3 13 11 39q3 11 8 35t9 37q-60 -96 -87 -133
q-25 -33 -96 -110q-11 -15 -16 -17l12 13l-19 -18q4 3 4 2q-3 -6 -13 -13q-7 -7 -19 -9q-8 -1 -22 3q-62 20 -100 86q-13 24 -11 65q3 32 9 64q0 1 3.5 14.5l6.5 24.5t5 11v-2t-0.5 -4.5t-0.5 -4.5v-2q8 36 13 53l-6 -13q-1 7 2 17t8 22t6 16q8 28 13 42q17 57 40 105
l48 111q25 48 29 52q14 16 17 23q29 63 52 92q8 10 14 14q20 10 43 -4.5t33 -36.5q4 -19 2.5 -24.5t-11.5 -17.5q6 4 6 3q0 -5 -20.5 -33t-23.5 -27l14 23q-32 -44 -62 -100q6 8 8 9q-4 -4 -16.5 -31t-23.5 -54l-23.5 -56.5t-12.5 -30.5q-38 -92 -57 -174l3 30l-1 -6
q0 1 0.5 4t0.5 5l-6 -25l4 10q-2 -17 -9 -52t-9 -52.5t0 -52.5q3 -20 11 -24q22 -10 101 90q69 80 95 116l-3 -4q-4 -5 -7 -8t-5 -3q38 59 42 66q16 22 46 68l98 148l15.5 26t22.5 34t20 20q20 14 48.5 0.5t31.5 -37.5zM353 65q4 17 9.5 55t11.5 60q-23 -61 -30 -108
q-14 -82 -2 -144q-9 46 11 137zM186 445q-32 -80 -44 -121q-5 -14 -11 -42q17 61 59 157q50 113 106 192q-76 -105 -110 -186zM163 348q31 80 63 146q-35 -71 -63 -146zM480 282l7 20l-18 -46q7 14 11 26zM240 523v1v-1zM315 655q0 -2 -2 -2q2 0 2 2zM628 779q4 -19 1 -26
h-1q-2 -17 -21 -36q8 6 9 6q3 -1 -13 -13.5t-23 -17.5q-11 -7 -20 -6q-3 1 -12 7t-7 7q1 2 3 0l-8 6q3 -4 4 -5l-8 8q-5 13 -4 21q1 21 21 39q7 7 18.5 13.5t24 10.5t22.5 -0.5t12 -18.5q-1 15 -13 19.5t-26 1.5q29 10 41 -16zM488 790q3 0 3.5 -3t-1 -8.5t-3 -10t-3.5 -9.5
l-2 -5q-9 -24 -29 -38q-23 -15 -25 -15q-8 -1 -19 8t-16 18q-13 24 19 59q3 3 10 7.5t9 6.5q1 0 1 3.5t3 5.5t6.5 2t7.5 -1t6 -1l2 2q2 2 4 2q7 0 13 -3q11 -4 14 -20zM563 687q1 2 -0.5 2.5t-4 1t-4.5 1.5q2 -3 8 -5h1zM568 787q-1 2 0.5 3t5.5 2q-5 -5 -6 -5zM623 745v1
q0 3 1 5q-1 -7 -5 -14zM627 762q0 8 -1 -1q-1 -3 -1 -5q0 2 2 6zM579 695q1 0 10 7zM604 714q1 0 3 2zM602 712q1 1 2 1zM587 795q-1 0 -3 -1h-1h1q2 1 3 1z" />
    <glyph glyph-name="Yacute" unicode="&#xdd;" horiz-adv-x="551" 
d="M40 306l3 7v-1q4 8 6 28t3 23q16 64 27 95q40 114 68 170q4 7 13 18.5l12 15.5l18 39q1 1 5 10.5t6 13.5l6 12t7.5 12.5t9 9t10.5 6.5q31 13 64 -30q17 -29 1 -54q5 5 5 3q0 -4 -8.5 -18.5t-18 -27t-11.5 -11.5q12 24 13 27q-34 -56 -52 -95q3 4 5 5q-9 -6 -42 -106
q-50 -130 -66 -258q-5 -14 -1.5 -37.5t24.5 -17.5q6 2 11.5 5.5t10 7t10.5 10l9 10l9 11t8 9.5q119 139 152 187l-14 -14q-1 4 1 9.5t5.5 10l8 10.5t5.5 7q13 16 35 50l91 143q33 50 41 64q0 1 3 5.5t3.5 5.5t3 5t3.5 5t4 3t5 3t5.5 1.5t7.5 0.5q18 0 39.5 -16t29.5 -35
q0 -1 1 -2q0 -2 1 -2h-1l1 -2l1 -1q5 -26 -22 -76.5t-29 -56.5q-1 -4 -10 -36t-16 -49l-38 -95l-76 -189q-8 -19 -31 -80.5t-38 -94.5q-77 -169 -120 -236q-22 -34 -45 -62q-26 -33 -68.5 -33t-79.5 24.5t-53 59.5q-47 107 111 251l7 7q69 67 72 45q1 -4 -3 -10.5
t-10.5 -14.5t-7.5 -9q-18 -23 -33 -48q-37 -58 -59 -122q-22 -67 -12 -93q6 -16 19 -19.5t26.5 2t24.5 15.5q22 21 64 101q49 96 98 216.5t76.5 200l76.5 224.5q-91 -152 -129 -207q-36 -50 -68 -83q-17 -15 -27 -29q-1 -1 -4 -7t-6.5 -10t-6.5 -4l5 8l-10 -10q2 0 3 -1
q-4 -21 -30 -32.5t-46 -6.5q-52 13 -95 63q-26 32 -23 83l1 16q1 17 3.5 30t6.5 13v-3v-6v-4q4 25 7 41l-1 -2q0 -1 -1 -1zM104 471q2 5 7 16t7 17q2 4 5.5 10l11 19.5t11.5 22.5l5 9q10 27 19.5 49t14.5 32t19.5 36.5l21.5 39.5q-6 -11 -32.5 -54.5t-36.5 -66.5
q-34 -76 -53 -130zM347 -41q24 53 56 131q-2 -4 -8.5 -14.5t-11.5 -19.5t-7 -14q-6 -15 -13.5 -40.5t-15.5 -42.5zM637 636v1h-1zM528 817q2 -1 -0.5 -5t-8 -9.5l-10.5 -10.5l-10 -10l-5 -4q-13 -14 -54 -46q-19 -14 -25 -9q-12 8 15 56l37 64q1 2 1 5.5t2 5t7 1.5
q2 0 6.5 -0.5t8.5 -0.5l3 -1q20 -6 28 -18q1 -2 3 -9.5t2 -8.5z" />
    <glyph glyph-name="agrave" unicode="&#xe0;" 
d="M509 241q1 -10 -4 -21.5t-13 -24.5t-11 -19q-16 -36 -44 -84q-35 -56 -60 -85q-40 -52 -73 -57q-24 -4 -43.5 11.5t-28.5 40.5q-11 28 -11 61t5.5 57t16.5 60q0 9 1 16l-16.5 -23.5l-16.5 -23.5q-4 -6 -15.5 -26t-18.5 -30q-12 -18 -52 -60t-47 -31l11 7q-19 -13 -42 -6
q1 -1 2 -1l2 -2q-15 -2 -28 15t-18 34q-10 36 -1 87q18 96 69 171q21 28 31 35q4 4 12.5 8t11.5 6q28 24 50 24q54 0 79 -94q61 79 104 27q4 -5 6.5 -9.5t3 -10t1 -8.5t-2 -9.5t-3 -8t-5 -9.5t-4.5 -9q-28 -52 -42 -114q6 19 8 19t-5 -34q-22 -101 -2 -102q14 0 46 39
q31 39 85 121q32 51 37 58q17 23 23 13q2 -3 2 -8zM222 234q5 8 5 16q0 3 -5 19.5t-8.5 31t-1.5 16.5l2 -7l6 -14.5t3 -8.5q0 2 -1.5 9.5t-3.5 13l-4.5 12.5t-6.5 10.5t-9 3.5q-6 0 -12 -3t-11 -7t-10.5 -11t-9 -12t-8.5 -14.5l-7 -13.5t-6 -13t-5 -10q-36 -81 -46 -142
q5 23 36 109.5t43 85.5q-9 -2 -37.5 -77t-32.5 -94q-15 -61 -3 -65q12 -3 39 35q28 34 54 72l26 37q4 7 14 21zM245 185l9 24l-5 -7zM230 247q4 4 0 10v-10zM278 412q5 -33 -48 13q-8 7 -27.5 28t-31.5 29l-5 2.5t-4 2.5l-2.5 2.5t-1.5 3.5t0.5 5t2.5 7q1 2 4 3l3 1
q1 1 0 3.5t1 3.5q10 11 26 13q24 1 35 -19q3 -6 11.5 -18.5t11.5 -19.5q5 -10 14 -37q0 -1 5 -8.5t6 -13.5v-1z" />
    <glyph glyph-name="aacute" unicode="&#xe1;" 
d="M509 241q1 -10 -4 -21.5t-13 -24.5t-11 -19q-16 -36 -44 -84q-35 -56 -60 -85q-40 -52 -73 -57q-24 -4 -43.5 11.5t-28.5 40.5q-11 28 -11 61t5.5 57t16.5 60q0 9 1 16l-16.5 -23.5l-16.5 -23.5q-4 -6 -15.5 -26t-18.5 -30q-12 -18 -52 -60t-47 -31l11 7q-19 -13 -42 -6
q1 -1 2 -1l2 -2q-15 -2 -28 15t-18 34q-10 36 -1 87q18 96 69 171q21 28 31 35q4 4 12.5 8t11.5 6q28 24 50 24q54 0 79 -94q61 79 104 27q4 -5 6.5 -9.5t3 -10t1 -8.5t-2 -9.5t-3 -8t-5 -9.5t-4.5 -9q-28 -52 -42 -114q6 19 8 19t-5 -34q-22 -101 -2 -102q14 0 46 39
q31 39 85 121q32 51 37 58q17 23 23 13q2 -3 2 -8zM222 234q5 8 5 16q0 3 -5 19.5t-8.5 31t-1.5 16.5l2 -7l6 -14.5t3 -8.5q0 2 -1.5 9.5t-3.5 13l-4.5 12.5t-6.5 10.5t-9 3.5q-6 0 -12 -3t-11 -7t-10.5 -11t-9 -12t-8.5 -14.5l-7 -13.5t-6 -13t-5 -10q-36 -81 -46 -142
q5 23 36 109.5t43 85.5q-9 -2 -37.5 -77t-32.5 -94q-15 -61 -3 -65q12 -3 39 35q28 34 54 72l26 37q4 7 14 21zM245 185l9 24l-5 -7zM230 247q4 4 0 10v-10zM382 493q2 -1 -0.5 -5t-8 -9.5l-10.5 -10.5l-10 -10l-5 -4q-13 -14 -54 -46q-19 -14 -25 -9q-12 8 15 56l37 64
q1 2 1 5.5t2 5t7 1.5q2 0 6.5 -0.5t8.5 -0.5l3 -1q20 -6 28 -18q1 -2 3 -9.5t2 -8.5z" />
    <glyph glyph-name="acircumflex" unicode="&#xe2;" 
d="M509 241q1 -10 -4 -21.5t-13 -24.5t-11 -19q-16 -36 -44 -84q-35 -56 -60 -85q-40 -52 -73 -57q-24 -4 -43.5 11.5t-28.5 40.5q-11 28 -11 61t5.5 57t16.5 60q0 9 1 16l-16.5 -23.5l-16.5 -23.5q-4 -6 -15.5 -26t-18.5 -30q-12 -18 -52 -60t-47 -31l11 7q-19 -13 -42 -6
q1 -1 2 -1l2 -2q-15 -2 -28 15t-18 34q-10 36 -1 87q18 96 69 171q21 28 31 35q4 4 12.5 8t11.5 6q28 24 50 24q54 0 79 -94q61 79 104 27q4 -5 6.5 -9.5t3 -10t1 -8.5t-2 -9.5t-3 -8t-5 -9.5t-4.5 -9q-28 -52 -42 -114q6 19 8 19t-5 -34q-22 -101 -2 -102q14 0 46 39
q31 39 85 121q32 51 37 58q17 23 23 13q2 -3 2 -8zM222 234q5 8 5 16q0 3 -5 19.5t-8.5 31t-1.5 16.5l2 -7l6 -14.5t3 -8.5q0 2 -1.5 9.5t-3.5 13l-4.5 12.5t-6.5 10.5t-9 3.5q-6 0 -12 -3t-11 -7t-10.5 -11t-9 -12t-8.5 -14.5l-7 -13.5t-6 -13t-5 -10q-36 -81 -46 -142
q5 23 36 109.5t43 85.5q-9 -2 -37.5 -77t-32.5 -94q-15 -61 -3 -65q12 -3 39 35q28 34 54 72l26 37q4 7 14 21zM245 185l9 24l-5 -7zM230 247q4 4 0 10v-10zM348 507q3 -34 -1 -82q-1 -14 -9.5 -23.5t-22.5 -4.5q-33 12 -33 99l-13 -12.5l-14.5 -14t-12.5 -13.5
q-30 -35 -57 -44q-16 -5 -12 7q6 20 31 46q3 4 23 25.5l29.5 31.5t27.5 23t33 18q17 7 25 -11l3 -27q0 -1 -1 -4.5t0 -5.5q0 -1 2 -3t2 -5z" />
    <glyph glyph-name="atilde" unicode="&#xe3;" 
d="M509 241q1 -10 -4 -21.5t-13 -24.5t-11 -19q-16 -36 -44 -84q-35 -56 -60 -85q-40 -52 -73 -57q-24 -4 -43.5 11.5t-28.5 40.5q-11 28 -11 61t5.5 57t16.5 60q0 9 1 16l-16.5 -23.5l-16.5 -23.5q-4 -6 -15.5 -26t-18.5 -30q-12 -18 -52 -60t-47 -31l11 7q-19 -13 -42 -6
q1 -1 2 -1l2 -2q-15 -2 -28 15t-18 34q-10 36 -1 87q18 96 69 171q21 28 31 35q4 4 12.5 8t11.5 6q28 24 50 24q54 0 79 -94q61 79 104 27q4 -5 6.5 -9.5t3 -10t1 -8.5t-2 -9.5t-3 -8t-5 -9.5t-4.5 -9q-28 -52 -42 -114q6 19 8 19t-5 -34q-22 -101 -2 -102q14 0 46 39
q31 39 85 121q32 51 37 58q17 23 23 13q2 -3 2 -8zM222 234q5 8 5 16q0 3 -5 19.5t-8.5 31t-1.5 16.5l2 -7l6 -14.5t3 -8.5q0 2 -1.5 9.5t-3.5 13l-4.5 12.5t-6.5 10.5t-9 3.5q-6 0 -12 -3t-11 -7t-10.5 -11t-9 -12t-8.5 -14.5l-7 -13.5t-6 -13t-5 -10q-36 -81 -46 -142
q5 23 36 109.5t43 85.5q-9 -2 -37.5 -77t-32.5 -94q-15 -61 -3 -65q12 -3 39 35q28 34 54 72l26 37q4 7 14 21zM245 185l9 24l-5 -7zM230 247q4 4 0 10v-10zM381 473q1 1 3 4.5t4 5.5t5.5 2t6.5 -5q2 -9 1 -12.5t-8 -10.5t-7 -8q-11 -15 -21 -21q-26 -15 -57 -8q-9 3 -29 13
t-31 12q-25 6 -39 2q-3 -1 -12 -5.5t-13 -5.5t-12 2q-21 15 8.5 37.5t51.5 29.5q15 8 31 4.5t25 -9.5l24 -16.5t27 -15.5q24 -10 42 5z" />
    <glyph glyph-name="adieresis" unicode="&#xe4;" 
d="M509 241q1 -10 -4 -21.5t-13 -24.5t-11 -19q-16 -36 -44 -84q-35 -56 -60 -85q-40 -52 -73 -57q-24 -4 -43.5 11.5t-28.5 40.5q-11 28 -11 61t5.5 57t16.5 60q0 9 1 16l-16.5 -23.5l-16.5 -23.5q-4 -6 -15.5 -26t-18.5 -30q-12 -18 -52 -60t-47 -31l11 7q-19 -13 -42 -6
q1 -1 2 -1l2 -2q-15 -2 -28 15t-18 34q-10 36 -1 87q18 96 69 171q21 28 31 35q4 4 12.5 8t11.5 6q28 24 50 24q54 0 79 -94q61 79 104 27q4 -5 6.5 -9.5t3 -10t1 -8.5t-2 -9.5t-3 -8t-5 -9.5t-4.5 -9q-28 -52 -42 -114q6 19 8 19t-5 -34q-22 -101 -2 -102q14 0 46 39
q31 39 85 121q32 51 37 58q17 23 23 13q2 -3 2 -8zM222 234q5 8 5 16q0 3 -5 19.5t-8.5 31t-1.5 16.5l2 -7l6 -14.5t3 -8.5q0 2 -1.5 9.5t-3.5 13l-4.5 12.5t-6.5 10.5t-9 3.5q-6 0 -12 -3t-11 -7t-10.5 -11t-9 -12t-8.5 -14.5l-7 -13.5t-6 -13t-5 -10q-36 -81 -46 -142
q5 23 36 109.5t43 85.5q-9 -2 -37.5 -77t-32.5 -94q-15 -61 -3 -65q12 -3 39 35q28 34 54 72l26 37q4 7 14 21zM245 185l9 24l-5 -7zM230 247q4 4 0 10v-10zM425 481q4 -19 1 -26h-1q-3 -17 -21 -36q8 6 9 6q3 -1 -13 -13.5t-23 -17.5q-11 -7 -20 -6q-3 1 -12 7t-7 7
q2 2 3 0l-8 6q3 -4 4 -5l-8 8q-5 13 -4 21q1 21 21 39q7 7 18.5 13.5t24 10.5t22.5 -0.5t12 -18.5q-1 15 -13 19.5t-26 1.5q29 10 41 -16zM285 492q3 0 3.5 -3t-1 -8.5t-3 -10t-3.5 -9.5l-2 -5q-9 -24 -29 -38q-22 -15 -25 -15q-8 -1 -19 8t-16 18q-13 24 19 59q3 3 10 7.5
t9 6.5v4q0 3 4 5q3 2 6.5 2t7.5 -1t6 -1l2 2q2 2 4 2q7 0 13 -3q11 -4 14 -20zM360 389q1 2 -0.5 2.5t-4 1t-4.5 1.5q2 -3 8 -5h1zM365 489q-1 2 0.5 3t5.5 2q-5 -5 -6 -5zM420 447v1q0 3 1 5q-1 -7 -5 -14zM424 464q0 8 -1 -1q-1 -3 -1 -5q0 2 2 6zM376 397q1 0 10 7z
M401 416q1 0 3 2zM399 414q1 1 2 1zM384 497q-1 0 -2 -1h-2h2q1 1 2 1z" />
    <glyph glyph-name="aring" unicode="&#xe5;" 
d="M509 241q1 -10 -4 -21.5t-13 -24.5t-11 -19q-16 -36 -44 -84q-35 -56 -60 -85q-40 -52 -73 -57q-24 -4 -43.5 11.5t-28.5 40.5q-11 28 -11 61t5.5 57t16.5 60q0 9 1 16l-16.5 -23.5l-16.5 -23.5q-4 -6 -15.5 -26t-18.5 -30q-12 -18 -52 -60t-47 -31l11 7q-19 -13 -42 -6
q1 -1 2 -1l2 -2q-15 -2 -28 15t-18 34q-10 36 -1 87q18 96 69 171q21 28 31 35q4 4 12.5 8t11.5 6q28 24 50 24q54 0 79 -94q61 79 104 27q4 -5 6.5 -9.5t3 -10t1 -8.5t-2 -9.5t-3 -8t-5 -9.5t-4.5 -9q-28 -52 -42 -114q6 19 8 19t-5 -34q-22 -101 -2 -102q14 0 46 39
q31 39 85 121q32 51 37 58q17 23 23 13q2 -3 2 -8zM222 234q5 8 5 16q0 3 -5 19.5t-8.5 31t-1.5 16.5l2 -7l6 -14.5t3 -8.5q0 2 -1.5 9.5t-3.5 13l-4.5 12.5t-6.5 10.5t-9 3.5q-6 0 -12 -3t-11 -7t-10.5 -11t-9 -12t-8.5 -14.5l-7 -13.5t-6 -13t-5 -10q-36 -81 -46 -142
q5 23 36 109.5t43 85.5q-9 -2 -37.5 -77t-32.5 -94q-15 -61 -3 -65q12 -3 39 35q28 34 54 72l26 37q4 7 14 21zM245 185l9 24l-5 -7zM230 247q4 4 0 10v-10zM368 457q3 -1 2.5 -5.5t-2.5 -11.5l-2 -6q-9 -21 -21 -32q-21 -19 -42 -22q-35 -3 -54 16.5t-9 53.5q12 35 27 45
q4 2 10.5 2t8.5 1q2 0 2.5 2t2.5 3q3 1 20 1q62 -4 57 -47zM347 447q3 5 -0.5 17.5t-9.5 15.5h-7q-4 -1 -7.5 -2.5t-5.5 -3t-4.5 -4.5t-3 -4.5t-2.5 -5.5t-3 -5q-2 -3 -5.5 -12t-6.5 -19t-2 -18t7 -8q0 5 3.5 6t8.5 -0.5t6 -0.5q-1 3 2.5 6t9 6.5t6.5 5.5l4.5 7t5 10t4.5 9z
" />
    <glyph glyph-name="ccedilla" unicode="&#xe7;" horiz-adv-x="322" 
d="M392 253q3 -7 3.5 -12.5t-5 -15t-9.5 -15.5t-11 -14.5t-8 -10.5q-38 -49 -49 -66q-54 -80 -136 -148q-52 -42 -95 -42q-1 -4 -3 -8t-4.5 -8t-3.5 -5q14 4 29 -14t18 -33l-1 1q0 -1 1 -2v-1q2 -33 -24.5 -52.5t-60.5 -21.5q-17 0 -23 9t-6 28t6 26q5 3 6 3.5t4.5 -2
t6.5 -2.5q10 -1 32 1t23 7q1 3 -0.5 6t-4.5 4l-6 2t-7.5 1h-7.5h-6.5h-4.5q-6 0 -10 1.5t-5 4.5t-0.5 6t3 8t4.5 8.5t5.5 9t4.5 8.5l8 19q-12 6 -17 11q-7 7 -19 27t-9 24q4 -10 5 -11l-5 17q0 -3 -2 2q-6 12 -6 17q-2 13 -2 40q1 13 3.5 37t2.5 36q1 29 13 64q2 8 11.5 34
t13.5 25v-2v-4l-1 -3l5 14.5t7 17.5l-4 -5q-1 1 17 37.5t22 43.5q26 43 60 67q30 23 59 19q30 -4 46 -38q16 -35 14 -61q-2 -33 -10 -50q-6 -12 -24.5 -21t-29.5 -1q-5 3 -6 6.5t0 5l4 6t4 5.5l-5 -4q14 51 16 51v-6q-1 -5 -2 -11l-1 -6q9 29 5 61q-3 29 -22 14
q-6 -5 -10.5 -11.5t-11.5 -19.5l-6 -13q-16 -33 -31 -75q21 56 44 93q12 23 24 29l7 -2v-1l-3 1q-3 1 -4 0q-23 -22 -49 -80q-45 -105 -60 -196q-10 -67 -3 -100q5 -18 11 -21q15 -11 58 20q49 37 61 50q-6 -4 -9 -5q-1 0 8 12t11 14q10 10 28 32q3 3 21.5 26l27.5 35
q1 1 9.5 13.5t16.5 22.5t19.5 23t19 15t15.5 -1zM69 258l1 2v3q-3 -7 -9 -17.5t-9.5 -19t-4.5 -16.5q1 3 6.5 9t6.5 9q5 12 9 30zM32 141l-1 6q-5 -15 -3 -37q0 24 4 31zM117 209q-11 -31 -13 -44zM34 160l2 3q-5 -2 -5 -12zM118 213q-1 -1 -1 -4z" />
    <glyph glyph-name="egrave" unicode="&#xe8;" horiz-adv-x="311" 
d="M383 247q4 -9 -4 -19l-31 -41l-54 -70q-7 -9 -22.5 -26.5t-22.5 -26.5l-13.5 -19.5t-16 -22.5t-15.5 -18q-35 -37 -63 -52q-24 -13 -51 -5q-38 10 -66 43q-10 12 -11 19q-2 12 -2 20q0 2 5 33q1 7 5 19.5t5 18.5q1 7 4 20.5t4 19.5v16.5t2 20.5q1 4 5.5 12.5t5.5 12.5
q-1 -1 -4.5 -7.5t-4.5 -9.5l-3.5 -11t-4.5 -12q-1 -4 -3.5 -11.5t-3.5 -11.5q-8 -18 -9 -27v-13t-1 -14q-4 -18 -4 -25q0 -2 1 -6t1 -5q0 -2 -1 -6.5t-1 -7.5q0 -5 1.5 -15.5t1.5 -12.5q-17 30 -8 86q12 70 16 88q20 93 78 164q57 75 126 62q38 -8 55 -30q19 -25 6 -65
q-15 -44 -77 -96q-24 -20 -42 -31q-10 -6 -32 -14l-17 -6q-9 -3 -11 -7q-3 -6 -3 -16.5t-1 -13.5q-2 -10 -8 -38q-12 -58 -7 -80q3 -12 11 -16t19.5 1t22.5 11t24.5 17.5l19.5 16.5t13 12q4 4 9 8.5t10.5 10.5t8.5 9q2 2 7.5 8t7.5 9q2 5 2 7q9 14 43 55q16 19 51 66
q1 1 3.5 5l4 6.5t4.5 6.5t5.5 6l5.5 4.5t6 3.5t6 0.5t5.5 -3t5.5 -6.5v-1q1 -1 1 0zM135 236q-3 -5 -7 -16t-6 -16q49 26 84 67l17 22q1 2 5 6.5t5 7.5q0 2 -0.5 7t0.5 8l4 21q1 11 -3.5 23t-14.5 10q-7 -2 -18 -16l-18 -24q-9 -14 -17 -30t-17 -37l-13 -30q0 -1 -1 -3z
M271 459q5 -33 -48 13q-8 7 -27.5 28t-31.5 29l-5 2.5t-4 2.5l-2.5 2.5t-1.5 3.5t0.5 5t2.5 7q1 2 4 3l3 1q1 1 0 3.5t1 3.5q10 11 26 13q24 1 35 -19q3 -6 11.5 -18.5t11.5 -19.5q5 -10 14 -37q1 -2 3 -5t3.5 -5t2.5 -5.5t2 -6.5v-1z" />
    <glyph glyph-name="eacute" unicode="&#xe9;" horiz-adv-x="311" 
d="M383 247q4 -9 -4 -19l-31 -41l-54 -70q-7 -9 -22.5 -26.5t-22.5 -26.5l-13.5 -19.5t-16 -22.5t-15.5 -18q-35 -37 -63 -52q-24 -13 -51 -5q-38 10 -66 43q-10 12 -11 19q-2 12 -2 20q0 2 5 33q1 7 5 19.5t5 18.5q1 7 4 20.5t4 19.5v16.5t2 20.5q1 4 5.5 12.5t5.5 12.5
q-1 -1 -4.5 -7.5t-4.5 -9.5l-3.5 -11t-4.5 -12q-1 -4 -3.5 -11.5t-3.5 -11.5q-8 -18 -9 -27v-13t-1 -14q-4 -18 -4 -25q0 -2 1 -6t1 -5q0 -2 -1 -6.5t-1 -7.5q0 -5 1.5 -15.5t1.5 -12.5q-17 30 -8 86q12 70 16 88q20 93 78 164q57 75 126 62q38 -8 55 -30q19 -25 6 -65
q-15 -44 -77 -96q-24 -20 -42 -31q-10 -6 -32 -14l-17 -6q-9 -3 -11 -7q-3 -6 -3 -16.5t-1 -13.5q-2 -10 -8 -38q-12 -58 -7 -80q3 -12 11 -16t19.5 1t22.5 11t24.5 17.5l19.5 16.5t13 12q4 4 9 8.5t10.5 10.5t8.5 9q2 2 7.5 8t7.5 9q2 5 2 7q9 14 43 55q16 19 51 66
q1 1 3.5 5l4 6.5t4.5 6.5t5.5 6l5.5 4.5t6 3.5t6 0.5t5.5 -3t5.5 -6.5v-1q1 -1 1 0zM135 236q-3 -5 -7 -16t-6 -16q49 26 84 67l17 22q1 2 5 6.5t5 7.5q0 2 -0.5 7t0.5 8l4 21q1 11 -3.5 23t-14.5 10q-7 -2 -18 -16l-18 -24q-9 -14 -17 -30t-17 -37l-13 -30q0 -1 -1 -3z
M335 551q2 -1 -0.5 -5t-8 -9.5l-10.5 -10.5l-10 -10l-5 -4q-13 -14 -54 -46q-19 -14 -25 -9q-12 8 15 56l37 64q1 2 1 5.5t2 5t7 1.5q2 0 6.5 -0.5t7.5 -0.5l4 -1q20 -6 28 -18q1 -2 3 -9.5t2 -8.5z" />
    <glyph glyph-name="ecircumflex" unicode="&#xea;" horiz-adv-x="311" 
d="M383 247q4 -9 -4 -19l-31 -41l-54 -70q-7 -9 -22.5 -26.5t-22.5 -26.5l-13.5 -19.5t-16 -22.5t-15.5 -18q-35 -37 -63 -52q-24 -13 -51 -5q-38 10 -66 43q-10 12 -11 19q-2 12 -2 20q0 2 5 33q1 7 5 19.5t5 18.5q1 7 4 20.5t4 19.5v16.5t2 20.5q1 4 5.5 12.5t5.5 12.5
q-1 -1 -4.5 -7.5t-4.5 -9.5l-3.5 -11t-4.5 -12q-1 -4 -3.5 -11.5t-3.5 -11.5q-8 -18 -9 -27v-13t-1 -14q-4 -18 -4 -25q0 -2 1 -6t1 -5q0 -2 -1 -6.5t-1 -7.5q0 -5 1.5 -15.5t1.5 -12.5q-17 30 -8 86q12 70 16 88q20 93 78 164q57 75 126 62q38 -8 55 -30q19 -25 6 -65
q-15 -44 -77 -96q-24 -20 -42 -31q-10 -6 -32 -14l-17 -6q-9 -3 -11 -7q-3 -6 -3 -16.5t-1 -13.5q-2 -10 -8 -38q-12 -58 -7 -80q3 -12 11 -16t19.5 1t22.5 11t24.5 17.5l19.5 16.5t13 12q4 4 9 8.5t10.5 10.5t8.5 9q2 2 7.5 8t7.5 9q2 5 2 7q9 14 43 55q16 19 51 66
q1 1 3.5 5l4 6.5t4.5 6.5t5.5 6l5.5 4.5t6 3.5t6 0.5t5.5 -3t5.5 -6.5v-1q1 -1 1 0zM135 236q-3 -5 -7 -16t-6 -16q49 26 84 67l17 22q1 2 5 6.5t5 7.5q0 2 -0.5 7t0.5 8l4 21q1 11 -3.5 23t-14.5 10q-7 -2 -18 -16l-18 -24q-9 -14 -17 -30t-17 -37l-13 -30q0 -1 -1 -3z
M324 545q3 -34 -1 -82q-1 -14 -9.5 -23.5t-22.5 -4.5q-33 12 -33 99l-13 -12.5l-14.5 -14t-12.5 -13.5q-30 -35 -57 -44q-16 -5 -12 7q6 20 31 46q3 4 23 25.5l29.5 31.5t27.5 23t33 18q17 7 25 -11q1 -4 1.5 -8.5t1 -10t0.5 -8.5q0 -1 -1 -4.5t0 -5.5q0 -1 2 -3t2 -5z" />
    <glyph glyph-name="edieresis" unicode="&#xeb;" horiz-adv-x="311" 
d="M383 247q4 -9 -4 -19l-31 -41l-54 -70q-7 -9 -22.5 -26.5t-22.5 -26.5l-13.5 -19.5t-16 -22.5t-15.5 -18q-35 -37 -63 -52q-24 -13 -51 -5q-38 10 -66 43q-10 12 -11 19q-2 12 -2 20q0 2 5 33q1 7 5 19.5t5 18.5q1 7 4 20.5t4 19.5v16.5t2 20.5q1 4 5.5 12.5t5.5 12.5
q-1 -1 -4.5 -7.5t-4.5 -9.5l-3.5 -11t-4.5 -12q-1 -4 -3.5 -11.5t-3.5 -11.5q-8 -18 -9 -27v-13t-1 -14q-4 -18 -4 -25q0 -2 1 -6t1 -5q0 -2 -1 -6.5t-1 -7.5q0 -5 1.5 -15.5t1.5 -12.5q-17 30 -8 86q12 70 16 88q20 93 78 164q57 75 126 62q38 -8 55 -30q19 -25 6 -65
q-15 -44 -77 -96q-24 -20 -42 -31q-10 -6 -32 -14l-17 -6q-9 -3 -11 -7q-3 -6 -3 -16.5t-1 -13.5q-2 -10 -8 -38q-12 -58 -7 -80q3 -12 11 -16t19.5 1t22.5 11t24.5 17.5l19.5 16.5t13 12q4 4 9 8.5t10.5 10.5t8.5 9q2 2 7.5 8t7.5 9q2 5 2 7q9 14 43 55q16 19 51 66
q1 1 3.5 5l4 6.5t4.5 6.5t5.5 6l5.5 4.5t6 3.5t6 0.5t5.5 -3t5.5 -6.5v-1q1 -1 1 0zM135 236q-3 -5 -7 -16t-6 -16q49 26 84 67l17 22q1 2 5 6.5t5 7.5q0 2 -0.5 7t0.5 8l4 21q1 11 -3.5 23t-14.5 10q-7 -2 -18 -16l-18 -24q-9 -14 -17 -30t-17 -37l-13 -30q0 -1 -1 -3z
M358 528q4 -19 1 -26h-1q-2 -18 -21 -36q8 6 9 6q3 -1 -13 -13.5t-23 -17.5q-11 -7 -20 -6q-3 1 -12 7t-7 7q1 1 3 0l-8 6q3 -4 4 -5l-8 8q-5 13 -4 21q1 21 21 39q7 7 18.5 13.5t24 10.5t22.5 -0.5t12 -18.5q-1 15 -13 19.5t-26 1.5q29 10 41 -16zM218 539q3 0 3.5 -3
t-1 -8.5t-3 -10t-3.5 -9.5l-2 -5q-9 -24 -29 -38q-23 -15 -25 -15q-8 -1 -19 8t-16 18q-13 24 19 59q3 3 10 7.5t9 6.5q1 1 1 4t3 5t6.5 2t7.5 -1t6 -1l2 2q2 2 4 2q7 0 13 -3q11 -4 14 -20zM293 436q1 2 -0.5 2.5t-4 1t-4.5 1.5q2 -3 8 -5h1zM298 536q-1 2 0.5 3t5.5 2
q-5 -5 -6 -5zM353 494v1q0 3 1 5q-1 -7 -5 -14zM357 511q0 8 -1 -1q-1 -3 -1 -5q0 2 2 6zM309 444q1 0 10 7zM334 463q1 0 3 2zM332 461q1 1 2 1zM317 544h-3l-1 -1l1 1h3z" />
    <glyph glyph-name="igrave" unicode="&#xec;" horiz-adv-x="189" 
d="M262 246q4 -18 -24 -54q-35 -52 -52 -73q-2 -3 -12 -17t-15.5 -20.5l-14.5 -16.5t-18.5 -16t-19.5 -8q-7 -1 -26.5 5t-18.5 10h2q-3 2 -4.5 0.5t-7.5 3.5q-9 6 -21 24l-8.5 11t-9 11t-7 11t-4.5 13q-2 4 -1 22.5t6 18.5q1 0 1 -3v-2l3 18q-2 -3 -3 -4q-3 1 5.5 34.5
t11.5 43.5l5 15t6.5 17.5t8 13t12.5 11.5q21 14 53 0q31 -12 31 -23q0 -3 -1 -4.5t-3.5 -3t-3.5 -2.5q1 1 4 1q1 -1 -2 -6.5t-7 -10.5t-5 -5t2 8q-28 -46 -47 -101q5 13 18 41t15 27l-14 -32q-15 -33 -24 -63t6 -43q14 -7 54 26q49 38 59 51q-2 -2 -7 -2q-3 3 22 37.5
t33 39.5q20 14 23 -4zM68 134v1l-2 -8l2 6v1zM138 381q5 -33 -48 13q-8 7 -27.5 28t-31.5 29l-5 2.5t-4 2.5l-2.5 2.5t-1.5 3.5t0.5 5t2.5 7q1 2 4 3l3 1q1 1 0 3.5t1 3.5q10 11 26 13q24 1 35 -19q3 -6 11.5 -18.5t11.5 -19.5q5 -10 14 -37q1 -2 3 -5t3.5 -5t2.5 -5.5
t2 -6.5v-1z" />
    <glyph glyph-name="iacute" unicode="&#xed;" horiz-adv-x="189" 
d="M262 246q4 -18 -24 -54q-35 -52 -52 -73q-2 -3 -12 -17t-15.5 -20.5l-14.5 -16.5t-18.5 -16t-19.5 -8q-7 -1 -26.5 5t-18.5 10h2q-3 2 -4.5 0.5t-7.5 3.5q-9 6 -21 24l-8.5 11t-9 11t-7 11t-4.5 13q-2 4 -1 22.5t6 18.5q1 0 1 -3v-2l3 18q-2 -3 -3 -4q-3 1 5.5 34.5
t11.5 43.5l5 15t6.5 17.5t8 13t12.5 11.5q21 14 53 0q31 -12 31 -23q0 -3 -1 -4.5t-3.5 -3t-3.5 -2.5q1 1 4 1q1 -1 -2 -6.5t-7 -10.5t-5 -5t2 8q-28 -46 -47 -101q5 13 18 41t15 27l-14 -32q-15 -33 -24 -63t6 -43q14 -7 54 26q49 38 59 51q-2 -2 -7 -2q-3 3 22 37.5
t33 39.5q20 14 23 -4zM68 134v1l-2 -8l2 6v1zM219 464q2 -1 -0.5 -5t-8 -9.5l-10.5 -10.5t-10 -9l-5 -5q-13 -14 -54 -46q-19 -14 -25 -9q-12 8 15 56l37 64q1 2 1 5.5t2 5t7 1.5q2 0 6.5 -0.5t7.5 -1.5h4q20 -6 28 -18q1 -2 3 -9.5t2 -8.5z" />
    <glyph glyph-name="icircumflex" unicode="&#xee;" horiz-adv-x="189" 
d="M262 246q4 -18 -24 -54q-35 -52 -52 -73q-2 -3 -12 -17t-15.5 -20.5l-14.5 -16.5t-18.5 -16t-19.5 -8q-7 -1 -26.5 5t-18.5 10h2q-3 2 -4.5 0.5t-7.5 3.5q-9 6 -21 24l-8.5 11t-9 11t-7 11t-4.5 13q-2 4 -1 22.5t6 18.5q1 0 1 -3v-2l3 18q-2 -3 -3 -4q-3 1 5.5 34.5
t11.5 43.5l5 15t6.5 17.5t8 13t12.5 11.5q21 14 53 0q31 -12 31 -23q0 -3 -1 -4.5t-3.5 -3t-3.5 -2.5q1 1 4 1q1 -1 -2 -6.5t-7 -10.5t-5 -5t2 8q-28 -46 -47 -101q5 13 18 41t15 27l-14 -32q-15 -33 -24 -63t6 -43q14 -7 54 26q49 38 59 51q-2 -2 -7 -2q-3 3 22 37.5
t33 39.5q20 14 23 -4zM68 134v1l-2 -8l2 6v1zM220 488q3 -34 -1 -82q-1 -14 -9.5 -23.5t-22.5 -4.5q-33 12 -33 99l-13 -12.5l-14.5 -14t-12.5 -13.5q-30 -35 -57 -44q-16 -5 -12 7q6 20 31 46q3 4 23 25.5l29.5 31.5t27.5 23t33 18q17 7 25 -11q1 -4 1.5 -8.5t1 -10
t0.5 -8.5q0 -1 -1 -4.5t0 -5.5q0 -1 2 -3t2 -5z" />
    <glyph glyph-name="idieresis" unicode="&#xef;" horiz-adv-x="189" 
d="M262 246q4 -18 -24 -54q-35 -52 -52 -73q-2 -3 -12 -17t-15.5 -20.5l-14.5 -16.5t-18.5 -16t-19.5 -8q-7 -1 -26.5 5t-18.5 10h2q-3 2 -4.5 0.5t-7.5 3.5q-9 6 -21 24l-8.5 11t-9 11t-7 11t-4.5 13q-2 4 -1 22.5t6 18.5q1 0 1 -3v-2l3 18q-2 -3 -3 -4q-3 1 5.5 34.5
t11.5 43.5l5 15t6.5 17.5t8 13t12.5 11.5q21 14 53 0q31 -12 31 -23q0 -3 -1 -4.5t-3.5 -3t-3.5 -2.5q1 1 4 1q1 -1 -2 -6.5t-7 -10.5t-5 -5t2 8q-28 -46 -47 -101q5 13 18 41t15 27l-14 -32q-15 -33 -24 -63t6 -43q14 -7 54 26q49 38 59 51q-2 -2 -7 -2q-3 3 22 37.5
t33 39.5q20 14 23 -4zM68 134v1l-2 -8l2 6v1zM254 463q4 -19 1 -26h-1q-2 -18 -21 -36q8 6 9 6q3 -1 -13 -13.5t-23 -17.5q-11 -7 -20 -6q-3 1 -12 7t-7 7q1 2 3 0l-8 6q3 -4 4 -5l-8 8q-5 13 -4 21q1 21 21 39q7 7 18.5 13.5t24 10.5t22.5 -0.5t12 -18.5q-1 15 -13 19.5
t-26 1.5q29 10 41 -16zM114 474q3 0 3.5 -3t-1 -8.5t-3 -10t-3.5 -9.5l-2 -5q-9 -24 -29 -38q-23 -15 -25 -15q-8 -1 -19 8t-16 18q-13 24 19 59q3 3 10 7.5t9 6.5q1 0 1 3.5t3 5.5t6.5 2t7.5 -1t6 -1l2 2q2 2 4 2q7 0 13 -3q11 -4 14 -20zM189 371q1 2 -0.5 2.5t-4 1
t-4.5 1.5q2 -3 8 -5h1zM194 471q-1 2 0.5 3t5.5 2q-5 -5 -6 -5zM249 429v1q0 3 1 5q-1 -7 -5 -14zM253 446q0 8 -1 -1q-1 -3 -1 -5q0 2 2 6zM205 379q1 0 10 7zM230 398q1 0 3 2zM228 396q1 1 2 1zM213 479q-1 0 -3 -1h-1h1q2 1 3 1z" />
    <glyph glyph-name="ntilde" unicode="&#xf1;" horiz-adv-x="341" 
d="M414 238q2 -11 -6 -24.5t-23.5 -30.5t-16.5 -19l-20 -26.5l-24 -31.5t-22 -26q-48 -51 -76 -42q-6 2 -24.5 13t-17.5 14l3 -2l-6 6q3 -5 -2 -1l-5 3q-5 5 -12 19q-6 13 -6 33l3 33q4 46 10 65q24 61 30 59q1 0 0 -1.5t-1 -4.5l-1 -2l14 28l-5 -5q-2 1 15 29
q-5 -6 -54 -71q-5 -7 -19 -21t-19 -23t-29.5 -46.5t-34.5 -59.5l-4 8q-16 -13 -30.5 -4.5t-24.5 25.5q-8 14 -4 46q1 5 1.5 15t1.5 18t3 16q5 17 22 62q14 42 22 63q1 3 8.5 19t9.5 24q1 3 1.5 7.5t1 7t3 5.5t7.5 6q13 8 38 4q16 -3 27.5 -15.5t0.5 -29.5q-3 -5 -13 -14.5
t-14 -14.5q-5 -6 -12 -29q-1 -5 -7 -12.5t-7 -10.5q-5 -10 -14 -38q-1 -5 -1.5 -12t-0.5 -10q-1 -11 -5.5 -32t-5.5 -31q3 6 9 10l-2 -4q-3 -5 -5 -10l-2 -4l59 86l-23 -29q-2 1 58.5 79t71.5 88q21 22 45.5 17.5t34.5 -38.5q7 -22 -1.5 -42t-30.5 -44.5t-28 -32.5
q-11 -18 -34 -65q-22 -41 -24 -64q1 7 4 15t7.5 16.5t5.5 11.5q12 31 35 53q-3 -6 -10.5 -18t-10.5 -19l5 6q1 0 -4 -17t-6 -19q-8 -24 -9 -38v-17l1 -1h2l4 2t3 1q12 4 42 29l70 60q2 2 23.5 20.5t29.5 28.5q19 29 25 1zM345 532q1 1 3 4.5t4 5.5t5.5 2t6.5 -5
q2 -9 1 -12.5t-8 -10.5t-7 -8q-11 -15 -21 -21q-26 -15 -57 -8q-9 3 -29 13t-31 12q-25 6 -39 2q-3 -1 -12 -5.5t-13 -5.5t-12 2q-21 15 8.5 37.5t51.5 29.5q15 8 31 4.5t25 -9.5l24 -16.5t27 -15.5q24 -10 42 5z" />
    <glyph glyph-name="ograve" unicode="&#xf2;" horiz-adv-x="391" 
d="M460 249q26 -33 -90 -46q-8 -1 -9 -1t-4.5 -1t-6.5 -1l-3 -1q-8 -3 -15 -12l-22 -37q-1 -1 -12 -16t-21.5 -27t-13.5 -11l7 11l-29 -34q5 5 5 3q-2 -6 -9.5 -13.5t-13.5 -12l-17.5 -13t-13.5 -9.5q-29 -22 -57 -26q-31 -3 -61 11q-45 22 -65 73t3 97q6 11 15 31.5
t18 37.5t20 31q27 33 48 46q12 9 27 15q3 2 13.5 4.5t13.5 4.5t6 9.5t6 16.5l4 12q6 11 14 23q26 37 52 52q44 24 93 -25q2 -1 4.5 -3t7 -6.5t4.5 -7.5l-4 4l4 -8l1 -1q-2 5 3 0l6 -7q7 -10 10 -26q4 -17 0 -43q-4 -40 -26 -111l89 18q16 5 19 0v-1zM114 47q85 16 153 152
q-95 13 -109 75q-12 -13 -36 -62l6 9q0 -2 -7 -15q-74 -160 -15 -160q3 0 7 1h1zM311 324q0 1 3.5 16.5t4.5 22.5t2.5 20.5t-0.5 23.5t-6 17q-22 33 -72 -34l-1 -1l-1 -2v1l-1 -3q-17 -23 -17 -24l3 5l7 8.5t3 2.5q2 -3 -19 -44q-11 -28 -13 -49q-4 -36 10 -48q9 -8 32 -10
q19 -3 25 -1q2 0 5 1q3 0 5 4q1 3 2 4q5 9 10 21.5t7 21.5t6 25.5t5 21.5zM242 389q1 0 1 1zM335 515q5 -33 -48 13q-8 7 -27.5 28t-31.5 29l-5 2.5t-4 2.5l-2.5 2.5t-1.5 3.5t0.5 5t2.5 7q1 2 4 3l3 1q1 1 0 3.5t1 3.5q10 11 26 13q24 1 35 -19q3 -6 11.5 -18.5t11.5 -19.5
q5 -10 14 -37q1 -2 3 -5t3.5 -5t2.5 -5.5t2 -6.5v-1z" />
    <glyph glyph-name="oacute" unicode="&#xf3;" horiz-adv-x="391" 
d="M460 249q26 -33 -90 -46q-8 -1 -9 -1t-4.5 -1t-6.5 -1l-3 -1q-8 -3 -15 -12l-22 -37q-1 -1 -12 -16t-21.5 -27t-13.5 -11l7 11l-29 -34q5 5 5 3q-2 -6 -9.5 -13.5t-13.5 -12l-17.5 -13t-13.5 -9.5q-29 -22 -57 -26q-31 -3 -61 11q-45 22 -65 73t3 97q6 11 15 31.5
t18 37.5t20 31q27 33 48 46q12 9 27 15q3 2 13.5 4.5t13.5 4.5t6 9.5t6 16.5l4 12q6 11 14 23q26 37 52 52q44 24 93 -25q2 -1 4.5 -3t7 -6.5t4.5 -7.5l-4 4l4 -8l1 -1q-2 5 3 0l6 -7q7 -10 10 -26q4 -17 0 -43q-4 -40 -26 -111l89 18q16 5 19 0v-1zM114 47q85 16 153 152
q-95 13 -109 75q-12 -13 -36 -62l6 9q0 -2 -7 -15q-74 -160 -15 -160q3 0 7 1h1zM311 324q0 1 3.5 16.5t4.5 22.5t2.5 20.5t-0.5 23.5t-6 17q-22 33 -72 -34l-1 -1l-1 -2v1l-1 -3q-17 -23 -17 -24l3 5l7 8.5t3 2.5q2 -3 -19 -44q-11 -28 -13 -49q-4 -36 10 -48q9 -8 32 -10
q19 -3 25 -1q2 0 5 1q3 0 5 4q1 3 2 4q5 9 10 21.5t7 21.5t6 25.5t5 21.5zM242 389q1 0 1 1zM389 605q2 -1 -0.5 -5t-8 -9.5l-10.5 -10.5l-10 -10l-5 -4q-13 -14 -54 -46q-19 -14 -25 -9q-12 8 15 56l37 64q1 2 1 5.5t2 5t7 1.5q2 0 6.5 -0.5t7.5 -0.5l4 -1q20 -6 28 -18
q1 -2 3 -9.5t2 -8.5z" />
    <glyph glyph-name="ocircumflex" unicode="&#xf4;" horiz-adv-x="391" 
d="M460 249q26 -33 -90 -46q-8 -1 -9 -1t-4.5 -1t-6.5 -1l-3 -1q-8 -3 -15 -12l-22 -37q-1 -1 -12 -16t-21.5 -27t-13.5 -11l7 11l-29 -34q5 5 5 3q-2 -6 -9.5 -13.5t-13.5 -12l-17.5 -13t-13.5 -9.5q-29 -22 -57 -26q-31 -3 -61 11q-45 22 -65 73t3 97q6 11 15 31.5
t18 37.5t20 31q27 33 48 46q12 9 27 15q3 2 13.5 4.5t13.5 4.5t6 9.5t6 16.5l4 12q6 11 14 23q26 37 52 52q44 24 93 -25q2 -1 4.5 -3t7 -6.5t4.5 -7.5l-4 4l4 -8l1 -1q-2 5 3 0l6 -7q7 -10 10 -26q4 -17 0 -43q-4 -40 -26 -111l89 18q16 5 19 0v-1zM114 47q85 16 153 152
q-95 13 -109 75q-12 -13 -36 -62l6 9q0 -2 -7 -15q-74 -160 -15 -160q3 0 7 1h1zM311 324q0 1 3.5 16.5t4.5 22.5t2.5 20.5t-0.5 23.5t-6 17q-22 33 -72 -34l-1 -1l-1 -2v1l-1 -3q-17 -23 -17 -24l3 5l7 8.5t3 2.5q2 -3 -19 -44q-11 -28 -13 -49q-4 -36 10 -48q9 -8 32 -10
q19 -3 25 -1q2 0 5 1q3 0 5 4q1 3 2 4q5 9 10 21.5t7 21.5t6 25.5t5 21.5zM242 389q1 0 1 1zM379 607q3 -34 -1 -82q-1 -14 -9.5 -23.5t-22.5 -4.5q-33 12 -33 99l-13 -12.5l-14.5 -14t-12.5 -13.5q-30 -35 -57 -44q-16 -5 -12 7q6 20 31 46q3 4 23 25.5l29.5 31.5t27.5 23
t33 18q17 7 25 -11q1 -4 1.5 -8.5t1 -10t0.5 -8.5q0 -1 -1 -4.5t0 -5.5q0 -1 2 -3t2 -5z" />
    <glyph glyph-name="otilde" unicode="&#xf5;" horiz-adv-x="391" 
d="M460 249q26 -33 -90 -46q-8 -1 -9 -1t-4.5 -1t-6.5 -1l-3 -1q-8 -3 -15 -12l-22 -37q-1 -1 -12 -16t-21.5 -27t-13.5 -11l7 11l-29 -34q5 5 5 3q-2 -6 -9.5 -13.5t-13.5 -12l-17.5 -13t-13.5 -9.5q-29 -22 -57 -26q-31 -3 -61 11q-45 22 -65 73t3 97q6 11 15 31.5
t18 37.5t20 31q27 33 48 46q12 9 27 15q3 2 13.5 4.5t13.5 4.5t6 9.5t6 16.5l4 12q6 11 14 23q26 37 52 52q44 24 93 -25q2 -1 4.5 -3t7 -6.5t4.5 -7.5l-4 4l4 -8l1 -1q-2 5 3 0l6 -7q7 -10 10 -26q4 -17 0 -43q-4 -40 -26 -111l89 18q16 5 19 0v-1zM114 47q85 16 153 152
q-95 13 -109 75q-12 -13 -36 -62l6 9q0 -2 -7 -15q-74 -160 -15 -160q3 0 7 1h1zM311 324q0 1 3.5 16.5t4.5 22.5t2.5 20.5t-0.5 23.5t-6 17q-22 33 -72 -34l-1 -1l-1 -2v1l-1 -3q-17 -23 -17 -24l3 5l7 8.5t3 2.5q2 -3 -19 -44q-11 -28 -13 -49q-4 -36 10 -48q9 -8 32 -10
q19 -3 25 -1q2 0 5 1q3 0 5 4q1 3 2 4q5 9 10 21.5t7 21.5t6 25.5t5 21.5zM242 389q1 0 1 1zM417 567q1 1 3 4.5t4 5.5t5.5 2t6.5 -5q2 -9 1 -12.5t-8 -10.5t-7 -8q-11 -15 -21 -21q-26 -15 -57 -8q-9 3 -29 13t-31 12q-25 6 -39 2q-3 -1 -12 -5.5t-13 -5.5t-12 2
q-21 15 8.5 37.5t51.5 29.5q15 8 31 4.5t25 -9.5l24 -16.5t27 -15.5q24 -10 42 5z" />
    <glyph glyph-name="odieresis" unicode="&#xf6;" horiz-adv-x="391" 
d="M460 249q26 -33 -90 -46q-8 -1 -9 -1t-4.5 -1t-6.5 -1l-3 -1q-8 -3 -15 -12l-22 -37q-1 -1 -12 -16t-21.5 -27t-13.5 -11l7 11l-29 -34q5 5 5 3q-2 -6 -9.5 -13.5t-13.5 -12l-17.5 -13t-13.5 -9.5q-29 -22 -57 -26q-31 -3 -61 11q-45 22 -65 73t3 97q6 11 15 31.5
t18 37.5t20 31q27 33 48 46q12 9 27 15q3 2 13.5 4.5t13.5 4.5t6 9.5t6 16.5l4 12q6 11 14 23q26 37 52 52q44 24 93 -25q2 -1 4.5 -3t7 -6.5t4.5 -7.5l-4 4l4 -8l1 -1q-2 5 3 0l6 -7q7 -10 10 -26q4 -17 0 -43q-4 -40 -26 -111l89 18q16 5 19 0v-1zM114 47q85 16 153 152
q-95 13 -109 75q-12 -13 -36 -62l6 9q0 -2 -7 -15q-74 -160 -15 -160q3 0 7 1h1zM311 324q0 1 3.5 16.5t4.5 22.5t2.5 20.5t-0.5 23.5t-6 17q-22 33 -72 -34l-1 -1l-1 -2v1l-1 -3q-17 -23 -17 -24l3 5l7 8.5t3 2.5q2 -3 -19 -44q-11 -28 -13 -49q-4 -36 10 -48q9 -8 32 -10
q19 -3 25 -1q2 0 5 1q3 0 5 4q1 3 2 4q5 9 10 21.5t7 21.5t6 25.5t5 21.5zM242 389q1 0 1 1zM416 581q4 -19 1 -26h-1q-2 -17 -21 -36q8 6 9 6q3 -1 -13 -13.5t-23 -17.5q-11 -7 -20 -6q-3 1 -12 7t-7 7q1 2 3 0l-8 6q3 -4 4 -5l-8 8q-5 13 -4 21q1 21 21 39q7 7 18.5 13.5
t24 10.5t22.5 -0.5t12 -18.5q-1 15 -13 19.5t-26 1.5q29 10 41 -16zM276 592q3 0 3.5 -3t-1 -8.5t-3 -10t-3.5 -9.5l-2 -5q-9 -24 -29 -38q-22 -15 -25 -15q-8 -1 -19 8t-16 18q-13 24 19 59q3 3 10 7.5t9 6.5q1 0 1 3.5t3 5.5t6.5 2t7.5 -1t6 -1l2 2q2 2 4 2q7 0 13 -3
q11 -4 14 -20zM351 489q1 2 -0.5 2.5t-4 1t-4.5 1.5q2 -3 8 -5h1zM356 589q-1 2 0.5 3t5.5 2q-5 -5 -6 -5zM411 547v1q0 3 1 5q-1 -7 -5 -14zM415 564q0 8 -1 -1q-1 -3 -1 -5q0 2 2 6zM367 497q1 0 10 7zM392 516q1 0 3 2zM390 514q1 1 2 1zM375 597q-1 0 -3 -1h-1h1
q2 1 3 1z" />
    <glyph glyph-name="oslash" unicode="&#xf8;" horiz-adv-x="391" 
d="M460 249q26 -33 -90 -46q-8 -1 -9 -1t-4.5 -1t-6.5 -1l-3 -1q-8 -3 -15 -12l-22 -37q-1 -1 -12 -16t-21.5 -27t-13.5 -11l7 11l-29 -34q5 5 5 3q-2 -6 -9.5 -13.5t-13.5 -12l-17.5 -13t-13.5 -9.5q-29 -22 -57 -26q-31 -3 -61 11q-45 22 -65 73t3 97q6 11 15 31.5
t18 37.5t20 31q27 33 48 46q12 9 27 15q3 2 13.5 4.5t13.5 4.5t6 9.5t6 16.5l4 12q6 11 14 23q26 37 52 52q44 24 93 -25q2 -1 4.5 -3t7 -6.5t4.5 -7.5l-4 4l4 -8l1 -1q-2 5 3 0l6 -7q7 -10 10 -26q4 -17 0 -43q-4 -40 -26 -111l89 18q16 5 19 0v-1zM114 47q85 16 153 152
q-95 13 -109 75q-12 -13 -36 -62l6 9q0 -2 -7 -15q-74 -160 -15 -160q3 0 7 1h1zM311 324q0 1 3.5 16.5t4.5 22.5t2.5 20.5t-0.5 23.5t-6 17q-22 33 -72 -34l-1 -1l-1 -2v1l-1 -3q-17 -23 -17 -24l3 5l7 8.5t3 2.5q2 -3 -19 -44q-11 -28 -13 -49q-4 -36 10 -48q9 -8 32 -10
q19 -3 25 -1q2 0 5 1q3 0 5 4q1 3 2 4q5 9 10 21.5t7 21.5t6 25.5t5 21.5zM242 389q1 0 1 1zM420 486q3 0 -4 -15.5t-10 -19.5q-7 -12 -40 -55h1q-6 -8 -16.5 -25t-16.5 -24l-77 -100l-52 -69.5t-57 -73.5v-1l-8 -10l-39 -50l-38 -49q-24 -30 -37 -45q-22 -27 -29 -25
q-3 1 -4 3.5t0 6.5t2.5 7l3.5 7t2 5l1 1v0q-1 -1 -1 -4l2 5l3 6q-2 3 1 10t7 13.5t9.5 14.5t6.5 9q24 39 61 92q39 57 98 133q42 58 136 168q42 47 56 60q23 23 39 25zM6 -39l9 18q-10 -15 -9 -18zM365 394q1 1 1 2zM3 -45l-1 -1q1 0 1 1zM140 94v-1v1z" />
    <glyph glyph-name="ugrave" unicode="&#xf9;" horiz-adv-x="400" 
d="M473 244q1 -8 -21 -44q-16 -27 -52 -67q-2 -2 -11 -12t-13 -14l-13.5 -13.5t-15 -14t-15 -11.5t-16.5 -10.5t-16 -6t-18 -3.5q-38 -3 -57 29q-4 7 -6 15t-2.5 14.5t0.5 16.5t2 15.5t4.5 16t5 14.5t5.5 15.5t5 13.5l-76 -94q-11 -14 -49 -47.5t-44 -25.5l2 1l4 4l2 1
q-18 -11 -32 -11q1 -1 5 -1q2 -8 -28 5q-1 1 -2 1q-13 12 -19 40q-6 40 8 95q15 62 30 94q4 9 13.5 20.5t12.5 17.5q25 57 47 75q14 12 34 11t34 -12q5 -4 7.5 -7.5t2 -7t-1 -5.5t-4 -7.5t-4.5 -7.5q3 5 6 6q1 0 -4.5 -12t-13 -24t-9.5 -12q3 10 6 16q-18 -32 -36 -71
q3 4 6 4q-1 1 -17.5 -40.5l-23.5 -59.5q0 -1 -3.5 -11t-4.5 -16t-1.5 -13.5t3 -10t11.5 0.5q10 3 22.5 12.5t18.5 16t19.5 23t14.5 17.5q23 25 65 86q3 4 8.5 13l9 14.5t10 14.5t11 13t12.5 10.5t14 7.5t16 3.5t18 -2.5q9 -3 14.5 -7.5t7 -11t1 -13t-4.5 -15t-6.5 -14.5
t-7.5 -15t-7 -13q4 4 5 4q3 -3 -0.5 -14t-9.5 -24.5t-7 -16.5q-14 -45 -15 -62q-1 -15 3.5 -16t15.5 9q2 1 3 2q12 9 25 22l21.5 22l23 25t21.5 23l2 2q46 51 49 34zM321 224q4 11 12.5 32l12.5 31q-3 -8 -14 -25.5t-16.5 -31.5t-1.5 -25q0 -2 -1 -3q2 2 2 3q2 3 4 10.5
t2 8.5zM83 95q-3 15 26 96q-2 -4 -7.5 -17.5l-8 -19.5t-7 -20.5t-4 -20t0.5 -18.5zM239 193q2 6 4 9q-4 -3 -4 -9zM301 400q5 -33 -48 13q-8 7 -27.5 28t-31.5 29l-5 2.5t-4 2.5l-2.5 2.5t-1.5 3.5t0.5 5t2.5 7q1 2 4 3l3 1q1 1 0 3.5t1 3.5q10 11 26 13q24 1 35 -19
q3 -6 11.5 -18.5t11.5 -19.5q5 -10 14 -37q1 -2 3 -5t3.5 -5t2.5 -5.5t2 -6.5v-1z" />
    <glyph glyph-name="uacute" unicode="&#xfa;" horiz-adv-x="400" 
d="M473 244q1 -8 -21 -44q-16 -27 -52 -67q-2 -2 -11 -12t-13 -14l-13.5 -13.5t-15 -14t-15 -11.5t-16.5 -10.5t-16 -6t-18 -3.5q-38 -3 -57 29q-4 7 -6 15t-2.5 14.5t0.5 16.5t2 15.5t4.5 16t5 14.5t5.5 15.5t5 13.5l-76 -94q-11 -14 -49 -47.5t-44 -25.5l2 1l4 4l2 1
q-18 -11 -32 -11q1 -1 5 -1q2 -8 -28 5q-1 1 -2 1q-13 12 -19 40q-6 40 8 95q15 62 30 94q4 9 13.5 20.5t12.5 17.5q25 57 47 75q14 12 34 11t34 -12q5 -4 7.5 -7.5t2 -7t-1 -5.5t-4 -7.5t-4.5 -7.5q3 5 6 6q1 0 -4.5 -12t-13 -24t-9.5 -12q3 10 6 16q-18 -32 -36 -71
q3 4 6 4q-1 1 -17.5 -40.5l-23.5 -59.5q0 -1 -3.5 -11t-4.5 -16t-1.5 -13.5t3 -10t11.5 0.5q10 3 22.5 12.5t18.5 16t19.5 23t14.5 17.5q23 25 65 86q3 4 8.5 13l9 14.5t10 14.5t11 13t12.5 10.5t14 7.5t16 3.5t18 -2.5q9 -3 14.5 -7.5t7 -11t1 -13t-4.5 -15t-6.5 -14.5
t-7.5 -15t-7 -13q4 4 5 4q3 -3 -0.5 -14t-9.5 -24.5t-7 -16.5q-14 -45 -15 -62q-1 -15 3.5 -16t15.5 9q2 1 3 2q12 9 25 22l21.5 22l23 25t21.5 23l2 2q46 51 49 34zM321 224q4 11 12.5 32l12.5 31q-3 -8 -14 -25.5t-16.5 -31.5t-1.5 -25q0 -2 -1 -3q2 2 2 3q2 3 4 10.5
t2 8.5zM83 95q-3 15 26 96q-2 -4 -7.5 -17.5l-8 -19.5t-7 -20.5t-4 -20t0.5 -18.5zM239 193q2 6 4 9q-4 -3 -4 -9zM363 458q2 -1 -0.5 -5t-8 -9.5l-10.5 -10.5t-10 -9l-5 -5q-13 -14 -54 -46q-19 -14 -25 -9q-12 8 15 56l37 64q1 2 1 5.5t2 5t7 1.5q2 0 6.5 -0.5t7.5 -1.5h4
q20 -6 28 -18q1 -2 3 -9.5t2 -8.5z" />
    <glyph glyph-name="ucircumflex" unicode="&#xfb;" horiz-adv-x="400" 
d="M473 244q1 -8 -21 -44q-16 -27 -52 -67q-2 -2 -11 -12t-13 -14l-13.5 -13.5t-15 -14t-15 -11.5t-16.5 -10.5t-16 -6t-18 -3.5q-38 -3 -57 29q-4 7 -6 15t-2.5 14.5t0.5 16.5t2 15.5t4.5 16t5 14.5t5.5 15.5t5 13.5l-76 -94q-11 -14 -49 -47.5t-44 -25.5l2 1l4 4l2 1
q-18 -11 -32 -11q1 -1 5 -1q2 -8 -28 5q-1 1 -2 1q-13 12 -19 40q-6 40 8 95q15 62 30 94q4 9 13.5 20.5t12.5 17.5q25 57 47 75q14 12 34 11t34 -12q5 -4 7.5 -7.5t2 -7t-1 -5.5t-4 -7.5t-4.5 -7.5q3 5 6 6q1 0 -4.5 -12t-13 -24t-9.5 -12q3 10 6 16q-18 -32 -36 -71
q3 4 6 4q-1 1 -17.5 -40.5l-23.5 -59.5q0 -1 -3.5 -11t-4.5 -16t-1.5 -13.5t3 -10t11.5 0.5q10 3 22.5 12.5t18.5 16t19.5 23t14.5 17.5q23 25 65 86q3 4 8.5 13l9 14.5t10 14.5t11 13t12.5 10.5t14 7.5t16 3.5t18 -2.5q9 -3 14.5 -7.5t7 -11t1 -13t-4.5 -15t-6.5 -14.5
t-7.5 -15t-7 -13q4 4 5 4q3 -3 -0.5 -14t-9.5 -24.5t-7 -16.5q-14 -45 -15 -62q-1 -15 3.5 -16t15.5 9q2 1 3 2q12 9 25 22l21.5 22l23 25t21.5 23l2 2q46 51 49 34zM321 224q4 11 12.5 32l12.5 31q-3 -8 -14 -25.5t-16.5 -31.5t-1.5 -25q0 -2 -1 -3q2 2 2 3q2 3 4 10.5
t2 8.5zM83 95q-3 15 26 96q-2 -4 -7.5 -17.5l-8 -19.5t-7 -20.5t-4 -20t0.5 -18.5zM239 193q2 6 4 9q-4 -3 -4 -9zM342 498q3 -34 -1 -82q-1 -14 -9.5 -23.5t-22.5 -4.5q-33 12 -33 99l-13 -12.5l-14.5 -14t-12.5 -13.5q-30 -35 -57 -44q-16 -5 -12 7q6 20 31 46
q3 4 23 25.5l29.5 31.5t27.5 23t33 18q17 7 25 -11l3 -27q0 -1 -1 -4.5t0 -5.5q0 -1 2 -3t2 -5z" />
    <glyph glyph-name="udieresis" unicode="&#xfc;" horiz-adv-x="400" 
d="M473 244q1 -8 -21 -44q-16 -27 -52 -67q-2 -2 -11 -12t-13 -14l-13.5 -13.5t-15 -14t-15 -11.5t-16.5 -10.5t-16 -6t-18 -3.5q-38 -3 -57 29q-4 7 -6 15t-2.5 14.5t0.5 16.5t2 15.5t4.5 16t5 14.5t5.5 15.5t5 13.5l-76 -94q-11 -14 -49 -47.5t-44 -25.5l2 1l4 4l2 1
q-18 -11 -32 -11q1 -1 5 -1q2 -8 -28 5q-1 1 -2 1q-13 12 -19 40q-6 40 8 95q15 62 30 94q4 9 13.5 20.5t12.5 17.5q25 57 47 75q14 12 34 11t34 -12q5 -4 7.5 -7.5t2 -7t-1 -5.5t-4 -7.5t-4.5 -7.5q3 5 6 6q1 0 -4.5 -12t-13 -24t-9.5 -12q3 10 6 16q-18 -32 -36 -71
q3 4 6 4q-1 1 -17.5 -40.5l-23.5 -59.5q0 -1 -3.5 -11t-4.5 -16t-1.5 -13.5t3 -10t11.5 0.5q10 3 22.5 12.5t18.5 16t19.5 23t14.5 17.5q23 25 65 86q3 4 8.5 13l9 14.5t10 14.5t11 13t12.5 10.5t14 7.5t16 3.5t18 -2.5q9 -3 14.5 -7.5t7 -11t1 -13t-4.5 -15t-6.5 -14.5
t-7.5 -15t-7 -13q4 4 5 4q3 -3 -0.5 -14t-9.5 -24.5t-7 -16.5q-14 -45 -15 -62q-1 -15 3.5 -16t15.5 9q2 1 3 2q12 9 25 22l21.5 22l23 25t21.5 23l2 2q46 51 49 34zM321 224q4 11 12.5 32l12.5 31q-3 -8 -14 -25.5t-16.5 -31.5t-1.5 -25q0 -2 -1 -3q2 2 2 3q2 3 4 10.5
t2 8.5zM83 95q-3 15 26 96q-2 -4 -7.5 -17.5l-8 -19.5t-7 -20.5t-4 -20t0.5 -18.5zM239 193q2 6 4 9q-4 -3 -4 -9zM407 485q4 -19 1 -26h-1q-3 -18 -21 -36q8 6 9 6q3 -1 -13 -13.5t-23 -17.5q-11 -7 -20 -6q-3 1 -12 7t-7 7q2 2 3 0l-8 6q3 -4 4 -5l-8 8q-5 13 -4 21
q1 21 21 39q7 7 18.5 13.5t24 10.5t22.5 -0.5t12 -18.5q-1 15 -13 19.5t-26 1.5q29 10 41 -16zM267 496q3 0 3.5 -3t-1 -8.5t-3 -10t-3.5 -9.5l-2 -5q-9 -24 -29 -38q-22 -15 -25 -15q-8 -1 -19 8t-16 18q-13 24 19 59q3 3 10 7.5t9 6.5v4q0 3 4 5q3 2 6.5 2t7.5 -1t6 -1
l2 2q2 2 4 2q7 0 13 -3q11 -4 14 -20zM342 393q1 2 -0.5 2.5t-4 1t-4.5 1.5q2 -3 8 -5h1zM347 493q-1 2 0.5 3t5.5 2q-5 -5 -6 -5zM402 451v1q0 3 1 5q-1 -7 -5 -14zM406 468q0 8 -1 -1q-1 -3 -1 -5q0 2 2 6zM358 401q1 0 10 7zM383 420q1 0 3 2zM381 418q1 1 2 1zM366 501
q-1 0 -2 -1h-2h2q1 1 2 1z" />
    <glyph glyph-name="yacute" unicode="&#xfd;" horiz-adv-x="510" 
d="M583 239q1 -5 -0.5 -10t-5.5 -9l-6.5 -6.5t-8.5 -7t-8 -5.5l-87 -69q-51 -41 -92 -78q-1 -1 -18.5 -15t-23.5 -22t-12.5 -33.5t-7.5 -27.5q-2 -5 -15.5 -48.5l-17 -54.5t-16 -47.5t-19.5 -53.5l-19 -46t-24 -51.5t-25 -44.5q-1 -1 -9.5 -15t-10.5 -17t-10 -13.5
t-13.5 -14l-14.5 -9t-19 -7.5q-33 -9 -67 5t-55 43q-14 18 -16 39t8 43.5t19 37t25 36.5q66 87 97 120q25 26 79 76q6 6 21 18.5t26.5 24t17.5 22.5q9 18 20 58.5t13 45.5q8 28 26 84q-9 -7 -23.5 -25.5t-20.5 -24.5l-66 -66q-41 -43 -75 -57q-2 -1 -13 -5.5l-20 -8.5
l-10 -3l2 2l-6 -2q5 0 -4 -4t-12 -4q-17 -3 -32 5q-30 16 -34 55q-1 9 3 40t10 30q1 0 0.5 -3t0.5 -4q2 16 4 22l-2 -2q-1 0 0 5.5t4 15t6 20t7 22.5l7 21t6 17t3 9q23 58 25 61t6 7t6 7q1 1 4 6t4 7q8 18 26.5 26t36.5 1q9 -3 17 -12.5t6 -18.5q-1 -4 -5 -7.5t-5 -4.5h1
q1 1 2 1t-2 -8.5t-7.5 -16.5t-5.5 -8t2 12q-39 -81 -59 -143q38 97 42 96q1 0 -8 -20.5l-21 -49t-22 -59t-10.5 -52t13.5 -27.5q5 -2 11.5 0t14 7.5l13 9.5t13 10.5t8.5 7.5q70 55 83 68q-6 -3 -7 -3l13 15l25.5 30.5t16.5 19.5l18.5 18t23 25.5t12.5 22.5q3 9 4.5 13t7 8.5
t15.5 6.5q20 3 41 -6t24 -28q2 -13 -9 -31q-51 -84 -77 -157q92 78 141 115l26 20l26 20q34 30 41 18q2 -4 3 -10zM153 -280q28 64 78 207q-60 -56 -114 -125q-2 -3 -11.5 -14.5t-12 -15t-11 -14.5t-12 -16.5l-10 -15.5t-10.5 -17t-8.5 -16t-8 -17.5t-5.5 -17.5
q-2 -13 -2 -32t10.5 -33.5t28.5 -8.5t47 54q21 35 35 68q1 2 1 3t1 1v1l4 8v1zM211 -266q-4 -7 -13 -33l9 16q9 14 22 54q-13 -23 -18 -37zM245 -157q2 6 0 17q2 -10 -10 -36q-4 -6 -8 -25zM213 -242q2 2 4 6zM383 443q2 -1 -0.5 -5t-8 -9.5l-10.5 -10.5l-10 -10l-5 -4
q-13 -14 -54 -46q-19 -14 -25 -9q-12 8 15 56l37 64q1 2 1 5.5t2 5t7 1.5q2 0 6.5 -0.5t7.5 -0.5l4 -1q20 -6 28 -18q1 -2 3 -9.5t2 -8.5z" />
    <glyph glyph-name="ydieresis" unicode="&#xff;" horiz-adv-x="510" 
d="M583 239q1 -5 -0.5 -10t-5.5 -9l-6.5 -6.5t-8.5 -7t-8 -5.5l-87 -69q-51 -41 -92 -78q-1 -1 -18.5 -15t-23.5 -22t-12.5 -33.5t-7.5 -27.5q-2 -5 -15.5 -48.5l-17 -54.5t-16 -47.5t-19.5 -53.5l-19 -46t-24 -51.5t-25 -44.5q-1 -1 -9.5 -15t-10.5 -17t-10 -13.5
t-13.5 -14l-14.5 -9t-19 -7.5q-33 -9 -67 5t-55 43q-14 18 -16 39t8 43.5t19 37t25 36.5q66 87 97 120q25 26 79 76q6 6 21 18.5t26.5 24t17.5 22.5q9 18 20 58.5t13 45.5q8 28 26 84q-9 -7 -23.5 -25.5t-20.5 -24.5l-66 -66q-41 -43 -75 -57q-2 -1 -13 -5.5l-20 -8.5
l-10 -3l2 2l-6 -2q5 0 -4 -4t-12 -4q-17 -3 -32 5q-30 16 -34 55q-1 9 3 40t10 30q1 0 0.5 -3t0.5 -4q2 16 4 22l-2 -2q-1 0 0 5.5t4 15t6 20t7 22.5l7 21t6 17t3 9q23 58 25 61t6 7t6 7q1 1 4 6t4 7q8 18 26.5 26t36.5 1q9 -3 17 -12.5t6 -18.5q-1 -4 -5 -7.5t-5 -4.5h1
q1 1 2 1t-2 -8.5t-7.5 -16.5t-5.5 -8t2 12q-39 -81 -59 -143q38 97 42 96q1 0 -8 -20.5l-21 -49t-22 -59t-10.5 -52t13.5 -27.5q5 -2 11.5 0t14 7.5l13 9.5t13 10.5t8.5 7.5q70 55 83 68q-6 -3 -7 -3l13 15l25.5 30.5t16.5 19.5l18.5 18t23 25.5t12.5 22.5q3 9 4.5 13t7 8.5
t15.5 6.5q20 3 41 -6t24 -28q2 -13 -9 -31q-51 -84 -77 -157q92 78 141 115l26 20l26 20q34 30 41 18q2 -4 3 -10zM153 -280q28 64 78 207q-60 -56 -114 -125q-2 -3 -11.5 -14.5t-12 -15t-11 -14.5t-12 -16.5l-10 -15.5t-10.5 -17t-8.5 -16t-8 -17.5t-5.5 -17.5
q-2 -13 -2 -32t10.5 -33.5t28.5 -8.5t47 54q21 35 35 68q1 2 1 3t1 1v1l4 8v1zM211 -266q-4 -7 -13 -33l9 16q9 14 22 54q-13 -23 -18 -37zM245 -157q2 6 0 17q2 -10 -10 -36q-4 -6 -8 -25zM213 -242q2 2 4 6zM441 446q4 -19 1 -26h-1q-3 -18 -21 -36q8 6 9 6
q3 -1 -13 -13.5t-23 -17.5q-11 -7 -20 -6q-3 1 -12 7t-7 7t3 0l-8 6q3 -4 4 -5l-8 8q-5 13 -4 21q1 21 21 39q7 7 18.5 13.5t24 10.5t22.5 -0.5t12 -18.5q-1 15 -13 19.5t-26 1.5q29 10 41 -16zM301 457q3 0 3.5 -3t-1 -8.5t-3 -10t-3.5 -9.5l-2 -5q-9 -24 -29 -38
q-22 -15 -25 -15q-8 -1 -19 8t-16 18q-13 24 19 59q3 3 10 7.5t9 6.5v4t4 5q3 2 6.5 2t7.5 -1t6 -1l2 2q2 2 4 2q7 0 13 -3q11 -4 14 -20zM376 354q1 2 -0.5 2.5t-4 1t-4.5 1.5q2 -3 8 -5h1zM381 454q-1 2 0.5 3t5.5 2q-5 -5 -6 -5zM436 412v1q0 3 1 5q-1 -7 -5 -14z
M440 429q0 8 -1 -1q-1 -3 -1 -5q0 2 2 6zM392 362q1 0 10 7zM417 381q1 0 3 2zM415 379q1 1 2 1zM400 462h-2l-2 -1l2 1h2z" />
    </font>
</defs>
</svg>
