<?xml version="1.0" standalone="no"?>
<!DOCTYPE svg PUBLIC "-//W3C//DTD SVG 1.1//EN" "http://www.w3.org/Graphics/SVG/1.1/DTD/svg11.dtd" >
<svg xmlns="http://www.w3.org/2000/svg">
<metadata></metadata>
<defs>
<font id="caecilia_lt_std75_bold" horiz-adv-x="1214" >
<font-face units-per-em="2048" ascent="1575" descent="-473" />
<missing-glyph horiz-adv-x="606" />
<glyph unicode="&#xfb01;" horiz-adv-x="1290" d="M61 897v168h162l4 145q6 199 127.5 294t321.5 95q19 0 37 -0.5t36.5 -2t31 -2.5t32 -4t27.5 -4t29.5 -5t25.5 -5t27.5 -6t25.5 -5v-168q-101 22 -235 22q-249 0 -256 -233l-4 -121h624l-4 -897h144v-168h-512v168h139l4 729h-395l-4 -729h143v-168h-502v168h129l4 729 h-162z" />
<glyph unicode="&#xfb02;" horiz-adv-x="1327" d="M61 897v168h162l4 145q6 199 127.5 294t321.5 95q116 0 207 -24h235l-8 -1407h143v-168h-501v168h129l8 1227q-67 24 -187 24q-124 0 -183 -64.5t-62 -168.5l-4 -121h249v-168h-249l-4 -729h143v-168h-502v168h129l4 729h-162z" />
<glyph horiz-adv-x="2048" />
<glyph horiz-adv-x="2048" />
<glyph unicode="&#xd;" horiz-adv-x="2048" />
<glyph unicode=" "  horiz-adv-x="606" />
<glyph unicode="&#x09;" horiz-adv-x="606" />
<glyph unicode="&#xa0;" horiz-adv-x="606" />
<glyph unicode="!" horiz-adv-x="606" d="M145 127q0 66 46 112t112 46t112 -46t46 -112t-46 -112t-112 -46t-112 46t-46 112zM170 1575h266l-24 -1102h-217z" />
<glyph unicode="&#x22;" horiz-adv-x="985" d="M184 1485q0 47 34 80.5t81 33.5t81 -33.5t34 -80.5q0 -23 -2.5 -52t-8.5 -88.5t-10 -111.5l-20 -256q-3 -39 -24.5 -56.5t-49.5 -17.5t-49.5 17.5t-24.5 56.5l-20 256q-4 52 -10 111.5t-8.5 88.5t-2.5 52zM571 1485q0 47 34 80.5t81 33.5t81 -33.5t34 -80.5 q0 -23 -2.5 -52t-8.5 -88.5t-10 -111.5l-20 -256q-3 -39 -24.5 -56.5t-49.5 -17.5t-49.5 17.5t-24.5 56.5l-20 256q-4 52 -10 111.5t-8.5 88.5t-2.5 52z" />
<glyph unicode="#" horiz-adv-x="1212" d="M102 430v143h207l39 287h-186v144h207l61 430h143l-61 -430h268l62 430h143l-61 -430h186v-144h-207l-39 -287h187v-143h-207l-62 -430h-143l61 430h-268l-61 -430h-144l62 430h-187zM453 573h268l39 287h-268z" />
<glyph unicode="$" horiz-adv-x="1212" d="M59 1030q0 104 40.5 187t108 134.5t149.5 80t171 32.5l4 265h156l-4 -265q181 -5 379 -67v-318h-193v172q-103 35 -186 33l-4 -469l123 -35q88 -24 147 -51t108 -70.5t72 -108.5t23 -155q0 -186 -129 -296.5t-350 -129.5l-4 -250h-156l4 250q-133 0 -261.5 17.5 t-193.5 44.5v352h205v-203q114 -30 252 -30l4 483l-147 47q-149 40 -233.5 127.5t-84.5 222.5zM289 1065q0 -143 168 -188l67 -19l4 426q-111 -13 -172.5 -73t-66.5 -146zM674 150q123 13 186.5 72t63.5 157q0 45 -14 78.5t-41 56t-57 36t-73 25.5l-57 17z" />
<glyph unicode="%" horiz-adv-x="1705" d="M90 1128q0 142 94 239t250 97q144 0 234 -85t90 -246q0 -151 -91 -243.5t-243 -92.5q-151 0 -242.5 89.5t-91.5 241.5zM258 1130q2 -89 43.5 -139.5t122.5 -50.5q83 0 124.5 51t41.5 139q0 191 -166 191q-80 0 -124 -51.5t-42 -139.5zM303 -37l944 1587l133 -80 l-944 -1587zM948 301q0 142 94 239t250 97q144 0 234 -85.5t90 -246.5q0 -151 -91 -243.5t-243 -92.5q-151 0 -242.5 90t-91.5 242zM1116 303q2 -89 43.5 -139.5t122.5 -50.5q83 0 124.5 51t41.5 139q0 191 -166 191q-80 0 -124 -51.5t-42 -139.5z" />
<glyph unicode="&#x26;" horiz-adv-x="1554" d="M121 383q0 216 223 371l74 51l-60 65q-63 70 -92.5 130t-29.5 137q0 45 13.5 88.5t44.5 86t76 74.5t113.5 52t151.5 20q85 0 152 -25t106.5 -67t59.5 -93t20 -106q0 -56 -16 -103.5t-48 -86.5t-62.5 -66t-76.5 -61l-76 -57l371 -379q39 51 65.5 145.5t24.5 161.5h-139 v156h450v-156h-131q0 -112 -43 -236t-104 -194q107 -123 211 -123q40 0 67 6v-168q-40 -6 -94 -6q-81 0 -140.5 19t-113.5 75l-51 53q-83 -85 -186 -128.5t-271 -43.5q-114 0 -208.5 36t-154.5 94.5t-93 130.5t-33 147zM338 418q0 -113 85.5 -187.5t225.5 -74.5 q106 0 166 27t125 87l-403 414l-50 -33q-71 -47 -110 -101.5t-39 -131.5zM428 1149q0 -54 29 -101t84 -102l34 -37l43 29q75 48 118.5 96.5t43.5 114.5q0 68 -43 111t-123 43q-82 0 -134 -46t-52 -108z" />
<glyph unicode="'" horiz-adv-x="606" d="M188 1485q0 47 34 80.5t81 33.5t81 -33.5t34 -80.5q0 -23 -2.5 -52t-8.5 -88.5t-10 -111.5l-20 -256q-3 -39 -24.5 -56.5t-49.5 -17.5t-49.5 17.5t-24.5 56.5l-20 256q-4 52 -10 111.5t-8.5 88.5t-2.5 52z" />
<glyph unicode="(" horiz-adv-x="606" d="M98 530q0 291 99 563.5t254 483.5l32 43l156 -92l-29 -43q-122 -182 -196 -438.5t-74 -516.5q0 -544 260 -952l29 -45l-160 -92l-29 37q-150 199 -246 486.5t-96 565.5z" />
<glyph unicode=")" horiz-adv-x="606" d="M-33 -467l29 43q122 182 196 438t74 516q0 545 -260 953l-29 45l160 92l29 -37q150 -199 246 -487t96 -566q0 -292 -98.5 -563.5t-253.5 -482.5l-33 -43z" />
<glyph unicode="*" horiz-adv-x="720" d="M45 1165l236 95l-236 86l76 137l198 -152l-32 244h159l-38 -244l192 152l76 -137l-227 -86l227 -95l-76 -127l-192 150l38 -250h-159l32 250l-198 -150z" />
<glyph unicode="+" horiz-adv-x="1228" d="M96 434v168h434v434h168v-434h435v-168h-435v-434h-168v434h-434z" />
<glyph unicode="," horiz-adv-x="606" d="M92 -309l35 35q51 51 77.5 94.5t26.5 91.5q0 38 -16.5 73t-36.5 57.5t-36.5 53t-16.5 60.5q0 46 39.5 87.5t107.5 41.5q87 0 138 -72t51 -164q0 -95 -47 -203t-140 -190l-77 -68z" />
<glyph unicode="-" horiz-adv-x="833" d="M135 479v205h563v-205h-563z" />
<glyph unicode="." horiz-adv-x="606" d="M145 127q0 66 46 112t112 46t112 -46t46 -112t-46 -112t-112 -46t-112 46t-46 112z" />
<glyph unicode="/" horiz-adv-x="757" d="M-4 -109l614 1708l152 -57l-615 -1708z" />
<glyph unicode="0" horiz-adv-x="1212" d="M86 688q0 118 17 226t56.5 209.5t99 176t152 119.5t207.5 45q86 0 158 -24t123 -64.5t91.5 -98t65.5 -120t41 -135t22.5 -139t6.5 -135.5q0 -130 -17 -242t-57 -212.5t-101 -171t-153.5 -112t-209.5 -41.5q-502 0 -502 719zM328 692q0 -118 14 -212.5t44.5 -170.5 t84.5 -117.5t129 -41.5q77 0 134 45t89 125.5t47 179.5t15 219q0 284 -66 424.5t-205 140.5q-75 0 -131 -45t-89.5 -126.5t-49.5 -186.5t-16 -234z" />
<glyph unicode="1" horiz-adv-x="1212" d="M123 1135l487 299h181l-9 -1266h299v-168h-807v168h279l8 1051q-51 -48 -84 -68l-260 -172z" />
<glyph unicode="2" horiz-adv-x="1212" d="M96 0v168l56 43q52 41 77 61.5t88 73t101 87.5t98 93t98 102.5t83 104t71 109t43.5 105t17.5 104.5q0 103 -57.5 162t-179.5 59q-58 0 -105.5 -20t-75 -49.5t-46.5 -66t-26 -67t-7 -55.5h-230q0 40 10 85.5t31.5 97.5t61 98.5t92 85t131 61t172.5 22.5 q200 0 329.5 -107.5t129.5 -301.5q0 -70 -23.5 -145t-59 -139.5t-93 -137t-108 -127t-122.5 -120.5t-118.5 -105t-112.5 -93v-4q88 9 156 9h532v-193h-1014z" />
<glyph unicode="3" horiz-adv-x="1212" d="M111 1057q0 41 13 89.5t48.5 106.5t88.5 103.5t142.5 76.5t200.5 31q215 0 327.5 -99.5t112.5 -256.5q0 -144 -85 -231.5t-216 -116.5v-4q157 -11 258 -102.5t101 -245.5q0 -95 -34 -173.5t-102 -138.5t-181 -93.5t-261 -33.5q-101 0 -190.5 15.5t-127.5 29.5t-87 35v219 q198 -106 393 -106q72 0 132 12.5t110 40.5t78 77.5t28 117.5q0 59 -24 103t-60.5 69t-88 40.5t-96.5 20t-97 4.5h-82v168h26q64 0 124.5 14.5t116.5 44.5t90 86.5t34 131.5q0 89 -58 140.5t-157 51.5q-57 0 -102.5 -16.5t-72 -41.5t-44 -56.5t-23.5 -59t-6 -53.5h-229z" />
<glyph unicode="4" horiz-adv-x="1212" d="M51 401v181l598 852h279l-8 -852h270v-181h-270l-5 -233h170v-168h-536v168h151l5 233h-654zM274 578q70 4 105 4h326l4 628l-4 4z" />
<glyph unicode="5" horiz-adv-x="1212" d="M141 31v192q2 -1 32.5 -11.5t54 -16.5t63 -15t87 -13.5t99.5 -4.5q171 0 261.5 72t90.5 206q0 63 -23 111t-68 79t-99 52t-129.5 31t-144.5 14t-158 4h-37l8 703h830v-181h-600l-9 -342h35q66 0 131 -7.5t140 -25.5t138 -52t115.5 -82.5t82.5 -123t30 -167.5 q0 -213 -154.5 -348.5t-404.5 -135.5q-210 0 -371 62z" />
<glyph unicode="6" horiz-adv-x="1212" d="M102 635q0 133 22.5 249.5t76.5 225t135.5 185.5t207.5 123t285 46q116 0 218 -28l30 -11l-16 -180q-120 39 -232 39q-120 0 -208.5 -35t-146.5 -105.5t-91.5 -165.5t-50.5 -226l4 -4q134 155 334 155q198 0 319 -117t121 -315q0 -233 -134.5 -367.5t-357.5 -134.5 q-114 0 -204.5 40t-147.5 104.5t-95 153t-53.5 179.5t-15.5 189zM332 584q0 -192 75.5 -307t217.5 -115q120 0 188 85t68 208q0 51 -15.5 97.5t-46.5 85.5t-84 62t-121 23q-30 0 -57 -3.5t-50.5 -12t-40 -15t-36 -20.5t-28 -20.5t-26.5 -22.5t-22 -19z" />
<glyph unicode="7" horiz-adv-x="1212" d="M129 1241v193h954v-148l-448 -897q-114 -222 -217 -389h-254q93 126 215 362l291 566q107 213 178 313h-719z" />
<glyph unicode="8" horiz-adv-x="1212" d="M84 342q0 71 24 131.5t65 102.5t81 69t86 47l88 39v4q-56 18 -104 44.5t-92 67.5t-69.5 103t-25.5 137q0 164 125.5 270.5t358.5 106.5q222 0 345.5 -90.5t123.5 -259.5q0 -130 -82 -221t-215 -143v-5q47 -14 90 -34t89 -52.5t79.5 -72t55 -95.5t21.5 -120 q0 -402 -540 -402q-78 0 -148 11t-136.5 38t-114 68.5t-76.5 107t-29 148.5zM326 362q0 -95 71 -153.5t215 -58.5t215.5 61.5t71.5 161.5q0 40 -13 72t-40 56t-51 39t-64 35l-133 68l-90 -47q-182 -95 -182 -234zM367 1090q0 -78 44 -124.5t124 -86.5l83 -39l76 37 q166 81 166 221q0 94 -68 140t-178 46q-118 0 -182.5 -54t-64.5 -140z" />
<glyph unicode="9" horiz-adv-x="1212" d="M102 963q0 233 134 367t358 134q82 0 152 -20.5t122 -56.5t93.5 -87t69 -108.5t45.5 -124.5t26 -133t8 -135q0 -133 -22.5 -250t-76.5 -225t-135.5 -185.5t-207.5 -123.5t-285 -46q-111 0 -217 29l-31 10l17 180q117 -38 231 -38q120 0 208.5 35t147 105.5t92 165.5 t50.5 226l-4 4q-135 -156 -334 -156q-198 0 -319.5 117.5t-121.5 315.5zM332 979q0 -51 15.5 -97.5t46 -85.5t83.5 -62t121 -23q30 0 57 3.5t50.5 12t39.5 14.5t36 20.5t28 20t27 22.5t22 19l23 27q0 192 -75.5 307t-217.5 115q-120 0 -188 -85t-68 -208z" />
<glyph unicode=":" horiz-adv-x="606" d="M145 127q0 66 46 112t112 46t112 -46t46 -112t-46 -112t-112 -46t-112 46t-46 112zM145 932q0 66 46 112t112 46t112 -46t46 -112t-46 -112t-112 -46t-112 46t-46 112z" />
<glyph unicode=";" horiz-adv-x="606" d="M92 -309l35 35q51 51 77.5 94.5t26.5 91.5q0 38 -16.5 73t-36.5 57.5t-36.5 53t-16.5 60.5q0 46 39.5 87.5t107.5 41.5q87 0 138 -72t51 -164q0 -95 -47 -203t-140 -190l-77 -68zM141 932q0 66 46 112t112 46t112 -46t46 -112t-46 -112t-112 -46t-112 46t-46 112z" />
<glyph unicode="&#x3c;" horiz-adv-x="1228" d="M96 440v156l1037 463v-168l-832 -373l832 -373v-168z" />
<glyph unicode="=" horiz-adv-x="1228" d="M96 238v168h1037v-168h-1037zM96 631v168h1037v-168h-1037z" />
<glyph unicode="&#x3e;" horiz-adv-x="1228" d="M96 -23v168l832 373l-832 373v168l1037 -463v-156z" />
<glyph unicode="?" horiz-adv-x="985" d="M123 1556q134 43 287 43q228 0 352.5 -103t124.5 -271q0 -106 -55 -198.5t-162 -162.5l-189 -121q-51 -33 -69.5 -58t-18.5 -67q0 -48 41 -94l12 -12l-202 -76l-17 21q-63 86 -63 174q0 41 16 78.5t38 64.5t61 57.5t67 48t74 44.5q117 66 165 129.5t48 154.5 q0 95 -79.5 153t-193.5 58q-130 0 -225 -43zM166 127q0 66 46 112t112 46t111.5 -46t45.5 -112t-45.5 -112t-111.5 -46t-112 46t-46 112z" />
<glyph unicode="@" horiz-adv-x="1638" d="M78 719q0 155 56.5 291t157 235t245.5 156t315 57q199 0 360.5 -76t255 -216t93.5 -318q0 -114 -34.5 -212t-89 -162.5t-122.5 -110.5t-134.5 -66.5t-125.5 -20.5q-72 0 -107 32.5t-37 86.5h-4q-45 -51 -108 -85t-137 -34q-118 0 -196.5 89.5t-78.5 234.5q0 140 62 265 t164.5 199.5t215.5 74.5q153 0 232 -156l37 117h145l-139 -500q-33 -115 -33 -137t15 -32.5t53 -10.5q83 0 162 122t79 281q0 103 -43 191t-115.5 148t-168.5 94t-201 34q-170 0 -307.5 -80.5t-212 -212.5t-74.5 -286q0 -127 47 -235t126.5 -180t184.5 -112.5t220 -40.5 q320 0 493 168h168q-81 -152 -253 -244t-408 -92q-158 0 -296.5 51t-241 145t-161.5 235.5t-59 312.5zM555 618q0 -89 41 -137.5t113 -48.5q81 0 150 61.5t104.5 145t35.5 158.5q0 186 -161 186q-79 0 -146 -56.5t-102 -140t-35 -168.5z" />
<glyph unicode="A" horiz-adv-x="1554" d="M25 0v168h122l521 1266h254l481 -1266h127v-168h-524v168h131l-123 356h-504l-133 -356h147v-168h-499zM575 705h379l-141 405q-25 68 -37 131h-4q-14 -68 -39 -131z" />
<glyph unicode="B" horiz-adv-x="1290" d="M80 0v168h143l8 1098h-151v168h571q119 0 194 -17.5t138 -64.5q55 -39 92 -112t37 -159q0 -130 -76.5 -223.5t-208.5 -103.5v-4h5q94 0 176 -40q84 -41 137 -122t53 -187q0 -187 -132 -294t-386 -107h-600zM455 168h188q134 0 217.5 60t83.5 182q0 113 -83.5 173 t-205.5 60h-196zM459 823h155q118 0 187 60.5t69 169.5q0 130 -96 186q-48 27 -162 27h-149z" />
<glyph unicode="C" horiz-adv-x="1402" d="M84 702q0 166 54.5 306t154 239.5t245.5 155t322 55.5q126 0 246.5 -23t200.5 -55v-366h-205v229q-133 35 -244 35q-254 0 -387 -148t-133 -419q0 -246 135 -400.5t354 -154.5q150 0 256 20l9 258h204l-8 -391q-78 -26 -203 -47t-243 -21q-188 0 -334.5 56t-238 155 t-138.5 230t-47 286z" />
<glyph unicode="D" horiz-adv-x="1593" d="M80 0v168h145l8 1098h-153v168h680q342 0 533.5 -184.5t191.5 -499.5q0 -159 -49.5 -296t-141 -238t-230 -158.5t-306.5 -57.5h-678zM455 168h229q261 0 404 150.5t143 420.5q0 246 -138.5 386.5t-398.5 140.5h-231z" />
<glyph unicode="E" d="M80 1266v168h1007l9 -377h-191l-12 209h-416l-4 -443h410v-180h-410l-4 -475h436l17 233h192l-16 -401h-1004v168h144l8 1098h-166z" />
<glyph unicode="F" horiz-adv-x="1175" d="M80 1266v168h1007l9 -377h-191l-12 209h-416l-4 -443h447v-180h-447l-4 -475h176v-168h-551v168h144l8 1098h-166z" />
<glyph unicode="G" horiz-adv-x="1478" d="M84 702q0 166 54.5 306t154 239.5t245.5 155t322 55.5q119 0 244 -23t203 -55v-366h-205v229q-133 35 -244 35q-254 0 -387 -148t-133 -419q0 -246 135 -400.5t354 -154.5q132 0 244 28l4 316h-164v168h529v-168h-148l-4 -457q-75 -27 -201 -47.5t-237 -20.5 q-191 0 -339 56t-240.5 155t-139.5 229.5t-47 286.5z" />
<glyph unicode="H" horiz-adv-x="1593" d="M84 0v168h143l9 1098h-152v168h528v-168h-145l-4 -457h665l5 457h-152v168h528v-168h-145l-8 -1098h153v-168h-528v168h143l4 461h-665l-4 -461h153v-168h-528z" />
<glyph unicode="I" horiz-adv-x="720" d="M96 0v168h146l8 1098h-154v168h529v-168h-146l-8 -1098h154v-168h-529z" />
<glyph unicode="J" horiz-adv-x="681" d="M-94 -223l71 41q60 34 105.5 75.5t74 89.5t47 94t27 103.5t11.5 102.5t4 106l8 877h-158v168h529v-168h-142l-8 -863q-2 -162 -22.5 -274t-72 -201t-130 -153.5t-203.5 -128.5l-67 -35z" />
<glyph unicode="K" horiz-adv-x="1441" d="M80 0v168h141l8 1098h-149v168h526v-168h-145l-4 -502l567 502h-158v168h537v-168h-115l-590 -516l607 -582h118v-168h-573v168h149l-542 520l-4 -520h153v-168h-526z" />
<glyph unicode="L" d="M80 0v168h145l8 1098h-153v168h528v-168h-145l-8 -1098h426l20 242h193l-21 -410h-993z" />
<glyph unicode="M" horiz-adv-x="1933" d="M61 1266v168h471l414 -1067q9 -25 33 -117h4q24 92 33 117l409 1067h447v-168h-164l8 -1098h156v-168h-522v168h141l8 969l-6 4q-6 -20 -15.5 -60t-19 -72t-20.5 -59l-367 -950h-229l-359 913q-13 32 -23.5 67t-22.5 84.5t-17 68.5h-4l-8 -965h161v-168h-499v168h145 l8 1098h-162z" />
<glyph unicode="N" horiz-adv-x="1630" d="M55 1266v168h377l664 -867q55 -73 143 -215h4l-8 914h-160v168h500v-168h-139l-9 -1266h-186l-717 930q-71 92 -100 151l-4 -4l8 -909h158v-168h-498v168h139l9 1098h-181z" />
<glyph unicode="O" horiz-adv-x="1554" d="M84 692q0 224 88 397.5t253 271t382 97.5q310 0 486.5 -192t176.5 -525q0 -116 -26.5 -225.5t-83 -208t-137.5 -172t-199 -117t-258 -43.5q-314 0 -498 193.5t-184 523.5zM338 702q0 -107 26.5 -201.5t78 -169.5t137 -119t194.5 -44q78 0 143.5 21t110.5 55.5t79.5 83 t54.5 98.5t33 107t17.5 103.5t4.5 92.5q0 82 -11.5 154.5t-41 144.5t-76 123t-122 83t-173.5 32q-93 0 -173 -33t-144 -98.5t-101 -176.5t-37 -256z" />
<glyph unicode="P" d="M80 0v168h145l8 1098h-153v168h541q140 0 212 -14.5t130 -49.5q86 -52 135 -144t49 -208q0 -119 -55.5 -223.5t-145.5 -157.5q-66 -38 -126.5 -53t-151.5 -15h-211l-4 -401h176v-168h-549zM457 737h161q148 0 217.5 73.5t69.5 199.5q0 121 -80 194q-42 36 -96.5 49 t-140.5 13h-127z" />
<glyph unicode="Q" horiz-adv-x="1554" d="M84 692q0 224 88 397.5t253 271t382 97.5q310 0 486.5 -192t176.5 -525q0 -121 -29.5 -234.5t-86.5 -213t-150.5 -175t-212.5 -112.5v-4q53 -5 92.5 -17t98.5 -42l190 -97q108 -55 225 -55q65 0 99 12v-180q-86 -12 -133 -12q-91 0 -168 20.5t-205 85.5l-287 146 q-19 10 -73.5 40t-91 47.5t-66.5 24.5q-273 32 -430.5 223t-157.5 494zM338 702q0 -107 26.5 -201.5t78 -169.5t137 -119t194.5 -44q78 0 143.5 21t110.5 55.5t79.5 83t54.5 98.5t33 107t17.5 103.5t4.5 92.5q0 82 -11.5 154.5t-41 144.5t-76 123t-122 83t-173.5 32 q-93 0 -173 -33t-144 -98.5t-101 -176.5t-37 -256z" />
<glyph unicode="R" horiz-adv-x="1327" d="M80 0v168h141l8 1098h-149v168h637q108 0 192 -29.5t136 -82t79 -120t27 -147.5q0 -90 -27.5 -161t-75.5 -115.5t-108 -70t-131 -32.5v-4q55 -4 97 -44t85 -112l156 -262q29 -48 59 -67t68 -19h53v-168h-133q-51 0 -81 4t-62 19.5t-59 46t-58 82.5l-197 333 q-44 76 -75 100.5t-82 24.5h-123l-4 -442h165v-168h-538zM457 791h178q124 0 199 63t75 176t-67 174.5t-191 61.5h-190z" />
<glyph unicode="S" horiz-adv-x="1251" d="M109 51v346h229v-190q37 -20 108.5 -35.5t151.5 -15.5q140 0 221.5 61t81.5 174q0 83 -51 126t-172 77l-254 72q-67 19 -119 46.5t-97.5 70.5t-70 107.5t-24.5 147.5q0 137 73 233.5t193 141.5t274 45q86 0 174 -12t137.5 -24t122.5 -33v-318h-217v172q-90 35 -215 35 q-151 0 -226 -58.5t-75 -148.5q0 -87 55.5 -130t165.5 -71l222 -57q55 -14 99.5 -32t92.5 -49.5t80 -71.5t53 -99.5t21 -132.5q0 -213 -147.5 -333t-403.5 -120q-93 0 -245.5 21.5t-237.5 54.5z" />
<glyph unicode="T" horiz-adv-x="1402" d="M43 1057l8 377h1301l8 -377h-205l-8 209h-328l-8 -1098h166v-168h-543v168h148l8 1098h-334l-8 -209h-205z" />
<glyph unicode="U" horiz-adv-x="1554" d="M61 1266v168h525v-168h-146l-2 -719q0 -70 3.5 -113.5t22 -97.5t54.5 -88q49 -45 106.5 -62.5t149.5 -17.5q108 0 168.5 17t108.5 65q47 47 63.5 113.5t18.5 177.5l4 725h-168v168h524v-168h-137l-4 -770q0 -267 -160 -404q-67 -57 -178.5 -87t-241.5 -30q-157 0 -258 29 t-172 90q-75 63 -104 157t-29 243q0 276 4 772h-152z" />
<glyph unicode="V" horiz-adv-x="1517" d="M10 1266v168h537v-168h-146l342 -949q9 -24 33 -124h4q24 100 33 124l336 949h-166v168h524v-168h-129l-491 -1266h-254l-498 1266h-125z" />
<glyph unicode="W" horiz-adv-x="2275" d="M16 1266v168h537v-168h-143l309 -924q9 -28 23 -81t18 -68h4q3 10 16.5 65.5t24.5 83.5l254 692l-78 232h-139v168h524v-168h-143l280 -906q9 -31 39 -167h4q5 17 21 76t26 91l312 906h-158v168h512v-168h-125l-477 -1266h-254l-246 760h-4l-287 -760h-254l-469 1266 h-127z" />
<glyph unicode="X" horiz-adv-x="1441" d="M33 0v168h119l440 551l-402 547h-135v168h561v-168h-153q18 -18 39 -45l246 -336l264 332q16 20 45 49h-156v168h475v-168h-108l-412 -527l424 -571h129v-168h-561v168h147q-25 25 -41 49l-254 356l-270 -356q-18 -24 -43 -49h145v-168h-499z" />
<glyph unicode="Y" horiz-adv-x="1478" d="M8 1266v168h524v-168h-139q25 -25 41 -49l330 -449l326 449q12 18 43 49h-162v168h499v-168h-127l-483 -674l-8 -424h152v-168h-525v168h144l8 424l-498 674h-125z" />
<glyph unicode="Z" horiz-adv-x="1327" d="M90 0v160l811 1057q20 27 45 49h-590l-16 -207h-205l17 375h1073v-172l-801 -1045q-18 -24 -43 -49h635l16 207h205l-16 -375h-1131z" />
<glyph unicode="[" horiz-adv-x="606" d="M164 -514l8 2089h410v-168h-193l-8 -1753h192v-168h-409z" />
<glyph unicode="\" horiz-adv-x="757" d="M-4 1542l151 57l615 -1708l-152 -57z" />
<glyph unicode="]" horiz-adv-x="606" d="M25 -346h192l8 1753h-192v168h409l-8 -2089h-409v168z" />
<glyph unicode="^" horiz-adv-x="1228" d="M176 686l373 748h131l373 -748h-168l-271 543l-270 -543h-168z" />
<glyph unicode="_" horiz-adv-x="1024" d="M0 -154h1024v-102h-1024v102z" />
<glyph unicode="`" horiz-adv-x="569" d="M-61 1516l122 114l414 -344l-129 -98z" />
<glyph unicode="a" d="M119 281q0 58 17 106t43.5 80t66 57t78 39.5t87.5 24t86 13t81 5.5l219 12v80q0 108 -52 166t-184 58q-100 0 -192 -37v-156h-205v264q39 19 62 28t81.5 29t129 30t149.5 10q116 0 197.5 -27.5t128.5 -82.5t68 -127.5t21 -170.5t-3.5 -277t-4.5 -237h144v-168h-338 q0 113 18 221h-4q-19 -51 -44 -90.5t-65.5 -77t-102.5 -58t-142 -20.5q-91 0 -160 28t-106.5 75t-55.5 98t-18 105zM348 299q0 -62 45.5 -102.5t124.5 -40.5q127 0 201 80.5t74 189.5v43q-71 -1 -117 -2.5t-103 -7t-92.5 -17t-68.5 -29.5t-48.5 -47t-15.5 -67z" />
<glyph unicode="b" horiz-adv-x="1251" d="M8 1407v168h402l-9 -506q-2 -72 -18 -225h4q16 43 44 83t71.5 78.5t108.5 61.5t141 23q205 0 318.5 -132.5t113.5 -351.5q0 -100 -18 -188t-62 -170.5t-111 -142t-172.5 -95t-238.5 -35.5q-125 0 -218.5 21.5t-191.5 60.5l8 1350h-172zM397 213q97 -45 211 -45 q88 0 154 34.5t104.5 94.5t57 133.5t18.5 159.5q0 143 -66 225t-194 82q-130 0 -201.5 -85.5t-74.5 -219.5z" />
<glyph unicode="c" horiz-adv-x="1024" d="M74 526q0 252 150.5 408t422.5 156q177 0 303 -56v-301h-192v158q-59 18 -135 18q-153 0 -236.5 -100.5t-83.5 -259.5q0 -73 19 -137.5t60.5 -121t116.5 -89.5t177 -33q74 0 152 18.5t120 42.5l-12 -198q-134 -56 -291 -56q-123 0 -222.5 32t-163 85t-106.5 125.5 t-61 149t-18 159.5z" />
<glyph unicode="d" horiz-adv-x="1290" d="M74 481q0 177 66.5 314t197 216t307.5 79q98 0 211 -25l4 342h-194v168h415l-8 -1407h144v-168h-361q0 89 21 217h-5q-43 -112 -132.5 -177t-221.5 -65q-196 0 -320 136.5t-124 369.5zM315 516q0 -155 66.5 -251.5t191.5 -96.5q136 0 205.5 104.5t69.5 294.5v297 q-73 45 -203 45q-102 0 -178.5 -55t-114 -143.5t-37.5 -194.5z" />
<glyph unicode="e" horiz-adv-x="1138" d="M74 528q0 119 33.5 221t98 178t164.5 119.5t226 43.5q156 0 265.5 -73t162.5 -198.5t53 -292.5v-30h-762q1 -154 103 -247t262 -93q181 0 342 82l-12 -189q-177 -74 -375 -74q-262 1 -411.5 151t-149.5 402zM315 651h521v21q0 29 -7 60t-25.5 65.5t-46 62t-72.5 45 t-101 17.5q-70 0 -122.5 -23.5t-82.5 -64t-45.5 -86t-18.5 -97.5z" />
<glyph unicode="f" horiz-adv-x="720" d="M61 897v168h162l4 145q6 199 127.5 294t321.5 95q78 0 207 -24l-9 -180q-58 24 -172 24q-124 0 -183 -64.5t-62 -168.5l-4 -121h249v-168h-249l-4 -729h163v-168h-522v168h129l4 729h-162z" />
<glyph unicode="g" horiz-adv-x="1175" d="M68 -256q0 103 71 170.5t176 81.5v4q-67 13 -111 52t-44 106q0 52 33 91t76 57t93 26v4q-39 11 -74 27t-72 44.5t-63.5 65t-43.5 91.5t-17 120q0 178 126.5 292t348.5 114q81 0 189 -25h393l-8 -168l-205 12q24 -27 39.5 -50t32 -72.5t16.5 -108.5q0 -110 -60.5 -198 t-158.5 -134.5t-213 -46.5h-86q-43 0 -80 -25t-37 -55q0 -34 36.5 -47.5t143.5 -28.5l279 -39q61 -8 108 -24t87.5 -44.5t62.5 -76t22 -111.5q0 -104 -47.5 -181.5t-129.5 -121t-178 -64t-206 -20.5q-220 0 -359.5 77t-139.5 206zM285 -209q0 -162 305 -162q61 0 115.5 9 t102 29t75.5 56t28 84q0 55 -44.5 81t-145.5 40l-266 41q-84 -36 -127 -78t-43 -100zM309 690q0 -223 271 -223q120 0 185.5 62t65.5 169t-69.5 165.5t-194.5 58.5q-119 0 -188.5 -64t-69.5 -168z" />
<glyph unicode="h" horiz-adv-x="1366" d="M74 1407v168h391l-6 -510q0 -62 -27 -236h4q35 113 130 187t245 74q184 0 277.5 -108.5t93.5 -303.5q0 -97 -3.5 -275t-4.5 -235h139v-168h-490v168h121q1 52 4.5 216t3.5 253q0 117 -55 188.5t-160 71.5q-120 0 -198.5 -88.5t-81.5 -235.5l-8 -405h143v-168h-494v168 h121l8 1239h-153z" />
<glyph unicode="i" horiz-adv-x="645" d="M61 897v168h392l-4 -897h143v-168h-512v168h139l4 729h-162zM180 1442q0 66 46 111.5t112 45.5t112 -45.5t46 -111.5t-46 -112t-112 -46t-112 46t-46 112z" />
<glyph unicode="j" horiz-adv-x="681" d="M-150 -356q146 35 223.5 102.5t111 193t34.5 349.5l4 608h-162v168h392l-4 -866q-2 -325 -145 -513.5t-425 -224.5zM180 1442q0 66 46 111.5t112 45.5t112 -45.5t46 -111.5t-46 -112t-112 -46t-112 46t-46 112z" />
<glyph unicode="k" horiz-adv-x="1251" d="M41 1407v168h416l-8 -973l376 291v4h-151v168h500v-168h-107l-381 -315l412 -414h121v-168h-512v168h124l-382 373v-373h129v-168h-488v168h129l8 1239h-186z" />
<glyph unicode="l" horiz-adv-x="645" d="M41 1407v168h416l-8 -1407h143v-168h-502v168h129l8 1239h-186z" />
<glyph unicode="m" horiz-adv-x="2048" d="M74 897v168h379q0 -101 -21 -236h4q32 119 132 190t233 71q149 0 230 -67t97 -175h5q36 116 132 179t232 63q181 0 274 -108.5t93 -303.5q0 -255 -9 -510h140v-168h-490v168h121q8 208 8 469q0 117 -55 188.5t-160 71.5q-117 0 -187 -87.5t-73 -236.5l-4 -405h135v-168 h-481v168h117l4 428v11q0 290 -213 290q-107 0 -185 -90t-79 -234l-4 -405h143v-168h-494v168h121l4 729h-149z" />
<glyph unicode="n" horiz-adv-x="1366" d="M74 897v168h379q0 -101 -21 -236h4q35 113 130 187t245 74q184 0 277.5 -108.5t93.5 -303.5q0 -97 -3.5 -275t-4.5 -235h139v-168h-490v168h121q1 52 4.5 216t3.5 253q0 117 -55 188.5t-160 71.5q-120 0 -198.5 -88.5t-81.5 -235.5l-8 -405h143v-168h-494v168h121l4 729 h-149z" />
<glyph unicode="o" d="M68 510q0 259 155.5 419.5t401.5 160.5q114 0 205 -34t149 -89t97 -129.5t55 -152t16 -159.5q0 -115 -35 -214t-102 -175t-173 -119t-239 -43q-111 0 -201 30t-150.5 80.5t-101.5 119.5t-59 145.5t-18 159.5zM309 518q0 -94 29.5 -170.5t98 -128t167.5 -51.5 q101 0 170.5 53t100 137.5t30.5 192.5q0 172 -78.5 259t-205.5 87q-82 0 -144 -32t-97.5 -87.5t-53 -120.5t-17.5 -139z" />
<glyph unicode="p" horiz-adv-x="1290" d="M53 897v168h367q0 -89 -21 -217h4q43 112 133 177t222 65q197 0 321.5 -136.5t124.5 -369.5q0 -132 -38.5 -243.5t-110.5 -193t-181 -127t-243 -45.5q-123 0 -211 35l-4 -356h170v-168h-510v168h119l8 1243h-150zM428 201q73 -45 205 -45q102 0 178.5 55t114 143.5 t37.5 194.5q0 155 -66.5 251.5t-191.5 96.5q-137 0 -207 -104.5t-70 -294.5v-297z" />
<glyph unicode="q" horiz-adv-x="1290" d="M74 459q0 100 18 188t62 170.5t111 142t172.5 95t238.5 35.5q125 0 217.5 -21.5t193.5 -60.5l-8 -1354h152v-168h-512v168h131l4 342q0 45 9.5 126.5t10.5 98.5h-4q-16 -43 -44 -83t-71 -78.5t-108 -61.5t-141 -23q-205 0 -318.5 132.5t-113.5 351.5zM315 475 q0 -143 66 -225t194 -82q129 0 201.5 86t75.5 219l8 379q-97 45 -211 45q-88 0 -154 -34.5t-104.5 -94.5t-57 -133.5t-18.5 -159.5z" />
<glyph unicode="r" horiz-adv-x="872" d="M61 897v168h379q0 -189 -12 -295l4 -4q31 151 113 235t198 84q84 0 129 -18l-24 -203q-49 17 -105 17q-73 0 -130 -32.5t-91 -88t-51 -121.5t-18 -139l-4 -332h155v-168h-514v168h129l4 729h-162z" />
<glyph unicode="s" horiz-adv-x="1062" d="M90 754q0 73 25 131t67 95.5t101 63t123 36t137 10.5q36 0 71 -2.5t68.5 -8t58.5 -10.5t56 -13.5t44.5 -12.5t41 -13t30.5 -10l5 -260h-205l-4 127q-64 35 -174 35q-216 0 -216 -129q0 -55 36.5 -80.5t99.5 -38.5l260 -51q54 -11 93 -26.5t80 -47t63 -87t22 -132.5 q0 -81 -27.5 -144.5t-72 -102.5t-108 -64t-129 -34.5t-140.5 -9.5q-213 0 -387 64l-5 289h205l4 -142l35 -11q34 -11 53 -15.5t59.5 -10.5t80.5 -6q91 0 153 37t62 113q0 62 -40 91.5t-114 43.5l-170 31q-56 11 -99.5 23.5t-91 35.5t-79 53t-52 77t-20.5 106z" />
<glyph unicode="t" horiz-adv-x="757" d="M61 897v168h162l4 240l232 16l-8 -256h305v-168h-305q-5 -425 -5 -498q0 -142 34 -192.5t116 -50.5q73 0 178 41l-8 -168q-106 -54 -236 -54q-170 0 -241.5 74.5t-71.5 253.5q0 42 6 594h-162z" />
<glyph unicode="u" horiz-adv-x="1366" d="M74 897v168h370q-8 -422 -8 -637q0 -117 54 -188.5t155 -71.5q117 0 195.5 89t79.5 235l4 405h-140v168h369l-4 -897h143v-168h-368q0 107 20 236h-4q-32 -116 -138 -188.5t-235 -72.5q-169 0 -264.5 109.5t-95.5 298.5q0 287 8 514h-141z" />
<glyph unicode="v" horiz-adv-x="1175" d="M-6 897v168h475v-168h-115l211 -575q8 -25 20 -71.5t15 -57.5h4q3 13 8.5 41t11 49t11.5 39l207 575h-135v168h475v-168h-111l-362 -897h-242l-367 897h-106z" />
<glyph unicode="w" horiz-adv-x="1820" d="M10 897v168h475v-168h-120l196 -541q14 -38 45 -151h4q32 102 52 151l167 400l-51 141h-119v168h476v-168h-127l194 -549q9 -25 39 -143h4q30 118 39 143l201 549h-150v168h475v-168h-108l-359 -897h-241l-150 418q-9 23 -32 114h-5q-23 -91 -32 -114l-174 -418h-230 l-356 897h-113z" />
<glyph unicode="x" horiz-adv-x="1290" d="M61 0v168h117l338 369l-313 360h-123v168h512v-168h-129q14 -12 39 -37l170 -198l176 198q19 22 41 33v4h-139v168h450v-168h-113l-317 -336l340 -393h119v-168h-512v168h133q-27 24 -39 37l-190 221l-203 -221q-19 -22 -41 -33v-4h147v-168h-463z" />
<glyph unicode="y" d="M-6 897v168h487v-168h-119l205 -547q12 -32 29 -95t18 -65h4q11 50 48 160l188 547h-139v168h450v-168h-106l-324 -891q-108 -296 -168 -375q-131 -170 -366 -170q-83 0 -146 23v180q52 -22 150 -22q42 0 76.5 11t72.5 39t73 85.5t67 142.5l8 23l-393 954h-115z" />
<glyph unicode="z" horiz-adv-x="1099" d="M82 0v168l590 674q14 16 59 55h-414l-16 -158h-192l16 326h885v-172l-578 -653q-14 -16 -74 -72h451l16 164h193l-17 -332h-919z" />
<glyph unicode="{" horiz-adv-x="606" d="M41 453v155q78 3 135 73t57 165v424q0 142 77 223.5t184 81.5h129v-156h-56q-64 0 -90 -39t-26 -116v-418q0 -122 -62 -204t-156 -110v-4q94 -28 156 -109.5t62 -203.5v-418q0 -77 26 -116t90 -39h56v-156h-129q-107 0 -184 81.5t-77 223.5v424q0 95 -57 165t-135 73z " />
<glyph unicode="|" horiz-adv-x="454" d="M143 -512v2048h168v-2048h-168z" />
<glyph unicode="}" horiz-adv-x="606" d="M-16 -358h55q64 0 90.5 39t26.5 116v418q0 122 61.5 203.5t155.5 109.5v4q-94 28 -155.5 109.5t-61.5 204.5v418q0 77 -26.5 116t-90.5 39h-55v156h129q107 0 183.5 -81.5t76.5 -223.5v-424q0 -95 57 -165t135 -73v-155q-78 -3 -135 -73t-57 -165v-424 q0 -142 -76.5 -223.5t-183.5 -81.5h-129v156z" />
<glyph unicode="~" horiz-adv-x="1228" d="M141 500q91 174 256 174q86 0 234 -72q9 -4 36.5 -17t38 -17.5t33 -14t35.5 -13t29.5 -7t30.5 -3.5q29 0 54.5 12t50.5 40t37 45.5t38 56.5l73 -147q-92 -175 -256 -175q-35 0 -79.5 12t-73.5 24.5t-80 35.5q-144 72 -203 72q-29 0 -54.5 -12t-50.5 -40t-37 -45.5 t-38 -56.5z" />
<glyph unicode="&#xa1;" horiz-adv-x="606" d="M145 932q0 66 46 112t112 46t112 -46t46 -112t-46 -112t-112 -46t-112 46t-46 112zM170 -514l25 1102h217l24 -1102h-266z" />
<glyph unicode="&#xa2;" horiz-adv-x="1212" d="M121 526q0 148 53 267t160.5 196.5t257.5 91.5l4 213h156l-4 -204q94 0 192.5 -19.5t138.5 -36.5v-301h-180v158q-83 18 -151 18l-5 -741q83 1 170 19.5t140 41.5l-13 -198q-166 -50 -297 -56l-4 -249h-155l4 249q-100 12 -181 50t-133.5 91.5t-87.5 122.5t-50 140 t-15 147zM350 549q0 -140 56.5 -242.5t181.5 -138.5l4 733q-60 -6 -107.5 -38t-76 -82t-43.5 -109t-15 -123z" />
<glyph unicode="&#xa3;" horiz-adv-x="1212" d="M61 0v168h156q55 68 55 254q0 127 -10 237h-184v168h178q-8 78 -8 183q0 219 140.5 336.5t387.5 117.5q216 0 357 -57v-371h-193v226q-102 22 -168 22q-82 0 -142 -23.5t-92 -65t-46.5 -88.5t-14.5 -103q0 -83 8 -177h279v-168h-272q1 -19 5.5 -89t4.5 -115 q0 -216 -68 -287h496l12 233h193l-13 -401h-1061z" />
<glyph unicode="&#xa4;" horiz-adv-x="1212" d="M88 295l115 115q-105 134 -105 307q0 174 105 307l-115 115l94 94l115 -115q132 107 309 107t309 -107l115 115l94 -94l-114 -115q104 -132 104 -307t-104 -307l114 -115l-94 -94l-115 114q-134 -106 -309 -106t-309 106l-115 -114zM266 717q0 -154 98 -259.5t242 -105.5 t242 105.5t98 259.5t-98 259t-242 105t-242 -105t-98 -259z" />
<glyph unicode="&#xa5;" horiz-adv-x="1212" d="M6 1266v168h438v-168h-118l301 -523l297 523h-131v168h413v-168h-102l-313 -553h213v-131h-293l-4 -119h297v-131h-297l-5 -164h125v-168h-438v168h121l4 164h-305v131h305l4 119h-309v131h225l-325 553h-103z" />
<glyph unicode="&#xa6;" horiz-adv-x="454" d="M143 -358v716h168v-716h-168zM143 666v716h168v-716h-168z" />
<glyph unicode="&#xa7;" horiz-adv-x="1212" d="M150 -35h204v-166q112 -43 224 -43q107 0 176 46t69 141q0 58 -35 91.5t-108 65.5l-320 140q-91 39 -148.5 110.5t-57.5 173.5q0 64 18.5 115.5t54 87t64 55.5t71.5 43q-94 44 -142 109t-48 168q0 172 127.5 264t337.5 92q213 0 391 -69v-273h-205v144q-84 30 -184 30 q-114 0 -176 -43.5t-62 -118.5q0 -56 30.5 -86.5t105.5 -64.5l299 -133q45 -20 81 -43.5t71.5 -59.5t55 -87.5t19.5 -114.5q0 -197 -197 -295q78 -37 132.5 -107t54.5 -176q0 -187 -134 -286t-368 -99q-204 0 -401 86v303zM371 575q0 -48 32.5 -91.5t90.5 -67.5l243 -105 l47 37q74 59 74 141q0 48 -25.5 83t-87.5 65l-241 119l-47 -31q-86 -55 -86 -150z" />
<glyph unicode="&#xa8;" horiz-adv-x="569" d="M-86 1401q0 60 42.5 102.5t102.5 42.5t103 -42.5t43 -102.5t-43 -103t-103 -43t-102.5 43t-42.5 103zM365 1401q0 60 42.5 102.5t102.5 42.5t102.5 -42.5t42.5 -102.5t-42.5 -103t-102.5 -43t-102.5 43t-42.5 103z" />
<glyph unicode="&#xa9;" horiz-adv-x="1638" d="M78 717q0 151 58.5 288.5t157.5 236.5t236.5 157.5t288.5 58.5q202 0 372.5 -99t270 -269.5t99.5 -372.5t-99.5 -372.5t-270 -270t-372.5 -99.5t-372.5 99.5t-269.5 270t-99 372.5zM258 717q0 -124 44.5 -232t120.5 -182.5t179 -117t217 -42.5t217 42.5t179 117 t120.5 182.5t44.5 232q0 165 -76 297t-204 204t-281 72t-281 -72t-204 -204t-76 -297zM424 719q0 205 113.5 325.5t304.5 120.5q141 0 238.5 -80.5t117.5 -226.5h-162q-12 71 -62.5 111.5t-135.5 40.5q-114 0 -180 -81.5t-66 -209.5q0 -131 67.5 -212t186.5 -81 q76 0 129.5 43t60.5 119h168q-25 -148 -126.5 -233t-250.5 -85q-182 0 -292.5 122t-110.5 327z" />
<glyph unicode="&#xaa;" horiz-adv-x="788" d="M51 979q0 48 21 85t53 58.5t81 36t92 20.5t99 9l103 6v37q0 115 -150 115q-59 0 -125 -23v-74h-131v158q132 57 285 57q151 0 213.5 -61t62.5 -182q0 -17 -6 -299h88v-107h-229q0 63 8 129h-6q-49 -145 -225 -145q-64 0 -112 16.5t-73 44t-37 57.5t-12 62zM219 993 q0 -30 25.5 -52t77.5 -23q78 0 126 46t48 103v25q-171 -11 -224 -28.5t-53 -70.5z" />
<glyph unicode="&#xab;" horiz-adv-x="1062" d="M82 518v131l274 312l160 -127l-217 -252l217 -256l-160 -123zM547 518v131l274 312l160 -127l-217 -252l217 -256l-160 -123z" />
<glyph unicode="&#xac;" horiz-adv-x="1228" d="M96 631v168h1037v-578h-168v410h-869z" />
<glyph unicode="&#xad;" horiz-adv-x="833" d="M135 479v205h563v-205h-563z" />
<glyph unicode="&#xae;" horiz-adv-x="1638" d="M78 717q0 151 58.5 288.5t157.5 236.5t236.5 157.5t288.5 58.5q202 0 372.5 -99t270 -269.5t99.5 -372.5t-99.5 -372.5t-270 -270t-372.5 -99.5t-372.5 99.5t-269.5 270t-99 372.5zM258 717q0 -124 44.5 -232t120.5 -182.5t179 -117t217 -42.5t217 42.5t179 117 t120.5 182.5t44.5 232q0 165 -76 297t-204 204t-281 72t-281 -72t-204 -204t-76 -297zM504 293v848h325q160 0 239 -58.5t79 -185.5q0 -200 -217 -242l227 -362h-168l-215 356h-127v-356h-143zM647 780h178q97 0 138 31t41 92q0 58 -45.5 82.5t-133.5 24.5h-178v-230z" />
<glyph unicode="&#xaf;" horiz-adv-x="569" d="M-20 1327v168h610v-168h-610z" />
<glyph unicode="&#xb0;" horiz-adv-x="819" d="M117 1171q0 121 85.5 207t207.5 86q121 0 206.5 -85.5t85.5 -207.5q0 -121 -85 -206.5t-207 -85.5t-207.5 85.5t-85.5 206.5zM260 1171q0 -61 44 -105t106 -44t105.5 44t43.5 105q0 62 -44 106t-105 44q-62 0 -106 -44.5t-44 -105.5z" />
<glyph unicode="&#xb1;" horiz-adv-x="1228" d="M96 0v168h1037v-168h-1037zM96 567v168h434v301h168v-301h435v-168h-435v-301h-168v301h-434z" />
<glyph unicode="&#xb2;" horiz-adv-x="788" d="M66 582v135l45 28q55 36 117.5 84t137.5 114.5t123 137.5t48 127q0 55 -37 90t-105 35q-44 0 -77.5 -17t-51 -43t-25.5 -50t-8 -43h-167q0 34 8.5 69t32.5 74.5t59.5 70t96 50.5t136.5 20q318 0 318 -247q0 -44 -18 -88.5t-44.5 -83t-74.5 -86t-91.5 -84.5t-111.5 -91 q-42 -36 -94 -63v-4q8 0 50.5 4t61.5 4h328v-143h-657z" />
<glyph unicode="&#xb3;" horiz-adv-x="788" d="M61 1214q0 27 9 57t32.5 65.5t59 63t96 46t135.5 18.5q147 0 222 -59t75 -154q0 -87 -59 -139t-148 -63v-5q104 -6 174 -65t70 -156q0 -118 -95 -190t-288 -72q-140 0 -266 47v146q122 -62 256 -62q88 0 150.5 33t62.5 100q0 42 -21.5 71.5t-57.5 43.5t-71 19.5t-75 5.5 h-56v118h19q54 0 102 13t85.5 49t37.5 90q0 40 -34.5 69t-92.5 29q-41 0 -73 -13t-48.5 -32.5t-24.5 -38.5t-8 -35h-168z" />
<glyph unicode="&#xb4;" horiz-adv-x="569" d="M94 1286l414 344l123 -114l-408 -328z" />
<glyph unicode="&#xb5;" horiz-adv-x="1366" d="M74 897v168h370q-8 -422 -8 -637q0 -117 54 -188.5t155 -71.5q117 0 195.5 89t79.5 235l4 405h-140v168h369l-4 -897h143v-168h-368q0 107 20 236h-4q-34 -115 -132 -188t-204 -73q-48 0 -92.5 18t-65.5 48h-4l-4 -555h-231l8 1411h-141z" />
<glyph unicode="&#xb6;" horiz-adv-x="1228" d="M98 1049q0 198 126.5 291.5t350.5 93.5h508v-1833h-192v1665h-215v-1665h-193v1075q-160 0 -272.5 107t-112.5 266z" />
<glyph unicode="&#xb7;" horiz-adv-x="606" d="M158 573q0 60 42.5 103t102.5 43t103 -43t43 -103t-43 -102.5t-103 -42.5t-102.5 42.5t-42.5 102.5z" />
<glyph unicode="&#xb8;" horiz-adv-x="569" d="M76 -444l12 127q95 -27 170 -27q50 0 84.5 19t34.5 57q0 73 -137 73h-23v222h143v-136h29q84 0 132 -41.5t48 -121.5q0 -67 -40.5 -114.5t-99.5 -68t-128 -20.5q-124 0 -225 31z" />
<glyph unicode="&#xb9;" horiz-adv-x="788" d="M66 1262l319 182h150l-9 -731h189v-131h-537v131h168l8 587q-30 -27 -57 -43l-156 -96z" />
<glyph unicode="&#xba;" horiz-adv-x="788" d="M37 1118q0 155 103 250.5t266 95.5q94 0 164 -30t108 -80.5t56 -107t18 -118.5q0 -144 -93.5 -236.5t-269.5 -92.5q-92 0 -161.5 26.5t-110 72.5t-60.5 101.5t-20 118.5zM205 1124q0 -84 48 -145t140 -61q93 0 142 64t49 161q0 100 -50.5 151.5t-130.5 51.5 q-99 0 -148.5 -66t-49.5 -156z" />
<glyph unicode="&#xbb;" horiz-adv-x="1062" d="M82 330l217 252l-217 256l160 123l274 -316v-131l-274 -311zM547 330l217 252l-217 256l160 123l274 -316v-131l-274 -311z" />
<glyph unicode="&#xbc;" horiz-adv-x="1820" d="M20 1262l320 182h149l-8 -731h189v-131h-537v131h168l8 587q-30 -27 -57 -43l-156 -96zM406 -37l888 1587l133 -80l-888 -1587zM961 238v122l393 502h229l-4 -493h164v-131h-164v-107h102v-131h-378v131h108v107h-450zM1128 365q46 4 70 4h213l4 358l-4 4z" />
<glyph unicode="&#xbd;" horiz-adv-x="1820" d="M20 1262l320 182h149l-8 -731h189v-131h-537v131h168l8 587q-30 -27 -57 -43l-156 -96zM406 -37l888 1587l133 -80l-888 -1587zM1065 0v135l45 29q55 36 117.5 84t137.5 114.5t123 137.5t48 127q0 55 -36.5 90t-104.5 35q-44 0 -77.5 -17.5t-51 -43t-25.5 -50t-8 -43.5 h-168q0 34 9 69t32.5 75t59.5 70.5t96.5 50.5t136.5 20q317 0 317 -248q0 -54 -23.5 -106.5t-75.5 -109.5t-103 -102t-138 -114q-45 -39 -94 -64v-4q7 0 50.5 4t62.5 4h327v-143h-657z" />
<glyph unicode="&#xbe;" horiz-adv-x="1820" d="M78 1214q0 27 9 57t32.5 65.5t59 63t96 46t135.5 18.5q147 0 222 -59t75 -154q0 -87 -59 -139t-148 -63v-5q103 -6 173 -65t70 -156q0 -118 -95 -190t-288 -72q-140 0 -266 47v146q122 -62 256 -62q88 0 150.5 33t62.5 100q0 42 -21.5 71.5t-57.5 43.5t-71 19.5t-75 5.5 h-55v118h18q54 0 102 13t85.5 49t37.5 90q0 40 -34.5 69t-92.5 29q-41 0 -72.5 -13t-48 -32.5t-24.5 -38.5t-8 -35h-168zM406 -37l888 1587l133 -80l-888 -1587zM961 238v122l393 502h229l-4 -493h164v-131h-164v-107h102v-131h-378v131h108v107h-450zM1128 365q46 4 70 4 h213l4 358l-4 4z" />
<glyph unicode="&#xbf;" horiz-adv-x="985" d="M98 -164q0 106 55 198.5t162 162.5l189 120q51 33 69.5 58t18.5 67q0 49 -41 95l-12 12l202 76l17 -21q63 -86 63 -174q0 -41 -16 -78.5t-38 -64.5t-61 -57.5t-67 -48t-74 -44.5q-117 -66 -165 -129.5t-48 -154.5q0 -95 79.5 -153t193.5 -58q130 0 225 43l12 -181 q-134 -43 -287 -43q-228 0 -352.5 103.5t-124.5 271.5zM504 932q0 66 46 112t112 46t111.5 -46t45.5 -112t-45.5 -112t-111.5 -46t-112 46t-46 112z" />
<glyph unicode="&#xc0;" horiz-adv-x="1554" d="M25 0v168h122l521 1266h254l481 -1266h127v-168h-524v168h131l-123 356h-504l-133 -356h147v-168h-499zM432 1806l123 115l414 -344l-129 -98zM575 705h379l-141 405q-25 68 -37 131h-4q-14 -68 -39 -131z" />
<glyph unicode="&#xc1;" horiz-adv-x="1554" d="M25 0v168h122l521 1266h254l481 -1266h127v-168h-524v168h131l-123 356h-504l-133 -356h147v-168h-499zM575 705h379l-141 405q-25 68 -37 131h-4q-14 -68 -39 -131zM588 1577l413 344l123 -115l-407 -327z" />
<glyph unicode="&#xc2;" horiz-adv-x="1554" d="M25 0v168h122l521 1266h254l481 -1266h127v-168h-524v168h131l-123 356h-504l-133 -356h147v-168h-499zM371 1604l334 286h147l334 -286l-135 -111l-273 242l-274 -242zM575 705h379l-141 405q-25 68 -37 131h-4q-14 -68 -39 -131z" />
<glyph unicode="&#xc3;" horiz-adv-x="1554" d="M25 0v168h122l521 1266h254l481 -1266h127v-168h-524v168h131l-123 356h-504l-133 -356h147v-168h-499zM385 1642l16 31q13 24 31 47t48 52t73 47t92 18q78 0 160 -55q5 -3 25 -15.5t27.5 -16.5t23 -11.5t27.5 -10t24 -2.5q11 0 21.5 3.5t17.5 7t17 13t13.5 13.5t14 16.5 t12.5 14.5l23 27l120 -86l-22 -31q-35 -47 -59.5 -74t-66 -49t-89.5 -22q-44 0 -103 27.5t-110 55t-76 27.5q-35 0 -57 -19.5t-45 -56.5l-15 -24zM575 705h379l-141 405q-25 68 -37 131h-4q-14 -68 -39 -131z" />
<glyph unicode="&#xc4;" horiz-adv-x="1554" d="M25 0v168h122l521 1266h254l481 -1266h127v-168h-524v168h131l-123 356h-504l-133 -356h147v-168h-499zM408 1692q0 60 42.5 102.5t102.5 42.5t102.5 -42.5t42.5 -102.5t-42.5 -103t-102.5 -43t-102.5 43t-42.5 103zM575 705h379l-141 405q-25 68 -37 131h-4 q-14 -68 -39 -131zM858 1692q0 60 43 102.5t103 42.5t102.5 -42.5t42.5 -102.5t-42.5 -103t-102.5 -43t-103 43t-43 103z" />
<glyph unicode="&#xc5;" horiz-adv-x="1554" d="M25 0v168h122l521 1266h254l481 -1266h127v-168h-524v168h131l-123 356h-504l-133 -356h147v-168h-499zM557 1677q0 87 63.5 148t157.5 61t157.5 -61t63.5 -148t-63.5 -148t-157.5 -61t-157.5 61t-63.5 148zM575 705h379l-141 405q-25 68 -37 131h-4q-14 -68 -39 -131z M688 1677q0 -40 27 -65t63 -25t63 25t27 65t-27 65t-63 25t-63 -25t-27 -65z" />
<glyph unicode="&#xc6;" horiz-adv-x="2048" d="M4 0v168h125l713 1266h1042l12 -375h-192l-12 207h-387l-5 -475h392v-181h-392l-4 -442h443l16 235h193l-17 -403h-1009v168h145l4 442h-471l-242 -442h158v-168h-512zM688 791h383l4 475h-131z" />
<glyph unicode="&#xc7;" horiz-adv-x="1402" d="M84 702q0 166 54.5 306t154 239.5t245.5 155t322 55.5q126 0 246.5 -23t200.5 -55v-366h-205v229q-133 35 -244 35q-254 0 -387 -148t-133 -419q0 -246 135 -400.5t354 -154.5q150 0 256 20l9 258h204l-8 -391q-69 -23 -175 -42.5t-212 -25.5v-84h29q84 0 132 -41.5 t48 -121.5q0 -67 -40.5 -114.5t-99.5 -68t-128 -20.5q-125 0 -226 31l13 127q95 -27 170 -27q50 0 84.5 19t34.5 57q0 73 -138 73h-22v170q-134 10 -245 52t-190 108t-133 154.5t-80 192t-26 220.5z" />
<glyph unicode="&#xc8;" d="M80 1266v168h1007l9 -377h-191l-12 209h-416l-4 -443h410v-180h-410l-4 -475h436l17 233h192l-16 -401h-1004v168h144l8 1098h-166zM262 1806l123 115l414 -344l-129 -98z" />
<glyph unicode="&#xc9;" d="M80 1266v168h1007l9 -377h-191l-12 209h-416l-4 -443h410v-180h-410l-4 -475h436l17 233h192l-16 -401h-1004v168h144l8 1098h-166zM418 1577l413 344l123 -115l-407 -327z" />
<glyph unicode="&#xca;" d="M80 1266v168h1007l9 -377h-191l-12 209h-416l-4 -443h410v-180h-410l-4 -475h436l17 233h192l-16 -401h-1004v168h144l8 1098h-166zM201 1604l334 286h147l334 -286l-135 -111l-273 242l-274 -242z" />
<glyph unicode="&#xcb;" d="M80 1266v168h1007l9 -377h-191l-12 209h-416l-4 -443h410v-180h-410l-4 -475h436l17 233h192l-16 -401h-1004v168h144l8 1098h-166zM238 1692q0 60 42.5 102.5t102.5 42.5t102.5 -42.5t42.5 -102.5t-42.5 -103t-102.5 -43t-102.5 43t-42.5 103zM688 1692q0 60 43 102.5 t103 42.5t102.5 -42.5t42.5 -102.5t-42.5 -103t-102.5 -43t-103 43t-43 103z" />
<glyph unicode="&#xcc;" horiz-adv-x="720" d="M14 1806l123 115l414 -344l-129 -98zM96 0v168h146l8 1098h-154v168h529v-168h-146l-8 -1098h154v-168h-529z" />
<glyph unicode="&#xcd;" horiz-adv-x="720" d="M96 0v168h146l8 1098h-154v168h529v-168h-146l-8 -1098h154v-168h-529zM170 1577l414 344l123 -115l-408 -327z" />
<glyph unicode="&#xce;" horiz-adv-x="720" d="M-47 1604l334 286h147l334 -286l-135 -111l-273 242l-274 -242zM96 0v168h146l8 1098h-154v168h529v-168h-146l-8 -1098h154v-168h-529z" />
<glyph unicode="&#xcf;" horiz-adv-x="720" d="M-10 1692q0 60 42.5 102.5t102.5 42.5t103 -42.5t43 -102.5t-43 -103t-103 -43t-102.5 43t-42.5 103zM96 0v168h146l8 1098h-154v168h529v-168h-146l-8 -1098h154v-168h-529zM440 1692q0 60 43 102.5t103 42.5t102.5 -42.5t42.5 -102.5t-42.5 -103t-102.5 -43t-103 43 t-43 103z" />
<glyph unicode="&#xd0;" horiz-adv-x="1593" d="M80 0v168h145l4 491h-149v156h149l4 451h-153v168h680q342 0 533.5 -184.5t191.5 -499.5q0 -159 -49.5 -296t-141 -238t-230 -158.5t-306.5 -57.5h-678zM455 168h229q261 0 404 150.5t143 420.5q0 246 -138.5 386.5t-398.5 140.5h-231l-4 -451h407v-156h-407z" />
<glyph unicode="&#xd1;" horiz-adv-x="1630" d="M55 1266v168h377l664 -867q55 -73 143 -215h4l-8 914h-160v168h500v-168h-139l-9 -1266h-186l-717 930q-71 92 -100 151l-4 -4l8 -909h158v-168h-498v168h139l9 1098h-181zM422 1642l16 31q13 24 31 47t48 52t73 47t92 18q78 0 160 -55q5 -3 25 -15.5t27.5 -16.5 t23 -11.5t27.5 -10t24 -2.5q11 0 21.5 3.5t17.5 7t17 13t13.5 13.5t14 16.5t12.5 14.5l22 27l121 -86l-22 -31q-35 -47 -59.5 -74t-66 -49t-89.5 -22q-44 0 -103 27.5t-110 55t-76 27.5q-35 0 -57 -19.5t-45 -56.5l-15 -24z" />
<glyph unicode="&#xd2;" horiz-adv-x="1554" d="M84 692q0 224 88 397.5t253 271t382 97.5q310 0 486.5 -192t176.5 -525q0 -116 -26.5 -225.5t-83 -208t-137.5 -172t-199 -117t-258 -43.5q-314 0 -498 193.5t-184 523.5zM338 702q0 -107 26.5 -201.5t78 -169.5t137 -119t194.5 -44q78 0 143.5 21t110.5 55.5t79.5 83 t54.5 98.5t33 107t17.5 103.5t4.5 92.5q0 82 -11.5 154.5t-41 144.5t-76 123t-122 83t-173.5 32q-93 0 -173 -33t-144 -98.5t-101 -176.5t-37 -256zM432 1806l123 115l414 -344l-129 -98z" />
<glyph unicode="&#xd3;" horiz-adv-x="1554" d="M84 692q0 224 88 397.5t253 271t382 97.5q310 0 486.5 -192t176.5 -525q0 -116 -26.5 -225.5t-83 -208t-137.5 -172t-199 -117t-258 -43.5q-314 0 -498 193.5t-184 523.5zM338 702q0 -107 26.5 -201.5t78 -169.5t137 -119t194.5 -44q78 0 143.5 21t110.5 55.5t79.5 83 t54.5 98.5t33 107t17.5 103.5t4.5 92.5q0 82 -11.5 154.5t-41 144.5t-76 123t-122 83t-173.5 32q-93 0 -173 -33t-144 -98.5t-101 -176.5t-37 -256zM588 1577l413 344l123 -115l-407 -327z" />
<glyph unicode="&#xd4;" horiz-adv-x="1554" d="M84 692q0 224 88 397.5t253 271t382 97.5q310 0 486.5 -192t176.5 -525q0 -116 -26.5 -225.5t-83 -208t-137.5 -172t-199 -117t-258 -43.5q-314 0 -498 193.5t-184 523.5zM338 702q0 -107 26.5 -201.5t78 -169.5t137 -119t194.5 -44q78 0 143.5 21t110.5 55.5t79.5 83 t54.5 98.5t33 107t17.5 103.5t4.5 92.5q0 82 -11.5 154.5t-41 144.5t-76 123t-122 83t-173.5 32q-93 0 -173 -33t-144 -98.5t-101 -176.5t-37 -256zM371 1604l334 286h147l334 -286l-135 -111l-273 242l-274 -242z" />
<glyph unicode="&#xd5;" horiz-adv-x="1554" d="M84 692q0 224 88 397.5t253 271t382 97.5q310 0 486.5 -192t176.5 -525q0 -116 -26.5 -225.5t-83 -208t-137.5 -172t-199 -117t-258 -43.5q-314 0 -498 193.5t-184 523.5zM338 702q0 -107 26.5 -201.5t78 -169.5t137 -119t194.5 -44q78 0 143.5 21t110.5 55.5t79.5 83 t54.5 98.5t33 107t17.5 103.5t4.5 92.5q0 82 -11.5 154.5t-41 144.5t-76 123t-122 83t-173.5 32q-93 0 -173 -33t-144 -98.5t-101 -176.5t-37 -256zM385 1642l16 31q13 24 31 47t48 52t73 47t92 18q78 0 160 -55q5 -3 25 -15.5t27.5 -16.5t23 -11.5t27.5 -10t24 -2.5 q11 0 21.5 3.5t17.5 7t17 13t13.5 13.5t14 16.5t12.5 14.5l23 27l120 -86l-22 -31q-35 -47 -59.5 -74t-66 -49t-89.5 -22q-44 0 -103 27.5t-110 55t-76 27.5q-35 0 -57 -19.5t-45 -56.5l-15 -24z" />
<glyph unicode="&#xd6;" horiz-adv-x="1554" d="M84 692q0 224 88 397.5t253 271t382 97.5q310 0 486.5 -192t176.5 -525q0 -116 -26.5 -225.5t-83 -208t-137.5 -172t-199 -117t-258 -43.5q-314 0 -498 193.5t-184 523.5zM338 702q0 -107 26.5 -201.5t78 -169.5t137 -119t194.5 -44q78 0 143.5 21t110.5 55.5t79.5 83 t54.5 98.5t33 107t17.5 103.5t4.5 92.5q0 82 -11.5 154.5t-41 144.5t-76 123t-122 83t-173.5 32q-93 0 -173 -33t-144 -98.5t-101 -176.5t-37 -256zM408 1692q0 60 42.5 102.5t102.5 42.5t102.5 -42.5t42.5 -102.5t-42.5 -103t-102.5 -43t-102.5 43t-42.5 103zM858 1692 q0 60 43 102.5t103 42.5t102.5 -42.5t42.5 -102.5t-42.5 -103t-102.5 -43t-103 43t-43 103z" />
<glyph unicode="&#xd7;" horiz-adv-x="1228" d="M141 158l361 360l-361 361l113 112l360 -360l361 360l112 -112l-360 -361l360 -360l-112 -113l-361 361l-360 -361z" />
<glyph unicode="&#xd8;" horiz-adv-x="1554" d="M84 692q0 224 88 397.5t253 271t382 97.5q167 0 297 -59l141 229l127 -82l-137 -225q113 -92 174 -240t61 -340q0 -116 -26.5 -225.5t-83 -208t-137.5 -172t-199 -117t-258 -43.5q-176 0 -313 64l-162 -264l-127 82l162 264q-118 91 -180 237t-62 334zM338 702 q0 -235 111 -378l546 897q-82 45 -202 45q-93 0 -173 -33t-144 -98.5t-101 -176.5t-37 -256zM565 221q89 -53 209 -53q78 0 143.5 21t110.5 55.5t79.5 83t54.5 98.5t33 107t17.5 103.5t4.5 92.5q0 254 -105 391z" />
<glyph unicode="&#xd9;" horiz-adv-x="1554" d="M61 1266v168h525v-168h-146l-2 -719q0 -70 3.5 -113.5t22 -97.5t54.5 -88q49 -45 106.5 -62.5t149.5 -17.5q108 0 168.5 17t108.5 65q47 47 63.5 113.5t18.5 177.5l4 725h-168v168h524v-168h-137l-4 -770q0 -267 -160 -404q-67 -57 -178.5 -87t-241.5 -30q-157 0 -258 29 t-172 90q-75 63 -104 157t-29 243q0 276 4 772h-152zM432 1806l123 115l414 -344l-129 -98z" />
<glyph unicode="&#xda;" horiz-adv-x="1554" d="M61 1266v168h525v-168h-146l-2 -719q0 -70 3.5 -113.5t22 -97.5t54.5 -88q49 -45 106.5 -62.5t149.5 -17.5q108 0 168.5 17t108.5 65q47 47 63.5 113.5t18.5 177.5l4 725h-168v168h524v-168h-137l-4 -770q0 -267 -160 -404q-67 -57 -178.5 -87t-241.5 -30q-157 0 -258 29 t-172 90q-75 63 -104 157t-29 243q0 276 4 772h-152zM588 1577l413 344l123 -115l-407 -327z" />
<glyph unicode="&#xdb;" horiz-adv-x="1554" d="M61 1266v168h525v-168h-146l-2 -719q0 -70 3.5 -113.5t22 -97.5t54.5 -88q49 -45 106.5 -62.5t149.5 -17.5q108 0 168.5 17t108.5 65q47 47 63.5 113.5t18.5 177.5l4 725h-168v168h524v-168h-137l-4 -770q0 -267 -160 -404q-67 -57 -178.5 -87t-241.5 -30q-157 0 -258 29 t-172 90q-75 63 -104 157t-29 243q0 276 4 772h-152zM371 1604l334 286h147l334 -286l-135 -111l-273 242l-274 -242z" />
<glyph unicode="&#xdc;" horiz-adv-x="1554" d="M61 1266v168h525v-168h-146l-2 -719q0 -70 3.5 -113.5t22 -97.5t54.5 -88q49 -45 106.5 -62.5t149.5 -17.5q108 0 168.5 17t108.5 65q47 47 63.5 113.5t18.5 177.5l4 725h-168v168h524v-168h-137l-4 -770q0 -267 -160 -404q-67 -57 -178.5 -87t-241.5 -30q-157 0 -258 29 t-172 90q-75 63 -104 157t-29 243q0 276 4 772h-152zM408 1692q0 60 42.5 102.5t102.5 42.5t102.5 -42.5t42.5 -102.5t-42.5 -103t-102.5 -43t-102.5 43t-42.5 103zM858 1692q0 60 43 102.5t103 42.5t102.5 -42.5t42.5 -102.5t-42.5 -103t-102.5 -43t-103 43t-43 103z" />
<glyph unicode="&#xdd;" horiz-adv-x="1478" d="M8 1266v168h524v-168h-139q25 -25 41 -49l330 -449l326 449q12 18 43 49h-162v168h499v-168h-127l-483 -674l-8 -424h152v-168h-525v168h144l8 424l-498 674h-125zM549 1577l414 344l122 -115l-407 -327z" />
<glyph unicode="&#xde;" d="M80 0v168h145l8 1098h-153v168h528v-168h-145v-99h158q140 0 212 -14t130 -49q86 -52 135 -144t49 -208q0 -119 -55.5 -223.5t-145.5 -157.5q-66 -38 -126.5 -53t-151.5 -15h-211l-2 -135h153v-168h-528zM457 471h161q148 0 217.5 73t69.5 199q0 60 -22 111.5t-58 83.5 q-42 36 -96 48.5t-141 12.5h-127z" />
<glyph unicode="&#xdf;" horiz-adv-x="1517" d="M86 897v168h162l2 102q6 187 153 309.5t398 122.5q37 0 74.5 -2.5t88 -11t95 -22t89.5 -38t77.5 -56.5t52.5 -80.5t20 -106.5q0 -85 -39.5 -153.5t-109.5 -112.5l-137 -88q-107 -68 -107 -133q0 -38 18.5 -59.5t69.5 -41.5l234 -90q105 -41 155 -108t50 -177 q0 -82 -33 -147t-89.5 -105.5t-128 -61.5t-151.5 -21q-167 0 -336 41v290h180v-143q74 -20 177 -20q74 0 118.5 42t44.5 107q0 49 -22.5 78.5t-83.5 50.5l-219 78q-106 37 -153.5 98t-47.5 148q0 76 28.5 127t102.5 104l174 127q53 38 70.5 73.5t17.5 80.5q0 57 -68 105 t-202 48q-164 0 -250 -82t-86 -219l-4 -950h131v-168h-487v168h129l4 729h-162z" />
<glyph unicode="&#xe0;" d="M119 281q0 58 17 106t43.5 80t66 57t78 39.5t87.5 24t86 13t81 5.5l219 12v80q0 108 -52 166t-184 58q-100 0 -192 -37v-156h-205v264q39 19 62 28t81.5 29t129 30t149.5 10q116 0 197.5 -27.5t128.5 -82.5t68 -127.5t21 -170.5t-3.5 -277t-4.5 -237h144v-168h-338 q0 113 18 221h-4q-19 -51 -44 -90.5t-65.5 -77t-102.5 -58t-142 -20.5q-91 0 -160 28t-106.5 75t-55.5 98t-18 105zM262 1516l123 114l414 -344l-129 -98zM348 299q0 -62 45.5 -102.5t124.5 -40.5q127 0 201 80.5t74 189.5v43q-71 -1 -117 -2.5t-103 -7t-92.5 -17 t-68.5 -29.5t-48.5 -47t-15.5 -67z" />
<glyph unicode="&#xe1;" d="M119 281q0 58 17 106t43.5 80t66 57t78 39.5t87.5 24t86 13t81 5.5l219 12v80q0 108 -52 166t-184 58q-100 0 -192 -37v-156h-205v264q39 19 62 28t81.5 29t129 30t149.5 10q116 0 197.5 -27.5t128.5 -82.5t68 -127.5t21 -170.5t-3.5 -277t-4.5 -237h144v-168h-338 q0 113 18 221h-4q-19 -51 -44 -90.5t-65.5 -77t-102.5 -58t-142 -20.5q-91 0 -160 28t-106.5 75t-55.5 98t-18 105zM348 299q0 -62 45.5 -102.5t124.5 -40.5q127 0 201 80.5t74 189.5v43q-71 -1 -117 -2.5t-103 -7t-92.5 -17t-68.5 -29.5t-48.5 -47t-15.5 -67zM418 1286 l413 344l123 -114l-407 -328z" />
<glyph unicode="&#xe2;" d="M119 281q0 58 17 106t43.5 80t66 57t78 39.5t87.5 24t86 13t81 5.5l219 12v80q0 108 -52 166t-184 58q-100 0 -192 -37v-156h-205v264q39 19 62 28t81.5 29t129 30t149.5 10q116 0 197.5 -27.5t128.5 -82.5t68 -127.5t21 -170.5t-3.5 -277t-4.5 -237h144v-168h-338 q0 113 18 221h-4q-19 -51 -44 -90.5t-65.5 -77t-102.5 -58t-142 -20.5q-91 0 -160 28t-106.5 75t-55.5 98t-18 105zM188 1313l334 286h148l334 -286l-136 -111l-272 242l-274 -242zM348 299q0 -62 45.5 -102.5t124.5 -40.5q127 0 201 80.5t74 189.5v43q-71 -1 -117 -2.5 t-103 -7t-92.5 -17t-68.5 -29.5t-48.5 -47t-15.5 -67z" />
<glyph unicode="&#xe3;" d="M119 281q0 58 17 106t43.5 80t66 57t78 39.5t87.5 24t86 13t81 5.5l219 12v80q0 108 -52 166t-184 58q-100 0 -192 -37v-156h-205v264q39 19 62 28t81.5 29t129 30t149.5 10q116 0 197.5 -27.5t128.5 -82.5t68 -127.5t21 -170.5t-3.5 -277t-4.5 -237h144v-168h-338 q0 113 18 221h-4q-19 -51 -44 -90.5t-65.5 -77t-102.5 -58t-142 -20.5q-91 0 -160 28t-106.5 75t-55.5 98t-18 105zM203 1352l16 30q13 24 31 47t48 52t73 47t92 18q78 0 160 -55q5 -3 21.5 -13t22.5 -13.5t19.5 -10.5t22 -10t20 -5.5t21.5 -2.5q11 0 21.5 3.5t17 6.5 t17.5 13t13.5 13t14 16.5t12.5 14.5l22 27l121 -86l-22 -31q-35 -47 -59.5 -74t-66 -49t-89.5 -22q-44 0 -103 27.5t-110 55t-76 27.5q-35 0 -58 -19t-45 -56l-14 -25zM348 299q0 -62 45.5 -102.5t124.5 -40.5q127 0 201 80.5t74 189.5v43q-71 -1 -117 -2.5t-103 -7 t-92.5 -17t-68.5 -29.5t-48.5 -47t-15.5 -67z" />
<glyph unicode="&#xe4;" d="M119 281q0 58 17 106t43.5 80t66 57t78 39.5t87.5 24t86 13t81 5.5l219 12v80q0 108 -52 166t-184 58q-100 0 -192 -37v-156h-205v264q39 19 62 28t81.5 29t129 30t149.5 10q116 0 197.5 -27.5t128.5 -82.5t68 -127.5t21 -170.5t-3.5 -277t-4.5 -237h144v-168h-338 q0 113 18 221h-4q-19 -51 -44 -90.5t-65.5 -77t-102.5 -58t-142 -20.5q-91 0 -160 28t-106.5 75t-55.5 98t-18 105zM225 1401q0 60 43 102.5t103 42.5t102.5 -42.5t42.5 -102.5t-42.5 -103t-102.5 -43t-103 43t-43 103zM348 299q0 -62 45.5 -102.5t124.5 -40.5 q127 0 201 80.5t74 189.5v43q-71 -1 -117 -2.5t-103 -7t-92.5 -17t-68.5 -29.5t-48.5 -47t-15.5 -67zM676 1401q0 60 42.5 102.5t102.5 42.5t103 -42.5t43 -102.5t-43 -103t-103 -43t-102.5 43t-42.5 103z" />
<glyph unicode="&#xe5;" d="M119 281q0 58 17 106t43.5 80t66 57t78 39.5t87.5 24t86 13t81 5.5l219 12v80q0 108 -52 166t-184 58q-100 0 -192 -37v-156h-205v264q39 19 62 28t81.5 29t129 30t149.5 10q116 0 197.5 -27.5t128.5 -82.5t68 -127.5t21 -170.5t-3.5 -277t-4.5 -237h144v-168h-338 q0 113 18 221h-4q-19 -51 -44 -90.5t-65.5 -77t-102.5 -58t-142 -20.5q-91 0 -160 28t-106.5 75t-55.5 98t-18 105zM348 299q0 -62 45.5 -102.5t124.5 -40.5q127 0 201 80.5t74 189.5v43q-71 -1 -117 -2.5t-103 -7t-92.5 -17t-68.5 -29.5t-48.5 -47t-15.5 -67zM375 1366 q0 87 63.5 148t157.5 61t157.5 -61t63.5 -148t-63.5 -148t-157.5 -61t-157.5 61t-63.5 148zM506 1366q0 -40 27 -65t63 -25t63 25t27 65t-27 65t-63 25t-63 -25t-27 -65z" />
<glyph unicode="&#xe6;" horiz-adv-x="1820" d="M119 281q0 58 17 106t43.5 80t66 57t78 39.5t87.5 24t86 13t81 5.5l219 12v80q0 108 -52 166t-184 58q-100 0 -192 -37v-156h-205v264q6 2 41.5 15t59.5 21.5t68 21t80 20.5t81.5 13.5t85.5 5.5q265 0 348 -203q37 89 128 146t216 57q101 0 180.5 -31.5t131 -84.5 t84.5 -127.5t47 -154.5t14 -172v-24l-728 -21q0 -319 357 -319q151 0 325 80l-8 -185q-54 -29 -151 -52.5t-201 -23.5q-358 0 -438 254h-4q-44 -133 -138.5 -193.5t-257.5 -60.5q-101 0 -175.5 28t-114.5 75t-58 97.5t-18 105.5zM348 299q0 -62 45.5 -102.5t124.5 -40.5 q127 0 201 80.5t74 189.5v43q-71 -1 -117 -2.5t-103 -7t-92.5 -17t-68.5 -29.5t-48.5 -47t-15.5 -67zM1001 631l498 20v13q0 41 -12 82.5t-38.5 82.5t-78 67t-121.5 26q-113 0 -180.5 -68.5t-67.5 -222.5z" />
<glyph unicode="&#xe7;" horiz-adv-x="1024" d="M74 526q0 252 150.5 408t422.5 156q177 0 303 -56v-301h-192v158q-59 18 -135 18q-153 0 -236.5 -100.5t-83.5 -259.5q0 -73 19 -137.5t60.5 -121t116.5 -89.5t177 -33q74 0 152 18.5t120 42.5l-12 -198q-120 -49 -254 -56v-84h29q84 0 132 -41.5t48 -121.5 q0 -67 -40.5 -114.5t-99.5 -68t-128 -20.5q-125 0 -226 31l13 127q94 -27 170 -27q49 0 83.5 19t34.5 57q0 73 -137 73h-22v177q-100 12 -180 49.5t-132.5 90t-87.5 120t-50 138t-15 146.5z" />
<glyph unicode="&#xe8;" horiz-adv-x="1138" d="M74 528q0 119 33.5 221t98 178t164.5 119.5t226 43.5q156 0 265.5 -73t162.5 -198.5t53 -292.5v-30h-762q1 -154 103 -247t262 -93q181 0 342 82l-12 -189q-177 -74 -375 -74q-262 1 -411.5 151t-149.5 402zM223 1516l123 114l414 -344l-129 -98zM315 651h521v21 q0 29 -7 60t-25.5 65.5t-46 62t-72.5 45t-101 17.5q-70 0 -122.5 -23.5t-82.5 -64t-45.5 -86t-18.5 -97.5z" />
<glyph unicode="&#xe9;" horiz-adv-x="1138" d="M74 528q0 119 33.5 221t98 178t164.5 119.5t226 43.5q156 0 265.5 -73t162.5 -198.5t53 -292.5v-30h-762q1 -154 103 -247t262 -93q181 0 342 82l-12 -189q-177 -74 -375 -74q-262 1 -411.5 151t-149.5 402zM315 651h521v21q0 29 -7 60t-25.5 65.5t-46 62t-72.5 45 t-101 17.5q-70 0 -122.5 -23.5t-82.5 -64t-45.5 -86t-18.5 -97.5zM379 1286l414 344l122 -114l-407 -328z" />
<glyph unicode="&#xea;" horiz-adv-x="1138" d="M74 528q0 119 33.5 221t98 178t164.5 119.5t226 43.5q156 0 265.5 -73t162.5 -198.5t53 -292.5v-30h-762q1 -154 103 -247t262 -93q181 0 342 82l-12 -189q-177 -74 -375 -74q-262 1 -411.5 151t-149.5 402zM162 1313l334 286h147l334 -286l-135 -111l-273 242l-274 -242 zM315 651h521v21q0 29 -7 60t-25.5 65.5t-46 62t-72.5 45t-101 17.5q-70 0 -122.5 -23.5t-82.5 -64t-45.5 -86t-18.5 -97.5z" />
<glyph unicode="&#xeb;" horiz-adv-x="1138" d="M74 528q0 119 33.5 221t98 178t164.5 119.5t226 43.5q156 0 265.5 -73t162.5 -198.5t53 -292.5v-30h-762q1 -154 103 -247t262 -93q181 0 342 82l-12 -189q-177 -74 -375 -74q-262 1 -411.5 151t-149.5 402zM199 1401q0 60 42.5 102.5t102.5 42.5t102.5 -42.5 t42.5 -102.5t-42.5 -103t-102.5 -43t-102.5 43t-42.5 103zM315 651h521v21q0 29 -7 60t-25.5 65.5t-46 62t-72.5 45t-101 17.5q-70 0 -122.5 -23.5t-82.5 -64t-45.5 -86t-18.5 -97.5zM649 1401q0 60 43 102.5t103 42.5t102.5 -42.5t42.5 -102.5t-42.5 -103t-102.5 -43 t-103 43t-43 103z" />
<glyph unicode="&#xec;" horiz-adv-x="645" d="M-23 1516l123 114l414 -344l-129 -98zM61 897v168h392l-4 -897h143v-168h-512v168h139l4 729h-162z" />
<glyph unicode="&#xed;" horiz-adv-x="645" d="M61 897v168h392l-4 -897h143v-168h-512v168h139l4 729h-162zM133 1286l414 344l123 -114l-408 -328z" />
<glyph unicode="&#xee;" horiz-adv-x="645" d="M-84 1313l334 286h147l334 -286l-135 -111l-272 242l-275 -242zM61 897v168h392l-4 -897h143v-168h-512v168h139l4 729h-162z" />
<glyph unicode="&#xef;" horiz-adv-x="645" d="M-47 1401q0 60 42.5 102.5t102.5 42.5t103 -42.5t43 -102.5t-43 -103t-103 -43t-102.5 43t-42.5 103zM61 897v168h392l-4 -897h143v-168h-512v168h139l4 729h-162zM403 1401q0 60 43 102.5t103 42.5t102.5 -42.5t42.5 -102.5t-42.5 -103t-102.5 -43t-103 43t-43 103z" />
<glyph unicode="&#xf0;" d="M68 510q0 170 70 303.5t189 205t265 71.5q152 0 242 -72l4 4q-67 131 -205 266l-203 -104l-92 104l188 96q-72 61 -168 119l174 96q107 -65 175 -120l186 96l92 -105l-172 -90q167 -172 250.5 -355.5t83.5 -426.5q0 -290 -140.5 -456.5t-408.5 -166.5q-111 0 -201 30 t-150.5 80.5t-101.5 119.5t-59 145.5t-18 159.5zM309 518q0 -94 29.5 -170.5t98 -128t167.5 -51.5q101 0 170.5 53t100 137.5t30.5 192.5q0 172 -78.5 259t-205.5 87q-82 0 -144 -32t-97.5 -87.5t-53 -120.5t-17.5 -139z" />
<glyph unicode="&#xf1;" horiz-adv-x="1366" d="M74 897v168h379q0 -101 -21 -236h4q35 113 130 187t245 74q184 0 277.5 -108.5t93.5 -303.5q0 -97 -3.5 -275t-4.5 -235h139v-168h-490v168h121q1 52 4.5 216t3.5 253q0 117 -55 188.5t-160 71.5q-120 0 -198.5 -88.5t-81.5 -235.5l-8 -405h143v-168h-494v168h121l4 729 h-149zM291 1352l16 30q13 24 31 47t48 52t73 47t92 18q78 0 160 -55q5 -3 21.5 -13t22.5 -13.5t19.5 -10.5t22 -10t20 -5.5t21.5 -2.5q11 0 21.5 3.5t17 6.5t17.5 13t13.5 13t14 16.5t12.5 14.5l22 27l121 -86l-22 -31q-35 -47 -59.5 -74t-66 -49t-89.5 -22q-44 0 -103 27.5 t-110 55t-76 27.5q-35 0 -57 -19t-45 -56l-15 -25z" />
<glyph unicode="&#xf2;" d="M68 510q0 259 155.5 419.5t401.5 160.5q114 0 205 -34t149 -89t97 -129.5t55 -152t16 -159.5q0 -115 -35 -214t-102 -175t-173 -119t-239 -43q-111 0 -201 30t-150.5 80.5t-101.5 119.5t-59 145.5t-18 159.5zM262 1516l123 114l414 -344l-129 -98zM309 518 q0 -94 29.5 -170.5t98 -128t167.5 -51.5q101 0 170.5 53t100 137.5t30.5 192.5q0 172 -78.5 259t-205.5 87q-82 0 -144 -32t-97.5 -87.5t-53 -120.5t-17.5 -139z" />
<glyph unicode="&#xf3;" d="M68 510q0 259 155.5 419.5t401.5 160.5q114 0 205 -34t149 -89t97 -129.5t55 -152t16 -159.5q0 -115 -35 -214t-102 -175t-173 -119t-239 -43q-111 0 -201 30t-150.5 80.5t-101.5 119.5t-59 145.5t-18 159.5zM309 518q0 -94 29.5 -170.5t98 -128t167.5 -51.5 q101 0 170.5 53t100 137.5t30.5 192.5q0 172 -78.5 259t-205.5 87q-82 0 -144 -32t-97.5 -87.5t-53 -120.5t-17.5 -139zM418 1286l413 344l123 -114l-407 -328z" />
<glyph unicode="&#xf4;" d="M68 510q0 259 155.5 419.5t401.5 160.5q114 0 205 -34t149 -89t97 -129.5t55 -152t16 -159.5q0 -115 -35 -214t-102 -175t-173 -119t-239 -43q-111 0 -201 30t-150.5 80.5t-101.5 119.5t-59 145.5t-18 159.5zM201 1313l334 286h147l334 -286l-135 -111l-273 242 l-274 -242zM309 518q0 -94 29.5 -170.5t98 -128t167.5 -51.5q101 0 170.5 53t100 137.5t30.5 192.5q0 172 -78.5 259t-205.5 87q-82 0 -144 -32t-97.5 -87.5t-53 -120.5t-17.5 -139z" />
<glyph unicode="&#xf5;" d="M68 510q0 259 155.5 419.5t401.5 160.5q114 0 205 -34t149 -89t97 -129.5t55 -152t16 -159.5q0 -115 -35 -214t-102 -175t-173 -119t-239 -43q-111 0 -201 30t-150.5 80.5t-101.5 119.5t-59 145.5t-18 159.5zM215 1352l16 30q13 24 31 47t48 52t73 47t92 18q78 0 160 -55 q5 -3 21.5 -13t22.5 -13.5t19.5 -10.5t22 -10t20 -5.5t21.5 -2.5q11 0 21.5 3.5t17 6.5t17.5 13t13.5 13t14 16.5t12.5 14.5l23 27l120 -86l-22 -31q-35 -47 -59.5 -74t-66 -49t-89.5 -22q-44 0 -103 27.5t-110 55t-76 27.5q-35 0 -57 -19t-45 -56l-15 -25zM309 518 q0 -94 29.5 -170.5t98 -128t167.5 -51.5q101 0 170.5 53t100 137.5t30.5 192.5q0 172 -78.5 259t-205.5 87q-82 0 -144 -32t-97.5 -87.5t-53 -120.5t-17.5 -139z" />
<glyph unicode="&#xf6;" d="M68 510q0 259 155.5 419.5t401.5 160.5q114 0 205 -34t149 -89t97 -129.5t55 -152t16 -159.5q0 -115 -35 -214t-102 -175t-173 -119t-239 -43q-111 0 -201 30t-150.5 80.5t-101.5 119.5t-59 145.5t-18 159.5zM238 1401q0 60 42.5 102.5t102.5 42.5t102.5 -42.5 t42.5 -102.5t-42.5 -103t-102.5 -43t-102.5 43t-42.5 103zM309 518q0 -94 29.5 -170.5t98 -128t167.5 -51.5q101 0 170.5 53t100 137.5t30.5 192.5q0 172 -78.5 259t-205.5 87q-82 0 -144 -32t-97.5 -87.5t-53 -120.5t-17.5 -139zM688 1401q0 60 43 102.5t103 42.5 t102.5 -42.5t42.5 -102.5t-42.5 -103t-102.5 -43t-103 43t-43 103z" />
<glyph unicode="&#xf7;" horiz-adv-x="1228" d="M96 434v168h1037v-168h-1037zM469 121q0 60 42.5 102.5t102.5 42.5t103 -42.5t43 -102.5t-43 -103t-103 -43t-102.5 43t-42.5 103zM469 915q0 60 42.5 103t102.5 43t103 -43t43 -103t-43 -102.5t-103 -42.5t-102.5 42.5t-42.5 102.5z" />
<glyph unicode="&#xf8;" d="M68 510q0 259 155.5 419.5t401.5 160.5q124 0 211 -37l116 190l123 -78l-112 -184q94 -79 139 -200t45 -255q0 -115 -35 -214t-102 -175t-173 -119t-239 -43q-138 0 -231 43l-136 -221l-122 82l131 213q-87 73 -129.5 182.5t-42.5 235.5zM309 518q0 -128 58 -221l360 580 q-47 20 -106 20q-82 0 -144 -32t-97.5 -87.5t-53 -120.5t-17.5 -139zM477 197q53 -29 127 -29q101 0 170.5 53t100 137.5t30.5 192.5q0 150 -63 235z" />
<glyph unicode="&#xf9;" horiz-adv-x="1366" d="M74 897v168h370q-8 -422 -8 -637q0 -117 54 -188.5t155 -71.5q117 0 195.5 89t79.5 235l4 405h-140v168h369l-4 -897h143v-168h-368q0 107 20 236h-4q-32 -116 -138 -188.5t-235 -72.5q-169 0 -264.5 109.5t-95.5 298.5q0 287 8 514h-141zM338 1516l123 114l413 -344 l-129 -98z" />
<glyph unicode="&#xfa;" horiz-adv-x="1366" d="M74 897v168h370q-8 -422 -8 -637q0 -117 54 -188.5t155 -71.5q117 0 195.5 89t79.5 235l4 405h-140v168h369l-4 -897h143v-168h-368q0 107 20 236h-4q-32 -116 -138 -188.5t-235 -72.5q-169 0 -264.5 109.5t-95.5 298.5q0 287 8 514h-141zM494 1286l413 344l123 -114 l-407 -328z" />
<glyph unicode="&#xfb;" horiz-adv-x="1366" d="M74 897v168h370q-8 -422 -8 -637q0 -117 54 -188.5t155 -71.5q117 0 195.5 89t79.5 235l4 405h-140v168h369l-4 -897h143v-168h-368q0 107 20 236h-4q-32 -116 -138 -188.5t-235 -72.5q-169 0 -264.5 109.5t-95.5 298.5q0 287 8 514h-141zM276 1313l334 286h148l334 -286 l-136 -111l-272 242l-274 -242z" />
<glyph unicode="&#xfc;" horiz-adv-x="1366" d="M74 897v168h370q-8 -422 -8 -637q0 -117 54 -188.5t155 -71.5q117 0 195.5 89t79.5 235l4 405h-140v168h369l-4 -897h143v-168h-368q0 107 20 236h-4q-32 -116 -138 -188.5t-235 -72.5q-169 0 -264.5 109.5t-95.5 298.5q0 287 8 514h-141zM293 1401q0 60 42.5 102.5 t102.5 42.5t103 -42.5t43 -102.5t-43 -103t-103 -43t-102.5 43t-42.5 103zM743 1401q0 60 43 102.5t103 42.5t102.5 -42.5t42.5 -102.5t-42.5 -103t-102.5 -43t-103 43t-43 103z" />
<glyph unicode="&#xfd;" d="M-6 897v168h487v-168h-119l205 -547q12 -32 29 -95t18 -65h4q11 50 48 160l188 547h-139v168h450v-168h-106l-324 -891q-108 -296 -168 -375q-131 -170 -366 -170q-83 0 -146 23v180q52 -22 150 -22q42 0 76.5 11t72.5 39t73 85.5t67 142.5l8 23l-393 954h-115zM418 1286 l413 344l123 -114l-407 -328z" />
<glyph unicode="&#xfe;" horiz-adv-x="1290" d="M53 1407v168h381l-8 -510q0 -114 -27 -217h4q43 112 133 177t222 65q197 0 321.5 -136.5t124.5 -369.5q0 -132 -38.5 -243.5t-110.5 -193t-181 -127t-243 -45.5q-123 0 -211 35l-4 -356h170v-168h-510v168h119l8 1753h-150zM428 201q73 -45 205 -45q152 -3 242.5 113 t87.5 280q0 155 -66.5 251.5t-191.5 96.5q-137 0 -207 -104.5t-70 -294.5v-297z" />
<glyph unicode="&#xff;" d="M-6 897v168h487v-168h-119l205 -547q12 -32 29 -95t18 -65h4q11 50 48 160l188 547h-139v168h450v-168h-106l-324 -891q-108 -296 -168 -375q-131 -170 -366 -170q-83 0 -146 23v180q52 -22 150 -22q42 0 76.5 11t72.5 39t73 85.5t67 142.5l8 23l-393 954h-115zM238 1401 q0 60 42.5 102.5t102.5 42.5t102.5 -42.5t42.5 -102.5t-42.5 -103t-102.5 -43t-102.5 43t-42.5 103zM688 1401q0 60 43 102.5t103 42.5t102.5 -42.5t42.5 -102.5t-42.5 -103t-102.5 -43t-103 43t-43 103z" />
<glyph unicode="&#x152;" horiz-adv-x="2086" d="M84 711q0 181 61 323t169 231t250.5 135t312.5 46q77 0 133 -6q8 0 44.5 -3t57.5 -3h842l12 -377h-192l-13 209h-432l-4 -443h424v-180h-424l-4 -475h455l16 233h195l-21 -401h-862q-54 0 -125 -6q-141 -6 -150 -6q-168 0 -303.5 45t-234.5 133t-153 226.5t-54 318.5z M338 711q0 -267 139 -405t406 -138q48 0 207 6l8 1079q-136 13 -180 13q-275 0 -427.5 -147.5t-152.5 -407.5z" />
<glyph unicode="&#x153;" horiz-adv-x="1896" d="M84 526q0 123 33 225t96 178t163 118.5t228 42.5q294 0 387 -213q40 83 134.5 148t222.5 65q101 0 180.5 -31.5t130.5 -84.5t84.5 -127.5t47 -154.5t13.5 -172v-24h-727q0 -171 88 -255.5t269 -84.5q151 0 325 80l-8 -185q-54 -29 -151 -52.5t-201 -23.5 q-156 0 -262.5 47t-169.5 175q-107 -222 -392 -222q-246 0 -368.5 144t-122.5 407zM313 532q0 -169 73 -272.5t214 -103.5q130 0 195 77t65 263v104q0 167 -65.5 238t-194.5 71q-141 0 -214 -103.5t-73 -273.5zM1077 651h498v13q0 41 -12 82.5t-38.5 82.5t-78 67t-121.5 26 q-119 0 -183.5 -73t-64.5 -198z" />
<glyph unicode="&#x178;" horiz-adv-x="1478" d="M8 1266v168h524v-168h-139q25 -25 41 -49l330 -449l326 449q12 18 43 49h-162v168h499v-168h-127l-483 -674l-8 -424h152v-168h-525v168h144l8 424l-498 674h-125zM369 1692q0 60 42.5 102.5t102.5 42.5t102.5 -42.5t42.5 -102.5t-42.5 -103t-102.5 -43t-102.5 43 t-42.5 103zM819 1692q0 60 43 102.5t103 42.5t102.5 -42.5t42.5 -102.5t-42.5 -103t-102.5 -43t-103 43t-43 103z" />
<glyph unicode="&#x2c6;" horiz-adv-x="569" d="M-123 1313l334 286h147l334 -286l-135 -111l-272 242l-275 -242z" />
<glyph unicode="&#x2dc;" horiz-adv-x="569" d="M-109 1352l17 30q13 24 31 47t48 52t73 47t92 18q77 0 159 -55q5 -3 21.5 -13t22.5 -13.5t19.5 -10.5t22 -10t20 -5.5t21.5 -2.5q9 0 17.5 2t17 7t14 8t14.5 12l11.5 11.5t12 14t10.5 12.5l22 27l121 -86l-23 -31q-35 -47 -59.5 -74t-66 -49t-89.5 -22q-44 0 -103 27.5 t-109.5 55t-75.5 27.5q-35 0 -58 -19t-45 -56l-14 -25z" />
<glyph unicode="&#x2000;" horiz-adv-x="960" />
<glyph unicode="&#x2001;" horiz-adv-x="1921" />
<glyph unicode="&#x2002;" horiz-adv-x="960" />
<glyph unicode="&#x2003;" horiz-adv-x="1921" />
<glyph unicode="&#x2004;" horiz-adv-x="640" />
<glyph unicode="&#x2005;" horiz-adv-x="480" />
<glyph unicode="&#x2006;" horiz-adv-x="320" />
<glyph unicode="&#x2007;" horiz-adv-x="320" />
<glyph unicode="&#x2008;" horiz-adv-x="240" />
<glyph unicode="&#x2009;" horiz-adv-x="384" />
<glyph unicode="&#x200a;" horiz-adv-x="106" />
<glyph unicode="&#x2010;" horiz-adv-x="833" d="M135 479v205h563v-205h-563z" />
<glyph unicode="&#x2011;" horiz-adv-x="833" d="M135 479v205h563v-205h-563z" />
<glyph unicode="&#x2012;" horiz-adv-x="833" d="M135 479v205h563v-205h-563z" />
<glyph unicode="&#x2013;" horiz-adv-x="1024" d="M0 492v180h1024v-180h-1024z" />
<glyph unicode="&#x2014;" horiz-adv-x="2048" d="M0 492v180h2048v-180h-2048z" />
<glyph unicode="&#x2018;" horiz-adv-x="606" d="M119 1139q0 96 46.5 203.5t139.5 189.5l78 67l104 -102l-34 -35q-51 -51 -78 -94.5t-27 -91.5q0 -38 16.5 -73t37 -57.5t37 -53t16.5 -60.5q0 -46 -40 -87.5t-108 -41.5q-87 0 -137.5 72t-50.5 164z" />
<glyph unicode="&#x2019;" horiz-adv-x="606" d="M119 1006l35 34q50 50 77 94t27 93q0 38 -16.5 73t-36.5 57.5t-36.5 52.5t-16.5 60q0 46 39.5 87.5t107.5 41.5q87 0 137.5 -71.5t50.5 -163.5q0 -96 -46.5 -203.5t-139.5 -189.5l-78 -68z" />
<glyph unicode="&#x201a;" horiz-adv-x="606" d="M119 -309l35 35q51 51 77.5 94.5t26.5 91.5q0 38 -16.5 73t-36.5 57.5t-36.5 53t-16.5 60.5q0 46 39.5 87.5t107.5 41.5q87 0 137.5 -72t50.5 -164q0 -96 -46.5 -203.5t-139.5 -189.5l-78 -68z" />
<glyph unicode="&#x201c;" horiz-adv-x="985" d="M82 1139q0 96 46.5 203.5t139.5 189.5l78 67l105 -102l-35 -35q-51 -51 -78 -94.5t-27 -91.5q0 -38 16.5 -73t37 -57.5t37 -53t16.5 -60.5q0 -46 -40 -87.5t-108 -41.5q-87 0 -137.5 72t-50.5 164zM535 1139q0 96 46.5 203.5t139.5 189.5l78 67l104 -102l-35 -35 q-51 -51 -77.5 -94.5t-26.5 -91.5q0 -38 16.5 -73t36.5 -57.5t36.5 -53t16.5 -60.5q0 -46 -39.5 -87.5t-107.5 -41.5q-87 0 -137.5 72t-50.5 164z" />
<glyph unicode="&#x201d;" horiz-adv-x="985" d="M82 1006l35 34q50 50 77 94t27 93q0 38 -16.5 73t-36.5 57.5t-36.5 52.5t-16.5 60q0 46 39.5 87.5t107.5 41.5q87 0 138 -71.5t51 -163.5q0 -95 -47 -203t-140 -190l-78 -68zM535 1006l34 34q51 51 78 95t27 92q0 38 -16.5 73t-37 57.5t-37 52.5t-16.5 60q0 46 40 87.5 t108 41.5q87 0 137.5 -71.5t50.5 -163.5q0 -96 -46.5 -203.5t-139.5 -189.5l-78 -68z" />
<glyph unicode="&#x201e;" horiz-adv-x="985" d="M82 -309l35 35q51 51 77.5 94.5t26.5 91.5q0 38 -16.5 73t-36.5 57.5t-36.5 53t-16.5 60.5q0 46 39.5 87.5t107.5 41.5q87 0 138 -72t51 -164q0 -95 -47 -203t-140 -190l-78 -68zM535 -309l34 35q51 51 78 94.5t27 91.5q0 38 -16.5 73t-37 57.5t-37 53t-16.5 60.5 q0 46 40 87.5t108 41.5q87 0 137.5 -72t50.5 -164q0 -96 -46.5 -203.5t-139.5 -189.5l-78 -68z" />
<glyph unicode="&#x2022;" horiz-adv-x="1024" d="M154 717q0 149 104.5 253.5t253.5 104.5t253.5 -104.5t104.5 -253.5t-104.5 -254t-253.5 -105t-253.5 105t-104.5 254z" />
<glyph unicode="&#x2026;" horiz-adv-x="2048" d="M184 127q0 66 46 112t112 46t112 -46t46 -112t-46 -112t-112 -46t-112 46t-46 112zM866 127q0 66 46 112t112 46t112 -46t46 -112t-46 -112t-112 -46t-112 46t-46 112zM1548 127q0 66 46 112t112 46t112 -46t46 -112t-46 -112t-112 -46t-112 46t-46 112z" />
<glyph unicode="&#x202f;" horiz-adv-x="384" />
<glyph unicode="&#x2039;" horiz-adv-x="606" d="M86 518v131l274 312l160 -127l-217 -252l217 -256l-160 -123z" />
<glyph unicode="&#x203a;" horiz-adv-x="606" d="M86 330l217 252l-217 256l160 123l274 -316v-131l-274 -311z" />
<glyph unicode="&#x205f;" horiz-adv-x="480" />
<glyph unicode="&#x20ac;" horiz-adv-x="1212" d="M43 522h158q47 -260 192 -399q157 -148 414 -148q191 0 342 68l4 209q-166 -88 -332 -88q-309 0 -391 358h428l78 164h-528v37q0 45 2 63h553l77 164h-604q86 326 379 326q84 0 182 -33v-147h168v280q-201 82 -358 82q-231 0 -387 -141q-154 -136 -207 -367h-92l-78 -164 h143v-100h-65z" />
<glyph unicode="&#x2122;" horiz-adv-x="2027" d="M66 1290v144h679v-144h-249v-708h-181v708h-249zM909 582v852h248l229 -607l230 607h248v-852h-168v671h-4l-248 -671h-115l-248 671h-4v-671h-168z" />
<glyph unicode="&#xe000;" horiz-adv-x="1064" d="M0 0v1065h1065v-1065h-1065z" />
</font>
</defs>
</svg>
