<?xml version="1.0" standalone="no"?>
<!DOCTYPE svg PUBLIC "-//W3C//DTD SVG 1.1//EN" "http://www.w3.org/Graphics/SVG/1.1/DTD/svg11.dtd" >
<svg xmlns="http://www.w3.org/2000/svg">
<metadata></metadata>
<defs>
<font id="caecilia_lt_std55_roman" horiz-adv-x="1138" >
<font-face units-per-em="2048" ascent="1575" descent="-473" />
<missing-glyph horiz-adv-x="569" />
<glyph unicode="&#xfb01;" horiz-adv-x="1290" d="M70 928v129h188l4 149q4 185 127.5 285t323.5 100q47 0 89.5 -3.5t59.5 -6t58 -11.5t43 -9v-140q-117 31 -220 31q-68 0 -120 -11.5t-96.5 -38.5t-69.5 -79t-27 -127l-4 -139h635l-8 -928h168v-129h-484v129h148l8 799h-467l-4 -799h172v-129h-483v129h143l4 799h-188z " />
<glyph unicode="&#xfb02;" horiz-adv-x="1327" d="M70 928v129h188l4 149q4 185 127.5 285t323.5 100q149 0 235 -28l144 12l-9 -1446h158v-129h-471v129h145l9 1305q-85 18 -181 18q-68 0 -120.5 -11.5t-97.5 -38.5t-69.5 -79t-25.5 -127l-4 -139h287v-129h-287l-4 -799h172v-129h-483v129h143l4 799h-188z" />
<glyph horiz-adv-x="2048" />
<glyph horiz-adv-x="2048" />
<glyph unicode="&#xd;" horiz-adv-x="2048" />
<glyph unicode=" "  horiz-adv-x="569" />
<glyph unicode="&#x09;" horiz-adv-x="569" />
<glyph unicode="&#xa0;" horiz-adv-x="569" />
<glyph unicode="!" horiz-adv-x="643" d="M195 102q0 52 37.5 89.5t89.5 37.5t89.5 -37.5t37.5 -89.5t-37.5 -89.5t-89.5 -37.5t-89.5 37.5t-37.5 89.5zM236 1575h188l-21 -1092h-147z" />
<glyph unicode="&#x22;" horiz-adv-x="909" d="M172 1485q0 106 94 106t94 -106q0 -66 -8 -156l-24 -250q-2 -43 -14.5 -66.5t-47.5 -23.5q-24 0 -37.5 13.5t-17.5 30t-6 46.5l-25 250q-8 90 -8 156zM549 1485q0 106 94 106t94 -106q0 -66 -8 -156l-24 -250q-2 -43 -14.5 -66.5t-47.5 -23.5q-24 0 -37.5 13.5t-17.5 30 t-6 46.5l-25 250q-8 90 -8 156z" />
<glyph unicode="#" d="M41 455v116h252l63 291h-225v117h250l100 455h129l-100 -455h231l101 455h129l-101 -455h228v-117h-252l-64 -291h226v-116h-250l-101 -455h-129l101 455h-232l-100 -455h-129l100 455h-227zM422 571h231l64 291h-232z" />
<glyph unicode="$" d="M57 1049q0 122 63.5 216.5t167 143.5t226.5 49v262h129v-262q73 0 186.5 -18t171.5 -43v-289h-151v174q-106 37 -211 37l-4 -510q172 -44 236 -72q145 -64 188 -184q22 -61 22 -141q0 -99 -36 -179t-99.5 -132.5t-144 -84t-174.5 -41.5v-262h-129v262q-78 0 -236 21.5 t-203 46.5v317h168v-198q117 -44 271 -47l4 542q-226 41 -335.5 132t-109.5 260zM233 1065q0 -49 22.5 -89t53.5 -64t72.5 -42.5t69.5 -26t55 -12.5l4 488q-23 0 -52.5 -5t-71 -21.5t-74 -42.5t-56 -74t-23.5 -111zM627 121q33 3 67.5 11.5t73.5 29t68.5 49t49 75.5 t19.5 105q0 60 -23 104.5t-66 71.5t-85.5 42t-99.5 26z" />
<glyph unicode="%" horiz-adv-x="1705" d="M84 1120q0 148 94 243t242 95q139 0 231 -95.5t92 -242.5t-92 -242.5t-231 -95.5q-148 0 -242 95t-94 243zM236 1120q0 -89 46 -149t132 -60t132 60t46 149t-46 149t-132 60t-132 -60t-46 -149zM334 -45l921 1593l105 -69l-922 -1594zM956 313q0 148 94 243t242 95 q139 0 231.5 -95.5t92.5 -242.5t-92.5 -242.5t-231.5 -95.5q-148 0 -242 95t-94 243zM1108 313q0 -89 46 -149t132 -60t132 60t46 149t-46 149t-132 60t-132 -60t-46 -149z" />
<glyph unicode="&#x26;" horiz-adv-x="1593" d="M147 371q0 46 9 88t22 74t38 65t46 55t58.5 51.5t62.5 47t70 47.5q-113 113 -153 186.5t-40 159.5q0 15 1.5 31.5t9 49t21 61t41 61.5t64.5 56t95.5 38.5t130.5 15.5q148 0 240.5 -76t92.5 -221q0 -48 -18.5 -95t-45 -82.5t-69 -73t-76 -61.5t-79.5 -54l415 -420 q47 78 75 161t28 197h-158v129h459v-129h-162q0 -123 -44 -248t-101 -204l98 -88q78 -70 147 -70q8 0 62 6v-129q-60 -6 -78 -6q-33 0 -61 3.5t-53.5 14t-42.5 18t-41.5 27.5t-36.5 30.5t-41 38t-43 40.5q-96 -100 -207 -145.5t-252 -45.5q-102 0 -186.5 26.5t-138.5 68 t-91 95t-52.5 105.5t-15.5 101zM315 399q0 -128 96.5 -206t250.5 -78q195 0 329 145l-448 449q-59 -38 -94.5 -65.5t-69.5 -65t-49 -81t-15 -98.5zM412 1145q0 -27 9 -54.5t17 -45.5t32 -47t32 -37.5t41 -41t35 -34.5q51 34 77 52.5t60 47.5t50 52.5t28 55.5t12 68 q0 80 -54 124t-135 44q-91 0 -147.5 -48.5t-56.5 -135.5z" />
<glyph unicode="'" horiz-adv-x="569" d="M190 1485q0 106 95 106q94 0 94 -106q0 -66 -8 -156l-25 -250q-2 -44 -14 -67t-47 -23t-46.5 22.5t-15.5 67.5l-24 250q-9 101 -9 156z" />
<glyph unicode="(" horiz-adv-x="643" d="M154 530q0 309 88 563t276 521l117 -78q-141 -173 -223 -462.5t-82 -543.5q0 -249 85 -540t220 -465l-117 -78q-188 264 -276 517.5t-88 565.5z" />
<glyph unicode=")" horiz-adv-x="643" d="M8 -475q141 173 223 462t82 543q0 249 -85 540.5t-220 465.5l117 78q188 -264 276 -518t88 -566q0 -309 -88 -562.5t-276 -520.5z" />
<glyph unicode="*" horiz-adv-x="718" d="M53 1155l238 100l-238 99l58 104l213 -141l-29 258h129l-25 -258l209 141l58 -104l-236 -99l236 -100l-58 -104l-209 137l25 -256h-129l29 256l-213 -137z" />
<glyph unicode="+" horiz-adv-x="1228" d="M96 449v139h449v448h139v-448h449v-139h-449v-449h-139v449h-449z" />
<glyph unicode="," horiz-adv-x="569" d="M139 -295l70 84q45 54 45 133q0 30 -9 48t-34 46q-29 32 -40 52t-11 51q0 49 32.5 79.5t83.5 30.5q73 0 113.5 -58.5t40.5 -143.5q0 -104 -37 -185t-114 -155l-62 -60z" />
<glyph unicode="-" horiz-adv-x="833" d="M152 485v152h530v-152h-530z" />
<glyph unicode="." horiz-adv-x="569" d="M158 102q0 52 37 89.5t90 37.5t90 -37.5t37 -89.5t-37 -89.5t-90 -37.5t-90 37.5t-37 89.5z" />
<glyph unicode="/" horiz-adv-x="757" d="M-57 -109l669 1700l129 -49l-669 -1700z" />
<glyph unicode="0" d="M70 692q0 109 14.5 211t50.5 205t91 179t143 123.5t200 47.5q83 0 153 -24t120.5 -65t90.5 -98t65 -120t41.5 -135.5t23 -139t6.5 -135.5q0 -76 -7 -149.5t-24.5 -150.5t-43.5 -144.5t-66 -127t-90.5 -102t-119 -67.5t-149.5 -25q-115 0 -204.5 46t-144 118.5t-89.5 170 t-48 191t-13 191.5zM246 717q0 -59 5 -118t16.5 -130.5t35.5 -131.5t58 -111.5t87.5 -81t120.5 -29.5q58 0 106 22.5t80.5 59.5t58 89.5t40 105.5t24 114.5t12.5 111t3 99.5t-3 99.5t-12.5 111t-24 114.5t-40 105.5t-58 89.5t-80.5 59.5t-106 22.5q-67 0 -120.5 -29.5 t-87.5 -81t-58 -111.5t-35.5 -131.5t-16.5 -130.5t-5 -118z" />
<glyph unicode="1" d="M123 1141l475 293h131l-8 -1305h295v-129h-750v129h287l8 1135h-4q-10 -16 -35 -31l-323 -209z" />
<glyph unicode="2" d="M98 0v119l103 92q17 13 105.5 95.5t210 209.5t175.5 207q68 103 98.5 175.5t30.5 170.5q0 108 -68.5 179t-191.5 71q-49 0 -90 -11.5t-68.5 -27t-50.5 -43t-35.5 -49t-23.5 -56t-15 -51.5t-10 -49h-168q0 35 12.5 83.5t45.5 110t81.5 112t131.5 85.5t184 35 q208 0 321 -112t113 -289q0 -89 -37.5 -188t-88.5 -177.5t-123 -162t-121 -131t-103 -95.5l-188 -166v-4q3 0 32.5 3t45.5 3h634v-139h-942z" />
<glyph unicode="3" d="M113 1077q0 68 26 132.5t78 121.5t144 92t210 35q195 0 296.5 -98t101.5 -246q0 -74 -22 -134.5t-54.5 -98t-74.5 -65t-78 -39.5t-70 -17v-4q165 -18 260.5 -106t95.5 -249q0 -61 -17.5 -119.5t-58.5 -114.5t-101.5 -98t-154.5 -68t-209 -26q-131 0 -231.5 23.5 t-136.5 52.5v166q62 -45 164.5 -73.5t197.5 -28.5q181 0 276 80t95 213q0 50 -15 90t-38 66t-59 45.5t-70 29.5t-79 16t-77.5 7.5t-73.5 1.5h-59v139h57q85 0 155.5 27t113 71t65.5 95.5t23 103.5q0 97 -67.5 158t-174.5 61q-112 0 -195.5 -66t-83.5 -176h-159z" />
<glyph unicode="4" d="M29 430v129l622 875h189l-4 -865h274v-139h-274l-5 -301h170v-129h-495v129h166l4 301h-647zM201 563q41 6 82 6h393l4 674h-4z" />
<glyph unicode="5" d="M135 29v151q43 -21 139.5 -43t167.5 -22q91 0 161.5 22t111.5 55t67.5 77t35.5 83t9 78q0 52 -16.5 95t-42 74t-67 55.5t-79.5 40t-93.5 27t-94.5 16.5t-96.5 8t-86 3.5t-75.5 0.5l8 684h758v-140h-598l-8 -405q71 -3 131 -8.5t131 -19.5t126.5 -34t109.5 -54t90 -78.5 t58 -108.5t22 -142q0 -69 -18.5 -134.5t-60.5 -127t-104 -107t-156 -73t-208 -27.5q-201 0 -322 54z" />
<glyph unicode="6" d="M92 633q0 182 42.5 331t127 260t220 172.5t311.5 61.5q134 0 225 -24l-14 -140q-98 25 -211 25q-130 0 -232.5 -47.5t-166.5 -130.5t-97 -192t-33 -236q70 77 153 122.5t208 45.5q104 0 185.5 -33.5t132.5 -93t77.5 -139t26.5 -173.5q0 -56 -13.5 -115.5t-48 -123.5 t-85 -114t-133 -82t-183.5 -32q-226 0 -359 171.5t-133 486.5zM268 567q0 -64 10 -125t34 -121.5t60 -105t92 -72.5t126 -28q118 0 203.5 85.5t85.5 241.5q0 57 -16.5 108.5t-49.5 95t-91.5 69.5t-135.5 26q-109 0 -194 -55.5t-124 -118.5z" />
<glyph unicode="7" d="M119 1282v152h901v-117l-490 -998q-91 -184 -180 -319h-200q126 177 198 319l440 873q2 4 52 90h-721z" />
<glyph unicode="8" d="M86 338q0 78 26 140.5t77.5 109.5t107 79t135.5 66q-145 65 -221 150.5t-76 214.5q0 157 114 258.5t320 101.5q87 0 164 -19.5t140 -58t100 -104.5t37 -152q0 -130 -75 -216t-224 -160q139 -74 171 -95q120 -78 154 -182q17 -52 17 -115q0 -182 -127.5 -281.5 t-356.5 -99.5q-240 0 -361.5 97.5t-121.5 265.5zM262 348q0 -117 83.5 -175t223.5 -58q86 0 150.5 22.5t99 60.5t50.5 79t16 85q0 129 -176 224l-146 78q-39 -19 -58.5 -29t-57 -31t-58 -37.5t-48.5 -42.5t-42.5 -50.5t-25.5 -57.5t-11 -68zM303 1098q0 -139 166 -226 l106 -57l130 74q137 79 137 219q0 75 -42.5 124.5t-101 68t-129.5 18.5q-110 0 -188 -56.5t-78 -164.5z" />
<glyph unicode="9" d="M92 991q0 56 13.5 115.5t48 123.5t85 114t133 82t183.5 32q226 0 359 -171t133 -486q0 -182 -42.5 -331t-127 -260.5t-220 -173t-311.5 -61.5q-131 0 -225 25l14 139q94 -24 211 -24q130 0 232 47.5t166 130.5t97 192t33 236q-33 -36 -64 -62.5t-74.5 -52.5t-99.5 -39.5 t-122 -13.5q-138 0 -235 58.5t-142 155.5t-45 224zM260 991q0 -57 16.5 -108.5t49.5 -95t91.5 -69.5t135.5 -26q57 0 111 17.5t93.5 45t67.5 56t45 55.5q0 64 -10 125.5t-34 121.5t-59.5 105t-91.5 73t-126 28q-118 0 -203.5 -86t-85.5 -242z" />
<glyph unicode=":" horiz-adv-x="569" d="M158 102q0 52 37 89.5t90 37.5t90 -37.5t37 -89.5t-37 -89.5t-90 -37.5t-90 37.5t-37 89.5zM158 930q0 52 37 89.5t90 37.5t90 -37.5t37 -89.5t-37 -89.5t-90 -37.5t-90 37.5t-37 89.5z" />
<glyph unicode=";" horiz-adv-x="569" d="M139 -295l70 84q45 54 45 133q0 30 -9 48t-34 46q-29 32 -40 52t-11 51q0 49 32.5 79.5t83.5 30.5q73 0 113.5 -58.5t40.5 -143.5q0 -104 -37 -185t-114 -155l-62 -60zM158 930q0 52 37 89.5t90 37.5t90 -37.5t37 -89.5t-37 -89.5t-90 -37.5t-90 37.5t-37 89.5z" />
<glyph unicode="&#x3c;" horiz-adv-x="1228" d="M96 455v129l1037 469v-140l-869 -395l869 -395v-139z" />
<glyph unicode="=" horiz-adv-x="1228" d="M96 244v139h1037v-139h-1037zM96 653v140h1037v-140h-1037z" />
<glyph unicode="&#x3e;" horiz-adv-x="1228" d="M96 -16v139l869 395l-869 395v140l1037 -471v-129z" />
<glyph unicode="?" horiz-adv-x="1024" d="M195 1550q119 41 247 41q101 0 179.5 -25.5t124.5 -63.5t75.5 -89t40 -96t10.5 -90q0 -64 -19.5 -121t-55.5 -102.5t-70.5 -77t-79.5 -64.5l-74 -53q-51 -36 -72.5 -52t-47 -40t-33.5 -44t-8 -46q0 -14 9 -40t23 -42l25 -29l-137 -74q-88 88 -88 189q0 35 8 64t18.5 48.5 t37 44t45 39t61.5 45.5l67 46q215 131 215 292q0 47 -16 88.5t-49 77t-91.5 56t-136.5 20.5q-89 0 -196 -39zM252 102q0 52 37 89.5t90 37.5t90 -37.5t37 -89.5t-37 -89.5t-90 -37.5t-90 37.5t-37 89.5z" />
<glyph unicode="@" horiz-adv-x="1638" d="M78 719q0 155 56.5 291t157 235t245.5 156t315 57q199 0 360.5 -76t255 -216t93.5 -318q0 -114 -34.5 -212t-89 -162.5t-122.5 -110.5t-134.5 -66.5t-125.5 -20.5q-72 0 -107 32.5t-37 86.5h-4q-45 -51 -108 -85t-137 -34q-118 0 -196.5 89.5t-78.5 234.5q0 140 62 265 t164.5 199.5t215.5 74.5q153 0 232 -156l37 117h145l-139 -500q-33 -115 -33 -137q0 -47 68 -47q41 0 84.5 33t79 86.5t58.5 130.5t23 157q0 144 -74 256t-194.5 170t-263.5 58q-130 0 -242.5 -47.5t-190 -128t-121.5 -190t-44 -230.5q0 -133 47 -244.5t127.5 -185 t185.5 -114t222 -40.5q337 0 493 184h168q-81 -152 -253 -244t-408 -92q-158 0 -296.5 51t-241 145t-161.5 235.5t-59 312.5zM547 618q0 -90 41 -140t112 -50q85 0 156 63t107 146.5t36 159.5q0 190 -161 190q-83 0 -151.5 -57.5t-104 -141.5t-35.5 -170z" />
<glyph unicode="A" horiz-adv-x="1517" d="M23 0v129h131l532 1305h188l484 -1305h137v-129h-483v129h151l-153 436h-518l-170 -436h172v-129h-471zM543 694h422l-172 477q-20 59 -29 99h-4q-9 -40 -29 -99z" />
<glyph unicode="B" horiz-adv-x="1290" d="M94 0v129h156l8 1176h-164v129h500q113 0 177 -8.5t122 -36.5q84 -39 132 -117t48 -187q0 -137 -77 -222.5t-201 -106.5v-4h5q93 0 174 -38q83 -39 138 -121.5t55 -193.5q0 -89 -28.5 -159t-76 -114.5t-114.5 -73.5t-137.5 -40.5t-151.5 -11.5h-565zM426 129h133 q38 0 60.5 0.5t62 3t64.5 7t59.5 14t56.5 22.5t46.5 34t38.5 47t23 62t9 80q0 69 -23.5 119.5t-59.5 79.5t-88.5 46t-100 22.5t-105.5 5.5h-172zM430 801h102q59 0 107.5 6t98 23t83.5 44.5t55 74.5t21 110q0 51 -12 91t-28.5 65.5t-44.5 43.5t-50 26.5t-56 13.5t-51.5 5.5 t-46.5 0.5h-174z" />
<glyph unicode="C" horiz-adv-x="1402" d="M102 707q0 154 47.5 287t140.5 238t245.5 165.5t347.5 60.5q108 0 223 -21t194 -51v-327h-159v225q-123 35 -269 35q-267 0 -424 -154t-157 -438q0 -296 150 -454t440 -158q108 0 239 30l8 238h160l-8 -348q-60 -26 -182 -43t-230 -17q-238 0 -408 79t-264 244.5 t-94 408.5z" />
<glyph unicode="D" horiz-adv-x="1554" d="M88 0v129h156l8 1176h-164v129h645q162 0 293 -42.5t226.5 -127t147.5 -218.5t52 -309q0 -186 -55 -327t-158.5 -230.5t-247.5 -134.5t-327 -45h-576zM420 129h221q311 0 463 152q74 74 117 192.5t43 263.5q0 141 -44 256t-122 183q-85 74 -188.5 101.5t-258.5 27.5h-223 z" />
<glyph unicode="E" horiz-adv-x="1175" d="M88 0v129h156l8 1176h-164v129h969v-332h-152v203h-477l-4 -504h450v-129h-450l-4 -543h498l12 223h151l-12 -352h-981z" />
<glyph unicode="F" d="M88 0v129h156l8 1176h-164v129h956l7 -338h-152l-6 209h-465l-4 -527h494v-129h-494l-4 -520h182v-129h-514z" />
<glyph unicode="G" horiz-adv-x="1478" d="M102 707q0 154 45.5 287t136 238t240 165.5t342.5 60.5q129 0 254 -25t180 -51v-323h-151v213q-39 20 -119.5 33.5t-175.5 13.5q-264 0 -413.5 -153t-149.5 -439q0 -296 150 -454t440 -158q140 0 239 30v351h-176v129h496v-129h-160v-461q-60 -26 -182 -43t-230 -17 q-238 0 -408 79t-264 244.5t-94 408.5z" />
<glyph unicode="H" horiz-adv-x="1593" d="M88 0v129h156l8 1176h-164v129h496v-129h-156l-4 -527h745l5 527h-164v129h495v-129h-155l-9 -1176h164v-129h-495v129h155l4 520h-745l-4 -520h164v-129h-496z" />
<glyph unicode="I" horiz-adv-x="684" d="M94 0v129h156l8 1176h-164v129h496v-129h-156l-8 -1176h164v-129h-496z" />
<glyph unicode="J" horiz-adv-x="645" d="M-115 -244q358 171 361 633l8 916h-166v129h494v-129h-152l-8 -912q-2 -157 -28 -271t-85.5 -204.5t-147.5 -158t-222 -132.5z" />
<glyph unicode="K" horiz-adv-x="1441" d="M88 0v129h156l8 1176h-164v129h496v-129h-156l-4 -547l623 547h-175v129h496v-129h-127l-637 -557l649 -619h127v-129h-520v129h168l-604 573l-4 -573h164v-129h-496z" />
<glyph unicode="L" d="M88 0v129h156l8 1176h-164v129h487v-129h-147l-8 -1176h489l13 223h151l-12 -352h-973z" />
<glyph unicode="M" horiz-adv-x="1896" d="M72 0v129h166l12 1176h-178v129h387l461 -1145q2 -4 22 -88h4q18 76 23 88l461 1145h395v-129h-187l13 -1176h174v-129h-496v129h154l4 1051h-4q-19 -69 -35 -111l-434 -1069h-156l-440 1079q-9 20 -29 88h-4l-4 -1038h174v-129h-483z" />
<glyph unicode="N" horiz-adv-x="1630" d="M61 1305v129h342l781 -1049q26 -35 67 -106h4l9 1026h-179v129h484v-129h-154l-8 -1305h-145l-811 1077q-38 55 -56 90h-4l-8 -1038h180v-129h-475v129h156l8 1176h-191z" />
<glyph unicode="O" horiz-adv-x="1556" d="M102 692q0 222 76.5 393.5t231 272t368.5 100.5q132 0 243 -37t190 -102.5t134.5 -156t82 -197t26.5 -224.5q0 -222 -76.5 -393.5t-231 -272t-368.5 -100.5q-132 0 -243 37t-190 102.5t-134.5 156t-82 197t-26.5 224.5zM291 717q0 -121 28 -226.5t85 -191t153 -135 t221 -49.5q101 0 183.5 32.5t138 89t94 133.5t55.5 164t17 183t-17 183t-55.5 164t-94 133.5t-138 89t-183.5 32.5q-125 0 -221 -49.5t-153 -135t-85 -191t-28 -226.5z" />
<glyph unicode="P" horiz-adv-x="1175" d="M88 0v129h156l8 1176h-164v129h494q211 0 329 -66q87 -47 137 -134.5t50 -205.5q0 -106 -35.5 -192t-96 -140.5t-138 -84t-164.5 -29.5h-240l-4 -453h182v-129h-514zM424 711h192q145 0 225.5 80.5t80.5 218.5q0 185 -129 256q-33 19 -72.5 27.5t-69.5 10t-94 1.5h-129z " />
<glyph unicode="Q" horiz-adv-x="1556" d="M102 692q0 222 76.5 393.5t231 272t368.5 100.5q132 0 243 -37t190 -102.5t134.5 -156t82 -197t26.5 -224.5q0 -130 -28 -246t-83 -214t-144 -169t-204 -104v-4q35 -6 99 -34.5t219 -106.5q61 -26 91 -38.5t93.5 -29t114.5 -16.5q24 0 58.5 4t39.5 4l-6 -129 q-36 -18 -123 -18q-89 0 -181.5 34t-371.5 161q-57 26 -88 40q-26 12 -81.5 39t-92.5 44t-47 17q-80 0 -163 25.5t-165.5 82.5t-146 138t-103 203.5t-39.5 267.5zM291 717q0 -121 28 -226.5t85 -191t153 -135t221 -49.5q101 0 183.5 32.5t138 89t94 133.5t55.5 164t17 183 t-17 183t-55.5 164t-94 133.5t-138 89t-183.5 32.5q-125 0 -221 -49.5t-153 -135t-85 -191t-28 -226.5z" />
<glyph unicode="R" horiz-adv-x="1327" d="M94 0v129h156l8 1176h-164v129h479q53 0 97 -2.5t94 -8.5t89.5 -18.5t79.5 -31t69 -47t52 -64.5t34.5 -86.5t11.5 -110.5q0 -168 -99 -270t-237 -117v-4q92 -4 184 -162l121 -209q2 -4 7 -12q65 -109 89 -132q37 -29 90 -30h64v-129h-84q-113 0 -162 24t-106 113 l-138 236q-37 63 -57 96t-45 67.5t-41.5 49.5t-40 28.5t-46.5 17t-56 3.5h-113l-4 -506h166v-129h-498zM430 764h170q146 0 235 69.5t89 215.5q0 61 -17.5 106.5t-47 74t-74 45.5t-92 23.5t-107.5 6.5h-152z" />
<glyph unicode="S" horiz-adv-x="1214" d="M135 47v315h168v-194q90 -53 281 -53q156 0 248 69.5t92 196.5q0 61 -27 106.5t-72.5 73.5t-104.5 49.5t-124.5 39t-130.5 36.5t-124 48.5t-104.5 68.5t-72.5 102.5t-27 145.5q0 57 13.5 109.5t50.5 108.5t94.5 96.5t153.5 66.5t219 26q85 0 203.5 -19t181.5 -48v-289 h-160v178q-38 16 -111.5 27.5t-128.5 11.5q-62 0 -117 -13t-103.5 -40t-77.5 -77.5t-29 -117.5q0 -58 27 -101t72.5 -69.5t104.5 -46.5t124 -37t130 -36t124 -49t104.5 -70.5t72.5 -106t27 -149.5q0 -114 -46 -199.5t-125 -134.5t-173.5 -73t-202.5 -24q-105 0 -189 13.5 t-156 34.5t-85 24z" />
<glyph unicode="T" horiz-adv-x="1368" d="M41 1083l12 351h1262l12 -351h-151l-13 222h-391l-8 -1176h178v-129h-510v129h156l8 1176h-391l-12 -222h-152z" />
<glyph unicode="U" horiz-adv-x="1554" d="M66 1305v129h495v-129h-153q-5 -502 -5 -736q0 -141 15 -220t57 -132q81 -102 309 -102q227 0 320 121q40 53 50.5 136.5t12.5 258.5l4 674h-178v129h496v-129h-158l-4 -777q0 -134 -23.5 -225t-89.5 -172q-128 -156 -436 -156q-182 0 -294 44.5t-177 134.5 q-49 67 -64.5 155.5t-15.5 276.5q0 281 4 719h-165z" />
<glyph unicode="V" horiz-adv-x="1478" d="M4 1305v129h496v-129h-160l389 -1072q1 -2 23 -77h4q2 7 9 34t13 43l385 1072h-172v129h484v-129h-136l-505 -1305h-189l-506 1305h-135z" />
<glyph unicode="W" horiz-adv-x="2199" d="M4 1305v129h496v-129h-162l350 -1088q4 -12 8 -25t8 -28.5t7 -24.5h4q2 7 9 34.5t13 43.5l316 830l-82 258h-154v129h483v-129h-153l326 -1088q6 -16 13 -43.5t9 -34.5h4q1 2 9 32t14 46l372 1088h-182v129h483v-129h-133l-479 -1305h-201l-256 844h-4l-325 -844h-201 l-446 1305h-146z" />
<glyph unicode="X" horiz-adv-x="1441" d="M53 0v129h129l447 594l-408 582h-147v129h520v-129h-168q41 -47 53 -66l262 -385l285 393q21 30 49 58h-170v129h471v-129h-135l-418 -566l426 -610h140v-129h-508v129h161q-28 32 -45 57l-286 420l-308 -424q-15 -19 -45 -53h166v-129h-471z" />
<glyph unicode="Y" horiz-adv-x="1478" d="M16 1305v129h496v-129h-150q31 -31 50 -58l354 -491l346 483q6 9 13 18t12.5 15.5t15 16.5t14.5 16h-176v129h471v-129h-131l-489 -687l-6 -489h161v-129h-487v129h149l7 487l-502 689h-148z" />
<glyph unicode="Z" horiz-adv-x="1327" d="M106 0v121l844 1114q11 15 34.5 40.5t27.5 29.5h-699l-12 -215h-151l12 344h1055v-129l-832 -1102q-18 -25 -63 -74h735l12 217h152l-13 -346h-1102z" />
<glyph unicode="[" horiz-adv-x="643" d="M209 -514l8 2089h361v-129h-193l-8 -1831h192v-129h-360z" />
<glyph unicode="\" horiz-adv-x="757" d="M16 1542l129 49l670 -1700l-129 -49z" />
<glyph unicode="]" horiz-adv-x="643" d="M66 -385h192l8 1831h-192v129h360l-8 -2089h-360v129z" />
<glyph unicode="^" horiz-adv-x="1228" d="M182 686l371 748h123l371 -748h-140l-293 588l-292 -588h-140z" />
<glyph unicode="_" horiz-adv-x="1024" d="M0 -154h1024v-102h-1024v102z" />
<glyph unicode="`" horiz-adv-x="643" d="M8 1552l107 90l377 -323l-101 -86z" />
<glyph unicode="a" horiz-adv-x="1175" d="M129 279q0 62 19.5 111t51 82.5t82.5 57.5t104 38t126.5 21.5t137.5 10t149 2.5v76q0 147 -58 210.5t-184 63.5q-136 0 -235 -43v-164h-152v254q204 82 371 82q211 0 314 -88t103 -293q0 -34 -6 -249t-6 -322h152v-129h-303v43q0 84 20 186h-4q-48 -130 -132.5 -192 t-221.5 -62q-41 0 -81 6.5t-86.5 26.5t-80.5 52t-57 88.5t-23 130.5zM297 287q0 -86 56.5 -134.5t142.5 -48.5q39 0 76.5 8.5t79.5 34.5t73.5 66.5t52.5 110.5t21 161h-1h-1h-2q-224 0 -313 -18q-167 -34 -183 -151q-2 -14 -2 -29z" />
<glyph unicode="b" horiz-adv-x="1214" d="M0 1446v129h348l-4 -555q0 -85 -20 -197h4q33 113 135 185.5t239 72.5q107 0 190 -40t133.5 -110t76.5 -161t26 -199q0 -66 -12 -132t-37.5 -134.5t-70.5 -126.5t-105.5 -104t-149 -72.5t-194.5 -26.5q-51 0 -90 2.5t-82.5 13t-61 15.5t-77 25.5t-78.5 27.5l8 1387h-178z M338 164q79 -28 124 -38.5t101 -10.5q101 0 178 38t122 103t67 143.5t22 167.5q0 186 -82 280.5t-213 94.5q-60 0 -112 -19.5t-97 -61t-72.5 -117.5t-29.5 -179z" />
<glyph unicode="c" horiz-adv-x="1062" d="M96 528q0 116 32.5 211.5t85.5 157.5t123 104.5t142 61t146 18.5q194 0 342 -53v-276h-152v166q-67 24 -176 24q-88 0 -155 -27t-106 -68.5t-64 -99t-33.5 -110t-8.5 -109.5q0 -20 1.5 -41.5t10 -65t23 -80.5t44.5 -80.5t71 -74t106 -51t146 -20.5q49 0 103 10t85 19 t99 30l-9 -147q-171 -52 -305 -52q-121 0 -217 31.5t-157.5 83.5t-102.5 124.5t-57.5 149.5t-16.5 164z" />
<glyph unicode="d" horiz-adv-x="1290" d="M111 485q0 269 146.5 432.5t414.5 163.5q56 0 120 -11.5t99 -35.5l4 412h-211v129h379l-8 -1446h157v-129h-325q0 111 20 213l-4 4q-15 -43 -42 -83t-69 -77t-105 -59.5t-138 -22.5q-92 0 -171 32.5t-139 94.5t-94 160.5t-34 222.5zM287 483q0 -76 18 -141t53.5 -116.5 t93.5 -81t132 -29.5q307 0 307 444v336q-7 3 -30 13t-40.5 16t-54.5 12t-82 6q-189 0 -293 -119t-104 -340z" />
<glyph unicode="e" d="M96 526q0 118 32 218.5t92 175.5t154 118t212 43q86 0 156.5 -22t117 -57t81.5 -85.5t53.5 -100t30 -108.5t14.5 -102.5t3 -91.5h-770q2 -68 15 -125t42.5 -109t74.5 -87.5t113.5 -56.5t156.5 -21q161 0 317 80l-6 -146q-59 -29 -164 -51.5t-184 -22.5 q-256 0 -398.5 139.5t-142.5 411.5zM272 643h594q0 130 -76 219.5t-204 89.5q-133 0 -219.5 -88t-94.5 -221z" />
<glyph unicode="f" horiz-adv-x="757" d="M96 928v129h174v102q0 432 422 432q35 0 105.5 -7.5t95.5 -16.5l-6 -140q-24 10 -75.5 17.5t-96.5 7.5q-73 0 -124.5 -16t-81 -41t-46 -68t-21 -83.5t-4.5 -100.5v-86h273l-2 -129h-271l-4 -799h172v-129h-483v129h143l4 799h-174z" />
<glyph unicode="g" d="M111 -250q0 200 266 260v4q-71 15 -116.5 55.5t-45.5 108.5q0 31 13 56.5t29 40.5t47 28.5t49.5 19t54.5 15.5v4q-27 6 -56 17t-69 38.5t-69.5 64t-51 98.5t-21.5 138q0 165 123.5 274t315.5 109q88 0 182 -24h393v-129h-94q-13 0 -40.5 2t-60 4.5t-40.5 3.5 q100 -98 100 -254q0 -172 -127.5 -274.5t-319.5 -102.5q-19 0 -48 -5.5t-62.5 -16t-56.5 -31t-23 -47.5q0 -38 38 -55t144 -33l283 -47q66 -11 114.5 -28t89 -46t61 -74.5t20.5 -107.5q0 -88 -43.5 -157.5t-117.5 -112t-165 -64t-193 -21.5q-99 0 -186.5 16.5t-159.5 50 t-114.5 90.5t-42.5 132zM270 -223q0 -57 39 -97.5t100.5 -58t113 -24.5t100.5 -7q56 0 110 9.5t109 31t89 65t34 103.5q0 64 -48 93t-133 42l-282 41q-11 0 -45 -12t-77.5 -34t-76.5 -63t-33 -89zM301 696q0 -109 80.5 -184.5t191.5 -75.5q132 0 213.5 76.5t81.5 189.5 q0 41 -16 82.5t-47.5 80t-88 63t-128.5 24.5q-126 0 -206.5 -70t-80.5 -186z" />
<glyph unicode="h" horiz-adv-x="1366" d="M49 1446v129h373l-2 -555q0 -79 -21 -197h4q33 116 141.5 187t233.5 71q363 0 363 -397q0 -92 -4 -283.5t-4 -271.5h155v-129h-459v129h136q0 81 4 250.5t4 255.5q0 29 -1 49.5t-5.5 55.5t-13.5 59.5t-26.5 53.5t-42.5 46.5t-63.5 30t-87.5 12.5q-60 0 -113 -19.5 t-99.5 -61t-73.5 -117.5t-27 -179l-6 -436h155v-129h-475v129h152l8 1317h-205z" />
<glyph unicode="i" horiz-adv-x="643" d="M61 928v129h361l-8 -928h168v-129h-504v129h168l8 799h-193zM190 1464q0 52 37 89.5t90 37.5t90 -37.5t37 -89.5t-37 -89.5t-90 -37.5t-90 37.5t-37 89.5z" />
<glyph unicode="j" horiz-adv-x="643" d="M-113 -403q92 25 158.5 65t118.5 102q55 66 80 181t28 317l9 666h-195v129h363l-9 -793q-2 -170 -22.5 -289.5t-52.5 -189t-84 -129.5q-123 -144 -369 -195zM217 1464q0 52 37.5 89.5t89.5 37.5t89.5 -37.5t37.5 -89.5t-37.5 -89.5t-89.5 -37.5t-89.5 37.5t-37.5 89.5z " />
<glyph unicode="k" horiz-adv-x="1214" d="M49 1446v129h373l-4 -983l403 332v4h-147v129h459v-129h-109l-438 -357l477 -442h115v-129h-459v129h127v4l-428 408l-4 -412h139v-129h-459v129h152l8 1317h-205z" />
<glyph unicode="l" horiz-adv-x="643" d="M49 1446v129h373l-8 -1446h168v-129h-488v129h152l8 1317h-205z" />
<glyph unicode="m" horiz-adv-x="2048" d="M84 928v129h338q0 -83 -6 -127l-17 -107h4q33 116 141.5 187t233.5 71q137 0 217.5 -68.5t102.5 -178.5h4q29 65 45 89q101 158 313 158q363 0 363 -397q0 -92 -4 -283.5t-4 -271.5h155v-129h-459v129h136q1 58 4.5 236.5t3.5 275.5q0 51 -5 91t-19.5 81t-39 68t-67 44 t-99.5 17q-55 0 -105.5 -19.5t-96 -60.5t-73 -117.5t-28.5 -179.5l-4 -436h152v-129h-461v129h135q1 58 4.5 236.5t3.5 275.5q0 51 -4.5 91t-19.5 81t-39.5 68t-66.5 44t-99 17q-55 0 -105.5 -19.5t-96 -60.5t-73 -117.5t-28.5 -179.5l-4 -436h153v-129h-458v129h135l8 799 h-170z" />
<glyph unicode="n" horiz-adv-x="1366" d="M84 928v129h338q0 -83 -6 -127l-17 -107h4q33 116 141.5 187t233.5 71q363 0 363 -397q0 -92 -4 -283.5t-4 -271.5h155v-129h-459v129h136q0 81 4 250.5t4 255.5q0 29 -1 49.5t-5.5 55.5t-13.5 59.5t-26.5 53.5t-42.5 46.5t-63.5 30t-87.5 12.5q-60 0 -113 -19.5 t-99.5 -61t-73.5 -117.5t-27 -179l-4 -436h153v-129h-458v129h135l8 799h-170z" />
<glyph unicode="o" horiz-adv-x="1216" d="M96 500q0 257 137.5 419t374.5 162t374.5 -146t137.5 -378q0 -257 -137.5 -419.5t-374.5 -162.5t-374.5 146.5t-137.5 378.5zM272 528q0 -117 36 -209t113.5 -148t186.5 -56t186.5 56t113.5 148t36 209t-36 209t-113.5 148.5t-186.5 56.5t-186.5 -56.5t-113.5 -148.5 t-36 -209z" />
<glyph unicode="p" horiz-adv-x="1290" d="M61 928v129h349v-37q0 -79 -21 -197h4q33 113 135.5 185.5t239.5 72.5q107 0 190 -40t133.5 -110t76.5 -161t26 -199q0 -66 -12 -132t-37.5 -134.5t-70.5 -126.5t-105.5 -104t-149 -72.5t-194.5 -26.5q-108 0 -217 37l-5 -397h177v-129h-496v129h152l8 1313h-183z M403 164q79 -28 124.5 -38.5t101.5 -10.5q101 0 178 38t122 103t67 143.5t22 167.5q0 186 -82 280.5t-213 94.5q-60 0 -112 -19.5t-97 -61t-72.5 -117.5t-29.5 -179z" />
<glyph unicode="q" horiz-adv-x="1290" d="M111 485q0 275 148 435.5t419 160.5q140 0 317 -57h64l-8 -1409h161v-129h-483v129h154l4 385q0 111 20 213l-4 4q-31 -113 -132 -177.5t-222 -64.5q-60 0 -118 14t-117 51t-103 92.5t-72 146.5t-28 206zM287 483q0 -76 18 -141t53.5 -116.5t93.5 -81t132 -29.5 q307 0 307 469v311q-7 3 -30 13t-40.5 16t-54.5 12t-82 6q-189 0 -293 -119t-104 -340z" />
<glyph unicode="r" horiz-adv-x="872" d="M74 928v129h348v-58q0 -74 -23 -272h7q11 43 19 69t24 67.5t32.5 67t44 56t60 47.5t78.5 29t100 12q16 0 58.5 -5.5t47.5 -10.5l-16 -152q-49 17 -115 17q-78 0 -140 -36t-99 -95t-56.5 -127.5t-21.5 -141.5l-8 -395h178v-129h-496v129h150l8 799h-180z" />
<glyph unicode="s" horiz-adv-x="1024" d="M109 764q0 66 23 121.5t70.5 100.5t129.5 70t192 25q69 0 172 -19t162 -44l8 -254h-151l-8 149q-46 39 -187 39q-44 0 -83.5 -7.5t-77.5 -25t-60.5 -50.5t-22.5 -78q0 -80 63.5 -117t195.5 -60q203 -34 291.5 -103t88.5 -198q0 -72 -25 -132.5t-76 -107t-135.5 -72.5 t-195.5 -26q-89 0 -201.5 19t-160.5 45l-8 270h151l8 -157q45 -22 114 -35t126 -13q60 0 113 16.5t92 58t39 102.5q0 30 -13 54.5t-32.5 41t-50.5 30.5t-60 22t-68 17q-79 17 -130.5 30.5t-104 33t-84 41t-57 52t-36.5 70.5t-11 91z" />
<glyph unicode="t" horiz-adv-x="796" d="M78 928v129h170l8 258l168 10l-8 -268h332v-129h-334q-8 -352 -8 -531v-50.5t1.5 -46t4 -45t7.5 -38t13.5 -35.5t20.5 -27t28 -22.5t37.5 -12.5t48.5 -5q101 0 209 43l-6 -133q-41 -21 -108 -35.5t-130 -14.5q-48 0 -88 8t-68.5 19.5t-51 33t-36.5 39.5t-24.5 47.5 t-15 49t-7 52.5t-3 50t-0.5 48q0 57 1.5 169.5t3.5 250.5t3 186h-168z" />
<glyph unicode="u" horiz-adv-x="1327" d="M63 928v129h338q0 -90 -4 -294t-4 -331q0 -52 4.5 -93t19 -84.5t39.5 -72.5t68.5 -48t102.5 -19q63 0 113.5 20t82.5 48.5t55 75.5t34.5 85.5t17.5 94t7 86t1 75.5v328h-166v129h338l-8 -928h147v-129h-313q0 84 6 127l16 106h-4q-37 -104 -133.5 -181t-222.5 -77 q-88 0 -154.5 22.5t-107.5 60.5t-66.5 94.5t-35 117.5t-9.5 138q0 112 3.5 294.5t4.5 225.5h-170z" />
<glyph unicode="v" horiz-adv-x="1175" d="M20 928v129h435v-129h-127l243 -678q13 -37 23 -90h4q10 53 23 90l249 678h-137v129h422v-129h-117l-364 -928h-168l-367 928h-119z" />
<glyph unicode="w" horiz-adv-x="1781" d="M35 928v129h434v-129h-127l227 -658q23 -69 29 -110h4q6 39 33 110l194 500l-59 158h-117v129h434v-129h-141l223 -658q23 -69 29 -110h4q6 41 29 110l235 658h-141v129h422v-129h-121l-354 -928h-176l-166 485q-22 68 -29 111h-4q-7 -41 -33 -111l-192 -485h-168 l-350 928h-119z" />
<glyph unicode="x" horiz-adv-x="1214" d="M49 0v129h121l342 410l-315 389h-134v129h459v-129h-135v-4q12 -6 33 -31l205 -258l206 258q21 25 33 31v4h-147v129h422v-129h-121l-316 -377l336 -422h127v-129h-458v129h141v4q-12 6 -33 31l-225 282l-223 -282q-21 -25 -33 -31v-4h137v-129h-422z" />
<glyph unicode="y" horiz-adv-x="1175" d="M20 928v129h447v-129h-133l252 -658q21 -63 28 -110h4q6 41 29 110l236 658h-150v129h422v-129h-117l-323 -891q-59 -163 -110 -266.5t-114.5 -176t-138 -103t-174.5 -30.5q-66 0 -125 19v139q56 -18 119 -18q98 0 183.5 64.5t142.5 201.5l34 86l-387 975h-125z" />
<glyph unicode="z" horiz-adv-x="1099" d="M104 0v123l588 704q13 16 29 32t38.5 38t31.5 31h-500l-8 -170h-152l8 299h852v-117l-608 -731q-11 -13 -24.5 -26t-30 -29t-25.5 -25h524l17 178h151l-16 -307h-875z" />
<glyph unicode="{" horiz-adv-x="643" d="M72 461v139h41q61 0 81.5 55.5t20.5 173.5q0 63 2 218t2 219q0 77 13 133.5t33.5 89.5t52.5 53t64.5 26.5t74.5 6.5h114v-129q-80 0 -117 -18t-52 -66.5t-15 -153.5q0 -48 -2 -195.5t-2 -195.5q0 -126 -29 -191t-114 -94v-4q85 -29 114 -94t29 -190q0 -48 -2 -195.5 t-2 -195.5q0 -78 8 -123t31.5 -71.5t58 -35t94.5 -8.5v-129h-114q-54 0 -94 12t-76.5 43t-56 95t-19.5 159q0 63 2 218t2 218q0 118 -20.5 174t-81.5 56h-41z" />
<glyph unicode="|" horiz-adv-x="454" d="M158 -512v2048h139v-2048h-139z" />
<glyph unicode="}" horiz-adv-x="643" d="M72 -385q80 0 117 18t52 66.5t15 153.5q0 48 2 195.5t2 195.5q0 125 29 190t114 94v4q-85 29 -114 94t-29 191q0 48 2 195.5t2 195.5q0 78 -8 123t-31.5 71.5t-58 35t-94.5 8.5v129h114q54 0 94 -12t76.5 -43t56 -95t19.5 -159q0 -64 -2 -219t-2 -218q0 -118 20.5 -173.5 t81.5 -55.5h41v-139h-41q-61 0 -81.5 -56t-20.5 -174q0 -63 -2 -218t-2 -218q0 -77 -13 -133.5t-33.5 -89.5t-52.5 -53t-64.5 -26.5t-74.5 -6.5h-114v129z" />
<glyph unicode="~" horiz-adv-x="1228" d="M141 477q94 180 254 180q86 0 236 -69q5 -2 24.5 -11.5t25.5 -12t23.5 -10t24.5 -10t21.5 -8.5t23.5 -8t21 -5t21.5 -4t19.5 -1q29 0 54 11.5t48 35t38.5 44t37.5 53.5l73 -103q-30 -43 -49.5 -66.5t-52.5 -54t-71.5 -45t-84.5 -14.5q-33 0 -76 11.5t-73 23.5t-82 35 q-54 24 -79.5 35t-64 22.5t-65.5 11.5q-108 0 -174 -143z" />
<glyph unicode="&#xa1;" horiz-adv-x="643" d="M195 975q0 53 37.5 90t89.5 37t89.5 -37t37.5 -90t-37.5 -90t-89.5 -37t-89.5 37t-37.5 90zM219 -498l21 1092h147l21 -1092h-189z" />
<glyph unicode="&#xa2;" d="M117 528q0 105 26.5 193t70.5 148.5t104 105t124 68.5t133 32l5 221h129l-4 -215q67 0 167 -15t150 -38v-276h-139v166q-46 18 -178 24l-5 -827q123 0 306 59l-9 -151q-15 -3 -65 -15t-74.5 -16.5t-69.5 -10t-88 -6.5l-4 -247h-129l4 254q-124 15 -215 66t-141.5 128 t-74 164t-23.5 188zM293 528q0 -151 70 -262t208 -145l4 815q-83 -15 -141.5 -58.5t-87.5 -104.5t-41 -120.5t-12 -124.5z" />
<glyph unicode="&#xa3;" d="M49 0v129h158q35 58 49 128t14 212q0 83 -8 215h-186v129h182q-8 94 -8 148q0 257 127.5 377t386.5 120q73 0 163 -14t160 -41v-318h-151v207q-103 27 -191 27q-52 0 -93 -6.5t-87 -28.5t-76.5 -59.5t-50.5 -104t-20 -157.5q0 -93 8 -150h303v-129h-299q8 -71 8 -231 q0 -228 -63 -324h551l12 215h152l-13 -344h-1028z" />
<glyph unicode="&#xa4;" d="M55 293l115 115q-109 131 -109 309t109 309l-115 115l92 88l113 -113q131 109 309 109q176 0 310 -109l112 113l92 -88l-112 -115q106 -131 106 -309t-106 -309l112 -115l-92 -88l-112 112q-133 -108 -310 -108q-179 0 -309 108l-113 -112zM201 717q0 -159 107.5 -269 t260.5 -110t261 110t108 269t-108 269t-261 110t-260.5 -110t-107.5 -269z" />
<glyph unicode="&#xa5;" d="M12 1305v129h381v-129h-108l305 -549l297 549h-121v129h360v-129h-100l-299 -562h258v-116h-326l-4 -154h330v-117h-330l-4 -227h117v-129h-375v129h107l4 227h-330v117h330l4 154h-334v116h264l-313 562h-113z" />
<glyph unicode="&#xa6;" horiz-adv-x="454" d="M158 -358v716h139v-716h-139zM158 666v716h139v-716h-139z" />
<glyph unicode="&#xa7;" d="M145 -61h160v-170q2 -1 43 -17t88 -26.5t103 -10.5q71 0 132 20t104.5 69t43.5 120q0 31 -8 57t-30.5 50t-43.5 41t-65.5 40.5t-77.5 38.5t-98 44q-52 24 -79.5 37.5t-70 36.5t-64.5 40.5t-50 44t-41.5 52.5t-23 61t-9.5 74q0 97 58 184.5t149 120.5q-81 35 -135 107.5 t-54 160.5q0 92 34.5 160.5t96 107.5t138.5 57.5t171 18.5q185 0 359 -65v-254h-152v145q-96 35 -215 35q-74 0 -128.5 -17.5t-82.5 -46t-40.5 -58t-12.5 -60.5q0 -25 7.5 -47.5t17 -40t32 -36.5t39.5 -31.5t53.5 -32t59 -30.5t70.5 -34l104 -49q44 -23 65.5 -35t55.5 -33.5 t51 -37.5t38.5 -40.5t31 -49t17 -57.5t7.5 -71q0 -48 -13 -89.5t-28.5 -68t-46 -55.5t-48.5 -42t-52 -36q99 -70 140.5 -129.5t41.5 -154.5q0 -77 -26.5 -139.5t-70.5 -103t-104.5 -68t-125 -39t-134.5 -11.5q-47 0 -92 4.5t-77.5 10t-69.5 15.5t-55.5 16t-49 17t-37.5 13 v287zM326 582q0 -26 5 -48t12.5 -39t23 -34t28.5 -28t38 -25.5t42.5 -24t50.5 -25.5l170 -77q29 19 43.5 30t41.5 38t40 61t13 75q0 40 -12.5 71t-40.5 55.5t-52 39.5t-67 37l-185 92q-74 -39 -112.5 -86t-38.5 -112z" />
<glyph unicode="&#xa8;" horiz-adv-x="643" d="M-23 1430q0 51 35 85.5t86 34.5t86 -34.5t35 -85.5t-35 -86t-86 -35t-86 35t-35 86zM424 1430q0 51 35 85.5t86 34.5t86 -34.5t35 -85.5t-35 -86t-86 -35t-86 35t-35 86z" />
<glyph unicode="&#xa9;" horiz-adv-x="1638" d="M78 717q0 151 58.5 288.5t157.5 236.5t236.5 157.5t288.5 58.5q202 0 372.5 -99t270 -269.5t99.5 -372.5t-99.5 -372.5t-270 -270t-372.5 -99.5t-372.5 99.5t-269.5 270t-99 372.5zM217 717q0 -168 80.5 -309t219 -222.5t302.5 -81.5t302.5 81.5t219 222.5t80.5 309 q0 126 -47.5 239.5t-128.5 195t-192.5 129.5t-233.5 48t-233.5 -48t-192.5 -129.5t-128.5 -195t-47.5 -239.5zM424 719q0 205 113.5 325.5t304.5 120.5q141 0 238.5 -80.5t117.5 -226.5h-164q-12 78 -61.5 123t-134.5 45q-120 0 -191.5 -84.5t-71.5 -222.5q0 -140 72 -224.5 t193 -84.5q79 0 136 46t64 132h164q-25 -148 -126.5 -233t-250.5 -85q-182 0 -292.5 122t-110.5 327z" />
<glyph unicode="&#xaa;" horiz-adv-x="765" d="M61 977q0 44 15.5 77t47 54t68.5 35t91.5 20.5t103 8.5t115.5 2v53q0 71 -36.5 105t-115.5 34q-87 0 -153 -27v-98h-105v168q139 49 248 49q142 0 210 -53t68 -176q0 -23 -4 -146.5t-4 -175.5h95v-92h-207v21q0 40 14 98h-4q-22 -58 -78.5 -96.5t-144.5 -38.5 q-30 0 -57.5 3.5t-59 15.5t-54.5 30.5t-38 51.5t-15 77zM190 981q0 -38 36.5 -64t82.5 -26q30 0 60 9t62 30t51.5 64t19.5 102q-37 0 -56.5 -0.5t-54 -1.5t-53.5 -4t-46.5 -8t-42.5 -14t-30.5 -20.5t-22 -28.5t-6.5 -38z" />
<glyph unicode="&#xab;" horiz-adv-x="1024" d="M117 504v114l268 302l117 -93l-234 -266l234 -266l-117 -92zM522 504v114l269 302l116 -93l-233 -266l233 -266l-116 -92z" />
<glyph unicode="&#xac;" horiz-adv-x="1228" d="M96 653v140h1037v-572h-140v432h-897z" />
<glyph unicode="&#xad;" horiz-adv-x="833" d="M152 485v152h530v-152h-530z" />
<glyph unicode="&#xae;" horiz-adv-x="1638" d="M78 717q0 151 58.5 288.5t157.5 236.5t236.5 157.5t288.5 58.5q202 0 372.5 -99t270 -269.5t99.5 -372.5t-99.5 -372.5t-270 -270t-372.5 -99.5t-372.5 99.5t-269.5 270t-99 372.5zM217 717q0 -168 80.5 -309t219 -222.5t302.5 -81.5t302.5 81.5t219 222.5t80.5 309 q0 126 -47.5 239.5t-128.5 195t-192.5 129.5t-233.5 48t-233.5 -48t-192.5 -129.5t-128.5 -195t-47.5 -239.5zM504 293v848h325q160 0 239 -58.5t79 -185.5q0 -200 -217 -242l227 -362h-160l-223 356h-131v-356h-139zM643 778h186q97 0 138 31.5t41 93.5q0 109 -179 109 h-186v-234z" />
<glyph unicode="&#xaf;" horiz-adv-x="643" d="M33 1376v129h577v-129h-577z" />
<glyph unicode="&#xb0;" horiz-adv-x="819" d="M119 1167q0 120 85.5 205.5t205.5 85.5t205 -85.5t85 -205.5t-85 -205t-205 -85t-205.5 85t-85.5 205zM223 1167q0 -76 55 -131t132 -55q76 0 131 54.5t55 131.5t-55 132t-131 55t-131.5 -55t-55.5 -132z" />
<glyph unicode="&#xb1;" horiz-adv-x="1228" d="M96 0v139h1037v-139h-1037zM96 555v139h449v342h139v-342h449v-139h-449v-342h-139v342h-449z" />
<glyph unicode="&#xb2;" horiz-adv-x="739" d="M61 1190q0 117 89.5 192.5t224.5 75.5q139 0 214 -65.5t75 -167.5q0 -63 -22 -121.5t-69.5 -118t-92 -104.5t-118.5 -111l-90 -80v-4h406v-104h-615v80l115 96q346 293 346 454q0 58 -42.5 93.5t-116.5 35.5q-156 0 -175 -151h-129z" />
<glyph unicode="&#xb3;" horiz-adv-x="739" d="M66 1217q0 46 17.5 87.5t53 76.5t98.5 56t146 21q133 0 200.5 -58.5t67.5 -148.5q0 -54 -20.5 -96t-54 -65t-65 -35t-63.5 -15v-4q111 -9 174.5 -62t63.5 -149q0 -48 -19.5 -92t-59 -83t-112 -62t-167.5 -23q-92 0 -158.5 14t-91.5 31v123q40 -27 106 -44t129 -19 q111 1 172.5 48t61.5 116q0 45 -25.5 75t-70.5 42t-81 16t-83 4h-37v104h35q106 0 166.5 49t60.5 107q0 52 -42.5 87.5t-102.5 35.5q-68 0 -119 -37.5t-51 -99.5h-129z" />
<glyph unicode="&#xb4;" horiz-adv-x="643" d="M152 1319l376 323l107 -90l-383 -319z" />
<glyph unicode="&#xb5;" horiz-adv-x="1327" d="M63 928v129h338q0 -90 -4 -294t-4 -331q0 -52 4.5 -93t19 -84.5t39.5 -72.5t68.5 -48t102.5 -19q63 0 113.5 20t82.5 48.5t55 75.5t34.5 85.5t17.5 94t7 86t1 75.5v328h-166v129h338l-8 -928h147v-129h-313q0 84 6 127l16 106h-4q-37 -104 -133.5 -181t-222.5 -77 q-131 0 -201 70l-4 -584h-176l16 1467h-170z" />
<glyph unicode="&#xb6;" horiz-adv-x="1228" d="M117 1049q0 197 125.5 291t343.5 94h467v-1833h-168v1693h-215v-1693h-168v1075q-160 0 -272.5 107t-112.5 266z" />
<glyph unicode="&#xb7;" horiz-adv-x="569" d="M158 588q0 52 37 89.5t90 37.5t90 -37.5t37 -89.5t-37 -89.5t-90 -37.5t-90 37.5t-37 89.5z" />
<glyph unicode="&#xb8;" horiz-adv-x="643" d="M123 -446l12 106q78 -33 156 -33q25 0 43.5 2.5t39.5 9.5t32.5 23t11.5 41q0 84 -101 84q-10 0 -55 -10v223h117v-139q86 0 135 -35q55 -42 55 -123q0 -45 -18 -78.5t-45 -52.5t-64 -30.5t-69 -15t-66 -3.5q-45 0 -101.5 10t-82.5 21z" />
<glyph unicode="&#xb9;" horiz-adv-x="739" d="M78 1266l309 176h113l-8 -756h170v-104h-486v104h176l8 623l-233 -135z" />
<glyph unicode="&#xba;" horiz-adv-x="741" d="M29 1128q0 142 92 236t250 94t250 -94t92 -236q0 -141 -92 -235t-250 -94t-250 94t-92 235zM158 1128q0 -93 57 -165t156 -72t156 72t57 165t-57 165.5t-156 72.5t-156 -72.5t-57 -165.5z" />
<glyph unicode="&#xbb;" horiz-adv-x="1024" d="M117 295l233 266l-233 266l116 93l269 -302v-114l-269 -301zM522 295l234 266l-234 266l117 93l268 -302v-114l-268 -301z" />
<glyph unicode="&#xbc;" horiz-adv-x="1708" d="M66 1266l309 176h112l-8 -756h170v-104h-485v104h176l8 623l-233 -135zM367 -45l921 1593l105 -69l-922 -1594zM911 254v80l398 526h188l-4 -502h164v-104h-164l-4 -150h98v-104h-332v104h95l4 150h-443zM1071 358h283l4 373h-4z" />
<glyph unicode="&#xbd;" horiz-adv-x="1708" d="M66 1266l309 176h112l-8 -756h170v-104h-485v104h176l8 623l-233 -135zM367 -45l921 1593l105 -69l-922 -1594zM1026 608q0 118 89 193.5t224 75.5q139 0 214 -66t75 -168q0 -63 -22 -122t-69 -118t-91.5 -104t-118.5 -111l-90 -79v-5h405v-104h-614v80l115 96 q346 293 346 455q0 58 -43 93.5t-117 35.5q-154 0 -174 -152h-129z" />
<glyph unicode="&#xbe;" horiz-adv-x="1708" d="M90 1217q0 99 78 170t238 71q133 0 200.5 -58.5t67.5 -148.5q0 -54 -20.5 -96t-54 -65t-65 -35t-63.5 -15v-4q111 -9 174.5 -62t63.5 -149q0 -48 -19.5 -92t-59.5 -83t-112.5 -62t-167.5 -23q-92 0 -158.5 14t-91.5 31v123q40 -27 106.5 -44t129.5 -19q111 1 172 48 t61 116q0 45 -25.5 75t-70.5 42t-81 16t-83 4h-37v104h35q106 0 167 49t61 107q0 52 -42.5 87.5t-103.5 35.5q-68 0 -119 -37.5t-51 -99.5h-129zM367 -45l921 1593l105 -69l-922 -1594zM911 254v80l398 526h188l-4 -502h164v-104h-164l-4 -150h98v-104h-332v104h95l4 150 h-443zM1071 358h283l4 373h-4z" />
<glyph unicode="&#xbf;" horiz-adv-x="1024" d="M152 -150q0 64 19.5 121t55.5 102.5t70.5 77t79.5 64.5l74 53q50 35 72.5 52t47 40.5t33 44t8.5 46.5q0 14 -9 39.5t-23 41.5l-25 29l137 74q88 -88 88 -189q0 -35 -8 -64t-18.5 -48.5t-37 -44t-45 -39t-61.5 -45.5l-67 -45q-215 -131 -215 -293q0 -47 16 -88.5t49 -77 t91.5 -56t136.5 -20.5q89 0 196 39l12 -137q-119 -41 -247 -41q-101 0 -179.5 25.5t-124.5 63.5t-75.5 89t-40 96t-10.5 90zM518 975q0 53 37 90t90 37t90 -37t37 -90t-37 -90t-90 -37t-90 37t-37 90z" />
<glyph unicode="&#xc0;" horiz-adv-x="1517" d="M23 0v129h131l532 1305h188l484 -1305h137v-129h-483v129h151l-153 436h-518l-170 -436h172v-129h-471zM446 1806l107 90l377 -323l-101 -86zM543 694h422l-172 477q-20 59 -29 99h-4q-9 -40 -29 -99z" />
<glyph unicode="&#xc1;" horiz-adv-x="1517" d="M23 0v129h131l532 1305h188l484 -1305h137v-129h-483v129h151l-153 436h-518l-170 -436h172v-129h-471zM543 694h422l-172 477q-20 59 -29 99h-4q-9 -40 -29 -99zM590 1573l377 323l106 -90l-383 -319z" />
<glyph unicode="&#xc2;" horiz-adv-x="1517" d="M23 0v129h131l532 1305h188l484 -1305h137v-129h-483v129h151l-153 436h-518l-170 -436h172v-129h-471zM408 1593l294 283h115l295 -283l-100 -86l-252 252l-252 -252zM543 694h422l-172 477q-20 59 -29 99h-4q-9 -40 -29 -99z" />
<glyph unicode="&#xc3;" horiz-adv-x="1517" d="M23 0v129h131l532 1305h188l484 -1305h137v-129h-483v129h151l-153 436h-518l-170 -436h172v-129h-471zM393 1640q44 87 94 125.5t134 38.5q51 0 85.5 -12t84.5 -41q86 -47 112 -47t51 15.5t39.5 31.5t34.5 43l98 -70q-4 -5 -11 -14q-28 -36 -43.5 -53.5t-42 -40t-56 -32 t-66.5 -9.5q-55 0 -91 13.5t-91 47.5q-67 39 -96 39q-72 0 -121 -96zM543 694h422l-172 477q-20 59 -29 99h-4q-9 -40 -29 -99z" />
<glyph unicode="&#xc4;" horiz-adv-x="1517" d="M23 0v129h131l532 1305h188l484 -1305h137v-129h-483v129h151l-153 436h-518l-170 -436h172v-129h-471zM432 1683q0 51 35 86t86 35t86 -35t35 -86t-35 -85.5t-86 -34.5t-86 34.5t-35 85.5zM543 694h422l-172 477q-20 59 -29 99h-4q-9 -40 -29 -99zM879 1683 q0 51 34.5 86t85.5 35t86 -35t35 -86t-35 -85.5t-86 -34.5t-85.5 34.5t-34.5 85.5z" />
<glyph unicode="&#xc5;" horiz-adv-x="1517" d="M23 0v129h131l532 1305h188l484 -1305h137v-129h-483v129h151l-153 436h-518l-170 -436h172v-129h-471zM543 694h422l-172 477q-20 59 -29 99h-4q-9 -40 -29 -99zM575 1677q0 85 60 145t145 60t145 -60t60 -145t-60 -144.5t-145 -59.5t-145 59.5t-60 144.5zM692 1677 q0 -52 22 -82t66 -30q88 0 88 112q0 113 -88 113q-43 0 -65.5 -31.5t-22.5 -81.5z" />
<glyph unicode="&#xc6;" horiz-adv-x="2009" d="M-6 0v129h129l739 1305h983v-332h-151v203h-447l-4 -541h440v-129h-440l-4 -506h498l12 223h152l-13 -352h-981v129h156l4 506h-492l-276 -506h166v-129h-471zM643 764h424l4 541h-131z" />
<glyph unicode="&#xc7;" horiz-adv-x="1402" d="M102 707q0 154 47.5 287t140.5 238t245.5 165.5t347.5 60.5q108 0 223 -21t194 -51v-327h-159v225q-123 35 -269 35q-267 0 -424 -154t-157 -438q0 -296 150 -454t440 -158q108 0 239 30l8 238h160l-8 -348q-57 -24 -166.5 -41t-208.5 -19v-114q86 0 135 -35 q56 -43 56 -123q0 -45 -18 -78.5t-45 -52.5t-64 -30.5t-69 -15t-66 -3.5q-45 0 -102 10t-83 21l13 106q78 -33 155 -33q25 0 43.5 2.5t39.5 9.5t32.5 23t11.5 41q0 84 -100 84q-11 0 -56 -10v203q-327 21 -506.5 204t-179.5 523z" />
<glyph unicode="&#xc8;" horiz-adv-x="1175" d="M88 0v129h156l8 1176h-164v129h969v-332h-152v203h-477l-4 -504h450v-129h-450l-4 -543h498l12 223h151l-12 -352h-981zM274 1806l107 90l377 -323l-101 -86z" />
<glyph unicode="&#xc9;" horiz-adv-x="1175" d="M88 0v129h156l8 1176h-164v129h969v-332h-152v203h-477l-4 -504h450v-129h-450l-4 -543h498l12 223h151l-12 -352h-981zM418 1573l377 323l106 -90l-383 -319z" />
<glyph unicode="&#xca;" horiz-adv-x="1175" d="M88 0v129h156l8 1176h-164v129h969v-332h-152v203h-477l-4 -504h450v-129h-450l-4 -543h498l12 223h151l-12 -352h-981zM236 1593l294 283h115l295 -283l-100 -86l-252 252l-252 -252z" />
<glyph unicode="&#xcb;" horiz-adv-x="1175" d="M88 0v129h156l8 1176h-164v129h969v-332h-152v203h-477l-4 -504h450v-129h-450l-4 -543h498l12 223h151l-12 -352h-981zM244 1683q0 51 35 86t86 35t85.5 -35t34.5 -86t-34.5 -85.5t-85.5 -34.5t-86 34.5t-35 85.5zM690 1683q0 51 35 86t86 35t86 -35t35 -86t-35 -85.5 t-86 -34.5t-86 34.5t-35 85.5z" />
<glyph unicode="&#xcc;" horiz-adv-x="684" d="M29 1806l106 90l377 -323l-100 -86zM94 0v129h156l8 1176h-164v129h496v-129h-156l-8 -1176h164v-129h-496z" />
<glyph unicode="&#xcd;" horiz-adv-x="684" d="M94 0v129h156l8 1176h-164v129h496v-129h-156l-8 -1176h164v-129h-496zM172 1573l377 323l106 -90l-383 -319z" />
<glyph unicode="&#xce;" horiz-adv-x="684" d="M-10 1593l295 283h114l295 -283l-100 -86l-252 252l-252 -252zM94 0v129h156l8 1176h-164v129h496v-129h-156l-8 -1176h164v-129h-496z" />
<glyph unicode="&#xcf;" horiz-adv-x="684" d="M-2 1683q0 51 35 86t86 35t86 -35t35 -86t-35 -85.5t-86 -34.5t-86 34.5t-35 85.5zM94 0v129h156l8 1176h-164v129h496v-129h-156l-8 -1176h164v-129h-496zM444 1683q0 51 35 86t86 35t86 -35t35 -86t-35 -85.5t-86 -34.5t-86 34.5t-35 85.5z" />
<glyph unicode="&#xd0;" horiz-adv-x="1554" d="M88 0v129h156l4 569h-160v129h160l4 478h-164v129h645q162 0 293 -42.5t226.5 -127t147.5 -218.5t52 -309q0 -186 -55 -327t-158.5 -230.5t-247.5 -134.5t-327 -45h-576zM420 129h221q311 0 463 152q74 74 117 192.5t43 263.5q0 141 -44 256t-122 183 q-85 74 -188.5 101.5t-258.5 27.5h-223l-4 -478h444v-129h-444z" />
<glyph unicode="&#xd1;" horiz-adv-x="1630" d="M61 1305v129h342l781 -1049q26 -35 67 -106h4l9 1026h-179v129h484v-129h-154l-8 -1305h-145l-811 1077q-38 55 -56 90h-4l-8 -1038h180v-129h-475v129h156l8 1176h-191zM473 1640q44 87 93.5 125.5t133.5 38.5q51 0 85.5 -12t84.5 -41q86 -47 113 -47q26 0 51 15.5 t39.5 31.5t34.5 43l98 -70q-4 -5 -11 -14q-28 -36 -43.5 -53.5t-42 -40t-56 -32t-66.5 -9.5q-55 0 -91 13.5t-91 47.5q-67 39 -96 39q-72 0 -121 -96z" />
<glyph unicode="&#xd2;" horiz-adv-x="1556" d="M102 692q0 222 76.5 393.5t231 272t368.5 100.5q132 0 243 -37t190 -102.5t134.5 -156t82 -197t26.5 -224.5q0 -222 -76.5 -393.5t-231 -272t-368.5 -100.5q-132 0 -243 37t-190 102.5t-134.5 156t-82 197t-26.5 224.5zM291 717q0 -121 28 -226.5t85 -191t153 -135 t221 -49.5q101 0 183.5 32.5t138 89t94 133.5t55.5 164t17 183t-17 183t-55.5 164t-94 133.5t-138 89t-183.5 32.5q-125 0 -221 -49.5t-153 -135t-85 -191t-28 -226.5zM465 1806l106 90l377 -323l-100 -86z" />
<glyph unicode="&#xd3;" horiz-adv-x="1556" d="M102 692q0 222 76.5 393.5t231 272t368.5 100.5q132 0 243 -37t190 -102.5t134.5 -156t82 -197t26.5 -224.5q0 -222 -76.5 -393.5t-231 -272t-368.5 -100.5q-132 0 -243 37t-190 102.5t-134.5 156t-82 197t-26.5 224.5zM291 717q0 -121 28 -226.5t85 -191t153 -135 t221 -49.5q101 0 183.5 32.5t138 89t94 133.5t55.5 164t17 183t-17 183t-55.5 164t-94 133.5t-138 89t-183.5 32.5q-125 0 -221 -49.5t-153 -135t-85 -191t-28 -226.5zM608 1573l377 323l107 -90l-383 -319z" />
<glyph unicode="&#xd4;" horiz-adv-x="1556" d="M102 692q0 222 76.5 393.5t231 272t368.5 100.5q132 0 243 -37t190 -102.5t134.5 -156t82 -197t26.5 -224.5q0 -222 -76.5 -393.5t-231 -272t-368.5 -100.5q-132 0 -243 37t-190 102.5t-134.5 156t-82 197t-26.5 224.5zM291 717q0 -121 28 -226.5t85 -191t153 -135 t221 -49.5q101 0 183.5 32.5t138 89t94 133.5t55.5 164t17 183t-17 183t-55.5 164t-94 133.5t-138 89t-183.5 32.5q-125 0 -221 -49.5t-153 -135t-85 -191t-28 -226.5zM426 1593l295 283h115l294 -283l-100 -86l-252 252l-252 -252z" />
<glyph unicode="&#xd5;" horiz-adv-x="1556" d="M102 692q0 222 76.5 393.5t231 272t368.5 100.5q132 0 243 -37t190 -102.5t134.5 -156t82 -197t26.5 -224.5q0 -222 -76.5 -393.5t-231 -272t-368.5 -100.5q-132 0 -243 37t-190 102.5t-134.5 156t-82 197t-26.5 224.5zM291 717q0 -121 28 -226.5t85 -191t153 -135 t221 -49.5q101 0 183.5 32.5t138 89t94 133.5t55.5 164t17 183t-17 183t-55.5 164t-94 133.5t-138 89t-183.5 32.5q-125 0 -221 -49.5t-153 -135t-85 -191t-28 -226.5zM412 1640q44 87 93.5 125.5t133.5 38.5q51 0 85.5 -12t84.5 -41q86 -47 113 -47q26 0 51 15.5t39.5 31.5 t34.5 43l98 -70q-4 -5 -11 -14q-28 -36 -43.5 -53.5t-42 -40t-56 -32t-66.5 -9.5q-55 0 -92 13.5t-91 47.5q-67 39 -96 39q-72 0 -121 -96z" />
<glyph unicode="&#xd6;" horiz-adv-x="1556" d="M102 692q0 222 76.5 393.5t231 272t368.5 100.5q132 0 243 -37t190 -102.5t134.5 -156t82 -197t26.5 -224.5q0 -222 -76.5 -393.5t-231 -272t-368.5 -100.5q-132 0 -243 37t-190 102.5t-134.5 156t-82 197t-26.5 224.5zM291 717q0 -121 28 -226.5t85 -191t153 -135 t221 -49.5q101 0 183.5 32.5t138 89t94 133.5t55.5 164t17 183t-17 183t-55.5 164t-94 133.5t-138 89t-183.5 32.5q-125 0 -221 -49.5t-153 -135t-85 -191t-28 -226.5zM434 1683q0 51 35 86t86 35t86 -35t35 -86t-35 -85.5t-86 -34.5t-86 34.5t-35 85.5zM881 1683 q0 51 34.5 86t85.5 35t86 -35t35 -86t-35 -85.5t-86 -34.5t-85.5 34.5t-34.5 85.5z" />
<glyph unicode="&#xd7;" horiz-adv-x="1228" d="M147 145l373 373l-373 373l95 94l372 -373l373 373l94 -94l-372 -373l372 -373l-94 -94l-373 373l-372 -373z" />
<glyph unicode="&#xd8;" horiz-adv-x="1556" d="M102 692q0 222 76.5 393.5t231 272t368.5 100.5q196 0 340 -80l146 234l106 -70l-145 -235q113 -96 171 -243.5t58 -322.5q0 -222 -76.5 -393.5t-231 -272t-368.5 -100.5q-189 0 -332 76l-153 -246l-107 70l154 248q-116 95 -177 243.5t-61 325.5zM291 717 q0 -287 139 -451l606 981q-109 72 -258 72q-125 0 -221 -49.5t-153 -135t-85 -191t-28 -226.5zM528 184q104 -69 250 -69q101 0 183.5 32.5t138 89t94 133.5t55.5 164t17 183q0 279 -133 442z" />
<glyph unicode="&#xd9;" horiz-adv-x="1554" d="M66 1305v129h495v-129h-153q-5 -502 -5 -736q0 -141 15 -220t57 -132q81 -102 309 -102q227 0 320 121q40 53 50.5 136.5t12.5 258.5l4 674h-178v129h496v-129h-158l-4 -777q0 -134 -23.5 -225t-89.5 -172q-128 -156 -436 -156q-182 0 -294 44.5t-177 134.5 q-49 67 -64.5 155.5t-15.5 276.5q0 281 4 719h-165zM465 1806l106 90l377 -323l-100 -86z" />
<glyph unicode="&#xda;" horiz-adv-x="1554" d="M66 1305v129h495v-129h-153q-5 -502 -5 -736q0 -141 15 -220t57 -132q81 -102 309 -102q227 0 320 121q40 53 50.5 136.5t12.5 258.5l4 674h-178v129h496v-129h-158l-4 -777q0 -134 -23.5 -225t-89.5 -172q-128 -156 -436 -156q-182 0 -294 44.5t-177 134.5 q-49 67 -64.5 155.5t-15.5 276.5q0 281 4 719h-165zM608 1573l377 323l107 -90l-383 -319z" />
<glyph unicode="&#xdb;" horiz-adv-x="1554" d="M66 1305v129h495v-129h-153q-5 -502 -5 -736q0 -141 15 -220t57 -132q81 -102 309 -102q227 0 320 121q40 53 50.5 136.5t12.5 258.5l4 674h-178v129h496v-129h-158l-4 -777q0 -134 -23.5 -225t-89.5 -172q-128 -156 -436 -156q-182 0 -294 44.5t-177 134.5 q-49 67 -64.5 155.5t-15.5 276.5q0 281 4 719h-165zM426 1593l295 283h115l294 -283l-100 -86l-252 252l-252 -252z" />
<glyph unicode="&#xdc;" horiz-adv-x="1554" d="M66 1305v129h495v-129h-153q-5 -502 -5 -736q0 -141 15 -220t57 -132q81 -102 309 -102q227 0 320 121q40 53 50.5 136.5t12.5 258.5l4 674h-178v129h496v-129h-158l-4 -777q0 -134 -23.5 -225t-89.5 -172q-128 -156 -436 -156q-182 0 -294 44.5t-177 134.5 q-49 67 -64.5 155.5t-15.5 276.5q0 281 4 719h-165zM434 1683q0 51 35 86t86 35t86 -35t35 -86t-35 -85.5t-86 -34.5t-86 34.5t-35 85.5zM881 1683q0 51 34.5 86t85.5 35t86 -35t35 -86t-35 -85.5t-86 -34.5t-85.5 34.5t-34.5 85.5z" />
<glyph unicode="&#xdd;" horiz-adv-x="1478" d="M16 1305v129h496v-129h-150q31 -31 50 -58l354 -491l346 483q6 9 13 18t12.5 15.5t15 16.5t14.5 16h-176v129h471v-129h-131l-489 -687l-6 -489h161v-129h-487v129h149l7 487l-502 689h-148zM610 1573l377 323l107 -90l-383 -319z" />
<glyph unicode="&#xde;" horiz-adv-x="1175" d="M88 0v129h156l8 1176h-164v129h514v-129h-174v-117h154q211 0 329 -66q87 -47 137 -134.5t50 -205.5q0 -106 -35.5 -192t-96 -140.5t-138 -84t-164.5 -29.5h-244v-207h182v-129h-514zM422 465h194q145 0 225.5 80.5t80.5 218.5q0 185 -129 256q-33 19 -72.5 27.5 t-69.5 10t-94 1.5h-131z" />
<glyph unicode="&#xdf;" horiz-adv-x="1441" d="M70 928v129h184v53q0 62 13 122.5t50.5 127.5t95 116.5t156 82t224.5 32.5q70 0 133 -10t120.5 -33.5t99 -58t66.5 -87.5t25 -118q0 -40 -5.5 -72t-20 -59t-27.5 -45.5t-41.5 -41t-47 -35t-58.5 -37.5q-7 -5 -11 -7q-19 -12 -51 -31.5t-45.5 -28t-36 -23.5t-31.5 -23.5 t-22.5 -21.5t-18 -23.5t-8.5 -24.5t-4 -29q0 -53 36.5 -80.5t123.5 -58.5l141 -51q57 -20 95.5 -41t73 -52.5t51 -77t16.5 -106.5q0 -169 -108.5 -248t-289.5 -79q-172 0 -301 37v274h139v-160q95 -22 170 -22q28 0 55 3.5t60 14.5t57.5 28.5t41 48.5t16.5 71 q0 54 -29.5 91.5t-77 58.5t-104.5 38.5t-114.5 38.5t-105 50t-77 81t-29.5 125q0 34 7.5 63t28 57t38.5 48t58.5 49.5t67 46.5t83.5 53q91 57 118 96t27 97q0 85 -80 135.5t-215 50.5q-59 0 -108.5 -10t-85 -24.5t-63 -40t-45.5 -48t-30.5 -56.5t-18.5 -57t-9 -59.5 t-3.5 -53.5t-0.5 -48l-8 -936h137v-129h-445v129h144l8 799h-184z" />
<glyph unicode="&#xe0;" horiz-adv-x="1175" d="M129 279q0 62 19.5 111t51 82.5t82.5 57.5t104 38t126.5 21.5t137.5 10t149 2.5v76q0 147 -58 210.5t-184 63.5q-136 0 -235 -43v-164h-152v254q204 82 371 82q211 0 314 -88t103 -293q0 -34 -6 -249t-6 -322h152v-129h-303v43q0 84 20 186h-4q-48 -130 -132.5 -192 t-221.5 -62q-41 0 -81 6.5t-86.5 26.5t-80.5 52t-57 88.5t-23 130.5zM274 1552l107 90l377 -323l-101 -86zM297 287q0 -86 56.5 -134.5t142.5 -48.5q39 0 76.5 8.5t79.5 34.5t73.5 66.5t52.5 110.5t21 161h-1h-1h-2q-224 0 -313 -18q-167 -34 -183 -151q-2 -14 -2 -29z" />
<glyph unicode="&#xe1;" horiz-adv-x="1175" d="M129 279q0 62 19.5 111t51 82.5t82.5 57.5t104 38t126.5 21.5t137.5 10t149 2.5v76q0 147 -58 210.5t-184 63.5q-136 0 -235 -43v-164h-152v254q204 82 371 82q211 0 314 -88t103 -293q0 -34 -6 -249t-6 -322h152v-129h-303v43q0 84 20 186h-4q-48 -130 -132.5 -192 t-221.5 -62q-41 0 -81 6.5t-86.5 26.5t-80.5 52t-57 88.5t-23 130.5zM297 287q0 -86 56.5 -134.5t142.5 -48.5q39 0 76.5 8.5t79.5 34.5t73.5 66.5t52.5 110.5t21 161h-1h-1h-2q-224 0 -313 -18q-167 -34 -183 -151q-2 -14 -2 -29zM418 1319l377 323l106 -90l-383 -319z" />
<glyph unicode="&#xe2;" horiz-adv-x="1175" d="M129 279q0 62 19.5 111t51 82.5t82.5 57.5t104 38t126.5 21.5t137.5 10t149 2.5v76q0 147 -58 210.5t-184 63.5q-136 0 -235 -43v-164h-152v254q204 82 371 82q211 0 314 -88t103 -293q0 -34 -6 -249t-6 -322h152v-129h-303v43q0 84 20 186h-4q-48 -130 -132.5 -192 t-221.5 -62q-41 0 -81 6.5t-86.5 26.5t-80.5 52t-57 88.5t-23 130.5zM211 1339l295 283h115l294 -283l-100 -86l-252 252l-252 -252zM297 287q0 -86 56.5 -134.5t142.5 -48.5q39 0 76.5 8.5t79.5 34.5t73.5 66.5t52.5 110.5t21 161h-1h-1h-2q-224 0 -313 -18 q-167 -34 -183 -151q-2 -14 -2 -29z" />
<glyph unicode="&#xe3;" horiz-adv-x="1175" d="M129 279q0 62 19.5 111t51 82.5t82.5 57.5t104 38t126.5 21.5t137.5 10t149 2.5v76q0 147 -58 210.5t-184 63.5q-136 0 -235 -43v-164h-152v254q204 82 371 82q211 0 314 -88t103 -293q0 -34 -6 -249t-6 -322h152v-129h-303v43q0 84 20 186h-4q-48 -130 -132.5 -192 t-221.5 -62q-41 0 -81 6.5t-86.5 26.5t-80.5 52t-57 88.5t-23 130.5zM221 1386q44 87 94 125.5t134 38.5q51 0 85 -12t84 -41q86 -47 113 -47q26 0 51 15.5t39.5 31.5t34.5 43l98 -70q-4 -5 -11 -14q-28 -36 -43.5 -53.5t-42 -40t-56 -32t-66.5 -9.5q-55 0 -91 13.5 t-91 47.5q-67 39 -96 39q-72 0 -121 -96zM297 287q0 -86 56.5 -134.5t142.5 -48.5q39 0 76.5 8.5t79.5 34.5t73.5 66.5t52.5 110.5t21 161h-1h-1h-2q-224 0 -313 -18q-167 -34 -183 -151q-2 -14 -2 -29z" />
<glyph unicode="&#xe4;" horiz-adv-x="1175" d="M129 279q0 62 19.5 111t51 82.5t82.5 57.5t104 38t126.5 21.5t137.5 10t149 2.5v76q0 147 -58 210.5t-184 63.5q-136 0 -235 -43v-164h-152v254q204 82 371 82q211 0 314 -88t103 -293q0 -34 -6 -249t-6 -322h152v-129h-303v43q0 84 20 186h-4q-48 -130 -132.5 -192 t-221.5 -62q-41 0 -81 6.5t-86.5 26.5t-80.5 52t-57 88.5t-23 130.5zM219 1430q0 51 35 85.5t86 34.5t86 -34.5t35 -85.5t-35 -86t-86 -35t-86 35t-35 86zM297 287q0 -86 56.5 -134.5t142.5 -48.5q39 0 76.5 8.5t79.5 34.5t73.5 66.5t52.5 110.5t21 161h-1h-1h-2 q-224 0 -313 -18q-167 -34 -183 -151q-2 -14 -2 -29zM666 1430q0 51 34.5 85.5t85.5 34.5t86 -34.5t35 -85.5t-35 -86t-86 -35t-85.5 35t-34.5 86z" />
<glyph unicode="&#xe5;" horiz-adv-x="1175" d="M129 279q0 62 19.5 111t51 82.5t82.5 57.5t104 38t126.5 21.5t137.5 10t149 2.5v76q0 147 -58 210.5t-184 63.5q-136 0 -235 -43v-164h-152v254q204 82 371 82q211 0 314 -88t103 -293q0 -34 -6 -249t-6 -322h152v-129h-303v43q0 84 20 186h-4q-48 -130 -132.5 -192 t-221.5 -62q-41 0 -81 6.5t-86.5 26.5t-80.5 52t-57 88.5t-23 130.5zM297 287q0 -86 56.5 -134.5t142.5 -48.5q39 0 76.5 8.5t79.5 34.5t73.5 66.5t52.5 110.5t21 161h-1h-1h-2q-224 0 -313 -18q-167 -34 -183 -151q-2 -14 -2 -29zM358 1434q0 85 60 144.5t145 59.5 t145 -59.5t60 -144.5t-60 -145t-145 -60t-145 60t-60 145zM475 1434q0 -52 22 -82.5t66 -30.5q88 0 88 113q0 112 -88 112q-43 0 -65.5 -31t-22.5 -81z" />
<glyph unicode="&#xe6;" horiz-adv-x="1781" d="M106 281q0 51 9.5 91t40.5 82.5t83.5 71t144 49t216.5 25.5l188 8v56q0 157 -69.5 222.5t-216.5 65.5q-92 0 -211 -37l-4 -170h-144l4 267q74 30 183.5 49.5t187.5 19.5q57 0 110.5 -10t106 -33t93 -66.5t59.5 -103.5h4q3 16 14.5 39.5t39 54.5t64 57t95.5 44t129 18 q71 0 131.5 -16t103 -40t76.5 -62.5t55.5 -74.5t37 -85t22.5 -84t11 -83t4.5 -70t0.5 -56l-727 -12q0 -51 2.5 -85t21.5 -96.5t54.5 -101t110 -69.5t178.5 -31q170 0 309 78v-152q-178 -66 -338 -66q-344 0 -432 258h-4q-35 -119 -138.5 -188.5t-238.5 -69.5 q-162 0 -264.5 80.5t-102.5 225.5zM274 287q0 -84 63.5 -133.5t141.5 -49.5q150 0 229.5 92.5t79.5 295.5l-219 -17q-64 -5 -106 -11t-81 -19t-61 -32.5t-34.5 -50.5t-12.5 -75zM948 614l559 13q-4 35 -6.5 56t-11 59.5t-19.5 63t-32 55t-48 48.5t-67 30.5t-90 12.5 q-136 0 -210.5 -84.5t-74.5 -253.5z" />
<glyph unicode="&#xe7;" horiz-adv-x="1062" d="M96 528q0 116 32.5 211.5t85.5 157.5t123 104.5t142 61t146 18.5q194 0 342 -53v-276h-152v166q-67 24 -176 24q-88 0 -155 -27t-106 -68.5t-64 -99t-33.5 -110t-8.5 -109.5q0 -20 1.5 -41.5t10 -65t23 -80.5t44.5 -80.5t71 -74t106 -51t146 -20.5q49 0 103 10t85 19 t99 30l-9 -147q-29 -20 -137 -36t-166 -16v-114q86 0 135 -35q56 -43 56 -123q0 -45 -18 -78.5t-45 -52.5t-64 -30.5t-69 -15t-66 -3.5q-45 0 -102 10t-83 21l13 106q78 -33 155 -33q25 0 43.5 2.5t39.5 9.5t32.5 23t11.5 41q0 84 -100 84q-11 0 -56 -10v207 q-118 17 -205.5 69t-136 128t-71.5 162t-23 185z" />
<glyph unicode="&#xe8;" d="M96 526q0 118 32 218.5t92 175.5t154 118t212 43q86 0 156.5 -22t117 -57t81.5 -85.5t53.5 -100t30 -108.5t14.5 -102.5t3 -91.5h-770q2 -68 15 -125t42.5 -109t74.5 -87.5t113.5 -56.5t156.5 -21q161 0 317 80l-6 -146q-59 -29 -164 -51.5t-184 -22.5 q-256 0 -398.5 139.5t-142.5 411.5zM256 1552l106 90l377 -323l-100 -86zM272 643h594q0 130 -76 219.5t-204 89.5q-133 0 -219.5 -88t-94.5 -221z" />
<glyph unicode="&#xe9;" d="M96 526q0 118 32 218.5t92 175.5t154 118t212 43q86 0 156.5 -22t117 -57t81.5 -85.5t53.5 -100t30 -108.5t14.5 -102.5t3 -91.5h-770q2 -68 15 -125t42.5 -109t74.5 -87.5t113.5 -56.5t156.5 -21q161 0 317 80l-6 -146q-59 -29 -164 -51.5t-184 -22.5 q-256 0 -398.5 139.5t-142.5 411.5zM272 643h594q0 130 -76 219.5t-204 89.5q-133 0 -219.5 -88t-94.5 -221zM399 1319l377 323l107 -90l-383 -319z" />
<glyph unicode="&#xea;" d="M96 526q0 118 32 218.5t92 175.5t154 118t212 43q86 0 156.5 -22t117 -57t81.5 -85.5t53.5 -100t30 -108.5t14.5 -102.5t3 -91.5h-770q2 -68 15 -125t42.5 -109t74.5 -87.5t113.5 -56.5t156.5 -21q161 0 317 80l-6 -146q-59 -29 -164 -51.5t-184 -22.5 q-256 0 -398.5 139.5t-142.5 411.5zM217 1339l295 283h115l295 -283l-101 -86l-252 252l-252 -252zM272 643h594q0 130 -76 219.5t-204 89.5q-133 0 -219.5 -88t-94.5 -221z" />
<glyph unicode="&#xeb;" d="M96 526q0 118 32 218.5t92 175.5t154 118t212 43q86 0 156.5 -22t117 -57t81.5 -85.5t53.5 -100t30 -108.5t14.5 -102.5t3 -91.5h-770q2 -68 15 -125t42.5 -109t74.5 -87.5t113.5 -56.5t156.5 -21q161 0 317 80l-6 -146q-59 -29 -164 -51.5t-184 -22.5 q-256 0 -398.5 139.5t-142.5 411.5zM225 1430q0 51 35 85.5t86 34.5t86 -34.5t35 -85.5t-35 -86t-86 -35t-86 35t-35 86zM272 643h594q0 130 -76 219.5t-204 89.5q-133 0 -219.5 -88t-94.5 -221zM672 1430q0 51 35 85.5t86 34.5t85.5 -34.5t34.5 -85.5t-34.5 -86t-85.5 -35 t-86 35t-35 86z" />
<glyph unicode="&#xec;" horiz-adv-x="643" d="M8 1552l107 90l377 -323l-101 -86zM61 928v129h361l-8 -928h168v-129h-504v129h168l8 799h-193z" />
<glyph unicode="&#xed;" horiz-adv-x="643" d="M61 928v129h361l-8 -928h168v-129h-504v129h168l8 799h-193zM152 1319l376 323l107 -90l-383 -319z" />
<glyph unicode="&#xee;" horiz-adv-x="643" d="M-31 1339l295 283h115l295 -283l-101 -86l-251 252l-252 -252zM61 928v129h361l-8 -928h168v-129h-504v129h168l8 799h-193z" />
<glyph unicode="&#xef;" horiz-adv-x="643" d="M-23 1430q0 51 35 85.5t86 34.5t86 -34.5t35 -85.5t-35 -86t-86 -35t-86 35t-35 86zM61 928v129h361l-8 -928h168v-129h-504v129h168l8 799h-193zM424 1430q0 51 35 85.5t86 34.5t86 -34.5t35 -85.5t-35 -86t-86 -35t-86 35t-35 86z" />
<glyph unicode="&#xf0;" horiz-adv-x="1216" d="M96 500q0 257 137.5 419t374.5 162q141 0 256 -94l4 4q-80 175 -247 342l-224 -119l-78 93l207 108q-87 68 -153 109l139 67q81 -55 145 -106l199 106l78 -92l-182 -96q368 -355 368 -825q0 -272 -136 -437.5t-376 -165.5q-237 0 -374.5 146.5t-137.5 378.5zM272 528 q0 -117 36 -209t113.5 -148t186.5 -56t186.5 56t113.5 148t36 209t-36 209t-113.5 148.5t-186.5 56.5t-186.5 -56.5t-113.5 -148.5t-36 -209z" />
<glyph unicode="&#xf1;" horiz-adv-x="1366" d="M84 928v129h338q0 -83 -6 -127l-17 -107h4q33 116 141.5 187t233.5 71q363 0 363 -397q0 -92 -4 -283.5t-4 -271.5h155v-129h-459v129h136q0 81 4 250.5t4 255.5q0 29 -1 49.5t-5.5 55.5t-13.5 59.5t-26.5 53.5t-42.5 46.5t-63.5 30t-87.5 12.5q-60 0 -113 -19.5 t-99.5 -61t-73.5 -117.5t-27 -179l-4 -436h153v-129h-458v129h135l8 799h-170zM317 1386q44 87 94 125.5t134 38.5q51 0 85.5 -12t84.5 -41q86 -47 112 -47t51 15.5t39.5 31.5t34.5 43l99 -70q-61 -78 -88 -101q-57 -48 -132 -48q-55 0 -91 13.5t-91 47.5q-67 39 -96 39 q-72 0 -121 -96z" />
<glyph unicode="&#xf2;" horiz-adv-x="1216" d="M96 500q0 257 137.5 419t374.5 162t374.5 -146t137.5 -378q0 -257 -137.5 -419.5t-374.5 -162.5t-374.5 146.5t-137.5 378.5zM272 528q0 -117 36 -209t113.5 -148t186.5 -56t186.5 56t113.5 148t36 209t-36 209t-113.5 148.5t-186.5 56.5t-186.5 -56.5t-113.5 -148.5 t-36 -209zM295 1552l106 90l377 -323l-100 -86z" />
<glyph unicode="&#xf3;" horiz-adv-x="1216" d="M96 500q0 257 137.5 419t374.5 162t374.5 -146t137.5 -378q0 -257 -137.5 -419.5t-374.5 -162.5t-374.5 146.5t-137.5 378.5zM272 528q0 -117 36 -209t113.5 -148t186.5 -56t186.5 56t113.5 148t36 209t-36 209t-113.5 148.5t-186.5 56.5t-186.5 -56.5t-113.5 -148.5 t-36 -209zM438 1319l377 323l107 -90l-383 -319z" />
<glyph unicode="&#xf4;" horiz-adv-x="1216" d="M96 500q0 257 137.5 419t374.5 162t374.5 -146t137.5 -378q0 -257 -137.5 -419.5t-374.5 -162.5t-374.5 146.5t-137.5 378.5zM256 1339l295 283h115l295 -283l-101 -86l-252 252l-252 -252zM272 528q0 -117 36 -209t113.5 -148t186.5 -56t186.5 56t113.5 148t36 209 t-36 209t-113.5 148.5t-186.5 56.5t-186.5 -56.5t-113.5 -148.5t-36 -209z" />
<glyph unicode="&#xf5;" horiz-adv-x="1216" d="M96 500q0 257 137.5 419t374.5 162t374.5 -146t137.5 -378q0 -257 -137.5 -419.5t-374.5 -162.5t-374.5 146.5t-137.5 378.5zM242 1386q44 87 93.5 125.5t133.5 38.5q51 0 85.5 -12t84.5 -41q86 -47 113 -47q26 0 51 15.5t39.5 31.5t34.5 43l98 -70q-4 -5 -11 -14 q-28 -36 -43.5 -53.5t-42 -40t-56 -32t-66.5 -9.5q-55 0 -92 13.5t-91 47.5q-67 39 -96 39q-72 0 -121 -96zM272 528q0 -117 36 -209t113.5 -148t186.5 -56t186.5 56t113.5 148t36 209t-36 209t-113.5 148.5t-186.5 56.5t-186.5 -56.5t-113.5 -148.5t-36 -209z" />
<glyph unicode="&#xf6;" horiz-adv-x="1216" d="M96 500q0 257 137.5 419t374.5 162t374.5 -146t137.5 -378q0 -257 -137.5 -419.5t-374.5 -162.5t-374.5 146.5t-137.5 378.5zM264 1430q0 51 35 85.5t86 34.5t86 -34.5t35 -85.5t-35 -86t-86 -35t-86 35t-35 86zM272 528q0 -117 36 -209t113.5 -148t186.5 -56t186.5 56 t113.5 148t36 209t-36 209t-113.5 148.5t-186.5 56.5t-186.5 -56.5t-113.5 -148.5t-36 -209zM711 1430q0 51 34.5 85.5t85.5 34.5t86 -34.5t35 -85.5t-35 -86t-86 -35t-85.5 35t-34.5 86z" />
<glyph unicode="&#xf7;" horiz-adv-x="1228" d="M96 449v139h1037v-139h-1037zM487 102q0 52 37.5 89.5t89.5 37.5t89.5 -37.5t37.5 -89.5t-37.5 -89.5t-89.5 -37.5t-89.5 37.5t-37.5 89.5zM487 934q0 52 37.5 89.5t89.5 37.5t89.5 -37.5t37.5 -89.5t-37.5 -89.5t-89.5 -37.5t-89.5 37.5t-37.5 89.5z" />
<glyph unicode="&#xf8;" horiz-adv-x="1216" d="M96 500q0 257 137.5 419t374.5 162q130 0 230 -47l116 193l105 -62l-117 -194q86 -69 132 -176t46 -238q0 -257 -137.5 -419.5t-374.5 -162.5q-133 0 -233 50l-123 -207l-105 65l125 207q-86 67 -131 173.5t-45 236.5zM272 528q0 -186 86 -295l404 672q-61 37 -154 37 q-109 0 -186.5 -56.5t-113.5 -148.5t-36 -209zM453 154q67 -39 155 -39q109 0 186.5 56t113.5 148t36 209q0 185 -88 299z" />
<glyph unicode="&#xf9;" horiz-adv-x="1327" d="M63 928v129h338q0 -90 -4 -294t-4 -331q0 -52 4.5 -93t19 -84.5t39.5 -72.5t68.5 -48t102.5 -19q63 0 113.5 20t82.5 48.5t55 75.5t34.5 85.5t17.5 94t7 86t1 75.5v328h-166v129h338l-8 -928h147v-129h-313q0 84 6 127l16 106h-4q-37 -104 -133.5 -181t-222.5 -77 q-88 0 -154.5 22.5t-107.5 60.5t-66.5 94.5t-35 117.5t-9.5 138q0 112 3.5 294.5t4.5 225.5h-170zM350 1552l107 90l377 -323l-101 -86z" />
<glyph unicode="&#xfa;" horiz-adv-x="1327" d="M63 928v129h338q0 -90 -4 -294t-4 -331q0 -52 4.5 -93t19 -84.5t39.5 -72.5t68.5 -48t102.5 -19q63 0 113.5 20t82.5 48.5t55 75.5t34.5 85.5t17.5 94t7 86t1 75.5v328h-166v129h338l-8 -928h147v-129h-313q0 84 6 127l16 106h-4q-37 -104 -133.5 -181t-222.5 -77 q-88 0 -154.5 22.5t-107.5 60.5t-66.5 94.5t-35 117.5t-9.5 138q0 112 3.5 294.5t4.5 225.5h-170zM494 1319l376 323l107 -90l-383 -319z" />
<glyph unicode="&#xfb;" horiz-adv-x="1327" d="M63 928v129h338q0 -90 -4 -294t-4 -331q0 -52 4.5 -93t19 -84.5t39.5 -72.5t68.5 -48t102.5 -19q63 0 113.5 20t82.5 48.5t55 75.5t34.5 85.5t17.5 94t7 86t1 75.5v328h-166v129h338l-8 -928h147v-129h-313q0 84 6 127l16 106h-4q-37 -104 -133.5 -181t-222.5 -77 q-88 0 -154.5 22.5t-107.5 60.5t-66.5 94.5t-35 117.5t-9.5 138q0 112 3.5 294.5t4.5 225.5h-170zM311 1339l295 283h115l295 -283l-101 -86l-251 252l-252 -252z" />
<glyph unicode="&#xfc;" horiz-adv-x="1327" d="M63 928v129h338q0 -90 -4 -294t-4 -331q0 -52 4.5 -93t19 -84.5t39.5 -72.5t68.5 -48t102.5 -19q63 0 113.5 20t82.5 48.5t55 75.5t34.5 85.5t17.5 94t7 86t1 75.5v328h-166v129h338l-8 -928h147v-129h-313q0 84 6 127l16 106h-4q-37 -104 -133.5 -181t-222.5 -77 q-88 0 -154.5 22.5t-107.5 60.5t-66.5 94.5t-35 117.5t-9.5 138q0 112 3.5 294.5t4.5 225.5h-170zM319 1430q0 51 35 85.5t86 34.5t86 -34.5t35 -85.5t-35 -86t-86 -35t-86 35t-35 86zM766 1430q0 51 35 85.5t86 34.5t86 -34.5t35 -85.5t-35 -86t-86 -35t-86 35t-35 86z" />
<glyph unicode="&#xfd;" horiz-adv-x="1175" d="M20 928v129h447v-129h-133l252 -658q21 -63 28 -110h4q6 41 29 110l236 658h-150v129h422v-129h-117l-323 -891q-59 -163 -110 -266.5t-114.5 -176t-138 -103t-174.5 -30.5q-66 0 -125 19v139q56 -18 119 -18q98 0 183.5 64.5t142.5 201.5l34 86l-387 975h-125zM459 1319 l377 323l106 -90l-383 -319z" />
<glyph unicode="&#xfe;" horiz-adv-x="1290" d="M66 1446v129h348l-4 -555q0 -79 -21 -197h4q33 113 135.5 185.5t239.5 72.5q107 0 190 -40t133.5 -110t76.5 -161t26 -199q0 -66 -12 -132t-37.5 -134.5t-70.5 -126.5t-105.5 -104t-149 -72.5t-194.5 -26.5q-108 0 -217 37l-5 -397h177v-129h-496v129h152l8 1831h-178z M403 164q79 -28 124.5 -38.5t101.5 -10.5q101 0 178 38t122 103t67 143.5t22 167.5q0 186 -82 280.5t-213 94.5q-60 0 -112 -19.5t-97 -61t-72.5 -117.5t-29.5 -179z" />
<glyph unicode="&#xff;" horiz-adv-x="1175" d="M20 928v129h447v-129h-133l252 -658q21 -63 28 -110h4q6 41 29 110l236 658h-150v129h422v-129h-117l-323 -891q-59 -163 -110 -266.5t-114.5 -176t-138 -103t-174.5 -30.5q-66 0 -125 19v139q56 -18 119 -18q98 0 183.5 64.5t142.5 201.5l34 86l-387 975h-125zM244 1430 q0 51 35 85.5t86 34.5t85.5 -34.5t34.5 -85.5t-34.5 -86t-85.5 -35t-86 35t-35 86zM690 1430q0 51 35 85.5t86 34.5t86 -34.5t35 -85.5t-35 -86t-86 -35t-86 35t-35 86z" />
<glyph unicode="&#x152;" horiz-adv-x="2086" d="M109 705q0 349 214 545t599 196q84 0 161 -6q153 -6 156 -6h715v-332h-152v203h-497l-5 -504h472v-129h-472l-4 -543h519l12 223h151l-12 -352h-735q-87 0 -172 -6q-20 -1 -55.5 -2.5t-65 -2.5t-55.5 -1q-374 0 -574 188t-200 529zM297 709q0 -292 165 -442t460 -150 q26 0 72.5 3.5t83 6.5t42.5 2l8 1176q-114 12 -227 12q-280 0 -442 -159t-162 -449z" />
<glyph unicode="&#x153;" horiz-adv-x="1857" d="M86 528q0 155 60 279.5t177.5 199t274.5 74.5q147 0 235.5 -54.5t141.5 -168.5q12 28 29.5 55.5t48 59t68.5 54.5t92.5 38.5t117.5 15.5q83 0 150.5 -22t112.5 -57t78.5 -85.5t52 -100t30 -108.5t14.5 -103t3 -91h-730q0 -34 1.5 -60t9 -70.5t20.5 -77.5t40 -71t64 -62.5 t95 -41t131 -16.5q161 0 317 80l-6 -146q-59 -29 -164 -51.5t-184 -22.5q-323 0 -410 250h-4q-41 -128 -131.5 -189t-242.5 -61q-238 0 -365 148t-127 405zM262 528q0 -64 10.5 -122t35 -112t62 -93t96 -62.5t132.5 -23.5q63 0 111 17.5t78.5 51t50.5 72.5t29 93.5 t12.5 100.5t3.5 107q0 71 -5.5 123.5t-23.5 104.5t-48.5 84.5t-83 52.5t-124.5 20q-81 0 -147 -35.5t-106 -95t-61.5 -132t-21.5 -151.5zM1042 643h553q0 128 -73.5 218.5t-190.5 90.5q-137 0 -213 -86.5t-76 -222.5z" />
<glyph unicode="&#x178;" horiz-adv-x="1478" d="M16 1305v129h496v-129h-150q31 -31 50 -58l354 -491l346 483q6 9 13 18t12.5 15.5t15 16.5t14.5 16h-176v129h471v-129h-131l-489 -687l-6 -489h161v-129h-487v129h149l7 487l-502 689h-148zM416 1683q0 51 35 86t86 35t85.5 -35t34.5 -86t-34.5 -85.5t-85.5 -34.5 t-86 34.5t-35 85.5zM862 1683q0 51 35 86t86 35t86 -35t35 -86t-35 -85.5t-86 -34.5t-86 34.5t-35 85.5z" />
<glyph unicode="&#x2c6;" horiz-adv-x="643" d="M-31 1339l295 283h115l295 -283l-101 -86l-251 252l-252 -252z" />
<glyph unicode="&#x2dc;" horiz-adv-x="643" d="M-45 1386q44 87 93.5 125.5t133.5 38.5q51 0 85.5 -12t84.5 -41q86 -47 113 -47q26 0 51 15.5t39.5 31.5t34.5 43l98 -70q-4 -5 -11 -14q-28 -36 -43.5 -53.5t-42 -40t-56 -32t-66.5 -9.5q-55 0 -91 13.5t-91 47.5q-67 39 -97 39q-40 0 -68 -24.5t-52 -71.5z" />
<glyph unicode="&#x2000;" horiz-adv-x="948" />
<glyph unicode="&#x2001;" horiz-adv-x="1896" />
<glyph unicode="&#x2002;" horiz-adv-x="948" />
<glyph unicode="&#x2003;" horiz-adv-x="1896" />
<glyph unicode="&#x2004;" horiz-adv-x="632" />
<glyph unicode="&#x2005;" horiz-adv-x="474" />
<glyph unicode="&#x2006;" horiz-adv-x="316" />
<glyph unicode="&#x2007;" horiz-adv-x="316" />
<glyph unicode="&#x2008;" horiz-adv-x="237" />
<glyph unicode="&#x2009;" horiz-adv-x="379" />
<glyph unicode="&#x200a;" horiz-adv-x="105" />
<glyph unicode="&#x2010;" horiz-adv-x="833" d="M152 485v152h530v-152h-530z" />
<glyph unicode="&#x2011;" horiz-adv-x="833" d="M152 485v152h530v-152h-530z" />
<glyph unicode="&#x2012;" horiz-adv-x="833" d="M152 485v152h530v-152h-530z" />
<glyph unicode="&#x2013;" horiz-adv-x="1024" d="M0 492v139h1024v-139h-1024z" />
<glyph unicode="&#x2014;" horiz-adv-x="2048" d="M0 492v139h2048v-139h-2048z" />
<glyph unicode="&#x2018;" horiz-adv-x="569" d="M139 1192q0 113 52 208t163 191l76 -75q-115 -121 -115 -213q0 -38 15 -66t32.5 -42.5t32.5 -39t15 -55.5q0 -50 -30.5 -80.5t-82.5 -30.5q-76 0 -117 59t-41 144z" />
<glyph unicode="&#x2019;" horiz-adv-x="569" d="M141 1065q115 121 115 213q0 31 -9.5 55t-23.5 39t-28 29t-23.5 34t-9.5 46q0 50 30 80t82 30q76 0 117 -58.5t41 -143.5q0 -113 -52 -208.5t-163 -191.5z" />
<glyph unicode="&#x201a;" horiz-adv-x="569" d="M139 -295l70 84q45 54 45 133q0 30 -9 48t-34 46q-29 32 -40 52t-11 51q0 49 32.5 79.5t83.5 30.5q73 0 113.5 -58.5t40.5 -143.5q0 -104 -37 -185t-114 -155l-62 -60z" />
<glyph unicode="&#x201c;" horiz-adv-x="909" d="M113 1192q0 113 52 208t163 191l75 -75q-114 -120 -114 -213q0 -31 9.5 -55t23.5 -39t28 -29t23.5 -34t9.5 -46q0 -50 -30.5 -80.5t-82.5 -30.5q-75 0 -116 59t-41 144zM502 1192q0 113 52 208t163 191l76 -75q-115 -121 -115 -213q0 -31 9.5 -55t23.5 -39t28 -29 t23.5 -34t9.5 -46q0 -50 -30.5 -80.5t-82.5 -30.5q-75 0 -116 59t-41 144z" />
<glyph unicode="&#x201d;" horiz-adv-x="909" d="M117 1065q114 120 114 213q0 31 -9.5 55t-23.5 39t-28 29t-23.5 34t-9.5 46q0 50 30.5 80t82.5 30q76 0 117 -58.5t41 -143.5q0 -113 -52 -208.5t-163 -191.5zM506 1065q115 121 115 213q0 38 -15 66t-32.5 42.5t-32.5 39t-15 55.5q0 50 30.5 80t82.5 30q76 0 117 -58.5 t41 -143.5q0 -113 -52 -208.5t-163 -191.5z" />
<glyph unicode="&#x201e;" horiz-adv-x="909" d="M115 -295l69 84q45 54 45 133q0 30 -9 48t-34 46q-29 32 -40 52t-11 51q0 49 33 79.5t84 30.5q73 0 113.5 -58.5t40.5 -143.5q0 -103 -37.5 -184.5t-114.5 -155.5l-61 -60zM504 -295l69 84q45 54 45 133q0 30 -9 48t-34 46q-29 32 -40 52t-11 51q0 49 33 79.5t84 30.5 q73 0 113.5 -58.5t40.5 -143.5q0 -103 -37.5 -184.5t-114.5 -155.5l-61 -60z" />
<glyph unicode="&#x2022;" horiz-adv-x="1024" d="M154 717q0 149 104.5 253.5t253.5 104.5t253.5 -104.5t104.5 -253.5t-104.5 -254t-253.5 -105t-253.5 105t-104.5 254z" />
<glyph unicode="&#x2026;" horiz-adv-x="2048" d="M215 102q0 52 37.5 89.5t89.5 37.5t89.5 -37.5t37.5 -89.5t-37.5 -89.5t-89.5 -37.5t-89.5 37.5t-37.5 89.5zM897 102q0 52 37.5 89.5t89.5 37.5t89.5 -37.5t37.5 -89.5t-37.5 -89.5t-89.5 -37.5t-89.5 37.5t-37.5 89.5zM1579 102q0 52 37.5 89.5t89.5 37.5t89.5 -37.5 t37.5 -89.5t-37.5 -89.5t-89.5 -37.5t-89.5 37.5t-37.5 89.5z" />
<glyph unicode="&#x202f;" horiz-adv-x="379" />
<glyph unicode="&#x2039;" horiz-adv-x="606" d="M111 504v114l268 302l117 -93l-234 -266l234 -266l-117 -92z" />
<glyph unicode="&#x203a;" horiz-adv-x="606" d="M111 295l233 266l-233 266l116 93l269 -302v-114l-269 -301z" />
<glyph unicode="&#x205f;" horiz-adv-x="474" />
<glyph unicode="&#x20ac;" d="M31 545l59 129h70q-2 6 -2 18v21q0 22 4 84h-131l59 129h92q50 241 213.5 381.5t407.5 140.5q181 0 360 -72l-4 -252h-131v152q-103 35 -221 35q-182 0 -294 -102t-157 -283h680l-57 -129h-643q-4 -28 -4 -41v-41v-21q0 -14 2 -20h604l-59 -129h-531q44 -202 153.5 -313 t305.5 -111q170 0 340 67l-4 -147q-142 -59 -346 -59q-265 0 -427.5 148.5t-199.5 414.5h-139z" />
<glyph unicode="&#x2122;" horiz-adv-x="2027" d="M84 1294v140h680v-140h-252v-712h-176v712h-252zM928 582v852h248l229 -607l229 607h248v-852h-168v671h-4l-248 -671h-114l-248 671h-4v-671h-168z" />
<glyph unicode="&#xe000;" horiz-adv-x="1054" d="M0 0v1055h1055v-1055h-1055z" />
</font>
</defs>
</svg>
