<?xml version="1.0" standalone="no"?>
<!DOCTYPE svg PUBLIC "-//W3C//DTD SVG 1.1//EN" "http://www.w3.org/Graphics/SVG/1.1/DTD/svg11.dtd" >
<svg xmlns="http://www.w3.org/2000/svg">
<metadata></metadata>
<defs>
<font id="caecilia_lt_std85_heavy" horiz-adv-x="606" >
<font-face units-per-em="2048" ascent="1575" descent="-473" />
<missing-glyph horiz-adv-x="500" />
<glyph unicode="&#xfb01;" horiz-adv-x="1327" d="M61 862v209h136q0 73 5 130t18.5 114.5t36.5 99.5t61 79.5t90 61t124.5 37t163.5 13.5q112 0 246 -31v-203q-125 25 -209 25q-76 0 -127 -18t-77 -53t-36 -76t-10 -99v-80h639v-862h123v-209h-526v209h117v653h-353v-653h129v-209h-526v209h111v653h-136z" />
<glyph unicode="&#xfb02;" horiz-adv-x="1366" d="M61 862v209h136q0 103 10 178t39.5 146t80 115t135 70t200.5 26q119 0 217 -31h280v-1366h111v-209h-514v209h116v1169q-68 19 -139 19q-76 0 -127 -18t-77 -53t-36 -76t-10 -99v-80h226v-209h-226v-653h129v-209h-526v209h111v653h-136z" />
<glyph horiz-adv-x="2048" />
<glyph horiz-adv-x="2048" />
<glyph unicode="&#xd;" horiz-adv-x="2048" />
<glyph unicode=" " />
<glyph unicode="!" d="M111 150q0 88 53.5 136t138.5 48t139 -48t54 -136q0 -79 -52 -132t-141 -53t-140.5 52.5t-51.5 132.5zM141 1575h324l-25 -1116h-274z" />
<glyph unicode="&#x22;" horiz-adv-x="681" d="M25 1479q0 53 35.5 90t93.5 37t93.5 -37t35.5 -90q0 -122 -37 -557q-4 -60 -27.5 -83.5t-64.5 -23.5q-42 0 -65.5 24t-27.5 83q-36 423 -36 557zM399 1479q0 53 35.5 90t93.5 37t93.5 -37t35.5 -90q0 -134 -36 -557q-4 -59 -27.5 -83t-65.5 -24q-41 0 -64.5 23.5 t-27.5 83.5q-37 435 -37 557z" />
<glyph unicode="#" horiz-adv-x="1212" d="M100 416v176h201l33 250h-174v176h198l56 416h184l-55 -416h209l55 416h184l-55 -416h176v-176h-201l-32 -250h174v-176h-199l-55 -416h-185l56 416h-209l-58 -416h-184l57 416h-176zM483 592h209l35 250h-209z" />
<glyph unicode="$" horiz-adv-x="1212" d="M35 1020q0 191 124.5 309.5t342.5 138.5v275h196v-275q193 0 398 -63v-350h-246v162q-81 30 -152 30v-375q90 -13 158 -31.5t131 -51.5t103 -78.5t64 -113t24 -155.5q0 -95 -32 -174.5t-82.5 -132t-115 -89t-127.5 -53.5t-123 -18v-274h-196v274q-132 1 -258.5 20 t-202.5 46v385h287v-186q101 -27 174 -31v401q-232 31 -349.5 125.5t-117.5 284.5zM322 1061q0 -126 180 -158v344q-87 -15 -133.5 -65t-46.5 -121zM698 209q86 6 147.5 62.5t61.5 138.5q0 67 -49.5 112t-159.5 56v-369z" />
<glyph unicode="%" horiz-adv-x="1669" d="M57 1137q0 154 101.5 242.5t249.5 88.5q89 0 157 -28.5t106.5 -76.5t57.5 -103t19 -115q0 -158 -101.5 -248t-249.5 -90q-167 0 -253.5 86.5t-86.5 243.5zM266 1130q0 -70 32 -114.5t101 -44.5q74 0 107 51t33 121q0 72 -32.5 117t-100.5 45q-72 0 -106 -49.5t-34 -125.5 zM322 -29l862 1581l164 -90l-863 -1581zM922 295q0 154 101 243t249 89q72 0 130.5 -19t96.5 -51t64 -74.5t37.5 -87.5t11.5 -92q0 -158 -101 -248t-249 -90q-167 0 -253.5 86.5t-86.5 243.5zM1130 289q0 -70 32.5 -115t101.5 -45q74 0 106.5 51t32.5 121q0 72 -32.5 117 t-100.5 45q-72 0 -106 -49t-34 -125z" />
<glyph unicode="&#x26;" horiz-adv-x="1517" d="M96 389q0 137 73 233t212 177q-98 105 -135 175t-37 148q0 143 115.5 239.5t298.5 96.5q179 0 272.5 -88t93.5 -225q0 -203 -268 -363l321 -336q33 46 55.5 117.5t22.5 138.5h-127v197h459v-197h-111q-12 -235 -149 -407q70 -86 182 -86q12 0 72 6v-211q-18 0 -55 -2 t-54 -2q-121 0 -179 22t-120 95q-97 -84 -195 -118t-237 -34q-226 0 -368 116.5t-142 307.5zM367 416q0 -88 76.5 -159t220.5 -71q122 0 223 86l-361 375q-75 -41 -117 -101.5t-42 -129.5zM455 1122q0 -87 125 -190q69 28 122.5 81t53.5 120q0 65 -42.5 97t-105.5 32 q-62 0 -107.5 -35t-45.5 -105z" />
<glyph unicode="'" horiz-adv-x="454" d="M98 1479q0 53 35.5 90t93.5 37t93.5 -37t35.5 -90q0 -122 -37 -557q-4 -60 -27.5 -83.5t-64.5 -23.5t-64.5 23.5t-27.5 83.5q-37 435 -37 557z" />
<glyph unicode="(" d="M68 502q0 305 95 574.5t308 551.5l195 -121q-299 -461 -299 -1018q0 -238 61 -460t215 -478l-209 -118q-200 287 -283 544t-83 525z" />
<glyph unicode=")" d="M-59 -446q299 461 299 1017q0 238 -61.5 460t-215.5 478l209 119q200 -287 283.5 -544.5t83.5 -524.5q0 -304 -95.5 -573.5t-308.5 -552.5z" />
<glyph unicode="*" horiz-adv-x="757" d="M59 1337l93 164l176 -164l4 4l-47 234h188l-47 -234l4 -4l176 164l92 -164l-225 -73v-4l223 -76l-94 -162l-172 162l-4 -4l45 -236h-184l45 236l-4 4l-172 -162l-95 162l224 76v4z" />
<glyph unicode="+" horiz-adv-x="1228" d="M96 408v221h408v407h221v-407h408v-221h-408v-408h-221v408h-408z" />
<glyph unicode="," d="M45 -330q94 74 129 133.5t35 120.5q0 35 -17.5 67.5t-39 54.5t-39 54t-17.5 66q0 76 49.5 122t124.5 46q106 0 166 -85t60 -198q0 -301 -318 -508z" />
<glyph unicode="-" horiz-adv-x="872" d="M137 487v246h598v-246h-598z" />
<glyph unicode="." d="M111 150q0 88 53.5 136t138.5 48t139 -48t54 -136q0 -79 -52 -132t-141 -53t-140.5 52.5t-51.5 132.5z" />
<glyph unicode="/" horiz-adv-x="720" d="M-45 -98l604 1704l207 -74l-604 -1704z" />
<glyph unicode="0" horiz-adv-x="1212" d="M59 678q0 174 31.5 311.5t85 225.5t128.5 146.5t156 82.5t173 24q240 0 380 -192t140 -559q0 -149 -30 -273.5t-82.5 -212t-124.5 -148t-154.5 -89.5t-173.5 -29q-88 0 -162.5 20.5t-143.5 71.5t-117.5 130.5t-77 204.5t-28.5 286zM371 702q0 -276 56.5 -389.5 t180.5 -113.5q47 0 86 23.5t73.5 78.5t54.5 161t20 255q0 126 -13.5 221t-35 150.5t-53 89.5t-61.5 45.5t-67 11.5q-50 0 -91 -25.5t-76 -83t-54.5 -165.5t-19.5 -259z" />
<glyph unicode="1" horiz-adv-x="1212" d="M84 1128l516 306h219v-1225h281v-209h-856v209h276v954q-2 -2 -28.5 -24t-42.5 -33l-248 -166z" />
<glyph unicode="2" horiz-adv-x="1212" d="M49 0v197q61 43 138.5 102.5t189 158t199.5 193t151.5 200.5t63.5 187q0 52 -19 92t-50 62t-64.5 32.5t-67.5 10.5q-106 0 -170.5 -68t-75.5 -174h-287q0 54 14.5 112.5t53.5 125t98 118t157.5 85.5t221.5 34q69 0 135 -13.5t131 -45t113.5 -77.5t78.5 -118t30 -161 q0 -84 -34 -171.5t-87.5 -165t-140.5 -166t-171 -161t-200 -164.5v-4q94 12 147 12h529v-233h-1084z" />
<glyph unicode="3" horiz-adv-x="1212" d="M45 1038q0 58 20 117.5t63 116t104 100t151 70t195 26.5q206 0 335 -99t129 -263q0 -129 -82.5 -227t-211.5 -117v-4q149 -3 250.5 -93t101.5 -253q0 -36 -6 -72.5t-23.5 -82t-45 -85.5t-74.5 -79t-109 -66.5t-152 -44.5t-198 -17q-263 0 -443 86v277q209 -117 420 -117 q161 0 246.5 56t85.5 159q0 53 -25.5 92t-65 61t-98 35.5t-112.5 18t-121 4.5v197q96 0 168.5 21.5t114 58t61.5 79t20 90.5q0 73 -51 118.5t-133 45.5q-93 0 -160 -59.5t-67 -149.5h-287z" />
<glyph unicode="4" horiz-adv-x="1212" d="M31 385v221l571 828h371v-828h250v-221h-250v-176h141v-209h-567v209h139v176h-655zM303 600q41 6 80 6h303v565h-4z" />
<glyph unicode="5" horiz-adv-x="1212" d="M117 29v233q51 -25 161.5 -44t204.5 -19q161 0 238.5 70t77.5 175q0 148 -145.5 207.5t-499.5 61.5v721h882v-209h-596v-291q61 0 119.5 -5t125.5 -18.5t124.5 -34.5t111.5 -56.5t92.5 -81t61.5 -111t23 -144.5q0 -239 -159.5 -378.5t-446.5 -139.5q-192 0 -375 64z" />
<glyph unicode="6" horiz-adv-x="1212" d="M90 645q0 182 45 331t133.5 259.5t228 171.5t320.5 61q173 0 295 -41l-18 -223q-153 56 -260 56q-92 0 -166.5 -28.5t-122.5 -73.5t-83 -108.5t-52.5 -125t-26.5 -131.5l4 -5q128 140 334 140q83 0 159 -28.5t137 -83t97.5 -141.5t36.5 -194q0 -73 -17 -144t-56 -139 t-95.5 -119.5t-142.5 -82.5t-191 -31q-121 0 -221.5 41.5t-176.5 123.5t-118.5 213.5t-42.5 301.5zM389 594q0 -207 72.5 -301t189.5 -94q55 0 98.5 20t67.5 49t39 66.5t20 67.5t5 57q0 114 -70.5 181t-173.5 67q-68 0 -134 -30.5t-114 -82.5z" />
<glyph unicode="7" horiz-adv-x="1212" d="M102 1200v234h1010v-181l-504 -1009q-61 -125 -145 -244h-324q100 146 160 258l436 823q37 69 82 119h-715z" />
<glyph unicode="8" horiz-adv-x="1212" d="M49 342q0 136 89 234.5t253 148.5v4q-146 42 -216.5 136.5t-70.5 219.5q0 167 140.5 275t386.5 108q107 0 193 -22.5t140.5 -58.5t91 -84t51.5 -97t15 -100q0 -137 -70.5 -217.5t-217.5 -140.5v-5q151 -39 240 -135.5t89 -234.5q0 -91 -31.5 -162t-84 -116.5t-127 -75 t-155.5 -42t-175 -12.5q-80 0 -153.5 11t-145.5 38.5t-124.5 69t-85 108t-32.5 150.5zM348 377q0 -78 68 -134.5t190 -56.5q124 0 197.5 56.5t73.5 136.5q0 75 -61 128.5t-220 108.5q-248 -90 -248 -239zM391 1073q0 -69 54.5 -119t170.5 -100q124 63 172 111.5t48 117.5 q0 81 -60.5 122.5t-163.5 41.5q-98 0 -159.5 -48t-61.5 -126z" />
<glyph unicode="9" horiz-adv-x="1212" d="M61 952q0 73 17 144t56 139t95.5 119.5t142.5 82.5t191 31q121 0 221.5 -41.5t176.5 -123.5t118.5 -213.5t42.5 -301.5q0 -182 -45 -331t-133.5 -259.5t-228 -171.5t-320.5 -61q-173 0 -295 41l19 223q150 -55 260 -55q92 0 166.5 28.5t122.5 73.5t82.5 108.5t52 125 t26.5 131.5l-4 4q-127 -139 -333 -139q-83 0 -159 28.5t-137.5 82.5t-98 141t-36.5 194zM332 975q0 -114 70 -181t173 -67q68 0 134 30.5t114 82.5q0 207 -72.5 301t-189.5 94q-55 0 -98 -20t-67 -49t-39 -66.5t-20 -67.5t-5 -57z" />
<glyph unicode=":" d="M111 150q0 88 53.5 136t138.5 48t139 -48t54 -136q0 -79 -52 -132t-141 -53t-140.5 52.5t-51.5 132.5zM111 911q0 88 53.5 136.5t138.5 48.5t139 -48.5t54 -136.5q0 -79 -52 -131.5t-141 -52.5t-140.5 52.5t-51.5 131.5z" />
<glyph unicode=";" d="M45 -330q94 74 129 133.5t35 120.5q0 35 -17.5 67.5t-39 54.5t-39 54t-17.5 66q0 76 49.5 122t124.5 46q106 0 166 -85t60 -198q0 -301 -318 -508zM111 911q0 88 53.5 136.5t138.5 48.5t139 -48.5t54 -136.5q0 -79 -52 -131.5t-141 -52.5t-140.5 52.5t-51.5 131.5z" />
<glyph unicode="&#x3c;" horiz-adv-x="1228" d="M96 424v188l1037 441v-222l-791 -313l791 -313v-221z" />
<glyph unicode="=" horiz-adv-x="1228" d="M96 211v221h1037v-221h-1037zM96 604v221h1037v-221h-1037z" />
<glyph unicode="&#x3e;" horiz-adv-x="1228" d="M96 -16v221l791 313l-791 313v222l1037 -441v-188z" />
<glyph unicode="?" horiz-adv-x="985" d="M121 1561q192 45 328 45q118 0 210 -26.5t146 -67t89 -94t47.5 -100.5t12.5 -93q0 -86 -28 -157t-73.5 -118t-100 -85.5t-109 -68t-100 -57t-73.5 -61t-28 -72.5q0 -36 45 -106l-258 -76q-73 100 -73 203q0 60 27 109t70 82t94.5 62.5t103.5 59t95 62t70 79.5t27 105 q0 93 -72.5 139.5t-183.5 46.5q-125 0 -256 -39zM139 150q0 88 54 136t139 48t138.5 -48t53.5 -136q0 -80 -51.5 -132.5t-140.5 -52.5t-141 53t-52 132z" />
<glyph unicode="@" horiz-adv-x="1638" d="M78 719q0 155 56.5 291t156.5 235t245.5 156t315.5 57q200 0 361.5 -76.5t254.5 -216t93 -317.5q0 -114 -34 -212t-88.5 -162.5t-122.5 -110.5t-134.5 -66.5t-126.5 -20.5q-72 0 -107 32.5t-37 86.5h-4q-45 -51 -108 -85t-137 -34q-118 0 -197.5 89.5t-79.5 234.5 q0 139 62.5 264.5t165.5 200t216 74.5q153 0 232 -156l37 117h145l-139 -500q-33 -115 -33 -137q0 -23 15 -34t53 -11q40 0 82 32.5t76.5 86t56.5 130t22 156.5q0 136 -73 245.5t-192 167.5t-259 58q-169 0 -305.5 -81.5t-210.5 -214.5t-74 -287q0 -127 47 -235.5 t126 -181.5t183 -114t218 -41q156 0 281.5 45t209.5 127h168q-81 -153 -252 -244.5t-407 -91.5q-159 0 -297.5 51t-240.5 145t-161 235.5t-59 312.5zM557 627q0 -91 41 -145t111 -54q81 0 150 63t104.5 147t35.5 159q0 190 -161 190q-60 0 -113.5 -33.5t-89.5 -86.5 t-57 -116.5t-21 -123.5z" />
<glyph unicode="A" horiz-adv-x="1593" d="M29 0v209h114l504 1225h330l473 -1225h115v-209h-570v209h117l-92 274h-494l-102 -274h137v-209h-532zM610 705h334l-102 299q-42 114 -54 208h-4q-20 -94 -63 -208z" />
<glyph unicode="B" horiz-adv-x="1327" d="M57 1225v209h551q164 0 250.5 -13t151.5 -55q149 -96 149 -289q0 -82 -30.5 -147t-77.5 -101.5t-95 -55.5t-90 -19v-4q102 0 186.5 -39t138.5 -121.5t54 -194.5q0 -74 -29.5 -141.5t-90.5 -126t-168.5 -93t-249.5 -34.5h-637v209h141v1016h-154zM510 209h162 q124 0 187 58.5t63 150.5q0 86 -63.5 141t-174.5 55h-174v-405zM510 848h139q97 0 160 51.5t63 144.5q0 90 -56 135.5t-163 45.5h-143v-377z" />
<glyph unicode="C" horiz-adv-x="1402" d="M70 707q0 118 29.5 227.5t92.5 205t153.5 166t219.5 111.5t283 41q235 0 473 -84v-399h-258v229q-95 33 -203 33q-124 0 -217 -42.5t-146 -116t-78.5 -162t-25.5 -191.5q0 -71 12.5 -137.5t46.5 -137t86 -122.5t139.5 -85.5t199.5 -33.5q103 0 167 20l13 260h258 l-12 -442q-212 -72 -467 -72q-357 0 -561.5 197.5t-204.5 534.5z" />
<glyph unicode="D" horiz-adv-x="1554" d="M57 0v209h154v1016h-154v209h670q364 0 566 -176t202 -510q0 -221 -90 -390t-261 -263.5t-401 -94.5h-686zM510 209h174q75 0 143.5 17t132 57t110 99.5t74 151t27.5 205.5q0 107 -26 191t-70 139t-107.5 90.5t-134 50.5t-153.5 15h-170v-1016z" />
<glyph unicode="E" horiz-adv-x="1214" d="M57 1225v209h1049l12 -422h-246l-12 213h-350v-377h360v-221h-360v-418h356l17 242h245l-16 -451h-1030v209h129v1016h-154z" />
<glyph unicode="F" horiz-adv-x="1175" d="M70 1225v209h1036l12 -422h-246l-12 213h-338v-398h396v-221h-396v-397h162v-209h-590v209h129v1016h-153z" />
<glyph unicode="G" horiz-adv-x="1478" d="M70 707q0 121 29.5 230.5t93 205t155 165.5t222.5 110t288 40q108 0 207 -15.5t147.5 -29.5t126.5 -41v-399h-258v235q-88 29 -202 29q-105 0 -189 -28.5t-139 -76t-91 -114t-51.5 -139t-15.5 -154.5q0 -71 12.5 -137.5t46.5 -137t86 -122.5t139.5 -85.5t199.5 -33.5 q76 0 155 12v266h-147v222h565v-222h-131v-444q-254 -68 -483 -68q-357 0 -561.5 197.5t-204.5 534.5z" />
<glyph unicode="H" horiz-adv-x="1593" d="M74 0v209h129v1016h-129v209h557v-209h-129v-398h590v398h-129v209h557v-209h-129v-1016h129v-209h-557v209h129v397h-590v-397h129v-209h-557z" />
<glyph unicode="I" horiz-adv-x="720" d="M82 0v209h129v1016h-129v209h557v-209h-129v-1016h129v-209h-557z" />
<glyph unicode="J" horiz-adv-x="681" d="M-104 -197q170 75 242.5 221t72.5 435v766h-129v209h557v-209h-129v-803q0 -167 -28.5 -292t-92.5 -223t-156.5 -170.5t-230.5 -139.5z" />
<glyph unicode="K" horiz-adv-x="1478" d="M82 0v209h129v1016h-129v209h557v-209h-129v-457l385 362q82 76 125 91v4h-152v209h582v-209h-113l-528 -473l553 -543h115v-209h-631v209h168v4q-63 41 -99 74l-405 395v-473h129v-209h-557z" />
<glyph unicode="L" horiz-adv-x="1175" d="M94 0v209h129v1016h-129v209h557v-209h-129v-1016h352l17 256h248l-21 -465h-1024z" />
<glyph unicode="M" horiz-adv-x="1972" d="M45 1225v209h526l369 -953q50 -119 57 -194h4q3 36 12.5 75.5t17.5 63t33 92.5q2 5 3 8t2.5 8t3.5 9l334 891h520v-209h-149v-1016h143v-209h-551v209h121v825h-4q-3 -54 -55 -188l-324 -846h-287l-332 860q-55 139 -57 189h-4v-840h150v-209h-508v209h125v1016h-150z " />
<glyph unicode="N" horiz-adv-x="1630" d="M29 1225v209h415l605 -760q97 -123 120 -193h5v744h-132v209h519v-209h-142v-1225h-221l-682 856q-59 73 -67 111h-5v-758h140v-209h-506v209h133v1016h-182z" />
<glyph unicode="O" horiz-adv-x="1556" d="M70 717q0 148 48 281t135.5 236t223.5 163.5t301 60.5q143 0 260.5 -36.5t200 -102.5t139 -159t83 -204t26.5 -239q0 -123 -25 -232t-80.5 -203t-137 -162t-200.5 -106.5t-266 -38.5t-266 38.5t-200.5 106.5t-136.5 162t-80 202.5t-25 232.5zM393 717q0 -108 21 -196.5 t65 -160t120 -111.5t179 -40t179 40t120 111.5t65 160t21 196.5q0 106 -22.5 196t-68 161t-121 111t-173.5 40t-173.5 -40t-121 -111t-68 -161t-22.5 -196z" />
<glyph unicode="P" horiz-adv-x="1251" d="M82 0v209h141v1016h-141v209h592q260 0 392 -106.5t132 -317.5q0 -202 -131 -329.5t-344 -127.5h-201v-344h142v-209h-582zM522 762h162q111 0 169 62t58 173q0 109 -61.5 168.5t-169.5 59.5h-158v-463z" />
<glyph unicode="Q" horiz-adv-x="1556" d="M70 717q0 148 48 281t135.5 236t223.5 163.5t301 60.5q143 0 260.5 -36.5t200 -102.5t139 -159t83 -204t26.5 -239q0 -153 -38 -281.5t-123.5 -232.5t-211.5 -160v-4q65 -15 157 -61.5t179 -82.5t164 -36q32 0 72 8v-197q-64 -20 -146 -20q-86 0 -192 33.5t-200.5 81 t-181 95.5t-156.5 81.5t-103 33.5q-129 0 -244 50.5t-202.5 143t-139 234.5t-51.5 314zM393 717q0 -108 21 -196.5t65 -160t120 -111.5t179 -40t179 40t120 111.5t65 160t21 196.5q0 106 -22.5 196t-68 161t-121 111t-173.5 40t-173.5 -40t-121 -111t-68 -161t-22.5 -196z " />
<glyph unicode="R" horiz-adv-x="1327" d="M70 1225v209h632q122 0 180 -11t122 -43q94 -46 143 -136.5t49 -203.5q0 -77 -30.5 -146.5t-78.5 -117t-108.5 -76t-120.5 -30.5v-4q56 -5 93.5 -35t90.5 -117l129 -215q30 -52 57.5 -71t59.5 -19h53v-209h-229q-62 0 -112 41t-128 174l-174 299q-44 72 -118 72h-70v-377 h129v-209h-557v209h129v1016h-141zM510 807h154q119 0 176 52t57 157q0 107 -59 158t-193 51h-135v-418z" />
<glyph unicode="S" horiz-adv-x="1290" d="M92 55v379h299v-188q91 -37 242 -37q126 0 190 53t64 139q0 40 -17.5 68.5t-70 56.5t-146.5 52l-157 40q-219 56 -307.5 150t-88.5 262q0 88 32 163t97.5 135.5t177.5 95t259 34.5q272 0 471 -76v-342h-271v174q-103 35 -192 35q-71 0 -124.5 -17t-82 -44.5t-42 -58 t-13.5 -62.5q0 -71 43 -104.5t127 -53.5l172 -43q55 -14 92 -24.5t87.5 -30t84.5 -40t71 -52.5t58.5 -69.5t36 -89.5t14.5 -114q0 -214 -149 -342.5t-443 -128.5q-269 0 -514 80z" />
<glyph unicode="T" horiz-adv-x="1400" d="M35 1028l12 406h1307l12 -406h-246l-12 197h-258v-1016h129v-209h-557v209h129v1016h-258l-12 -197h-246z" />
<glyph unicode="U" horiz-adv-x="1554" d="M57 1225v209h557v-209h-129v-674q0 -82 13.5 -142t45.5 -106.5t90 -70t142 -23.5q76 0 131.5 15.5t100 52.5t67.5 105.5t23 168.5v674h-158v209h557v-209h-129v-656q0 -167 -35.5 -281t-112 -183.5t-188 -99.5t-272.5 -30q-138 0 -240 25t-165.5 68.5t-101.5 111.5 t-52.5 144t-14.5 176v725h-129z" />
<glyph unicode="V" horiz-adv-x="1554" d="M16 1225v209h582v-209h-121l281 -819q33 -96 43 -173h4q10 77 43 173l280 819h-147v209h557v-209h-111l-481 -1225h-334l-481 1225h-115z" />
<glyph unicode="W" horiz-adv-x="2314" d="M4 1225v209h582v-209h-121l280 -819q33 -96 43 -173h5q10 77 43 173l215 618l-74 201h-135v209h569v-209h-129l252 -819q32 -105 41 -173h4q10 77 43 173l281 819h-150v209h557v-209h-115l-479 -1225h-317l-228 672h-4l-245 -672h-324l-479 1225h-115z" />
<glyph unicode="X" horiz-adv-x="1478" d="M27 0v209h118l428 493l-399 523h-119v209h607v-209h-138v-4q40 -19 76 -68l172 -223l209 237q28 36 66 54v4h-136v209h496v-209h-104l-396 -471l422 -545h123v-209h-606v209h119v4q-31 20 -72 72l-180 237l-203 -239q-45 -53 -78 -70v-4h127v-209h-532z" />
<glyph unicode="Y" horiz-adv-x="1517" d="M20 1225v209h570v-209h-115q47 -50 76 -92l237 -349l256 351q31 42 76 90h-143v209h520v-209h-113l-475 -654v-362h129v-209h-555v209h127v360l-477 656h-113z" />
<glyph unicode="Z" horiz-adv-x="1327" d="M76 0v199l719 923q56 72 98 99v4h-492l-12 -191h-258l12 400h1096v-209l-704 -914q-56 -72 -99 -98v-4h543l12 190h260l-16 -399h-1159z" />
<glyph unicode="[" d="M147 -514v2089h449v-209h-162v-1671h172v-209h-459z" />
<glyph unicode="\" horiz-adv-x="720" d="M-45 1532l207 74l604 -1704l-207 -74z" />
<glyph unicode="]" d="M0 1366v209h459v-2089h-449v209h162v1671h-172z" />
<glyph unicode="^" horiz-adv-x="1228" d="M127 686l365 748h245l365 -748h-221l-267 526l-266 -526h-221z" />
<glyph unicode="_" horiz-adv-x="1024" d="M0 -154h1024v-102h-1024v102z" />
<glyph unicode="`" horiz-adv-x="679" d="M-63 1542l145 144l444 -359l-153 -123z" />
<glyph unicode="a" horiz-adv-x="1214" d="M86 287q0 109 61.5 185t153.5 110q137 49 463 49v51q0 117 -48 161t-155 44q-33 0 -88 -9t-90 -22v-143h-246v272q73 41 187.5 76t240.5 35q112 0 195 -21t146 -68t95.5 -128t32.5 -195q0 -95 -10 -475h121v-209h-361v66q0 86 15 147h-4q-55 -124 -136.5 -181t-214.5 -57 q-173 0 -265.5 89t-92.5 223zM373 313q0 -53 39 -91t118 -38q96 0 163 67t67 204h-80q-168 0 -237.5 -35t-69.5 -107z" />
<glyph unicode="b" horiz-adv-x="1251" d="M-43 1366v209h451v-420q0 -69 -21 -287h4q99 228 363 228q183 0 298 -129t115 -361q0 -93 -18 -178.5t-61.5 -169.5t-110 -145.5t-171.5 -99.5t-237 -38t-261 28t-187 63v1300h-164zM401 248q30 -16 83.5 -27.5t99.5 -11.5q75 0 133.5 30t93.5 81.5t52.5 115.5t17.5 137 q0 59 -11.5 108t-37 91t-72.5 66t-111 24q-68 0 -118.5 -23t-77.5 -62.5t-39.5 -85.5t-12.5 -99v-344z" />
<glyph unicode="c" horiz-adv-x="1024" d="M63 535q0 258 153 409.5t411 151.5q174 0 338 -52v-313h-246v143q-63 13 -98 13q-55 0 -101 -19.5t-77 -51.5t-52.5 -74t-31 -87t-9.5 -90q0 -71 19 -133t58 -113t106.5 -80.5t156.5 -29.5q141 0 268 59l-16 -241q-79 -30 -147 -41t-174 -11q-177 0 -305.5 76.5 t-190.5 201.5t-62 282z" />
<glyph unicode="d" horiz-adv-x="1327" d="M63 465q0 93 18 178.5t62 169.5t110.5 145.5t171.5 99.5t237 38q87 0 176 -25v295h-164v209h450v-1366h123v-209h-403q0 105 24 207h-4q-102 -232 -364 -232q-89 0 -168 32.5t-139 92.5t-95 154.5t-35 210.5zM362 532q0 -131 59.5 -221t160.5 -90q111 0 179 86t68 213 v303q-30 16 -83 27.5t-99 11.5q-75 0 -131.5 -28t-89 -75.5t-48.5 -104.5t-16 -122z" />
<glyph unicode="e" horiz-adv-x="1175" d="M63 530q0 254 145 410t394 156q108 0 195 -32t147 -88t100 -135.5t58 -171.5t18 -198h-745q6 -127 97.5 -200.5t242.5 -73.5q100 0 176 16.5t170 56.5l-14 -227q-185 -68 -396 -68q-150 0 -265.5 44.5t-184.5 122t-103.5 175.5t-34.5 213zM373 668h436q0 109 -58 170 t-159 61q-97 0 -153.5 -60.5t-65.5 -170.5z" />
<glyph unicode="f" horiz-adv-x="720" d="M33 862v209h147v115q0 212 115.5 316t357.5 104q90 0 205 -23v-209q-65 23 -135 23q-135 0 -195.5 -53.5t-60.5 -161.5v-111h225v-209h-225v-653h154v-209h-564v209h123v653h-147z" />
<glyph unicode="g" horiz-adv-x="1214" d="M47 -252q0 186 236 242v4q-73 16 -109.5 53t-36.5 107q0 74 59.5 118.5t147.5 59.5v4q-268 87 -268 354q0 186 130.5 296t350.5 110q71 0 225 -25h392v-197h-185q70 -87 70 -206q0 -91 -36.5 -163t-100 -116.5t-143.5 -67t-171 -22.5h-102q-27 0 -48.5 -16.5t-21.5 -40.5 q0 -27 17.5 -40t58.5 -18l354 -39q143 -16 215 -82t72 -200q0 -51 -16 -102.5t-57 -106.5t-102.5 -97t-162.5 -69t-227 -27q-125 0 -222.5 17.5t-156 45.5t-96.5 66.5t-52 77t-14 80.5zM317 -188q0 -72 76.5 -107t212.5 -35q67 0 128.5 16t105 51t43.5 81t-31 62t-111 24 l-305 33q-46 -16 -82.5 -49.5t-36.5 -75.5zM346 690q0 -85 60 -133.5t167 -48.5q123 0 181.5 56t58.5 136q0 83 -65.5 135t-163.5 52q-103 0 -170.5 -49t-67.5 -148z" />
<glyph unicode="h" horiz-adv-x="1402" d="M33 1366v209h444v-504q0 -143 -16 -221h4q41 110 138.5 178t232.5 68q186 0 278 -110t92 -308v-469h123v-209h-526v209h117v440q0 201 -187 201q-125 0 -187.5 -78.5t-62.5 -206.5v-356h123v-209h-526v209h117v1157h-164z" />
<glyph unicode="i" horiz-adv-x="679" d="M57 862v209h426v-862h123v-209h-526v209h117v653h-140zM137 1427q0 80 52.5 129.5t140.5 49.5t140 -49.5t52 -129.5t-52 -129t-140 -49q-89 0 -141 49t-52 129z" />
<glyph unicode="j" horiz-adv-x="681" d="M-156 -311q194 39 273.5 175t79.5 394v604h-140v209h426v-838q0 -381 -150 -563t-456 -209zM137 1427q0 80 52.5 129.5t140.5 49.5t140 -49.5t52 -129.5t-52 -129t-140 -49q-89 0 -141 49t-52 129z" />
<glyph unicode="k" horiz-adv-x="1290" d="M51 1366v209h451v-961l286 220q23 17 43 24v4h-147v209h545v-209h-94l-334 -266l358 -387h119v-209h-569v209h112v4q-41 24 -90 76l-229 256v-336h98v-209h-502v209h117v1157h-164z" />
<glyph unicode="l" horiz-adv-x="643" d="M14 1366v209h451v-1366h123v-209h-527v209h117v1157h-164z" />
<glyph unicode="m" horiz-adv-x="2084" d="M59 862v209h420q0 -143 -16 -217h4q44 117 140.5 179.5t230.5 62.5q133 0 213 -61.5t102 -180.5h4q39 115 130 178.5t229 63.5q186 0 278 -110t92 -308v-469h123v-209h-514v209h104v440q0 201 -186 201q-104 0 -165.5 -78t-61.5 -207v-356h123v-209h-514v209h104v440 q0 201 -186 201q-110 0 -169 -79t-59 -206v-356h123v-209h-526v209h117v653h-140z" />
<glyph unicode="n" horiz-adv-x="1402" d="M57 862v209h420q0 -143 -16 -221h4q41 110 138.5 178t232.5 68q186 0 278 -110t92 -308v-469h123v-209h-526v209h117v440q0 201 -187 201q-125 0 -187.5 -78.5t-62.5 -206.5v-356h123v-209h-514v209h105v653h-140z" />
<glyph unicode="o" horiz-adv-x="1253" d="M63 524q0 92 24.5 177.5t73.5 157t116 124.5t157 83t193 30q271 0 417 -147t146 -425q0 -242 -154.5 -395.5t-408.5 -153.5q-263 0 -413.5 140.5t-150.5 408.5zM375 518q0 -309 252 -309t252 309q0 174 -61 259t-191 85q-126 0 -189 -94.5t-63 -249.5z" />
<glyph unicode="p" horiz-adv-x="1327" d="M16 862v209h447v-11q0 -62 -19 -192h5q104 228 364 228q183 0 298.5 -129t115.5 -361q0 -93 -18 -178.5t-61.5 -169.5t-110 -145.5t-171.5 -99.5t-237 -38q-77 0 -162 19v-299h123v-209h-527v209h117v1167h-164zM461 238q81 -29 182 -29q75 0 133.5 30t93.5 81.5 t52.5 115.5t17.5 137q0 59 -11.5 108t-37 91t-72 66t-110.5 24q-68 0 -118.5 -23t-77.5 -62.5t-39.5 -85.5t-12.5 -99v-354z" />
<glyph unicode="q" horiz-adv-x="1327" d="M88 465q0 92 20.5 178.5t68 170t117.5 145t178 99.5t241 38q111 0 225.5 -26.5t196.5 -63.5v-1311h127v-209h-529v209h115v194q0 198 22 314h-4q-47 -117 -127.5 -172.5t-216.5 -55.5q-190 0 -312 132t-122 358zM387 532q0 -131 59 -221t160 -90q111 0 179.5 86.5 t68.5 212.5v303q-30 16 -83 27.5t-99 11.5q-75 0 -131.5 -28t-89 -75.5t-48.5 -104.5t-16 -122z" />
<glyph unicode="r" horiz-adv-x="872" d="M76 862v209h416q0 -110 -19 -246h4q65 271 307 271q28 0 95 -13l-19 -256q-57 11 -92 11q-119 0 -192.5 -76.5t-73.5 -206.5v-346h135v-209h-539v209h117v653h-139z" />
<glyph unicode="s" horiz-adv-x="1099" d="M80 745q0 76 28 137.5t74 100.5t108 65t127 37t134 11q201 0 416 -72v-264h-258v108q-88 31 -166 31q-93 0 -143 -32.5t-50 -80.5q0 -40 18.5 -57.5t77.5 -26.5l226 -32q185 -26 266.5 -102t81.5 -222q0 -75 -27.5 -139t-85 -117.5t-158 -84t-235.5 -30.5q-99 0 -218 19 t-204 49v301h258v-125q103 -35 191 -35q28 0 58.5 5t67 17.5t60 40.5t23.5 68q0 46 -35.5 71t-126.5 38l-242 37q-266 41 -266 284z" />
<glyph unicode="t" horiz-adv-x="757" d="M51 862v209h146v221l286 17v-238h287v-209h-287v-477q0 -112 33.5 -150t124.5 -38q54 0 139 32l-10 -202q-149 -52 -250 -52q-158 0 -240.5 73t-82.5 214v600h-146z" />
<glyph unicode="u" horiz-adv-x="1366" d="M47 862v209h430v-600q0 -52 3 -86.5t14 -70.5t31 -57t55.5 -34.5t85.5 -13.5q96 0 159.5 72t63.5 196v385h-135v209h422v-862h124v-209h-401q0 170 27 221h-4q-51 -127 -141.5 -186.5t-229.5 -59.5q-178 0 -269.5 100t-91.5 275v512h-143z" />
<glyph unicode="v" horiz-adv-x="1214" d="M-16 862v209h528v-209h-100l194 -528q16 -44 21 -88h4q5 48 20 88l189 528h-121v209h512v-209h-98l-367 -862h-311l-373 862h-98z" />
<glyph unicode="w" horiz-adv-x="1896" d="M4 862v209h512v-209h-100q25 -44 51 -119l131 -362q23 -68 33 -123h4q7 29 47 125l160 356l-49 123h-115v209h520v-209h-111q28 -48 52 -119l133 -362q22 -59 33 -123h4q12 70 32 123l129 362q24 71 52 119h-142v209h512v-209h-98l-371 -862h-299l-143 371q-22 58 -25 92 h-4q-8 -51 -26 -92l-162 -371h-299l-361 862h-100z" />
<glyph unicode="x" horiz-adv-x="1327" d="M57 0v209h109l342 319l-315 334h-117v209h565v-209h-113v-4q27 -14 64 -51l102 -109l117 109q38 38 63 51v4h-112v209h475v-209h-109l-309 -293l338 -360h113v-209h-563v209h116v4q-22 8 -45 31l-143 151l-164 -151q-23 -23 -45 -31v-4h125v-209h-494z" />
<glyph unicode="y" horiz-adv-x="1251" d="M20 862v209h533v-209h-111q22 -27 39 -74l135 -364q38 -108 50 -203h4q13 99 49 203l127 364q17 47 39 74h-133v209h479v-209h-98l-330 -885q-58 -156 -111 -254t-118 -157.5t-138 -82t-176 -22.5q-46 0 -156 25v221q91 -24 156 -24q90 0 141 47.5t127 197.5l-409 934 h-99z" />
<glyph unicode="z" horiz-adv-x="1138" d="M82 0v209l561 606q27 30 53 43v4h-334l-8 -141h-245l8 350h930v-207l-555 -606q-29 -33 -60 -45v-4h369l4 149h252l-17 -358h-958z" />
<glyph unicode="{" d="M0 453v155q73 3 116.5 71.5t43.5 166.5v424q0 144 81.5 224.5t207.5 80.5h165v-152h-55q-64 0 -88.5 -40.5t-24.5 -118.5v-418q0 -124 -59 -205t-154 -109v-4q95 -28 154 -108.5t59 -204.5v-418q0 -78 24.5 -118.5t88.5 -40.5h55v-152h-165q-126 0 -207.5 80.5 t-81.5 224.5v424q0 98 -43.5 166.5t-116.5 71.5z" />
<glyph unicode="|" horiz-adv-x="454" d="M117 -512v2048h221v-2048h-221z" />
<glyph unicode="}" d="M-8 -362h55q64 0 88.5 40.5t24.5 118.5v418q0 124 59 204.5t154 108.5v4q-95 28 -154 109t-59 205v418q0 78 -24.5 118.5t-88.5 40.5h-55v152h166q126 0 207 -80.5t81 -224.5v-424q0 -98 43.5 -166.5t116.5 -71.5v-155q-73 -3 -116.5 -71.5t-43.5 -166.5v-424 q0 -144 -81 -224.5t-207 -80.5h-166v152z" />
<glyph unicode="~" horiz-adv-x="1228" d="M141 524q44 91 106 132.5t150 41.5t238 -69q7 -3 25 -11.5t26 -12t24 -10t24.5 -10t22 -8.5t22 -7.5t19 -5.5t19.5 -4t17 -1q43 0 85.5 36t94.5 114l73 -197q-44 -91 -106 -132.5t-150 -41.5q-66 0 -153.5 35t-165 69.5t-117.5 34.5q-44 0 -86 -35.5t-94 -113.5z" />
<glyph unicode="&#xa0;" />
<glyph unicode="&#xa1;" d="M111 942q0 79 51.5 131.5t140.5 52.5t141 -52.5t52 -131.5q0 -88 -54 -136t-139 -48t-138.5 48t-53.5 136zM141 -483l25 1116h274l25 -1116h-324z" />
<glyph unicode="&#xa2;" horiz-adv-x="1212" d="M104 535q0 77 15 148.5t51 141t90 123.5t137 93.5t187 54.5v194h196v-194q188 -9 328 -68v-301h-221v125q-43 22 -107 22v-665q175 0 301 63l-14 -245q-109 -42 -287 -52v-251h-196v262q-233 29 -356.5 170.5t-123.5 378.5zM391 553q0 -123 50.5 -208t142.5 -114v635 q-91 -23 -142 -108.5t-51 -204.5z" />
<glyph unicode="&#xa3;" horiz-adv-x="1212" d="M63 0v209h160q43 110 43 260q0 91 -10 162h-188v209h176q-6 58 -6 145q0 237 137 360t436 123q161 0 360 -51v-432h-247v242q-61 20 -140 20q-121 0 -190.5 -68.5t-69.5 -193.5q0 -10 6 -145h261v-209h-248q10 -113 10 -135q0 -92 -12.5 -154t-51.5 -133h437v252h245 v-461h-1108z" />
<glyph unicode="&#xa4;" horiz-adv-x="1212" d="M63 309l123 123q-88 127 -88 285q0 157 88 284l-123 123l127 127l121 -121q135 95 295 95t295 -95l121 121l127 -127l-123 -123q88 -127 88 -284q0 -158 -88 -285l123 -123l-127 -127l-121 121q-134 -94 -295 -94t-295 94l-121 -121zM319 717q0 -133 82.5 -216t204.5 -83 t204.5 83t82.5 216t-82.5 216t-204.5 83t-204.5 -83t-82.5 -216z" />
<glyph unicode="&#xa5;" horiz-adv-x="1212" d="M16 1225v209h455v-209h-92q33 -41 61 -92l193 -349l201 351q25 42 63 90h-115v209h414v-209h-90l-244 -418h193v-176h-293l-35 -60v-49h328v-176h-328v-137h102v-209h-442v209h100v137h-327v176h327v49l-34 60h-293v176h190l-244 418h-90z" />
<glyph unicode="&#xa6;" horiz-adv-x="454" d="M117 -358v716h221v-716h-221zM117 666v716h221v-716h-221z" />
<glyph unicode="&#xa7;" horiz-adv-x="1212" d="M117 -25h270v-141q85 -37 193 -37q87 0 151 36t64 108q0 33 -14 53t-62 47t-156 70l-178 71q-152 61 -210 125t-58 178q0 215 200 318q-48 26 -77.5 47.5t-55.5 53.5t-37.5 76t-11.5 105q0 97 41 170.5t112.5 117t161 64.5t195.5 21q112 0 228.5 -27t164.5 -53v-295h-258 v140q-64 26 -145 26q-86 0 -149.5 -35.5t-63.5 -99.5q0 -49 28 -73.5t125 -63.5l179 -72q61 -25 100.5 -43.5t90 -50.5t80 -64.5t50.5 -79.5t21 -102q0 -110 -48.5 -182.5t-146.5 -124.5q82 -42 131 -115t49 -168q0 -81 -32.5 -152.5t-95.5 -127t-164 -87.5t-228 -32 q-240 0 -444 82v317zM385 555q0 -62 44 -94.5t167 -75.5l143 -51q46 26 72.5 67t26.5 86t-33.5 80t-120.5 70l-190 78q-109 -61 -109 -160z" />
<glyph unicode="&#xa8;" horiz-adv-x="679" d="M-78 1434q0 76 49 124t131 48t131.5 -48t49.5 -124t-49.5 -124t-131.5 -48t-131 48t-49 124zM397 1434q0 76 49.5 124t131.5 48t131 -48t49 -124t-49 -124t-131 -48t-131.5 48t-49.5 124z" />
<glyph unicode="&#xa9;" horiz-adv-x="1638" d="M78 717q0 151 58.5 288.5t157.5 236.5t236.5 157.5t288.5 58.5q202 0 372.5 -99t270 -269.5t99.5 -372.5t-99.5 -372.5t-270 -270t-372.5 -99.5t-372.5 99.5t-269.5 270t-99 372.5zM262 717q0 -125 44 -233.5t118.5 -183.5t177 -118t217.5 -43t217.5 43t177 118 t118.5 183.5t44 233.5t-44 233t-118.5 183t-177 118t-217.5 43t-217.5 -43t-177 -118t-118.5 -183t-44 -233zM424 719q0 205 113.5 325.5t304.5 120.5q141 0 238.5 -80.5t117.5 -226.5h-160q-14 74 -64 115t-136 41q-113 0 -177.5 -82.5t-64.5 -212.5q0 -132 66.5 -214.5 t183.5 -82.5q76 0 129.5 44.5t62.5 121.5h172q-29 -149 -132 -233.5t-251 -84.5q-182 0 -292.5 122t-110.5 327z" />
<glyph unicode="&#xaa;" horiz-adv-x="788" d="M57 989q0 66 40.5 111t103.5 67q89 31 297 31v8q0 69 -30 96t-95 27q-40 0 -111 -18v-72h-172v164q148 65 281 65q156 0 233.5 -56t77.5 -191q0 -56 -3.5 -149t-4.5 -118h76v-139h-234q1 17 3 61t3 64h-4q-57 -141 -219 -141q-117 0 -179.5 54t-62.5 136zM254 999 q0 -26 24 -43.5t74 -17.5q61 0 103.5 35.5t42.5 109.5q-142 0 -193 -17t-51 -67z" />
<glyph unicode="&#xab;" horiz-adv-x="1138" d="M63 530v160l277 324l203 -170l-211 -234l211 -233l-203 -170zM596 530v160l276 324l203 -170l-211 -234l211 -233l-203 -170z" />
<glyph unicode="&#xac;" horiz-adv-x="1228" d="M96 604v221h1037v-614h-222v393h-815z" />
<glyph unicode="&#xad;" horiz-adv-x="872" d="M137 487v246h598v-246h-598z" />
<glyph unicode="&#xae;" horiz-adv-x="1638" d="M78 717q0 151 58.5 288.5t157.5 236.5t236.5 157.5t288.5 58.5q202 0 372.5 -99t270 -269.5t99.5 -372.5t-99.5 -372.5t-270 -270t-372.5 -99.5t-372.5 99.5t-269.5 270t-99 372.5zM262 717q0 -125 44 -233.5t118.5 -183.5t177 -118t217.5 -43t217.5 43t177 118 t118.5 183.5t44 233.5t-44 233t-118.5 183t-177 118t-217.5 43t-217.5 -43t-177 -118t-118.5 -183t-44 -233zM502 293v848h327q160 0 239 -58.5t79 -185.5q0 -200 -217 -242l231 -362h-172l-215 356h-125v-356h-147zM649 776h154q112 0 154 29.5t42 97.5q0 111 -192 111 h-158v-238z" />
<glyph unicode="&#xaf;" horiz-adv-x="679" d="M14 1339v209h652v-209h-652z" />
<glyph unicode="&#xb0;" horiz-adv-x="819" d="M117 1176q0 121 85.5 206.5t207.5 85.5t207 -85t85 -207t-85.5 -207.5t-206.5 -85.5q-122 0 -207.5 85.5t-85.5 207.5zM289 1176q0 -59 33 -94t88 -35t87.5 35t32.5 94t-32.5 94t-87.5 35t-88 -35t-33 -94z" />
<glyph unicode="&#xb1;" horiz-adv-x="1228" d="M96 0v221h1037v-221h-1037zM96 547v221h408v268h221v-268h408v-221h-408v-268h-221v268h-408z" />
<glyph unicode="&#xb2;" horiz-adv-x="788" d="M25 582v143q38 24 88 58.5t120 90.5t125.5 109t95.5 111.5t40 101.5q0 53 -37 81t-86 28q-62 0 -97.5 -42t-35.5 -106h-209q0 37 9.5 75.5t34.5 81.5t63.5 76.5t102.5 55.5t144 22q49 0 95 -8t90 -27t76 -47t51.5 -71.5t19.5 -97.5q0 -222 -383 -478l4 -4q55 10 94 10 h305v-163h-710z" />
<glyph unicode="&#xb3;" horiz-adv-x="788" d="M23 612v195q143 -70 272 -70q97 0 149 28.5t52 80.5q0 35 -22 58.5t-62.5 34.5t-82.5 15t-98 4v140q122 0 175 36.5t53 90.5q0 36 -27.5 58t-77.5 22q-52 0 -87.5 -33.5t-35.5 -81.5h-208q0 111 91.5 194.5t258.5 83.5q135 0 221 -59.5t86 -157.5q0 -79 -53.5 -139 t-137.5 -70v-4q96 -2 162 -55.5t66 -151.5q0 -33 -8 -65t-34 -70.5t-68 -67t-117 -48t-173 -19.5q-173 0 -294 51z" />
<glyph unicode="&#xb4;" horiz-adv-x="679" d="M154 1327l444 359l145 -144l-436 -338z" />
<glyph unicode="&#xb5;" horiz-adv-x="1366" d="M47 862v209h430v-600q0 -52 3 -86.5t14 -70.5t31 -57t55.5 -34.5t85.5 -13.5q96 0 159.5 72t63.5 196v385h-135v209h422v-862h124v-209h-401q0 170 27 221h-4q-49 -123 -131 -184.5t-179 -61.5q-45 0 -73.5 12t-57.5 36h-4v-537h-287v1376h-143z" />
<glyph unicode="&#xb6;" horiz-adv-x="1228" d="M31 1044q0 201 126 295.5t351 94.5h506v-1833h-209v1693h-180v-1693h-209v1069q-160 0 -272.5 106.5t-112.5 267.5z" />
<glyph unicode="&#xb7;" d="M131 545q0 71 50.5 121.5t121.5 50.5t121.5 -50.5t50.5 -121.5t-50.5 -121.5t-121.5 -50.5t-121.5 50.5t-50.5 121.5z" />
<glyph unicode="&#xb8;" horiz-adv-x="679" d="M100 -483l9 149q82 -28 149 -28q64 0 100.5 21t36.5 56q0 38 -32.5 55t-124.5 17v221h184v-131q65 0 111 -16t68 -44t31 -55t9 -59q0 -98 -86.5 -157.5t-226.5 -59.5q-97 0 -228 31z" />
<glyph unicode="&#xb9;" horiz-adv-x="788" d="M55 1260l334 182h152v-721h174v-139h-557v139h174v534q-4 -3 -22.5 -16t-30.5 -20l-148 -86z" />
<glyph unicode="&#xba;" horiz-adv-x="788" d="M29 1133q0 153 98.5 244t267.5 91q168 0 266.5 -91t98.5 -244q0 -164 -97.5 -249t-267.5 -85q-171 0 -268.5 85t-97.5 249zM250 1133q0 -82 37.5 -132.5t107.5 -50.5q69 0 106.5 50.5t37.5 132.5t-37.5 133t-106.5 51q-70 0 -107.5 -51t-37.5 -133z" />
<glyph unicode="&#xbb;" horiz-adv-x="1138" d="M63 377l211 233l-211 234l203 170l277 -324v-160l-277 -323zM596 377l211 233l-211 234l203 170l276 -324v-160l-276 -323z" />
<glyph unicode="&#xbc;" horiz-adv-x="1820" d="M6 1260l334 182h152v-721h174v-139h-557v139h174v534q-6 -4 -16.5 -11.5t-19.5 -13.5t-18 -11l-147 -86zM389 -29l862 1581l176 -90l-862 -1581zM999 225v140l371 495h260v-483h144v-152h-144v-86h90v-139h-389v139h90v86h-422zM1198 371q27 6 55 6h168v295h-4z" />
<glyph unicode="&#xbd;" horiz-adv-x="1820" d="M6 1260l334 182h152v-721h174v-139h-557v139h174v534q-6 -4 -16.5 -11.5t-19.5 -13.5t-18 -11l-147 -86zM354 -29l863 1581l176 -90l-863 -1581zM1036 0v143q38 24 88 58.5t120 90.5t125.5 109t95.5 111.5t40 101.5q0 53 -37 81t-86 28q-62 0 -97.5 -42t-35.5 -106h-209 q0 111 72 197q92 115 283 115q63 0 119 -13.5t105 -42t78 -79t29 -117.5q0 -221 -383 -477l5 -4q55 10 94 10h305v-164h-711z" />
<glyph unicode="&#xbe;" horiz-adv-x="1820" d="M39 612v195q143 -70 272 -70q97 0 149 28.5t52 80.5q0 35 -21.5 58.5t-62.5 34.5t-82.5 15t-97.5 4v140q121 0 174 36.5t53 90.5q0 36 -27 58t-77 22q-52 0 -87.5 -33.5t-35.5 -81.5h-209q0 111 91.5 194.5t258.5 83.5q135 0 221 -59.5t86 -157.5q0 -79 -53 -139 t-137 -70v-4q96 -2 161.5 -55.5t65.5 -151.5q0 -33 -8 -65t-34 -70.5t-67.5 -67t-116.5 -48t-173 -19.5q-174 0 -295 51zM389 -29l862 1581l176 -90l-862 -1581zM999 225v140l371 495h260v-483h144v-152h-144v-86h90v-139h-389v139h90v86h-422zM1198 371q27 6 55 6h168v295 h-4z" />
<glyph unicode="&#xbf;" horiz-adv-x="985" d="M-31 -133q0 86 28 157t73.5 117.5t100 85t109 68t100 57t73.5 61t28 72.5q0 37 -45 107l258 76q74 -102 74 -203q0 -60 -27 -109t-70 -82t-95 -62.5t-103.5 -59t-94.5 -62t-70 -79.5t-27 -105q0 -93 72.5 -140t183.5 -47q125 0 256 39l10 -227q-192 -45 -328 -45 q-99 0 -180 18.5t-134.5 50t-92.5 69.5t-59.5 82.5t-30 83.5t-9.5 77zM399 942q0 79 52 131.5t141 52.5t140.5 -52.5t51.5 -131.5q0 -88 -53.5 -136t-138.5 -48t-139 48t-54 136z" />
<glyph unicode="&#xc0;" horiz-adv-x="1593" d="M29 0v209h114l504 1225h330l473 -1225h115v-209h-570v209h117l-92 274h-494l-102 -274h137v-209h-532zM393 1843l146 144l444 -359l-154 -123zM610 705h334l-102 299q-42 114 -54 208h-4q-20 -94 -63 -208z" />
<glyph unicode="&#xc1;" horiz-adv-x="1593" d="M29 0v209h114l504 1225h330l473 -1225h115v-209h-570v209h117l-92 274h-494l-102 -274h137v-209h-532zM610 705h334l-102 299q-42 114 -54 208h-4q-20 -94 -63 -208zM610 1628l445 359l145 -144l-436 -338z" />
<glyph unicode="&#xc2;" horiz-adv-x="1593" d="M29 0v209h114l504 1225h330l473 -1225h115v-209h-570v209h117l-92 274h-494l-102 -274h137v-209h-532zM338 1673l371 285h176l370 -285l-165 -135l-293 229l-293 -229zM610 705h334l-102 299q-42 114 -54 208h-4q-20 -94 -63 -208z" />
<glyph unicode="&#xc3;" horiz-adv-x="1593" d="M29 0v209h114l504 1225h330l473 -1225h115v-209h-570v209h117l-92 274h-494l-102 -274h137v-209h-532zM377 1677q40 100 113.5 160.5t168.5 60.5q44 0 88 -16.5t72.5 -36.5t63.5 -36.5t63 -16.5q37 0 61 17.5t62 72.5l148 -104q-45 -84 -113 -139.5t-152 -55.5 q-47 0 -102.5 28.5t-104.5 56.5t-81 28q-60 0 -113 -103zM610 705h334l-102 299q-42 114 -54 208h-4q-20 -94 -63 -208z" />
<glyph unicode="&#xc4;" horiz-adv-x="1593" d="M29 0v209h114l504 1225h330l473 -1225h115v-209h-570v209h117l-92 274h-494l-102 -274h137v-209h-532zM379 1735q0 76 49 124t131 48t131 -48t49 -124t-49 -124t-131 -48t-131 48t-49 124zM610 705h334l-102 299q-42 114 -54 208h-4q-20 -94 -63 -208zM854 1735 q0 76 49 124t131 48t131 -48t49 -124t-49 -124t-131 -48t-131 48t-49 124z" />
<glyph unicode="&#xc5;" horiz-adv-x="1593" d="M29 0v209h114l504 1225h330l473 -1225h115v-209h-570v209h117l-92 274h-494l-102 -274h137v-209h-532zM553 1700q0 96 67.5 158.5t176.5 62.5t176 -62.5t67 -158.5t-67 -158.5t-176 -62.5t-176.5 62.5t-67.5 158.5zM610 705h334l-102 299q-42 114 -54 208h-4 q-20 -94 -63 -208zM713 1700q0 -49 23 -78t61 -29t61 29t23 78t-23 77.5t-61 28.5t-61 -28.5t-23 -77.5z" />
<glyph unicode="&#xc6;" horiz-adv-x="2086" d="M29 0v209h104l694 1225h1115l12 -422h-246l-12 213h-316v-418h324v-209h-324v-389h359l16 242h246l-16 -451h-1043v209h139v389h-448l-201 -389h139v-209h-542zM739 807h342v418h-127z" />
<glyph unicode="&#xc7;" horiz-adv-x="1402" d="M70 707q0 118 29.5 227.5t92.5 205t153.5 166t219.5 111.5t283 41q235 0 473 -84v-399h-258v229q-95 33 -203 33q-124 0 -217 -42.5t-146 -116t-78.5 -162t-25.5 -191.5q0 -71 12.5 -137.5t46.5 -137t86 -122.5t139.5 -85.5t199.5 -33.5q103 0 167 20l13 260h258 l-12 -442q-186 -63 -396 -72v-98q65 0 111 -16t68 -44t31 -55t9 -59q0 -98 -86.5 -157.5t-226.5 -59.5q-96 0 -227 31l8 149q82 -28 149 -28q64 0 101 21t37 56q0 38 -33 55t-125 17v193q-308 34 -480.5 226.5t-172.5 500.5z" />
<glyph unicode="&#xc8;" horiz-adv-x="1214" d="M57 1225v209h1049l12 -422h-246l-12 213h-350v-377h360v-221h-360v-418h356l17 242h245l-16 -451h-1030v209h129v1016h-154zM205 1843l145 144l445 -359l-154 -123z" />
<glyph unicode="&#xc9;" horiz-adv-x="1214" d="M57 1225v209h1049l12 -422h-246l-12 213h-350v-377h360v-221h-360v-418h356l17 242h245l-16 -451h-1030v209h129v1016h-154zM422 1628l444 359l146 -144l-437 -338z" />
<glyph unicode="&#xca;" horiz-adv-x="1214" d="M57 1225v209h1049l12 -422h-246l-12 213h-350v-377h360v-221h-360v-418h356l17 242h245l-16 -451h-1030v209h129v1016h-154zM150 1673l370 285h176l371 -285l-166 -135l-293 229l-293 -229z" />
<glyph unicode="&#xcb;" horiz-adv-x="1214" d="M57 1225v209h1049l12 -422h-246l-12 213h-350v-377h360v-221h-360v-418h356l17 242h245l-16 -451h-1030v209h129v1016h-154zM190 1735q0 76 49.5 124t131.5 48t131 -48t49 -124t-49 -124t-131 -48t-131.5 48t-49.5 124zM666 1735q0 76 49 124t131 48t131 -48t49 -124 t-49 -124t-131 -48t-131 48t-49 124z" />
<glyph unicode="&#xcc;" horiz-adv-x="720" d="M-43 1843l145 144l445 -359l-154 -123zM82 0v209h129v1016h-129v209h557v-209h-129v-1016h129v-209h-557z" />
<glyph unicode="&#xcd;" horiz-adv-x="720" d="M82 0v209h129v1016h-129v209h557v-209h-129v-1016h129v-209h-557zM174 1628l444 359l146 -144l-436 -338z" />
<glyph unicode="&#xce;" horiz-adv-x="720" d="M-98 1673l370 285h177l370 -285l-166 -135l-293 229l-292 -229zM82 0v209h129v1016h-129v209h557v-209h-129v-1016h129v-209h-557z" />
<glyph unicode="&#xcf;" horiz-adv-x="720" d="M-57 1735q0 76 49 124t131 48t131 -48t49 -124t-49 -124t-131 -48t-131 48t-49 124zM82 0v209h129v1016h-129v209h557v-209h-129v-1016h129v-209h-557zM418 1735q0 76 49 124t131 48t131 -48t49 -124t-49 -124t-131 -48t-131 48t-49 124z" />
<glyph unicode="&#xd0;" horiz-adv-x="1554" d="M57 0v209h154v430h-154v209h154v377h-154v209h670q364 0 566 -176t202 -510q0 -221 -90 -390t-261 -263.5t-401 -94.5h-686zM510 209h174q75 0 143.5 17t132 57t110 99.5t74 151t27.5 205.5q0 107 -26 191t-70 139t-107.5 90.5t-134 50.5t-153.5 15h-170v-377h305v-209 h-305v-430z" />
<glyph unicode="&#xd1;" horiz-adv-x="1630" d="M29 1225v209h415l605 -760q97 -123 120 -193h5v744h-132v209h519v-209h-142v-1225h-221l-682 856q-59 73 -67 111h-5v-758h140v-209h-506v209h133v1016h-182zM395 1677q40 99 114 160t169 61q44 0 88 -16.5t72.5 -36.5t63.5 -36.5t63 -16.5q37 0 60.5 17.5t61.5 72.5 l148 -104q-45 -84 -112.5 -139.5t-151.5 -55.5q-47 0 -103 28.5t-105 56.5t-81 28q-60 0 -113 -103z" />
<glyph unicode="&#xd2;" horiz-adv-x="1556" d="M70 717q0 148 48 281t135.5 236t223.5 163.5t301 60.5q143 0 260.5 -36.5t200 -102.5t139 -159t83 -204t26.5 -239q0 -123 -25 -232t-80.5 -203t-137 -162t-200.5 -106.5t-266 -38.5t-266 38.5t-200.5 106.5t-136.5 162t-80 202.5t-25 232.5zM375 1843l145 144l445 -359 l-154 -123zM393 717q0 -108 21 -196.5t65 -160t120 -111.5t179 -40t179 40t120 111.5t65 160t21 196.5q0 106 -22.5 196t-68 161t-121 111t-173.5 40t-173.5 -40t-121 -111t-68 -161t-22.5 -196z" />
<glyph unicode="&#xd3;" horiz-adv-x="1556" d="M70 717q0 148 48 281t135.5 236t223.5 163.5t301 60.5q143 0 260.5 -36.5t200 -102.5t139 -159t83 -204t26.5 -239q0 -123 -25 -232t-80.5 -203t-137 -162t-200.5 -106.5t-266 -38.5t-266 38.5t-200.5 106.5t-136.5 162t-80 202.5t-25 232.5zM393 717q0 -108 21 -196.5 t65 -160t120 -111.5t179 -40t179 40t120 111.5t65 160t21 196.5q0 106 -22.5 196t-68 161t-121 111t-173.5 40t-173.5 -40t-121 -111t-68 -161t-22.5 -196zM592 1628l444 359l146 -144l-437 -338z" />
<glyph unicode="&#xd4;" horiz-adv-x="1556" d="M70 717q0 148 48 281t135.5 236t223.5 163.5t301 60.5q143 0 260.5 -36.5t200 -102.5t139 -159t83 -204t26.5 -239q0 -123 -25 -232t-80.5 -203t-137 -162t-200.5 -106.5t-266 -38.5t-266 38.5t-200.5 106.5t-136.5 162t-80 202.5t-25 232.5zM319 1673l371 285h176 l371 -285l-166 -135l-293 229l-293 -229zM393 717q0 -108 21 -196.5t65 -160t120 -111.5t179 -40t179 40t120 111.5t65 160t21 196.5q0 106 -22.5 196t-68 161t-121 111t-173.5 40t-173.5 -40t-121 -111t-68 -161t-22.5 -196z" />
<glyph unicode="&#xd5;" horiz-adv-x="1556" d="M70 717q0 148 48 281t135.5 236t223.5 163.5t301 60.5q143 0 260.5 -36.5t200 -102.5t139 -159t83 -204t26.5 -239q0 -123 -25 -232t-80.5 -203t-137 -162t-200.5 -106.5t-266 -38.5t-266 38.5t-200.5 106.5t-136.5 162t-80 202.5t-25 232.5zM358 1677q40 99 114 160 t169 61q44 0 88 -16.5t72.5 -36.5t63.5 -36.5t63 -16.5q37 0 61 17.5t62 72.5l147 -104q-45 -84 -112.5 -139.5t-151.5 -55.5q-47 0 -103 28.5t-105 56.5t-81 28q-60 0 -113 -103zM393 717q0 -108 21 -196.5t65 -160t120 -111.5t179 -40t179 40t120 111.5t65 160t21 196.5 q0 106 -22.5 196t-68 161t-121 111t-173.5 40t-173.5 -40t-121 -111t-68 -161t-22.5 -196z" />
<glyph unicode="&#xd6;" horiz-adv-x="1556" d="M70 717q0 148 48 281t135.5 236t223.5 163.5t301 60.5q143 0 260.5 -36.5t200 -102.5t139 -159t83 -204t26.5 -239q0 -123 -25 -232t-80.5 -203t-137 -162t-200.5 -106.5t-266 -38.5t-266 38.5t-200.5 106.5t-136.5 162t-80 202.5t-25 232.5zM360 1735q0 76 49.5 124 t131.5 48t131 -48t49 -124t-49 -124t-131 -48t-131.5 48t-49.5 124zM393 717q0 -108 21 -196.5t65 -160t120 -111.5t179 -40t179 40t120 111.5t65 160t21 196.5q0 106 -22.5 196t-68 161t-121 111t-173.5 40t-173.5 -40t-121 -111t-68 -161t-22.5 -196zM836 1735 q0 76 49 124t131 48t131 -48t49 -124t-49 -124t-131 -48t-131 48t-49 124z" />
<glyph unicode="&#xd7;" horiz-adv-x="1228" d="M127 186l332 332l-332 332l156 156l331 -332l332 332l156 -156l-332 -332l332 -332l-156 -155l-332 331l-331 -331z" />
<glyph unicode="&#xd8;" horiz-adv-x="1556" d="M70 717q0 148 48 281t135.5 236t223.5 163.5t301 60.5q180 0 309 -57l154 254l158 -94l-152 -250q119 -96 179.5 -249.5t60.5 -344.5q0 -123 -25 -232t-80.5 -203t-137 -162t-200.5 -106.5t-266 -38.5q-179 0 -309 56l-154 -252l-157 94l153 252q-122 97 -181.5 250 t-59.5 342zM393 717q0 -203 74 -334l487 801q-71 41 -176 41q-98 0 -173.5 -40t-121 -111t-68 -161t-22.5 -196zM602 248q76 -39 176 -39q103 0 179 40t120 111.5t65 160t21 196.5q0 202 -76 330z" />
<glyph unicode="&#xd9;" horiz-adv-x="1554" d="M57 1225v209h557v-209h-129v-674q0 -82 13.5 -142t45.5 -106.5t90 -70t142 -23.5q76 0 131.5 15.5t100 52.5t67.5 105.5t23 168.5v674h-158v209h557v-209h-129v-656q0 -167 -35.5 -281t-112 -183.5t-188 -99.5t-272.5 -30q-138 0 -240 25t-165.5 68.5t-101.5 111.5 t-52.5 144t-14.5 176v725h-129zM375 1843l145 144l445 -359l-154 -123z" />
<glyph unicode="&#xda;" horiz-adv-x="1554" d="M57 1225v209h557v-209h-129v-674q0 -82 13.5 -142t45.5 -106.5t90 -70t142 -23.5q76 0 131.5 15.5t100 52.5t67.5 105.5t23 168.5v674h-158v209h557v-209h-129v-656q0 -167 -35.5 -281t-112 -183.5t-188 -99.5t-272.5 -30q-138 0 -240 25t-165.5 68.5t-101.5 111.5 t-52.5 144t-14.5 176v725h-129zM592 1628l444 359l146 -144l-437 -338z" />
<glyph unicode="&#xdb;" horiz-adv-x="1554" d="M57 1225v209h557v-209h-129v-674q0 -82 13.5 -142t45.5 -106.5t90 -70t142 -23.5q76 0 131.5 15.5t100 52.5t67.5 105.5t23 168.5v674h-158v209h557v-209h-129v-656q0 -167 -35.5 -281t-112 -183.5t-188 -99.5t-272.5 -30q-138 0 -240 25t-165.5 68.5t-101.5 111.5 t-52.5 144t-14.5 176v725h-129zM319 1673l371 285h176l371 -285l-166 -135l-293 229l-293 -229z" />
<glyph unicode="&#xdc;" horiz-adv-x="1554" d="M57 1225v209h557v-209h-129v-674q0 -82 13.5 -142t45.5 -106.5t90 -70t142 -23.5q76 0 131.5 15.5t100 52.5t67.5 105.5t23 168.5v674h-158v209h557v-209h-129v-656q0 -167 -35.5 -281t-112 -183.5t-188 -99.5t-272.5 -30q-138 0 -240 25t-165.5 68.5t-101.5 111.5 t-52.5 144t-14.5 176v725h-129zM360 1735q0 76 49.5 124t131.5 48t131 -48t49 -124t-49 -124t-131 -48t-131.5 48t-49.5 124zM836 1735q0 76 49 124t131 48t131 -48t49 -124t-49 -124t-131 -48t-131 48t-49 124z" />
<glyph unicode="&#xdd;" horiz-adv-x="1517" d="M20 1225v209h570v-209h-115q47 -50 76 -92l237 -349l256 351q31 42 76 90h-143v209h520v-209h-113l-475 -654v-362h129v-209h-555v209h127v360l-477 656h-113zM573 1628l445 359l145 -144l-436 -338z" />
<glyph unicode="&#xde;" horiz-adv-x="1251" d="M82 0v209h141v1016h-141v209h582v-209h-142v-82h152q263 0 393.5 -94t130.5 -293q0 -191 -130 -305.5t-345 -114.5h-201v-127h142v-209h-582zM522 545h162q227 0 227 194q0 195 -227 195h-162v-389z" />
<glyph unicode="&#xdf;" horiz-adv-x="1554" d="M76 862v209h139q0 65 8 121t27 111.5t50 100t78.5 83t110 64.5t148 40.5t188.5 14.5q232 0 364 -90t132 -238q0 -62 -19.5 -114t-50 -88.5t-68 -67.5t-75 -55.5t-68 -46.5t-50 -48t-19.5 -53q0 -33 28 -57t73 -41t99 -34t108 -43t99 -61t73 -95t28 -138 q0 -71 -24.5 -133.5t-74 -114.5t-135.5 -82.5t-198 -30.5q-97 0 -193.5 12t-146.5 29v291h233v-104q83 -19 123 -19q158 0 158 115q0 43 -21.5 69.5t-89.5 49.5l-154 53q-142 49 -199 106.5t-57 167.5q0 61 26 115.5t65 91.5t84.5 74t84.5 66.5t65 67t26 75.5q0 40 -21 70 t-57 46.5t-77 24.5t-87 8q-165 0 -236 -85.5t-71 -241.5v-848h135v-209h-539v209h117v653h-139z" />
<glyph unicode="&#xe0;" horiz-adv-x="1214" d="M86 287q0 109 61.5 185t153.5 110q137 49 463 49v51q0 117 -48 161t-155 44q-33 0 -88 -9t-90 -22v-143h-246v272q73 41 187.5 76t240.5 35q112 0 195 -21t146 -68t95.5 -128t32.5 -195q0 -95 -10 -475h121v-209h-361v66q0 86 15 147h-4q-55 -124 -136.5 -181t-214.5 -57 q-173 0 -265.5 89t-92.5 223zM205 1542l145 144l445 -359l-154 -123zM373 313q0 -53 39 -91t118 -38q96 0 163 67t67 204h-80q-168 0 -237.5 -35t-69.5 -107z" />
<glyph unicode="&#xe1;" horiz-adv-x="1214" d="M86 287q0 109 61.5 185t153.5 110q137 49 463 49v51q0 117 -48 161t-155 44q-33 0 -88 -9t-90 -22v-143h-246v272q73 41 187.5 76t240.5 35q112 0 195 -21t146 -68t95.5 -128t32.5 -195q0 -95 -10 -475h121v-209h-361v66q0 86 15 147h-4q-55 -124 -136.5 -181t-214.5 -57 q-173 0 -265.5 89t-92.5 223zM373 313q0 -53 39 -91t118 -38q96 0 163 67t67 204h-80q-168 0 -237.5 -35t-69.5 -107zM422 1327l444 359l146 -144l-437 -338z" />
<glyph unicode="&#xe2;" horiz-adv-x="1214" d="M86 287q0 109 61.5 185t153.5 110q137 49 463 49v51q0 117 -48 161t-155 44q-33 0 -88 -9t-90 -22v-143h-246v272q73 41 187.5 76t240.5 35q112 0 195 -21t146 -68t95.5 -128t32.5 -195q0 -95 -10 -475h121v-209h-361v66q0 86 15 147h-4q-55 -124 -136.5 -181t-214.5 -57 q-173 0 -265.5 89t-92.5 223zM150 1372l370 285h176l371 -285l-166 -135l-293 229l-293 -229zM373 313q0 -53 39 -91t118 -38q96 0 163 67t67 204h-80q-168 0 -237.5 -35t-69.5 -107z" />
<glyph unicode="&#xe3;" horiz-adv-x="1214" d="M86 287q0 109 61.5 185t153.5 110q137 49 463 49v51q0 117 -48 161t-155 44q-33 0 -88 -9t-90 -22v-143h-246v272q73 41 187.5 76t240.5 35q112 0 195 -21t146 -68t95.5 -128t32.5 -195q0 -95 -10 -475h121v-209h-361v66q0 86 15 147h-4q-55 -124 -136.5 -181t-214.5 -57 q-173 0 -265.5 89t-92.5 223zM188 1376q40 99 114 160t169 61q44 0 88 -16.5t72.5 -36.5t63.5 -36.5t63 -16.5q37 0 61 17.5t62 72.5l147 -104q-45 -84 -112.5 -139.5t-151.5 -55.5q-37 0 -80.5 17.5t-76.5 39t-69.5 39t-62.5 17.5q-60 0 -113 -103zM373 313q0 -53 39 -91 t118 -38q96 0 163 67t67 204h-80q-168 0 -237.5 -35t-69.5 -107z" />
<glyph unicode="&#xe4;" horiz-adv-x="1214" d="M86 287q0 109 61.5 185t153.5 110q137 49 463 49v51q0 117 -48 161t-155 44q-33 0 -88 -9t-90 -22v-143h-246v272q73 41 187.5 76t240.5 35q112 0 195 -21t146 -68t95.5 -128t32.5 -195q0 -95 -10 -475h121v-209h-361v66q0 86 15 147h-4q-55 -124 -136.5 -181t-214.5 -57 q-173 0 -265.5 89t-92.5 223zM190 1434q0 76 49.5 124t131.5 48t131 -48t49 -124t-49 -124t-131 -48t-131.5 48t-49.5 124zM373 313q0 -53 39 -91t118 -38q96 0 163 67t67 204h-80q-168 0 -237.5 -35t-69.5 -107zM666 1434q0 76 49 124t131 48t131 -48t49 -124t-49 -124 t-131 -48t-131 48t-49 124z" />
<glyph unicode="&#xe5;" horiz-adv-x="1214" d="M86 287q0 109 61.5 185t153.5 110q137 49 463 49v51q0 117 -48 161t-155 44q-33 0 -88 -9t-90 -22v-143h-246v272q73 41 187.5 76t240.5 35q112 0 195 -21t146 -68t95.5 -128t32.5 -195q0 -95 -10 -475h121v-209h-361v66q0 86 15 147h-4q-55 -124 -136.5 -181t-214.5 -57 q-173 0 -265.5 89t-92.5 223zM365 1460q0 96 67 158.5t176 62.5t176.5 -62.5t67.5 -158.5t-67.5 -158.5t-176.5 -62.5t-176 62.5t-67 158.5zM373 313q0 -53 39 -91t118 -38q96 0 163 67t67 204h-80q-168 0 -237.5 -35t-69.5 -107zM524 1460q0 -49 23 -77.5t61 -28.5t61 28.5 t23 77.5t-23 78t-61 29t-61 -29t-23 -78z" />
<glyph unicode="&#xe6;" horiz-adv-x="1820" d="M86 297q0 81 29 140t81.5 98t137.5 63t184.5 35t235.5 14q0 30 -0.5 46.5t-4.5 46.5t-11.5 48.5t-23.5 42t-38.5 36.5t-57 22.5t-79.5 9.5q-60 0 -150 -25v-149h-258v293q80 35 191.5 56.5t199.5 21.5q327 0 398 -199q66 112 152 155.5t196 43.5t194.5 -37t135 -96 t82.5 -143t43.5 -168t11.5 -181h-711q0 -274 350 -274q170 0 326 75l-14 -219q-152 -78 -377 -78q-357 0 -445 244h-4q-41 -130 -134 -187t-265 -57q-178 0 -276.5 91t-98.5 231zM373 309q0 -22 7 -41.5t23 -39.5t48.5 -32t78.5 -12q40 0 77 13t70 39.5t53 73.5t20 108v53 h-62q-167 0 -241 -38t-74 -124zM1024 647h424q0 69 -20.5 121t-54 79t-69 39.5t-73.5 12.5q-107 0 -157 -71t-50 -181z" />
<glyph unicode="&#xe7;" horiz-adv-x="1024" d="M63 535q0 258 153 409.5t411 151.5q174 0 338 -52v-313h-246v143q-63 13 -98 13q-55 0 -101 -19.5t-77 -51.5t-52.5 -74t-31 -87t-9.5 -90q0 -71 19 -133t58 -113t106.5 -80.5t156.5 -29.5q141 0 268 59l-16 -241q-123 -44 -252 -52v-98q65 0 111 -16t68 -44t31 -55 t9 -59q0 -98 -86.5 -157.5t-226.5 -59.5q-96 0 -227 31l8 149q82 -28 149 -28q64 0 101 21t37 56q0 38 -33 55t-125 17v197q-212 36 -327.5 187t-115.5 364z" />
<glyph unicode="&#xe8;" horiz-adv-x="1175" d="M63 530q0 254 145 410t394 156q108 0 195 -32t147 -88t100 -135.5t58 -171.5t18 -198h-745q6 -127 97.5 -200.5t242.5 -73.5q100 0 176 16.5t170 56.5l-14 -227q-185 -68 -396 -68q-150 0 -265.5 44.5t-184.5 122t-103.5 175.5t-34.5 213zM184 1542l146 144l444 -359 l-153 -123zM373 668h436q0 109 -58 170t-159 61q-97 0 -153.5 -60.5t-65.5 -170.5z" />
<glyph unicode="&#xe9;" horiz-adv-x="1175" d="M63 530q0 254 145 410t394 156q108 0 195 -32t147 -88t100 -135.5t58 -171.5t18 -198h-745q6 -127 97.5 -200.5t242.5 -73.5q100 0 176 16.5t170 56.5l-14 -227q-185 -68 -396 -68q-150 0 -265.5 44.5t-184.5 122t-103.5 175.5t-34.5 213zM373 668h436q0 109 -58 170 t-159 61q-97 0 -153.5 -60.5t-65.5 -170.5zM401 1327l445 359l145 -144l-436 -338z" />
<glyph unicode="&#xea;" horiz-adv-x="1175" d="M63 530q0 254 145 410t394 156q108 0 195 -32t147 -88t100 -135.5t58 -171.5t18 -198h-745q6 -127 97.5 -200.5t242.5 -73.5q100 0 176 16.5t170 56.5l-14 -227q-185 -68 -396 -68q-150 0 -265.5 44.5t-184.5 122t-103.5 175.5t-34.5 213zM129 1372l371 285h176l371 -285 l-166 -135l-293 229l-293 -229zM373 668h436q0 109 -58 170t-159 61q-97 0 -153.5 -60.5t-65.5 -170.5z" />
<glyph unicode="&#xeb;" horiz-adv-x="1175" d="M63 530q0 254 145 410t394 156q108 0 195 -32t147 -88t100 -135.5t58 -171.5t18 -198h-745q6 -127 97.5 -200.5t242.5 -73.5q100 0 176 16.5t170 56.5l-14 -227q-185 -68 -396 -68q-150 0 -265.5 44.5t-184.5 122t-103.5 175.5t-34.5 213zM170 1434q0 76 49 124t131 48 t131 -48t49 -124t-49 -124t-131 -48t-131 48t-49 124zM373 668h436q0 109 -58 170t-159 61q-97 0 -153.5 -60.5t-65.5 -170.5zM645 1434q0 76 49 124t131 48t131.5 -48t49.5 -124t-49.5 -124t-131.5 -48t-131 48t-49 124z" />
<glyph unicode="&#xec;" horiz-adv-x="679" d="M-63 1542l145 144l444 -359l-153 -123zM57 862v209h426v-862h123v-209h-526v209h117v653h-140z" />
<glyph unicode="&#xed;" horiz-adv-x="679" d="M57 862v209h426v-862h123v-209h-526v209h117v653h-140zM154 1327l444 359l145 -144l-436 -338z" />
<glyph unicode="&#xee;" horiz-adv-x="679" d="M-119 1372l371 285h176l371 -285l-166 -135l-293 229l-293 -229zM57 862v209h426v-862h123v-209h-526v209h117v653h-140z" />
<glyph unicode="&#xef;" horiz-adv-x="679" d="M-78 1434q0 76 49 124t131 48t131.5 -48t49.5 -124t-49.5 -124t-131.5 -48t-131 48t-49 124zM57 862v209h426v-862h123v-209h-526v209h117v653h-140zM397 1434q0 76 49.5 124t131.5 48t131 -48t49 -124t-49 -124t-131 -48t-131.5 48t-49.5 124z" />
<glyph unicode="&#xf0;" horiz-adv-x="1253" d="M63 524q0 92 24.5 177.5t73.5 157t116 124.5t157 83t193 30q108 0 200 -66l4 4q-30 75 -87.5 156t-104.5 119l-193 -103l-129 119l185 98q-102 74 -166 101l209 123q77 -43 172 -109l164 88l129 -119l-146 -77q326 -289 326 -795q0 -660 -563 -660q-263 0 -413.5 140.5 t-150.5 408.5zM375 518q0 -309 252 -309t252 309q0 174 -61 259t-191 85q-126 0 -189 -94.5t-63 -249.5z" />
<glyph unicode="&#xf1;" horiz-adv-x="1402" d="M57 862v209h420q0 -143 -16 -221h4q41 110 138.5 178t232.5 68q186 0 278 -110t92 -308v-469h123v-209h-526v209h117v440q0 201 -187 201q-125 0 -187.5 -78.5t-62.5 -206.5v-356h123v-209h-514v209h105v653h-140zM283 1376q40 100 113.5 160.5t168.5 60.5q44 0 88 -16.5 t72.5 -36.5t63.5 -36.5t63 -16.5q37 0 61 17.5t62 72.5l147 -104q-45 -84 -112.5 -139.5t-151.5 -55.5q-37 0 -80.5 17.5t-76.5 39t-69.5 39t-62.5 17.5q-59 0 -112 -103z" />
<glyph unicode="&#xf2;" horiz-adv-x="1253" d="M63 524q0 92 24.5 177.5t73.5 157t116 124.5t157 83t193 30q271 0 417 -147t146 -425q0 -242 -154.5 -395.5t-408.5 -153.5q-263 0 -413.5 140.5t-150.5 408.5zM223 1542l146 144l444 -359l-154 -123zM375 518q0 -309 252 -309t252 309q0 174 -61 259t-191 85 q-126 0 -189 -94.5t-63 -249.5z" />
<glyph unicode="&#xf3;" horiz-adv-x="1253" d="M63 524q0 92 24.5 177.5t73.5 157t116 124.5t157 83t193 30q271 0 417 -147t146 -425q0 -242 -154.5 -395.5t-408.5 -153.5q-263 0 -413.5 140.5t-150.5 408.5zM375 518q0 -309 252 -309t252 309q0 174 -61 259t-191 85q-126 0 -189 -94.5t-63 -249.5zM440 1327l445 359 l145 -144l-436 -338z" />
<glyph unicode="&#xf4;" horiz-adv-x="1253" d="M63 524q0 92 24.5 177.5t73.5 157t116 124.5t157 83t193 30q271 0 417 -147t146 -425q0 -242 -154.5 -395.5t-408.5 -153.5q-263 0 -413.5 140.5t-150.5 408.5zM168 1372l371 285h176l370 -285l-165 -135l-293 229l-293 -229zM375 518q0 -309 252 -309t252 309 q0 174 -61 259t-191 85q-126 0 -189 -94.5t-63 -249.5z" />
<glyph unicode="&#xf5;" horiz-adv-x="1253" d="M63 524q0 92 24.5 177.5t73.5 157t116 124.5t157 83t193 30q271 0 417 -147t146 -425q0 -242 -154.5 -395.5t-408.5 -153.5q-263 0 -413.5 140.5t-150.5 408.5zM207 1376q40 100 113.5 160.5t168.5 60.5q44 0 88 -16.5t72.5 -36.5t63.5 -36.5t63 -16.5q37 0 61 17.5 t62 72.5l148 -104q-45 -84 -113 -139.5t-152 -55.5q-47 0 -102.5 28t-104.5 56.5t-81 28.5q-60 0 -113 -103zM375 518q0 -309 252 -309t252 309q0 174 -61 259t-191 85q-126 0 -189 -94.5t-63 -249.5z" />
<glyph unicode="&#xf6;" horiz-adv-x="1253" d="M63 524q0 92 24.5 177.5t73.5 157t116 124.5t157 83t193 30q271 0 417 -147t146 -425q0 -242 -154.5 -395.5t-408.5 -153.5q-263 0 -413.5 140.5t-150.5 408.5zM209 1434q0 76 49 124t131 48t131 -48t49 -124t-49 -124t-131 -48t-131 48t-49 124zM375 518 q0 -309 252 -309t252 309q0 174 -61 259t-191 85q-126 0 -189 -94.5t-63 -249.5zM684 1434q0 76 49 124t131 48t131 -48t49 -124t-49 -124t-131 -48t-131 48t-49 124z" />
<glyph unicode="&#xf7;" horiz-adv-x="1228" d="M96 408v221h1037v-221h-1037zM442 94q0 70 51 121t121 51t121 -51t51 -121t-51 -121t-121 -51t-121 51t-51 121zM442 942q0 70 51 121t121 51t121 -51t51 -121t-51 -121t-121 -51t-121 51t-51 121z" />
<glyph unicode="&#xf8;" horiz-adv-x="1253" d="M63 524q0 92 24.5 177.5t73.5 157t116 124.5t157 83t193 30q129 0 227 -33l133 209l150 -96l-125 -197q178 -149 178 -455q0 -242 -154.5 -395.5t-408.5 -153.5q-130 0 -228 33l-133 -209l-149 97l125 198q-179 143 -179 430zM375 518q0 -102 28 -168l316 498 q-41 14 -92 14q-126 0 -189 -94.5t-63 -249.5zM535 223q38 -14 92 -14q252 0 252 309q0 122 -31 201z" />
<glyph unicode="&#xf9;" horiz-adv-x="1366" d="M47 862v209h430v-600q0 -52 3 -86.5t14 -70.5t31 -57t55.5 -34.5t85.5 -13.5q96 0 159.5 72t63.5 196v385h-135v209h422v-862h124v-209h-401q0 170 27 221h-4q-51 -127 -141.5 -186.5t-229.5 -59.5q-178 0 -269.5 100t-91.5 275v512h-143zM281 1542l145 144l444 -359 l-153 -123z" />
<glyph unicode="&#xfa;" horiz-adv-x="1366" d="M47 862v209h430v-600q0 -52 3 -86.5t14 -70.5t31 -57t55.5 -34.5t85.5 -13.5q96 0 159.5 72t63.5 196v385h-135v209h422v-862h124v-209h-401q0 170 27 221h-4q-51 -127 -141.5 -186.5t-229.5 -59.5q-178 0 -269.5 100t-91.5 275v512h-143zM498 1327l444 359l145 -144 l-436 -338z" />
<glyph unicode="&#xfb;" horiz-adv-x="1366" d="M47 862v209h430v-600q0 -52 3 -86.5t14 -70.5t31 -57t55.5 -34.5t85.5 -13.5q96 0 159.5 72t63.5 196v385h-135v209h422v-862h124v-209h-401q0 170 27 221h-4q-51 -127 -141.5 -186.5t-229.5 -59.5q-178 0 -269.5 100t-91.5 275v512h-143zM205 1372l370 285h177l370 -285 l-166 -135l-292 229l-293 -229z" />
<glyph unicode="&#xfc;" horiz-adv-x="1366" d="M47 862v209h430v-600q0 -52 3 -86.5t14 -70.5t31 -57t55.5 -34.5t85.5 -13.5q96 0 159.5 72t63.5 196v385h-135v209h422v-862h124v-209h-401q0 170 27 221h-4q-51 -127 -141.5 -186.5t-229.5 -59.5q-178 0 -269.5 100t-91.5 275v512h-143zM246 1434q0 76 49 124t131 48 t131 -48t49 -124t-49 -124t-131 -48t-131 48t-49 124zM721 1434q0 76 49 124t131 48t131 -48t49 -124t-49 -124t-131 -48t-131 48t-49 124z" />
<glyph unicode="&#xfd;" horiz-adv-x="1251" d="M20 862v209h533v-209h-111q22 -27 39 -74l135 -364q38 -108 50 -203h4q13 99 49 203l127 364q17 47 39 74h-133v209h479v-209h-98l-330 -885q-58 -156 -111 -254t-118 -157.5t-138 -82t-176 -22.5q-46 0 -156 25v221q91 -24 156 -24q90 0 141 47.5t127 197.5l-409 934 h-99zM440 1327l445 359l145 -144l-436 -338z" />
<glyph unicode="&#xfe;" horiz-adv-x="1327" d="M16 1366v209h451v-420q0 -30 -2.5 -68.5t-5 -66.5t-8 -77.5t-7.5 -74.5h5q104 228 364 228q183 0 298.5 -129t115.5 -361q0 -93 -18 -178.5t-61.5 -169.5t-110 -145.5t-171.5 -99.5t-237 -38q-76 0 -162 11v-291h123v-209h-527v209h117v1671h-164zM461 248 q30 -16 83 -27.5t99 -11.5q75 0 133.5 30t93.5 81.5t52.5 115.5t17.5 137q0 59 -11.5 108t-37 91t-72 66t-110.5 24q-68 0 -118.5 -23t-77.5 -62.5t-39.5 -85.5t-12.5 -99v-344z" />
<glyph unicode="&#xff;" horiz-adv-x="1251" d="M20 862v209h533v-209h-111q22 -27 39 -74l135 -364q38 -108 50 -203h4q13 99 49 203l127 364q17 47 39 74h-133v209h479v-209h-98l-330 -885q-58 -156 -111 -254t-118 -157.5t-138 -82t-176 -22.5q-46 0 -156 25v221q91 -24 156 -24q90 0 141 47.5t127 197.5l-409 934 h-99zM209 1434q0 76 49 124t131 48t131 -48t49 -124t-49 -124t-131 -48t-131 48t-49 124zM684 1434q0 76 49 124t131 48t131 -48t49 -124t-49 -124t-131 -48t-131 48t-49 124z" />
<glyph unicode="&#x152;" horiz-adv-x="2086" d="M70 707q0 333 204 536t551 203q90 0 131 -4q82 -8 144 -8h878l13 -422h-246l-12 213h-351v-377h361v-221h-361v-418h357l16 242h246l-16 -451h-885q-83 0 -144 -6q-62 -6 -131 -6q-377 0 -566 189.5t-189 529.5zM393 709q0 -248 132.5 -374t383.5 -126q51 0 174 6v1006 q-82 16 -170 16q-248 0 -384 -138.5t-136 -389.5z" />
<glyph unicode="&#x153;" horiz-adv-x="1896" d="M74 520q0 169 59 297.5t181.5 203.5t295.5 75q144 0 237.5 -44.5t149.5 -156.5q54 96 143 148.5t201 52.5q109 0 195 -34.5t151.5 -107t100.5 -194.5t35 -289h-719q0 -143 95 -208.5t257 -65.5q171 0 326 79l-10 -221q-54 -36 -163 -58t-212 -22q-156 0 -262 47t-168 150 q-99 -197 -381 -197q-247 0 -379.5 148t-132.5 397zM360 539q0 -51 7.5 -98t26.5 -92.5t48.5 -78t75.5 -53t105 -20.5q211 0 211 247v195q0 115 -50.5 175t-165.5 60q-70 0 -122 -28.5t-80.5 -77.5t-42 -106t-13.5 -123zM1108 668h428q-3 95 -56.5 157t-162.5 62 q-100 0 -154.5 -62t-54.5 -157z" />
<glyph unicode="&#x178;" horiz-adv-x="1517" d="M20 1225v209h570v-209h-115q47 -50 76 -92l237 -349l256 351q31 42 76 90h-143v209h520v-209h-113l-475 -654v-362h129v-209h-555v209h127v360l-477 656h-113zM342 1735q0 76 49 124t131 48t131 -48t49 -124t-49 -124t-131 -48t-131 48t-49 124zM817 1735q0 76 49 124 t131 48t131.5 -48t49.5 -124t-49.5 -124t-131.5 -48t-131 48t-49 124z" />
<glyph unicode="&#x2c6;" horiz-adv-x="679" d="M-119 1372l371 285h176l371 -285l-166 -135l-293 229l-293 -229z" />
<glyph unicode="&#x2dc;" horiz-adv-x="679" d="M-80 1376q40 99 114 160t169 61q56 0 109 -26.5t97.5 -53t79.5 -26.5q37 0 61 17.5t62 72.5l148 -104q-45 -84 -112.5 -139.5t-151.5 -55.5q-37 0 -80.5 17.5t-76.5 39t-69.5 39t-62.5 17.5q-60 0 -113 -103z" />
<glyph unicode="&#x2000;" horiz-adv-x="993" />
<glyph unicode="&#x2001;" horiz-adv-x="1987" />
<glyph unicode="&#x2002;" horiz-adv-x="993" />
<glyph unicode="&#x2003;" horiz-adv-x="1987" />
<glyph unicode="&#x2004;" horiz-adv-x="662" />
<glyph unicode="&#x2005;" horiz-adv-x="496" />
<glyph unicode="&#x2006;" horiz-adv-x="331" />
<glyph unicode="&#x2007;" horiz-adv-x="331" />
<glyph unicode="&#x2008;" horiz-adv-x="248" />
<glyph unicode="&#x2009;" horiz-adv-x="397" />
<glyph unicode="&#x200a;" horiz-adv-x="110" />
<glyph unicode="&#x2010;" horiz-adv-x="872" d="M137 487v246h598v-246h-598z" />
<glyph unicode="&#x2011;" horiz-adv-x="872" d="M137 487v246h598v-246h-598z" />
<glyph unicode="&#x2012;" horiz-adv-x="872" d="M137 487v246h598v-246h-598z" />
<glyph unicode="&#x2013;" horiz-adv-x="1024" d="M0 500v221h1024v-221h-1024z" />
<glyph unicode="&#x2014;" horiz-adv-x="2048" d="M0 500v221h2048v-221h-2048z" />
<glyph unicode="&#x2018;" d="M78 1098q0 301 317 508l133 -127q-94 -74 -128.5 -133.5t-34.5 -120.5q0 -35 17.5 -67.5t38.5 -54.5t38.5 -54t17.5 -66q0 -76 -49.5 -122t-124.5 -46q-72 0 -124.5 42.5t-76.5 105.5t-24 135z" />
<glyph unicode="&#x2019;" d="M78 942q94 74 129 133.5t35 120.5q0 35 -17.5 67.5t-39 54.5t-39 54t-17.5 66q0 76 49.5 122t124.5 46q72 0 124.5 -42.5t76.5 -105.5t24 -135q0 -301 -317 -508z" />
<glyph unicode="&#x201a;" d="M78 -330q94 74 129 133.5t35 120.5q0 35 -17.5 67.5t-39 54.5t-39 54t-17.5 66q0 76 49.5 122t124.5 46q72 0 124.5 -42.5t76.5 -105.5t24 -135q0 -301 -317 -508z" />
<glyph unicode="&#x201c;" horiz-adv-x="1099" d="M68 1098q0 301 317 508l133 -127q-94 -74 -129 -133.5t-35 -120.5q0 -35 17.5 -67.5t39 -54.5t39 -54t17.5 -66q0 -76 -49.5 -122t-124.5 -46q-72 0 -124.5 42.5t-76.5 105.5t-24 135zM582 1098q0 301 317 508l133 -127q-94 -74 -129 -133.5t-35 -120.5q0 -35 17.5 -67.5 t39 -54.5t39 -54t17.5 -66q0 -76 -49.5 -122t-124.5 -46q-72 0 -124.5 42.5t-76.5 105.5t-24 135z" />
<glyph unicode="&#x201d;" horiz-adv-x="1099" d="M68 942q94 74 128.5 133.5t34.5 120.5q0 35 -17.5 67.5t-38.5 54.5t-38.5 54t-17.5 66q0 76 49.5 122t124.5 46q72 0 124.5 -42.5t76.5 -105.5t24 -135q0 -301 -317 -508zM582 942q94 74 128.5 133.5t34.5 120.5q0 35 -17.5 67.5t-38.5 54.5t-38.5 54t-17.5 66 q0 76 49.5 122t124.5 46q72 0 124.5 -42.5t76.5 -105.5t24 -135q0 -301 -317 -508z" />
<glyph unicode="&#x201e;" horiz-adv-x="1099" d="M68 -330q94 74 128.5 133.5t34.5 120.5q0 35 -17.5 67.5t-38.5 54.5t-38.5 54t-17.5 66q0 76 49.5 122t124.5 46q72 0 124.5 -42.5t76.5 -105.5t24 -135q0 -301 -317 -508zM582 -330q94 74 128.5 133.5t34.5 120.5q0 35 -17.5 67.5t-38.5 54.5t-38.5 54t-17.5 66 q0 76 49.5 122t124.5 46q72 0 124.5 -42.5t76.5 -105.5t24 -135q0 -301 -317 -508z" />
<glyph unicode="&#x2022;" horiz-adv-x="1024" d="M154 717q0 149 104.5 253.5t253.5 104.5t253.5 -104.5t104.5 -253.5t-104.5 -254t-253.5 -105t-253.5 105t-104.5 254z" />
<glyph unicode="&#x2026;" horiz-adv-x="2048" d="M150 150q0 88 53.5 136t138.5 48t139 -48t54 -136q0 -79 -52 -132t-141 -53t-140.5 52.5t-51.5 132.5zM831 150q0 88 54 136t139 48t139 -48t54 -136q0 -79 -52 -132t-141 -53t-141 53t-52 132zM1513 150q0 88 54 136t139 48t138.5 -48t53.5 -136q0 -80 -51.5 -132.5 t-140.5 -52.5t-141 53t-52 132z" />
<glyph unicode="&#x202f;" horiz-adv-x="397" />
<glyph unicode="&#x2039;" d="M63 530v160l277 324l203 -170l-211 -234l211 -233l-203 -170z" />
<glyph unicode="&#x203a;" d="M63 377l211 233l-211 234l203 170l277 -324v-160l-277 -323z" />
<glyph unicode="&#x205f;" horiz-adv-x="496" />
<glyph unicode="&#x20ac;" horiz-adv-x="1212" d="M18 492l86 180h62l4 116h-152l86 181h95q67 238 228 367.5t400 129.5q195 0 390 -86v-313h-224v145q-85 31 -166 31q-247 0 -333 -274h634l-86 -181h-581v-116h536l-86 -180h-417q86 -287 354 -287q139 0 354 84v-242q-185 -72 -383 -72q-514 0 -631 517h-170z" />
<glyph unicode="&#x2122;" horiz-adv-x="2027" d="M4 1294v140h680v-140h-248v-712h-184v712h-248zM831 582v852h277l215 -607h4l215 607h277v-852h-185v655h-4l-235 -655h-140l-235 655h-4v-655h-185z" />
<glyph unicode="&#xe000;" horiz-adv-x="1075" d="M0 0v1075h1075v-1075h-1075z" />
</font>
</defs>
</svg>
