<?xml version="1.0" encoding="utf-8"?>
<!-- Generator: Adobe Illustrator 13.0.0, SVG Export Plug-In  -->
<!DOCTYPE svg PUBLIC "-//W3C//DTD SVG 1.1 Tiny//EN" "http://www.w3.org/Graphics/SVG/1.1/DTD/svg11-tiny.dtd" [
	<!ENTITY ns_flows "http://ns.adobe.com/Flows/1.0/">
]>
<svg version="1.1" baseProfile="tiny"
	 xmlns="http://www.w3.org/2000/svg" xmlns:xlink="http://www.w3.org/1999/xlink" xmlns:a="http://ns.adobe.com/AdobeSVGViewerExtensions/3.0/"
	 x="0px" y="0px" width="96px" height="43px" viewBox="-17.04 -10.241 96 43" xml:space="preserve">
<defs>
</defs>
<path fill="#40404C" d="M4.62,0.39v21.18H0V0.39H4.62z"/>
<path fill="#40404C" d="M23.399,17.579c-0.54,0.81-1.08,1.59-1.89,2.34c-1.35,1.26-3.39,2.22-5.91,2.22
	c-4.65,0-7.92-2.97-7.92-8.101c0-3.779,1.86-8.639,8.04-8.639c0.93,0,3.63,0.09,5.64,2.25c2.04,2.19,2.16,5.25,2.22,7.02H12.39
	c-0.03,1.949,1.08,3.9,3.57,3.9c2.52,0,3.39-1.65,3.959-2.761L23.399,17.579z M18.809,11.788c-0.09-0.659-0.21-1.529-0.87-2.219
	c-0.57-0.57-1.44-0.87-2.25-0.87c-1.11,0-1.89,0.54-2.34,1.02c-0.63,0.69-0.78,1.41-0.93,2.069H18.809z"/>
<path fill="#40404C" d="M39.239,5.91l-4.74,7.32l5.311,8.34h-4.92l-2.971-4.86l-2.61,4.86h-5.1l5.31-8.49l-4.74-7.169h5.22
	l2.07,3.99l2.22-3.99H39.239z"/>
<path fill="#40404C" d="M41.909,5.91h4.56v15.66h-4.56V5.91z M44.519,0h5.461l-4.59,3.99h-3.061L44.519,0z"/>
<path fill="#40404C" d="M50.579,10.349c0.09-1.08,0.24-2.37,1.65-3.479c1.439-1.14,3.299-1.38,5.129-1.38c1.92,0,6.57,0.45,6.57,4.5
	v9.121c0,1.68,0.09,1.92,0.45,2.459h-4.53V20.13c-1.17,0.869-2.49,1.859-4.8,1.859c-3.601,0-5.13-2.58-5.13-4.77
	c0-2.52,2.01-3.96,3.3-4.5c1.261-0.54,4.229-1.08,6.181-1.44v-0.84c-0.061-0.72-0.121-1.92-1.771-1.92c-2.04,0-2.31,1.26-2.431,1.83
	L50.579,10.349L50.579,10.349z M56.429,15.059c-0.779,0.3-1.98,0.75-1.98,1.95c0,0.75,0.66,1.59,1.74,1.59
	c0.57,0,1.11-0.21,1.59-0.51c1.531-0.96,1.591-2.4,1.621-4.02L56.429,15.059z"/>
</svg>
